<svg width="218" height="143" viewBox="0 0 218 143" fill="none" xmlns="http://www.w3.org/2000/svg">
<ellipse cx="109" cy="135.215" rx="109" ry="7" fill="#D9D9D9"/>
<path d="M77.5 27.2148H142" stroke="#D9D9D9" stroke-width="2"/>
<path d="M68 34.7148H152" stroke="#D9D9D9" stroke-width="2"/>
<path d="M58.5 41.7148H160.5" stroke="#D9D9D9" stroke-width="2"/>
<path d="M50.5 49.2148H169" stroke="#D9D9D9" stroke-width="2"/>
<path d="M46 56.2148H171.5" stroke="#D9D9D9" stroke-width="2"/>
<path d="M58.5 63.2148H160" stroke="#D9D9D9" stroke-width="2"/>
<path d="M71.5 70.7148H145" stroke="#D9D9D9" stroke-width="2"/>
<path d="M84 77.7148H134" stroke="#D9D9D9" stroke-width="2"/>
<path d="M94.5 84.2148H121" stroke="#D9D9D9" stroke-width="2"/>
<path d="M86.5 20.2148H133" stroke="#D9D9D9" stroke-width="2"/>
<path d="M102.5 7.21484H117.5" stroke="#D9D9D9" stroke-width="2"/>
<path d="M94.5 13.2148H125" stroke="#D9D9D9" stroke-width="2"/>
<path d="M43 128.715V55.196C43 54.8919 43.1384 54.6043 43.376 54.4146L109.369 1.71878C109.737 1.42478 110.261 1.42767 110.625 1.72573L175.133 54.4147C175.365 54.6047 175.5 54.889 175.5 55.1892V128.715C175.5 129.267 175.052 129.715 174.5 129.715H44C43.4477 129.715 43 129.267 43 128.715Z" stroke="black" stroke-width="3"/>
<path d="M67 7.71484H149C150.381 7.71484 151.5 8.83413 151.5 10.2148V65.9512C151.5 66.8582 151.008 67.6945 150.216 68.1357L109.216 90.9658C108.46 91.3865 107.54 91.3865 106.784 90.9658L65.7842 68.1357C64.9917 67.6945 64.5 66.8582 64.5 65.9512V10.2148L64.5127 9.95898C64.6408 8.69845 65.7057 7.71484 67 7.71484Z" fill="#F8FAFC" stroke="#64748B"/>
<path d="M108.261 91.2148C103.094 83.7148 95.8607 64.0148 108.261 45.2148" stroke="#4338CA" stroke-width="2" stroke-linecap="round"/>
<path d="M103.762 80.7148C103.762 78.0482 105.562 72.0148 112.762 69.2148C112.428 71.7148 110.162 77.5148 103.762 80.7148Z" fill="#EEF2FF" stroke="#4338CA" stroke-width="2" stroke-linecap="round" stroke-linejoin="round"/>
<path d="M101.762 75.2148C101.762 72.5482 99.9617 66.5148 92.7617 63.7148C93.0951 66.2148 95.3617 72.0148 101.762 75.2148Z" fill="#EEF2FF" stroke="#4338CA" stroke-width="2" stroke-linecap="round" stroke-linejoin="round"/>
<path d="M108.649 44.2174C108.011 41.4619 108.324 34.6145 114.68 29.268C115.318 32.2354 115.005 39.3797 108.649 44.2174Z" fill="#EEF2FF" stroke="#4338CA" stroke-width="2" stroke-linecap="round" stroke-linejoin="round"/>
<path d="M102.506 59.2486C101.868 56.4932 102.182 49.6457 108.538 44.2993C109.176 47.2667 108.863 54.411 102.506 59.2486Z" fill="#EEF2FF" stroke="#4338CA" stroke-width="2" stroke-linecap="round" stroke-linejoin="round"/>
<path d="M108.691 44.3108C111.446 43.673 118.294 43.9863 123.64 50.3423C120.673 50.9803 113.528 50.6672 108.691 44.3108Z" fill="#EEF2FF" stroke="#4338CA" stroke-width="2" stroke-linecap="round" stroke-linejoin="round"/>
<path d="M93.6596 38.1702C96.415 37.5323 103.262 37.8457 108.609 44.2017C105.642 44.8397 98.4972 44.5266 93.6596 38.1702Z" fill="#EEF2FF" stroke="#4338CA" stroke-width="2" stroke-linecap="round" stroke-linejoin="round"/>
<path d="M108.592 44.2146C106.193 42.7172 101.572 37.6538 102.286 29.3789C104.836 31.026 109.666 36.2992 108.592 44.2146Z" fill="#EEF2FF" stroke="#4338CA" stroke-width="2" stroke-linecap="round" stroke-linejoin="round"/>
<path d="M114.879 59.1872C112.48 57.6899 107.859 52.6264 108.573 44.3515C111.123 45.9987 115.953 51.2718 114.879 59.1872Z" fill="#EEF2FF" stroke="#4338CA" stroke-width="2" stroke-linecap="round" stroke-linejoin="round"/>
<path d="M108.69 44.2522C110.187 41.8528 115.251 37.2325 123.525 37.9464C121.878 40.4958 116.605 45.3261 108.69 44.2522Z" fill="#EEF2FF" stroke="#4338CA" stroke-width="2" stroke-linecap="round" stroke-linejoin="round"/>
<path d="M93.719 50.5413C95.2164 48.1419 100.28 43.5215 108.555 44.2354C106.908 46.7848 101.634 51.6152 93.719 50.5413Z" fill="#EEF2FF" stroke="#4338CA" stroke-width="2" stroke-linecap="round" stroke-linejoin="round"/>
<path d="M43.5 54.7148L107.508 91.4327C107.813 91.6077 108.188 91.6095 108.495 91.4375L174 54.7148" stroke="black" stroke-width="3"/>
<circle cx="175.5" cy="121.715" r="13" fill="#ECFDF5" stroke="#047857"/>
<path d="M172.696 126.105L169.047 122.456L167.805 123.69L172.696 128.581L183.196 118.081L181.962 116.848L172.696 126.105Z" fill="#047857"/>
<rect x="71" y="14.2148" width="26" height="4" rx="2" fill="#D9D9D9"/>
<rect x="71" y="21.2148" width="26" height="4" rx="2" fill="#D9D9D9"/>
<line x1="43.7071" y1="39.2148" x2="46" y2="41.5077" stroke="#6366F1" stroke-linecap="round"/>
<line x1="44.7071" y1="38.2148" x2="47" y2="40.5077" stroke="#6366F1" stroke-linecap="round"/>
<circle cx="49" cy="34.2148" r="1.5" fill="#EEF2FF" stroke="#6366F1"/>
<line x1="0.5" y1="-0.5" x2="3.74264" y2="-0.5" transform="matrix(-0.707107 0.707107 0.707107 0.707107 175 39.2148)" stroke="#6366F1" stroke-linecap="round"/>
<line x1="0.5" y1="-0.5" x2="3.74264" y2="-0.5" transform="matrix(-0.707107 0.707107 0.707107 0.707107 174 38.2148)" stroke="#6366F1" stroke-linecap="round"/>
<circle cx="2" cy="2" r="1.5" transform="matrix(-1 0 0 1 171 32.2148)" fill="#EEF2FF" stroke="#6366F1"/>
</svg>
