<svg width="218" height="196" viewBox="0 0 218 196" fill="none" xmlns="http://www.w3.org/2000/svg">
<ellipse cx="109" cy="189" rx="109" ry="7" fill="#D9D9D9"/>
<path d="M77.5 81H142" stroke="#D9D9D9" stroke-width="2"/>
<path d="M68 88.5H152" stroke="#D9D9D9" stroke-width="2"/>
<path d="M58.5 95.5H160.5" stroke="#D9D9D9" stroke-width="2"/>
<path d="M50.5 103H169" stroke="#D9D9D9" stroke-width="2"/>
<path d="M46 110H171.5" stroke="#D9D9D9" stroke-width="2"/>
<path d="M58.5 117H160" stroke="#D9D9D9" stroke-width="2"/>
<path d="M71.5 124.5H145" stroke="#D9D9D9" stroke-width="2"/>
<path d="M84 131.5H134" stroke="#D9D9D9" stroke-width="2"/>
<path d="M94.5 138H121" stroke="#D9D9D9" stroke-width="2"/>
<path d="M86.5 74H133" stroke="#D9D9D9" stroke-width="2"/>
<path d="M102.5 61H117.5" stroke="#D9D9D9" stroke-width="2"/>
<path d="M94.5 67H125" stroke="#D9D9D9" stroke-width="2"/>
<path d="M43 182.5V108.981C43 108.677 43.1384 108.39 43.376 108.2L109.369 55.5039C109.737 55.2099 110.261 55.2128 110.625 55.5109L175.133 108.2C175.365 108.39 175.5 108.674 175.5 108.974V182.5C175.5 183.052 175.052 183.5 174.5 183.5H44C43.4477 183.5 43 183.052 43 182.5Z" stroke="black" stroke-width="3"/>
<path d="M43.5 108.5L107.508 145.218C107.813 145.393 108.188 145.395 108.495 145.223L174 108.5" stroke="black" stroke-width="3"/>
<path d="M147.598 62.0036C149.653 69.4063 145.294 84.1564 142.532 91.5212C142.328 92.0669 141.701 92.3087 141.18 92.0472C137.821 90.3611 131.449 86.8999 126.613 83.3783C121.261 79.4804 120.953 74.9711 121.468 73.2037C123.317 65.8212 132.062 59.8192 136.204 57.7411C139.105 55.9301 145.445 54.2472 147.598 62.0036Z" fill="#EEF2FF" stroke="#1B00C2" stroke-width="2"/>
<path d="M121.693 87.6866C124.23 84.6742 135.376 89.2753 141.331 92.2903C141.781 92.5182 141.984 93.05 141.77 93.507C138.105 101.341 126.198 102.814 121.069 101.32C115.767 99.7749 118.377 91.6242 121.693 87.6866Z" fill="#EEF2FF" stroke="#1B00C2" stroke-width="2"/>
<path d="M132.231 107.803C131.932 106.811 142.265 93.9971 149.334 85.4548C150.004 84.6448 151.231 85.2748 150.922 86.2799C145.122 105.18 132.629 109.122 132.231 107.803Z" fill="white" stroke="#1B00C2" stroke-width="2"/>
<circle cx="153.143" cy="82.1512" r="2.5" transform="rotate(20.7873 153.143 82.1512)" fill="white" stroke="#1B00C2" stroke-width="2"/>
<path d="M158.622 70.695C159.164 70.8009 159.689 70.4472 159.795 69.9052C159.901 69.3631 159.547 68.8379 159.005 68.7321L158.622 70.695ZM153.665 80.4255C154.024 78.5906 154.751 75.8935 155.752 73.7572C156.256 72.6825 156.796 71.8213 157.341 71.2772C157.881 70.7373 158.292 70.6306 158.622 70.695L159.005 68.7321C157.765 68.4899 156.716 69.0747 155.928 69.862C155.144 70.6451 154.485 71.7468 153.941 72.9086C152.846 75.2452 152.079 78.1149 151.703 80.0422L153.665 80.4255Z" fill="#1B00C2"/>
<path d="M162.098 77.416C162.339 77.9132 162.937 78.1212 163.434 77.8806C163.931 77.6401 164.139 77.042 163.899 76.5449L162.098 77.416ZM156.275 81.8368C157.31 80.7925 158.898 79.3559 160.305 78.4116C161.024 77.9293 161.607 77.6369 162.002 77.5417C162.195 77.4952 162.251 77.5191 162.224 77.5111C162.204 77.5049 162.171 77.4898 162.139 77.4615C162.107 77.4338 162.096 77.4117 162.098 77.416L163.899 76.5449C163.674 76.0794 163.294 75.7462 162.807 75.5979C162.363 75.4624 161.912 75.506 161.532 75.5976C160.782 75.7788 159.957 76.2368 159.191 76.7508C157.628 77.7993 155.935 79.3391 154.855 80.429L156.275 81.8368Z" fill="#1B00C2"/>
<path d="M67.3239 35.7804C65.7993 41.2717 68.9622 52.1317 71.0447 57.7566C71.247 58.3031 71.8761 58.5487 72.396 58.2853C74.98 56.9762 79.5973 54.4481 83.1273 51.8773C87.158 48.9418 87.3901 45.546 87.0023 44.215C85.6099 38.6554 79.0238 34.1354 75.9047 32.5704C73.7202 31.2066 68.9457 29.9392 67.3239 35.7804Z" fill="#EEF2FF" stroke="#1B00C2" stroke-width="1.75"/>
<path d="M86.8323 55.1219C84.9493 52.8859 76.7685 56.2198 72.2398 58.4901C71.7888 58.7162 71.5824 59.2511 71.8082 59.7023C74.6742 65.4294 83.483 66.5013 87.3023 65.3886C91.2954 64.2253 89.3296 58.0872 86.8323 55.1219Z" fill="#EEF2FF" stroke="#1B00C2" stroke-width="1.75"/>
<path d="M79.8965 69.271C80.1124 68.5541 72.956 59.6398 67.6737 53.2363C67.0047 52.4252 65.8027 53.0512 66.137 54.048C70.6264 67.4333 79.6043 70.2413 79.8965 69.271Z" fill="white" stroke="#1B00C2" stroke-width="1.75"/>
<circle cx="2.63578" cy="2.63578" r="1.76078" transform="matrix(-0.934904 0.3549 0.3549 0.934904 66.3679 47.5439)" fill="white" stroke="#1B00C2" stroke-width="1.75"/>
<path d="M60.7363 42.436C60.262 42.5287 59.8025 42.2192 59.7099 41.7449C59.6173 41.2707 59.9267 40.8111 60.401 40.7185L60.7363 42.436ZM64.326 49.6676C64.0573 48.2914 63.5121 46.2708 62.7639 44.6742C62.3871 43.8702 61.9874 43.2363 61.5916 42.841C61.1996 42.4495 60.9292 42.3984 60.7363 42.436L60.401 40.7185C61.3907 40.5252 62.2195 40.9948 62.8283 41.6028C63.4333 42.207 63.9361 43.0514 64.3485 43.9316C65.1788 45.7035 65.7591 47.8751 66.0436 49.3322L64.326 49.6676Z" fill="#1B00C2"/>
<path d="M58.2047 47.431C57.9942 47.866 57.471 48.048 57.036 47.8375C56.601 47.627 56.419 47.1038 56.6294 46.6688L58.2047 47.431ZM62.3936 50.7929C61.6171 50.0092 60.4278 48.9336 59.3774 48.2289C58.8388 47.8676 58.4144 47.6575 58.1393 47.5911C58.0053 47.5587 57.9871 47.5809 58.0357 47.5661C58.1211 47.5401 58.1849 47.4719 58.2047 47.431L56.6294 46.6688C56.8132 46.2889 57.1252 46.0141 57.5256 45.8921C57.8892 45.7813 58.2527 45.8182 58.5498 45.8899C59.137 46.0316 59.7725 46.3866 60.3524 46.7757C61.5388 47.5716 62.8205 48.7375 63.6367 49.5611L62.3936 50.7929Z" fill="#1B00C2"/>
<path d="M142.029 5.57757C143.267 10.0374 140.746 18.802 139.034 23.4768C138.833 24.0241 138.206 24.2686 137.687 24.0037C135.533 22.9046 131.857 20.8784 129.029 18.8188C125.713 16.4041 125.522 13.6107 125.841 12.5158C126.987 7.94247 132.404 4.22438 134.97 2.937C136.767 1.81512 140.695 0.772596 142.029 5.57757Z" fill="#EEF2FF" stroke="#1B00C2" stroke-width="1.5"/>
<path d="M125.981 21.4878C127.511 19.6713 134.093 22.3236 137.845 24.1886C138.297 24.4132 138.504 24.9489 138.268 25.3948C135.839 29.9841 128.705 30.8394 125.594 29.9332C122.31 28.9763 123.927 23.9271 125.981 21.4878Z" fill="#EEF2FF" stroke="#1B00C2" stroke-width="1.5"/>
<path d="M131.887 32.9494C131.716 32.3807 137.184 25.5409 141.471 20.33C142.139 19.518 143.319 20.1373 142.962 21.126C139.198 31.5357 132.122 33.7303 131.887 32.9494Z" fill="white" stroke="#1B00C2" stroke-width="1.5"/>
<circle cx="144.009" cy="18.9171" r="1.41818" transform="rotate(20.7873 144.009 18.9171)" fill="white" stroke="#1B00C2" stroke-width="1.5"/>
<path d="M147.378 11.9485C147.785 12.0279 148.179 11.7627 148.258 11.3561C148.337 10.9496 148.072 10.5557 147.666 10.4763L147.378 11.9485ZM144.461 17.8733C144.682 16.7426 145.13 15.0831 145.744 13.7728C146.053 13.1127 146.38 12.5949 146.702 12.2734C147.021 11.9551 147.233 11.9202 147.378 11.9485L147.666 10.4763C146.838 10.3147 146.146 10.7081 145.642 11.212C145.141 11.7127 144.725 12.4109 144.385 13.1363C143.701 14.5968 143.223 16.3858 142.989 17.5858L144.461 17.8733Z" fill="#1B00C2"/>
<path d="M149.439 16.0409C149.62 16.4137 150.068 16.5697 150.441 16.3893C150.814 16.2089 150.97 15.7604 150.79 15.3875L149.439 16.0409ZM146.042 18.8144C146.68 18.1705 147.657 17.2873 148.519 16.7092C148.961 16.4124 149.307 16.2421 149.527 16.1888C149.635 16.1628 149.644 16.1821 149.597 16.1677C149.518 16.1438 149.459 16.0818 149.439 16.0409L150.79 15.3875C150.635 15.0678 150.372 14.8357 150.034 14.7328C149.728 14.6395 149.423 14.6709 149.176 14.7306C148.687 14.8485 148.161 15.143 147.683 15.4635C146.705 16.1198 145.649 17.0804 144.977 17.7586L146.042 18.8144Z" fill="#1B00C2"/>
</svg>
