<svg width="218" height="143" viewBox="0 0 218 143" fill="none" xmlns="http://www.w3.org/2000/svg">
<ellipse cx="109" cy="136" rx="109" ry="7" fill="#D9D9D9"/>
<path d="M77.5 28H142" stroke="#D9D9D9" stroke-width="2"/>
<path d="M68 35.5H152" stroke="#D9D9D9" stroke-width="2"/>
<path d="M58.5 42.5H160.5" stroke="#D9D9D9" stroke-width="2"/>
<path d="M50.5 50H169" stroke="#D9D9D9" stroke-width="2"/>
<path d="M46 57H171.5" stroke="#D9D9D9" stroke-width="2"/>
<path d="M58.5 64H160" stroke="#D9D9D9" stroke-width="2"/>
<path d="M71.5 71.5H145" stroke="#D9D9D9" stroke-width="2"/>
<path d="M84 78.5H134" stroke="#D9D9D9" stroke-width="2"/>
<path d="M94.5 85H121" stroke="#D9D9D9" stroke-width="2"/>
<path d="M86.5 21H133" stroke="#D9D9D9" stroke-width="2"/>
<path d="M102.5 8H117.5" stroke="#D9D9D9" stroke-width="2"/>
<path d="M94.5 14H125" stroke="#D9D9D9" stroke-width="2"/>
<path d="M43 129.5V55.9812C43 55.6771 43.1384 55.3895 43.376 55.1997L109.369 2.50394C109.737 2.20993 110.261 2.21283 110.625 2.51089L175.133 55.1999C175.365 55.3898 175.5 55.6742 175.5 55.9744V129.5C175.5 130.052 175.052 130.5 174.5 130.5H44C43.4477 130.5 43 130.052 43 129.5Z" stroke="black" stroke-width="3"/>
<path d="M67 8.5H149C150.381 8.5 151.5 9.61929 151.5 11V66.7367C151.5 67.6438 151.009 68.4797 150.216 68.921L109.216 91.7505C108.46 92.1715 107.54 92.1715 106.784 91.7505L65.7838 68.921C64.9913 68.4797 64.5 67.6438 64.5 66.7367V11C64.5 9.61929 65.6193 8.5 67 8.5Z" fill="#F8FAFC" stroke="#64748B"/>
<path d="M108.261 92C103.095 84.5 95.8614 64.8 108.261 46" stroke="#4338CA" stroke-width="2" stroke-linecap="round"/>
<path d="M103.761 81.5C103.761 78.8333 105.561 72.8 112.761 70C112.428 72.5 110.161 78.3 103.761 81.5Z" fill="#EEF2FF" stroke="#4338CA" stroke-width="2" stroke-linecap="round" stroke-linejoin="round"/>
<path d="M101.761 76C101.761 73.3333 99.9614 67.3 92.7614 64.5C93.0947 67 95.3614 72.8 101.761 76Z" fill="#EEF2FF" stroke="#4338CA" stroke-width="2" stroke-linecap="round" stroke-linejoin="round"/>
<path d="M108.649 45.0025C108.011 42.2471 108.325 35.3996 114.681 30.0532C115.319 33.0206 115.006 40.1649 108.649 45.0025Z" fill="#EEF2FF" stroke="#4338CA" stroke-width="2" stroke-linecap="round" stroke-linejoin="round"/>
<path d="M102.508 60.0328C101.87 57.2774 102.184 50.4299 108.54 45.0835C109.178 48.0509 108.864 55.1951 102.508 60.0328Z" fill="#EEF2FF" stroke="#4338CA" stroke-width="2" stroke-linecap="round" stroke-linejoin="round"/>
<path d="M108.691 45.0978C111.447 44.46 118.294 44.7733 123.641 51.1293C120.673 51.7673 113.529 51.4542 108.691 45.0978Z" fill="#EEF2FF" stroke="#4338CA" stroke-width="2" stroke-linecap="round" stroke-linejoin="round"/>
<path d="M93.6611 38.9567C96.4165 38.3188 103.264 38.6322 108.61 44.9882C105.643 45.6262 98.4987 45.3131 93.6611 38.9567Z" fill="#EEF2FF" stroke="#4338CA" stroke-width="2" stroke-linecap="round" stroke-linejoin="round"/>
<path d="M108.593 45.0037C106.193 43.5064 101.573 38.4429 102.287 30.168C104.836 31.8152 109.667 37.0883 108.593 45.0037Z" fill="#EEF2FF" stroke="#4338CA" stroke-width="2" stroke-linecap="round" stroke-linejoin="round"/>
<path d="M114.878 59.9742C112.479 58.4768 107.859 53.4134 108.572 45.1385C111.122 46.7856 115.952 52.0588 114.878 59.9742Z" fill="#EEF2FF" stroke="#4338CA" stroke-width="2" stroke-linecap="round" stroke-linejoin="round"/>
<path d="M108.69 45.0413C110.187 42.6419 115.251 38.0215 123.525 38.7354C121.878 41.2848 116.605 46.1152 108.69 45.0413Z" fill="#EEF2FF" stroke="#4338CA" stroke-width="2" stroke-linecap="round" stroke-linejoin="round"/>
<path d="M93.7194 51.3269C95.2168 48.9275 100.28 44.3072 108.555 45.0211C106.908 47.5705 101.635 52.4008 93.7194 51.3269Z" fill="#EEF2FF" stroke="#4338CA" stroke-width="2" stroke-linecap="round" stroke-linejoin="round"/>
<path d="M43.5 55.5L107.508 92.2178C107.813 92.3928 108.188 92.3947 108.495 92.2227L174 55.5" stroke="black" stroke-width="3"/>
<circle cx="175.5" cy="122.5" r="13" fill="#ECFDF5" stroke="#047857"/>
<path d="M172.696 126.891L169.047 123.242L167.804 124.476L172.696 129.367L183.196 118.867L181.962 117.633L172.696 126.891Z" fill="#047857"/>
<rect x="71" y="15" width="26" height="4" rx="2" fill="#D9D9D9"/>
<rect x="71" y="22" width="26" height="4" rx="2" fill="#D9D9D9"/>
<line x1="43.7071" y1="40" x2="46" y2="42.2929" stroke="#6366F1" stroke-linecap="round"/>
<line x1="44.7071" y1="39" x2="47" y2="41.2929" stroke="#6366F1" stroke-linecap="round"/>
<circle cx="49" cy="35" r="1.5" fill="#EEF2FF" stroke="#6366F1"/>
<line x1="0.5" y1="-0.5" x2="3.74264" y2="-0.5" transform="matrix(-0.707107 0.707107 0.707107 0.707107 175 40)" stroke="#6366F1" stroke-linecap="round"/>
<line x1="0.5" y1="-0.5" x2="3.74264" y2="-0.5" transform="matrix(-0.707107 0.707107 0.707107 0.707107 174 39)" stroke="#6366F1" stroke-linecap="round"/>
<circle cx="2" cy="2" r="1.5" transform="matrix(-1 0 0 1 171 33)" fill="#EEF2FF" stroke="#6366F1"/>
</svg>
