<svg width="690" height="555" viewBox="0 0 690 555" fill="none" xmlns="http://www.w3.org/2000/svg">
<path fill-rule="evenodd" clip-rule="evenodd" d="M183.926 322V380C183.926 395.464 193.098 408 204.412 408H525.588C536.902 408 546.074 395.464 546.074 380V322H549V380C549 397.673 538.518 412 525.588 412H204.412C191.482 412 181 397.673 181 380V322H183.926Z" fill="black"/>
<path d="M304 425H395V555H304V425Z" fill="white"/>
<path fill-rule="evenodd" clip-rule="evenodd" d="M391 429H308V551H391V429ZM304 425V555H395V425H304Z" fill="black"/>
<rect x="275" y="493.97" width="94.8843" height="41.303" fill="black"/>
<path d="M294.04 517.138C294.04 518.439 293.88 519.612 293.56 520.658C293.24 521.703 292.76 522.594 292.12 523.33C291.491 524.066 290.701 524.631 289.752 525.026C288.803 525.42 287.699 525.618 286.44 525.618C285.864 525.618 285.299 525.58 284.744 525.506C284.189 525.442 283.608 525.335 283 525.186C283.032 524.759 283.069 524.332 283.112 523.906C283.155 523.479 283.192 523.052 283.224 522.626C283.256 522.391 283.347 522.204 283.496 522.066C283.656 521.916 283.88 521.842 284.168 521.842C284.349 521.842 284.584 521.879 284.872 521.954C285.171 522.028 285.544 522.066 285.992 522.066C286.6 522.066 287.139 521.98 287.608 521.81C288.077 521.628 288.467 521.346 288.776 520.962C289.096 520.578 289.336 520.082 289.496 519.474C289.656 518.855 289.736 518.108 289.736 517.234V502.226H294.04V517.138Z" fill="white"/>
<path d="M311.294 506.434C311.166 506.658 311.027 506.823 310.878 506.93C310.739 507.026 310.563 507.074 310.35 507.074C310.126 507.074 309.881 506.994 309.614 506.834C309.358 506.663 309.049 506.476 308.686 506.274C308.323 506.071 307.897 505.89 307.406 505.73C306.926 505.559 306.355 505.474 305.694 505.474C305.097 505.474 304.574 505.548 304.126 505.698C303.678 505.836 303.299 506.034 302.99 506.29C302.691 506.546 302.467 506.855 302.318 507.218C302.169 507.57 302.094 507.959 302.094 508.386C302.094 508.93 302.243 509.383 302.542 509.746C302.851 510.108 303.257 510.418 303.758 510.674C304.259 510.93 304.83 511.159 305.47 511.362C306.11 511.564 306.766 511.783 307.438 512.018C308.11 512.242 308.766 512.508 309.406 512.818C310.046 513.116 310.617 513.5 311.118 513.97C311.619 514.428 312.019 514.994 312.318 515.666C312.627 516.338 312.782 517.154 312.782 518.114C312.782 519.159 312.601 520.14 312.238 521.058C311.886 521.964 311.363 522.759 310.67 523.442C309.987 524.114 309.15 524.647 308.158 525.042C307.166 525.426 306.03 525.618 304.75 525.618C304.014 525.618 303.289 525.543 302.574 525.394C301.859 525.255 301.171 525.052 300.51 524.786C299.859 524.519 299.246 524.199 298.67 523.826C298.094 523.452 297.582 523.036 297.134 522.578L298.398 520.514C298.505 520.364 298.643 520.242 298.814 520.146C298.985 520.039 299.166 519.986 299.358 519.986C299.625 519.986 299.913 520.098 300.222 520.322C300.531 520.535 300.899 520.775 301.326 521.042C301.753 521.308 302.249 521.554 302.814 521.778C303.39 521.991 304.078 522.098 304.878 522.098C306.105 522.098 307.054 521.81 307.726 521.234C308.398 520.647 308.734 519.81 308.734 518.722C308.734 518.114 308.579 517.618 308.27 517.234C307.971 516.85 307.571 516.53 307.07 516.274C306.569 516.007 305.998 515.783 305.358 515.602C304.718 515.42 304.067 515.223 303.406 515.01C302.745 514.796 302.094 514.54 301.454 514.242C300.814 513.943 300.243 513.554 299.742 513.074C299.241 512.594 298.835 511.996 298.526 511.282C298.227 510.556 298.078 509.666 298.078 508.61C298.078 507.767 298.243 506.946 298.574 506.146C298.915 505.346 299.406 504.636 300.046 504.018C300.686 503.399 301.475 502.903 302.414 502.53C303.353 502.156 304.43 501.97 305.646 501.97C307.011 501.97 308.27 502.183 309.422 502.61C310.574 503.036 311.555 503.634 312.366 504.402L311.294 506.434Z" fill="white"/>
<path d="M338.6 513.794C338.6 515.49 338.318 517.063 337.752 518.514C337.198 519.954 336.409 521.202 335.385 522.258C334.361 523.314 333.128 524.14 331.688 524.738C330.248 525.324 328.649 525.618 326.889 525.618C325.139 525.618 323.545 525.324 322.104 524.738C320.664 524.14 319.427 523.314 318.392 522.258C317.368 521.202 316.574 519.954 316.008 518.514C315.443 517.063 315.16 515.49 315.16 513.794C315.16 512.098 315.443 510.53 316.008 509.09C316.574 507.639 317.368 506.386 318.392 505.33C319.427 504.274 320.664 503.452 322.104 502.866C323.545 502.268 325.139 501.97 326.889 501.97C328.062 501.97 329.166 502.108 330.201 502.386C331.235 502.652 332.185 503.036 333.049 503.538C333.912 504.028 334.686 504.631 335.368 505.346C336.062 506.05 336.648 506.839 337.128 507.714C337.608 508.588 337.971 509.538 338.216 510.562C338.472 511.586 338.6 512.663 338.6 513.794ZM334.201 513.794C334.201 512.524 334.03 511.388 333.688 510.386C333.347 509.372 332.862 508.514 332.233 507.81C331.603 507.106 330.835 506.567 329.929 506.194C329.033 505.82 328.019 505.634 326.889 505.634C325.758 505.634 324.739 505.82 323.833 506.194C322.937 506.567 322.168 507.106 321.528 507.81C320.899 508.514 320.414 509.372 320.072 510.386C319.731 511.388 319.56 512.524 319.56 513.794C319.56 515.063 319.731 516.204 320.072 517.218C320.414 518.22 320.899 519.074 321.528 519.778C322.168 520.471 322.937 521.004 323.833 521.378C324.739 521.751 325.758 521.938 326.889 521.938C328.019 521.938 329.033 521.751 329.929 521.378C330.835 521.004 331.603 520.471 332.233 519.778C332.862 519.074 333.347 518.22 333.688 517.218C334.03 516.204 334.201 515.063 334.201 513.794Z" fill="white"/>
<path d="M361.884 502.226V525.362H359.676C359.335 525.362 359.047 525.308 358.812 525.202C358.588 525.084 358.37 524.892 358.156 524.626L346.076 509.202C346.14 509.906 346.172 510.556 346.172 511.154V525.362H342.38V502.226H344.636C344.818 502.226 344.972 502.236 345.1 502.258C345.239 502.268 345.356 502.3 345.452 502.354C345.559 502.396 345.66 502.466 345.756 502.562C345.852 502.647 345.959 502.764 346.076 502.914L358.204 518.402C358.172 518.028 358.146 517.66 358.124 517.298C358.103 516.935 358.092 516.599 358.092 516.29V502.226H361.884Z" fill="white"/>
<rect x="275" y="493.97" width="94.8843" height="41.303" stroke="black" stroke-width="4"/>
<path fill-rule="evenodd" clip-rule="evenodd" d="M565.018 352.027L548.85 377.65L545.544 375.29L561.712 349.667L565.018 352.027Z" fill="black"/>
<path fill-rule="evenodd" clip-rule="evenodd" d="M530.716 351.896L546.533 377.737L549.871 375.422L534.054 349.58L530.716 351.896Z" fill="black"/>
<path fill-rule="evenodd" clip-rule="evenodd" d="M165.232 375.172L181.4 349.549L184.706 351.909L168.538 377.533L165.232 375.172Z" fill="black"/>
<path fill-rule="evenodd" clip-rule="evenodd" d="M199.534 375.304L183.717 349.462L180.379 351.777L196.196 377.619L199.534 375.304Z" fill="black"/>
<path fill-rule="evenodd" clip-rule="evenodd" d="M287 318V111H0V318H4V113.885H283V318H287Z" fill="black"/>
<path d="M24 134H264V160H24V134Z" fill="#D9D9D9"/>
<rect x="37.166" y="170" width="105" height="95" rx="20" fill="#D9D9D9"/>
<path d="M69.3338 236.888V228.15L80.1851 217.284L70.1728 207.202C69.8372 206.866 69.5855 206.493 69.4177 206.082C69.2499 205.671 69.166 205.26 69.166 204.85C69.166 204.439 69.2499 204.028 69.4177 203.617C69.5855 203.207 69.8372 202.833 70.1728 202.497L75.2069 197.4C75.5426 197.064 75.9154 196.812 76.3256 196.644C76.7358 196.476 77.146 196.392 77.5562 196.392C77.9664 196.392 78.3859 196.476 78.8147 196.644C79.2436 196.812 79.6258 197.064 79.9614 197.4L90.0296 207.482L101.049 196.448C101.235 196.261 101.422 196.14 101.608 196.084C101.794 196.028 102 196 102.223 196C102.447 196 102.652 196.028 102.839 196.084C103.025 196.14 103.211 196.261 103.398 196.448L109.719 202.777C109.905 202.964 110.026 203.151 110.082 203.337C110.138 203.524 110.166 203.73 110.166 203.954C110.166 204.178 110.138 204.383 110.082 204.57C110.026 204.756 109.905 204.943 109.719 205.13L98.6994 216.164L108.768 226.246C109.103 226.582 109.355 226.965 109.523 227.394C109.691 227.824 109.774 228.244 109.774 228.654C109.774 229.065 109.691 229.476 109.523 229.887C109.355 230.297 109.103 230.671 108.768 231.007L103.734 235.992C103.398 236.328 103.025 236.58 102.615 236.748C102.205 236.916 101.794 237 101.384 237C100.974 237 100.564 236.916 100.154 236.748C99.7435 236.58 99.3707 236.328 99.035 235.992L88.9668 225.966L78.0596 236.888H69.3338ZM82.5903 214.876L87.6244 209.835L83.5412 205.746L80.8563 208.434L78.5071 206.082L81.1919 203.393L77.6121 199.809L72.578 204.85L82.5903 214.876ZM101.272 233.639L106.307 228.598L102.727 225.014L100.042 227.702L97.6926 225.35L100.377 222.661L96.2943 218.572L91.2601 223.613L101.272 233.639ZM72.6899 233.527H76.6053L99.8181 210.283L95.9027 206.362L72.6899 229.607V233.527ZM102.167 207.93L106.083 204.01L102.167 200.089L98.252 204.01L102.167 207.93Z" fill="black"/>
<rect x="154.166" y="172" width="94.6667" height="91.3333" rx="18" fill="#D9D9D9"/>
<path d="M199.983 232.725H203.233V221.837L207.674 226.279L209.949 224.004L201.499 215.771L193.158 224.112L195.433 226.387L199.983 221.837V232.725ZM187.416 239.333C186.549 239.333 185.791 239.008 185.141 238.358C184.491 237.708 184.166 236.95 184.166 236.083V199.25C184.166 198.383 184.491 197.625 185.141 196.975C185.791 196.325 186.549 196 187.416 196H206.97L218.833 207.862V236.083C218.833 236.95 218.508 237.708 217.858 238.358C217.208 239.008 216.449 239.333 215.583 239.333H187.416ZM205.345 209.325V199.25H187.416V236.083H215.583V209.325H205.345ZM187.416 199.25V209.325V199.25V236.083V199.25Z" fill="black"/>
<rect x="154.166" y="172" width="94.6667" height="91.3333" rx="18" stroke="#1B00C2" stroke-width="4"/>
<path d="M24 275.333H264V301.333H24V275.333Z" fill="#D9D9D9"/>
<mask id="path-17-inside-1_2531_11818" fill="white">
<path d="M399 0H690V318H399V0Z"/>
</mask>
<path d="M399 0H690V318H399V0Z" fill="white"/>
<path d="M399 0V-2H397V0H399ZM690 0H692V-2H690V0ZM397 0V3.975H401V0H397ZM397 11.925V19.875H401V11.925H397ZM397 27.825V35.775H401V27.825H397ZM397 43.725V51.675H401V43.725H397ZM397 59.625V67.575H401V59.625H397ZM397 75.525V83.475H401V75.525H397ZM397 91.425V99.375H401V91.425H397ZM397 107.325V115.275H401V107.325H397ZM397 123.225V131.175H401V123.225H397ZM397 139.125V147.075H401V139.125H397ZM397 155.025V162.975H401V155.025H397ZM397 170.925V178.875H401V170.925H397ZM397 186.825V194.775H401V186.825H397ZM397 202.725V210.675H401V202.725H397ZM397 218.625V226.575H401V218.625H397ZM397 234.525V242.475H401V234.525H397ZM397 250.425V258.375H401V250.425H397ZM397 266.325V274.275H401V266.325H397ZM397 282.225V290.175H401V282.225H397ZM397 298.125V306.075H401V298.125H397ZM397 314.025V318H401V314.025H397ZM692 318V314.025H688V318H692ZM692 306.075V298.125H688V306.075H692ZM692 290.175V282.225H688V290.175H692ZM692 274.275V266.325H688V274.275H692ZM692 258.375V250.425H688V258.375H692ZM692 242.475V234.525H688V242.475H692ZM692 226.575V218.625H688V226.575H692ZM692 210.675V202.725H688V210.675H692ZM692 194.775V186.825H688V194.775H692ZM692 178.875V170.925H688V178.875H692ZM692 162.975V155.025H688V162.975H692ZM692 147.075V139.125H688V147.075H692ZM692 131.175V123.225H688V131.175H692ZM692 115.275V107.325H688V115.275H692ZM692 99.375V91.425H688V99.375H692ZM692 83.4751V75.5251H688V83.4751H692ZM692 67.575V59.6251H688V67.575H692ZM692 51.675V43.725H688V51.675H692ZM692 35.775V27.825H688V35.775H692ZM692 19.875V11.925H688V19.875H692ZM692 3.97498V0H688V3.97498H692ZM690 -2H685.958V2H690V-2ZM677.875 -2H669.792V2H677.875V-2ZM661.708 -2H653.625V2H661.708V-2ZM645.542 -2H637.458V2H645.542V-2ZM629.375 -2H621.292V2H629.375V-2ZM613.208 -2H605.125V2H613.208V-2ZM597.042 -2H588.958V2H597.042V-2ZM580.875 -2H572.792V2H580.875V-2ZM564.708 -2H556.625V2H564.708V-2ZM548.542 -2H540.458V2H548.542V-2ZM532.375 -2H524.292V2H532.375V-2ZM516.208 -2H508.125V2H516.208V-2ZM500.042 -2H491.958V2H500.042V-2ZM483.875 -2H475.792V2H483.875V-2ZM467.708 -2H459.625V2H467.708V-2ZM451.542 -2H443.458V2H451.542V-2ZM435.375 -2H427.292V2H435.375V-2ZM419.208 -2H411.125V2H419.208V-2ZM403.042 -2H399V2H403.042V-2ZM399 0V-4H395V0H399ZM690 0H694V-4H690V0ZM395 0V3.975H403V0H395ZM395 11.925V19.875H403V11.925H395ZM395 27.825V35.775H403V27.825H395ZM395 43.725V51.675H403V43.725H395ZM395 59.625V67.575H403V59.625H395ZM395 75.525V83.475H403V75.525H395ZM395 91.425V99.375H403V91.425H395ZM395 107.325V115.275H403V107.325H395ZM395 123.225V131.175H403V123.225H395ZM395 139.125V147.075H403V139.125H395ZM395 155.025V162.975H403V155.025H395ZM395 170.925V178.875H403V170.925H395ZM395 186.825V194.775H403V186.825H395ZM395 202.725V210.675H403V202.725H395ZM395 218.625V226.575H403V218.625H395ZM395 234.525V242.475H403V234.525H395ZM395 250.425V258.375H403V250.425H395ZM395 266.325V274.275H403V266.325H395ZM395 282.225V290.175H403V282.225H395ZM395 298.125V306.075H403V298.125H395ZM395 314.025V318H403V314.025H395ZM694 318V314.025H686V318H694ZM694 306.075V298.125H686V306.075H694ZM694 290.175V282.225H686V290.175H694ZM694 274.275V266.325H686V274.275H694ZM694 258.375V250.425H686V258.375H694ZM694 242.475V234.525H686V242.475H694ZM694 226.575V218.625H686V226.575H694ZM694 210.675V202.725H686V210.675H694ZM694 194.775V186.825H686V194.775H694ZM694 178.875V170.925H686V178.875H694ZM694 162.975V155.025H686V162.975H694ZM694 147.075V139.125H686V147.075H694ZM694 131.175V123.225H686V131.175H694ZM694 115.275V107.325H686V115.275H694ZM694 99.375V91.425H686V99.375H694ZM694 83.4751V75.5251H686V83.4751H694ZM694 67.575V59.6251H686V67.575H694ZM694 51.675V43.725H686V51.675H694ZM694 35.775V27.825H686V35.775H694ZM694 19.875V11.925H686V19.875H694ZM694 3.97498V0H686V3.97498H694ZM690 -4H685.958V4H690V-4ZM677.875 -4H669.792V4H677.875V-4ZM661.708 -4H653.625V4H661.708V-4ZM645.542 -4H637.458V4H645.542V-4ZM629.375 -4H621.292V4H629.375V-4ZM613.208 -4H605.125V4H613.208V-4ZM597.042 -4H588.958V4H597.042V-4ZM580.875 -4H572.792V4H580.875V-4ZM564.708 -4H556.625V4H564.708V-4ZM548.542 -4H540.458V4H548.542V-4ZM532.375 -4H524.292V4H532.375V-4ZM516.208 -4H508.125V4H516.208V-4ZM500.042 -4H491.958V4H500.042V-4ZM483.875 -4H475.792V4H483.875V-4ZM467.708 -4H459.625V4H467.708V-4ZM451.542 -4H443.458V4H451.542V-4ZM435.375 -4H427.292V4H435.375V-4ZM419.208 -4H411.125V4H419.208V-4ZM403.042 -4H399V4H403.042V-4Z" fill="#1B00C2" mask="url(#path-17-inside-1_2531_11818)"/>
<path d="M425 27H665V53H425V27Z" fill="#D9D9D9"/>
<path d="M425 63H665V78H425V63Z" fill="#D9D9D9"/>
<path d="M425 88H574V204H425V88Z" fill="#D9D9D9"/>
<path d="M425 214H665V229H425V214Z" fill="#D9D9D9"/>
<path d="M425 239H665V265H425V239Z" fill="#D9D9D9"/>
<path d="M425 275H455V290H425V275Z" fill="#D9D9D9"/>
<path d="M399 0L286 112.35V321H399V0Z" fill="#F0EEFC"/>
<line y1="320" x2="690" y2="320" stroke="black" stroke-width="4"/>
</svg>
