<svg width="288" height="206" viewBox="0 0 288 206" fill="none" xmlns="http://www.w3.org/2000/svg">
	<path fill-rule="evenodd" clip-rule="evenodd" d="M287.5 205.5V0.5H0.5V205.5H4.5V3.35714H283.5V205.5H287.5Z" fill="black" />
	<path d="M24.5 21.5H264.5V47.5H24.5V21.5Z" fill="#D9D9D9" />
	<rect x="31.5" y="57.5" width="226" height="95" rx="20" fill="#FAF3D1" />
	<path d="M144.5 125C141.733 125 139.133 124.475 136.7 123.425C134.267 122.375 132.15 120.95 130.35 119.15C128.55 117.35 127.125 115.233 126.075 112.8C125.025 110.367 124.5 107.767 124.5 105C124.5 102.233 125.025 99.6333 126.075 97.2C127.125 94.7667 128.55 92.65 130.35 90.85C132.15 89.05 134.267 87.625 136.7 86.575C139.133 85.525 141.733 85 144.5 85C147.267 85 149.867 85.525 152.3 86.575C154.733 87.625 156.85 89.05 158.65 90.85C160.45 92.65 161.875 94.7667 162.925 97.2C163.975 99.6333 164.5 102.233 164.5 105C164.5 107.767 163.975 110.367 162.925 112.8C161.875 115.233 160.45 117.35 158.65 119.15C156.85 120.95 154.733 122.375 152.3 123.425C149.867 124.475 147.267 125 144.5 125ZM144.5 122C149.233 122 153.25 120.35 156.55 117.05C159.85 113.75 161.5 109.733 161.5 105C161.5 102.967 161.15 101.017 160.45 99.15C159.75 97.2833 158.767 95.5833 157.5 94.05L133.55 118C135.05 119.3 136.742 120.292 138.625 120.975C140.508 121.658 142.467 122 144.5 122ZM131.55 115.95L155.45 92.05C153.917 90.75 152.217 89.75 150.35 89.05C148.483 88.35 146.533 88 144.5 88C139.767 88 135.75 89.65 132.45 92.95C129.15 96.25 127.5 100.267 127.5 105C127.5 107.033 127.867 108.992 128.6 110.875C129.333 112.758 130.317 114.45 131.55 115.95Z" fill="black" />
	<path d="M24.5 162.5H264.5V188.5H24.5V162.5Z" fill="#D9D9D9" />
</svg>
