<svg width="558" height="313" viewBox="0 0 558 313" fill="none" xmlns="http://www.w3.org/2000/svg">
<mask id="path-1-inside-1_3794_51739" fill="white">
<path d="M0 0.5H265.583V313H0V0.5Z"/>
</mask>
<path d="M0 0.5H265.583V313H0V0.5Z" fill="white"/>
<path d="M0 0.5V-2.5H-3V0.5H0ZM265.583 0.5H268.583V-2.5H265.583V0.5ZM0 3.5H265.583V-2.5H0V3.5ZM262.583 0.5V313H268.583V0.5H262.583ZM3 313V0.5H-3V313H3Z" fill="black" mask="url(#path-1-inside-1_3794_51739)"/>
<rect x="22.6211" y="41.5523" width="219.504" height="15.0804" fill="#D9D9D9"/>
<rect x="22.6211" y="61.6595" width="151.642" height="46.9169" fill="#D9D9D9"/>
<line x1="22.6211" y1="32.6743" x2="242.125" y2="32.6743" stroke="black"/>
<line x1="22.6211" y1="162.533" x2="242.125" y2="162.533" stroke="black"/>
<rect x="22.7969" y="115.454" width="91.807" height="31.6249" rx="4.5" fill="#D9D9D9"/>
<path d="M47.5646 137.309H49.3771V132.294H54.4219V130.482H49.3771V125.225H47.5646V130.482H42.3385V132.294H47.5646V137.309ZM48.3802 143.35C46.7288 143.35 45.1681 143.033 43.6979 142.399C42.2278 141.764 40.9439 140.898 39.8464 139.801C38.7488 138.703 37.8828 137.419 37.2484 135.949C36.6141 134.479 36.2969 132.908 36.2969 131.237C36.2969 129.585 36.6141 128.025 37.2484 126.554C37.8828 125.084 38.7488 123.805 39.8464 122.718C40.9439 121.63 42.2278 120.77 43.6979 120.135C45.1681 119.501 46.7389 119.184 48.4104 119.184C50.0618 119.184 51.6226 119.501 53.0927 120.135C54.5628 120.77 55.8417 121.63 56.9292 122.718C58.0167 123.805 58.8776 125.084 59.512 126.554C60.1464 128.025 60.4635 129.595 60.4635 131.267C60.4635 132.918 60.1464 134.479 59.512 135.949C58.8776 137.419 58.0167 138.703 56.9292 139.801C55.8417 140.898 54.5628 141.764 53.0927 142.399C51.6226 143.033 50.0517 143.35 48.3802 143.35ZM48.4104 141.538C51.25 141.538 53.6667 140.536 55.6604 138.532C57.6542 136.528 58.651 134.096 58.651 131.237C58.651 128.397 57.6542 125.98 55.6604 123.987C53.6667 121.993 51.2399 120.996 48.3802 120.996C45.5406 120.996 43.1189 121.993 41.1151 123.987C39.1113 125.98 38.1094 128.407 38.1094 131.267C38.1094 134.107 39.1113 136.528 41.1151 138.532C43.1189 140.536 45.5507 141.538 48.4104 141.538Z" fill="black"/>
<rect x="22.7969" y="115.454" width="91.807" height="31.6249" rx="4.5" stroke="#1B00C2" stroke-width="3"/>
<mask id="path-9-inside-2_3794_51739" fill="white">
<path d="M291.555 0.5H557.138V173.925H291.555V0.5Z"/>
</mask>
<path d="M291.555 0.5H557.138V173.925H291.555V0.5Z" fill="white"/>
<path d="M291.555 0.5V-2.5H288.555V0.5H291.555ZM557.138 0.5H560.138V-2.5H557.138V0.5ZM291.555 3.5H557.138V-2.5H291.555V3.5ZM554.138 0.5V173.925H560.138V0.5H554.138ZM294.555 173.925V0.5H288.555V173.925H294.555Z" fill="black" mask="url(#path-9-inside-2_3794_51739)"/>
<rect x="314.176" y="41.5523" width="219.504" height="15.0804" fill="#D9D9D9"/>
<rect x="314.176" y="61.6595" width="151.642" height="46.9169" fill="#D9D9D9"/>
<line x1="314.176" y1="32.6743" x2="533.68" y2="32.6743" stroke="black"/>
<line x1="314.176" y1="162.533" x2="533.68" y2="162.533" stroke="black"/>
<rect x="314.352" y="115.454" width="91.807" height="31.4853" rx="4.5" fill="#D9D9D9"/>
<path d="M334.019 131.985H345.686V130.235H334.019V131.985ZM339.852 142.864C338.258 142.864 336.751 142.557 335.331 141.945C333.912 141.332 332.672 140.496 331.613 139.437C330.553 138.377 329.717 137.137 329.104 135.718C328.492 134.298 328.186 132.792 328.186 131.197C328.186 129.583 328.492 128.067 329.104 126.647C329.717 125.228 330.553 123.993 331.613 122.943C332.672 121.893 333.912 121.062 335.331 120.449C336.751 119.837 338.258 119.53 339.852 119.53C341.466 119.53 342.983 119.837 344.402 120.449C345.822 121.062 347.056 121.893 348.106 122.943C349.156 123.993 349.988 125.228 350.6 126.647C351.213 128.067 351.519 129.583 351.519 131.197C351.519 132.792 351.213 134.298 350.6 135.718C349.988 137.137 349.156 138.377 348.106 139.437C347.056 140.496 345.822 141.332 344.402 141.945C342.983 142.557 341.466 142.864 339.852 142.864ZM339.852 141.114C342.613 141.114 344.956 140.146 346.881 138.212C348.806 136.277 349.769 133.939 349.769 131.197C349.769 128.436 348.806 126.093 346.881 124.168C344.956 122.243 342.613 121.28 339.852 121.28C337.111 121.28 334.772 122.243 332.838 124.168C330.903 126.093 329.936 128.436 329.936 131.197C329.936 133.939 330.903 136.277 332.838 138.212C334.772 140.146 337.111 141.114 339.852 141.114Z" fill="black"/>
<rect x="314.352" y="115.454" width="91.807" height="31.4853" rx="4.5" stroke="#FF0000" stroke-width="3"/>
<mask id="path-17-inside-3_3794_51739" fill="white">
<path d="M291.555 163.033H557.138V313H291.555V163.033Z"/>
</mask>
<path d="M291.555 163.033H557.138V313H291.555V163.033Z" fill="#F0EEFC"/>
<path d="M554.138 163.033V313H560.138V163.033H554.138ZM294.555 313V163.033H288.555V313H294.555Z" fill="black" mask="url(#path-17-inside-3_3794_51739)"/>
<rect x="314.176" y="182.303" width="219.504" height="15.0804" fill="#D9D9D9"/>
<rect x="314.176" y="202.41" width="151.642" height="46.9169" fill="#D9D9D9"/>
<rect x="314.352" y="256.205" width="109" height="37.1667" rx="4.5" fill="#D9D9D9"/>
<path d="M339.119 280.83H340.932V275.816H345.977V274.003H340.932V268.747H339.119V274.003H333.893V275.816H339.119V280.83ZM339.935 286.872C338.284 286.872 336.723 286.555 335.253 285.92C333.782 285.286 332.499 284.42 331.401 283.322C330.303 282.225 329.437 280.941 328.803 279.471C328.169 278.001 327.852 276.43 327.852 274.758C327.852 273.107 328.169 271.546 328.803 270.076C329.437 268.606 330.303 267.327 331.401 266.24C332.499 265.152 333.782 264.291 335.253 263.657C336.723 263.022 338.294 262.705 339.965 262.705C341.616 262.705 343.177 263.022 344.647 263.657C346.118 264.291 347.396 265.152 348.484 266.24C349.571 267.327 350.432 268.606 351.067 270.076C351.701 271.546 352.018 273.117 352.018 274.788C352.018 276.44 351.701 278.001 351.067 279.471C350.432 280.941 349.571 282.225 348.484 283.322C347.396 284.42 346.118 285.286 344.647 285.92C343.177 286.555 341.606 286.872 339.935 286.872ZM339.965 285.059C342.805 285.059 345.221 284.057 347.215 282.054C349.209 280.05 350.206 277.618 350.206 274.758C350.206 271.919 349.209 269.502 347.215 267.508C345.221 265.515 342.795 264.518 339.935 264.518C337.095 264.518 334.674 265.515 332.67 267.508C330.666 269.502 329.664 271.929 329.664 274.788C329.664 277.628 330.666 280.05 332.67 282.054C334.674 284.057 337.105 285.059 339.965 285.059Z" fill="black"/>
<rect x="314.352" y="256.205" width="109" height="37.1667" rx="4.5" stroke="#1B00C2" stroke-width="3"/>
<rect x="430.352" y="256.205" width="109" height="37" rx="4.5" fill="#D9D9D9"/>
<path d="M450.019 275.493H461.686V273.743H450.019V275.493ZM455.852 286.372C454.258 286.372 452.751 286.066 451.331 285.453C449.912 284.841 448.672 284.004 447.613 282.945C446.553 281.885 445.717 280.645 445.104 279.226C444.492 277.807 444.186 276.3 444.186 274.705C444.186 273.091 444.492 271.575 445.104 270.155C445.717 268.736 446.553 267.501 447.613 266.451C448.672 265.401 449.912 264.57 451.331 263.957C452.751 263.345 454.258 263.038 455.852 263.038C457.466 263.038 458.983 263.345 460.402 263.957C461.822 264.57 463.056 265.401 464.106 266.451C465.156 267.501 465.988 268.736 466.6 270.155C467.213 271.575 467.519 273.091 467.519 274.705C467.519 276.3 467.213 277.807 466.6 279.226C465.988 280.645 465.156 281.885 464.106 282.945C463.056 284.004 461.822 284.841 460.402 285.453C458.983 286.066 457.466 286.372 455.852 286.372ZM455.852 284.622C458.613 284.622 460.956 283.654 462.881 281.72C464.806 279.785 465.769 277.447 465.769 274.705C465.769 271.944 464.806 269.601 462.881 267.676C460.956 265.751 458.613 264.788 455.852 264.788C453.111 264.788 450.772 265.751 448.838 267.676C446.903 269.601 445.936 271.944 445.936 274.705C445.936 277.447 446.903 279.785 448.838 281.72C450.772 283.654 453.111 284.622 455.852 284.622Z" fill="black"/>
<rect x="430.352" y="256.205" width="109" height="37" rx="4.5" stroke="#FF0000" stroke-width="3"/>
</svg>
