<svg width="218" height="196" viewBox="0 0 218 196" fill="none" xmlns="http://www.w3.org/2000/svg">
<ellipse cx="109" cy="189" rx="109" ry="7" fill="#D9D9D9"/>
<path d="M77.5 81H142" stroke="#D9D9D9" stroke-width="2"/>
<path d="M68 88.5H152" stroke="#D9D9D9" stroke-width="2"/>
<path d="M58.5 95.5H160.5" stroke="#D9D9D9" stroke-width="2"/>
<path d="M50.5 103H169" stroke="#D9D9D9" stroke-width="2"/>
<path d="M46 110H171.5" stroke="#D9D9D9" stroke-width="2"/>
<path d="M58.5 117H160" stroke="#D9D9D9" stroke-width="2"/>
<path d="M71.5 124.5H145" stroke="#D9D9D9" stroke-width="2"/>
<path d="M84 131.5H134" stroke="#D9D9D9" stroke-width="2"/>
<path d="M94.5 138H121" stroke="#D9D9D9" stroke-width="2"/>
<path d="M86.5 74H133" stroke="#D9D9D9" stroke-width="2"/>
<path d="M102.5 61H117.5" stroke="#D9D9D9" stroke-width="2"/>
<path d="M94.5 67H125" stroke="#D9D9D9" stroke-width="2"/>
<path d="M43 182.5V108.981C43 108.677 43.1384 108.39 43.376 108.2L109.369 55.5039C109.737 55.2099 110.261 55.2128 110.625 55.5109L175.133 108.2C175.365 108.39 175.5 108.674 175.5 108.974V182.5C175.5 183.052 175.052 183.5 174.5 183.5H44C43.4477 183.5 43 183.052 43 182.5Z" stroke="black" stroke-width="3"/>
<path d="M43.5 108.5L107.508 145.218C107.813 145.393 108.188 145.395 108.495 145.223L174 108.5" stroke="black" stroke-width="3"/>
<path d="M147.598 62.0036C149.653 69.4063 145.294 84.1564 142.532 91.5212C142.328 92.0669 141.701 92.3087 141.18 92.0472C137.821 90.3611 131.449 86.8999 126.613 83.3783C121.261 79.4804 120.953 74.9711 121.468 73.2037C123.317 65.8212 132.062 59.8192 136.204 57.7411C139.105 55.9301 145.445 54.2472 147.598 62.0036Z" fill="#D1CBF9" stroke="black" stroke-width="2"/>
<path d="M121.693 87.6866C124.23 84.6742 135.376 89.2753 141.331 92.2903C141.781 92.5182 141.984 93.05 141.77 93.507C138.105 101.341 126.198 102.814 121.069 101.32C115.767 99.7749 118.377 91.6242 121.693 87.6866Z" fill="#D1CBF9" stroke="black" stroke-width="2"/>
<path d="M132.231 107.803C131.932 106.811 142.265 93.9975 149.334 85.4552C150.004 84.6452 151.231 85.2751 150.922 86.2802C145.122 105.18 132.629 109.123 132.231 107.803Z" fill="white" stroke="black" stroke-width="2"/>
<circle cx="153.143" cy="82.151" r="2.5" transform="rotate(20.7873 153.143 82.151)" fill="white" stroke="black" stroke-width="2"/>
<path d="M158.622 70.6953C159.164 70.8011 159.689 70.4475 159.795 69.9054C159.901 69.3634 159.547 68.8382 159.005 68.7323L158.622 70.6953ZM153.665 80.4258C154.024 78.5908 154.751 75.8938 155.752 73.7575C156.256 72.6828 156.796 71.8216 157.341 71.2774C157.881 70.7375 158.292 70.6309 158.622 70.6953L159.005 68.7323C157.765 68.4901 156.716 69.0749 155.928 69.8623C155.143 70.6453 154.485 71.7471 153.941 72.9088C152.846 75.2454 152.079 78.1151 151.703 80.0425L153.665 80.4258Z" fill="black"/>
<path d="M162.098 77.4156C162.339 77.9127 162.937 78.1207 163.434 77.8801C163.931 77.6396 164.139 77.0416 163.899 76.5444L162.098 77.4156ZM156.275 81.8363C157.31 80.792 158.898 79.3554 160.305 78.4112C161.024 77.9288 161.607 77.6364 162.002 77.5413C162.195 77.4947 162.251 77.5186 162.224 77.5106C162.204 77.5044 162.171 77.4893 162.139 77.461C162.107 77.4333 162.096 77.4112 162.098 77.4156L163.899 76.5444C163.674 76.079 163.294 75.7457 162.807 75.5974C162.363 75.4619 161.912 75.5055 161.532 75.5971C160.782 75.7783 159.957 76.2363 159.191 76.7503C157.628 77.7988 155.935 79.3386 154.855 80.4286L156.275 81.8363Z" fill="black"/>
<path d="M67.3239 35.7804C65.7993 41.2717 68.9622 52.1317 71.0447 57.7566C71.247 58.3031 71.8761 58.5487 72.396 58.2853C74.98 56.9762 79.5973 54.4481 83.1273 51.8773C87.158 48.9418 87.3901 45.546 87.0023 44.215C85.6099 38.6554 79.0238 34.1354 75.9047 32.5704C73.7202 31.2066 68.9457 29.9392 67.3239 35.7804Z" fill="#D1CBF9" stroke="black" stroke-width="1.75"/>
<path d="M86.8323 55.1216C84.9493 52.8856 76.7685 56.2195 72.2398 58.4898C71.7888 58.7159 71.5824 59.2507 71.8082 59.7019C74.6742 65.4291 83.483 66.501 87.3023 65.3883C91.2954 64.225 89.3296 58.0868 86.8323 55.1216Z" fill="#D1CBF9" stroke="black" stroke-width="1.75"/>
<path d="M79.8965 69.27C80.1124 68.5532 72.956 59.6388 67.6737 53.2353C67.0047 52.4243 65.8027 53.0502 66.137 54.047C70.6264 67.4323 79.6043 70.2403 79.8965 69.27Z" fill="white" stroke="black" stroke-width="1.75"/>
<circle cx="2.63578" cy="2.63578" r="1.76078" transform="matrix(-0.934904 0.3549 0.3549 0.934904 66.3679 47.5449)" fill="white" stroke="black" stroke-width="1.75"/>
<path d="M60.7363 42.436C60.262 42.5287 59.8025 42.2192 59.7099 41.7449C59.6173 41.2707 59.9267 40.8111 60.401 40.7185L60.7363 42.436ZM64.326 49.6676C64.0573 48.2914 63.5121 46.2708 62.7639 44.6742C62.3871 43.8702 61.9874 43.2363 61.5916 42.841C61.1996 42.4495 60.9292 42.3984 60.7363 42.436L60.401 40.7185C61.3907 40.5252 62.2195 40.9948 62.8283 41.6028C63.4333 42.207 63.9361 43.0514 64.3485 43.9316C65.1788 45.7035 65.7591 47.8751 66.0436 49.3322L64.326 49.6676Z" fill="black"/>
<path d="M58.2047 47.4305C57.9942 47.8655 57.471 48.0475 57.036 47.837C56.601 47.6265 56.419 47.1033 56.6294 46.6683L58.2047 47.4305ZM62.3936 50.7924C61.6171 50.0087 60.4278 48.9331 59.3774 48.2284C58.8388 47.8671 58.4144 47.657 58.1393 47.5906C58.0053 47.5583 57.9871 47.5804 58.0357 47.5656C58.1211 47.5396 58.1849 47.4714 58.2047 47.4305L56.6294 46.6683C56.8132 46.2884 57.1252 46.0136 57.5256 45.8916C57.8892 45.7808 58.2527 45.8177 58.5498 45.8894C59.137 46.0311 59.7725 46.3862 60.3524 46.7752C61.5388 47.5711 62.8205 48.737 63.6367 49.5606L62.3936 50.7924Z" fill="black"/>
<path d="M142.029 5.57757C143.267 10.0374 140.746 18.802 139.034 23.4768C138.833 24.0241 138.206 24.2686 137.687 24.0037C135.533 22.9046 131.857 20.8784 129.029 18.8188C125.713 16.4041 125.522 13.6107 125.841 12.5158C126.987 7.94247 132.404 4.22438 134.97 2.937C136.767 1.81512 140.695 0.772596 142.029 5.57757Z" fill="#D1CBF9" stroke="black" stroke-width="1.5"/>
<path d="M125.981 21.4886C127.511 19.6721 134.093 22.3243 137.845 24.1893C138.297 24.4139 138.504 24.9497 138.268 25.3956C135.839 29.9848 128.705 30.8401 125.594 29.9339C122.31 28.977 123.927 23.9278 125.981 21.4886Z" fill="#D1CBF9" stroke="black" stroke-width="1.5"/>
<path d="M131.887 32.9486C131.716 32.38 137.184 25.5402 141.471 20.3292C142.139 19.5173 143.319 20.1365 142.962 21.1253C139.198 31.5349 132.122 33.7296 131.887 32.9486Z" fill="white" stroke="black" stroke-width="1.5"/>
<circle cx="144.009" cy="18.9176" r="1.41818" transform="rotate(20.7873 144.009 18.9176)" fill="white" stroke="black" stroke-width="1.5"/>
<path d="M147.378 11.9492C147.785 12.0286 148.179 11.7634 148.258 11.3569C148.337 10.9503 148.072 10.5564 147.666 10.477L147.378 11.9492ZM144.461 17.874C144.682 16.7433 145.13 15.0838 145.744 13.7735C146.053 13.1134 146.38 12.5956 146.702 12.2741C147.021 11.9558 147.233 11.9209 147.378 11.9492L147.666 10.477C146.838 10.3154 146.146 10.7089 145.642 11.2127C145.141 11.7134 144.725 12.4116 144.385 13.137C143.701 14.5976 143.223 16.3866 142.989 17.5866L144.461 17.874Z" fill="black"/>
<path d="M149.439 16.0413C149.62 16.4142 150.068 16.5702 150.441 16.3898C150.814 16.2094 150.97 15.7608 150.79 15.388L149.439 16.0413ZM146.042 18.8149C146.68 18.171 147.657 17.2878 148.519 16.7096C148.961 16.4129 149.307 16.2425 149.527 16.1892C149.635 16.1633 149.644 16.1826 149.597 16.1682C149.518 16.1442 149.459 16.0823 149.439 16.0413L150.79 15.388C150.635 15.0683 150.372 14.8362 150.034 14.7333C149.728 14.64 149.423 14.6714 149.176 14.7311C148.687 14.849 148.161 15.1435 147.683 15.464C146.705 16.1203 145.649 17.0809 144.977 17.7591L146.042 18.8149Z" fill="black"/>
</svg>
