<svg viewBox="0 0 22 22" fill="none" xmlns="http://www.w3.org/2000/svg">
    <path d="M11 0.09375C9.06641 0.09375 7.30469 0.609375 5.67188 1.55469C4.03906 2.5 2.70703 3.78906 1.76172 5.42188C0.816406 7.05469 0.34375 8.85938 0.34375 10.75C0.34375 12.6836 0.816406 14.4453 1.76172 16.0781C2.70703 17.7109 4.03906 19.043 5.67188 19.9883C7.30469 20.9336 9.06641 21.4062 11 21.4062C12.8906 21.4062 14.6953 20.9336 16.3281 19.9883C17.9609 19.043 19.25 17.7109 20.1953 16.0781C21.1406 14.4453 21.6562 12.6836 21.6562 10.75C21.6562 8.85938 21.1406 7.05469 20.1953 5.42188C19.25 3.78906 17.9609 2.5 16.3281 1.55469C14.6953 0.609375 12.8906 0.09375 11 0.09375ZM9.75391 6.28125C9.53906 6.10938 9.45312 5.85156 9.45312 5.55078C9.45312 5.25 9.53906 4.99219 9.75391 4.77734L10.2266 4.30469C10.3984 4.13281 10.6562 4.00391 10.957 4.00391C11.2148 4.00391 11.4727 4.13281 11.6875 4.30469L17.3594 10.0195C17.5312 10.2344 17.6602 10.4922 17.6602 10.75C17.6602 11.0508 17.5312 11.3086 17.3594 11.4805L11.6875 17.1953C11.4727 17.4102 11.2148 17.4961 10.957 17.4961C10.6562 17.4961 10.3984 17.4102 10.2266 17.1953L9.75391 16.7227C9.53906 16.5508 9.45312 16.293 9.45312 15.9922C9.45312 15.6914 9.53906 15.4336 9.75391 15.2188L13.0195 12.125H5.15625C4.85547 12.125 4.59766 12.0391 4.42578 11.8242C4.21094 11.6523 4.125 11.3945 4.125 11.0938V10.4062C4.125 10.1484 4.21094 9.89062 4.42578 9.67578C4.59766 9.50391 4.85547 9.375 5.15625 9.375H13.0195L9.75391 6.28125Z" fill="black"/>
</svg>