<svg viewBox="0 0 22 22" fill="none" xmlns="http://www.w3.org/2000/svg">
<path d="M11 21.4062C12.8906 21.4062 14.6953 20.9336 16.3281 19.9883C17.9609 19.043 19.25 17.7109 20.1953 16.0781C21.1406 14.4453 21.6562 12.6836 21.6562 10.75C21.6562 8.85938 21.1406 7.05469 20.1953 5.42188C19.25 3.78906 17.9609 2.5 16.3281 1.55469C14.6953 0.609375 12.8906 0.09375 11 0.09375C9.06641 0.09375 7.30469 0.609375 5.67188 1.55469C4.03906 2.5 2.70703 3.78906 1.76172 5.42188C0.816406 7.05469 0.34375 8.85938 0.34375 10.75C0.34375 12.6836 0.816406 14.4453 1.76172 16.0781C2.70703 17.7109 4.03906 19.043 5.67188 19.9883C7.30469 20.9336 9.06641 21.4062 11 21.4062ZM12.2461 15.2188C12.418 15.4336 12.5469 15.6914 12.5469 15.9922C12.5469 16.293 12.418 16.5508 12.2461 16.7227L11.7734 17.1953C11.5586 17.4102 11.3008 17.4961 11.043 17.4961C10.7422 17.4961 10.4844 17.4102 10.3125 17.1953L4.64062 11.4805C4.42578 11.3086 4.33984 11.0508 4.33984 10.75C4.33984 10.4922 4.42578 10.2344 4.64062 10.0195L10.3125 4.30469C10.4844 4.13281 10.7422 4.00391 11.043 4.00391C11.3008 4.00391 11.5586 4.13281 11.7734 4.30469L12.2461 4.77734C12.418 4.99219 12.5469 5.25 12.5469 5.55078C12.5469 5.85156 12.418 6.10938 12.2461 6.28125L8.98047 9.375H16.8438C17.1016 9.375 17.3594 9.50391 17.5742 9.67578C17.7461 9.89062 17.875 10.1484 17.875 10.4062V11.0938C17.875 11.3945 17.7461 11.6523 17.5742 11.8242C17.3594 12.0391 17.1016 12.125 16.8438 12.125H8.98047L12.2461 15.2188Z" fill="#284162"/>
</svg>
