<svg viewBox="0 0 17 16" fill="none" xmlns="http://www.w3.org/2000/svg">
<path d="M13.9688 2.53125C15.4896 4.03125 16.25 5.85417 16.25 8C16.25 10.1458 15.4896 11.9792 13.9688 13.5C12.4688 15 10.6458 15.75 8.5 15.75C6.35417 15.75 4.52083 15 3 13.5C1.5 11.9792 0.75 10.1458 0.75 8C0.75 5.85417 1.5 4.03125 3 2.53125C4.52083 1.01042 6.35417 0.25 8.5 0.25C10.6458 0.25 12.4688 1.01042 13.9688 2.53125ZM7.59375 12.0938L13.3438 6.34375C13.5938 6.11458 13.5938 5.88542 13.3438 5.65625L12.6562 4.9375C12.4062 4.70833 12.1667 4.70833 11.9375 4.9375L7.25 9.625L5.0625 7.4375C4.83333 7.20833 4.59375 7.20833 4.34375 7.4375L3.65625 8.15625C3.40625 8.38542 3.40625 8.61458 3.65625 8.84375L6.90625 12.0938C7.13542 12.3438 7.36458 12.3438 7.59375 12.0938Z" fill="#138A00"/>
</svg>
