<svg viewBox="0 0 22 22" fill="none" xmlns="http://www.w3.org/2000/svg">
<path d="M11 0.09375C12.8906 0.09375 14.6953 0.609375 16.3281 1.55469C17.9609 2.5 19.25 3.78906 20.1953 5.42188C21.1406 7.05469 21.6562 8.85938 21.6562 10.75C21.6562 12.6836 21.1406 14.4453 20.1953 16.0781C19.25 17.7109 17.9609 19.043 16.3281 19.9883C14.6953 20.9336 12.8906 21.4062 11 21.4062C9.06641 21.4062 7.30469 20.9336 5.67188 19.9883C4.03906 19.043 2.70703 17.7109 1.76172 16.0781C0.816406 14.4453 0.34375 12.6836 0.34375 10.75C0.34375 8.85938 0.816406 7.05469 1.76172 5.42188C2.70703 3.78906 4.03906 2.5 5.67188 1.55469C7.30469 0.609375 9.06641 0.09375 11 0.09375ZM16.2422 13.543L13.4062 10.75L16.2422 7.95703C16.3281 7.87109 16.3711 7.74219 16.3711 7.61328C16.3711 7.48438 16.3281 7.35547 16.2422 7.22656L14.5234 5.50781C14.4375 5.42188 14.3086 5.37891 14.1797 5.37891C14.0078 5.37891 13.8789 5.42188 13.793 5.50781L11 8.34375L8.20703 5.50781C8.07812 5.42188 7.94922 5.37891 7.82031 5.37891C7.69141 5.37891 7.5625 5.42188 7.47656 5.50781L5.75781 7.22656C5.67188 7.3125 5.62891 7.44141 5.62891 7.57031C5.62891 7.74219 5.67188 7.87109 5.75781 7.95703L8.59375 10.75L5.75781 13.543C5.67188 13.6719 5.62891 13.8008 5.62891 13.9297C5.62891 14.0586 5.67188 14.1875 5.75781 14.2734L7.47656 15.9922C7.5625 16.0781 7.64844 16.1211 7.82031 16.1211C7.94922 16.1211 8.07812 16.0781 8.20703 15.9922L11 13.1562L13.793 15.9922C13.8789 16.0781 14.0078 16.1211 14.1367 16.1211C14.2656 16.1211 14.3945 16.0781 14.5234 15.9922L16.2422 14.2734C16.3281 14.1875 16.3711 14.1016 16.3711 13.9297C16.3711 13.8008 16.3281 13.6719 16.2422 13.543Z" fill="#284162"/>
</svg>
