<?xml version="1.0" encoding="UTF-8"?>
<svg xmlns="http://www.w3.org/2000/svg" version="1.1" viewBox="0 0 272.9 40.7">
  <defs>
    <style>
      .cls-1, .cls-2 {
        fill: #231f20;
      }

      .cls-2 {
        fill-rule: evenodd;
      }

      .cls-3 {
        fill: #ef483e;
      }

      .cls-4 {
        fill: #0090ba;
      }
    </style>
  </defs>
  <!-- Generator: Adobe Illustrator 28.7.1, SVG Export Plug-In . SVG Version: 1.2.0 Build 142)  -->
  <g>
    <g id="Layer_1">
      <g>
        <path class="cls-4" d="M29,24.1l8.1,14.2h-11.4c-1.5,0-1.9-1.5-1.9-1.5l-3.6-15.1h-3.5l-2.8,15.1c-.3,1.4-1.5,1.5-1.5,1.5H0l7.8-14,8.8-3.2h3.5l8.8,2.9h0Z"/>
        <polygon class="cls-4" points="18.6 18.1 16.7 18.1 12.4 16 18.5 5.4 24.4 16 20.2 18.1 18.6 18.1 18.3 17.7 20.5 17.7 18.4 15.5 16.2 17.7 18.3 17.7 18.6 18.1 18.6 18.1"/>
        <path class="cls-3" d="M19.3,5.4l18.7,32.7v-2.3c0-1.7,1.4-2.5,1.4-2.5l10.3-6.8-1.8-1.6c-1.3-1.3-.3-3-.3-3l2.9-5.2-6.4.4c-1.9.2-2.4-1.7-2.4-1.7l-.6-1.8-4.8,4.1c-1.7,1.2-1.3-.8-1.3-.8l2.4-10.2-2.5,1c-2.2.7-2.8-.8-3.2-1.6,0-.2-2.7-6.2-2.7-6.2l-3.6,5.5c-1.3,2-2.2,1.8-3.2,1.3-.7-.3-2.8-1.3-2.8-1.3h0Z"/>
        <polygon class="cls-4" points="11.8 17.2 11.1 18.3 16.2 18.9 16.4 18.6 11.8 17.2 11.8 17.2"/>
        <polygon class="cls-4" points="10.4 19.5 16.2 19.5 16.2 19.8 9.7 20.8 10.4 19.5 10.4 19.5"/>
        <polygon class="cls-4" points="9.1 21.9 8.4 23 16.4 20.8 16.3 20.4 9.1 21.9 9.1 21.9"/>
        <polygon class="cls-4" points="25.1 17.2 25.7 18.3 20.6 18.9 20.4 18.6 25.1 17.2 25.1 17.2"/>
        <polygon class="cls-4" points="26.4 19.5 20.6 19.5 20.6 19.8 27.2 20.8 26.4 19.5 26.4 19.5"/>
        <polygon class="cls-4" points="27.8 21.9 28.4 23 20.4 20.8 20.5 20.4 27.8 21.9 27.8 21.9"/>
        <path class="cls-2" d="M73.4,38c-.6,0-.7-.4-1.3-1.6l-2.6-6.1h-.3l-2.6,6.3c-.3.9-.5,1.3-1.1,1.4v.3h2.3v-.3c-.4,0-.9,0-.9-.5s.2-.7.5-1.5h2.6c.2.4.5,1.2.5,1.5s-.2.4-.9.5v.3h3.7v-.3h0ZM67.7,35.6l1.1-2.8,1.2,2.8h-2.3Z"/>
        <path class="cls-2" d="M79.3,33.7v-.6h-1.5c-.5-.2-.9-.3-1.3-.3-1.6,0-2.4.9-2.4,1.8s.6,1.5,1.4,1.8h0c-.5.2-1.4.6-1.4,1.3s.4.8.9,1h0c-.6,0-1.1.4-1.1.9s.9,1,2.3,1,3-.3,3-1.7-1.3-1.4-1.9-1.4h-.7c-.9,0-1.2,0-1.2-.4s.4-.6.6-.6q1.1,0,1.5-.1c.8-.3,1.2-.9,1.2-1.6s-.3-1-.5-1.1h.9ZM77.5,38.9c.6,0,.9.2.9.6,0,.8-1.5.8-1.9.8s-1.4,0-1.4-.8.1-.4.4-.6h2ZM75.8,34.7c0-.7,0-1.5.8-1.5s.8,1,.8,1.5,0,1.5-.8,1.5-.8-.7-.8-1.5h0Z"/>
        <path class="cls-2" d="M81.4,35.1c0-1.6.4-1.8.8-1.8s.6.3.6.5c0,.3,0,.9.1,1.3h-1.5ZM84.1,36.9c-.2.3-.6.8-1.3.8-1.1,0-1.4-1.2-1.4-2.2h2.9c0-.6-.2-2.6-2.2-2.6s-2.4,1.1-2.4,2.8,1.2,2.8,2.3,2.8,1.6-.4,2.3-1.4l-.3-.2h0Z"/>
        <path class="cls-1" d="M90.8,38c-.6,0-.6-.4-.6-.7v-2.9c0-1.3-.9-1.6-1.5-1.6-1,0-1.5.7-1.6,1h0v-.8h-2.2v.3c.5,0,.6.2.6.7v3.4c0,.6-.2.6-.6.7v.3h2.8v-.3c-.5,0-.6-.4-.6-.7v-3.1c0-.1.5-.7,1-.7s.6.6.6,1v2.8c0,.4-.2.6-.5.7v.3h2.7v-.3h0Z"/>
        <path class="cls-1" d="M95.7,37.1c-.3.3-.6.6-1.2.6s-1.6-.9-1.6-2.6,0-1.9,1-1.9.5.1.5.4c0,.6,0,1.2.6,1.2s.8,0,.8-.7-1-1.3-1.8-1.3-2.7.7-2.7,3,1,2.6,2.5,2.6,1.7-.5,2.2-1.2l-.2-.2h0Z"/>
        <path class="cls-1" d="M101.5,33h-1.7v.3c.3,0,.6,0,.6.4s0,.3-.1.5l-.8,2.2-.8-2.1c-.1-.3-.2-.6-.2-.7,0-.3.3-.3.6-.3v-.3h-2.9v.3c.3,0,.3,0,.5.3,0,.1.4.9.7,1.5l1.4,3.4-.2.6c0,.3-.4.9-.8.9s-.2-.1-.2-.2,0-.1,0-.2c0-.2-.1-.6-.6-.6s-.8.6-.8.8c0,.4.3.9,1.1.9,1.1,0,1.3-.7,1.9-2.2l1.7-4.6c.2-.6.4-.6.7-.6v-.3h0Z"/>
        <path class="cls-2" d="M70,19.1c1.6,0,2,2,2,3.7s0,3.7-2,3.7-2-2.7-2-3.7c0-1.7.4-3.7,2-3.7h0ZM70,18.7c-2.2,0-4.1,1.6-4.1,4.1s1.7,4.1,4.1,4.1,4.1-1.7,4.1-4.1-1.9-4.1-4.1-4.1h0Z"/>
        <path class="cls-2" d="M76.9,22.7c0-.2.5-.8,1-.8.8,0,.9,1.3.9,2.2s0,2.1-1,2.1-.9-.7-.9-.7v-2.8h0ZM77.8,28.8c-.5,0-.9-.1-.9-1v-1.6c.4.4.7.7,1.4.7,1.2,0,2.2-1,2.2-2.9s-1.1-2.7-2.1-2.7-1.3.5-1.5.9h0v-.8h-2.2v.3c.5,0,.6.2.6.7v5.8c0,.5-.1.6-.6.7v.3h3.2v-.2h0Z"/>
        <path class="cls-2" d="M83.3,22.7c0-.2.5-.8,1-.8.8,0,.9,1.3.9,2.2s0,2.1-1,2.1-.9-.7-.9-.7v-2.8h0ZM84.2,28.8c-.5,0-.9-.1-.9-1v-1.6c.4.4.7.7,1.4.7,1.2,0,2.2-1,2.2-2.9s-1.1-2.7-2.1-2.7-1.3.5-1.5.9h0v-.8h-2.2v.3c.5,0,.6.2.6.7v5.8c0,.5-.1.6-.6.7v.3h3.2v-.2h0Z"/>
        <path class="cls-2" d="M89.1,24c0-1.3,0-2.5.9-2.5s.9.7.9,2.5,0,2.4-.9,2.4-.9-1.2-.9-2.4h0ZM87.4,24c0,1.5,1,2.8,2.6,2.8s2.6-1.3,2.6-2.8-1.1-2.8-2.6-2.8-2.6,1.3-2.6,2.8h0Z"/>
        <path class="cls-1" d="M96.3,26.4c-.7,0-.8-.2-.8-.9v-2.2c0-.8.5-1.1.7-1.1.4,0,.4.7,1,.7s.7-.5.7-.8-.2-.9-1-.9-1.3.7-1.5,1.1h0v-.9h-2.2v.3c.3,0,.6.1.6.7v3.4c0,.6-.3.6-.6.7v.3h3.1v-.3h0Z"/>
        <path class="cls-1" d="M101.4,21.4h-1.1v-2h-.3c-.8,1.1-1.3,1.6-1.9,2.1v.3h.6v3.7c0,.2,0,1.2,1.3,1.2s1.5-.8,1.7-1.3h-.3c-.1.1-.3.5-.7.5s-.4-.5-.4-.7v-3.5h1.1v-.5h0Z"/>
        <path class="cls-2" d="M107.9,26.2c-.5,0-.6-.2-.6-.7v-4.2h-2.3v.3c.4,0,.7,0,.7.7v3.3c-.2.2-.5.5-.9.5-.6,0-.6-.5-.6-.8v-3.9h-2.2v.3c.5,0,.6.2.6.7v2.9c0,.8.4,1.6,1.6,1.6s1.3-.5,1.6-.8v.8c.7-.2.8-.2,2.2-.4v-.3h0Z"/>
        <path class="cls-1" d="M114.3,26.4c-.6,0-.6-.4-.6-.7v-2.9c0-1.3-.9-1.6-1.5-1.6-1,0-1.5.7-1.6,1h0v-.8h-2.2v.3c.5,0,.6.2.6.7v3.4c0,.6-.2.6-.6.7v.3h2.8v-.3c-.5,0-.6-.4-.6-.7v-3.1c0-.1.5-.7,1-.7s.6.6.6,1v2.8c0,.4-.2.6-.5.7v.3h2.7v-.3h0Z"/>
        <path class="cls-2" d="M117.4,26.4c-.4,0-.5-.3-.5-.7v-4.4h-2.2v.3c.4,0,.6.2.6.7v3.4c0,.6-.2.6-.6.7v.3h2.8v-.3h0ZM115.1,19.6c0,.5.4.9.9.9s.9-.4.9-.9-.4-.9-.9-.9-.9.4-.9.9h0Z"/>
        <path class="cls-1" d="M121.1,21.4h-1.1v-2h-.3c-.8,1.1-1.3,1.6-1.9,2.1v.3h.6v3.7c0,.2,0,1.2,1.3,1.2s1.5-.8,1.7-1.3h-.3c-.1.1-.3.5-.7.5s-.5-.5-.5-.7v-3.5h1.1v-.5h0Z"/>
        <path class="cls-2" d="M124.2,26.4c-.4,0-.5-.3-.5-.7v-4.4h-2.2v.3c.4,0,.6.2.6.7v3.4c0,.6-.2.6-.6.7v.3h2.8v-.3h0ZM122,19.6c0,.5.4.9.9.9s.9-.4.9-.9-.4-.9-.9-.9-.9.4-.9.9h0Z"/>
        <path class="cls-2" d="M126.3,23.4c0-1.6.4-1.8.8-1.8s.6.3.6.5c0,.3,0,.9.1,1.3h-1.5ZM129.1,25.2c-.2.3-.6.8-1.3.8-1.1,0-1.4-1.2-1.4-2.2h2.9c0-.6-.2-2.6-2.2-2.6s-2.4,1.1-2.4,2.8,1.2,2.8,2.3,2.8,1.6-.4,2.3-1.4l-.3-.2h0Z"/>
        <path class="cls-1" d="M133.4,22.9v-1.7h-.3c0,0,0,.2-.3.2s-.7-.3-1.2-.3c-1.1,0-1.8.7-1.8,1.7,0,1.8,2.7,1.7,2.7,2.8s-.2.8-.8.8c-1.3,0-1.6-1.2-1.6-1.5h-.3v1.9h.3c.1-.2.2-.3.3-.3s.9.3,1.5.3c1.1,0,1.8-.7,1.8-1.8,0-1.9-2.7-1.6-2.7-2.8s.3-.7.7-.7c.7,0,1.2.5,1.4,1.3h.3Z"/>
        <path class="cls-2" d="M73.4,14.8c-.6,0-.7-.4-1.3-1.6l-2.6-6.1h-.3l-2.6,6.3c-.3.9-.5,1.3-1.1,1.3v.3h2.3v-.3c-.4,0-.9,0-.9-.5s.2-.7.5-1.5h2.6c.2.4.5,1.2.5,1.5s-.2.4-.9.5v.3h3.7v-.3h0ZM67.7,12.3l1.1-2.8,1.2,2.8h-2.3Z"/>
        <path class="cls-1" d="M77.3,9.7h-1.1v-2h-.3c-.8,1.1-1.3,1.6-1.9,2.1v.3h.6v3.7c0,.2,0,1.2,1.3,1.2s1.5-.8,1.7-1.3h-.3c-.1.1-.3.5-.7.5s-.5-.5-.5-.7v-3.5h1.1v-.5h0Z"/>
        <path class="cls-1" d="M80.5,14.8c-.5,0-.6-.4-.6-.7v-6.8h-2.2v.3c.6,0,.6.5.6.7v5.9c0,.3-.1.7-.6.7v.3h2.8v-.3h0Z"/>
        <path class="cls-2" d="M86.1,14.3h-.1c0,.2,0,.2-.1.2-.3,0-.3-.2-.3-.3v-3c0-1.1-1-1.6-2.3-1.6s-2.2.7-2.2,1.4.6.8.8.8c.6,0,.8-.4.8-.6,0-.5-.3-.5-.3-.8s.3-.4.7-.4c.9,0,1,.4,1,1v.8c-1.6.5-3.1,1-3.1,2.2s.7,1.2,1.3,1.2,1.1,0,1.8-.8c0,.3.2.8,1,.8s.9-.3,1.3-.7l-.2-.2h0ZM84,13.9c-.2.2-.4.5-.8.5s-.6-.4-.6-.8c0-1,1.1-1.3,1.4-1.4v1.7h0Z"/>
        <path class="cls-1" d="M92.6,14.8c-.6,0-.6-.4-.6-.7v-2.9c0-1.3-.9-1.6-1.5-1.6-1,0-1.5.7-1.6,1h0v-.8h-2.2v.3c.5,0,.6.2.6.7v3.4c0,.6-.2.6-.6.7v.3h2.8v-.3c-.5,0-.6-.4-.6-.7v-3.1c0-.1.5-.7,1-.7s.6.6.6,1v2.8c0,.4-.2.6-.5.7v.3h2.7v-.3h0Z"/>
        <path class="cls-1" d="M96.3,9.7h-1.1v-2h-.3c-.8,1.1-1.3,1.6-1.9,2.1v.3h.6v3.7c0,.2,0,1.2,1.3,1.2s1.5-.8,1.7-1.3h-.3c-.1.1-.3.5-.7.5s-.5-.5-.5-.7v-3.5h1.1v-.5h0Z"/>
        <path class="cls-2" d="M99.4,14.8c-.4,0-.5-.3-.5-.7v-4.4h-2.2v.3c.4,0,.6.2.6.7v3.4c0,.6-.2.6-.6.7v.3h2.8v-.3h0ZM97.2,8c0,.5.4.9.9.9s.9-.4.9-.9-.4-.9-.9-.9-.9.4-.9.9h0Z"/>
        <path class="cls-1" d="M104.4,13.8c-.3.3-.6.6-1.2.6s-1.6-.9-1.6-2.6,0-1.9,1-1.9.5.1.5.5c0,.6,0,1.2.6,1.2s.8,0,.8-.7-1-1.3-1.8-1.3-2.7.7-2.7,3,1,2.6,2.5,2.6,1.7-.5,2.2-1.2l-.2-.2h0Z"/>
        <path class="cls-1" d="M115.1,13.3c-1,1.1-1.8,1.4-2.7,1.4s-1.3-.2-1.8-1c-.4-.7-.5-1.8-.5-2.5,0-2,.5-3.7,2.1-3.7s2.3,1.4,2.7,2.4h.3v-2.7h-.3c-.1.3-.2.5-.5.5s-1.2-.6-2.2-.6c-2.4,0-4.1,1.8-4.1,4.1s1.5,4.1,4.1,4.1,2.4-.7,3.2-1.7l-.3-.3h0Z"/>
        <path class="cls-2" d="M121.2,14.3h-.1c0,.2,0,.2-.1.2-.3,0-.3-.2-.3-.3v-3c0-1.1-1-1.6-2.3-1.6s-2.2.7-2.2,1.4.6.8.8.8c.6,0,.8-.4.8-.6,0-.5-.3-.5-.3-.8s.3-.4.7-.4c.9,0,1,.4,1,1v.8c-1.6.5-3.1,1-3.1,2.2s.7,1.2,1.3,1.2,1.1,0,1.8-.8c0,.3.2.8,1,.8s.9-.3,1.3-.7l-.2-.2h0ZM119.2,13.9c-.2.2-.4.5-.8.5s-.6-.4-.6-.8c0-1,1.1-1.3,1.4-1.4v1.7h0Z"/>
        <path class="cls-1" d="M127.7,14.8c-.6,0-.6-.4-.6-.7v-2.9c0-1.3-.9-1.6-1.5-1.6-1,0-1.5.7-1.6,1h0v-.8h-2.2v.3c.5,0,.6.2.6.7v3.4c0,.6-.2.6-.6.7v.3h2.8v-.3c-.5,0-.6-.4-.6-.7v-3.1c0-.1.5-.7,1-.7s.6.6.6,1v2.8c0,.4-.2.6-.5.7v.3h2.7v-.3h0Z"/>
        <path class="cls-2" d="M133.3,14.3h-.1c0,.2,0,.2-.1.2-.3,0-.3-.2-.3-.3v-3c0-1.1-1-1.6-2.3-1.6s-2.2.7-2.2,1.4.6.8.8.8c.6,0,.8-.4.8-.6,0-.5-.3-.5-.3-.8s.3-.4.7-.4c.9,0,1,.4,1,1v.8c-1.6.5-3.1,1-3.1,2.2s.7,1.2,1.3,1.2,1.1,0,1.8-.8c0,.3.2.8,1,.8s.9-.3,1.3-.7l-.2-.2h0ZM131.2,13.9c-.2.2-.4.5-.8.5s-.6-.4-.6-.8c0-1,1.1-1.3,1.4-1.4v1.7h0Z"/>
        <path class="cls-2" d="M139.7,14.5c-.7,0-.7-.4-.7-.7v-6.6h-2.5v.3c.6,0,.9,0,.9.7v2.1c-.3-.3-.7-.7-1.4-.7-1.1,0-2.2,1-2.2,3s1.1,2.7,2,2.7,1.2-.3,1.6-.8v.8c.7-.2.8-.2,2.3-.4v-.3h0ZM137.4,13.7c0,.1-.4.8-1,.8-.9,0-.9-1.5-.9-2.2,0-1.1.2-2.2,1-2.2s.9.7.9.7v2.8h0Z"/>
        <path class="cls-2" d="M145.4,14.3h-.1c0,.2,0,.2-.1.2-.3,0-.3-.2-.3-.3v-3c0-1.1-1-1.6-2.3-1.6s-2.2.7-2.2,1.4.6.8.8.8c.6,0,.8-.4.8-.6,0-.5-.3-.5-.3-.8s.3-.4.7-.4c.9,0,1,.4,1,1v.8c-1.6.5-3.1,1-3.1,2.2s.7,1.2,1.3,1.2,1.1,0,1.8-.8c0,.3.2.8,1,.8s.9-.3,1.3-.7l-.2-.2h0ZM143.3,13.9c-.2.2-.4.5-.8.5s-.6-.4-.6-.8c0-1,1.1-1.3,1.4-1.4v1.7h0Z"/>
        <path class="cls-2" d="M166.8,37.8c-.7,0-.7-.4-.7-.7v-6.6h-2.5v.3c.6,0,.9,0,.9.7v2.1c-.3-.3-.7-.7-1.4-.7-1.1,0-2.2,1-2.2,3s1.1,2.7,2,2.7,1.2-.3,1.6-.8v.7c.7-.2.8-.2,2.3-.4v-.3h0ZM164.5,37c0,.1-.4.8-1,.8-.9,0-.9-1.5-.9-2.2,0-1.1.2-2.2,1-2.2s.9.7.9.7v2.8h0Z"/>
        <path class="cls-2" d="M173.2,37.8c-.5,0-.6-.2-.6-.7v-4.2h-2.3v.3c.4,0,.7,0,.7.7v3.3c-.2.2-.5.5-.9.5-.6,0-.6-.5-.6-.8v-3.9h-2.2v.3c.5,0,.6.2.6.7v2.9c0,.8.4,1.6,1.6,1.6s1.3-.5,1.6-.8v.7c.7-.2.8-.2,2.2-.4v-.3h0Z"/>
        <path class="cls-1" d="M183.8,36.6c-1,1.1-1.8,1.4-2.7,1.4s-1.3-.2-1.8-1c-.4-.7-.5-1.8-.5-2.5,0-2,.5-3.7,2.1-3.7s2.3,1.3,2.7,2.4h.3v-2.7h-.3c-.1.3-.2.5-.5.5s-1.2-.6-2.2-.6c-2.4,0-4.1,1.8-4.1,4.1s1.5,4.1,4.1,4.1,2.4-.7,3.2-1.7l-.3-.3h0Z"/>
        <path class="cls-2" d="M189.9,37.6h-.1c0,.2,0,.2-.1.2-.3,0-.3-.2-.3-.3v-3c0-1.1-1-1.6-2.3-1.6s-2.2.7-2.2,1.4.6.8.8.8c.6,0,.8-.4.8-.6,0-.5-.3-.5-.3-.8s.3-.4.7-.4c.9,0,1,.4,1,1v.8c-1.6.5-3.1,1-3.1,2.2s.7,1.2,1.3,1.2,1.1,0,1.8-.8c0,.3.2.8,1,.8s.9-.3,1.3-.7l-.2-.2h0ZM187.9,37.2c-.2.2-.4.5-.8.5s-.6-.4-.6-.8c0-1,1.1-1.3,1.4-1.4v1.7h0Z"/>
        <path class="cls-1" d="M196.4,38c-.6,0-.6-.4-.6-.7v-2.9c0-1.3-.9-1.6-1.5-1.6-1,0-1.5.7-1.6,1h0v-.8h-2.2v.3c.5,0,.6.2.6.7v3.4c0,.6-.2.6-.6.7v.3h2.8v-.3c-.5,0-.6-.4-.6-.7v-3.1c0-.1.5-.7,1-.7s.6.6.6,1v2.8c0,.4-.2.6-.5.7v.3h2.7v-.3h0Z"/>
        <path class="cls-2" d="M202,37.6h-.1c0,.2,0,.2-.1.2-.3,0-.3-.2-.3-.3v-3c0-1.1-1-1.6-2.3-1.6s-2.2.7-2.2,1.4.6.8.8.8c.6,0,.8-.4.8-.6,0-.5-.3-.5-.3-.8s.3-.4.7-.4c.9,0,1,.4,1,1v.8c-1.6.5-3.1,1-3.1,2.2s.7,1.2,1.3,1.2,1.1,0,1.8-.8c0,.3.2.8,1,.8s.9-.3,1.3-.7l-.2-.2h0ZM199.9,37.2c-.2.2-.4.5-.8.5s-.6-.4-.6-.8c0-1,1.1-1.3,1.4-1.4v1.7h0Z"/>
        <path class="cls-2" d="M208.4,37.8c-.7,0-.7-.4-.7-.7v-6.6h-2.5v.3c.6,0,.9,0,.9.7v2.1c-.3-.3-.7-.7-1.4-.7-1.1,0-2.2,1-2.2,3s1.1,2.7,2,2.7,1.2-.3,1.6-.8v.7c.7-.2.8-.2,2.3-.4v-.3h0ZM206.2,37c0,.1-.4.8-1,.8-.9,0-.9-1.5-.9-2.2,0-1.1.2-2.2,1-2.2s.9.7.9.7v2.8h0Z"/>
        <path class="cls-2" d="M214.1,37.6h-.1c0,.2,0,.2-.1.2-.3,0-.3-.2-.3-.3v-3c0-1.1-1-1.6-2.3-1.6s-2.2.7-2.2,1.4.6.8.8.8c.6,0,.8-.4.8-.6,0-.5-.3-.5-.3-.8s.3-.4.7-.4c.9,0,1,.4,1,1v.8c-1.6.5-3.1,1-3.1,2.2s.7,1.2,1.3,1.2,1.1,0,1.8-.8c0,.3.2.8,1,.8s.9-.3,1.3-.7l-.2-.2h0ZM212,37.2c-.2.2-.4.5-.8.5s-.6-.4-.6-.8c0-1,1.1-1.3,1.4-1.4v1.7h0Z"/>
        <path class="cls-2" d="M222.6,37.6h-.1c0,.2,0,.2-.1.2-.3,0-.3-.2-.3-.3v-3c0-1.1-1-1.6-2.3-1.6s-2.2.7-2.2,1.4.6.8.8.8c.6,0,.8-.4.8-.6,0-.5-.3-.5-.3-.8s.3-.4.7-.4c.9,0,1,.4,1,1v.8c-1.6.5-3.1,1-3.1,2.2s.7,1.2,1.3,1.2,1.1,0,1.8-.8c0,.3.2.8,1,.8s.9-.3,1.3-.7l-.2-.2h0ZM220.5,37.2c-.2.2-.4.5-.8.5s-.6-.4-.6-.8c0-1,1.1-1.3,1.4-1.4v1.7h0Z"/>
        <path class="cls-1" d="M226.4,33h-1.1v-2h-.3c-.8,1.1-1.3,1.6-1.9,2.1v.3h.6v3.7c0,.2,0,1.2,1.3,1.2s1.5-.8,1.7-1.3h-.3c-.1.1-.3.5-.7.5s-.5-.5-.5-.7v-3.5h1.1v-.5h0Z"/>
        <path class="cls-1" d="M229.6,38c-.5,0-.6-.4-.6-.7v-6.8h-2.2v.3c.6,0,.6.5.6.7v5.9c0,.3-.1.7-.6.7v.3h2.8v-.3h0Z"/>
        <path class="cls-2" d="M235.2,37.6h-.1c0,.2,0,.2-.1.2-.3,0-.3-.2-.3-.3v-3c0-1.1-1-1.6-2.3-1.6s-2.2.7-2.2,1.4.6.8.8.8c.6,0,.8-.4.8-.6,0-.5-.3-.5-.3-.8s.3-.4.7-.4c.9,0,1,.4,1,1v.8c-1.6.5-3.1,1-3.1,2.2s.7,1.2,1.3,1.2,1.1,0,1.8-.8c0,.3.2.8,1,.8s.9-.3,1.3-.7l-.2-.2h0ZM233.1,37.2c-.2.2-.4.5-.8.5s-.6-.4-.6-.8c0-1,1.1-1.3,1.4-1.4v1.7h0Z"/>
        <path class="cls-1" d="M241.7,38c-.6,0-.6-.4-.6-.7v-2.9c0-1.3-.9-1.6-1.5-1.6-1,0-1.5.7-1.6,1h0v-.8h-2.2v.3c.5,0,.6.2.6.7v3.4c0,.6-.2.6-.6.7v.3h2.8v-.3c-.5,0-.6-.4-.6-.7v-3.1c0-.1.5-.7,1-.7s.6.6.6,1v2.8c0,.4-.2.6-.5.7v.3h2.7v-.3h0Z"/>
        <path class="cls-1" d="M245.4,33h-1.1v-2h-.3c-.8,1.1-1.3,1.6-1.9,2.1v.3h.6v3.7c0,.2,0,1.2,1.3,1.2s1.5-.8,1.7-1.3h-.3c-.1.1-.3.5-.7.5s-.5-.5-.5-.7v-3.5h1.1v-.5h0Z"/>
        <path class="cls-2" d="M248.5,38c-.5,0-.5-.3-.5-.7v-4.4h-2.2v.3c.4,0,.6.2.6.7v3.4c0,.6-.2.6-.6.7v.3h2.8v-.3h0ZM246.3,31.2c0,.5.4.9.9.9s.9-.4.9-.9-.4-.9-.9-.9-.9.4-.9.9h0Z"/>
        <path class="cls-2" d="M252.7,37.2s-.2.7-.8.7-1.1-.8-1.1-2.3.1-2.3,1.1-2.3.8.5.8.9v3h0ZM254.9,40.4c-.4,0-.6-.1-.6-.7v-6.9h-.2l-.9.6c-.4-.4-.9-.7-1.5-.7-1.7,0-2.6,1.4-2.6,2.8,0,2,1,2.8,2.2,2.8s.9-.1,1.4-.6v1.6c0,.8-.2.8-.8,1v.3h3.1v-.3h0Z"/>
        <path class="cls-2" d="M261.3,37.8c-.5,0-.6-.2-.6-.7v-4.2h-2.3v.3c.4,0,.7,0,.7.7v3.3c-.2.2-.5.5-.9.5-.6,0-.6-.5-.6-.8v-3.9h-2.2v.3c.5,0,.6.2.6.7v2.9c0,.8.4,1.6,1.6,1.6s1.3-.5,1.6-.8v.7c.7-.2.8-.2,2.2-.4v-.3h0Z"/>
        <path class="cls-2" d="M263.3,35.1c0-1.6.4-1.8.8-1.8s.6.3.6.5c0,.3,0,.9.1,1.3h-1.5ZM266.1,36.9c-.2.3-.6.8-1.3.8-1.1,0-1.4-1.2-1.4-2.2h2.9c0-.6-.2-2.6-2.2-2.6s-2.4,1.1-2.4,2.8,1.2,2.8,2.3,2.8,1.6-.4,2.3-1.4l-.3-.2h0Z"/>
        <path class="cls-2" d="M163.1,22.7c0-.2.5-.8,1-.8.8,0,.9,1.3.9,2.2s0,2.1-1,2.1-.9-.7-.9-.7v-2.8h0ZM164,28.8c-.5,0-.9-.1-.9-1v-1.6c.4.4.7.7,1.4.7,1.2,0,2.2-1,2.2-2.9s-1.1-2.7-2.1-2.7-1.3.5-1.5.9h0v-.8h-2.2v.3c.5,0,.6.2.6.7v5.8c0,.5-.1.6-.6.7v.3h3.2v-.2h0Z"/>
        <path class="cls-1" d="M170.4,26.4c-.7,0-.8-.2-.8-.9v-2.2c0-.8.5-1.1.7-1.1.4,0,.4.7,1,.7s.7-.5.7-.8-.2-.9-1-.9-1.3.7-1.5,1.1h0v-.9h-2.2v.3c.3,0,.6.1.6.7v3.4c0,.6-.3.6-.6.7v.3h3.1v-.3h0Z"/>
        <path class="cls-2" d="M173.9,24c0-1.3,0-2.5.9-2.5s.9.7.9,2.5,0,2.4-.9,2.4-.9-1.2-.9-2.4h0ZM172.2,24c0,1.5,1,2.8,2.6,2.8s2.6-1.3,2.6-2.8-1.1-2.8-2.6-2.8-2.6,1.3-2.6,2.8h0Z"/>
        <path class="cls-1" d="M187,26.4c-.6,0-.6-.4-.6-.7v-2.9c0-1.3-.9-1.6-1.5-1.6s-1.2.3-1.7,1c-.2-.4-.5-1-1.5-1s-1.5.7-1.6,1h0v-.8h-2.2v.3c.3,0,.6,0,.6.7v3.4c0,.6-.3.6-.6.7v.3h2.8v-.3c-.5,0-.5-.3-.5-.7v-3.1c0,0,.5-.7,1-.7s.6.6.6,1v2.8c0,.3,0,.6-.6.7v.3h2.7v-.3c-.4,0-.5-.3-.5-.7v-3.1c0,0,.5-.7,1-.7s.6.6.6,1v2.8c0,.3,0,.6-.6.7v.3h2.7v-.3h0Z"/>
        <path class="cls-2" d="M189.2,24c0-1.3,0-2.5.9-2.5s.9.7.9,2.5,0,2.4-.9,2.4-.9-1.2-.9-2.4h0ZM187.5,24c0,1.5,1,2.8,2.6,2.8s2.6-1.3,2.6-2.8-1.1-2.8-2.6-2.8-2.6,1.3-2.6,2.8h0Z"/>
        <path class="cls-1" d="M196.4,21.4h-1.1v-2h-.3c-.8,1.1-1.3,1.6-1.9,2.1v.3h.6v3.7c0,.2,0,1.2,1.3,1.2s1.5-.8,1.7-1.3h-.3c-.1.1-.3.5-.7.5s-.5-.5-.5-.7v-3.5h1.1v-.5h0Z"/>
        <path class="cls-2" d="M199.6,26.4c-.4,0-.5-.3-.5-.7v-4.4h-2.2v.3c.4,0,.6.2.6.7v3.4c0,.6-.2.6-.6.7v.3h2.8v-.3h0ZM197.3,19.6c0,.5.4.9.9.9s.9-.4.9-.9-.4-.9-.9-.9-.9.4-.9.9h0Z"/>
        <path class="cls-2" d="M201.8,24c0-1.3,0-2.5.9-2.5s.9.7.9,2.5,0,2.4-.9,2.4-.9-1.2-.9-2.4h0ZM200.1,24c0,1.5,1,2.8,2.6,2.8s2.6-1.3,2.6-2.8-1.1-2.8-2.6-2.8-2.6,1.3-2.6,2.8h0Z"/>
        <path class="cls-1" d="M211.7,26.4c-.6,0-.6-.4-.6-.7v-2.9c0-1.3-.9-1.6-1.5-1.6-1,0-1.5.7-1.6,1h0v-.8h-2.2v.3c.5,0,.6.2.6.7v3.4c0,.6-.2.6-.6.7v.3h2.8v-.3c-.5,0-.6-.4-.6-.7v-3.1c0-.1.5-.7,1-.7s.6.6.6,1v2.8c0,.4-.2.6-.5.7v.3h2.7v-.3h0Z"/>
        <path class="cls-2" d="M216.5,23.4c0-1.6.4-1.8.8-1.8s.6.3.6.5c0,.3,0,.9.1,1.3h-1.5ZM219.3,25.2c-.2.3-.6.8-1.3.8-1.1,0-1.4-1.2-1.4-2.2h2.9c0-.6-.2-2.6-2.2-2.6s-2.4,1.1-2.4,2.8,1.2,2.8,2.3,2.8,1.6-.4,2.3-1.4l-.3-.2h0ZM218.6,19.6c.3-.2.5-.3.5-.6s-.4-.5-.6-.5-.3,0-.6.3l-1.6,1.8h.6l1.6-1h0Z"/>
        <path class="cls-1" d="M224.5,25.4c-.3.3-.6.6-1.2.6s-1.6-.9-1.6-2.6,0-1.9,1-1.9.5.1.5.5c0,.6,0,1.2.6,1.2s.8,0,.8-.7-1-1.3-1.8-1.3-2.7.7-2.7,3,1,2.6,2.5,2.6,1.7-.5,2.2-1.2l-.2-.2h0Z"/>
        <path class="cls-2" d="M226.8,24c0-1.3,0-2.5.9-2.5s.9.7.9,2.5,0,2.4-.9,2.4-.9-1.2-.9-2.4h0ZM225.1,24c0,1.5,1,2.8,2.6,2.8s2.6-1.3,2.6-2.8-1.1-2.8-2.6-2.8-2.6,1.3-2.6,2.8h0Z"/>
        <path class="cls-1" d="M236.7,26.4c-.6,0-.6-.4-.6-.7v-2.9c0-1.3-.9-1.6-1.5-1.6-1,0-1.5.7-1.6,1h0v-.8h-2.2v.3c.5,0,.6.2.6.7v3.4c0,.6-.2.6-.6.7v.3h2.8v-.3c-.5,0-.6-.4-.6-.7v-3.1c0-.1.5-.7,1-.7s.6.6.6,1v2.8c0,.4-.2.6-.5.7v.3h2.7v-.3h0Z"/>
        <path class="cls-2" d="M238.8,24c0-1.3,0-2.5.9-2.5s.9.7.9,2.5,0,2.4-.9,2.4-.9-1.2-.9-2.4h0ZM237.1,24c0,1.5,1,2.8,2.6,2.8s2.6-1.3,2.6-2.8-1.1-2.8-2.6-2.8-2.6,1.3-2.6,2.8h0Z"/>
        <path class="cls-1" d="M251.9,26.4c-.6,0-.6-.4-.6-.7v-2.9c0-1.3-.9-1.6-1.5-1.6s-1.2.3-1.7,1c-.2-.4-.5-1-1.5-1s-1.5.7-1.6,1h0v-.8h-2.2v.3c.3,0,.6,0,.6.7v3.4c0,.6-.3.6-.6.7v.3h2.8v-.3c-.5,0-.5-.3-.5-.7v-3.1c0,0,.5-.7,1-.7s.6.6.6,1v2.8c0,.3,0,.6-.6.7v.3h2.7v-.3c-.4,0-.5-.3-.5-.7v-3.1c0,0,.5-.7,1-.7s.6.6.6,1v2.8c0,.3,0,.6-.6.7v.3h2.7v-.3h0Z"/>
        <path class="cls-2" d="M255.1,26.4c-.5,0-.5-.3-.5-.7v-4.4h-2.2v.3c.4,0,.6.2.6.7v3.4c0,.6-.2.6-.6.7v.3h2.8v-.3h0ZM252.8,19.6c0,.5.4.9.9.9s.9-.4.9-.9-.4-.9-.9-.9-.9.4-.9.9h0Z"/>
        <path class="cls-2" d="M259.2,25.5s-.2.7-.8.7-1.1-.8-1.1-2.3.1-2.3,1.1-2.3.8.5.8.9v3h0ZM261.5,28.8c-.4,0-.6-.1-.6-.7v-6.9h-.2l-.9.6c-.4-.4-.9-.7-1.5-.7-1.7,0-2.6,1.4-2.6,2.8,0,2,1,2.8,2.2,2.8s.9-.1,1.4-.6v1.6c0,.8-.2.8-.8,1v.3h3.1v-.3h0Z"/>
        <path class="cls-2" d="M267.8,26.2c-.5,0-.6-.2-.6-.7v-4.2h-2.3v.3c.4,0,.7,0,.7.7v3.3c-.2.2-.5.5-.9.5-.6,0-.6-.5-.6-.8v-3.9h-2.2v.3c.5,0,.6.2.6.7v2.9c0,.8.4,1.6,1.6,1.6s1.3-.5,1.6-.8v.8c.7-.2.8-.2,2.2-.4v-.3h0Z"/>
        <path class="cls-2" d="M269.9,23.4c0-1.6.4-1.8.8-1.8s.6.3.6.5c0,.3,0,.9.1,1.3h-1.5ZM272.6,25.2c-.2.3-.6.8-1.3.8-1.1,0-1.4-1.2-1.4-2.2h2.9c0-.6-.2-2.6-2.2-2.6s-2.4,1.1-2.4,2.8,1.2,2.8,2.3,2.8,1.6-.4,2.3-1.4l-.3-.2h0Z"/>
        <path class="cls-2" d="M168.6,14.8c-.6,0-.7-.4-1.3-1.6l-2.6-6.1h-.3l-2.6,6.3c-.3.9-.5,1.3-1.1,1.3v.3h2.3v-.3c-.4,0-.9,0-.9-.5s.2-.7.5-1.5h2.6c.2.4.5,1.2.5,1.5s-.2.4-.9.5v.3h3.7v-.3h0ZM162.8,12.3l1.1-2.8,1.2,2.8h-2.3Z"/>
        <path class="cls-2" d="M174.5,10.4v-.6h-1.5c-.5-.2-.9-.3-1.3-.3-1.6,0-2.4.9-2.4,1.8s.6,1.5,1.4,1.8h0c-.5.2-1.4.6-1.4,1.3s.4.8.9,1h0c-.6,0-1.1.4-1.1.9s.9,1.1,2.3,1.1,3-.3,3-1.7-1.3-1.4-1.9-1.4h-.7c-.9,0-1.2,0-1.2-.4s.4-.6.6-.6q1.1,0,1.5-.1c.8-.3,1.2-.9,1.2-1.6s-.3-1-.5-1.1h.9ZM172.7,15.6c.6,0,.9.2.9.6,0,.8-1.5.8-1.9.8s-1.4,0-1.4-.8.1-.4.4-.6h2ZM171,11.5c0-.7,0-1.5.8-1.5s.8,1,.8,1.5,0,1.5-.8,1.5-.8-.7-.8-1.5h0Z"/>
        <path class="cls-2" d="M176.6,11.8c0-1.6.4-1.8.8-1.8s.6.3.6.5c0,.3,0,.9.1,1.3h-1.5ZM179.3,13.6c-.2.3-.6.8-1.3.8-1.1,0-1.4-1.2-1.4-2.2h2.9c0-.6-.2-2.6-2.2-2.6s-2.4,1.1-2.4,2.8,1.2,2.8,2.3,2.8,1.6-.4,2.3-1.4l-.3-.2h0Z"/>
        <path class="cls-1" d="M185.9,14.8c-.6,0-.6-.4-.6-.7v-2.9c0-1.3-.9-1.6-1.5-1.6-1,0-1.5.7-1.6,1h0v-.8h-2.2v.3c.5,0,.6.2.6.7v3.4c0,.6-.2.6-.6.7v.3h2.8v-.3c-.5,0-.6-.4-.6-.7v-3.1c0-.1.5-.7,1-.7s.6.6.6,1v2.8c0,.4-.2.6-.5.7v.3h2.7v-.3h0Z"/>
        <path class="cls-1" d="M190.8,13.8c-.3.3-.6.6-1.2.6s-1.6-.9-1.6-2.6,0-1.9,1-1.9.5.1.5.5c0,.6,0,1.2.6,1.2s.8,0,.8-.7-1-1.3-1.8-1.3-2.7.7-2.7,3,1,2.6,2.5,2.6,1.7-.5,2.2-1.2l-.2-.2h0Z"/>
        <path class="cls-2" d="M193,11.8c0-1.6.4-1.8.8-1.8s.6.3.6.5c0,.3,0,.9.1,1.3h-1.5ZM195.8,13.6c-.2.3-.6.8-1.3.8-1.1,0-1.4-1.2-1.4-2.2h2.9c0-.6-.2-2.6-2.2-2.6s-2.4,1.1-2.4,2.8,1.2,2.8,2.3,2.8,1.6-.4,2.3-1.4l-.3-.2h0Z"/>
        <path class="cls-2" d="M205.2,14.5c-.7,0-.7-.4-.7-.7v-6.6h-2.5v.3c.6,0,.9,0,.9.7v2.1c-.3-.3-.7-.7-1.4-.7-1.1,0-2.2,1-2.2,3s1.1,2.7,2,2.7,1.2-.3,1.6-.8v.8c.7-.2.8-.2,2.3-.4v-.3h0ZM202.9,13.7c0,.1-.4.8-1,.8-.9,0-.9-1.5-.9-2.2,0-1.1.2-2.2,1-2.2s.9.7.9.7v2.8h0Z"/>
        <path class="cls-2" d="M207.3,11.8c0-1.6.4-1.8.8-1.8s.6.3.6.5c0,.3,0,.9.1,1.3h-1.5ZM210,13.6c-.2.3-.6.8-1.3.8-1.1,0-1.4-1.2-1.4-2.2h2.9c0-.6-.2-2.6-2.2-2.6s-2.4,1.1-2.4,2.8,1.2,2.8,2.3,2.8,1.6-.4,2.3-1.4l-.3-.2h0Z"/>
      </g>
    </g>
  </g>
</svg>