<?xml version="1.0" encoding="UTF-8"?>
<svg xmlns="http://www.w3.org/2000/svg" version="1.1" viewBox="0 0 276.1 41.3">
  <defs>
    <style>
      .cls-1, .cls-2 {
        fill: #231f20;
      }

      .cls-2 {
        fill-rule: evenodd;
      }

      .cls-3 {
        fill: #ef483e;
      }

      .cls-4 {
        fill: #0090ba;
      }
    </style>
  </defs>
  <!-- Generator: Adobe Illustrator 28.7.1, SVG Export Plug-In . SVG Version: 1.2.0 Build 142)  -->
  <g>
    <g id="Layer_1">
      <g>
        <path class="cls-4" d="M29.4,24.5l8.2,14.4h-11.6c-1.5,0-1.9-1.5-1.9-1.5l-3.7-15.4h-3.6l-2.8,15.4c-.3,1.4-1.5,1.5-1.5,1.5H0l7.9-14.2,9-3.2h3.6l9,3h0Z"/>
        <polygon class="cls-4" points="18.9 18.3 16.9 18.3 12.6 16.2 18.8 5.5 24.7 16.2 20.5 18.3 18.9 18.3 18.6 17.9 20.8 17.9 18.7 15.7 16.5 17.9 18.6 17.9 18.9 18.3 18.9 18.3"/>
        <path class="cls-3" d="M19.5,5.5l18.9,33.2v-2.3c0-1.7,1.5-2.6,1.5-2.6l10.4-6.9-1.8-1.6c-1.3-1.3-.3-3.1-.3-3.1l2.9-5.3-6.5.4c-1.9.2-2.4-1.7-2.4-1.7l-.6-1.8-4.9,4.2c-1.7,1.2-1.4-.8-1.4-.8l2.4-10.3-2.6,1c-2.2.7-2.8-.8-3.2-1.6,0-.2-2.7-6.3-2.7-6.3l-3.7,5.5c-1.4,2-2.2,1.8-3.2,1.3-.7-.3-2.8-1.4-2.8-1.4h0Z"/>
        <polygon class="cls-4" points="11.9 17.5 11.3 18.6 16.5 19.2 16.6 18.9 11.9 17.5 11.9 17.5"/>
        <polygon class="cls-4" points="10.6 19.8 16.5 19.8 16.5 20.1 9.8 21.1 10.6 19.8 10.6 19.8"/>
        <polygon class="cls-4" points="9.2 22.2 8.5 23.3 16.6 21.1 16.6 20.7 9.2 22.2 9.2 22.2"/>
        <polygon class="cls-4" points="25.4 17.5 26.1 18.6 20.9 19.2 20.7 18.9 25.4 17.5 25.4 17.5"/>
        <polygon class="cls-4" points="26.8 19.8 20.9 19.8 20.9 20.1 27.6 21.1 26.8 19.8 26.8 19.8"/>
        <polygon class="cls-4" points="28.2 22.2 28.8 23.3 20.7 21.1 20.8 20.7 28.2 22.2 28.2 22.2"/>
        <path class="cls-2" d="M203,38.6c-.6,0-.7-.4-1.3-1.6l-2.6-6.2h-.3l-2.6,6.4c-.4.9-.5,1.3-1.1,1.4v.3h2.4v-.3c-.4,0-1,0-1-.5s.2-.7.5-1.5h2.6c.2.4.5,1.2.5,1.6s-.2.4-.9.5v.3h3.8v-.3h0ZM197.1,36.1l1.1-2.8,1.2,2.8h-2.3Z"/>
        <path class="cls-2" d="M209,34.2v-.6h-1.5c-.5-.2-.9-.3-1.3-.3-1.6,0-2.4.9-2.4,1.9s.6,1.5,1.4,1.8h0c-.5.2-1.4.6-1.4,1.4s.4.8.9,1h0c-.7,0-1.1.4-1.1.9s.9,1.1,2.3,1.1,3-.3,3-1.8-1.3-1.4-1.9-1.4h-.8c-.9,0-1.2,0-1.2-.4s.4-.6.7-.6q1.1,0,1.5-.1c.8-.3,1.2-.9,1.2-1.6s-.4-1-.5-1.2h.9ZM207.1,39.5c.6,0,.9.2.9.6,0,.8-1.5.8-1.9.8s-1.4,0-1.4-.8.1-.4.4-.7h2ZM205.3,35.2c0-.7,0-1.5.8-1.5s.8,1,.8,1.5,0,1.5-.8,1.5-.8-.7-.8-1.5h0Z"/>
        <path class="cls-2" d="M211,35.6c0-1.6.4-1.9.8-1.9s.6.3.6.6c0,.4,0,1,.1,1.3h-1.6ZM213.8,37.4c-.2.3-.6.8-1.3.8-1.1,0-1.4-1.2-1.4-2.2h3c0-.6-.2-2.7-2.2-2.7s-2.4,1.1-2.4,2.8,1.2,2.9,2.4,2.9,1.6-.4,2.3-1.5l-.3-.2h0Z"/>
        <path class="cls-1" d="M220.5,38.6c-.6,0-.6-.4-.6-.7v-2.9c0-1.3-.9-1.7-1.6-1.7-1,0-1.5.7-1.7,1h0v-.8h-2.2v.3c.5,0,.6.2.6.7v3.4c0,.6-.2.6-.6.7v.3h2.8v-.3c-.5,0-.6-.4-.6-.7v-3.1c0-.1.5-.7,1-.7s.6.6.6,1v2.8c0,.4-.2.6-.6.7v.3h2.8v-.3h0Z"/>
        <path class="cls-1" d="M225.5,37.6c-.3.3-.6.7-1.3.7s-1.6-.9-1.6-2.6,0-2,1-2,.5.1.5.5c0,.6,0,1.2.7,1.2s.8,0,.8-.8-1-1.3-1.8-1.3-2.8.7-2.8,3,1,2.7,2.5,2.7,1.7-.5,2.2-1.2l-.2-.2h0Z"/>
        <path class="cls-1" d="M231.4,33.5h-1.8v.3c.3,0,.6,0,.6.4s0,.3-.1.5l-.8,2.2-.8-2.2c-.1-.3-.2-.6-.2-.7,0-.3.3-.3.6-.3v-.3h-2.9v.3c.3,0,.4,0,.5.3,0,.1.4.9.7,1.5l1.4,3.5-.2.6c0,.3-.4,1-.8,1s-.2-.1-.2-.2,0-.1,0-.2c0-.2-.1-.6-.7-.6s-.8.6-.8.8c0,.4.3.9,1.1.9,1.1,0,1.3-.7,1.9-2.2l1.7-4.6c.2-.6.4-.6.7-.6v-.3h0Z"/>
        <path class="cls-2" d="M199.4,19.4c1.6,0,2.1,2.1,2.1,3.8s0,3.8-2.1,3.8-2.1-2.8-2.1-3.8c0-1.7.4-3.8,2.1-3.8h0ZM199.4,19c-2.3,0-4.1,1.6-4.1,4.2s1.7,4.2,4.1,4.2,4.1-1.7,4.1-4.2-1.9-4.2-4.1-4.2h0Z"/>
        <path class="cls-2" d="M206.5,23c0-.2.5-.8,1-.8.9,0,.9,1.3.9,2.3s0,2.1-1,2.1-.9-.7-.9-.7v-2.8h0ZM207.4,29.2c-.5,0-.9-.1-.9-1.1v-1.7c.4.4.7.7,1.4.7,1.2,0,2.2-1.1,2.2-3s-1.2-2.7-2.1-2.7-1.3.5-1.5.9h0v-.8h-2.2v.3c.5,0,.6.2.6.7v5.9c0,.5-.1.6-.7.7v.3h3.2v-.2h0Z"/>
        <path class="cls-2" d="M212.9,23c0-.2.5-.8,1-.8.9,0,.9,1.3.9,2.3s0,2.1-1,2.1-.9-.7-.9-.7v-2.8h0ZM213.8,29.2c-.5,0-.9-.1-.9-1.1v-1.7c.4.4.7.7,1.4.7,1.2,0,2.2-1.1,2.2-3s-1.2-2.7-2.1-2.7-1.3.5-1.5.9h0v-.8h-2.2v.3c.5,0,.6.2.6.7v5.9c0,.5-.1.6-.7.7v.3h3.2v-.2h0Z"/>
        <path class="cls-2" d="M218.9,24.4c0-1.3,0-2.5.9-2.5s.9.7.9,2.5,0,2.5-.9,2.5-.9-1.2-.9-2.5h0ZM217.2,24.4c0,1.5,1,2.8,2.6,2.8s2.6-1.3,2.6-2.8-1.1-2.9-2.6-2.9-2.6,1.3-2.6,2.9h0Z"/>
        <path class="cls-1" d="M226.1,26.8c-.7,0-.9-.2-.9-.9v-2.2c0-.9.5-1.1.7-1.1.4,0,.4.7,1,.7s.7-.5.7-.8-.2-.9-1-.9-1.3.7-1.5,1.1h0v-.9h-2.2v.3c.4,0,.6.1.6.7v3.4c0,.6-.3.6-.6.7v.3h3.1v-.3h0Z"/>
        <path class="cls-1" d="M231.4,21.7h-1.1v-2h-.3c-.8,1.1-1.3,1.7-1.9,2.2v.3h.6v3.8c0,.2,0,1.2,1.3,1.2s1.5-.8,1.7-1.3h-.3c-.1.1-.3.5-.7.5s-.5-.5-.5-.7v-3.5h1.1v-.5h0Z"/>
        <path class="cls-2" d="M237.9,26.6c-.5,0-.7-.2-.7-.7v-4.2h-2.4v.3c.4,0,.7,0,.7.7v3.3c-.2.2-.5.5-1,.5-.6,0-.7-.5-.7-.8v-4h-2.2v.3c.5,0,.6.2.6.7v3c0,.8.4,1.6,1.6,1.6s1.3-.5,1.7-.8v.8c.7-.2.8-.2,2.3-.4v-.3h0Z"/>
        <path class="cls-1" d="M244.4,26.8c-.6,0-.6-.4-.6-.7v-2.9c0-1.3-.9-1.7-1.6-1.7-1,0-1.5.7-1.7,1h0v-.8h-2.2v.3c.5,0,.6.2.6.7v3.4c0,.6-.2.6-.6.7v.3h2.8v-.3c-.5,0-.6-.4-.6-.7v-3.1c0-.1.5-.7,1-.7s.6.6.6,1v2.8c0,.4-.2.6-.6.7v.3h2.8v-.3h0Z"/>
        <path class="cls-2" d="M247.5,26.8c-.5,0-.6-.3-.6-.7v-4.4h-2.2v.3c.4,0,.6.2.6.7v3.4c0,.6-.2.6-.6.7v.3h2.8v-.3h0ZM245.2,19.9c0,.5.4.9.9.9s.9-.4.9-.9-.4-.9-.9-.9-.9.4-.9.9h0Z"/>
        <path class="cls-1" d="M251.3,21.7h-1.1v-2h-.3c-.8,1.1-1.3,1.7-1.9,2.2v.3h.6v3.8c0,.2,0,1.2,1.3,1.2s1.5-.8,1.7-1.3h-.3c-.1.1-.3.5-.7.5s-.5-.5-.5-.7v-3.5h1.1v-.5h0Z"/>
        <path class="cls-2" d="M254.5,26.8c-.5,0-.6-.3-.6-.7v-4.4h-2.2v.3c.4,0,.6.2.6.7v3.4c0,.6-.2.6-.6.7v.3h2.8v-.3h0ZM252.2,19.9c0,.5.4.9.9.9s.9-.4.9-.9-.4-.9-.9-.9-.9.4-.9.9h0Z"/>
        <path class="cls-2" d="M256.6,23.8c0-1.6.4-1.9.8-1.9s.6.3.6.5c0,.4,0,1,.1,1.3h-1.6ZM259.4,25.6c-.2.3-.6.8-1.3.8-1.1,0-1.4-1.2-1.4-2.2h2.9c0-.6-.2-2.7-2.2-2.7s-2.4,1.1-2.4,2.8,1.2,2.9,2.4,2.9,1.6-.4,2.3-1.5l-.3-.2h0Z"/>
        <path class="cls-1" d="M263.8,23.3v-1.7h-.3c0,0,0,.2-.3.2s-.7-.3-1.3-.3c-1.1,0-1.9.7-1.9,1.7,0,1.8,2.8,1.7,2.8,2.8s-.2.8-.8.8c-1.3,0-1.6-1.2-1.7-1.5h-.3v1.9h.3c.1-.2.2-.3.3-.3s.9.3,1.5.3c1.1,0,1.8-.7,1.8-1.8,0-1.9-2.7-1.7-2.7-2.8s.3-.7.7-.7c.7,0,1.2.5,1.5,1.3h.3Z"/>
        <path class="cls-2" d="M203,15c-.6,0-.7-.4-1.3-1.6l-2.6-6.2h-.3l-2.6,6.4c-.4.9-.5,1.3-1.1,1.4v.3h2.4v-.3c-.4,0-1,0-1-.5s.2-.7.5-1.5h2.6c.2.4.5,1.2.5,1.6s-.2.4-.9.5v.3h3.8v-.3h0ZM197.1,12.5l1.1-2.8,1.2,2.8h-2.3Z"/>
        <path class="cls-1" d="M206.9,9.9h-1.1v-2h-.3c-.8,1.1-1.3,1.7-1.9,2.2v.3h.6v3.8c0,.2,0,1.2,1.3,1.2s1.5-.8,1.7-1.3h-.3c-.1.1-.3.5-.7.5s-.5-.5-.5-.7v-3.5h1.1v-.5h0Z"/>
        <path class="cls-1" d="M210.1,15c-.5,0-.6-.4-.6-.7v-6.9h-2.2v.3c.6,0,.6.6.6.7v6c0,.3-.1.7-.6.7v.3h2.8v-.3h0Z"/>
        <path class="cls-2" d="M215.8,14.5h-.1c0,.2,0,.2-.1.2-.3,0-.3-.2-.3-.3v-3.1c0-1.1-1-1.6-2.3-1.6s-2.2.7-2.2,1.5.6.8.8.8c.6,0,.8-.4.8-.7,0-.5-.4-.6-.4-.8s.3-.4.7-.4c.9,0,1,.4,1,1v.9c-1.7.5-3.1,1-3.1,2.2s.7,1.3,1.3,1.3,1.1,0,1.9-.8c0,.3.2.8,1,.8s1-.3,1.3-.7l-.2-.2h0ZM213.7,14.1c-.2.2-.4.5-.8.5s-.6-.4-.6-.8c0-1,1.2-1.4,1.4-1.4v1.7h0Z"/>
        <path class="cls-1" d="M222.4,15c-.6,0-.6-.4-.6-.7v-2.9c0-1.3-.9-1.7-1.6-1.7-1,0-1.5.7-1.7,1h0v-.8h-2.2v.3c.5,0,.6.2.6.7v3.4c0,.6-.2.6-.6.7v.3h2.8v-.3c-.5,0-.6-.4-.6-.7v-3.1c0-.1.5-.7,1-.7s.6.6.6,1v2.8c0,.4-.2.6-.5.7v.3h2.8v-.3h0Z"/>
        <path class="cls-1" d="M226.1,9.9h-1.1v-2h-.3c-.8,1.1-1.3,1.7-1.9,2.2v.3h.6v3.8c0,.2,0,1.2,1.3,1.2s1.5-.8,1.7-1.3h-.3c-.1.1-.3.5-.7.5s-.5-.5-.5-.7v-3.5h1.1v-.5h0Z"/>
        <path class="cls-2" d="M229.3,15c-.5,0-.6-.3-.6-.7v-4.4h-2.2v.3c.4,0,.6.2.6.7v3.4c0,.6-.2.6-.6.7v.3h2.8v-.3h0ZM227.1,8.1c0,.5.4.9.9.9s.9-.4.9-.9-.4-.9-.9-.9-.9.4-.9.9h0Z"/>
        <path class="cls-1" d="M234.4,14c-.3.3-.6.7-1.3.7s-1.6-.9-1.6-2.6,0-2,1-2,.5.1.5.5c0,.6,0,1.2.7,1.2s.8,0,.8-.7-1-1.3-1.8-1.3-2.8.7-2.8,3,1,2.7,2.5,2.7,1.7-.5,2.2-1.2l-.2-.2h0Z"/>
        <path class="cls-1" d="M245.2,13.5c-1,1.1-1.9,1.4-2.8,1.4s-1.3-.2-1.8-1c-.4-.7-.5-1.9-.5-2.6,0-2,.5-3.8,2.2-3.8s2.3,1.4,2.7,2.4h.3v-2.7h-.3c-.1.3-.2.5-.5.5s-1.2-.6-2.3-.6c-2.5,0-4.1,1.8-4.1,4.2s1.5,4.1,4.2,4.1,2.4-.7,3.3-1.7l-.3-.3h0Z"/>
        <path class="cls-2" d="M251.5,14.5h-.1c0,.2,0,.2-.1.2-.3,0-.3-.2-.3-.3v-3.1c0-1.1-1-1.6-2.3-1.6s-2.2.7-2.2,1.5.6.8.8.8c.6,0,.8-.4.8-.7,0-.5-.4-.6-.4-.8s.3-.4.7-.4c.9,0,1,.4,1,1v.9c-1.7.5-3.2,1-3.2,2.2s.7,1.3,1.3,1.3,1.1,0,1.9-.8c0,.3.2.8,1,.8s1-.3,1.3-.7l-.2-.2h0ZM249.3,14.1c-.2.2-.4.5-.8.5s-.6-.4-.6-.8c0-1,1.2-1.4,1.4-1.4v1.7h0Z"/>
        <path class="cls-1" d="M258,15c-.6,0-.6-.4-.6-.7v-2.9c0-1.3-.9-1.7-1.6-1.7-1,0-1.5.7-1.7,1h0v-.8h-2.2v.3c.5,0,.6.2.6.7v3.4c0,.6-.2.6-.6.7v.3h2.8v-.3c-.5,0-.6-.4-.6-.7v-3.1c0-.1.5-.7,1-.7s.6.6.6,1v2.8c0,.4-.2.6-.6.7v.3h2.8v-.3h0Z"/>
        <path class="cls-2" d="M263.7,14.5h-.1c0,.2,0,.2-.1.2-.3,0-.3-.2-.3-.3v-3.1c0-1.1-1-1.6-2.3-1.6s-2.2.7-2.2,1.5.6.8.8.8c.6,0,.8-.4.8-.7,0-.5-.4-.6-.4-.8s.3-.4.7-.4c.9,0,1,.4,1,1v.9c-1.7.5-3.1,1-3.1,2.2s.7,1.3,1.3,1.3,1.1,0,1.9-.8c0,.3.2.8,1,.8s1-.3,1.3-.7l-.2-.2h0ZM261.6,14.1c-.2.2-.4.5-.8.5s-.6-.4-.6-.8c0-1,1.2-1.4,1.4-1.4v1.7h0Z"/>
        <path class="cls-2" d="M270.2,14.8c-.7,0-.7-.4-.7-.7v-6.7h-2.5v.3c.6,0,.9,0,.9.7v2.1c-.3-.3-.7-.7-1.4-.7-1.1,0-2.3,1-2.3,3s1.1,2.7,2,2.7,1.2-.3,1.6-.8v.8c.7-.2.8-.2,2.3-.4v-.3h0ZM267.9,14c0,.1-.4.8-1,.8-.9,0-.9-1.5-.9-2.2,0-1.1.2-2.2,1-2.2s.9.7.9.7v2.8h0Z"/>
        <path class="cls-2" d="M275.9,14.5h-.1c0,.2,0,.2-.1.2-.3,0-.3-.2-.3-.3v-3.1c0-1.1-1-1.6-2.3-1.6s-2.2.7-2.2,1.5.6.8.8.8c.6,0,.8-.4.8-.7,0-.5-.4-.6-.4-.8s.3-.4.7-.4c.9,0,1,.4,1,1v.9c-1.7.5-3.2,1-3.2,2.2s.7,1.3,1.3,1.3,1.1,0,1.9-.8c0,.3.2.8,1,.8s1-.3,1.3-.7l-.2-.2h0ZM273.8,14.1c-.2.2-.4.5-.8.5s-.6-.4-.6-.8c0-1,1.2-1.4,1.4-1.4v1.7h0Z"/>
        <path class="cls-2" d="M70.9,38.3c-.7,0-.7-.4-.7-.7v-6.7h-2.5v.3c.6,0,.9,0,.9.7v2.1c-.3-.3-.7-.7-1.4-.7-1.1,0-2.3,1-2.3,3s1.1,2.7,2,2.7,1.2-.3,1.6-.8v.8c.7-.2.8-.2,2.3-.4v-.3h0ZM68.6,37.5c0,.1-.4.8-1,.8-.9,0-.9-1.5-.9-2.2,0-1.1.2-2.2,1-2.2s.9.7.9.7v2.8h0Z"/>
        <path class="cls-2" d="M77.4,38.3c-.5,0-.7-.2-.7-.7v-4.2h-2.4v.3c.4,0,.7,0,.7.7v3.3c-.2.2-.5.5-1,.5-.6,0-.7-.5-.7-.8v-4h-2.2v.3c.5,0,.6.2.6.7v3c0,.8.4,1.6,1.6,1.6s1.3-.5,1.7-.8v.8c.7-.2.8-.2,2.3-.4v-.3h0Z"/>
        <path class="cls-1" d="M88.1,37c-1,1.1-1.8,1.4-2.8,1.4s-1.3-.2-1.8-1c-.4-.7-.5-1.9-.5-2.6,0-2,.5-3.8,2.2-3.8s2.3,1.4,2.7,2.4h.3v-2.7h-.3c-.1.3-.2.5-.5.5s-1.2-.6-2.3-.6c-2.5,0-4.1,1.8-4.1,4.2s1.5,4.1,4.2,4.1,2.4-.7,3.3-1.7l-.4-.3h0Z"/>
        <path class="cls-2" d="M94.4,38h-.1c0,.2,0,.2-.1.2-.3,0-.3-.2-.3-.3v-3.1c0-1.1-1-1.6-2.3-1.6s-2.2.7-2.2,1.5.6.8.8.8c.6,0,.8-.4.8-.7,0-.5-.4-.5-.4-.8s.3-.4.7-.4c.9,0,1,.4,1,1v.9c-1.7.5-3.1,1-3.1,2.2s.7,1.3,1.3,1.3,1.1,0,1.9-.8c0,.3.2.8,1,.8s1-.3,1.3-.7l-.2-.2h0ZM92.3,37.6c-.2.2-.4.5-.8.5s-.6-.4-.6-.8c0-1,1.2-1.4,1.4-1.4v1.7h0Z"/>
        <path class="cls-1" d="M100.9,38.5c-.6,0-.6-.4-.6-.7v-2.9c0-1.3-.9-1.7-1.6-1.7-1,0-1.5.7-1.7,1h0v-.8h-2.2v.3c.5,0,.6.2.6.7v3.4c0,.6-.2.6-.6.7v.3h2.8v-.3c-.5,0-.6-.4-.6-.7v-3.1c0-.1.5-.7,1-.7s.6.6.6,1v2.8c0,.4-.2.6-.6.7v.3h2.8v-.3h0Z"/>
        <path class="cls-2" d="M106.6,38h-.1c0,.2,0,.2-.1.2-.3,0-.3-.2-.3-.3v-3.1c0-1.1-1-1.6-2.3-1.6s-2.2.7-2.2,1.5.6.8.8.8c.6,0,.8-.4.8-.7,0-.5-.4-.5-.4-.8s.3-.4.7-.4c.9,0,1,.4,1,1v.9c-1.7.5-3.1,1-3.1,2.2s.7,1.3,1.3,1.3,1.1,0,1.9-.8c0,.3.2.8,1,.8s1-.3,1.3-.7l-.2-.2h0ZM104.5,37.6c-.2.2-.4.5-.8.5s-.6-.4-.6-.8c0-1,1.2-1.4,1.4-1.4v1.7h0Z"/>
        <path class="cls-2" d="M113.1,38.3c-.7,0-.7-.4-.7-.7v-6.7h-2.5v.3c.6,0,.9,0,.9.7v2.1c-.3-.3-.7-.7-1.4-.7-1.1,0-2.3,1-2.3,3s1.1,2.7,2,2.7,1.2-.3,1.6-.8v.8c.7-.2.8-.2,2.3-.4v-.3h0ZM110.8,37.5c0,.1-.4.8-1,.8-.9,0-.9-1.5-.9-2.2,0-1.1.2-2.2,1-2.2s.9.7.9.7v2.8h0Z"/>
        <path class="cls-2" d="M118.9,38h-.1c0,.2,0,.2-.1.2-.3,0-.3-.2-.3-.3v-3.1c0-1.1-1-1.6-2.3-1.6s-2.2.7-2.2,1.5.6.8.8.8c.6,0,.8-.4.8-.7,0-.5-.4-.5-.4-.8s.3-.4.7-.4c.9,0,1,.4,1,1v.9c-1.7.5-3.2,1-3.2,2.2s.7,1.3,1.3,1.3,1.1,0,1.9-.8c0,.3.2.8,1,.8s1-.3,1.3-.7l-.2-.2h0ZM116.8,37.6c-.2.2-.4.5-.8.5s-.6-.4-.6-.8c0-1,1.2-1.4,1.4-1.4v1.7h0Z"/>
        <path class="cls-2" d="M127.5,38h-.1c0,.2,0,.2-.1.2-.3,0-.3-.2-.3-.3v-3.1c0-1.1-1-1.6-2.3-1.6s-2.2.7-2.2,1.5.6.8.8.8c.6,0,.8-.4.8-.7,0-.5-.4-.5-.4-.8s.3-.4.7-.4c.9,0,1,.4,1,1v.9c-1.7.5-3.1,1-3.1,2.2s.7,1.3,1.3,1.3,1.1,0,1.9-.8c0,.3.2.8,1,.8s1-.3,1.3-.7l-.2-.2h0ZM125.4,37.6c-.2.2-.4.5-.8.5s-.6-.4-.6-.8c0-1,1.2-1.4,1.4-1.4v1.7h0Z"/>
        <path class="cls-1" d="M131.3,33.4h-1.1v-2h-.3c-.8,1.1-1.3,1.7-1.9,2.2v.3h.6v3.8c0,.2,0,1.2,1.3,1.2s1.5-.8,1.7-1.3h-.3c-.1.1-.3.5-.7.5s-.5-.5-.5-.7v-3.5h1.1v-.5h0Z"/>
        <path class="cls-1" d="M134.6,38.5c-.5,0-.6-.4-.6-.7v-6.9h-2.2v.3c.6,0,.6.5.6.7v6c0,.3-.1.7-.6.7v.3h2.8v-.3h0Z"/>
        <path class="cls-2" d="M140.3,38h-.1c0,.2,0,.2-.1.2-.3,0-.3-.2-.3-.3v-3.1c0-1.1-1-1.6-2.3-1.6s-2.2.7-2.2,1.5.6.8.8.8c.6,0,.8-.4.8-.7,0-.5-.4-.5-.4-.8s.3-.4.7-.4c.9,0,1,.4,1,1v.9c-1.7.5-3.2,1-3.2,2.2s.7,1.3,1.3,1.3,1.1,0,1.9-.8c0,.3.2.8,1,.8s1-.3,1.3-.7l-.2-.2h0ZM138.2,37.6c-.2.2-.4.5-.8.5s-.6-.4-.6-.8c0-1,1.2-1.4,1.4-1.4v1.7h0Z"/>
        <path class="cls-1" d="M146.9,38.5c-.6,0-.6-.4-.6-.7v-2.9c0-1.3-.9-1.7-1.6-1.7-1,0-1.5.7-1.7,1h0v-.8h-2.2v.3c.5,0,.6.2.6.7v3.4c0,.6-.2.6-.6.7v.3h2.8v-.3c-.5,0-.6-.4-.6-.7v-3.1c0-.1.5-.7,1-.7s.6.6.6,1v2.8c0,.4-.2.6-.5.7v.3h2.8v-.3h0Z"/>
        <path class="cls-1" d="M150.6,33.4h-1.1v-2h-.3c-.8,1.1-1.3,1.7-1.9,2.2v.3h.6v3.8c0,.2,0,1.2,1.3,1.2s1.5-.8,1.7-1.3h-.3c-.1.1-.3.5-.7.5s-.5-.5-.5-.7v-3.5h1.1v-.5h0Z"/>
        <path class="cls-2" d="M153.8,38.5c-.5,0-.5-.3-.5-.7v-4.4h-2.2v.3c.4,0,.6.2.6.7v3.4c0,.6-.2.6-.6.7v.3h2.8v-.3h0ZM151.5,31.6c0,.5.4.9.9.9s.9-.4.9-.9-.4-.9-.9-.9-.9.4-.9.9h0Z"/>
        <path class="cls-2" d="M158,37.6s-.2.7-.8.7-1.1-.8-1.1-2.3.1-2.4,1.1-2.4.8.5.8.9v3.1h0ZM160.3,40.9c-.4,0-.6-.1-.6-.7v-7h-.2l-.9.7c-.4-.4-.9-.7-1.5-.7-1.8,0-2.7,1.5-2.7,2.8,0,2,1,2.9,2.2,2.9s.9-.1,1.4-.7v1.6c0,.8-.2.9-.9,1v.3h3.1v-.3h0Z"/>
        <path class="cls-2" d="M166.7,38.3c-.5,0-.7-.2-.7-.7v-4.2h-2.4v.3c.4,0,.7,0,.7.7v3.3c-.2.2-.5.5-1,.5-.6,0-.7-.5-.7-.8v-4h-2.2v.3c.5,0,.6.2.6.7v3c0,.8.4,1.6,1.6,1.6s1.3-.5,1.7-.8v.8c.7-.2.8-.2,2.3-.4v-.3h0Z"/>
        <path class="cls-2" d="M168.8,35.5c0-1.6.4-1.9.8-1.9s.6.3.6.5c0,.4,0,1,.1,1.3h-1.6ZM171.6,37.3c-.2.3-.6.8-1.3.8-1.1,0-1.4-1.2-1.4-2.2h3c0-.6-.2-2.7-2.2-2.7s-2.4,1.1-2.4,2.8,1.2,2.9,2.4,2.9,1.6-.4,2.3-1.5l-.3-.2h0Z"/>
        <path class="cls-2" d="M67.2,22.9c0-.2.5-.8,1-.8.9,0,.9,1.3.9,2.3s0,2.1-1,2.1-.9-.7-.9-.7v-2.8h0ZM68.1,29.1c-.5,0-.9-.1-.9-1.1v-1.7c.4.4.7.7,1.4.7,1.2,0,2.2-1.1,2.2-3s-1.2-2.7-2.1-2.7-1.3.5-1.5.9h0v-.8h-2.2v.3c.5,0,.6.2.6.7v5.9c0,.5-.1.6-.7.7v.3h3.2v-.2h0Z"/>
        <path class="cls-1" d="M74.6,26.7c-.7,0-.9-.2-.9-.9v-2.2c0-.9.5-1.1.7-1.1.4,0,.4.7,1,.7s.7-.5.7-.8-.2-.9-1-.9-1.3.7-1.5,1.1h0v-.9h-2.2v.3c.4,0,.6.1.6.7v3.4c0,.6-.3.6-.6.7v.3h3.1v-.3h0Z"/>
        <path class="cls-2" d="M78,24.3c0-1.3,0-2.5.9-2.5s.9.7.9,2.5,0,2.5-.9,2.5-.9-1.2-.9-2.5h0ZM76.3,24.3c0,1.5,1,2.8,2.6,2.8s2.6-1.3,2.6-2.8-1.1-2.9-2.6-2.9-2.6,1.3-2.6,2.9h0Z"/>
        <path class="cls-1" d="M91.4,26.7c-.6,0-.6-.4-.6-.7v-2.9c0-1.3-.9-1.7-1.6-1.7s-1.2.3-1.7,1c-.2-.4-.5-1-1.5-1s-1.5.7-1.7,1h0v-.8h-2.2v.3c.3,0,.6,0,.6.7v3.4c0,.6-.3.6-.6.7v.3h2.8v-.3c-.5,0-.5-.3-.5-.7v-3.1c0,0,.5-.7,1-.7s.6.6.6,1v2.8c0,.3,0,.6-.6.7v.3h2.7v-.3c-.4,0-.6-.3-.6-.7v-3.1c0,0,.5-.7,1-.7s.6.6.6,1v2.8c0,.3,0,.6-.6.7v.3h2.8v-.3h0Z"/>
        <path class="cls-2" d="M93.6,24.3c0-1.3,0-2.5.9-2.5s.9.7.9,2.5,0,2.5-.9,2.5-.9-1.2-.9-2.5h0ZM91.8,24.3c0,1.5,1,2.8,2.6,2.8s2.6-1.3,2.6-2.8-1.1-2.9-2.6-2.9-2.6,1.3-2.6,2.9h0Z"/>
        <path class="cls-1" d="M100.9,21.6h-1.1v-2h-.3c-.8,1.1-1.3,1.7-1.9,2.2v.3h.6v3.8c0,.2,0,1.2,1.3,1.2s1.5-.8,1.7-1.3h-.3c-.1.1-.3.5-.7.5s-.5-.5-.5-.7v-3.5h1.1v-.5h0Z"/>
        <path class="cls-2" d="M104.2,26.7c-.5,0-.5-.3-.5-.7v-4.4h-2.2v.3c.4,0,.6.2.6.7v3.4c0,.6-.2.6-.6.7v.3h2.8v-.3h0ZM101.9,19.8c0,.5.4.9.9.9s.9-.4.9-.9-.4-.9-.9-.9-.9.4-.9.9h0Z"/>
        <path class="cls-2" d="M106.3,24.3c0-1.3,0-2.5.9-2.5s.9.7.9,2.5,0,2.5-.9,2.5-.9-1.2-.9-2.5h0ZM104.6,24.3c0,1.5,1,2.8,2.6,2.8s2.6-1.3,2.6-2.8-1.1-2.9-2.6-2.9-2.6,1.3-2.6,2.9h0Z"/>
        <path class="cls-1" d="M116.4,26.7c-.6,0-.6-.4-.6-.7v-2.9c0-1.3-.9-1.7-1.6-1.7-1,0-1.5.7-1.7,1h0v-.8h-2.2v.3c.5,0,.6.2.6.7v3.4c0,.6-.2.6-.6.7v.3h2.8v-.3c-.5,0-.6-.4-.6-.7v-3.1c0-.1.5-.7,1-.7s.6.6.6,1v2.8c0,.4-.2.6-.5.7v.3h2.8v-.3h0Z"/>
        <path class="cls-2" d="M121.3,23.7c0-1.6.4-1.9.8-1.9s.6.3.6.6c0,.4,0,1,.1,1.3h-1.6ZM124.1,25.5c-.2.3-.6.8-1.3.8-1.1,0-1.4-1.2-1.4-2.2h3c0-.6-.2-2.7-2.2-2.7s-2.4,1.1-2.4,2.8,1.2,2.9,2.4,2.9,1.6-.4,2.3-1.5l-.3-.2h0ZM123.5,19.8c.3-.2.5-.3.5-.6s-.4-.5-.6-.5-.3,0-.6.3l-1.6,1.8h.7l1.7-1h0Z"/>
        <path class="cls-1" d="M129.4,25.7c-.3.3-.6.7-1.3.7s-1.6-.9-1.6-2.6,0-2,1-2,.5.1.5.5c0,.6,0,1.2.7,1.2s.8,0,.8-.7-1-1.3-1.8-1.3-2.8.7-2.8,3,1,2.7,2.5,2.7,1.7-.5,2.2-1.2l-.2-.2h0Z"/>
        <path class="cls-2" d="M131.7,24.3c0-1.3,0-2.5.9-2.5s.9.7.9,2.5,0,2.5-.9,2.5-.9-1.2-.9-2.5h0ZM130,24.3c0,1.5,1,2.8,2.6,2.8s2.6-1.3,2.6-2.8-1.1-2.9-2.6-2.9-2.6,1.3-2.6,2.9h0Z"/>
        <path class="cls-1" d="M141.8,26.7c-.6,0-.6-.4-.6-.7v-2.9c0-1.3-.9-1.7-1.6-1.7-1,0-1.5.7-1.7,1h0v-.8h-2.2v.3c.5,0,.6.2.6.7v3.4c0,.6-.2.6-.6.7v.3h2.8v-.3c-.5,0-.6-.4-.6-.7v-3.1c0-.1.5-.7,1-.7s.6.6.6,1v2.8c0,.4-.2.6-.6.7v.3h2.8v-.3h0Z"/>
        <path class="cls-2" d="M144,24.3c0-1.3,0-2.5.9-2.5s.9.7.9,2.5,0,2.5-.9,2.5-.9-1.2-.9-2.5h0ZM142.2,24.3c0,1.5,1,2.8,2.6,2.8s2.6-1.3,2.6-2.8-1.1-2.9-2.6-2.9-2.6,1.3-2.6,2.9h0Z"/>
        <path class="cls-1" d="M157.3,26.7c-.6,0-.6-.4-.6-.7v-2.9c0-1.3-.9-1.7-1.6-1.7s-1.2.3-1.7,1c-.2-.4-.5-1-1.5-1s-1.5.7-1.7,1h0v-.8h-2.2v.3c.3,0,.6,0,.6.7v3.4c0,.6-.3.6-.6.7v.3h2.8v-.3c-.5,0-.5-.3-.5-.7v-3.1c0,0,.5-.7,1-.7s.6.6.6,1v2.8c0,.3,0,.6-.6.7v.3h2.7v-.3c-.4,0-.6-.3-.6-.7v-3.1c0,0,.5-.7,1-.7s.6.6.6,1v2.8c0,.3,0,.6-.6.7v.3h2.8v-.3h0Z"/>
        <path class="cls-2" d="M160.4,26.7c-.5,0-.6-.3-.6-.7v-4.4h-2.2v.3c.4,0,.6.2.6.7v3.4c0,.6-.2.6-.6.7v.3h2.8v-.3h0ZM158.2,19.8c0,.5.4.9.9.9s.9-.4.9-.9-.4-.9-.9-.9-.9.4-.9.9h0Z"/>
        <path class="cls-2" d="M164.6,25.8s-.2.7-.8.7-1.1-.8-1.1-2.3.1-2.4,1.1-2.4.8.5.8.9v3.1h0ZM166.9,29.1c-.4,0-.6-.1-.6-.7v-7h-.2l-.9.7c-.4-.4-.9-.7-1.5-.7-1.8,0-2.7,1.5-2.7,2.8,0,2,1,2.9,2.2,2.9s.9-.1,1.4-.7v1.6c0,.8-.2.9-.9,1v.3h3.1v-.3h0Z"/>
        <path class="cls-2" d="M173.4,26.5c-.5,0-.7-.2-.7-.7v-4.2h-2.4v.3c.4,0,.7,0,.7.7v3.3c-.2.2-.5.5-1,.5-.6,0-.7-.5-.7-.8v-4h-2.2v.3c.5,0,.6.2.6.7v3c0,.8.4,1.6,1.6,1.6s1.3-.5,1.7-.8v.8c.7-.2.8-.2,2.3-.4v-.3h0Z"/>
        <path class="cls-2" d="M175.5,23.7c0-1.6.4-1.9.8-1.9s.6.3.6.6c0,.4,0,1,.1,1.3h-1.6ZM178.2,25.5c-.2.3-.6.8-1.3.8-1.1,0-1.4-1.2-1.4-2.2h3c0-.6-.2-2.7-2.2-2.7s-2.4,1.1-2.4,2.8,1.2,2.9,2.4,2.9,1.6-.4,2.3-1.5l-.3-.2h0Z"/>
        <path class="cls-2" d="M72.7,14.9c-.6,0-.8-.4-1.3-1.6l-2.6-6.2h-.3l-2.6,6.4c-.4.9-.5,1.3-1.1,1.4v.3h2.4v-.3c-.4,0-1,0-1-.5s.2-.7.5-1.5h2.6c.2.4.5,1.2.5,1.6s-.2.4-.9.5v.3h3.8v-.3h0ZM66.9,12.4l1.1-2.8,1.2,2.8h-2.3Z"/>
        <path class="cls-2" d="M78.7,10.5v-.6h-1.5c-.5-.2-.9-.3-1.3-.3-1.6,0-2.4.9-2.4,1.9s.6,1.5,1.4,1.8h0c-.5.2-1.4.6-1.4,1.4s.4.8.9,1h0c-.7,0-1.1.4-1.1.9s.9,1.1,2.3,1.1,3-.3,3-1.8-1.3-1.4-1.9-1.4h-.8c-.9,0-1.2,0-1.2-.4s.4-.6.7-.6q1.1,0,1.5-.1c.8-.3,1.2-.9,1.2-1.6s-.4-1-.5-1.2h.9ZM76.9,15.8c.6,0,.9.2.9.6,0,.8-1.5.8-1.9.8s-1.4,0-1.4-.8.1-.4.4-.7h2ZM75.1,11.5c0-.7,0-1.5.8-1.5s.8,1,.8,1.5,0,1.5-.8,1.5-.8-.7-.8-1.5h0Z"/>
        <path class="cls-2" d="M80.8,11.9c0-1.6.4-1.9.8-1.9s.6.3.6.6c0,.4,0,1,.1,1.3h-1.6ZM83.6,13.7c-.2.3-.6.8-1.3.8-1.1,0-1.4-1.2-1.4-2.2h3c0-.6-.2-2.7-2.2-2.7s-2.4,1.1-2.4,2.8,1.2,2.9,2.4,2.9,1.6-.4,2.3-1.5l-.3-.2h0Z"/>
        <path class="cls-1" d="M90.3,14.9c-.6,0-.6-.4-.6-.7v-2.9c0-1.3-.9-1.7-1.6-1.7-1,0-1.5.7-1.7,1h0v-.8h-2.2v.3c.5,0,.6.2.6.7v3.4c0,.6-.2.6-.6.7v.3h2.8v-.3c-.5,0-.6-.4-.6-.7v-3.1c0-.1.5-.7,1-.7s.6.6.6,1v2.8c0,.4-.2.6-.6.7v.3h2.8v-.3h0Z"/>
        <path class="cls-1" d="M95.3,13.9c-.3.3-.6.7-1.3.7s-1.6-.9-1.6-2.6,0-2,1-2,.5.1.5.5c0,.6,0,1.2.7,1.2s.8,0,.8-.7-1-1.3-1.8-1.3-2.8.7-2.8,3,1,2.7,2.5,2.7,1.7-.5,2.2-1.2l-.2-.2h0Z"/>
        <path class="cls-2" d="M97.5,11.9c0-1.6.4-1.9.8-1.9s.6.3.6.6c0,.4,0,1,.1,1.3h-1.6ZM100.3,13.7c-.2.3-.6.8-1.3.8-1.1,0-1.4-1.2-1.4-2.2h3c0-.6-.2-2.7-2.2-2.7s-2.4,1.1-2.4,2.8,1.2,2.9,2.4,2.9,1.6-.4,2.3-1.5l-.3-.2h0Z"/>
        <path class="cls-2" d="M109.8,14.7c-.7,0-.7-.4-.7-.7v-6.7h-2.5v.3c.6,0,.9,0,.9.7v2.1c-.3-.3-.7-.7-1.4-.7-1.1,0-2.3,1-2.3,3s1.1,2.7,2,2.7,1.2-.3,1.6-.8v.8c.7-.2.8-.2,2.3-.4v-.3h0ZM107.5,13.8c0,.1-.4.8-1,.8-.9,0-.9-1.5-.9-2.2,0-1.1.2-2.2,1-2.2s.9.7.9.7v2.8h0Z"/>
        <path class="cls-2" d="M111.9,11.9c0-1.6.4-1.9.8-1.9s.6.3.6.6c0,.4,0,1,.1,1.3h-1.6ZM114.7,13.7c-.2.3-.6.8-1.3.8-1.1,0-1.4-1.2-1.4-2.2h3c0-.6-.2-2.7-2.2-2.7s-2.4,1.1-2.4,2.8,1.2,2.9,2.4,2.9,1.6-.4,2.3-1.5l-.3-.2h0Z"/>
      </g>
    </g>
  </g>
</svg>