<?xml version="1.0" encoding="UTF-8"?>
<svg xmlns="http://www.w3.org/2000/svg" version="1.1" viewBox="0 0 465.61 63.77">
  <defs>
    <style>
      .cls-1, .cls-2 {
        fill: #231f20;
      }

      .cls-2 {
        fill-rule: evenodd;
      }

      .cls-3 {
        fill: #ef483e;
      }

      .cls-4 {
        fill: #ef3742;
      }

      .cls-5 {
        fill: #0090ba;
      }
    </style>
  </defs>
  <!-- Generator: Adobe Illustrator 28.7.1, SVG Export Plug-In . SVG Version: 1.2.0 Build 142)  -->
  <g>
    <g id="Layer_1">
      <g>
        <path class="cls-5" d="M40.11,34.66l8.19,14.42h-11.6c-1.54,0-1.88-1.54-1.88-1.54l-3.67-15.36h-3.58l-2.82,15.36c-.26,1.45-1.54,1.54-1.54,1.54h-12.54l7.93-14.16,8.96-3.24h3.58l8.96,2.99h0Z"/>
        <polygon class="cls-5" points="29.53 28.51 27.56 28.51 23.3 26.38 29.44 15.63 35.41 26.38 31.15 28.51 29.53 28.51 29.27 28.09 31.49 28.09 29.35 25.87 27.14 28.09 29.27 28.09 29.53 28.51 29.53 28.51"/>
        <path class="cls-3" d="M30.21,15.63l18.94,33.19v-2.3c.09-1.71,1.45-2.56,1.45-2.56l10.41-6.91-1.79-1.62c-1.28-1.28-.34-3.07-.34-3.07l2.9-5.29-6.49.43c-1.88.17-2.39-1.71-2.39-1.71l-.6-1.79-4.86,4.18c-1.71,1.2-1.36-.77-1.36-.77l2.39-10.32-2.56,1.02c-2.22.68-2.82-.77-3.24-1.62-.09-.17-2.73-6.31-2.73-6.31l-3.67,5.55c-1.37,2.05-2.22,1.79-3.24,1.28-.68-.26-2.82-1.36-2.82-1.36h0Z"/>
        <polygon class="cls-5" points="22.61 27.66 21.93 28.77 27.14 29.37 27.31 29.03 22.61 27.66 22.61 27.66"/>
        <polygon class="cls-5" points="21.25 29.96 27.14 29.96 27.14 30.31 20.48 31.24 21.25 29.96 21.25 29.96"/>
        <polygon class="cls-5" points="19.88 32.35 19.2 33.46 27.31 31.24 27.22 30.9 19.88 32.35 19.88 32.35"/>
        <polygon class="cls-5" points="36.09 27.66 36.78 28.77 31.57 29.37 31.4 29.03 36.09 27.66 36.09 27.66"/>
        <polygon class="cls-5" points="37.46 29.96 31.57 29.96 31.57 30.31 38.23 31.24 37.46 29.96 37.46 29.96"/>
        <polygon class="cls-5" points="38.83 32.35 39.51 33.46 31.4 31.24 31.49 30.9 38.83 32.35 38.83 32.35"/>
        <path class="cls-2" d="M213.63,48.75c-.56.02-.75-.37-1.28-1.63l-2.61-6.16h-.33l-2.6,6.42c-.35.88-.52,1.28-1.15,1.37v.29h2.38v-.29c-.4-.02-.96-.06-.96-.5,0-.19.19-.67.52-1.51h2.63c.16.38.54,1.24.54,1.56,0,.39-.21.4-.94.46v.29h3.79v-.29h0ZM207.77,46.28l1.1-2.84,1.18,2.84h-2.28Z"/>
        <path class="cls-2" d="M219.62,44.38v-.62h-1.52c-.47-.19-.87-.26-1.29-.26-1.6,0-2.4.92-2.4,1.86,0,.84.56,1.47,1.43,1.79v.02c-.5.14-1.37.6-1.37,1.34,0,.61.39.78.91.97v.02c-.66.06-1.08.41-1.08.88,0,.66.87,1.06,2.32,1.06s3.01-.32,3.01-1.77c0-1.3-1.35-1.42-1.92-1.43h-.76c-.87-.02-1.17-.04-1.17-.43,0-.35.43-.59.66-.59q1.14,0,1.48-.11c.84-.27,1.23-.88,1.23-1.59s-.35-1.04-.47-1.16h.95ZM217.77,49.65c.61,0,.94.18.94.6,0,.83-1.48.83-1.94.83-.2,0-1.43-.02-1.43-.77,0-.26.11-.41.41-.66h2.03ZM216.01,45.4c0-.74.06-1.54.77-1.54.77,0,.77,1.01.77,1.54,0,.67-.04,1.51-.77,1.51-.69,0-.77-.7-.77-1.51h0Z"/>
        <path class="cls-2" d="M221.69,45.74c0-1.62.4-1.88.83-1.88.41,0,.56.29.63.55.09.35.09.96.11,1.32h-1.57ZM224.48,47.58c-.22.27-.63.79-1.32.79-1.11,0-1.37-1.2-1.4-2.19h2.95c-.04-.63-.19-2.67-2.23-2.67-1.35,0-2.41,1.1-2.41,2.83,0,2,1.19,2.87,2.38,2.87.94,0,1.6-.37,2.32-1.46l-.28-.16h0Z"/>
        <path class="cls-1" d="M231.21,48.76c-.57-.02-.57-.39-.57-.67v-2.94c0-1.29-.92-1.65-1.57-1.65-1,0-1.5.7-1.66.98h-.02v-.84h-2.24v.28c.47.07.62.16.62.69v3.44c0,.57-.2.62-.62.7v.28h2.82v-.28c-.54-.06-.57-.4-.57-.67v-3.13c0-.11.5-.68.97-.68.63,0,.64.64.64.97v2.83c0,.43-.16.63-.55.67v.28h2.75v-.28h0Z"/>
        <path class="cls-1" d="M236.18,47.77c-.28.32-.59.66-1.25.66-.91,0-1.63-.95-1.63-2.59,0-.53.08-1.97,1-1.97.18,0,.48.11.48.46,0,.63,0,1.21.65,1.21.09,0,.8,0,.8-.75,0-.84-.98-1.28-1.81-1.28-1.1,0-2.76.71-2.76,3.02,0,1.44,1.01,2.68,2.51,2.68.93,0,1.7-.47,2.24-1.23l-.21-.21h0Z"/>
        <path class="cls-1" d="M242.11,43.65h-1.77v.28c.29.01.64.01.64.39,0,.18-.06.33-.13.53l-.8,2.25-.84-2.17c-.11-.26-.23-.56-.23-.68,0-.28.32-.29.62-.32v-.28h-2.93v.28c.29.05.35.05.49.32.07.14.42.87.68,1.5l1.41,3.45-.21.62c-.08.26-.38.96-.77.96-.14,0-.2-.14-.2-.2,0-.05.04-.11.04-.21,0-.21-.13-.6-.66-.6-.7,0-.77.6-.77.76,0,.37.32.91,1.08.91,1.1,0,1.35-.67,1.93-2.22l1.75-4.65c.22-.59.42-.61.68-.64v-.28h0Z"/>
        <path class="cls-2" d="M210.12,29.53c1.64,0,2.07,2.06,2.07,3.77,0,1.02-.07,3.77-2.07,3.77s-2.07-2.75-2.07-3.77c0-1.71.43-3.77,2.07-3.77h0ZM210.12,29.15c-2.26,0-4.15,1.6-4.15,4.16s1.75,4.16,4.15,4.16,4.14-1.7,4.14-4.16-1.88-4.16-4.14-4.16h0Z"/>
        <path class="cls-2" d="M217.14,33.19c0-.16.46-.82.98-.82.85,0,.91,1.28.91,2.26,0,.65-.04,2.12-1,2.12-.64,0-.9-.71-.9-.71v-2.85h0ZM218.05,39.39c-.55-.02-.91-.13-.91-1.05v-1.65c.4.39.73.7,1.38.7,1.19,0,2.25-1.05,2.25-2.99s-1.16-2.71-2.14-2.71-1.29.53-1.49.91h-.02v-.77h-2.24v.28c.54.07.63.25.63.69v5.87c0,.48-.12.6-.66.68v.28h3.2v-.25h0Z"/>
        <path class="cls-2" d="M223.6,33.19c0-.16.46-.82.98-.82.86,0,.91,1.28.91,2.26,0,.65-.04,2.12-1,2.12-.64,0-.9-.71-.9-.71v-2.85h0ZM224.51,39.39c-.55-.02-.91-.13-.91-1.05v-1.65c.4.39.73.7,1.38.7,1.19,0,2.25-1.05,2.25-2.99s-1.16-2.71-2.14-2.71-1.29.53-1.49.91h-.02v-.77h-2.24v.28c.54.07.63.25.63.69v5.87c0,.48-.12.6-.66.68v.28h3.2v-.25h0Z"/>
        <path class="cls-2" d="M229.56,34.56c0-1.34.06-2.49.92-2.49.71,0,.91.69.91,2.49,0,1.49-.09,2.48-.9,2.48-.94,0-.94-1.22-.94-2.48h0ZM227.84,34.56c0,1.52,1.02,2.84,2.65,2.84s2.63-1.29,2.63-2.84-1.1-2.86-2.63-2.86c-1.63,0-2.65,1.35-2.65,2.86h0Z"/>
        <path class="cls-1" d="M236.79,36.96c-.71-.04-.86-.21-.86-.93v-2.21c0-.85.52-1.11.69-1.11.37,0,.36.69,1.04.69.58,0,.75-.48.75-.78,0-.28-.18-.91-.97-.91s-1.29.7-1.54,1.07h-.02v-.92h-2.21v.28c.35.05.63.11.63.69v3.44c0,.59-.26.63-.63.7v.28h3.12v-.28h0Z"/>
        <path class="cls-1" d="M242.04,31.84h-1.1v-1.98h-.29c-.79,1.14-1.32,1.65-1.94,2.18v.32h.61v3.79c.01.25.06,1.23,1.32,1.23,1.05,0,1.48-.81,1.72-1.31l-.29-.13c-.13.25-.33.61-.67.61-.47,0-.46-.48-.46-.67v-3.52h1.1v-.51h0Z"/>
        <path class="cls-2" d="M248.58,36.73c-.53-.01-.65-.22-.65-.68v-4.21h-2.35v.28c.4.03.72.05.72.69v3.31c-.22.22-.51.52-.96.52-.64,0-.66-.5-.66-.83v-3.97h-2.2v.28c.48.08.57.22.57.69v2.95c0,.83.4,1.64,1.59,1.64.79,0,1.32-.48,1.66-.77v.76c.67-.22.83-.23,2.27-.39v-.27h0Z"/>
        <path class="cls-1" d="M255.06,36.96c-.57-.02-.57-.39-.57-.67v-2.94c0-1.29-.92-1.65-1.57-1.65-1,0-1.5.7-1.66.98h-.02v-.84h-2.24v.28c.47.07.62.16.62.69v3.44c0,.57-.2.62-.62.7v.28h2.82v-.28c-.54-.06-.57-.4-.57-.67v-3.13c0-.11.5-.68.97-.68.63,0,.64.64.64.97v2.83c0,.43-.16.63-.55.67v.28h2.75v-.28h0Z"/>
        <path class="cls-2" d="M258.19,36.96c-.46-.05-.55-.3-.55-.67v-4.45h-2.25v.28c.45.08.62.16.62.69v3.44c0,.56-.2.6-.62.7v.28h2.8v-.28h0ZM255.91,30.06c0,.5.37.9.91.9.5,0,.9-.39.9-.9s-.4-.91-.9-.91c-.53,0-.91.42-.91.91h0Z"/>
        <path class="cls-1" d="M261.95,31.84h-1.1v-1.98h-.29c-.8,1.14-1.32,1.65-1.95,2.18v.32h.61v3.79c.01.25.06,1.23,1.32,1.23,1.05,0,1.47-.81,1.72-1.31l-.29-.13c-.13.25-.33.61-.67.61-.47,0-.46-.48-.46-.67v-3.52h1.1v-.51h0Z"/>
        <path class="cls-2" d="M265.18,36.96c-.46-.05-.55-.3-.55-.67v-4.45h-2.25v.28c.45.08.62.16.62.69v3.44c0,.56-.2.6-.62.7v.28h2.8v-.28h0ZM262.9,30.06c0,.5.37.9.91.9.5,0,.9-.39.9-.9s-.4-.91-.9-.91-.91.42-.91.91h0Z"/>
        <path class="cls-2" d="M267.29,33.94c0-1.62.4-1.87.83-1.87.41,0,.56.29.63.55.09.35.09.96.11,1.32h-1.57ZM270.07,35.77c-.22.27-.63.79-1.32.79-1.11,0-1.37-1.19-1.4-2.19h2.95c-.04-.63-.19-2.67-2.22-2.67-1.35,0-2.41,1.1-2.41,2.83,0,2,1.2,2.87,2.38,2.87.94,0,1.61-.37,2.32-1.46l-.28-.16h0Z"/>
        <path class="cls-1" d="M274.48,33.42v-1.7h-.26c-.04.09-.08.23-.29.23-.22,0-.7-.26-1.25-.26-1.08,0-1.86.69-1.86,1.72,0,1.8,2.79,1.73,2.79,2.81,0,.35-.25.77-.83.77-1.3,0-1.58-1.23-1.65-1.55h-.33v1.93h.29c.12-.23.19-.33.32-.33.11,0,.9.34,1.49.34,1.09,0,1.84-.69,1.84-1.8,0-1.92-2.74-1.65-2.74-2.84,0-.36.33-.67.75-.67.67,0,1.21.5,1.45,1.33h.29Z"/>
        <path class="cls-2" d="M213.63,25.14c-.56.02-.75-.38-1.28-1.63l-2.61-6.16h-.33l-2.6,6.42c-.35.88-.52,1.28-1.15,1.37v.29h2.38v-.29c-.4-.02-.96-.06-.96-.5,0-.19.19-.67.52-1.51h2.63c.16.38.54,1.24.54,1.56,0,.39-.21.4-.94.46v.29h3.79v-.29h0ZM207.77,22.67l1.1-2.85,1.18,2.85h-2.28Z"/>
        <path class="cls-1" d="M217.55,20.03h-1.1v-1.98h-.29c-.8,1.14-1.32,1.65-1.94,2.18v.32h.61v3.79c.01.25.06,1.23,1.32,1.23,1.05,0,1.48-.81,1.72-1.31l-.29-.13c-.13.25-.33.61-.67.61-.47,0-.46-.48-.46-.67v-3.52h1.1v-.52h0Z"/>
        <path class="cls-1" d="M220.78,25.15c-.46,0-.57-.36-.57-.7v-6.93h-2.22v.28c.57,0,.6.55.6.68v5.97c0,.28-.13.7-.6.7v.28h2.8v-.28h0Z"/>
        <path class="cls-2" d="M226.5,24.68l-.12.12s-.07.05-.12.05c-.26,0-.26-.22-.26-.29v-3.06c0-1.1-1.04-1.6-2.34-1.6-1.45,0-2.19.71-2.19,1.45,0,.8.63.8.77.8.61,0,.78-.44.78-.66,0-.46-.35-.55-.35-.8,0-.19.27-.42.69-.42.87,0,1.03.43,1.03,1.03v.86c-1.66.5-3.15.97-3.15,2.19,0,.89.73,1.25,1.29,1.25.28,0,1.1-.06,1.86-.82.07.33.16.82.98.82.53,0,.96-.28,1.29-.67l-.18-.25h0ZM224.4,24.26c-.16.19-.43.5-.83.5-.42,0-.6-.42-.6-.78,0-1.02,1.16-1.36,1.43-1.42v1.7h0Z"/>
        <path class="cls-1" d="M233.07,25.15c-.57-.02-.57-.39-.57-.67v-2.94c0-1.29-.92-1.65-1.57-1.65-1,0-1.5.7-1.66.98h-.02v-.84h-2.24v.28c.47.07.62.16.62.69v3.44c0,.57-.2.62-.62.7v.28h2.82v-.28c-.54-.06-.57-.4-.57-.67v-3.13c0-.1.5-.68.97-.68.63,0,.64.64.64.97v2.83c0,.43-.16.63-.55.67v.28h2.75v-.28h0Z"/>
        <path class="cls-1" d="M236.78,20.03h-1.1v-1.98h-.29c-.79,1.14-1.32,1.65-1.94,2.18v.32h.61v3.79c.01.25.06,1.23,1.32,1.23,1.05,0,1.48-.81,1.72-1.31l-.29-.13c-.13.25-.33.61-.67.61-.47,0-.46-.48-.46-.67v-3.52h1.1v-.52h0Z"/>
        <path class="cls-2" d="M240.02,25.15c-.46-.05-.55-.3-.55-.67v-4.45h-2.25v.28c.45.08.62.16.62.69v3.44c0,.56-.2.6-.62.7v.28h2.8v-.28h0ZM237.74,18.25c0,.5.37.9.91.9.5,0,.9-.39.9-.9s-.4-.91-.9-.91c-.53,0-.91.42-.91.91h0Z"/>
        <path class="cls-1" d="M245.03,24.16c-.28.32-.59.66-1.25.66-.91,0-1.63-.95-1.63-2.59,0-.53.08-1.97,1-1.97.18,0,.48.11.48.46,0,.63,0,1.21.66,1.21.09,0,.8,0,.8-.75,0-.84-.98-1.28-1.81-1.28-1.1,0-2.76.71-2.76,3.02,0,1.44,1.01,2.68,2.51,2.68.92,0,1.7-.47,2.24-1.23l-.21-.21h0Z"/>
        <path class="cls-1" d="M255.86,23.65c-.97,1.09-1.85,1.44-2.76,1.44-.36,0-1.29-.18-1.78-1.02-.43-.75-.5-1.87-.5-2.58,0-1.98.46-3.77,2.17-3.77,1.33,0,2.32,1.37,2.73,2.39h.29v-2.74h-.31c-.12.29-.22.54-.54.54s-1.21-.57-2.26-.57c-2.46,0-4.15,1.83-4.15,4.2,0,2.19,1.48,4.11,4.2,4.11,1.5,0,2.41-.74,3.27-1.71l-.35-.29h0Z"/>
        <path class="cls-2" d="M262.12,24.68l-.12.12s-.07.05-.12.05c-.26,0-.26-.22-.26-.29v-3.06c0-1.1-1.04-1.6-2.34-1.6-1.45,0-2.19.71-2.19,1.45,0,.8.63.8.77.8.61,0,.78-.44.78-.66,0-.46-.35-.55-.35-.8,0-.19.27-.42.69-.42.87,0,1.03.43,1.03,1.03v.86c-1.66.5-3.15.97-3.15,2.19,0,.89.73,1.25,1.29,1.25.28,0,1.1-.06,1.86-.82.07.33.16.82.98.82.53,0,.96-.28,1.29-.67l-.18-.25h0ZM260.02,24.26c-.16.19-.43.5-.83.5-.42,0-.6-.42-.6-.78,0-1.02,1.16-1.36,1.43-1.42v1.7h0Z"/>
        <path class="cls-1" d="M268.69,25.15c-.57-.02-.57-.39-.57-.67v-2.94c0-1.29-.92-1.65-1.57-1.65-1,0-1.5.7-1.66.98h-.02v-.84h-2.24v.28c.47.07.62.16.62.69v3.44c0,.57-.2.62-.62.7v.28h2.82v-.28c-.54-.06-.57-.4-.57-.67v-3.13c0-.1.5-.68.97-.68.63,0,.64.64.64.97v2.83c0,.43-.16.63-.55.67v.28h2.75v-.28h0Z"/>
        <path class="cls-2" d="M274.37,24.68l-.12.12s-.07.05-.12.05c-.26,0-.26-.22-.26-.29v-3.06c0-1.1-1.04-1.6-2.34-1.6-1.45,0-2.19.71-2.19,1.45,0,.8.63.8.77.8.61,0,.79-.44.79-.66,0-.46-.35-.55-.35-.8,0-.19.27-.42.69-.42.87,0,1.03.43,1.03,1.03v.86c-1.66.5-3.15.97-3.15,2.19,0,.89.72,1.25,1.29,1.25.28,0,1.1-.06,1.86-.82.07.33.16.82.98.82.53,0,.96-.28,1.29-.67l-.18-.25h0ZM272.26,24.26c-.16.19-.43.5-.83.5-.42,0-.6-.42-.6-.78,0-1.02,1.16-1.36,1.43-1.42v1.7h0Z"/>
        <path class="cls-2" d="M280.88,24.93c-.67-.02-.69-.36-.69-.68v-6.73h-2.52v.28c.64.05.89.06.89.68v2.14c-.28-.3-.68-.73-1.38-.73-1.1,0-2.26.97-2.26,3.01,0,1.71,1.08,2.69,2.05,2.69.88,0,1.21-.33,1.63-.77v.76c.72-.2.83-.21,2.28-.39v-.27h0ZM278.56,24.12c0,.13-.43.82-.97.82-.94,0-.94-1.52-.94-2.2,0-1.14.16-2.19,1-2.19.66,0,.91.71.91.73v2.85h0Z"/>
        <path class="cls-2" d="M286.62,24.68l-.12.12s-.07.05-.12.05c-.26,0-.26-.22-.26-.29v-3.06c0-1.1-1.04-1.6-2.34-1.6-1.45,0-2.19.71-2.19,1.45,0,.8.63.8.77.8.61,0,.78-.44.78-.66,0-.46-.35-.55-.35-.8,0-.19.27-.42.69-.42.87,0,1.03.43,1.03,1.03v.86c-1.66.5-3.15.97-3.15,2.19,0,.89.73,1.25,1.29,1.25.28,0,1.1-.06,1.86-.82.07.33.16.82.98.82.53,0,.96-.28,1.29-.67l-.18-.25h0ZM284.51,24.26c-.16.19-.43.5-.83.5-.42,0-.6-.42-.6-.78,0-1.02,1.16-1.36,1.43-1.42v1.7h0Z"/>
        <path class="cls-2" d="M81.58,48.44c-.67-.02-.69-.36-.69-.68v-6.73h-2.52v.28c.64.05.89.06.89.68v2.14c-.28-.3-.68-.73-1.38-.73-1.1,0-2.26.97-2.26,3.01,0,1.71,1.08,2.69,2.05,2.69.88,0,1.21-.33,1.63-.77v.76c.73-.2.83-.21,2.28-.39v-.27h0ZM79.26,47.63c0,.13-.43.82-.97.82-.94,0-.94-1.52-.94-2.2,0-1.14.16-2.19,1-2.19.66,0,.91.71.91.73v2.84h0Z"/>
        <path class="cls-2" d="M88.07,48.44c-.53-.01-.66-.22-.66-.68v-4.21h-2.35v.28c.4.04.73.05.73.69v3.31c-.22.22-.52.52-.96.52-.64,0-.66-.5-.66-.83v-3.97h-2.2v.28c.48.08.57.22.57.69v2.95c0,.83.4,1.64,1.59,1.64.79,0,1.32-.48,1.66-.77v.76c.67-.22.83-.23,2.27-.39v-.27h0Z"/>
        <path class="cls-1" d="M98.77,47.16c-.97,1.09-1.85,1.44-2.76,1.44-.36,0-1.29-.18-1.78-1.02-.43-.75-.5-1.87-.5-2.58,0-1.98.46-3.77,2.17-3.77,1.33,0,2.32,1.37,2.73,2.39h.29v-2.74h-.32c-.12.29-.22.54-.54.54s-1.21-.57-2.26-.57c-2.46,0-4.15,1.83-4.15,4.2,0,2.19,1.48,4.11,4.2,4.11,1.5,0,2.41-.74,3.27-1.71l-.35-.29h0Z"/>
        <path class="cls-2" d="M105.04,48.19l-.12.12s-.07.05-.12.05c-.26,0-.26-.22-.26-.29v-3.06c0-1.1-1.04-1.6-2.34-1.6-1.45,0-2.19.71-2.19,1.45,0,.8.63.8.77.8.61,0,.78-.45.78-.66,0-.46-.35-.55-.35-.8,0-.19.27-.42.69-.42.87,0,1.03.43,1.03,1.03v.86c-1.66.5-3.15.97-3.15,2.19,0,.89.73,1.25,1.29,1.25.28,0,1.1-.06,1.86-.82.07.33.16.82.98.82.53,0,.96-.28,1.29-.67l-.18-.25h0ZM102.93,47.77c-.16.19-.43.5-.83.5-.42,0-.6-.42-.6-.79,0-1.02,1.16-1.36,1.43-1.42v1.7h0Z"/>
        <path class="cls-1" d="M111.6,48.66c-.57-.02-.57-.39-.57-.67v-2.94c0-1.29-.93-1.65-1.57-1.65-1,0-1.5.7-1.66.98h-.02v-.84h-2.24v.28c.47.07.62.16.62.69v3.44c0,.57-.2.62-.62.7v.28h2.82v-.28c-.54-.06-.57-.4-.57-.67v-3.13c0-.11.5-.68.97-.68.63,0,.64.64.64.97v2.83c0,.43-.16.63-.55.67v.28h2.75v-.28h0Z"/>
        <path class="cls-2" d="M117.29,48.19l-.12.12s-.07.05-.12.05c-.26,0-.26-.22-.26-.29v-3.06c0-1.1-1.04-1.6-2.34-1.6-1.45,0-2.19.71-2.19,1.45,0,.8.63.8.77.8.61,0,.79-.45.79-.66,0-.46-.35-.55-.35-.8,0-.19.27-.42.69-.42.87,0,1.03.43,1.03,1.03v.86c-1.66.5-3.15.97-3.15,2.19,0,.89.73,1.25,1.29,1.25.28,0,1.1-.06,1.86-.82.07.33.16.82.98.82.53,0,.96-.28,1.29-.67l-.18-.25h0ZM115.18,47.77c-.16.19-.43.5-.83.5-.42,0-.6-.42-.6-.79,0-1.02,1.16-1.36,1.43-1.42v1.7h0Z"/>
        <path class="cls-2" d="M123.79,48.44c-.67-.02-.69-.36-.69-.68v-6.73h-2.52v.28c.64.05.89.06.89.68v2.14c-.28-.3-.68-.73-1.38-.73-1.1,0-2.26.97-2.26,3.01,0,1.71,1.08,2.69,2.05,2.69.88,0,1.21-.33,1.63-.77v.76c.73-.2.83-.21,2.28-.39v-.27h0ZM121.47,47.63c0,.13-.43.82-.97.82-.94,0-.94-1.52-.94-2.2,0-1.14.16-2.19,1-2.19.66,0,.91.71.91.73v2.84h0Z"/>
        <path class="cls-2" d="M129.53,48.19l-.12.12s-.07.05-.12.05c-.26,0-.26-.22-.26-.29v-3.06c0-1.1-1.04-1.6-2.34-1.6-1.45,0-2.19.71-2.19,1.45,0,.8.63.8.77.8.61,0,.78-.45.78-.66,0-.46-.35-.55-.35-.8,0-.19.27-.42.69-.42.87,0,1.03.43,1.03,1.03v.86c-1.66.5-3.15.97-3.15,2.19,0,.89.73,1.25,1.29,1.25.28,0,1.1-.06,1.86-.82.07.33.16.82.98.82.53,0,.96-.28,1.29-.67l-.18-.25h0ZM127.43,47.77c-.16.19-.43.5-.83.5-.42,0-.6-.42-.6-.79,0-1.02,1.16-1.36,1.43-1.42v1.7h0Z"/>
        <path class="cls-2" d="M138.17,48.19l-.12.12s-.07.05-.12.05c-.26,0-.26-.22-.26-.29v-3.06c0-1.1-1.04-1.6-2.34-1.6-1.45,0-2.19.71-2.19,1.45,0,.8.63.8.77.8.61,0,.78-.45.78-.66,0-.46-.35-.55-.35-.8,0-.19.27-.42.69-.42.87,0,1.03.43,1.03,1.03v.86c-1.66.5-3.15.97-3.15,2.19,0,.89.73,1.25,1.29,1.25.28,0,1.1-.06,1.86-.82.07.33.16.82.98.82.53,0,.96-.28,1.29-.67l-.18-.25h0ZM136.06,47.77c-.16.19-.43.5-.83.5-.42,0-.6-.42-.6-.79,0-1.02,1.16-1.36,1.43-1.42v1.7h0Z"/>
        <path class="cls-1" d="M142,43.54h-1.1v-1.98h-.29c-.8,1.13-1.32,1.65-1.94,2.18v.32h.61v3.79c.01.25.06,1.23,1.32,1.23,1.05,0,1.48-.81,1.72-1.31l-.29-.13c-.13.25-.33.61-.67.61-.47,0-.46-.48-.46-.67v-3.52h1.1v-.51h0Z"/>
        <path class="cls-1" d="M145.23,48.66c-.46,0-.57-.36-.57-.7v-6.93h-2.22v.28c.57,0,.6.55.6.68v5.97c0,.28-.13.7-.6.7v.28h2.8v-.28h0Z"/>
        <path class="cls-2" d="M150.96,48.19l-.12.12s-.07.05-.12.05c-.26,0-.26-.22-.26-.29v-3.06c0-1.1-1.04-1.6-2.34-1.6-1.45,0-2.19.71-2.19,1.45,0,.8.63.8.77.8.61,0,.78-.45.78-.66,0-.46-.35-.55-.35-.8,0-.19.27-.42.69-.42.87,0,1.03.43,1.03,1.03v.86c-1.66.5-3.15.97-3.15,2.19,0,.89.73,1.25,1.29,1.25.28,0,1.1-.06,1.86-.82.07.33.16.82.98.82.53,0,.96-.28,1.29-.67l-.18-.25h0ZM148.85,47.77c-.16.19-.43.5-.83.5-.42,0-.6-.42-.6-.79,0-1.02,1.16-1.36,1.43-1.42v1.7h0Z"/>
        <path class="cls-1" d="M157.52,48.66c-.57-.02-.57-.39-.57-.67v-2.94c0-1.29-.92-1.65-1.57-1.65-1,0-1.5.7-1.66.98h-.02v-.84h-2.24v.28c.47.07.62.16.62.69v3.44c0,.57-.2.62-.62.7v.28h2.82v-.28c-.54-.06-.57-.4-.57-.67v-3.13c0-.11.5-.68.97-.68.63,0,.64.64.64.97v2.83c0,.43-.16.63-.55.67v.28h2.75v-.28h0Z"/>
        <path class="cls-1" d="M161.24,43.54h-1.1v-1.98h-.29c-.8,1.13-1.32,1.65-1.94,2.18v.32h.61v3.79c.01.25.06,1.23,1.32,1.23,1.05,0,1.48-.81,1.72-1.31l-.29-.13c-.13.25-.33.61-.67.61-.47,0-.46-.48-.46-.67v-3.52h1.1v-.51h0Z"/>
        <path class="cls-2" d="M164.47,48.66c-.46-.05-.55-.3-.55-.67v-4.45h-2.25v.28c.44.08.62.16.62.69v3.44c0,.56-.2.6-.62.7v.28h2.8v-.28h0ZM162.19,41.76c0,.5.37.9.91.9.5,0,.9-.39.9-.9s-.4-.91-.9-.91-.91.42-.91.91h0Z"/>
        <path class="cls-2" d="M168.66,47.79s-.18.68-.8.68c-.77,0-1.1-.8-1.1-2.32,0-.97.14-2.38,1.11-2.38.54,0,.79.47.79.94v3.08h0ZM170.93,51.06c-.42-.08-.64-.12-.64-.68v-6.97h-.17l-.91.66c-.42-.37-.88-.67-1.49-.67-1.76,0-2.66,1.46-2.66,2.85,0,2,1.04,2.86,2.21,2.86.34,0,.91-.13,1.39-.66v1.63c0,.82-.21.86-.85.97v.29h3.13v-.28h0Z"/>
        <path class="cls-2" d="M177.4,48.44c-.53-.01-.66-.22-.66-.68v-4.21h-2.35v.28c.4.04.73.05.73.69v3.31c-.22.22-.52.52-.96.52-.64,0-.66-.5-.66-.83v-3.97h-2.2v.28c.48.08.57.22.57.69v2.95c0,.83.4,1.64,1.59,1.64.79,0,1.32-.48,1.66-.77v.76c.67-.22.83-.23,2.27-.39v-.27h0Z"/>
        <path class="cls-2" d="M179.49,45.64c0-1.62.4-1.87.83-1.87.41,0,.56.29.63.55.09.35.09.96.11,1.32h-1.57ZM182.28,47.48c-.22.27-.63.79-1.32.79-1.11,0-1.37-1.2-1.41-2.19h2.95c-.04-.63-.19-2.67-2.23-2.67-1.35,0-2.41,1.1-2.41,2.83,0,2,1.19,2.87,2.38,2.87.94,0,1.6-.38,2.32-1.46l-.28-.16h0Z"/>
        <path class="cls-2" d="M77.83,33.08c0-.16.46-.82.98-.82.85,0,.91,1.28.91,2.26,0,.66-.04,2.12-1,2.12-.64,0-.9-.71-.9-.71v-2.85h0ZM78.75,39.29c-.55-.02-.91-.13-.91-1.05v-1.65c.4.39.73.7,1.38.7,1.19,0,2.25-1.05,2.25-2.99s-1.16-2.7-2.14-2.7-1.29.53-1.49.91h-.02v-.77h-2.24v.28c.54.07.63.25.63.69v5.87c0,.48-.12.6-.66.68v.28h3.2v-.25h0Z"/>
        <path class="cls-1" d="M85.24,36.85c-.71-.04-.85-.21-.85-.92v-2.21c0-.85.52-1.11.69-1.11.38,0,.36.69,1.04.69.59,0,.75-.48.75-.78,0-.28-.18-.91-.97-.91s-1.29.7-1.53,1.07h-.02v-.93h-2.21v.28c.35.05.63.11.63.69v3.44c0,.59-.26.63-.63.7v.28h3.11v-.28h0Z"/>
        <path class="cls-2" d="M88.71,34.45c0-1.34.06-2.49.92-2.49.71,0,.91.69.91,2.49,0,1.49-.09,2.48-.9,2.48-.94,0-.94-1.22-.94-2.48h0ZM86.99,34.45c0,1.52,1.02,2.85,2.65,2.85s2.63-1.29,2.63-2.85-1.1-2.86-2.63-2.86c-1.63,0-2.65,1.35-2.65,2.86h0Z"/>
        <path class="cls-1" d="M102.03,36.85c-.59-.01-.59-.38-.59-.67v-2.94c0-1.29-.92-1.65-1.57-1.65-.68,0-1.21.33-1.73,1.02-.18-.38-.47-1.02-1.53-1.02-.98,0-1.5.7-1.66.98h-.02v-.84h-2.24v.28c.34.05.64.08.64.69v3.44c0,.57-.26.63-.64.7v.28h2.81v-.28c-.46-.05-.54-.3-.54-.67v-3.12c0-.09.47-.68.97-.68.64,0,.64.6.64.97v2.83c0,.27,0,.63-.56.67v.28h2.74v-.28c-.45-.04-.55-.29-.55-.67v-3.12c0-.09.49-.68.98-.68.63,0,.63.61.63.97v2.83c0,.28,0,.64-.57.67v.28h2.79v-.28h0Z"/>
        <path class="cls-2" d="M104.23,34.45c0-1.34.06-2.49.92-2.49.71,0,.91.69.91,2.49,0,1.49-.09,2.48-.9,2.48-.94,0-.94-1.22-.94-2.48h0ZM102.51,34.45c0,1.52,1.02,2.85,2.65,2.85s2.63-1.29,2.63-2.85-1.1-2.86-2.63-2.86c-1.63,0-2.65,1.35-2.65,2.86h0Z"/>
        <path class="cls-1" d="M111.58,31.74h-1.1v-1.98h-.29c-.8,1.14-1.32,1.65-1.94,2.18v.32h.61v3.79c.01.25.06,1.23,1.32,1.23,1.05,0,1.47-.81,1.72-1.31l-.29-.13c-.13.25-.33.61-.67.61-.47,0-.46-.48-.46-.67v-3.52h1.1v-.52h0Z"/>
        <path class="cls-2" d="M114.82,36.85c-.46-.05-.55-.3-.55-.67v-4.45h-2.25v.28c.44.08.62.16.62.69v3.44c0,.56-.2.6-.62.7v.28h2.8v-.28h0ZM112.54,29.96c0,.5.37.9.91.9.5,0,.9-.39.9-.9s-.4-.91-.9-.91-.91.42-.91.91h0Z"/>
        <path class="cls-2" d="M117.02,34.45c0-1.34.06-2.49.93-2.49.71,0,.91.69.91,2.49,0,1.49-.09,2.48-.9,2.48-.94,0-.94-1.22-.94-2.48h0ZM115.3,34.45c0,1.52,1.02,2.85,2.65,2.85s2.63-1.29,2.63-2.85-1.1-2.86-2.63-2.86c-1.63,0-2.65,1.35-2.65,2.86h0Z"/>
        <path class="cls-1" d="M127.11,36.85c-.57-.02-.57-.39-.57-.67v-2.94c0-1.29-.92-1.65-1.57-1.65-1,0-1.5.7-1.66.98h-.02v-.84h-2.24v.28c.47.07.62.16.62.69v3.44c0,.57-.2.62-.62.7v.28h2.82v-.28c-.54-.06-.57-.4-.57-.67v-3.12c0-.11.5-.68.97-.68.63,0,.64.64.64.97v2.83c0,.43-.16.63-.55.67v.28h2.75v-.28h0Z"/>
        <path class="cls-2" d="M132.02,33.83c0-1.62.4-1.87.83-1.87.41,0,.56.29.63.55.09.35.09.96.11,1.32h-1.57ZM134.8,35.67c-.22.27-.63.78-1.32.78-1.11,0-1.37-1.19-1.41-2.19h2.95c-.04-.63-.19-2.67-2.22-2.67-1.35,0-2.41,1.1-2.41,2.83,0,2,1.2,2.87,2.38,2.87.94,0,1.6-.38,2.32-1.46l-.28-.16h0ZM134.15,29.92c.28-.18.47-.29.47-.62,0-.42-.36-.52-.57-.52-.12,0-.34.02-.61.33l-1.6,1.84h.66l1.66-1.03h0Z"/>
        <path class="cls-1" d="M140.05,35.86c-.28.32-.58.66-1.25.66-.91,0-1.63-.95-1.63-2.59,0-.53.08-1.97,1-1.97.18,0,.48.11.48.46,0,.63,0,1.21.66,1.21.09,0,.8,0,.8-.75,0-.84-.98-1.28-1.81-1.28-1.1,0-2.76.71-2.76,3.02,0,1.44,1.01,2.68,2.51,2.68.92,0,1.7-.47,2.24-1.23l-.21-.21h0Z"/>
        <path class="cls-2" d="M142.37,34.45c0-1.34.06-2.49.93-2.49.71,0,.91.69.91,2.49,0,1.49-.09,2.48-.9,2.48-.94,0-.94-1.22-.94-2.48h0ZM140.65,34.45c0,1.52,1.02,2.85,2.65,2.85s2.63-1.29,2.63-2.85-1.1-2.86-2.63-2.86c-1.63,0-2.65,1.35-2.65,2.86h0Z"/>
        <path class="cls-1" d="M152.46,36.85c-.57-.02-.57-.39-.57-.67v-2.94c0-1.29-.93-1.65-1.57-1.65-1,0-1.5.7-1.66.98h-.02v-.84h-2.24v.28c.47.07.62.16.62.69v3.44c0,.57-.2.62-.62.7v.28h2.82v-.28c-.54-.06-.57-.4-.57-.67v-3.12c0-.11.5-.68.97-.68.63,0,.64.64.64.97v2.83c0,.43-.16.63-.55.67v.28h2.75v-.28h0Z"/>
        <path class="cls-2" d="M154.62,34.45c0-1.34.06-2.49.92-2.49.71,0,.91.69.91,2.49,0,1.49-.09,2.48-.9,2.48-.94,0-.94-1.22-.94-2.48h0ZM152.9,34.45c0,1.52,1.02,2.85,2.65,2.85s2.63-1.29,2.63-2.85-1.1-2.86-2.63-2.86c-1.63,0-2.65,1.35-2.65,2.86h0Z"/>
        <path class="cls-1" d="M167.93,36.85c-.59-.01-.59-.38-.59-.67v-2.94c0-1.29-.92-1.65-1.57-1.65-.68,0-1.21.33-1.73,1.02-.18-.38-.47-1.02-1.53-1.02-.98,0-1.5.7-1.66.98h-.02v-.84h-2.24v.28c.34.05.64.08.64.69v3.44c0,.57-.26.63-.64.7v.28h2.81v-.28c-.46-.05-.54-.3-.54-.67v-3.12c0-.09.47-.68.97-.68.64,0,.64.6.64.97v2.83c0,.27,0,.63-.56.67v.28h2.74v-.28c-.45-.04-.55-.29-.55-.67v-3.12c0-.09.49-.68.98-.68.63,0,.63.61.63.97v2.83c0,.28,0,.64-.57.67v.28h2.79v-.28h0Z"/>
        <path class="cls-2" d="M171.11,36.85c-.46-.05-.55-.3-.55-.67v-4.45h-2.25v.28c.44.08.62.16.62.69v3.44c0,.56-.2.6-.62.7v.28h2.8v-.28h0ZM168.83,29.96c0,.5.37.9.91.9.5,0,.9-.39.9-.9s-.4-.91-.9-.91-.91.42-.91.91h0Z"/>
        <path class="cls-2" d="M175.3,35.99s-.18.68-.8.68c-.77,0-1.1-.8-1.1-2.32,0-.97.14-2.38,1.11-2.38.54,0,.78.47.78.94v3.08h0ZM177.57,39.25c-.42-.08-.64-.12-.64-.68v-6.97h-.18l-.91.66c-.42-.38-.88-.67-1.49-.67-1.76,0-2.66,1.46-2.66,2.85,0,2,1.04,2.86,2.21,2.86.34,0,.91-.13,1.39-.66v1.63c0,.82-.21.85-.85.97v.29h3.13v-.28h0Z"/>
        <path class="cls-2" d="M184.04,36.63c-.53-.01-.66-.22-.66-.68v-4.21h-2.35v.28c.4.04.73.05.73.69v3.31c-.22.22-.51.52-.96.52-.64,0-.66-.5-.66-.83v-3.97h-2.2v.28c.48.08.57.22.57.69v2.95c0,.83.4,1.64,1.59,1.64.78,0,1.32-.48,1.66-.77v.76c.67-.22.83-.23,2.27-.39v-.27h0Z"/>
        <path class="cls-2" d="M186.13,33.83c0-1.62.4-1.87.83-1.87.41,0,.56.29.63.55.09.35.09.96.11,1.32h-1.57ZM188.91,35.67c-.22.27-.63.78-1.32.78-1.11,0-1.37-1.19-1.41-2.19h2.95c-.04-.63-.19-2.67-2.22-2.67-1.35,0-2.41,1.1-2.41,2.83,0,2,1.19,2.87,2.38,2.87.94,0,1.6-.38,2.32-1.46l-.28-.16h0Z"/>
        <path class="cls-2" d="M83.39,25.04c-.56.02-.75-.37-1.28-1.63l-2.61-6.16h-.33l-2.6,6.42c-.35.88-.52,1.28-1.15,1.37v.29h2.38v-.29c-.4-.02-.96-.06-.96-.5,0-.19.19-.67.51-1.51h2.63c.16.37.54,1.24.54,1.56,0,.39-.21.4-.94.46v.29h3.79v-.29h0ZM77.54,22.56l1.1-2.85,1.18,2.85h-2.28Z"/>
        <path class="cls-2" d="M89.39,20.67v-.62h-1.52c-.47-.19-.87-.26-1.29-.26-1.6,0-2.4.93-2.4,1.86,0,.84.56,1.48,1.43,1.79v.02c-.5.14-1.37.6-1.37,1.33,0,.61.39.78.91.97v.02c-.66.06-1.08.41-1.08.88,0,.66.87,1.07,2.32,1.07s3.01-.32,3.01-1.77c0-1.3-1.35-1.42-1.92-1.43h-.76c-.87-.02-1.17-.04-1.17-.43,0-.35.43-.59.66-.59q1.14,0,1.48-.11c.84-.27,1.23-.88,1.23-1.59s-.35-1.04-.47-1.16h.95ZM87.54,25.94c.61,0,.94.18.94.6,0,.83-1.47.83-1.94.83-.2,0-1.43-.02-1.43-.77,0-.26.11-.41.41-.66h2.03ZM85.78,21.69c0-.74.06-1.53.77-1.53.77,0,.77,1.01.77,1.53,0,.67-.04,1.51-.77,1.51-.69,0-.77-.7-.77-1.51h0Z"/>
        <path class="cls-2" d="M91.46,22.03c0-1.62.4-1.87.83-1.87.41,0,.56.29.63.55.09.35.09.96.11,1.32h-1.57ZM94.24,23.86c-.22.27-.63.78-1.32.78-1.11,0-1.37-1.19-1.41-2.19h2.95c-.04-.63-.19-2.67-2.23-2.67-1.35,0-2.41,1.1-2.41,2.83,0,2,1.2,2.87,2.38,2.87.94,0,1.6-.38,2.32-1.46l-.28-.16h0Z"/>
        <path class="cls-1" d="M100.98,25.05c-.57-.02-.57-.39-.57-.67v-2.94c0-1.29-.93-1.65-1.57-1.65-1,0-1.5.7-1.66.98h-.02v-.84h-2.24v.28c.47.07.62.16.62.69v3.44c0,.57-.2.62-.62.7v.28h2.82v-.28c-.54-.06-.57-.4-.57-.67v-3.13c0-.11.5-.68.97-.68.63,0,.64.64.64.97v2.83c0,.43-.16.63-.55.67v.28h2.75v-.28h0Z"/>
        <path class="cls-1" d="M105.95,24.05c-.28.32-.58.66-1.25.66-.91,0-1.63-.95-1.63-2.59,0-.53.08-1.97,1-1.97.18,0,.48.11.48.46,0,.63,0,1.21.66,1.21.09,0,.8,0,.8-.75,0-.84-.98-1.28-1.81-1.28-1.1,0-2.76.71-2.76,3.02,0,1.44,1.01,2.68,2.51,2.68.92,0,1.7-.47,2.24-1.23l-.21-.21h0Z"/>
        <path class="cls-2" d="M108.17,22.03c0-1.62.4-1.87.83-1.87.41,0,.56.29.63.55.09.35.09.96.11,1.32h-1.57ZM110.96,23.86c-.22.27-.63.78-1.32.78-1.11,0-1.37-1.19-1.41-2.19h2.95c-.04-.63-.19-2.67-2.22-2.67-1.35,0-2.41,1.1-2.41,2.83,0,2,1.19,2.87,2.38,2.87.94,0,1.6-.38,2.32-1.46l-.28-.16h0Z"/>
        <path class="cls-2" d="M120.48,24.82c-.67-.02-.69-.36-.69-.68v-6.73h-2.52v.28c.64.05.89.06.89.68v2.14c-.28-.3-.68-.73-1.38-.73-1.1,0-2.26.97-2.26,3.01,0,1.71,1.08,2.69,2.05,2.69.88,0,1.21-.33,1.63-.77v.76c.73-.2.83-.21,2.28-.39v-.27h0ZM118.16,24.02c0,.13-.43.82-.97.82-.94,0-.94-1.52-.94-2.2,0-1.14.16-2.19,1-2.19.66,0,.91.71.91.73v2.85h0Z"/>
        <path class="cls-2" d="M122.6,22.03c0-1.62.4-1.87.83-1.87.41,0,.56.29.63.55.09.35.09.96.11,1.32h-1.57ZM125.39,23.86c-.22.27-.63.78-1.32.78-1.11,0-1.37-1.19-1.41-2.19h2.95c-.04-.63-.19-2.67-2.23-2.67-1.35,0-2.41,1.1-2.41,2.83,0,2,1.19,2.87,2.38,2.87.94,0,1.6-.38,2.32-1.46l-.28-.16h0Z"/>
      </g>
      <g>
        <path class="cls-1" d="M373.2,32.05l-.54-8.36c-.07-.2-.4-.2-.4,0-.03,1.81-3.22.29-4.35.03-9.83-2.24-16.45,5.65-16.45,12.2h0c0,8.49,5.62,13.1,12.84,13.1,5.75,0,8.66-3.68,9.6-7.66.12-.5-.44-.39-.57,0-1.74,5.55-6.05,6.95-8.19,6.92-4.65-.07-8.97-3.81-9.13-12.37-.2-10.9,12.11-18.03,16.78-4.01.1.3.33.37.4.13h0Z"/>
        <path class="cls-1" d="M377.21,33.38c2.54-1.07,9.43-.74,9.43,2.41v9.66c0,2.64,2.61,3.54,3.34,1.77.23-.23.64-.07.44.33-.47,1.87-5.08,2.17-6.69-.33-8.86,6.45-14.51-6.25-3.91-6.45,3.31-.5,3.68-2.41,3.68-3.75,0-3.31-1.74-3.61-2.78-3.61-1.1,0-2.01.33-2.61,2.04-.94,3.41-6.05.37-.9-2.07h0ZM379.48,48.26c2.11.27,3.98-1.64,3.98-3.51v-4.55c-8.99,3.31-6.19,7.92-3.98,8.06h0Z"/>
        <path class="cls-1" d="M395.09,33.05l-4.31.57c-.27.07-.27.2.23.33.94.03,1.54.67,1.54,2.04v10.06c0,1.2-1.69,2.26-2.04,2.41-.8.33.4.27.4.27h7.05c.23,0,.97.07.03-.37-1.07-.4-2.24-1.27-2.24-2.31v-7.55c0-3.18,2.07-4.91,4.11-4.91s3.91.47,3.91,4.88v7.59c0,1.1-1.44,2.11-2.21,2.37-.5.13-.7.3-.27.3h7.52c.4.03.57-.1.2-.2-1.8-.7-2.04-2.04-2.04-2.47v-8.83c0-5.05-4.85-4.38-6.55-4.38-2.14.03-4.41,1.37-4.65,1.97-.07-1.64-.27-1.81-.7-1.77h0Z"/>
        <path class="cls-1" d="M437.21,47.49c-.74,1.27-2.54,1.57-4.78,1.57-4.25,0-7.72-3.27-7.72-7.76,0-3.98,2.24-8.46,7.96-8.46,5.15,0,5.11,3.44,5.11.57v-5.05c0-2.61-1.04-3.38-1.84-3.61-1.17-.4-2.67-.47-.27-.47l4.48-.1c-.27.07.3.07.3.47v19.72c0,1.37.5,3.48,2.71,4.08.2.03.43.17.2.23l-4.88.54c-.7.07-1-.27-1.3-1.64M432.87,48.26c2.66,0,4.45-1.04,4.45-7.25s-1.78-7.35-4.45-7.35-4.82,3.45-4.82,7.42,2.16,7.19,4.82,7.19h0Z"/>
        <path class="cls-1" d="M412.51,33.37c2.54-1.07,9.43-.74,9.43,2.41v9.66c0,2.64,2.61,3.54,3.34,1.77.23-.23.63-.07.43.33-.47,1.87-5.08,2.17-6.68-.33-8.86,6.45-14.51-6.25-3.91-6.45,3.31-.5,3.68-2.41,3.68-3.74,0-3.31-1.74-3.61-2.77-3.61-1.1,0-2.01.33-2.61,2.04-.93,3.41-6.05.37-.9-2.07h0ZM414.78,48.24c2.1.27,3.98-1.64,3.98-3.51v-4.55c-8.99,3.31-6.18,7.92-3.98,8.06h0Z"/>
        <path class="cls-1" d="M446.47,33.4c2.54-1.07,9.43-.74,9.43,2.41v9.66c0,2.64,2.61,3.54,3.34,1.77.23-.23.64-.07.44.34-.47,1.87-5.08,2.17-6.69-.34-8.86,6.45-14.51-6.25-3.91-6.45,3.31-.5,3.68-2.41,3.68-3.74,0-3.31-1.74-3.61-2.78-3.61-1.1,0-2.01.33-2.61,2.04-.94,3.41-6.05.37-.9-2.07h0ZM448.74,48.27c2.11.27,3.98-1.64,3.98-3.51v-4.55c-8.99,3.31-6.18,7.92-3.98,8.06h0Z"/>
        <polygon class="cls-4" points="442.56 24.19 446.24 24.19 446.24 31.68 442.56 31.68 442.56 24.19 442.56 24.19"/>
        <polygon class="cls-4" points="454.39 24.19 458.07 24.19 458.07 31.68 454.39 31.68 454.39 24.19 454.39 24.19"/>
        <path class="cls-4" d="M449.81,25.75l.53-1.07.52,1.03c.07.11.12.1.22.05l.45-.22-.29,1.44c-.06.28.1.36.28.17l.64-.68.17.39c.06.12.14.1.26.08l.66-.14-.22.83v.02c-.03.11-.08.2.04.25l.23.12-1.36,1.15c-.14.14-.09.19-.04.35l.13.39-1.27-.23c-.16-.04-.27-.04-.27.09l.05,1.46h-.38l.05-1.45c0-.14-.11-.14-.37-.09l-1.17.23.15-.39c.05-.15.06-.25-.05-.35l-1.39-1.13.26-.16c.07-.06.08-.12.04-.24l-.26-.85.67.14c.19.04.24,0,.28-.1l.19-.38.66.75c.12.14.28.05.23-.15l-.32-1.56.49.28c.08.05.16.06.21-.03"/>
      </g>
    </g>
  </g>
</svg>