<?xml version="1.0" encoding="UTF-8"?>
<svg xmlns="http://www.w3.org/2000/svg" version="1.1" viewBox="0 0 465.61 63.77">
  <defs>
    <style>
      .cls-1, .cls-2 {
        fill: #231f20;
      }

      .cls-2 {
        fill-rule: evenodd;
      }

      .cls-3 {
        fill: #ef483e;
      }

      .cls-4 {
        fill: #ef3742;
      }

      .cls-5 {
        fill: #0090ba;
      }
    </style>
  </defs>
  <!-- Generator: Adobe Illustrator 28.7.1, SVG Export Plug-In . SVG Version: 1.2.0 Build 142)  -->
  <g>
    <g id="Layer_1">
      <g>
        <g>
          <path class="cls-5" d="M39.69,35.54l8.07,14.21h-11.44c-1.51,0-1.85-1.51-1.85-1.51l-3.62-15.14h-3.53l-2.78,15.14c-.25,1.43-1.51,1.51-1.51,1.51h-12.36l7.82-13.96,8.83-3.2h3.53l8.83,2.94h0Z"/>
          <polygon class="cls-5" points="29.26 29.49 27.32 29.49 23.12 27.38 29.17 16.78 35.06 27.38 30.86 29.49 29.26 29.49 29.01 29.06 31.19 29.06 29.09 26.88 26.9 29.06 29.01 29.06 29.26 29.49 29.26 29.49"/>
          <path class="cls-3" d="M29.93,16.78l18.67,32.72v-2.27c.08-1.68,1.43-2.52,1.43-2.52l10.26-6.81-1.77-1.6c-1.26-1.26-.34-3.03-.34-3.03l2.86-5.22-6.39.42c-1.85.17-2.35-1.68-2.35-1.68l-.59-1.77-4.79,4.12c-1.68,1.18-1.35-.76-1.35-.76l2.35-10.18-2.52,1.01c-2.19.67-2.78-.76-3.2-1.6-.08-.17-2.69-6.22-2.69-6.22l-3.62,5.47c-1.34,2.02-2.19,1.77-3.2,1.26-.67-.25-2.78-1.35-2.78-1.35h0Z"/>
          <polygon class="cls-5" points="22.44 28.64 21.77 29.74 26.9 30.33 27.07 29.99 22.44 28.64 22.44 28.64"/>
          <polygon class="cls-5" points="21.1 30.91 26.9 30.91 26.9 31.25 20.34 32.18 21.1 30.91 21.1 30.91"/>
          <polygon class="cls-5" points="19.75 33.27 19.08 34.36 27.07 32.18 26.99 31.84 19.75 33.27 19.75 33.27"/>
          <polygon class="cls-5" points="35.73 28.64 36.41 29.74 31.28 30.33 31.11 29.99 35.73 28.64 35.73 28.64"/>
          <polygon class="cls-5" points="37.08 30.91 31.28 30.91 31.28 31.25 37.84 32.18 37.08 30.91 37.08 30.91"/>
          <polygon class="cls-5" points="38.43 33.27 39.1 34.36 31.11 32.18 31.19 31.84 38.43 33.27 38.43 33.27"/>
          <path class="cls-2" d="M84.1,49.43c-.55.02-.74-.37-1.26-1.61l-2.57-6.07h-.32l-2.56,6.32c-.35.87-.51,1.26-1.13,1.35v.29h2.34v-.29c-.39-.02-.95-.06-.95-.5,0-.18.18-.66.51-1.49h2.6c.16.37.53,1.22.53,1.54,0,.38-.21.39-.92.45v.29h3.74v-.29h0ZM78.33,47l1.09-2.81,1.17,2.81h-2.25Z"/>
          <path class="cls-2" d="M90,45.12v-.61h-1.5c-.46-.18-.85-.25-1.27-.25-1.58,0-2.37.91-2.37,1.83,0,.83.55,1.45,1.41,1.77v.02c-.5.14-1.35.59-1.35,1.32,0,.6.38.77.9.96v.02c-.65.06-1.06.4-1.06.87,0,.65.85,1.05,2.29,1.05s2.97-.31,2.97-1.74c0-1.28-1.33-1.4-1.89-1.41h-.75c-.85-.02-1.15-.03-1.15-.43,0-.35.43-.58.65-.58q1.12,0,1.45-.1c.83-.27,1.21-.87,1.21-1.57s-.35-1.03-.46-1.14h.93ZM88.18,50.32c.6,0,.92.17.92.59,0,.82-1.45.82-1.92.82-.2,0-1.41-.02-1.41-.76,0-.25.1-.4.4-.65h2ZM86.45,46.13c0-.73.06-1.51.76-1.51.76,0,.76.99.76,1.51,0,.66-.03,1.49-.76,1.49-.68,0-.76-.69-.76-1.49h0Z"/>
          <path class="cls-2" d="M92.04,46.46c0-1.59.39-1.85.82-1.85.4,0,.55.29.62.54.09.35.09.95.1,1.31h-1.55ZM94.79,48.28c-.22.27-.62.77-1.3.77-1.1,0-1.35-1.18-1.39-2.16h2.91c-.03-.62-.18-2.63-2.19-2.63-1.33,0-2.38,1.08-2.38,2.79,0,1.97,1.18,2.83,2.34,2.83.92,0,1.58-.37,2.29-1.44l-.28-.16h0Z"/>
          <path class="cls-1" d="M101.43,49.44c-.57-.02-.57-.38-.57-.66v-2.9c0-1.27-.91-1.63-1.55-1.63-.98,0-1.48.69-1.64.97h-.02v-.83h-2.2v.28c.46.07.61.16.61.68v3.39c0,.57-.2.61-.61.69v.28h2.78v-.28c-.53-.06-.57-.39-.57-.66v-3.08c0-.1.5-.67.96-.67.62,0,.64.64.64.96v2.79c0,.43-.16.62-.54.66v.28h2.71v-.28h0Z"/>
          <path class="cls-1" d="M106.33,48.46c-.28.31-.58.65-1.23.65-.9,0-1.6-.94-1.6-2.55,0-.52.08-1.94.98-1.94.17,0,.47.1.47.45,0,.62,0,1.19.65,1.19.09,0,.78,0,.78-.74,0-.83-.97-1.26-1.79-1.26-1.08,0-2.72.7-2.72,2.98,0,1.42.99,2.64,2.47,2.64.91,0,1.67-.46,2.2-1.21l-.21-.21h0Z"/>
          <path class="cls-1" d="M112.17,44.4h-1.74v.28c.29.01.63.01.63.38,0,.17-.06.32-.13.52l-.79,2.22-.83-2.14c-.1-.25-.23-.55-.23-.67,0-.28.31-.29.61-.31v-.28h-2.89v.28c.29.05.35.05.48.31.07.14.42.85.67,1.48l1.39,3.4-.21.61c-.08.25-.37.95-.76.95-.14,0-.2-.14-.2-.2,0-.05.03-.1.03-.21,0-.21-.13-.59-.65-.59-.69,0-.76.59-.76.75,0,.37.31.9,1.06.9,1.08,0,1.33-.66,1.9-2.19l1.72-4.58c.22-.58.42-.6.67-.64v-.28h0Z"/>
          <path class="cls-2" d="M80.63,30.49c1.62,0,2.04,2.03,2.04,3.72,0,1.01-.07,3.72-2.04,3.72s-2.04-2.71-2.04-3.72c0-1.68.43-3.72,2.04-3.72h0ZM80.63,30.11c-2.23,0-4.09,1.58-4.09,4.1s1.72,4.1,4.09,4.1,4.09-1.68,4.09-4.1-1.86-4.1-4.09-4.1h0Z"/>
          <path class="cls-2" d="M87.56,34.09c0-.16.45-.81.97-.81.84,0,.9,1.26.9,2.23,0,.64-.03,2.09-.98,2.09-.64,0-.89-.7-.89-.7v-2.81h0ZM88.46,40.21c-.54-.02-.9-.13-.9-1.04v-1.63c.39.38.72.69,1.36.69,1.18,0,2.22-1.04,2.22-2.94s-1.14-2.67-2.11-2.67-1.27.52-1.47.9h-.02v-.76h-2.2v.28c.53.07.62.24.62.68v5.78c0,.47-.12.59-.65.67v.28h3.15v-.24h0Z"/>
          <path class="cls-2" d="M93.92,34.09c0-.16.45-.81.97-.81.84,0,.9,1.26.9,2.23,0,.64-.03,2.09-.98,2.09-.64,0-.89-.7-.89-.7v-2.81h0ZM94.82,40.21c-.54-.02-.9-.13-.9-1.04v-1.63c.39.38.72.69,1.36.69,1.18,0,2.22-1.04,2.22-2.94s-1.14-2.67-2.11-2.67-1.27.52-1.47.9h-.02v-.76h-2.21v.28c.53.07.62.24.62.68v5.78c0,.47-.12.59-.65.67v.28h3.15v-.24h0Z"/>
          <path class="cls-2" d="M99.8,35.44c0-1.32.06-2.46.91-2.46.7,0,.9.68.9,2.46,0,1.47-.09,2.45-.89,2.45-.92,0-.92-1.2-.92-2.45h0ZM98.11,35.44c0,1.5,1.01,2.81,2.61,2.81s2.6-1.27,2.6-2.81-1.08-2.82-2.6-2.82c-1.6,0-2.61,1.33-2.61,2.82h0Z"/>
          <path class="cls-1" d="M106.93,37.8c-.7-.03-.84-.21-.84-.91v-2.18c0-.84.51-1.1.68-1.1.37,0,.36.68,1.03.68.58,0,.74-.47.74-.77,0-.28-.17-.9-.96-.9s-1.27.69-1.51,1.05h-.02v-.91h-2.18v.28c.35.05.62.1.62.68v3.39c0,.58-.25.62-.62.69v.28h3.07v-.28h0Z"/>
          <path class="cls-1" d="M112.11,32.76h-1.08v-1.95h-.29c-.78,1.12-1.3,1.63-1.92,2.15v.31h.6v3.74c.01.24.06,1.21,1.3,1.21,1.04,0,1.45-.8,1.7-1.29l-.29-.13c-.13.24-.32.6-.66.6-.46,0-.45-.47-.45-.66v-3.47h1.08v-.51h0Z"/>
          <path class="cls-2" d="M118.55,37.59c-.52-.01-.65-.22-.65-.67v-4.15h-2.32v.28c.39.03.72.05.72.68v3.27c-.22.22-.51.51-.95.51-.64,0-.65-.5-.65-.82v-3.91h-2.17v.28c.47.08.57.22.57.68v2.91c0,.82.39,1.62,1.57,1.62.77,0,1.3-.47,1.64-.76v.75c.66-.22.82-.23,2.24-.38v-.27h0Z"/>
          <path class="cls-1" d="M124.94,37.8c-.57-.02-.57-.38-.57-.66v-2.9c0-1.27-.91-1.63-1.55-1.63-.98,0-1.48.69-1.64.97h-.02v-.83h-2.2v.28c.46.07.61.16.61.68v3.39c0,.57-.2.61-.61.69v.28h2.78v-.28c-.53-.06-.57-.39-.57-.66v-3.08c0-.1.5-.67.96-.67.62,0,.63.63.63.96v2.79c0,.43-.16.62-.54.66v.28h2.71v-.28h0Z"/>
          <path class="cls-2" d="M128.03,37.8c-.45-.05-.54-.3-.54-.66v-4.39h-2.22v.28c.44.08.61.16.61.68v3.39c0,.55-.2.59-.61.69v.28h2.76v-.28h0ZM125.77,31.01c0,.49.37.89.9.89.5,0,.89-.38.89-.89s-.39-.9-.89-.9-.9.42-.9.9h0Z"/>
          <path class="cls-1" d="M131.73,32.76h-1.08v-1.95h-.29c-.78,1.12-1.3,1.63-1.92,2.15v.31h.6v3.74c.01.24.06,1.21,1.3,1.21,1.04,0,1.45-.8,1.7-1.29l-.29-.13c-.13.24-.32.6-.66.6-.46,0-.45-.47-.45-.66v-3.47h1.08v-.51h0Z"/>
          <path class="cls-2" d="M134.92,37.8c-.45-.05-.54-.3-.54-.66v-4.39h-2.22v.28c.44.08.61.16.61.68v3.39c0,.55-.2.59-.61.69v.28h2.76v-.28h0ZM132.67,31.01c0,.49.37.89.9.89.5,0,.89-.38.89-.89s-.39-.9-.89-.9-.9.42-.9.9h0Z"/>
          <path class="cls-2" d="M136.99,34.83c0-1.59.39-1.85.82-1.85.4,0,.55.29.62.54.09.35.09.95.1,1.3h-1.55ZM139.74,36.64c-.22.27-.62.77-1.3.77-1.1,0-1.35-1.18-1.39-2.16h2.91c-.03-.62-.18-2.63-2.19-2.63-1.33,0-2.38,1.09-2.38,2.79,0,1.97,1.18,2.83,2.34,2.83.92,0,1.58-.37,2.29-1.44l-.28-.16h0Z"/>
          <path class="cls-1" d="M144.08,34.32v-1.67h-.25c-.03.09-.08.23-.29.23-.22,0-.69-.25-1.24-.25-1.06,0-1.84.68-1.84,1.7,0,1.78,2.75,1.71,2.75,2.77,0,.35-.24.76-.82.76-1.28,0-1.56-1.21-1.63-1.52h-.32v1.91h.29c.12-.23.18-.32.31-.32.1,0,.89.34,1.47.34,1.07,0,1.81-.68,1.81-1.78,0-1.89-2.7-1.63-2.7-2.81,0-.36.32-.66.74-.66.66,0,1.19.5,1.43,1.31h.29Z"/>
          <path class="cls-2" d="M84.1,26.15c-.55.02-.74-.37-1.26-1.6l-2.57-6.07h-.32l-2.56,6.33c-.35.86-.51,1.26-1.13,1.35v.29h2.34v-.29c-.39-.02-.95-.06-.95-.5,0-.18.18-.66.51-1.49h2.6c.16.37.53,1.22.53,1.53,0,.38-.21.39-.92.45v.29h3.74v-.29h0ZM78.33,23.72l1.09-2.81,1.17,2.81h-2.25Z"/>
          <path class="cls-1" d="M87.96,21.12h-1.08v-1.95h-.29c-.78,1.12-1.3,1.63-1.92,2.15v.31h.6v3.74c.01.24.06,1.21,1.3,1.21,1.04,0,1.45-.8,1.7-1.29l-.29-.13c-.13.24-.32.6-.66.6-.46,0-.45-.47-.45-.66v-3.47h1.08v-.51h0Z"/>
          <path class="cls-1" d="M91.15,26.17c-.45,0-.57-.36-.57-.69v-6.83h-2.19v.28c.57,0,.59.54.59.67v5.89c0,.28-.13.69-.59.69v.28h2.76v-.28h0Z"/>
          <path class="cls-2" d="M96.79,25.7l-.12.12s-.07.05-.12.05c-.25,0-.25-.22-.25-.29v-3.01c0-1.09-1.03-1.58-2.31-1.58-1.43,0-2.16.7-2.16,1.43,0,.78.62.78.76.78.6,0,.77-.44.77-.64,0-.45-.35-.54-.35-.79,0-.18.27-.42.68-.42.85,0,1.02.43,1.02,1.02v.84c-1.64.5-3.11.96-3.11,2.16,0,.88.72,1.24,1.27,1.24.28,0,1.08-.06,1.84-.81.07.32.16.81.97.81.52,0,.95-.28,1.27-.66l-.17-.24h0ZM94.71,25.29c-.16.18-.43.5-.82.5-.41,0-.59-.42-.59-.77,0-1.01,1.14-1.34,1.41-1.4v1.67h0Z"/>
          <path class="cls-1" d="M103.26,26.17c-.57-.02-.57-.38-.57-.66v-2.9c0-1.27-.91-1.63-1.55-1.63-.98,0-1.48.69-1.64.97h-.02v-.83h-2.21v.28c.46.07.61.16.61.68v3.39c0,.57-.2.61-.61.69v.28h2.78v-.28c-.53-.06-.57-.39-.57-.66v-3.08c0-.1.5-.67.96-.67.62,0,.63.64.63.96v2.79c0,.43-.16.62-.54.66v.28h2.71v-.28h0Z"/>
          <path class="cls-1" d="M106.92,21.12h-1.09v-1.95h-.29c-.79,1.12-1.3,1.63-1.92,2.15v.31h.6v3.74c.01.24.06,1.21,1.3,1.21,1.04,0,1.45-.8,1.7-1.29l-.29-.13c-.13.24-.32.6-.66.6-.46,0-.45-.47-.45-.66v-3.47h1.09v-.51h0Z"/>
          <path class="cls-2" d="M110.11,26.17c-.45-.05-.54-.3-.54-.66v-4.39h-2.22v.28c.44.08.61.16.61.68v3.39c0,.55-.2.59-.61.69v.28h2.76v-.28h0ZM107.86,19.37c0,.5.37.89.9.89.5,0,.89-.38.89-.89s-.39-.9-.89-.9-.9.42-.9.9h0Z"/>
          <path class="cls-1" d="M115.05,25.19c-.28.31-.58.64-1.24.64-.9,0-1.6-.93-1.6-2.55,0-.52.08-1.94.98-1.94.17,0,.47.1.47.45,0,.62,0,1.19.65,1.19.09,0,.78,0,.78-.74,0-.83-.97-1.26-1.79-1.26-1.08,0-2.72.7-2.72,2.98,0,1.42.99,2.64,2.47,2.64.91,0,1.67-.46,2.21-1.21l-.21-.21h0Z"/>
          <path class="cls-1" d="M125.73,24.69c-.96,1.07-1.82,1.42-2.72,1.42-.36,0-1.27-.17-1.75-1.01-.43-.74-.5-1.85-.5-2.54,0-1.95.45-3.72,2.14-3.72,1.32,0,2.29,1.35,2.69,2.35h.29v-2.7h-.31c-.12.29-.22.53-.53.53s-1.19-.57-2.23-.57c-2.42,0-4.09,1.8-4.09,4.15,0,2.16,1.45,4.05,4.14,4.05,1.48,0,2.38-.73,3.22-1.68l-.35-.29h0Z"/>
          <path class="cls-2" d="M131.9,25.7l-.12.12s-.07.05-.12.05c-.25,0-.25-.22-.25-.29v-3.01c0-1.09-1.03-1.58-2.31-1.58-1.43,0-2.16.7-2.16,1.43,0,.78.62.78.76.78.6,0,.77-.44.77-.64,0-.45-.35-.54-.35-.79,0-.18.27-.42.68-.42.85,0,1.02.43,1.02,1.02v.84c-1.64.5-3.1.96-3.1,2.16,0,.88.72,1.24,1.27,1.24.28,0,1.08-.06,1.83-.81.07.32.16.81.97.81.52,0,.95-.28,1.27-.66l-.17-.24h0ZM129.83,25.29c-.16.18-.43.5-.82.5-.41,0-.59-.42-.59-.77,0-1.01,1.14-1.34,1.41-1.4v1.67h0Z"/>
          <path class="cls-1" d="M138.37,26.17c-.57-.02-.57-.38-.57-.66v-2.9c0-1.27-.91-1.63-1.55-1.63-.98,0-1.48.69-1.64.97h-.02v-.83h-2.21v.28c.46.07.61.16.61.68v3.39c0,.57-.2.61-.61.69v.28h2.78v-.28c-.53-.06-.57-.39-.57-.66v-3.08c0-.1.5-.67.96-.67.62,0,.63.64.63.96v2.79c0,.43-.16.62-.54.66v.28h2.71v-.28h0Z"/>
          <path class="cls-2" d="M143.98,25.7l-.12.12s-.07.05-.12.05c-.25,0-.25-.22-.25-.29v-3.01c0-1.09-1.03-1.58-2.31-1.58-1.43,0-2.16.7-2.16,1.43,0,.78.62.78.76.78.6,0,.77-.44.77-.64,0-.45-.35-.54-.35-.79,0-.18.27-.42.68-.42.85,0,1.02.43,1.02,1.02v.84c-1.64.5-3.11.96-3.11,2.16,0,.88.72,1.24,1.27,1.24.28,0,1.08-.06,1.84-.81.07.32.16.81.97.81.52,0,.95-.28,1.27-.66l-.17-.24h0ZM141.9,25.29c-.16.18-.43.5-.82.5-.41,0-.59-.42-.59-.77,0-1.01,1.14-1.34,1.41-1.4v1.67h0Z"/>
          <path class="cls-2" d="M150.39,25.95c-.66-.02-.68-.36-.68-.67v-6.64h-2.48v.28c.64.05.88.06.88.67v2.11c-.28-.3-.67-.72-1.36-.72-1.09,0-2.23.96-2.23,2.97,0,1.68,1.06,2.66,2.02,2.66.87,0,1.19-.32,1.6-.76v.75c.72-.2.82-.21,2.25-.38v-.27h0ZM148.1,25.15c0,.13-.43.81-.96.81-.92,0-.92-1.5-.92-2.17,0-1.12.16-2.16.98-2.16.65,0,.9.7.9.72v2.81h0Z"/>
          <path class="cls-2" d="M156.05,25.7l-.12.12s-.07.05-.12.05c-.25,0-.25-.22-.25-.29v-3.01c0-1.09-1.03-1.58-2.31-1.58-1.43,0-2.16.7-2.16,1.43,0,.78.62.78.76.78.6,0,.77-.44.77-.64,0-.45-.35-.54-.35-.79,0-.18.27-.42.68-.42.85,0,1.02.43,1.02,1.02v.84c-1.64.5-3.11.96-3.11,2.16,0,.88.72,1.24,1.27,1.24.28,0,1.08-.06,1.84-.81.07.32.16.81.97.81.52,0,.95-.28,1.27-.66l-.17-.24h0ZM153.97,25.29c-.16.18-.43.5-.82.5-.41,0-.59-.42-.59-.77,0-1.01,1.14-1.34,1.41-1.4v1.67h0Z"/>
          <path class="cls-2" d="M177.49,49.22c-.66-.02-.68-.36-.68-.67v-6.64h-2.48v.28c.64.05.88.06.88.67v2.11c-.28-.3-.67-.71-1.36-.71-1.08,0-2.23.96-2.23,2.97,0,1.69,1.06,2.66,2.02,2.66.87,0,1.19-.32,1.6-.76v.75c.72-.2.82-.21,2.25-.38v-.27h0ZM175.21,48.43c0,.13-.43.81-.96.81-.92,0-.92-1.5-.92-2.17,0-1.12.16-2.16.98-2.16.65,0,.9.7.9.72v2.81h0Z"/>
          <path class="cls-2" d="M183.89,49.22c-.52-.01-.65-.22-.65-.67v-4.15h-2.32v.28c.39.03.72.05.72.68v3.27c-.22.22-.51.51-.95.51-.64,0-.65-.5-.65-.82v-3.91h-2.17v.28c.47.08.57.22.57.68v2.91c0,.82.39,1.62,1.57,1.62.77,0,1.3-.47,1.64-.76v.75c.66-.22.82-.23,2.24-.38v-.27h0Z"/>
          <path class="cls-1" d="M194.44,47.96c-.96,1.07-1.82,1.42-2.72,1.42-.36,0-1.27-.17-1.75-1.01-.43-.74-.5-1.85-.5-2.54,0-1.95.45-3.72,2.14-3.72,1.32,0,2.28,1.35,2.69,2.35h.29v-2.7h-.31c-.12.29-.22.53-.53.53s-1.19-.57-2.23-.57c-2.42,0-4.09,1.8-4.09,4.14,0,2.16,1.45,4.05,4.14,4.05,1.48,0,2.38-.73,3.22-1.68l-.35-.29h0Z"/>
          <path class="cls-2" d="M200.62,48.98l-.12.12s-.07.05-.12.05c-.25,0-.25-.22-.25-.29v-3.01c0-1.09-1.03-1.58-2.31-1.58-1.43,0-2.16.7-2.16,1.43,0,.79.62.79.76.79.6,0,.77-.44.77-.65,0-.45-.35-.54-.35-.79,0-.18.27-.41.68-.41.85,0,1.02.43,1.02,1.01v.84c-1.64.5-3.11.96-3.11,2.16,0,.88.72,1.23,1.27,1.23.28,0,1.08-.06,1.84-.81.07.32.16.81.97.81.52,0,.95-.28,1.27-.66l-.17-.24h0ZM198.54,48.57c-.16.18-.43.5-.82.5-.41,0-.59-.42-.59-.77,0-1.01,1.14-1.34,1.41-1.4v1.67h0Z"/>
          <path class="cls-1" d="M207.09,49.44c-.57-.02-.57-.38-.57-.66v-2.9c0-1.27-.91-1.63-1.55-1.63-.98,0-1.48.69-1.64.97h-.02v-.83h-2.2v.28c.46.07.61.16.61.68v3.39c0,.57-.2.61-.61.69v.28h2.78v-.28c-.53-.06-.57-.39-.57-.66v-3.08c0-.1.5-.67.96-.67.62,0,.64.64.64.96v2.79c0,.43-.16.62-.54.66v.28h2.71v-.28h0Z"/>
          <path class="cls-2" d="M212.69,48.98l-.12.12s-.07.05-.12.05c-.25,0-.25-.22-.25-.29v-3.01c0-1.09-1.03-1.58-2.31-1.58-1.43,0-2.16.7-2.16,1.43,0,.79.62.79.76.79.6,0,.77-.44.77-.65,0-.45-.35-.54-.35-.79,0-.18.26-.41.68-.41.85,0,1.02.43,1.02,1.01v.84c-1.64.5-3.11.96-3.11,2.16,0,.88.72,1.23,1.27,1.23.28,0,1.08-.06,1.84-.81.07.32.16.81.97.81.52,0,.95-.28,1.27-.66l-.17-.24h0ZM210.61,48.57c-.16.18-.43.5-.82.5-.42,0-.59-.42-.59-.77,0-1.01,1.14-1.34,1.41-1.4v1.67h0Z"/>
          <path class="cls-2" d="M219.11,49.22c-.66-.02-.68-.36-.68-.67v-6.64h-2.48v.28c.64.05.88.06.88.67v2.11c-.28-.3-.67-.71-1.36-.71-1.09,0-2.23.96-2.23,2.97,0,1.69,1.06,2.66,2.02,2.66.87,0,1.19-.32,1.6-.76v.75c.72-.2.82-.21,2.25-.38v-.27h0ZM216.82,48.43c0,.13-.43.81-.96.81-.92,0-.92-1.5-.92-2.17,0-1.12.16-2.16.98-2.16.65,0,.9.7.9.72v2.81h0Z"/>
          <path class="cls-2" d="M224.77,48.98l-.12.12s-.07.05-.12.05c-.25,0-.25-.22-.25-.29v-3.01c0-1.09-1.03-1.58-2.31-1.58-1.43,0-2.16.7-2.16,1.43,0,.79.62.79.76.79.6,0,.77-.44.77-.65,0-.45-.35-.54-.35-.79,0-.18.26-.41.68-.41.85,0,1.02.43,1.02,1.01v.84c-1.64.5-3.11.96-3.11,2.16,0,.88.72,1.23,1.27,1.23.28,0,1.08-.06,1.84-.81.07.32.16.81.97.81.52,0,.95-.28,1.27-.66l-.17-.24h0ZM222.69,48.57c-.16.18-.43.5-.82.5-.42,0-.59-.42-.59-.77,0-1.01,1.14-1.34,1.41-1.4v1.67h0Z"/>
          <path class="cls-2" d="M233.28,48.98l-.12.12s-.07.05-.12.05c-.25,0-.25-.22-.25-.29v-3.01c0-1.09-1.03-1.58-2.31-1.58-1.43,0-2.16.7-2.16,1.43,0,.79.62.79.76.79.6,0,.77-.44.77-.65,0-.45-.35-.54-.35-.79,0-.18.27-.41.68-.41.85,0,1.02.43,1.02,1.01v.84c-1.64.5-3.11.96-3.11,2.16,0,.88.72,1.23,1.27,1.23.28,0,1.08-.06,1.84-.81.07.32.16.81.97.81.52,0,.95-.28,1.27-.66l-.17-.24h0ZM231.2,48.57c-.16.18-.43.5-.82.5-.41,0-.59-.42-.59-.77,0-1.01,1.14-1.34,1.41-1.4v1.67h0Z"/>
          <path class="cls-1" d="M237.05,44.4h-1.09v-1.95h-.29c-.78,1.12-1.3,1.63-1.92,2.15v.31h.6v3.74c.01.24.06,1.21,1.3,1.21,1.04,0,1.46-.8,1.7-1.29l-.29-.13c-.13.24-.32.6-.66.6-.46,0-.45-.47-.45-.66v-3.48h1.09v-.51h0Z"/>
          <path class="cls-1" d="M240.24,49.44c-.45,0-.57-.36-.57-.69v-6.83h-2.19v.28c.57,0,.59.54.59.67v5.89c0,.28-.13.69-.59.69v.28h2.76v-.28h0Z"/>
          <path class="cls-2" d="M245.88,48.98l-.12.12s-.07.05-.12.05c-.25,0-.25-.22-.25-.29v-3.01c0-1.09-1.03-1.58-2.31-1.58-1.43,0-2.16.7-2.16,1.43,0,.79.62.79.76.79.6,0,.77-.44.77-.65,0-.45-.35-.54-.35-.79,0-.18.26-.41.68-.41.85,0,1.02.43,1.02,1.01v.84c-1.64.5-3.11.96-3.11,2.16,0,.88.72,1.23,1.27,1.23.28,0,1.08-.06,1.83-.81.07.32.16.81.97.81.52,0,.95-.28,1.27-.66l-.17-.24h0ZM243.81,48.57c-.16.18-.43.5-.82.5-.42,0-.59-.42-.59-.77,0-1.01,1.14-1.34,1.41-1.4v1.67h0Z"/>
          <path class="cls-1" d="M252.36,49.44c-.57-.02-.57-.38-.57-.66v-2.9c0-1.27-.91-1.63-1.55-1.63-.98,0-1.48.69-1.64.97h-.02v-.83h-2.2v.28c.46.07.61.16.61.68v3.39c0,.57-.2.61-.61.69v.28h2.78v-.28c-.53-.06-.57-.39-.57-.66v-3.08c0-.1.5-.67.96-.67.62,0,.64.64.64.96v2.79c0,.43-.16.62-.54.66v.28h2.71v-.28h0Z"/>
          <path class="cls-1" d="M256.02,44.4h-1.09v-1.95h-.29c-.79,1.12-1.3,1.63-1.92,2.15v.31h.6v3.74c.01.24.06,1.21,1.3,1.21,1.04,0,1.46-.8,1.7-1.29l-.29-.13c-.13.24-.32.6-.66.6-.46,0-.45-.47-.45-.66v-3.48h1.09v-.51h0Z"/>
          <path class="cls-2" d="M259.21,49.44c-.45-.05-.54-.3-.54-.66v-4.39h-2.22v.28c.44.08.61.16.61.68v3.39c0,.55-.2.59-.61.69v.28h2.76v-.28h0ZM256.96,42.64c0,.5.37.89.9.89.5,0,.89-.38.89-.89s-.39-.9-.89-.9-.9.42-.9.9h0Z"/>
          <path class="cls-2" d="M263.34,48.59s-.17.67-.78.67c-.76,0-1.09-.79-1.09-2.29,0-.96.14-2.34,1.1-2.34.53,0,.77.46.77.92v3.04h0ZM265.58,51.81c-.42-.08-.64-.12-.64-.67v-6.87h-.17l-.9.64c-.42-.37-.86-.66-1.47-.66-1.73,0-2.62,1.44-2.62,2.8,0,1.98,1.03,2.82,2.18,2.82.34,0,.9-.13,1.37-.64v1.6c0,.81-.21.84-.84.96v.29h3.08v-.28h0Z"/>
          <path class="cls-2" d="M271.95,49.22c-.52-.01-.64-.22-.64-.67v-4.15h-2.32v.28c.39.03.72.05.72.68v3.27c-.22.22-.51.51-.95.51-.63,0-.64-.5-.64-.82v-3.91h-2.17v.28c.47.08.56.22.56.68v2.91c0,.82.39,1.62,1.57,1.62.77,0,1.3-.47,1.64-.76v.75c.66-.22.82-.23,2.24-.38v-.27h0Z"/>
          <path class="cls-2" d="M274.01,46.46c0-1.59.39-1.85.82-1.85.4,0,.55.29.62.54.09.35.09.95.1,1.31h-1.55ZM276.76,48.28c-.22.27-.62.77-1.3.77-1.1,0-1.35-1.18-1.39-2.16h2.91c-.03-.62-.18-2.63-2.19-2.63-1.33,0-2.38,1.08-2.38,2.79,0,1.97,1.18,2.83,2.34,2.83.92,0,1.58-.37,2.29-1.44l-.28-.16h0Z"/>
          <path class="cls-2" d="M173.8,34.09c0-.16.45-.81.97-.81.84,0,.9,1.26.9,2.23,0,.64-.03,2.09-.98,2.09-.63,0-.89-.7-.89-.7v-2.81h0ZM174.7,40.21c-.54-.02-.9-.13-.9-1.04v-1.63c.39.38.72.69,1.36.69,1.18,0,2.22-1.04,2.22-2.94s-1.14-2.67-2.11-2.67-1.27.52-1.47.9h-.02v-.76h-2.2v.28c.53.07.62.24.62.68v5.78c0,.47-.12.59-.65.67v.28h3.15v-.24h0Z"/>
          <path class="cls-1" d="M181.1,37.8c-.7-.03-.84-.21-.84-.91v-2.18c0-.84.51-1.1.68-1.1.37,0,.36.68,1.03.68.58,0,.74-.47.74-.77,0-.28-.17-.9-.96-.9s-1.27.69-1.51,1.05h-.02v-.91h-2.18v.28c.35.05.62.1.62.68v3.39c0,.58-.25.62-.62.69v.28h3.07v-.28h0Z"/>
          <path class="cls-2" d="M184.53,35.44c0-1.32.06-2.46.91-2.46.7,0,.9.68.9,2.46,0,1.47-.09,2.45-.89,2.45-.92,0-.92-1.2-.92-2.45h0ZM182.83,35.44c0,1.5,1,2.81,2.61,2.81s2.6-1.27,2.6-2.81-1.08-2.82-2.6-2.82c-1.6,0-2.61,1.33-2.61,2.82h0Z"/>
          <path class="cls-1" d="M197.65,37.8c-.58-.01-.58-.37-.58-.66v-2.9c0-1.27-.91-1.63-1.55-1.63-.67,0-1.19.32-1.71,1.01-.17-.37-.46-1.01-1.51-1.01-.97,0-1.48.69-1.64.97h-.02v-.83h-2.2v.28c.33.05.64.08.64.68v3.39c0,.57-.25.62-.64.69v.28h2.77v-.28c-.45-.05-.53-.3-.53-.66v-3.08c0-.09.46-.67.96-.67.63,0,.63.59.63.96v2.79c0,.27,0,.62-.55.66v.28h2.7v-.28c-.44-.03-.54-.29-.54-.66v-3.08c0-.09.49-.67.97-.67.62,0,.62.6.62.96v2.79c0,.28,0,.64-.57.66v.28h2.75v-.28h0Z"/>
          <path class="cls-2" d="M199.82,35.44c0-1.32.06-2.46.91-2.46.7,0,.9.68.9,2.46,0,1.47-.09,2.45-.89,2.45-.92,0-.92-1.2-.92-2.45h0ZM198.13,35.44c0,1.5,1.01,2.81,2.61,2.81s2.6-1.27,2.6-2.81-1.08-2.82-2.6-2.82c-1.6,0-2.61,1.33-2.61,2.82h0Z"/>
          <path class="cls-1" d="M207.07,32.76h-1.08v-1.95h-.29c-.78,1.12-1.3,1.63-1.92,2.15v.31h.6v3.74c.01.24.06,1.21,1.3,1.21,1.04,0,1.45-.8,1.7-1.29l-.29-.13c-.13.24-.32.6-.66.6-.46,0-.45-.47-.45-.66v-3.47h1.08v-.51h0Z"/>
          <path class="cls-2" d="M210.26,37.8c-.45-.05-.54-.3-.54-.66v-4.39h-2.22v.28c.44.08.61.16.61.68v3.39c0,.55-.2.59-.61.69v.28h2.76v-.28h0ZM208.01,31.01c0,.49.37.89.9.89.5,0,.89-.38.89-.89s-.39-.9-.89-.9-.9.42-.9.9h0Z"/>
          <path class="cls-2" d="M212.43,35.44c0-1.32.06-2.46.91-2.46.7,0,.9.68.9,2.46,0,1.47-.09,2.45-.89,2.45-.92,0-.92-1.2-.92-2.45h0ZM210.73,35.44c0,1.5,1,2.81,2.61,2.81s2.6-1.27,2.6-2.81-1.09-2.82-2.6-2.82c-1.6,0-2.61,1.33-2.61,2.82h0Z"/>
          <path class="cls-1" d="M222.38,37.8c-.57-.02-.57-.38-.57-.66v-2.9c0-1.27-.91-1.63-1.55-1.63-.98,0-1.48.69-1.64.97h-.02v-.83h-2.21v.28c.46.07.61.16.61.68v3.39c0,.57-.2.61-.61.69v.28h2.78v-.28c-.53-.06-.57-.39-.57-.66v-3.08c0-.1.5-.67.96-.67.62,0,.63.63.63.96v2.79c0,.43-.16.62-.54.66v.28h2.71v-.28h0Z"/>
          <path class="cls-2" d="M227.21,34.83c0-1.59.39-1.85.82-1.85.4,0,.55.29.62.54.09.35.09.95.1,1.3h-1.55ZM229.96,36.64c-.22.27-.62.77-1.3.77-1.1,0-1.35-1.18-1.38-2.16h2.91c-.03-.62-.18-2.63-2.19-2.63-1.33,0-2.38,1.09-2.38,2.79,0,1.97,1.18,2.83,2.34,2.83.92,0,1.58-.37,2.29-1.44l-.28-.16h0ZM229.31,30.97c.28-.17.46-.29.46-.61,0-.42-.36-.51-.57-.51-.12,0-.33.02-.6.32l-1.58,1.81h.65l1.64-1.01h0Z"/>
          <path class="cls-1" d="M235.13,36.82c-.28.31-.58.65-1.24.65-.9,0-1.6-.94-1.6-2.55,0-.52.08-1.94.98-1.94.17,0,.47.1.47.45,0,.62,0,1.19.65,1.19.09,0,.79,0,.79-.74,0-.83-.97-1.26-1.79-1.26-1.08,0-2.72.7-2.72,2.98,0,1.42.99,2.64,2.47,2.64.91,0,1.67-.46,2.2-1.21l-.21-.21h0Z"/>
          <path class="cls-2" d="M237.42,35.44c0-1.32.06-2.46.91-2.46.7,0,.9.68.9,2.46,0,1.47-.09,2.45-.89,2.45-.92,0-.92-1.2-.92-2.45h0ZM235.72,35.44c0,1.5,1.01,2.81,2.61,2.81s2.6-1.27,2.6-2.81-1.08-2.82-2.6-2.82c-1.6,0-2.61,1.33-2.61,2.82h0Z"/>
          <path class="cls-1" d="M247.37,37.8c-.57-.02-.57-.38-.57-.66v-2.9c0-1.27-.91-1.63-1.55-1.63-.98,0-1.48.69-1.64.97h-.02v-.83h-2.2v.28c.46.07.61.16.61.68v3.39c0,.57-.2.61-.61.69v.28h2.78v-.28c-.53-.06-.56-.39-.56-.66v-3.08c0-.1.49-.67.96-.67.62,0,.64.63.64.96v2.79c0,.43-.16.62-.54.66v.28h2.71v-.28h0Z"/>
          <path class="cls-2" d="M249.5,35.44c0-1.32.06-2.46.91-2.46.7,0,.9.68.9,2.46,0,1.47-.09,2.45-.89,2.45-.92,0-.92-1.2-.92-2.45h0ZM247.8,35.44c0,1.5,1.01,2.81,2.61,2.81s2.6-1.27,2.6-2.81-1.09-2.82-2.6-2.82c-1.6,0-2.61,1.33-2.61,2.82h0Z"/>
          <path class="cls-1" d="M262.62,37.8c-.58-.01-.58-.37-.58-.66v-2.9c0-1.27-.91-1.63-1.55-1.63-.67,0-1.19.32-1.71,1.01-.17-.37-.46-1.01-1.51-1.01-.97,0-1.48.69-1.64.97h-.02v-.83h-2.2v.28c.33.05.64.08.64.68v3.39c0,.57-.25.62-.64.69v.28h2.77v-.28c-.45-.05-.53-.3-.53-.66v-3.08c0-.09.46-.67.96-.67.64,0,.64.59.64.96v2.79c0,.27,0,.62-.55.66v.28h2.7v-.28c-.44-.03-.54-.29-.54-.66v-3.08c0-.09.49-.67.97-.67.62,0,.62.6.62.96v2.79c0,.28,0,.64-.56.66v.28h2.75v-.28h0Z"/>
          <path class="cls-2" d="M265.75,37.8c-.45-.05-.54-.3-.54-.66v-4.39h-2.22v.28c.44.08.61.16.61.68v3.39c0,.55-.2.59-.61.69v.28h2.76v-.28h0ZM263.5,31.01c0,.49.37.89.9.89.5,0,.89-.38.89-.89s-.39-.9-.89-.9-.9.42-.9.9h0Z"/>
          <path class="cls-2" d="M269.88,36.95s-.17.67-.78.67c-.76,0-1.09-.79-1.09-2.29,0-.96.14-2.34,1.1-2.34.53,0,.77.46.77.92v3.04h0ZM272.12,40.17c-.42-.08-.63-.12-.63-.67v-6.87h-.17l-.9.65c-.42-.37-.87-.66-1.47-.66-1.73,0-2.62,1.44-2.62,2.81,0,1.97,1.03,2.82,2.18,2.82.33,0,.9-.13,1.37-.65v1.6c0,.81-.21.84-.84.96v.29h3.08v-.28h0Z"/>
          <path class="cls-2" d="M278.5,37.59c-.52-.01-.65-.22-.65-.67v-4.15h-2.32v.28c.39.03.72.05.72.68v3.27c-.22.22-.51.51-.95.51-.64,0-.65-.5-.65-.82v-3.91h-2.17v.28c.47.08.57.22.57.68v2.91c0,.82.39,1.62,1.57,1.62.77,0,1.31-.47,1.64-.76v.75c.66-.22.82-.23,2.24-.38v-.27h0Z"/>
          <path class="cls-2" d="M280.56,34.83c0-1.59.39-1.85.82-1.85.4,0,.55.29.62.54.09.35.09.95.1,1.3h-1.55ZM283.3,36.64c-.22.27-.62.77-1.3.77-1.1,0-1.35-1.18-1.39-2.16h2.91c-.03-.62-.18-2.63-2.19-2.63-1.33,0-2.38,1.09-2.38,2.79,0,1.97,1.18,2.83,2.34,2.83.92,0,1.58-.37,2.29-1.44l-.28-.16h0Z"/>
          <path class="cls-2" d="M179.28,26.15c-.55.02-.74-.37-1.26-1.6l-2.58-6.07h-.32l-2.56,6.33c-.35.86-.51,1.26-1.13,1.35v.29h2.34v-.29c-.39-.02-.95-.06-.95-.5,0-.18.18-.66.51-1.49h2.6c.16.37.53,1.22.53,1.53,0,.38-.21.39-.92.45v.29h3.74v-.29h0ZM173.51,23.72l1.08-2.81,1.17,2.81h-2.25Z"/>
          <path class="cls-2" d="M185.19,21.85v-.61h-1.5c-.46-.18-.85-.25-1.27-.25-1.58,0-2.37.91-2.37,1.84,0,.83.55,1.45,1.41,1.77v.02c-.5.14-1.35.59-1.35,1.32,0,.6.38.77.9.96v.02c-.65.06-1.06.4-1.06.86,0,.65.85,1.05,2.29,1.05s2.97-.31,2.97-1.74c0-1.28-1.33-1.4-1.89-1.41h-.75c-.85-.02-1.15-.03-1.15-.43,0-.35.43-.58.65-.58q1.12,0,1.45-.1c.83-.27,1.21-.87,1.21-1.57s-.35-1.03-.46-1.14h.93ZM183.37,27.04c.6,0,.92.17.92.59,0,.82-1.45.82-1.92.82-.2,0-1.41-.02-1.41-.76,0-.25.1-.4.4-.65h2ZM181.64,22.85c0-.73.06-1.51.76-1.51.76,0,.76.99.76,1.51,0,.66-.03,1.49-.76,1.49-.68,0-.76-.69-.76-1.49h0Z"/>
          <path class="cls-2" d="M187.23,23.19c0-1.59.39-1.85.82-1.85.4,0,.55.29.62.54.09.35.09.95.1,1.3h-1.55ZM189.98,25c-.22.26-.62.77-1.3.77-1.1,0-1.35-1.18-1.39-2.16h2.91c-.04-.62-.18-2.63-2.19-2.63-1.33,0-2.38,1.09-2.38,2.79,0,1.97,1.18,2.83,2.34,2.83.92,0,1.58-.37,2.29-1.44l-.28-.16h0Z"/>
          <path class="cls-1" d="M196.62,26.17c-.57-.02-.57-.38-.57-.66v-2.9c0-1.27-.91-1.63-1.55-1.63-.98,0-1.48.69-1.64.97h-.02v-.83h-2.2v.28c.46.07.61.16.61.68v3.39c0,.57-.2.61-.61.69v.28h2.78v-.28c-.53-.06-.57-.39-.57-.66v-3.08c0-.1.5-.67.96-.67.62,0,.64.64.64.96v2.79c0,.43-.16.62-.54.66v.28h2.71v-.28h0Z"/>
          <path class="cls-1" d="M201.51,25.19c-.28.31-.58.64-1.23.64-.9,0-1.6-.93-1.6-2.55,0-.52.08-1.94.98-1.94.17,0,.47.1.47.45,0,.62,0,1.19.65,1.19.09,0,.78,0,.78-.74,0-.83-.97-1.26-1.79-1.26-1.08,0-2.72.7-2.72,2.98,0,1.42.99,2.64,2.47,2.64.91,0,1.67-.46,2.2-1.21l-.21-.21h0Z"/>
          <path class="cls-2" d="M203.71,23.19c0-1.59.39-1.85.82-1.85.4,0,.55.29.62.54.09.35.09.95.1,1.3h-1.55ZM206.46,25c-.22.26-.62.77-1.3.77-1.1,0-1.35-1.18-1.39-2.16h2.91c-.03-.62-.18-2.63-2.19-2.63-1.33,0-2.38,1.09-2.38,2.79,0,1.97,1.18,2.83,2.34,2.83.92,0,1.58-.37,2.29-1.44l-.28-.16h0Z"/>
          <path class="cls-2" d="M215.84,25.95c-.66-.02-.68-.36-.68-.67v-6.64h-2.48v.28c.63.05.88.06.88.67v2.11c-.28-.3-.67-.72-1.36-.72-1.08,0-2.23.96-2.23,2.97,0,1.68,1.06,2.66,2.02,2.66.87,0,1.19-.32,1.6-.76v.75c.72-.2.82-.21,2.25-.38v-.27h0ZM213.55,25.15c0,.13-.43.81-.96.81-.92,0-.92-1.5-.92-2.17,0-1.12.16-2.16.98-2.16.65,0,.9.7.9.72v2.81h0Z"/>
          <path class="cls-2" d="M217.93,23.19c0-1.59.39-1.85.82-1.85.4,0,.55.29.62.54.09.35.09.95.1,1.3h-1.55ZM220.68,25c-.22.26-.62.77-1.3.77-1.1,0-1.35-1.18-1.39-2.16h2.91c-.03-.62-.18-2.63-2.19-2.63-1.33,0-2.38,1.09-2.38,2.79,0,1.97,1.18,2.83,2.34,2.83.92,0,1.58-.37,2.29-1.44l-.28-.16h0Z"/>
        </g>
        <g>
          <path class="cls-1" d="M372.42,32.98l-.53-8.3c-.07-.2-.39-.2-.4,0-.03,1.79-3.19.29-4.31.03-9.76-2.22-16.33,5.61-16.33,12.11h0c0,8.43,5.58,13.01,12.74,13.01,5.71,0,8.6-3.65,9.53-7.6.12-.5-.44-.39-.57,0-1.73,5.51-6.01,6.9-8.13,6.87-4.61-.06-8.9-3.78-9.06-12.28-.2-10.82,12.02-17.9,16.66-3.98.1.3.33.37.4.13h0Z"/>
          <path class="cls-1" d="M376.4,34.31c2.52-1.06,9.36-.73,9.36,2.39v9.59c0,2.62,2.59,3.52,3.32,1.76.23-.23.63-.06.43.33-.46,1.86-5.04,2.16-6.64-.33-8.8,6.41-14.41-6.21-3.88-6.4,3.28-.5,3.65-2.39,3.65-3.72,0-3.28-1.73-3.58-2.76-3.58-1.09,0-1.99.33-2.59,2.02-.93,3.39-6.01.37-.9-2.06h0ZM378.66,49.08c2.09.27,3.95-1.63,3.95-3.48v-4.51c-8.93,3.28-6.14,7.87-3.95,8h0Z"/>
          <path class="cls-1" d="M394.16,33.98l-4.28.57c-.27.06-.27.2.23.33.93.03,1.52.66,1.52,2.02v9.99c0,1.2-1.67,2.24-2.02,2.39-.8.33.4.27.4.27h7c.23,0,.96.06.03-.37-1.06-.4-2.22-1.26-2.22-2.29v-7.5c0-3.15,2.06-4.88,4.08-4.88,2.13,0,3.88.46,3.88,4.85v7.53c0,1.1-1.43,2.09-2.19,2.36-.5.13-.7.3-.26.3h7.47c.4.03.57-.1.2-.2-1.79-.7-2.02-2.02-2.02-2.46v-8.76c0-5.01-4.81-4.35-6.5-4.35-2.12.03-4.38,1.36-4.61,1.96-.06-1.63-.26-1.79-.7-1.76h0Z"/>
          <path class="cls-1" d="M435.98,48.32c-.73,1.26-2.52,1.56-4.75,1.56-4.22,0-7.67-3.25-7.67-7.7,0-3.95,2.22-8.39,7.9-8.39,5.11,0,5.08,3.42,5.08.56v-5.01c0-2.59-1.03-3.35-1.83-3.59-1.16-.4-2.65-.46-.26-.46l4.45-.1c-.27.07.3.07.3.46v19.58c0,1.36.5,3.45,2.69,4.05.2.03.43.17.2.23l-4.85.53c-.7.07-1-.27-1.29-1.63M431.66,49.08c2.64,0,4.41-1.03,4.41-7.2s-1.77-7.3-4.41-7.3-4.79,3.43-4.79,7.37,2.14,7.13,4.79,7.13h0Z"/>
          <path class="cls-1" d="M411.45,34.29c2.52-1.06,9.36-.73,9.36,2.39v9.59c0,2.62,2.59,3.52,3.32,1.76.23-.23.63-.07.43.33-.46,1.86-5.04,2.16-6.64-.33-8.8,6.41-14.4-6.21-3.88-6.41,3.28-.5,3.65-2.39,3.65-3.72,0-3.28-1.72-3.58-2.75-3.58-1.1,0-1.99.33-2.59,2.02-.93,3.38-6.01.36-.9-2.06h0ZM413.71,49.06c2.09.26,3.95-1.63,3.95-3.48v-4.51c-8.93,3.28-6.14,7.87-3.95,8h0Z"/>
          <path class="cls-1" d="M445.17,34.33c2.52-1.06,9.36-.73,9.36,2.39v9.59c0,2.62,2.59,3.52,3.32,1.76.23-.23.63-.07.43.33-.46,1.86-5.04,2.16-6.64-.33-8.79,6.4-14.4-6.21-3.88-6.41,3.28-.5,3.65-2.39,3.65-3.72,0-3.28-1.73-3.59-2.76-3.59-1.09,0-1.99.33-2.59,2.02-.93,3.39-6.01.37-.9-2.06h0ZM447.43,49.1c2.09.26,3.95-1.63,3.95-3.49v-4.51c-8.93,3.29-6.14,7.87-3.95,8h0Z"/>
          <polygon class="cls-4" points="441.29 25.18 444.94 25.18 444.94 32.62 441.29 32.62 441.29 25.18 441.29 25.18"/>
          <polygon class="cls-4" points="453.03 25.18 456.68 25.18 456.68 32.62 453.03 32.62 453.03 25.18 453.03 25.18"/>
          <path class="cls-4" d="M448.48,26.73l.52-1.06.52,1.02c.07.11.12.1.22.05l.44-.22-.29,1.43c-.06.28.1.36.27.17l.63-.68.17.38c.06.12.14.1.25.08l.66-.14-.22.83v.02c-.03.11-.08.2.04.25l.23.12-1.35,1.14c-.14.14-.09.19-.04.35l.13.39-1.26-.23c-.15-.04-.26-.04-.27.09l.05,1.45h-.38l.05-1.44c0-.14-.11-.14-.36-.09l-1.16.22.15-.39c.05-.15.06-.24-.05-.35l-1.38-1.13.25-.15c.07-.06.08-.12.04-.24l-.26-.84.67.14c.19.04.24,0,.28-.1l.19-.38.65.74c.12.14.28.05.23-.15l-.32-1.55.49.28c.08.05.16.06.21-.03"/>
        </g>
      </g>
    </g>
  </g>
</svg>