<?xml version="1.0" encoding="utf-8"?>
<!-- Generator: Adobe Illustrator 27.9.2, SVG Export Plug-In . SVG Version: 6.00 Build 0)  -->
<svg version="1.1" id="Signature_x5F_black_x5F_and_x5F_red-french_00000134945707433900195980000002829898055874028948_"
	 xmlns="http://www.w3.org/2000/svg" xmlns:xlink="http://www.w3.org/1999/xlink" x="0px" y="0px" viewBox="0 0 1557 146"
	 style="enable-background:new 0 0 1557 146;" xml:space="preserve">
<style type="text/css">
	.st0{fill:#EB2D37;}
</style>
<g id="Signature_x5F_black_x5F_and_x5F_red-french">
	<g id="FR">
		<path d="M407.55,40.22h-25.01l-6.33,15.98h-6.79l21.92-54.95h7.26l22.23,54.95h-6.87L407.55,40.22z M405.23,34.35l-0.31-0.69
			c-2.39-5.95-6.72-16.91-10.03-25.4c-3.16,8.49-7.41,19.45-9.8,25.47l-0.23,0.62H405.23z"/>
		<path d="M461.61,16.37v38.28c0,10.34-5.94,17.6-18.52,17.6c-10.19,0-16.13-5.09-16.98-12.81h6.17c0.77,5.02,4.55,7.56,10.81,7.56
			c7.95,0,12.35-4.09,12.35-12.35v-3.86c-3.01,4.02-7.64,6.33-13.35,6.33c-11.19,0-18.52-8.1-18.52-20.84
			c0-12.73,7.33-20.84,18.52-20.84c5.94,0,10.65,2.47,13.66,6.72v-5.79H461.61z M455.67,36.28c0-9.65-5.09-15.28-12.81-15.28
			c-7.72,0-12.81,5.94-12.81,15.28s5.09,15.28,12.81,15.28C450.57,51.56,455.67,45.92,455.67,36.28z"/>
		<path d="M505.63,38.44h-30.26c0.62,8.96,5.33,13.05,12.27,13.05c5.63,0,9.19-2.93,10.57-7.41h6.41
			c-1.93,7.49-7.64,13.04-17.14,13.04c-10.89,0-18.52-7.95-18.52-20.84c0-12.5,7.33-20.84,18.37-20.84
			c11.88,0,18.29,9.42,18.29,20.84V38.44z M475.53,32.88h23.47c-0.62-6.56-4.56-11.81-11.65-11.81
			C481.08,21.07,476.53,25.01,475.53,32.88z"/>
		<path d="M545.4,29.26v26.94h-6.17V29.87c0-6.18-3.4-8.87-9.11-8.87c-5.17,0-10.96,3.86-10.96,12.66v22.54h-6.17V16.37h5.87v5.94
			c2.62-4.01,6.94-6.87,12.5-6.87C540.23,15.44,545.4,20.46,545.4,29.26z"/>
		<path d="M552.76,36.28c0-12.81,7.41-20.84,18.45-20.84c9.49,0,15.9,5.64,17.14,14.44h-6.41c-1.08-6.02-5.71-8.87-10.73-8.87
			c-6.79,0-11.96,4.86-11.96,15.28s5.33,15.28,11.96,15.28c5.09,0,9.73-2.93,10.81-9.03h6.33c-1.31,9.11-8.18,14.59-17.14,14.59
			C560.32,57.12,552.76,49.09,552.76,36.28z"/>
		<path d="M629.66,38.44H599.4c0.62,8.96,5.33,13.05,12.27,13.05c5.63,0,9.19-2.93,10.57-7.41h6.41
			c-1.93,7.49-7.64,13.04-17.14,13.04c-10.89,0-18.52-7.95-18.52-20.84c0-12.5,7.33-20.84,18.37-20.84
			c11.88,0,18.29,9.42,18.29,20.84V38.44z M599.55,32.88h23.46c-0.62-6.56-4.55-11.81-11.65-11.81
			C605.11,21.07,600.56,25.01,599.55,32.88z"/>
		<path d="M648.83,43.53h6.25c0.69,6.02,3.63,8.26,10.65,8.26c6.72,0,9.57-2.24,9.57-6.18c0-3.55-2.16-5.17-9.11-6.48l-3.7-0.7
			c-8.65-1.62-12.43-5.56-12.43-11.73c0-6.79,5.4-11.27,14.51-11.27c10.65,0,16.05,4.71,16.21,13.2h-6.17
			c-0.31-6.17-3.94-7.87-10.03-7.87c-5.33,0-8.34,2.16-8.34,5.86c0,3.78,2.93,5.17,8.03,6.18l3.55,0.69
			c9.8,1.93,13.74,5.25,13.74,11.73c0,7.56-6.02,11.88-15.82,11.88C655.62,57.12,649.44,52.87,648.83,43.53z"/>
		<path d="M725.8,36.28c0,12.74-7.33,20.84-18.52,20.84c-5.79,0-10.34-2.39-13.35-6.64v20.84h-6.17V16.37h5.86v6.17
			c3.01-4.55,7.72-7.1,13.66-7.1C718.47,15.44,725.8,23.54,725.8,36.28z M719.32,35.97c0-9.65-5.09-14.97-12.81-14.97
			c-7.72,0-12.81,5.63-12.81,15.28s5.09,15.28,12.81,15.28C714.22,51.56,719.32,45.61,719.32,35.97z"/>
		<path d="M767.2,51.17v5.02c-1,0.15-2.24,0.23-3.39,0.23c-4.4,0-6.41-1.93-6.72-5.71c-2.78,4.24-7.26,6.4-12.97,6.4
			c-8.64,0-14.05-4.17-14.05-11.65c0-6.25,3.78-11.19,14.74-12.35l5.71-0.62c4.01-0.46,6.25-1.93,6.25-5.48
			c0-4.17-2.16-6.25-8.96-6.25c-6.79,0-9.65,1.93-10.03,7.87h-6.17c0.47-7.72,4.55-13.2,16.21-13.2c11.04,0,14.97,4.86,14.97,11.58
			v22.23c0,1.24,0.69,1.93,2.16,1.93H767.2z M756.78,40.44v-4.71c-1.24,0.93-2.93,1.47-5.25,1.7l-5.79,0.7
			c-7.26,0.85-9.26,3.32-9.26,7.18c0,3.93,2.47,6.56,7.95,6.56C750.37,51.87,756.78,48.32,756.78,40.44z"/>
		<path d="M780.34,21.76v25.86c0,2.08,1.01,3.39,4.55,3.39h3.63v5.17c-1.7,0.15-3.16,0.23-4.4,0.23c-6.17,0-9.96-2.16-9.96-8.26
			v-26.4h-6.56v-5.4h6.56V5.1h6.17v11.27h8.18v5.4H780.34z"/>
		<path d="M794.86,2.78h6.56v7.57h-6.56V2.78z M795.1,16.37h6.17v39.83h-6.17V16.37z"/>
		<path d="M845.35,51.17v5.02c-1,0.15-2.24,0.23-3.39,0.23c-4.4,0-6.41-1.93-6.72-5.71c-2.78,4.24-7.26,6.4-12.97,6.4
			c-8.64,0-14.05-4.17-14.05-11.65c0-6.25,3.78-11.19,14.74-12.35l5.71-0.62c4.01-0.46,6.25-1.93,6.25-5.48
			c0-4.17-2.16-6.25-8.96-6.25c-6.79,0-9.65,1.93-10.03,7.87h-6.17c0.47-7.72,4.55-13.2,16.21-13.2c11.04,0,14.97,4.86,14.97,11.58
			v22.23c0,1.24,0.69,1.93,2.16,1.93H845.35z M834.93,40.44v-4.71c-1.24,0.93-2.93,1.47-5.25,1.7l-5.79,0.7
			c-7.26,0.85-9.26,3.32-9.26,7.18c0,3.93,2.47,6.56,7.95,6.56C828.52,51.87,834.93,48.32,834.93,40.44z"/>
		<path d="M850.39,1.24h6.17v54.95h-6.17V1.24z"/>
		<path d="M900.57,38.44h-30.26c0.62,8.96,5.33,13.05,12.27,13.05c5.63,0,9.19-2.93,10.57-7.41h6.41
			c-1.93,7.49-7.64,13.04-17.14,13.04c-10.89,0-18.52-7.95-18.52-20.84c0-12.5,7.33-20.84,18.37-20.84
			c11.88,0,18.29,9.42,18.29,20.84V38.44z M870.46,32.88h23.47c-0.62-6.56-4.56-11.81-11.65-11.81
			C876.02,21.07,871.47,25.01,870.46,32.88z"/>
		<path d="M370.97,110.03c0-12.81,7.41-20.84,18.45-20.84c9.49,0,15.9,5.64,17.14,14.44h-6.41c-1.08-6.02-5.71-8.87-10.73-8.87
			c-6.79,0-11.96,4.86-11.96,15.28s5.33,15.28,11.96,15.28c5.09,0,9.73-2.93,10.81-9.03h6.33c-1.31,9.11-8.18,14.59-17.14,14.59
			C378.53,130.87,370.97,122.84,370.97,110.03z"/>
		<path d="M447.94,124.92v5.02c-1,0.15-2.24,0.23-3.39,0.23c-4.4,0-6.41-1.93-6.72-5.71c-2.78,4.24-7.26,6.4-12.97,6.4
			c-8.64,0-14.05-4.17-14.05-11.65c0-6.25,3.78-11.19,14.74-12.35l5.71-0.62c4.01-0.46,6.25-1.93,6.25-5.48
			c0-4.17-2.16-6.25-8.96-6.25c-6.79,0-9.65,1.93-10.03,7.87h-6.17c0.47-7.72,4.55-13.2,16.21-13.2c11.04,0,14.97,4.86,14.97,11.58
			v22.23c0,1.24,0.69,1.93,2.16,1.93H447.94z M437.52,114.19v-4.71c-1.24,0.93-2.93,1.47-5.25,1.7l-5.79,0.7
			c-7.26,0.85-9.26,3.32-9.26,7.18c0,3.93,2.47,6.56,7.95,6.56C431.12,125.62,437.52,122.07,437.52,114.19z"/>
		<path d="M485.78,103.01v26.94h-6.17v-26.32c0-6.18-3.4-8.87-9.11-8.87c-5.17,0-10.96,3.86-10.96,12.66v22.54h-6.17V90.12h5.86
			v5.94c2.63-4.01,6.95-6.87,12.51-6.87C480.61,89.19,485.78,94.21,485.78,103.01z"/>
		<path d="M529.88,124.92v5.02c-1,0.15-2.24,0.23-3.39,0.23c-4.4,0-6.41-1.93-6.72-5.71c-2.78,4.24-7.26,6.4-12.97,6.4
			c-8.64,0-14.05-4.17-14.05-11.65c0-6.25,3.78-11.19,14.74-12.35l5.71-0.62c4.01-0.46,6.25-1.93,6.25-5.48
			c0-4.17-2.16-6.25-8.95-6.25c-6.79,0-9.65,1.93-10.03,7.87h-6.17c0.46-7.72,4.55-13.2,16.21-13.2c11.04,0,14.97,4.86,14.97,11.58
			v22.23c0,1.24,0.69,1.93,2.16,1.93H529.88z M519.46,114.19v-4.71c-1.23,0.93-2.93,1.47-5.25,1.7l-5.79,0.7
			c-7.26,0.85-9.26,3.32-9.26,7.18c0,3.93,2.47,6.56,7.95,6.56C513.05,125.62,519.46,122.07,519.46,114.19z"/>
		<path d="M571.04,74.99v54.95h-5.87v-6.18c-3.01,4.56-7.72,7.1-13.66,7.1c-11.19,0-18.52-8.1-18.52-20.84
			c0-12.73,7.33-20.84,18.52-20.84c5.79,0,10.34,2.39,13.35,6.64V74.99H571.04z M565.1,110.03c0-9.65-5.09-15.28-12.81-15.28
			c-7.72,0-12.81,5.94-12.81,15.59s5.09,14.98,12.81,14.98C560,125.31,565.1,119.67,565.1,110.03z"/>
		<path d="M580.09,76.53h6.56v7.57h-6.56V76.53z M580.33,90.12h6.17v39.83h-6.17V90.12z"/>
		<path d="M630.5,112.19h-30.26c0.62,8.96,5.33,13.05,12.27,13.05c5.63,0,9.19-2.93,10.57-7.41h6.41
			c-1.93,7.49-7.64,13.04-17.14,13.04c-10.89,0-18.52-7.95-18.52-20.84c0-12.5,7.33-20.84,18.37-20.84
			c11.88,0,18.29,9.42,18.29,20.84V112.19z M600.4,106.63h23.46c-0.62-6.56-4.55-11.81-11.65-11.81
			C605.96,94.82,601.41,98.76,600.4,106.63z"/>
		<path d="M670.28,103.01v26.94h-6.17v-26.32c0-6.18-3.4-8.87-9.11-8.87c-5.17,0-10.96,3.86-10.96,12.66v22.54h-6.17V90.12h5.86
			v5.94c2.63-4.01,6.95-6.87,12.51-6.87C665.1,89.19,670.28,94.21,670.28,103.01z"/>
		<path d="M711.98,103.01v26.94h-6.17v-26.32c0-6.18-3.4-8.87-9.11-8.87c-5.17,0-10.96,3.86-10.96,12.66v22.54h-6.17V90.12h5.87
			v5.94c2.62-4.01,6.94-6.87,12.5-6.87C706.81,89.19,711.98,94.21,711.98,103.01z"/>
		<path d="M756,112.19h-30.26c0.62,8.96,5.33,13.05,12.27,13.05c5.63,0,9.19-2.93,10.57-7.41h6.41
			c-1.93,7.49-7.64,13.04-17.14,13.04c-10.89,0-18.52-7.95-18.52-20.84c0-12.5,7.33-20.84,18.37-20.84
			c11.88,0,18.29,9.42,18.29,20.84V112.19z M725.9,106.63h23.46c-0.62-6.56-4.55-11.81-11.65-11.81
			C731.45,94.82,726.9,98.76,725.9,106.63z"/>
	</g>
	<g id="EN">
		<path d="M1014.11,28.71c0-17.83,10.73-28.71,25.39-28.71c10.81,0,20.61,5.64,23.39,18.91h-6.56c-2.47-9.57-9.41-12.97-16.82-12.97
			c-11.11,0-18.6,8.42-18.6,22.77s7.49,22.77,18.6,22.77c7.8,0,15.82-4.71,17.21-15.28h6.48c-1.39,14.36-12.42,21.23-23.69,21.23
			C1024.83,57.43,1014.11,46.54,1014.11,28.71z"/>
		<path d="M1104.98,51.18v5.02c-1,0.16-2.24,0.23-3.39,0.23c-4.4,0-6.4-1.93-6.71-5.71c-2.78,4.25-7.26,6.41-12.97,6.41
			c-8.64,0-14.05-4.17-14.05-11.66c0-6.25,3.78-11.19,14.74-12.35l5.71-0.62c4.01-0.47,6.25-1.93,6.25-5.48
			c0-4.17-2.16-6.25-8.96-6.25c-6.79,0-9.65,1.93-10.04,7.87h-6.17c0.47-7.72,4.55-13.2,16.21-13.2c11.04,0,14.97,4.86,14.97,11.58
			v22.23c0,1.23,0.7,1.93,2.16,1.93H1104.98z M1094.56,40.45v-4.71c-1.24,0.92-2.93,1.46-5.25,1.7l-5.79,0.69
			c-7.25,0.85-9.26,3.32-9.26,7.18c0,3.93,2.47,6.55,7.95,6.55C1088.15,51.87,1094.56,48.32,1094.56,40.45z"/>
		<path d="M1142.82,29.26v26.94h-6.18V29.87c0-6.17-3.39-8.87-9.11-8.87c-5.17,0-10.96,3.86-10.96,12.66v22.54h-6.17V16.37h5.86
			v5.95c2.63-4.02,6.94-6.87,12.51-6.87C1137.65,15.44,1142.82,20.46,1142.82,29.26z"/>
		<path d="M1186.92,51.18v5.02c-1.01,0.16-2.24,0.23-3.39,0.23c-4.4,0-6.41-1.93-6.72-5.71c-2.78,4.25-7.25,6.41-12.97,6.41
			c-8.65,0-14.05-4.17-14.05-11.66c0-6.25,3.78-11.19,14.74-12.35l5.71-0.62c4.02-0.47,6.25-1.93,6.25-5.48
			c0-4.17-2.16-6.25-8.96-6.25c-6.79,0-9.65,1.93-10.03,7.87h-6.18c0.46-7.72,4.56-13.2,16.21-13.2c11.04,0,14.98,4.86,14.98,11.58
			v22.23c0,1.23,0.69,1.93,2.16,1.93H1186.92z M1176.5,40.45v-4.71c-1.23,0.92-2.93,1.46-5.25,1.7l-5.79,0.69
			c-7.26,0.85-9.26,3.32-9.26,7.18c0,3.93,2.47,6.55,7.95,6.55C1170.09,51.87,1176.5,48.32,1176.5,40.45z"/>
		<path d="M1228.08,1.24v54.95h-5.86v-6.17c-3.01,4.55-7.72,7.1-13.66,7.1c-11.19,0-18.52-8.11-18.52-20.84
			c0-12.74,7.33-20.84,18.52-20.84c5.79,0,10.34,2.39,13.35,6.64V1.24H1228.08z M1222.14,36.28c0-9.65-5.1-15.28-12.81-15.28
			c-7.72,0-12.81,5.95-12.81,15.59s5.1,14.97,12.81,14.97C1217.04,51.56,1222.14,45.93,1222.14,36.28z"/>
		<path d="M1237.13,2.78h6.56v7.56h-6.56V2.78z M1237.36,16.37h6.18v39.83h-6.18V16.37z"/>
		<path d="M1287.62,51.18v5.02c-1,0.16-2.24,0.23-3.39,0.23c-4.4,0-6.4-1.93-6.71-5.71c-2.78,4.25-7.26,6.41-12.97,6.41
			c-8.64,0-14.05-4.17-14.05-11.66c0-6.25,3.78-11.19,14.74-12.35l5.71-0.62c4.01-0.47,6.25-1.93,6.25-5.48
			c0-4.17-2.16-6.25-8.96-6.25c-6.79,0-9.65,1.93-10.04,7.87h-6.17c0.47-7.72,4.55-13.2,16.21-13.2c11.04,0,14.97,4.86,14.97,11.58
			v22.23c0,1.23,0.7,1.93,2.16,1.93H1287.62z M1277.2,40.45v-4.71c-1.24,0.92-2.93,1.46-5.25,1.7l-5.79,0.69
			c-7.25,0.85-9.26,3.32-9.26,7.18c0,3.93,2.47,6.55,7.95,6.55C1270.79,51.87,1277.2,48.32,1277.2,40.45z"/>
		<path d="M1325.46,29.26v26.94h-6.18V29.87c0-6.17-3.39-8.87-9.11-8.87c-5.17,0-10.96,3.86-10.96,12.66v22.54h-6.17V16.37h5.86
			v5.95c2.63-4.02,6.94-6.87,12.51-6.87C1320.29,15.44,1325.46,20.46,1325.46,29.26z"/>
		<path d="M1347.1,38.05h6.72c0.15,10.19,7.18,13.51,16.13,13.51c8.8,0,13.9-3.47,13.9-10.26c0-5.25-3.63-7.79-13.35-9.95
			l-4.86-1.08c-9.34-2.09-16.67-5.87-16.67-15.9c0-8.8,7.33-14.36,18.75-14.36c16.21,0,21.23,8.26,21.46,17.21h-6.64
			c-0.54-7.1-3.86-11.34-14.82-11.34c-7.95,0-12.04,3.32-12.04,8.49c0,5.25,2.55,7.87,12.89,10.19l4.86,1.08
			c12.66,2.78,17.14,7.72,17.14,15.67c0,9.72-7.41,16.13-20.61,16.13C1356.83,57.43,1347.26,51.79,1347.1,38.05z"/>
		<path d="M1435.19,36.28c0,12.73-7.33,20.84-18.52,20.84c-5.79,0-10.34-2.39-13.35-6.64v20.84h-6.17V16.37h5.86v6.18
			c3.01-4.56,7.72-7.1,13.66-7.1C1427.87,15.44,1435.19,23.54,1435.19,36.28z M1428.71,35.97c0-9.65-5.1-14.98-12.81-14.98
			c-7.72,0-12.81,5.64-12.81,15.28s5.1,15.28,12.81,15.28C1423.62,51.56,1428.71,45.62,1428.71,35.97z"/>
		<path d="M1476.59,51.18v5.02c-1,0.16-2.24,0.23-3.39,0.23c-4.4,0-6.4-1.93-6.71-5.71c-2.78,4.25-7.26,6.41-12.97,6.41
			c-8.64,0-14.05-4.17-14.05-11.66c0-6.25,3.78-11.19,14.74-12.35l5.71-0.62c4.01-0.47,6.25-1.93,6.25-5.48
			c0-4.17-2.16-6.25-8.96-6.25c-6.79,0-9.65,1.93-10.04,7.87h-6.17c0.47-7.72,4.55-13.2,16.21-13.2c11.04,0,14.97,4.86,14.97,11.58
			v22.23c0,1.23,0.7,1.93,2.16,1.93H1476.59z M1466.18,40.45v-4.71c-1.24,0.92-2.93,1.46-5.25,1.7l-5.79,0.69
			c-7.25,0.85-9.26,3.32-9.26,7.18c0,3.93,2.47,6.55,7.95,6.55C1459.77,51.87,1466.18,48.32,1466.18,40.45z"/>
		<path d="M1479.7,36.28c0-12.81,7.41-20.84,18.45-20.84c9.5,0,15.9,5.63,17.14,14.43h-6.41c-1.08-6.02-5.71-8.87-10.73-8.87
			c-6.79,0-11.96,4.86-11.96,15.28s5.32,15.28,11.96,15.28c5.1,0,9.73-2.93,10.81-9.03h6.33c-1.31,9.11-8.18,14.59-17.14,14.59
			C1487.27,57.12,1479.7,49.09,1479.7,36.28z"/>
		<path d="M1556.6,38.44h-30.26c0.62,8.95,5.33,13.04,12.27,13.04c5.64,0,9.19-2.93,10.58-7.41h6.4
			c-1.93,7.49-7.64,13.05-17.13,13.05c-10.89,0-18.53-7.95-18.53-20.84c0-12.51,7.33-20.84,18.37-20.84
			c11.88,0,18.29,9.41,18.29,20.84V38.44z M1526.5,32.88h23.47c-0.62-6.56-4.56-11.81-11.66-11.81
			C1532.05,21.07,1527.5,25.01,1526.5,32.88z"/>
		<path d="M1050.69,113.97h-25.01l-6.33,15.98h-6.79l21.92-54.95h7.25l22.23,54.95h-6.87L1050.69,113.97z M1048.37,108.1l-0.31-0.7
			c-2.39-5.95-6.71-16.9-10.03-25.39c-3.17,8.49-7.41,19.44-9.8,25.47l-0.23,0.62H1048.37z"/>
		<path d="M1104.74,90.12v38.29c0,10.34-5.94,17.6-18.52,17.6c-10.19,0-16.13-5.1-16.98-12.81h6.17c0.77,5.02,4.56,7.57,10.81,7.57
			c7.95,0,12.35-4.09,12.35-12.35v-3.86c-3.01,4.01-7.64,6.33-13.35,6.33c-11.19,0-18.52-8.11-18.52-20.84
			c0-12.74,7.33-20.84,18.52-20.84c5.95,0,10.65,2.47,13.66,6.71v-5.79H1104.74z M1098.81,110.03c0-9.65-5.1-15.28-12.81-15.28
			c-7.72,0-12.81,5.95-12.81,15.28s5.1,15.28,12.81,15.28C1093.71,125.31,1098.81,119.68,1098.81,110.03z"/>
		<path d="M1148.77,112.19h-30.26c0.62,8.95,5.33,13.04,12.27,13.04c5.64,0,9.19-2.93,10.58-7.41h6.4
			c-1.93,7.49-7.64,13.05-17.13,13.05c-10.89,0-18.53-7.95-18.53-20.84c0-12.51,7.33-20.84,18.37-20.84
			c11.88,0,18.29,9.41,18.29,20.84V112.19z M1118.67,106.63h23.47c-0.62-6.56-4.56-11.81-11.66-11.81
			C1124.22,94.82,1119.67,98.76,1118.67,106.63z"/>
		<path d="M1188.54,103.01v26.94h-6.17v-26.32c0-6.17-3.4-8.87-9.11-8.87c-5.17,0-10.96,3.86-10.96,12.66v22.54h-6.18V90.12h5.87
			v5.95c2.62-4.02,6.94-6.87,12.5-6.87C1183.37,89.19,1188.54,94.21,1188.54,103.01z"/>
		<path d="M1195.9,110.03c0-12.81,7.41-20.84,18.45-20.84c9.49,0,15.9,5.63,17.13,14.43h-6.4c-1.08-6.02-5.71-8.87-10.73-8.87
			c-6.79,0-11.97,4.86-11.97,15.28s5.33,15.28,11.97,15.28c5.09,0,9.72-2.93,10.8-9.03h6.33c-1.31,9.11-8.18,14.59-17.13,14.59
			C1203.46,130.87,1195.9,122.84,1195.9,110.03z"/>
		<path d="M1269.25,90.12l-16.83,46.08c-2.55,7.03-6.64,9.11-12.97,9.11c-1.23,0-2.39-0.08-3.7-0.23v-5.17h3.63
			c3.93,0,6.02-1.78,7.25-4.94c0.47-1.16,0.93-2.47,1.39-3.71l-14.97-41.14h6.79l5.64,16.6c2,5.79,3.86,11.49,5.71,17.21
			c1.77-5.71,3.7-11.5,5.71-17.29l5.63-16.52H1269.25z"/>
	</g>
	<g id="flag_00000121267959239395794300000010412437186316828822_">
		<rect x="193.07" y="1.23" class="st0" width="64.36" height="128.71"/>
		<path class="st0" d="M102.56,86.75c-0.22-0.2-23.24-20.11-23.24-20.11l3.56-1.79c0.53-0.25,0.9-0.55,1.17-0.87
			c0.79-0.99,0.57-2.24,0.34-3.19c-0.09-0.32-3.97-13.84-3.97-13.84s10.98,2.35,11.68,2.45c0.23,0.04,0.44,0.06,0.63,0.06
			c0.17,0,0.49-0.03,0.49-0.03c0.94-0.16,1.4-0.86,1.76-1.77c0.14-0.29,2.82-6.77,2.82-6.77s11.78,13,11.85,13.06
			c0.83,0.75,1.65,1.01,2.34,0.91c0.14-0.02,0.26-0.08,0.38-0.13c0.91-0.34,1.47-1.36,1.26-2.66c-0.19-1.18-5.96-27.77-5.96-27.77
			s6.18,3.67,8.23,4.85c1,0.61,1.77,0.85,2.42,0.71c0.65-0.15,1.19-0.69,1.71-1.67c0.31-0.54,8.7-17.12,8.7-17.12
			s8.39,16.58,8.7,17.12c0.52,0.98,1.06,1.53,1.71,1.67c0.65,0.14,1.42-0.11,2.42-0.71c2.05-1.18,8.23-4.85,8.23-4.85
			s-5.77,26.6-5.96,27.77c-0.22,1.3,0.35,2.32,1.26,2.66c0.13,0.05,0.24,0.11,0.38,0.13c0.68,0.1,1.5-0.16,2.34-0.91
			c0.07-0.06,11.85-13.06,11.85-13.06s2.68,6.48,2.82,6.77c0.36,0.92,0.82,1.61,1.76,1.77c0,0,0.32,0.04,0.49,0.03
			c0.19,0,0.4-0.02,0.63-0.06c0.7-0.1,11.68-2.45,11.68-2.45s-3.88,13.52-3.97,13.84c-0.23,0.95-0.46,2.2,0.34,3.19
			c0.27,0.32,0.64,0.62,1.17,0.87l3.56,1.79c0,0-23.02,19.9-23.24,20.11c-0.66,0.62-1.26,1.57-0.47,4c0.19,0.56,2.65,7.64,2.65,7.64
			s-22.07-4.51-22.44-4.58c-0.53-0.12-1.05-0.16-1.52-0.13c-1.42,0.11-2.43,0.93-2.43,2.53c0,2.18,0.87,23.89,0.87,23.89h-5.61
			c0,0,0.87-21.7,0.87-23.89c0-1.6-1.01-2.42-2.43-2.53c-0.47-0.04-0.99,0.01-1.52,0.13c-0.37,0.07-22.44,4.58-22.44,4.58
			s2.46-7.09,2.65-7.64C103.81,88.31,103.22,87.36,102.56,86.75z"/>
		<rect x="0" y="1.23" class="st0" width="64.36" height="128.71"/>
	</g>
</g>
</svg>
