<?xml version="1.0" encoding="utf-8"?>
<!-- Generator: Adobe Illustrator 27.9.2, SVG Export Plug-In . SVG Version: 6.00 Build 0)  -->
<svg version="1.1" id="Signature_x5F_black_x5F_and_x5F_red-english_00000011723212581001914360000005011244560493021344_"
	 xmlns="http://www.w3.org/2000/svg" xmlns:xlink="http://www.w3.org/1999/xlink" x="0px" y="0px" viewBox="0 0 1557 146"
	 style="enable-background:new 0 0 1557 146;" xml:space="preserve">
<style type="text/css">
	.st0{fill:#EB2D37;}
</style>
<g id="Signature_x5F_black_x5F_and_x5F_red-english">
	<g id="FR">
		<path d="M1063.58,40.22h-25.01l-6.33,15.98h-6.79l21.92-54.95h7.25l22.23,54.95h-6.87L1063.58,40.22z M1061.26,34.35l-0.31-0.69
			c-2.39-5.95-6.71-16.9-10.03-25.39c-3.17,8.49-7.41,19.45-9.8,25.47l-0.23,0.62H1061.26z"/>
		<path d="M1117.64,16.37v38.28c0,10.34-5.94,17.6-18.52,17.6c-10.19,0-16.13-5.09-16.98-12.81h6.17c0.77,5.02,4.56,7.56,10.81,7.56
			c7.95,0,12.35-4.09,12.35-12.35v-3.86c-3.01,4.01-7.64,6.33-13.36,6.33c-11.19,0-18.52-8.1-18.52-20.84s7.33-20.84,18.52-20.84
			c5.95,0,10.65,2.47,13.66,6.72v-5.79H1117.64z M1111.7,36.28c0-9.65-5.1-15.28-12.81-15.28s-12.81,5.94-12.81,15.28
			s5.1,15.28,12.81,15.28S1111.7,45.93,1111.7,36.28z"/>
		<path d="M1161.66,38.44h-30.26c0.62,8.95,5.33,13.04,12.27,13.04c5.64,0,9.19-2.94,10.58-7.41h6.4
			c-1.93,7.49-7.64,13.04-17.13,13.04c-10.89,0-18.53-7.95-18.53-20.84c0-12.5,7.33-20.84,18.37-20.84c11.88,0,18.3,9.42,18.3,20.84
			V38.44z M1131.56,32.88h23.47c-0.62-6.56-4.56-11.81-11.66-11.81C1137.12,21.07,1132.57,25.01,1131.56,32.88z"/>
		<path d="M1201.44,29.26v26.94h-6.17V29.87c0-6.17-3.4-8.87-9.11-8.87c-5.17,0-10.96,3.86-10.96,12.66v22.54h-6.18V16.37h5.87v5.94
			c2.62-4.01,6.94-6.87,12.5-6.87C1196.26,15.44,1201.44,20.46,1201.44,29.26z"/>
		<path d="M1208.79,36.28c0-12.81,7.41-20.84,18.45-20.84c9.49,0,15.9,5.63,17.13,14.43h-6.4c-1.08-6.02-5.71-8.87-10.73-8.87
			c-6.79,0-11.97,4.86-11.97,15.28s5.33,15.28,11.97,15.28c5.09,0,9.72-2.93,10.8-9.03h6.33c-1.31,9.11-8.18,14.59-17.13,14.59
			C1216.36,57.12,1208.79,49.09,1208.79,36.28z"/>
		<path d="M1285.69,38.44h-30.26c0.62,8.95,5.32,13.04,12.27,13.04c5.63,0,9.18-2.94,10.57-7.41h6.41
			c-1.93,7.49-7.64,13.04-17.14,13.04c-10.89,0-18.52-7.95-18.52-20.84c0-12.5,7.33-20.84,18.37-20.84
			c11.88,0,18.29,9.42,18.29,20.84V38.44z M1255.59,32.88h23.46c-0.62-6.56-4.56-11.81-11.65-11.81
			C1261.15,21.07,1256.59,25.01,1255.59,32.88z"/>
		<path d="M1304.86,43.54h6.25c0.69,6.02,3.63,8.26,10.65,8.26c6.72,0,9.57-2.24,9.57-6.17c0-3.55-2.16-5.17-9.11-6.48l-3.7-0.69
			c-8.65-1.62-12.43-5.56-12.43-11.73c0-6.79,5.41-11.27,14.51-11.27c10.65,0,16.06,4.71,16.21,13.2h-6.17
			c-0.31-6.17-3.94-7.87-10.04-7.87c-5.32,0-8.33,2.16-8.33,5.87c0,3.78,2.93,5.17,8.03,6.17l3.55,0.69
			c9.8,1.93,13.74,5.25,13.74,11.73c0,7.56-6.02,11.89-15.83,11.89C1311.65,57.12,1305.48,52.87,1304.86,43.54z"/>
		<path d="M1381.84,36.28c0,12.74-7.33,20.84-18.52,20.84c-5.79,0-10.34-2.39-13.36-6.64v20.84h-6.17V16.37h5.86v6.17
			c3.01-4.55,7.72-7.1,13.66-7.1C1374.51,15.44,1381.84,23.54,1381.84,36.28z M1375.36,35.97c0-9.65-5.1-14.97-12.81-14.97
			s-12.81,5.63-12.81,15.28s5.1,15.28,12.81,15.28S1375.36,45.62,1375.36,35.97z"/>
		<path d="M1423.23,51.17v5.02c-1,0.15-2.24,0.23-3.39,0.23c-4.4,0-6.4-1.93-6.71-5.71c-2.78,4.25-7.26,6.41-12.97,6.41
			c-8.64,0-14.05-4.17-14.05-11.66c0-6.25,3.78-11.19,14.74-12.35l5.71-0.62c4.01-0.46,6.25-1.93,6.25-5.48
			c0-4.17-2.16-6.25-8.96-6.25c-6.79,0-9.65,1.93-10.04,7.87h-6.17c0.47-7.72,4.55-13.2,16.21-13.2c11.04,0,14.97,4.86,14.97,11.58
			v22.23c0,1.23,0.7,1.93,2.16,1.93H1423.23z M1412.82,40.45v-4.71c-1.24,0.93-2.94,1.47-5.25,1.7l-5.79,0.69
			c-7.25,0.85-9.26,3.32-9.26,7.18c0,3.93,2.47,6.56,7.95,6.56C1406.41,51.87,1412.82,48.32,1412.82,40.45z"/>
		<path d="M1436.38,21.77v25.86c0,2.08,1.01,3.39,4.56,3.39h3.63v5.17c-1.7,0.15-3.16,0.23-4.4,0.23c-6.17,0-9.96-2.16-9.96-8.26
			v-26.4h-6.56v-5.4h6.56V5.1h6.17v11.27h8.18v5.4H1436.38z"/>
		<path d="M1450.91,2.78h6.56v7.56h-6.56V2.78z M1451.14,16.37h6.17v39.83h-6.17V16.37z"/>
		<path d="M1501.39,51.17v5.02c-1,0.15-2.24,0.23-3.39,0.23c-4.4,0-6.4-1.93-6.71-5.71c-2.78,4.25-7.26,6.41-12.97,6.41
			c-8.64,0-14.05-4.17-14.05-11.66c0-6.25,3.78-11.19,14.74-12.35l5.71-0.62c4.01-0.46,6.25-1.93,6.25-5.48
			c0-4.17-2.16-6.25-8.96-6.25c-6.79,0-9.65,1.93-10.04,7.87h-6.17c0.46-7.72,4.55-13.2,16.21-13.2c11.04,0,14.97,4.86,14.97,11.58
			v22.23c0,1.23,0.7,1.93,2.16,1.93H1501.39z M1490.97,40.45v-4.71c-1.24,0.93-2.94,1.47-5.25,1.7l-5.79,0.69
			c-7.25,0.85-9.26,3.32-9.26,7.18c0,3.93,2.47,6.56,7.95,6.56C1484.56,51.87,1490.97,48.32,1490.97,40.45z"/>
		<path d="M1506.43,1.24h6.17v54.95h-6.17V1.24z"/>
		<path d="M1556.61,38.44h-30.26c0.62,8.95,5.33,13.04,12.27,13.04c5.64,0,9.19-2.94,10.58-7.41h6.4
			c-1.93,7.49-7.64,13.04-17.13,13.04c-10.89,0-18.53-7.95-18.53-20.84c0-12.5,7.33-20.84,18.37-20.84c11.88,0,18.3,9.42,18.3,20.84
			V38.44z M1526.51,32.88h23.47c-0.62-6.56-4.56-11.81-11.66-11.81C1532.06,21.07,1527.51,25.01,1526.51,32.88z"/>
		<path d="M1027,110.03c0-12.81,7.41-20.84,18.45-20.84c9.49,0,15.9,5.63,17.13,14.43h-6.4c-1.08-6.02-5.71-8.87-10.73-8.87
			c-6.79,0-11.97,4.86-11.97,15.28s5.33,15.28,11.97,15.28c5.09,0,9.72-2.93,10.8-9.03h6.33c-1.31,9.11-8.18,14.59-17.13,14.59
			C1034.56,130.87,1027,122.84,1027,110.03z"/>
		<path d="M1103.97,124.93v5.02c-1,0.15-2.24,0.23-3.39,0.23c-4.4,0-6.4-1.93-6.71-5.71c-2.78,4.25-7.26,6.41-12.97,6.41
			c-8.64,0-14.05-4.17-14.05-11.66c0-6.25,3.78-11.19,14.74-12.35l5.71-0.62c4.01-0.46,6.25-1.93,6.25-5.48
			c0-4.17-2.16-6.25-8.96-6.25c-6.79,0-9.65,1.93-10.04,7.87h-6.17c0.47-7.72,4.55-13.2,16.21-13.2c11.04,0,14.97,4.86,14.97,11.58
			V123c0,1.23,0.7,1.93,2.16,1.93H1103.97z M1093.56,114.2v-4.71c-1.24,0.93-2.93,1.47-5.25,1.7l-5.79,0.69
			c-7.25,0.85-9.26,3.32-9.26,7.18c0,3.93,2.47,6.56,7.95,6.56C1087.15,125.62,1093.56,122.07,1093.56,114.2z"/>
		<path d="M1141.82,103.01v26.94h-6.18v-26.32c0-6.17-3.39-8.87-9.11-8.87c-5.17,0-10.96,3.86-10.96,12.66v22.54h-6.17V90.12h5.86
			v5.94c2.63-4.01,6.94-6.87,12.51-6.87C1136.64,89.19,1141.82,94.21,1141.82,103.01z"/>
		<path d="M1185.91,124.93v5.02c-1.01,0.15-2.24,0.23-3.39,0.23c-4.4,0-6.41-1.93-6.72-5.71c-2.78,4.25-7.25,6.41-12.97,6.41
			c-8.65,0-14.05-4.17-14.05-11.66c0-6.25,3.78-11.19,14.74-12.35l5.71-0.62c4.02-0.46,6.25-1.93,6.25-5.48
			c0-4.17-2.16-6.25-8.96-6.25c-6.79,0-9.65,1.93-10.03,7.87h-6.18c0.47-7.72,4.56-13.2,16.21-13.2c11.04,0,14.98,4.86,14.98,11.58
			V123c0,1.23,0.69,1.93,2.16,1.93H1185.91z M1175.49,114.2v-4.71c-1.23,0.93-2.94,1.47-5.25,1.7l-5.79,0.69
			c-7.26,0.85-9.26,3.32-9.26,7.18c0,3.93,2.47,6.56,7.95,6.56C1169.09,125.62,1175.49,122.07,1175.49,114.2z"/>
		<path d="M1227.07,74.99v54.95h-5.86v-6.17c-3.01,4.55-7.72,7.1-13.66,7.1c-11.19,0-18.52-8.1-18.52-20.84s7.33-20.84,18.52-20.84
			c5.79,0,10.34,2.39,13.36,6.64V74.99H1227.07z M1221.13,110.03c0-9.65-5.1-15.28-12.81-15.28s-12.81,5.94-12.81,15.59
			s5.1,14.97,12.81,14.97S1221.13,119.68,1221.13,110.03z"/>
		<path d="M1236.13,76.53h6.56v7.56h-6.56V76.53z M1236.36,90.12h6.18v39.83h-6.18V90.12z"/>
		<path d="M1286.54,112.19h-30.26c0.62,8.95,5.32,13.04,12.27,13.04c5.63,0,9.18-2.94,10.57-7.41h6.41
			c-1.93,7.49-7.64,13.04-17.14,13.04c-10.89,0-18.52-7.95-18.52-20.84c0-12.5,7.33-20.84,18.37-20.84
			c11.88,0,18.29,9.42,18.29,20.84V112.19z M1256.44,106.63h23.46c-0.62-6.56-4.56-11.81-11.65-11.81
			C1262,94.83,1257.44,98.76,1256.44,106.63z"/>
		<path d="M1326.32,103.01v26.94h-6.18v-26.32c0-6.17-3.39-8.87-9.11-8.87c-5.17,0-10.96,3.86-10.96,12.66v22.54h-6.17V90.12h5.86
			v5.94c2.63-4.01,6.94-6.87,12.51-6.87C1321.14,89.19,1326.32,94.21,1326.32,103.01z"/>
		<path d="M1368.02,103.01v26.94h-6.17v-26.32c0-6.17-3.4-8.87-9.11-8.87c-5.17,0-10.96,3.86-10.96,12.66v22.54h-6.18V90.12h5.87
			v5.94c2.62-4.01,6.94-6.87,12.5-6.87C1362.84,89.19,1368.02,94.21,1368.02,103.01z"/>
		<path d="M1412.03,112.19h-30.26c0.62,8.95,5.32,13.04,12.27,13.04c5.63,0,9.18-2.94,10.57-7.41h6.41
			c-1.93,7.49-7.64,13.04-17.14,13.04c-10.89,0-18.52-7.95-18.52-20.84c0-12.5,7.33-20.84,18.37-20.84
			c11.88,0,18.29,9.42,18.29,20.84V112.19z M1381.94,106.63h23.46c-0.62-6.56-4.56-11.81-11.65-11.81
			C1387.49,94.83,1382.94,98.76,1381.94,106.63z"/>
	</g>
	<g id="EN">
		<path d="M370.98,28.72C370.98,10.89,381.71,0,396.37,0c10.81,0,20.61,5.64,23.39,18.91h-6.56c-2.47-9.57-9.41-12.97-16.82-12.97
			c-11.11,0-18.6,8.41-18.6,22.77c0,14.35,7.49,22.77,18.6,22.77c7.8,0,15.82-4.71,17.21-15.28h6.48
			c-1.39,14.36-12.43,21.23-23.69,21.23C381.71,57.43,370.98,46.55,370.98,28.72z"/>
		<path d="M461.85,51.17v5.02c-1,0.15-2.24,0.23-3.39,0.23c-4.4,0-6.41-1.93-6.72-5.71c-2.78,4.25-7.26,6.41-12.97,6.41
			c-8.64,0-14.05-4.17-14.05-11.66c0-6.25,3.78-11.19,14.74-12.35l5.71-0.62c4.01-0.46,6.25-1.93,6.25-5.48
			c0-4.17-2.16-6.25-8.96-6.25c-6.79,0-9.65,1.93-10.03,7.87h-6.17c0.47-7.72,4.55-13.2,16.21-13.2c11.04,0,14.97,4.86,14.97,11.58
			v22.23c0,1.23,0.69,1.93,2.16,1.93H461.85z M451.44,40.45v-4.71c-1.24,0.93-2.93,1.47-5.25,1.7l-5.79,0.69
			c-7.26,0.85-9.26,3.32-9.26,7.18c0,3.93,2.47,6.56,7.95,6.56C445.03,51.87,451.44,48.32,451.44,40.45z"/>
		<path d="M499.7,29.26v26.94h-6.17V29.87c0-6.17-3.4-8.87-9.11-8.87c-5.17,0-10.96,3.86-10.96,12.66v22.54h-6.17V16.37h5.86v5.94
			c2.63-4.01,6.95-6.87,12.51-6.87C494.53,15.44,499.7,20.46,499.7,29.26z"/>
		<path d="M543.79,51.17v5.02c-1,0.15-2.24,0.23-3.39,0.23c-4.4,0-6.41-1.93-6.72-5.71c-2.78,4.25-7.26,6.41-12.97,6.41
			c-8.64,0-14.05-4.17-14.05-11.66c0-6.25,3.78-11.19,14.74-12.35l5.71-0.62c4.01-0.46,6.25-1.93,6.25-5.48
			c0-4.17-2.16-6.25-8.95-6.25c-6.79,0-9.65,1.93-10.03,7.87h-6.17c0.46-7.72,4.55-13.2,16.21-13.2c11.04,0,14.97,4.86,14.97,11.58
			v22.23c0,1.23,0.69,1.93,2.16,1.93H543.79z M533.37,40.45v-4.71c-1.23,0.93-2.93,1.47-5.25,1.7l-5.79,0.69
			c-7.26,0.85-9.26,3.32-9.26,7.18c0,3.93,2.47,6.56,7.95,6.56C526.97,51.87,533.37,48.32,533.37,40.45z"/>
		<path d="M584.96,1.24v54.95h-5.87v-6.17c-3.01,4.55-7.72,7.1-13.66,7.1c-11.19,0-18.52-8.1-18.52-20.84s7.33-20.84,18.52-20.84
			c5.79,0,10.34,2.39,13.35,6.64V1.24H584.96z M579.01,36.28c0-9.65-5.09-15.28-12.81-15.28c-7.72,0-12.81,5.94-12.81,15.59
			s5.09,14.97,12.81,14.97C573.92,51.56,579.01,45.93,579.01,36.28z"/>
		<path d="M594.01,2.78h6.56v7.56h-6.56V2.78z M594.24,16.37h6.17v39.83h-6.17V16.37z"/>
		<path d="M644.5,51.17v5.02c-1,0.15-2.24,0.23-3.39,0.23c-4.4,0-6.41-1.93-6.72-5.71c-2.78,4.25-7.26,6.41-12.97,6.41
			c-8.64,0-14.05-4.17-14.05-11.66c0-6.25,3.78-11.19,14.74-12.35l5.71-0.62c4.01-0.46,6.25-1.93,6.25-5.48
			c0-4.17-2.16-6.25-8.96-6.25c-6.79,0-9.65,1.93-10.03,7.87h-6.17c0.47-7.72,4.55-13.2,16.21-13.2c11.04,0,14.97,4.86,14.97,11.58
			v22.23c0,1.23,0.69,1.93,2.16,1.93H644.5z M634.08,40.45v-4.71c-1.24,0.93-2.93,1.47-5.25,1.7l-5.79,0.69
			c-7.26,0.85-9.26,3.32-9.26,7.18c0,3.93,2.47,6.56,7.95,6.56C627.67,51.87,634.08,48.32,634.08,40.45z"/>
		<path d="M682.34,29.26v26.94h-6.17V29.87c0-6.17-3.4-8.87-9.11-8.87c-5.17,0-10.96,3.86-10.96,12.66v22.54h-6.17V16.37h5.86v5.94
			c2.63-4.01,6.95-6.87,12.51-6.87C677.17,15.44,682.34,20.46,682.34,29.26z"/>
		<path d="M703.98,38.05h6.72c0.15,10.19,7.18,13.51,16.13,13.51c8.8,0,13.9-3.47,13.9-10.27c0-5.25-3.63-7.79-13.36-9.96
			l-4.86-1.08c-9.34-2.08-16.67-5.87-16.67-15.9c0-8.8,7.33-14.36,18.76-14.36c16.21,0,21.23,8.26,21.46,17.21h-6.64
			c-0.54-7.1-3.86-11.35-14.82-11.35c-7.95,0-12.04,3.32-12.04,8.49c0,5.25,2.55,7.87,12.89,10.19l4.86,1.08
			c12.66,2.78,17.14,7.72,17.14,15.67c0,9.73-7.41,16.13-20.61,16.13C713.71,57.43,704.14,51.79,703.98,38.05z"/>
		<path d="M792.08,36.28c0,12.74-7.33,20.84-18.52,20.84c-5.79,0-10.34-2.39-13.35-6.64v20.84h-6.17V16.37h5.86v6.17
			c3.01-4.55,7.72-7.1,13.66-7.1C784.75,15.44,792.08,23.54,792.08,36.28z M785.6,35.97c0-9.65-5.09-14.97-12.81-14.97
			c-7.72,0-12.81,5.63-12.81,15.28s5.09,15.28,12.81,15.28C780.5,51.56,785.6,45.62,785.6,35.97z"/>
		<path d="M833.48,51.17v5.02c-1,0.15-2.24,0.23-3.39,0.23c-4.4,0-6.41-1.93-6.72-5.71c-2.78,4.25-7.26,6.41-12.97,6.41
			c-8.64,0-14.05-4.17-14.05-11.66c0-6.25,3.78-11.19,14.74-12.35l5.71-0.62c4.01-0.46,6.25-1.93,6.25-5.48
			c0-4.17-2.16-6.25-8.96-6.25c-6.79,0-9.65,1.93-10.03,7.87h-6.17c0.47-7.72,4.55-13.2,16.21-13.2c11.04,0,14.97,4.86,14.97,11.58
			v22.23c0,1.23,0.69,1.93,2.16,1.93H833.48z M823.06,40.45v-4.71c-1.24,0.93-2.93,1.47-5.25,1.7l-5.79,0.69
			c-7.26,0.85-9.26,3.32-9.26,7.18c0,3.93,2.47,6.56,7.95,6.56C816.65,51.87,823.06,48.32,823.06,40.45z"/>
		<path d="M836.59,36.28c0-12.81,7.41-20.84,18.45-20.84c9.49,0,15.9,5.63,17.14,14.43h-6.41c-1.08-6.02-5.71-8.87-10.73-8.87
			c-6.79,0-11.96,4.86-11.96,15.28s5.33,15.28,11.96,15.28c5.09,0,9.73-2.93,10.81-9.03h6.33c-1.31,9.11-8.18,14.59-17.14,14.59
			C844.15,57.12,836.59,49.09,836.59,36.28z"/>
		<path d="M913.49,38.44h-30.26c0.62,8.95,5.33,13.04,12.27,13.04c5.63,0,9.19-2.94,10.57-7.41h6.41
			c-1.93,7.49-7.64,13.04-17.14,13.04c-10.89,0-18.52-7.95-18.52-20.84c0-12.5,7.33-20.84,18.37-20.84
			c11.88,0,18.29,9.42,18.29,20.84V38.44z M883.38,32.88h23.47c-0.62-6.56-4.56-11.81-11.66-11.81
			C888.94,21.07,884.39,25.01,883.38,32.88z"/>
		<path d="M407.56,113.97h-25.01l-6.33,15.98h-6.79l21.92-54.95h7.26l22.23,54.95h-6.87L407.56,113.97z M405.25,108.1l-0.31-0.69
			c-2.39-5.95-6.72-16.9-10.03-25.39c-3.16,8.49-7.41,19.45-9.8,25.47l-0.23,0.62H405.25z"/>
		<path d="M461.62,90.12v38.28c0,10.34-5.94,17.6-18.52,17.6c-10.19,0-16.13-5.09-16.98-12.81h6.17c0.77,5.02,4.55,7.56,10.81,7.56
			c7.95,0,12.35-4.09,12.35-12.35v-3.86c-3.01,4.01-7.64,6.33-13.35,6.33c-11.19,0-18.52-8.1-18.52-20.84s7.33-20.84,18.52-20.84
			c5.94,0,10.65,2.47,13.66,6.72v-5.79H461.62z M455.68,110.03c0-9.65-5.09-15.28-12.81-15.28c-7.72,0-12.81,5.94-12.81,15.28
			s5.09,15.28,12.81,15.28C450.59,125.31,455.68,119.68,455.68,110.03z"/>
		<path d="M505.64,112.19h-30.26c0.62,8.95,5.33,13.04,12.27,13.04c5.63,0,9.19-2.94,10.57-7.41h6.41
			c-1.93,7.49-7.64,13.04-17.14,13.04c-10.89,0-18.52-7.95-18.52-20.84c0-12.5,7.33-20.84,18.37-20.84
			c11.88,0,18.29,9.42,18.29,20.84V112.19z M475.54,106.63h23.47c-0.62-6.56-4.56-11.81-11.66-11.81
			C481.1,94.83,476.54,98.76,475.54,106.63z"/>
		<path d="M545.42,103.01v26.94h-6.17v-26.32c0-6.17-3.4-8.87-9.11-8.87c-5.17,0-10.96,3.86-10.96,12.66v22.54H513V90.12h5.87v5.94
			c2.62-4.01,6.94-6.87,12.5-6.87C540.24,89.19,545.42,94.21,545.42,103.01z"/>
		<path d="M552.77,110.03c0-12.81,7.41-20.84,18.45-20.84c9.49,0,15.9,5.63,17.14,14.43h-6.41c-1.08-6.02-5.71-8.87-10.73-8.87
			c-6.79,0-11.96,4.86-11.96,15.28s5.33,15.28,11.96,15.28c5.09,0,9.73-2.93,10.81-9.03h6.33c-1.31,9.11-8.18,14.59-17.14,14.59
			C560.34,130.87,552.77,122.84,552.77,110.03z"/>
		<path d="M626.12,90.12L609.3,136.2c-2.55,7.02-6.64,9.11-12.97,9.11c-1.23,0-2.39-0.08-3.7-0.23v-5.17h3.63
			c3.94,0,6.02-1.78,7.26-4.94c0.46-1.16,0.93-2.47,1.39-3.7l-14.97-41.14h6.79l5.63,16.6c2.01,5.79,3.86,11.5,5.71,17.21
			c1.78-5.71,3.7-11.5,5.71-17.29l5.63-16.52H626.12z"/>
	</g>
	<g id="flag_00000153685927525313124840000001169504625061046195_">
		<rect x="193.07" y="1.23" class="st0" width="64.36" height="128.71"/>
		<path class="st0" d="M102.56,86.75c-0.22-0.2-23.24-20.11-23.24-20.11l3.56-1.79c0.53-0.25,0.9-0.55,1.17-0.87
			c0.79-0.99,0.57-2.24,0.34-3.19c-0.09-0.32-3.97-13.84-3.97-13.84s10.98,2.35,11.68,2.45c0.23,0.04,0.44,0.06,0.63,0.06
			c0.17,0,0.49-0.03,0.49-0.03c0.94-0.16,1.4-0.86,1.76-1.77c0.14-0.29,2.82-6.77,2.82-6.77s11.78,13,11.85,13.06
			c0.83,0.75,1.65,1.01,2.34,0.91c0.14-0.02,0.26-0.08,0.38-0.13c0.91-0.34,1.47-1.36,1.26-2.66c-0.19-1.18-5.96-27.77-5.96-27.77
			s6.18,3.67,8.23,4.85c1,0.61,1.77,0.85,2.42,0.71c0.65-0.15,1.19-0.69,1.71-1.67c0.31-0.54,8.7-17.12,8.7-17.12
			s8.39,16.58,8.7,17.12c0.52,0.98,1.06,1.53,1.71,1.67c0.65,0.14,1.42-0.11,2.42-0.71c2.05-1.18,8.23-4.85,8.23-4.85
			s-5.77,26.6-5.96,27.77c-0.22,1.3,0.35,2.32,1.26,2.66c0.13,0.05,0.24,0.11,0.38,0.13c0.68,0.1,1.5-0.16,2.34-0.91
			c0.07-0.06,11.85-13.06,11.85-13.06s2.68,6.48,2.82,6.77c0.36,0.92,0.82,1.61,1.76,1.77c0,0,0.32,0.04,0.49,0.03
			c0.19,0,0.4-0.02,0.63-0.06c0.7-0.1,11.68-2.45,11.68-2.45s-3.88,13.52-3.97,13.84c-0.23,0.95-0.46,2.2,0.34,3.19
			c0.27,0.32,0.64,0.62,1.17,0.87l3.56,1.79c0,0-23.02,19.9-23.24,20.11c-0.66,0.62-1.26,1.57-0.47,4c0.19,0.56,2.65,7.64,2.65,7.64
			s-22.07-4.51-22.45-4.59c-0.53-0.12-1.05-0.16-1.52-0.13c-1.42,0.11-2.43,0.93-2.43,2.53c0,2.18,0.87,23.89,0.87,23.89h-5.61
			c0,0,0.87-21.7,0.87-23.89c0-1.6-1.01-2.42-2.43-2.53c-0.47-0.04-0.99,0.01-1.52,0.13c-0.37,0.07-22.45,4.59-22.45,4.59
			s2.46-7.09,2.65-7.64C103.82,88.32,103.22,87.37,102.56,86.75z"/>
		<rect x="0" y="1.23" class="st0" width="64.36" height="128.71"/>
	</g>
</g>
</svg>
