<?xml version="1.0" encoding="UTF-8"?>
<svg xmlns="http://www.w3.org/2000/svg" xmlns:xlink="http://www.w3.org/1999/xlink" width="px" height="100px" viewBox="0 0 1220 100" version="1.1">
<g id="surface1">
<path style=" stroke:none;fill-rule:nonzero;fill:rgb(0%,0%,0%);fill-opacity:1;" d="M 294.101562 11.898438 C 293.300781 5.800781 288.300781 0 278.898438 0 C 269.5 0 261.601562 7.800781 261.601562 19.300781 C 261.601562 30.800781 269.800781 39.101562 278.101562 39.101562 C 286.398438 39.101562 292.5 38.300781 294.601562 24.300781 L 289.699219 24.300781 C 288 32.898438 282.300781 34.601562 279 34.601562 C 270 34.601562 267.101562 28 267.101562 18.898438 C 267.101562 9.800781 272.5 4.5 279 4.5 C 285.5 4.5 288 5.699219 289.300781 11.898438 L 294.199219 11.898438 Z M 294.101562 11.898438 "/>
<path style=" stroke:none;fill-rule:nonzero;fill:rgb(0%,0%,0%);fill-opacity:1;" d="M 309.699219 14 L 310.101562 14 C 314.199219 14 316.300781 15.699219 316.300781 18.5 C 316.300781 21.300781 315.101562 21.398438 313.800781 21.398438 L 309.699219 22.199219 L 309.699219 25.898438 C 314.601562 25.101562 315.5 24.699219 316.300781 24.199219 L 316.300781 28.699219 C 316.300781 31.601562 313 34.101562 309.699219 34.898438 L 309.699219 38.199219 C 313 37.800781 315.101562 35.699219 316.300781 34.101562 C 316.699219 36.199219 317.101562 38.199219 321.199219 38.199219 C 325.300781 38.199219 322.898438 38.199219 323.699219 37.800781 L 323.699219 34.5 C 323.300781 34.5 322.5 34.898438 322.101562 34.898438 C 321.300781 34.898438 320.800781 34.5 320.800781 33.199219 L 320.800781 17.5 C 320.800781 10.5 313 10.101562 310.898438 10.101562 L 309.699219 10.101562 Z M 303.898438 19.398438 C 303.898438 17.300781 304.699219 14 309.699219 14 L 309.699219 10.300781 C 303.5 10.699219 299.800781 13.199219 299.800781 19.300781 L 303.898438 19.300781 Z M 309.699219 22.199219 L 306.398438 22.601562 C 299 23.398438 298.199219 28.800781 298.199219 30.800781 C 298.199219 35.300781 301.898438 38.601562 306.800781 38.601562 C 311.699219 38.601562 308.898438 38.601562 309.699219 38.199219 L 309.699219 34.898438 L 308 34.898438 C 304.300781 34.898438 303.101562 33.199219 303.101562 30.398438 C 303.101562 27.601562 306.398438 26.300781 308.898438 25.898438 L 309.699219 25.898438 Z M 309.699219 22.199219 "/>
<path style=" stroke:none;fill-rule:nonzero;fill:rgb(0%,0%,0%);fill-opacity:1;" d="M 350.398438 19.800781 C 350.398438 12 345 10.300781 340.898438 10.300781 C 336.800781 10.300781 333.5 13.601562 332.699219 14.800781 L 332.699219 11.101562 L 328.199219 11.101562 L 328.199219 37.800781 L 332.699219 37.800781 L 332.699219 23.398438 C 332.699219 16 337.199219 14.398438 340.101562 14.398438 C 343 14.398438 345.898438 16.898438 345.898438 21.398438 L 345.898438 37.898438 L 350.398438 37.898438 Z M 350.398438 19.800781 "/>
<path style=" stroke:none;fill-rule:nonzero;fill:rgb(0%,0%,0%);fill-opacity:1;" d="M 366.898438 14 L 367.300781 14 C 371.398438 14 373.5 15.699219 373.5 18.5 C 373.5 21.300781 372.300781 21.398438 371 21.398438 L 366.898438 22.199219 L 366.898438 25.898438 C 371.800781 25.101562 372.699219 24.699219 373.5 24.199219 L 373.5 28.699219 C 373.5 31.601562 370.199219 34.101562 366.898438 34.898438 L 366.898438 38.199219 C 370.199219 37.800781 372.300781 35.699219 373.5 34.101562 C 373.898438 36.199219 374.300781 38.199219 378.398438 38.199219 C 382.5 38.199219 380.101562 38.199219 380.898438 37.800781 L 380.898438 34.5 C 380.5 34.5 379.699219 34.898438 379.199219 34.898438 C 378.398438 34.898438 378 34.5 378 33.199219 L 378 17.5 C 378 10.5 370.199219 10.101562 368.101562 10.101562 L 366.898438 10.101562 Z M 361.101562 19.398438 C 361.101562 17.300781 361.898438 14 366.898438 14 L 366.898438 10.300781 C 360.699219 10.699219 357 13.199219 357 19.300781 L 361.101562 19.300781 Z M 366.898438 22.199219 L 363.601562 22.601562 C 356.199219 23.398438 355.398438 28.800781 355.398438 30.800781 C 355.398438 35.300781 359.101562 38.601562 364 38.601562 C 368.898438 38.601562 366.101562 38.601562 366.898438 38.199219 L 366.898438 34.898438 L 365.199219 34.898438 C 361.5 34.898438 360.300781 33.199219 360.300781 30.398438 C 360.300781 27.601562 363.601562 26.300781 366.101562 25.898438 L 366.898438 25.898438 Z M 366.898438 22.199219 "/>
<path style=" stroke:none;fill-rule:nonzero;fill:rgb(0%,0%,0%);fill-opacity:1;" d="M 408 0.800781 L 403.5 0.800781 L 403.5 14.800781 L 403.101562 14.800781 C 402.300781 13.601562 400.199219 10.699219 396.101562 10.300781 L 396.101562 14.398438 C 402.699219 14.398438 403.5 21.398438 403.5 25.898438 C 403.5 32.898438 399 34.898438 396.101562 34.898438 L 396.101562 38.601562 C 398.601562 38.601562 401.5 37.800781 403.5 34.101562 L 403.5 37.800781 L 408 37.800781 Z M 396.101562 10.300781 L 395.300781 10.300781 C 388.300781 10.300781 384.199219 16.101562 384.199219 23.898438 C 384.199219 31.699219 386.699219 38.699219 395.699219 38.699219 L 396.101562 38.699219 L 396.101562 35 C 391.199219 35 388.699219 30.5 388.699219 24.300781 C 388.699219 18.101562 389.101562 14.398438 396.101562 14.398438 Z M 396.101562 10.300781 "/>
<path style=" stroke:none;fill-rule:nonzero;fill:rgb(0%,0%,0%);fill-opacity:1;" d="M 424.101562 14 L 424.5 14 C 428.601562 14 430.699219 15.699219 430.699219 18.5 C 430.699219 21.300781 429.5 21.398438 428.199219 21.398438 L 424.101562 22.199219 L 424.101562 25.898438 C 429 25.101562 429.898438 24.699219 430.699219 24.199219 L 430.699219 28.699219 C 430.699219 31.601562 427.398438 34.101562 424.101562 34.898438 L 424.101562 38.199219 C 427.398438 37.800781 429.5 35.699219 430.699219 34.101562 C 431.101562 36.199219 431.5 38.199219 435.601562 38.199219 C 439.699219 38.199219 437.300781 38.199219 438.101562 37.800781 L 438.101562 34.5 C 437.699219 34.5 436.898438 34.898438 436.398438 34.898438 C 435.601562 34.898438 435.199219 34.5 435.199219 33.199219 L 435.199219 17.5 C 435.199219 10.5 427.398438 10.101562 425.300781 10.101562 L 424.101562 10.101562 Z M 418.398438 19.398438 C 418.398438 17.300781 419.199219 14 424.199219 14 L 424.199219 10.300781 C 418 10.699219 414.300781 13.199219 414.300781 19.300781 L 418.398438 19.300781 Z M 424.101562 22.199219 L 420.800781 22.601562 C 413.398438 23.398438 412.601562 28.800781 412.601562 30.800781 C 412.601562 35.300781 416.300781 38.601562 421.199219 38.601562 C 426.101562 38.601562 423.300781 38.601562 424.101562 38.199219 L 424.101562 34.898438 L 422.398438 34.898438 C 418.699219 34.898438 417.5 33.199219 417.5 30.398438 C 417.5 27.601562 420.800781 26.300781 423.300781 25.898438 L 424.101562 25.898438 Z M 424.101562 22.199219 "/>
<path style=" stroke:none;fill-rule:nonzero;fill:rgb(0%,0%,0%);fill-opacity:1;" d="M 471 5.398438 L 471.398438 5.398438 C 477.199219 5.398438 479.199219 7.5 479.199219 10.800781 C 479.199219 14.101562 476.300781 16.601562 471.398438 16.601562 L 471 16.601562 L 471 20.699219 L 472.199219 20.699219 C 476.300781 20.699219 480.800781 21.898438 480.800781 26.898438 C 480.800781 31.898438 478.300781 33.898438 473 33.898438 L 470.898438 33.898438 L 470.898438 38 L 473.398438 38 C 481.601562 38 485.699219 33.101562 485.699219 27.300781 C 485.699219 21.5 481.601562 19.101562 479.101562 18.300781 C 483.199219 16.199219 484 12.898438 484 10.5 C 484 5.601562 480.699219 1 473.699219 1 L 470.800781 1 L 470.800781 5.5 L 471 5.5 Z M 462.398438 5.398438 L 471 5.398438 L 471 0.800781 L 457.398438 0.800781 L 457.398438 37.800781 L 471 37.800781 L 471 33.699219 L 462.398438 33.699219 L 462.398438 20.5 L 471 20.5 L 471 16.398438 L 462.398438 16.398438 Z M 462.398438 5.398438 "/>
<path style=" stroke:none;fill-rule:nonzero;fill:rgb(0%,0%,0%);fill-opacity:1;" d="M 502.300781 38.699219 C 510.898438 38.699219 515.101562 31.300781 515.101562 24.300781 C 515.101562 17.300781 511 10.300781 502.300781 10.300781 L 502.300781 14 C 508.898438 14 510.101562 21 510.101562 24.300781 C 510.101562 27.601562 508.898438 34.601562 502.300781 34.601562 Z M 489.898438 24.300781 C 489.898438 31.300781 493.601562 38.699219 502.199219 38.699219 L 502.199219 34.601562 C 495.601562 34.601562 494.398438 28 494.398438 24.300781 C 494.398438 20.601562 495.601562 14 502.199219 14 L 502.199219 10.300781 C 493.601562 10.300781 489.898438 17.699219 489.898438 24.300781 "/>
<path style=" stroke:none;fill-rule:nonzero;fill:rgb(0%,0%,0%);fill-opacity:1;" d="M 525.300781 22.199219 C 525.300781 18.5 527.800781 15.199219 531.898438 15.199219 L 533.601562 15.199219 L 533.601562 10.300781 L 532.800781 10.300781 C 529.101562 10.300781 527 12.398438 525 15.699219 L 525 11.199219 L 520.898438 11.199219 L 520.898438 37.898438 L 525.398438 37.898438 L 525.398438 22.300781 L 525.300781 22.300781 Z M 525.300781 22.199219 "/>
<path style=" stroke:none;fill-rule:nonzero;fill:rgb(0%,0%,0%);fill-opacity:1;" d="M 559.5 0.800781 L 555 0.800781 L 555 14.800781 C 553.800781 13.601562 552.101562 10.699219 547.601562 10.300781 L 547.601562 14.398438 C 554.199219 14.398438 555 21.398438 555 25.898438 C 555 32.898438 550.5 34.898438 547.601562 34.898438 L 547.601562 38.601562 C 550.101562 38.601562 553.398438 37.800781 555 34.101562 L 555.398438 34.101562 L 555.398438 37.800781 L 559.5 37.800781 Z M 547.5 10.300781 L 546.699219 10.300781 C 539.699219 10.300781 535.601562 16.101562 535.601562 23.898438 C 535.601562 31.699219 538.101562 38.699219 547.5 38.699219 L 547.5 35 C 542.601562 35 540.101562 30.5 540.101562 24.300781 C 540.101562 18.101562 540.5 14.398438 547.5 14.398438 Z M 547.5 10.300781 "/>
<path style=" stroke:none;fill-rule:nonzero;fill:rgb(0%,0%,0%);fill-opacity:1;" d="M 584.199219 29.601562 C 583.800781 31.699219 581.300781 35 577.199219 35 L 576.800781 35 L 576.800781 38.699219 C 580.898438 38.699219 582.601562 37.898438 583.800781 37 C 587.101562 34.5 588.300781 30.800781 588.699219 29.601562 Z M 576.800781 25.898438 L 589.101562 25.898438 C 589.101562 16.398438 585 10.300781 577.199219 10.300781 L 576.800781 10.300781 L 576.800781 14.398438 C 582.199219 14.398438 584.199219 18.101562 584.199219 22.199219 L 576.800781 22.199219 Z M 576.800781 35 C 571.898438 34.601562 569.398438 31.300781 569.398438 26 L 576.800781 26 L 576.800781 22.300781 L 569.398438 22.300781 C 569.398438 18.199219 572.699219 14.5 576.800781 14.5 L 576.800781 10.398438 C 568.199219 10.800781 564.5 17.398438 564.5 25.199219 C 564.5 33 569 38.800781 576.398438 38.800781 L 576.800781 38.800781 Z M 576.800781 35 "/>
<path style=" stroke:none;fill-rule:nonzero;fill:rgb(0%,0%,0%);fill-opacity:1;" d="M 599.398438 22.199219 C 599.398438 18.5 602.300781 15.199219 606.398438 15.199219 L 608.101562 15.199219 L 608.101562 10.300781 L 606.898438 10.300781 C 603.601562 10.300781 601.101562 12.398438 599.5 15.699219 L 599.5 11.199219 L 595 11.199219 L 595 37.898438 L 599.5 37.898438 L 599.5 22.300781 Z M 599.398438 22.199219 "/>
<path style=" stroke:none;fill-rule:nonzero;fill:rgb(0%,0%,0%);fill-opacity:1;" d="M 290.300781 62.601562 C 289.898438 58.5 288.601562 50.699219 275.898438 50.699219 C 263.199219 50.699219 263.101562 56.5 263.101562 62.199219 C 263.101562 67.898438 268.5 70 270.898438 70.800781 L 278.300781 72.5 C 284.5 74.199219 286.101562 75.398438 286.101562 79.101562 C 286.101562 84.5 280.300781 85.300781 276.601562 85.300781 C 272.898438 85.300781 266.300781 83.199219 266.300781 76.699219 L 261.800781 76.699219 C 261.800781 80 262.199219 83.300781 265.5 86.199219 C 267.199219 87.398438 269.601562 89.5 276.601562 89.5 C 283.601562 89.5 291 87.398438 291 78.398438 C 291 69.398438 287.300781 69.800781 282.800781 68.5 L 272.101562 66 C 270 65.601562 267.601562 64.800781 267.601562 61.5 C 267.601562 55.699219 273 54.898438 276.199219 54.898438 C 279.398438 54.898438 285.199219 57 285.199219 62.699219 L 290.300781 62.699219 Z M 290.300781 62.601562 "/>
<path style=" stroke:none;fill-rule:nonzero;fill:rgb(0%,0%,0%);fill-opacity:1;" d="M 315.398438 80.199219 C 315 81.898438 312.5 85.101562 308.398438 85.101562 L 308 85.101562 L 308 89.199219 C 312.101562 89.199219 313.800781 88 315 87.101562 C 318.300781 85 319.5 81.300781 319.898438 80.101562 L 315.398438 80.101562 Z M 308.101562 76.5 L 320 76.5 C 320 67 316.300781 60.898438 308.5 60.898438 L 308.101562 60.898438 L 308.101562 65 C 313.5 65 315.101562 68.699219 315.5 72.800781 L 308.101562 72.800781 Z M 308.101562 85.199219 C 303.199219 85.199219 300.699219 81.898438 300.699219 76.601562 L 308.101562 76.601562 L 308.101562 72.898438 L 300.699219 72.898438 C 300.699219 68.800781 304 65.101562 308.101562 65.101562 L 308.101562 61 C 299.5 61 295.800781 67.601562 295.800781 75.800781 C 295.800781 84 300.300781 89.398438 307.699219 89.398438 L 308.101562 89.398438 Z M 308.101562 85.199219 "/>
<path style=" stroke:none;fill-rule:nonzero;fill:rgb(0%,0%,0%);fill-opacity:1;" d="M 330.699219 72.898438 C 330.699219 69.199219 333.601562 65.898438 337.699219 65.898438 L 339.398438 65.898438 L 339.398438 61 L 338.101562 61 C 334.800781 61 332.300781 63.101562 330.699219 66.398438 L 330.300781 66.398438 L 330.300781 61.898438 L 326.199219 61.898438 L 326.199219 88.699219 L 330.699219 88.699219 Z M 330.699219 72.898438 "/>
<path style=" stroke:none;fill-rule:nonzero;fill:rgb(0%,0%,0%);fill-opacity:1;" d="M 353.699219 83.601562 L 346.699219 61.699219 L 341.398438 61.699219 L 351.300781 88.5 L 355.800781 88.5 L 366.101562 61.699219 L 361.101562 61.699219 Z M 353.699219 83.601562 "/>
<path style=" stroke:none;fill-rule:nonzero;fill:rgb(0%,0%,0%);fill-opacity:1;" d="M 374.699219 61.699219 L 370.199219 61.699219 L 370.199219 88.5 L 374.699219 88.5 Z M 374.699219 51.398438 L 370.199219 51.398438 L 370.199219 56.800781 L 374.699219 56.800781 Z M 374.699219 51.398438 "/>
<path style=" stroke:none;fill-rule:nonzero;fill:rgb(0%,0%,0%);fill-opacity:1;" d="M 402.699219 70.800781 C 402.300781 65.898438 399.398438 60.898438 392.398438 60.898438 C 385.398438 60.898438 379.601562 67.5 379.601562 75.699219 C 379.601562 83.898438 384.101562 89.300781 391.5 89.300781 C 398.898438 89.300781 402.199219 83.101562 402.601562 79 L 398.101562 79 C 397.300781 83.101562 394.800781 85.199219 391.5 85.199219 C 385.300781 85.199219 384.5 79.800781 384.5 74.898438 C 384.5 70 386.199219 65 391.898438 65 C 397.601562 65 397.699219 67.101562 398.101562 70.800781 Z M 402.699219 70.800781 "/>
<path style=" stroke:none;fill-rule:nonzero;fill:rgb(0%,0%,0%);fill-opacity:1;" d="M 425.300781 80.199219 C 425.300781 81.898438 422.800781 85.101562 418.300781 85.101562 L 418.300781 89.199219 C 422.398438 89.199219 424.101562 88 425.300781 87.101562 C 428.601562 85 429.800781 81.300781 429.800781 80.101562 L 425.300781 80.101562 Z M 418.398438 76.5 L 430.300781 76.5 C 430.300781 67 426.601562 60.898438 418.800781 60.898438 L 418.398438 60.898438 L 418.398438 65 C 423.800781 65 425.398438 68.699219 425.800781 72.800781 L 418.398438 72.800781 Z M 418.398438 85.199219 C 413 85.199219 410.601562 81.898438 410.601562 76.601562 L 418.398438 76.601562 L 418.398438 72.898438 L 410.601562 72.898438 C 410.601562 68.800781 413.898438 65.101562 418 65.101562 L 418.398438 65.101562 L 418.398438 61 C 409.800781 61 406.101562 67.601562 406.101562 75.800781 C 406.101562 84 410.199219 89.398438 418 89.398438 L 418.398438 89.398438 Z M 418.398438 85.199219 "/>
<path style=" stroke:none;fill-rule:nonzero;fill:rgb(0%,0%,0%);fill-opacity:1;" d="M 455.398438 69.199219 C 455.398438 67.898438 454.601562 61 445.101562 61 C 435.601562 61 434.800781 63.5 434.800781 69.601562 C 434.800781 75.699219 437.300781 75 441 76.199219 L 446.398438 77.398438 C 450.101562 78.199219 451.800781 79.101562 451.800781 81.101562 C 451.800781 84 448.898438 85.199219 445.601562 85.199219 C 439.398438 85.199219 438.601562 81.898438 438.601562 79.800781 L 434.101562 79.800781 C 434.101562 83.101562 434.898438 89.300781 445.601562 89.300781 C 456.300781 89.300781 456.300781 86 456.300781 80.300781 C 456.300781 74.601562 454.199219 74.5 448.898438 73.300781 L 444.398438 72.101562 C 440.699219 71.300781 439.5 70.898438 439.5 68.800781 C 439.5 65.101562 443.199219 64.699219 444.898438 64.699219 C 450.699219 64.699219 451.101562 67.601562 451.101562 69.199219 L 455.699219 69.199219 Z M 455.398438 69.199219 "/>
<path style=" stroke:none;fill-rule:nonzero;fill:rgb(0%,0%,0%);fill-opacity:1;" d="M 497 77.800781 L 500.699219 88.5 L 506.101562 88.5 L 492.898438 51.5 L 489.601562 51.5 L 489.601562 57.699219 L 489.601562 57.300781 L 495.398438 73.398438 L 489.601562 73.398438 L 489.601562 77.898438 L 497 77.898438 Z M 489.5 51.398438 L 487 51.398438 L 473 88.398438 L 478.398438 88.398438 L 482.101562 77.699219 L 489.5 77.699219 L 489.5 73.199219 L 483.699219 73.199219 L 489.5 57.5 L 489.5 51.300781 Z M 489.5 51.398438 "/>
<path style=" stroke:none;fill-rule:nonzero;fill:rgb(0%,0%,0%);fill-opacity:1;" d="M 520.800781 65 C 527.398438 65 528.199219 72 528.199219 76.101562 C 528.199219 83.5 523.699219 85.101562 520.800781 85.101562 L 520.800781 89.199219 C 524.101562 89.199219 526.601562 87.5 527.800781 85.5 L 527.800781 86.800781 C 527.800781 90.101562 527.800781 95.800781 520.800781 95.800781 L 520.800781 99.5 C 532.300781 99.101562 532.300781 90 532.300781 86.300781 L 532.300781 61.601562 L 528.199219 61.601562 L 528.199219 65.300781 C 527 63.601562 524.898438 61.199219 520.800781 60.800781 Z M 513.398438 74.898438 C 513.398438 71.601562 513.800781 65 520.800781 65 L 520.800781 60.898438 L 520 60.898438 C 513 60.898438 508.898438 66.699219 508.898438 74.101562 C 508.898438 81.5 511.398438 89.300781 520.398438 89.300781 L 520.800781 89.300781 L 520.800781 85.199219 C 515.898438 85.199219 513.398438 81.101562 513.398438 74.898438 M 520.800781 95.898438 L 520.800781 99.601562 C 520.398438 100 520 100 520 100 C 516.699219 100 510.5 98.800781 509.699219 91.800781 L 514.199219 91.800781 C 515 95.898438 519.101562 95.898438 520 95.898438 Z M 520.800781 95.898438 "/>
<path style=" stroke:none;fill-rule:nonzero;fill:rgb(0%,0%,0%);fill-opacity:1;" d="M 557 80.199219 C 556.601562 81.898438 554.101562 85.101562 550 85.101562 L 549.601562 85.101562 L 549.601562 89.199219 C 553.699219 89.199219 555.398438 88 556.601562 87.101562 C 559.898438 85 561.101562 81.300781 561.5 80.101562 L 557 80.101562 Z M 549.601562 76.5 L 561.898438 76.5 C 561.898438 67 557.800781 60.898438 550.398438 60.898438 L 549.601562 60.898438 L 549.601562 65 C 555 65 557 68.699219 557 72.800781 L 549.601562 72.800781 Z M 549.601562 85.199219 C 544.699219 85.199219 542.199219 81.898438 542.199219 76.601562 L 549.601562 76.601562 L 549.601562 72.898438 L 542.199219 72.898438 C 542.199219 68.800781 545.5 65.101562 549.601562 65.101562 L 549.601562 61 C 541.398438 61 537.300781 67.601562 537.300781 75.800781 C 537.300781 84 541.800781 89.398438 549.199219 89.398438 L 549.601562 89.398438 Z M 549.601562 85.199219 "/>
<path style=" stroke:none;fill-rule:nonzero;fill:rgb(0%,0%,0%);fill-opacity:1;" d="M 589.101562 70.398438 C 589.101562 62.601562 583.699219 60.898438 579.601562 60.898438 C 575.5 60.898438 572.601562 63.800781 571.398438 65.398438 L 571.398438 61.699219 L 567.300781 61.699219 L 567.300781 88.5 L 571.800781 88.5 L 571.800781 73.699219 C 571.800781 66.699219 576.300781 65.101562 578.800781 65.101562 C 583.300781 65.101562 584.601562 67.199219 584.601562 72.101562 L 584.601562 88.601562 L 589.101562 88.601562 Z M 589.101562 70.398438 "/>
<path style=" stroke:none;fill-rule:nonzero;fill:rgb(0%,0%,0%);fill-opacity:1;" d="M 617.101562 70.800781 C 616.699219 65.898438 613.800781 60.898438 606.800781 60.898438 C 599.800781 60.898438 594 67.5 594 75.699219 C 594 83.898438 598.5 89.300781 605.898438 89.300781 C 613.300781 89.300781 616.601562 83.101562 617 79 L 612.5 79 C 611.699219 83.101562 609.199219 85.199219 606.300781 85.199219 C 599.699219 85.199219 598.898438 79.800781 598.898438 74.898438 C 598.898438 70 600.601562 65 606.300781 65 C 612 65 612.101562 67.101562 612.5 70.800781 C 612.5 70.800781 617.101562 70.800781 617.101562 70.800781 Z M 617.101562 70.800781 "/>
<path style=" stroke:none;fill-rule:nonzero;fill:rgb(0%,0%,0%);fill-opacity:1;" d="M 631.101562 83.601562 L 624.101562 61.800781 L 618.699219 61.800781 L 628.601562 89.398438 C 626.5 94.800781 626.101562 95.601562 624.101562 95.601562 C 622.101562 95.601562 621.601562 95.199219 621.199219 95.199219 L 621.199219 99.300781 C 622 99.300781 622.398438 99.699219 623.300781 99.699219 C 629.101562 99.699219 629.5 98.898438 633.601562 88.199219 C 637.300781 79.199219 640.199219 70.5 643.5 61.898438 L 638.601562 61.898438 L 631.199219 83.699219 Z M 631.101562 83.601562 "/>
<path style=" stroke:none;fill-rule:nonzero;fill:rgb(0%,0%,0%);fill-opacity:1;" d="M 753.800781 27.199219 L 757.5 37.898438 L 762.898438 37.898438 L 749.699219 1.300781 L 746.398438 1.300781 L 746.398438 7.101562 L 746.398438 6.699219 L 752.199219 22.800781 L 746.398438 22.800781 L 746.398438 27.300781 L 753.800781 27.300781 Z M 746.300781 1.199219 L 743.800781 1.199219 L 729.800781 37.800781 L 735.199219 37.800781 L 738.898438 27.101562 L 746.300781 27.101562 L 746.300781 22.601562 L 740.5 22.601562 L 746.300781 6.898438 Z M 746.300781 1.199219 "/>
<path style=" stroke:none;fill-rule:nonzero;fill:rgb(0%,0%,0%);fill-opacity:1;" d="M 777.199219 14.398438 C 783.800781 14.398438 784.601562 21.398438 784.601562 25.898438 C 784.601562 32.898438 780.101562 34.898438 777.199219 34.898438 L 777.199219 38.601562 C 780.898438 38.601562 783 36.898438 784.199219 34.898438 L 784.199219 36.601562 C 784.199219 39.5 784.199219 45.199219 777.199219 45.601562 L 777.199219 49.300781 C 788.699219 48.898438 788.699219 39.398438 788.699219 35.699219 L 788.699219 11.101562 L 784.601562 11.101562 L 784.601562 15.199219 C 783.398438 13.5 781.699219 10.699219 777.199219 10.300781 Z M 769.800781 24.300781 C 769.800781 21 770.199219 14.398438 777.199219 14.398438 L 777.199219 10.300781 L 776.398438 10.300781 C 769.398438 10.300781 765.699219 16.101562 765.699219 23.898438 C 765.699219 31.699219 768.199219 38.699219 777.199219 38.699219 L 777.199219 35 C 772.300781 35 769.800781 30.5 769.800781 24.300781 M 777.199219 45.699219 L 777.199219 49.398438 L 776.398438 49.398438 C 773.101562 49.398438 767.398438 48.601562 766.5 41.199219 L 770.601562 41.199219 C 771.398438 45.699219 775.5 45.699219 776.800781 45.699219 Z M 777.199219 45.699219 "/>
<path style=" stroke:none;fill-rule:nonzero;fill:rgb(0%,0%,0%);fill-opacity:1;" d="M 813.398438 29.601562 C 813.398438 31.699219 810.5 35 806.398438 35 L 806 35 L 806 38.699219 C 810.101562 38.699219 811.800781 37.898438 813 37 C 816.699219 34.5 817.898438 30.800781 817.898438 29.601562 Z M 806 25.898438 L 818.300781 25.898438 C 818.300781 16.398438 814.601562 10.300781 806.800781 10.300781 L 806 10.300781 L 806 14.398438 C 811.800781 14.398438 813.398438 18.101562 813.398438 22.199219 L 806 22.199219 C 806 22.199219 806 25.898438 806 25.898438 Z M 806 35 C 801.101562 34.601562 798.601562 31.699219 798.601562 26 L 806 26 L 806 22.300781 L 798.601562 22.300781 C 798.601562 18.199219 801.898438 14.5 806 14.5 L 806 10.398438 C 797.800781 10.800781 793.699219 17.398438 793.699219 25.199219 C 793.699219 33 798.199219 38.800781 806 38.800781 Z M 806 35 "/>
<path style=" stroke:none;fill-rule:nonzero;fill:rgb(0%,0%,0%);fill-opacity:1;" d="M 845.5 19.800781 C 845.5 12 840.101562 10.300781 836 10.300781 C 831.898438 10.300781 829 13.601562 828.199219 14.800781 L 827.800781 14.800781 L 827.800781 11.101562 L 823.699219 11.101562 L 823.699219 37.800781 L 828.199219 37.800781 L 828.199219 23.398438 C 828.199219 16 832.699219 14.398438 835.199219 14.398438 C 839.699219 14.398438 841 16.898438 841 21.398438 L 841 37.898438 L 845.5 37.898438 Z M 845.5 19.800781 "/>
<path style=" stroke:none;fill-rule:nonzero;fill:rgb(0%,0%,0%);fill-opacity:1;" d="M 873.5 20.199219 C 873.101562 15.699219 870.601562 10.300781 863.199219 10.300781 C 855.800781 10.300781 850.398438 16.898438 850.398438 25.101562 C 850.398438 33.300781 854.898438 38.699219 862.300781 38.699219 C 869.699219 38.699219 873 32.898438 873.398438 28.398438 L 868.898438 28.398438 C 868.101562 32.5 865.601562 35 862.699219 35 C 856.5 35 855.300781 29.199219 855.300781 24.699219 C 855.300781 20.199219 857 14.398438 862.699219 14.398438 C 868.398438 14.398438 868.5 16.5 868.898438 20.199219 Z M 873.5 20.199219 "/>
<path style=" stroke:none;fill-rule:nonzero;fill:rgb(0%,0%,0%);fill-opacity:1;" d="M 896.101562 29.601562 C 896.101562 31.699219 893.601562 35 889.5 35 L 889.101562 35 L 889.101562 38.699219 C 893.199219 38.699219 894.898438 37.898438 896.101562 37 C 899.398438 34.5 900.601562 30.800781 900.601562 29.601562 Z M 889.199219 25.898438 L 901.101562 25.898438 C 901.101562 16.398438 897.398438 10.300781 889.601562 10.300781 L 889.199219 10.300781 L 889.199219 14.398438 C 894.601562 14.398438 896.199219 18.101562 896.601562 22.199219 L 889.199219 22.199219 C 889.199219 22.199219 889.199219 25.898438 889.199219 25.898438 Z M 889.199219 35 C 884.300781 34.601562 881.800781 31.699219 881.800781 26 L 889.199219 26 L 889.199219 22.300781 L 881.800781 22.300781 C 881.800781 18.199219 885.101562 14.5 889.199219 14.5 L 889.199219 10.398438 C 880.601562 10.800781 876.898438 17.398438 876.898438 25.199219 C 876.898438 33 881.398438 38.800781 888.800781 38.800781 L 889.199219 38.800781 Z M 889.199219 35 "/>
<path style=" stroke:none;fill-rule:nonzero;fill:rgb(0%,0%,0%);fill-opacity:1;" d="M 943.101562 1.199219 L 938.601562 1.199219 L 938.601562 14.800781 C 937.800781 13.601562 935.699219 10.699219 931.601562 10.300781 L 931.601562 14.398438 C 938.199219 14.398438 938.601562 21.398438 938.601562 25.898438 C 938.601562 32.898438 934.5 34.898438 931.601562 34.898438 L 931.601562 38.601562 C 934.101562 38.601562 937 37.800781 939 34.101562 L 939 37.800781 L 943.101562 37.800781 Z M 931.5 10.300781 L 930.699219 10.300781 C 923.300781 10.300781 919.199219 16.101562 919.199219 23.898438 C 919.199219 31.699219 922.101562 38.699219 931.101562 38.699219 L 931.5 38.699219 L 931.5 35 L 931.101562 35 C 926.199219 35 924.101562 30.5 924.101562 24.300781 C 924.101562 18.101562 924.5 14.398438 931.5 14.398438 Z M 931.5 10.300781 "/>
<path style=" stroke:none;fill-rule:nonzero;fill:rgb(0%,0%,0%);fill-opacity:1;" d="M 967.800781 29.601562 C 967.800781 31.699219 965.300781 35 960.800781 35 L 960.800781 38.699219 C 964.898438 38.699219 966.601562 37.898438 967.800781 37 C 971.101562 34.5 972.300781 30.800781 972.300781 29.601562 Z M 960.800781 25.898438 L 972.699219 25.898438 C 972.699219 16.398438 969 10.300781 961.199219 10.300781 L 960.800781 10.300781 L 960.800781 14.398438 C 966.199219 14.398438 967.800781 18.101562 968.199219 22.199219 L 960.800781 22.199219 Z M 960.800781 35 C 955.398438 34.601562 953 31.699219 953 26 L 960.800781 26 L 960.800781 22.300781 L 953 22.300781 C 953 18.199219 956.300781 14.5 960.398438 14.5 L 960.800781 14.5 L 960.800781 10.398438 C 952.199219 10.800781 948.398438 17.398438 948.398438 25.199219 C 948.398438 33 952.5 38.800781 960.398438 38.800781 L 960.800781 38.800781 Z M 960.800781 35 "/>
<path style=" stroke:none;fill-rule:nonzero;fill:rgb(0%,0%,0%);fill-opacity:1;" d="M 997.800781 18.898438 C 997.800781 17.199219 997 10.300781 987.5 10.300781 C 978 10.300781 977.199219 13.199219 977.199219 18.898438 C 977.199219 24.601562 979.699219 24.699219 983.398438 25.5 L 988.800781 26.699219 C 992.5 27.5 994.199219 28.398438 994.199219 30.398438 C 994.199219 33.699219 991.300781 34.898438 988 34.898438 C 981.800781 34.898438 981 31.199219 981 29.101562 L 976.5 29.101562 C 976.5 32.398438 977.300781 38.601562 988 38.601562 C 998.699219 38.601562 998.699219 35.300781 998.699219 30 C 998.699219 24.699219 996.601562 24.199219 991.300781 22.601562 L 986.800781 21.800781 C 983.101562 20.601562 981.898438 20.101562 981.898438 18.101562 C 981.898438 14.800781 985.601562 14.398438 987.300781 14.398438 C 993.101562 14.398438 993.5 16.898438 993.5 18.898438 L 998 18.898438 Z M 997.800781 18.898438 "/>
<path style=" stroke:none;fill-rule:nonzero;fill:rgb(0%,0%,0%);fill-opacity:1;" d="M 1037.699219 18.898438 C 1037.699219 17.199219 1037.300781 10.300781 1027.398438 10.300781 C 1017.5 10.300781 1017.101562 13.199219 1017.101562 18.898438 C 1017.101562 24.601562 1019.601562 24.699219 1023.699219 25.5 L 1028.601562 26.699219 C 1032.699219 27.5 1034 28.398438 1034 30.398438 C 1034 33.699219 1031.101562 34.898438 1027.800781 34.898438 C 1021.601562 34.898438 1020.800781 31.199219 1020.800781 29.101562 L 1016.300781 29.101562 C 1016.699219 32.398438 1017.601562 38.601562 1027.800781 38.601562 C 1038 38.601562 1038.5 35.300781 1038.5 30 C 1038.5 24.699219 1036.800781 24.199219 1031.101562 22.601562 L 1026.601562 21.800781 C 1022.898438 20.601562 1021.699219 20.101562 1021.699219 18.101562 C 1021.699219 14.800781 1025.800781 14.398438 1027.101562 14.398438 C 1032.898438 14.398438 1033.300781 16.898438 1033.699219 18.898438 L 1037.898438 18.898438 Z M 1037.699219 18.898438 "/>
<path style=" stroke:none;fill-rule:nonzero;fill:rgb(0%,0%,0%);fill-opacity:1;" d="M 1062 29.601562 C 1062 31.699219 1059.5 35 1055.398438 35 L 1055 35 L 1055 38.699219 C 1059.101562 38.699219 1060.800781 37.898438 1062 37 C 1065.300781 34.5 1066.5 30.800781 1066.5 29.601562 L 1061.898438 29.601562 Z M 1055 25.898438 L 1067 25.898438 C 1067 16.398438 1063.300781 10.300781 1055.5 10.300781 L 1055.101562 10.300781 L 1055.101562 14.398438 C 1060.5 14.398438 1062.101562 18.101562 1062.5 22.199219 L 1055.101562 22.199219 L 1055.101562 25.898438 Z M 1055 35 C 1050.101562 34.601562 1047.601562 31.699219 1047.601562 26 L 1055 26 L 1055 22.300781 L 1047.601562 22.300781 C 1047.601562 18.199219 1050.898438 14.5 1055 14.5 L 1055 10.398438 C 1046.398438 10.800781 1042.699219 17.398438 1042.699219 25.199219 C 1042.699219 33 1047.199219 38.800781 1054.601562 38.800781 L 1055 38.800781 Z M 1055 35 "/>
<path style=" stroke:none;fill-rule:nonzero;fill:rgb(0%,0%,0%);fill-opacity:1;" d="M 1077.601562 22.199219 C 1077.601562 18.5 1080.101562 15.199219 1084.601562 15.199219 L 1086.199219 15.199219 L 1086.199219 10.300781 L 1085 10.300781 C 1081.699219 10.300781 1079.199219 12.398438 1077.601562 15.699219 L 1077.199219 15.699219 L 1077.199219 11.199219 L 1073.101562 11.199219 L 1073.101562 37.898438 L 1077.601562 37.898438 Z M 1077.601562 22.199219 "/>
<path style=" stroke:none;fill-rule:nonzero;fill:rgb(0%,0%,0%);fill-opacity:1;" d="M 1100.699219 32.898438 L 1100.300781 32.898438 L 1093.300781 11.101562 L 1088.300781 11.101562 L 1098.199219 37.898438 L 1102.699219 37.898438 L 1113 11.101562 L 1108.101562 11.101562 Z M 1100.699219 32.898438 "/>
<path style=" stroke:none;fill-rule:nonzero;fill:rgb(0%,0%,0%);fill-opacity:1;" d="M 1121.699219 11.101562 L 1117.199219 11.101562 L 1117.199219 37.800781 L 1121.699219 37.800781 Z M 1121.699219 1.199219 L 1117.199219 1.199219 L 1117.199219 6.101562 L 1121.699219 6.101562 Z M 1121.699219 1.199219 "/>
<path style=" stroke:none;fill-rule:nonzero;fill:rgb(0%,0%,0%);fill-opacity:1;" d="M 1149.601562 20.199219 C 1149.199219 15.699219 1146.300781 10.300781 1139.300781 10.300781 C 1132.300781 10.300781 1126.601562 16.898438 1126.601562 25.101562 C 1126.601562 33.300781 1131.101562 38.699219 1138.5 38.699219 C 1145.898438 38.699219 1148.800781 32.898438 1149.601562 28.398438 L 1145.101562 28.398438 C 1144.300781 32.5 1141.800781 35 1138.5 35 C 1132.300781 35 1131.101562 29.199219 1131.101562 24.699219 C 1131.101562 20.199219 1133.199219 14.398438 1138.5 14.398438 C 1143.800781 14.398438 1144.699219 16.5 1145.101562 20.199219 C 1145.101562 20.199219 1149.601562 20.199219 1149.601562 20.199219 Z M 1149.601562 20.199219 "/>
<path style=" stroke:none;fill-rule:nonzero;fill:rgb(0%,0%,0%);fill-opacity:1;" d="M 1172.300781 29.601562 C 1172.300781 31.699219 1169.800781 35 1165.300781 35 L 1164.898438 35 L 1164.898438 38.699219 C 1169 38.699219 1171.101562 37.898438 1171.898438 37 C 1175.601562 34.5 1176.800781 30.800781 1176.800781 29.601562 Z M 1164.898438 25.898438 L 1177.199219 25.898438 C 1177.199219 16.398438 1173.5 10.300781 1165.699219 10.300781 L 1164.898438 10.300781 L 1164.898438 14.398438 C 1170.699219 14.398438 1172.300781 18.101562 1172.699219 22.199219 L 1164.898438 22.199219 C 1164.898438 22.199219 1164.898438 25.898438 1164.898438 25.898438 Z M 1164.898438 35 C 1160 34.601562 1157.5 31.699219 1157.5 26 L 1164.898438 26 L 1164.898438 22.300781 L 1157.5 22.300781 C 1157.5 18.199219 1160.800781 14.5 1164.898438 14.5 L 1164.898438 10.398438 C 1156.699219 10.800781 1152.601562 17.398438 1152.601562 25.199219 C 1152.601562 33 1157.101562 38.800781 1164.898438 38.800781 Z M 1164.898438 35 "/>
<path style=" stroke:none;fill-rule:nonzero;fill:rgb(0%,0%,0%);fill-opacity:1;" d="M 1202.300781 18.898438 C 1202.300781 17.199219 1201.5 10.300781 1192 10.300781 C 1182.5 10.300781 1181.699219 13.199219 1181.699219 18.898438 C 1181.699219 24.601562 1184.199219 24.699219 1187.898438 25.5 L 1193.300781 26.699219 C 1197 27.5 1198.699219 28.398438 1198.699219 30.398438 C 1198.699219 33.699219 1195.800781 34.898438 1192.5 34.898438 C 1185.898438 34.898438 1185.5 31.199219 1185.5 29.101562 L 1181 29.101562 C 1181 32.398438 1181.800781 38.601562 1192.5 38.601562 C 1203.199219 38.601562 1203.199219 35.300781 1203.199219 30 C 1203.199219 24.699219 1201.101562 24.199219 1195.800781 22.601562 L 1191.300781 21.800781 C 1187.601562 20.601562 1186.398438 20.101562 1186.398438 18.101562 C 1186.398438 14.800781 1190.101562 14.398438 1191.800781 14.398438 C 1197.601562 14.398438 1198 16.898438 1198 18.898438 L 1202.5 18.898438 Z M 1202.300781 18.898438 "/>
<path style=" stroke:none;fill-rule:nonzero;fill:rgb(0%,0%,0%);fill-opacity:1;" d="M 742.601562 65.398438 L 742.601562 61.699219 L 738.101562 61.699219 L 738.101562 58.398438 C 738.101562 55.898438 738.898438 55.101562 741 55.101562 L 742.601562 55.101562 L 742.601562 51 L 740.5 51 C 736 51 733.5 53.101562 733.5 57.199219 L 733.5 61.699219 L 729.800781 61.699219 L 729.800781 65.398438 L 733.5 65.398438 L 733.5 88.398438 L 738 88.398438 L 738 65.398438 Z M 742.601562 65.398438 "/>
<path style=" stroke:none;fill-rule:nonzero;fill:rgb(0%,0%,0%);fill-opacity:1;" d="M 752.101562 72.898438 C 752.101562 69.199219 754.601562 65.898438 759.101562 65.898438 L 760.800781 65.898438 L 760.800781 61 L 759.5 61 C 756.199219 61 753.699219 63.101562 751.699219 66.398438 L 751.699219 61.898438 L 747.601562 61.898438 L 747.601562 88.699219 L 752.101562 88.699219 Z M 752.101562 72.898438 "/>
<path style=" stroke:none;fill-rule:nonzero;fill:rgb(0%,0%,0%);fill-opacity:1;" d="M 774.699219 89.300781 C 782.898438 89.300781 787 81.898438 787 74.898438 C 787 67.898438 782.898438 60.898438 774.699219 60.898438 L 774.699219 64.601562 C 780.898438 64.601562 782.5 71.601562 782.5 74.898438 C 782.5 78.199219 780.800781 85.199219 774.699219 85.199219 Z M 762.398438 74.898438 C 762.398438 81.898438 766.5 89.300781 774.699219 89.300781 L 774.699219 85.199219 C 768.5 85.199219 767.300781 78.601562 767.300781 74.898438 C 767.300781 71.199219 768.601562 64.601562 774.699219 64.601562 L 774.699219 60.898438 C 766.5 60.898438 762.398438 68.300781 762.398438 74.898438 "/>
<path style=" stroke:none;fill-rule:nonzero;fill:rgb(0%,0%,0%);fill-opacity:1;" d="M 814.199219 70.398438 C 814.199219 62.601562 808.800781 60.898438 804.699219 60.898438 C 800.601562 60.898438 797.300781 64.199219 796.5 65.398438 L 796.5 61.699219 L 792 61.699219 L 792 88.5 L 796.5 88.5 L 796.5 74.101562 C 796.5 66.699219 801 65.101562 803.898438 65.101562 C 806.800781 65.101562 809.699219 67.601562 809.699219 72.101562 L 809.699219 88.601562 L 814.199219 88.601562 Z M 814.199219 70.398438 "/>
<path style=" stroke:none;fill-rule:nonzero;fill:rgb(0%,0%,0%);fill-opacity:1;" d="M 830.699219 65.398438 L 830.699219 61.699219 L 826.199219 61.699219 L 826.199219 54.300781 L 821.699219 54.300781 L 821.699219 61.699219 L 818.398438 61.699219 L 818.398438 65.398438 L 821.699219 65.398438 L 821.699219 83.101562 C 821.699219 86.398438 822.898438 88.898438 827.5 88.898438 C 832.101562 88.898438 829.199219 88.898438 830.800781 88.5 L 830.800781 85.199219 L 829.199219 85.199219 C 828.398438 85.199219 826.300781 85.199219 826.300781 82.699219 L 826.300781 65.398438 L 830.800781 65.398438 Z M 830.699219 65.398438 "/>
<path style=" stroke:none;fill-rule:nonzero;fill:rgb(0%,0%,0%);fill-opacity:1;" d="M 845.101562 64.601562 C 849.601562 64.601562 851.699219 66.300781 851.699219 69.101562 C 851.699219 71.898438 850.5 72 849.199219 72 L 845.101562 72.800781 L 845.101562 76.5 C 849.601562 75.699219 850.898438 75.300781 851.699219 74.800781 L 851.699219 79.300781 C 851.699219 82.199219 848.398438 84.699219 845.101562 85.5 L 845.101562 88.800781 C 848.398438 88.398438 850.5 86.300781 851.699219 84.699219 C 852.101562 86.800781 852.5 88.800781 856.601562 88.800781 C 860.699219 88.800781 858.199219 88.800781 859.101562 88.398438 L 859.101562 85.101562 C 858.699219 85.101562 857.898438 85.5 857.5 85.5 C 856.699219 85.5 856.199219 85.101562 856.199219 83.800781 L 856.199219 68.101562 C 856.199219 61.101562 848.398438 60.699219 845.898438 60.699219 L 845.101562 60.699219 Z M 838.898438 70 C 839.300781 67.898438 840.101562 64.601562 845.101562 64.601562 L 845.101562 60.898438 C 838.898438 61.300781 835.199219 63.800781 834.800781 69.898438 L 838.898438 69.898438 Z M 845.101562 72.898438 L 841.800781 73.300781 C 834.398438 74.101562 833.601562 79.5 833.601562 81.5 C 833.601562 86 837.300781 89.300781 842.199219 89.300781 C 847.101562 89.300781 843.800781 89.300781 845.101562 88.898438 L 845.101562 85.601562 L 843 85.601562 C 839.699219 85.601562 838.101562 83.898438 838.101562 81.101562 C 838.101562 78.300781 841.800781 77 843.898438 76.601562 L 845.199219 76.601562 L 845.199219 72.898438 Z M 845.101562 72.898438 "/>
<path style=" stroke:none;fill-rule:nonzero;fill:rgb(0%,0%,0%);fill-opacity:1;" d="M 863.601562 51.398438 L 868.101562 51.398438 L 868.101562 88.398438 L 863.601562 88.398438 Z M 863.601562 51.398438 "/>
<path style=" stroke:none;fill-rule:nonzero;fill:rgb(0%,0%,0%);fill-opacity:1;" d="M 879.699219 61.699219 L 875.199219 61.699219 L 875.199219 88.5 L 879.699219 88.5 Z M 879.699219 51.398438 L 875.199219 51.398438 L 875.199219 56.800781 L 879.699219 56.800781 Z M 879.699219 51.398438 "/>
<path style=" stroke:none;fill-rule:nonzero;fill:rgb(0%,0%,0%);fill-opacity:1;" d="M 904.800781 80.199219 C 904.800781 82.300781 902.300781 85.601562 897.800781 85.601562 L 897.800781 89.300781 C 901.898438 89.300781 903.601562 88.5 904.800781 87.601562 C 908.101562 85.101562 909.300781 81.398438 909.300781 80.199219 Z M 897.800781 76.5 L 909.699219 76.5 C 909.699219 67 906 60.800781 898.199219 60.800781 L 897.800781 60.800781 L 897.800781 64.898438 C 903.199219 64.898438 904.800781 68.601562 905.199219 72.699219 L 897.800781 72.699219 Z M 897.800781 85.601562 C 892.398438 85.199219 890 81.898438 890 76.601562 L 897.800781 76.601562 L 897.800781 72.898438 L 890 72.898438 C 890 68.800781 893.300781 65.101562 897.398438 65.101562 L 897.800781 65.101562 L 897.800781 61 C 889.199219 61.398438 885.5 68 885.5 75.800781 C 885.5 83.601562 889.601562 89.398438 897.398438 89.398438 L 897.800781 89.398438 Z M 897.800781 85.601562 "/>
<path style=" stroke:none;fill-rule:nonzero;fill:rgb(0%,0%,0%);fill-opacity:1;" d="M 920.398438 72.898438 C 920.398438 69.199219 922.898438 65.898438 927 65.898438 L 929.101562 65.898438 L 929.101562 61 L 927.898438 61 C 924.199219 61 922.101562 63.101562 920.101562 66.398438 L 920.101562 61.898438 L 916 61.898438 L 916 88.699219 L 920.5 88.699219 L 920.5 73 Z M 920.398438 72.898438 "/>
<path style=" stroke:none;fill-rule:nonzero;fill:rgb(0%,0%,0%);fill-opacity:1;" d="M 952.101562 69.199219 C 952.101562 67.898438 951.300781 61 941.800781 61 C 932.300781 61 931.5 63.5 931.5 69.601562 C 931.5 75.699219 934 75 937.699219 76.199219 L 943.101562 77.398438 C 946.800781 78.199219 948.5 79.101562 948.5 81.101562 C 948.5 84 945.601562 85.601562 942.300781 85.601562 C 935.699219 85.601562 935.300781 81.898438 934.898438 79.800781 L 930.800781 79.800781 C 930.800781 83.101562 931.601562 89.300781 942.300781 89.300781 C 953 89.300781 953 86 953 80.300781 C 953 74.601562 950.898438 74.898438 945.199219 73.300781 L 940.699219 72.101562 C 937.398438 71.300781 935.800781 70.898438 935.800781 68.800781 C 935.800781 65.5 939.898438 64.699219 941.199219 64.699219 C 947 64.699219 947.800781 67.601562 947.800781 69.199219 L 952.398438 69.199219 Z M 952.101562 69.199219 "/>
<path style=" stroke:none;fill-rule:nonzero;fill:rgb(0%,0%,0%);fill-opacity:1;" d="M 994.5 51.398438 L 990 51.398438 L 990 65.398438 C 989.199219 64.199219 987.101562 61.300781 982.601562 60.898438 L 982.601562 65 L 983 65 C 989.199219 65 990 72 990 76.5 C 990 83.5 985.5 85.101562 982.601562 85.5 L 982.601562 89.199219 C 985.5 89.199219 988.398438 88.398438 990.398438 84.699219 L 990.398438 88.398438 L 994.5 88.398438 Z M 982.601562 60.898438 L 982.199219 60.898438 C 974.800781 60.898438 970.699219 66.699219 970.699219 74.5 C 970.699219 82.300781 973.601562 89.300781 982.601562 89.300781 L 982.601562 85.601562 C 977.699219 85.601562 975.601562 81.101562 975.601562 74.898438 C 975.601562 68.699219 976 65 982.601562 65 Z M 982.601562 60.898438 "/>
<path style=" stroke:none;fill-rule:nonzero;fill:rgb(0%,0%,0%);fill-opacity:1;" d="M 1022.898438 88.5 L 1022.898438 61.699219 L 1018.398438 61.699219 L 1018.398438 76.5 C 1018.398438 80.199219 1016.300781 85.5 1011 85.5 C 1005.699219 85.5 1005.601562 83.800781 1005.601562 79.300781 L 1005.601562 61.601562 L 1001.101562 61.601562 L 1001.101562 80.898438 C 1001.101562 87.101562 1006 89.101562 1009.699219 89.101562 C 1013.398438 89.101562 1016.300781 87.398438 1018.300781 84.199219 L 1018.300781 88.300781 L 1022.800781 88.300781 L 1022.800781 88.5 Z M 1022.898438 88.5 "/>
<path style=" stroke:none;fill-rule:nonzero;fill:rgb(0%,0%,0%);fill-opacity:1;" d="M 1075.199219 62.601562 C 1074.398438 56.398438 1069.398438 50.699219 1060 50.699219 C 1050.601562 50.699219 1042.699219 58.5 1042.699219 70 C 1042.699219 81.5 1050.898438 89.800781 1059.601562 89.800781 C 1068.300781 89.800781 1073.601562 89 1075.699219 75 L 1070.800781 75 C 1069.199219 83.601562 1063.398438 85.300781 1060.101562 85.300781 C 1051.101562 85.300781 1048.199219 78.699219 1048.199219 69.699219 C 1048.199219 60.699219 1053.601562 55.300781 1060.101562 55.300781 C 1066.601562 55.300781 1069.101562 56.601562 1070.398438 62.699219 L 1075.300781 62.699219 L 1075.199219 62.699219 Z M 1075.199219 62.601562 "/>
<path style=" stroke:none;fill-rule:nonzero;fill:rgb(0%,0%,0%);fill-opacity:1;" d="M 1090.800781 64.601562 L 1091.199219 64.601562 C 1095.300781 64.601562 1097.398438 66.300781 1097.398438 69.101562 C 1097.398438 71.898438 1096.199219 72 1094.898438 72 L 1090.800781 72.800781 L 1090.800781 76.5 C 1095.699219 75.699219 1096.601562 75.300781 1097.398438 74.800781 L 1097.398438 79.300781 C 1097.398438 82.199219 1094.5 84.699219 1090.800781 85.5 L 1090.800781 88.800781 C 1094.101562 88.398438 1096.199219 86.300781 1097.800781 84.699219 C 1097.800781 86.800781 1098.199219 88.800781 1102.300781 88.800781 C 1106.398438 88.800781 1103.898438 88.800781 1104.800781 88.398438 L 1104.800781 85.101562 C 1104.398438 85.101562 1104 85.5 1103.601562 85.5 C 1102.398438 85.5 1102 85.101562 1102 83.800781 L 1102 68.101562 C 1102 61.101562 1094.199219 60.699219 1092.101562 60.699219 L 1090.800781 60.699219 Z M 1085 70 C 1085.398438 67.898438 1085.800781 64.601562 1090.800781 64.601562 L 1090.800781 60.898438 C 1084.601562 61.300781 1080.898438 63.800781 1080.898438 69.898438 L 1085 69.898438 Z M 1090.800781 72.898438 L 1087.5 73.300781 C 1080.101562 74.101562 1079.300781 79.5 1079.300781 81.5 C 1079.300781 86 1083 89.300781 1087.898438 89.300781 C 1092.800781 89.300781 1090 89.300781 1090.800781 88.898438 L 1090.800781 85.601562 L 1089.199219 85.601562 C 1085.5 85.601562 1084.300781 83.898438 1084.300781 81.101562 C 1084.300781 78.300781 1087.601562 77 1090.101562 76.601562 L 1090.898438 76.601562 L 1090.898438 72.898438 Z M 1090.800781 72.898438 "/>
<path style=" stroke:none;fill-rule:nonzero;fill:rgb(0%,0%,0%);fill-opacity:1;" d="M 1131.601562 70.398438 C 1131.601562 62.601562 1126.199219 60.898438 1122.101562 60.898438 C 1118 60.898438 1115.101562 64.199219 1113.898438 65.398438 L 1113.898438 61.699219 L 1109.800781 61.699219 L 1109.800781 88.5 L 1114.300781 88.5 L 1114.300781 74.101562 C 1114.300781 66.699219 1118.800781 65.101562 1121.300781 65.101562 C 1125.800781 65.101562 1127.101562 67.601562 1127.101562 72.101562 L 1127.101562 88.601562 L 1131.601562 88.601562 Z M 1131.601562 70.398438 "/>
<path style=" stroke:none;fill-rule:nonzero;fill:rgb(0%,0%,0%);fill-opacity:1;" d="M 1148 64.601562 L 1148.398438 64.601562 C 1152.5 64.601562 1154.601562 66.300781 1154.601562 69.101562 C 1154.601562 71.898438 1153.300781 72 1152.101562 72 L 1148 72.800781 L 1148 76.5 C 1152.898438 75.699219 1153.800781 75.300781 1154.601562 74.800781 L 1154.601562 79.300781 C 1154.601562 82.199219 1151.699219 84.699219 1148 85.5 L 1148 88.800781 C 1151.300781 88.398438 1153.398438 86.300781 1155 84.699219 C 1155 86.800781 1155.398438 88.800781 1159.5 88.800781 C 1163.601562 88.800781 1161.199219 88.800781 1162 88.398438 L 1162 85.101562 C 1161.601562 85.101562 1161.199219 85.5 1160.800781 85.5 C 1159.5 85.5 1159.101562 85.101562 1159.101562 83.800781 L 1159.101562 68.101562 C 1159.101562 61.101562 1151.300781 60.699219 1149.199219 60.699219 L 1148 60.699219 Z M 1142.199219 70 C 1142.601562 67.898438 1143 64.601562 1148 64.601562 L 1148 60.898438 C 1141.800781 61.300781 1138.101562 63.800781 1138.101562 69.898438 L 1142.199219 69.898438 Z M 1148 72.898438 L 1144.699219 73.300781 C 1137.300781 74.101562 1136.5 79.5 1136.5 81.5 C 1136.5 86 1140.199219 89.300781 1145.101562 89.300781 C 1150 89.300781 1147.199219 89.300781 1148 88.898438 L 1148 85.601562 L 1146.300781 85.601562 C 1142.601562 85.601562 1141.398438 83.898438 1141.398438 81.101562 C 1141.398438 78.300781 1144.699219 77 1147.199219 76.601562 L 1148 76.601562 Z M 1148 72.898438 "/>
<path style=" stroke:none;fill-rule:nonzero;fill:rgb(0%,0%,0%);fill-opacity:1;" d="M 1189.199219 51.398438 L 1184.699219 51.398438 L 1184.699219 65.398438 C 1183.5 64.199219 1181.800781 61.300781 1177.300781 60.898438 L 1177.300781 65 C 1183.898438 65 1184.699219 72 1184.699219 76.5 C 1184.699219 83.5 1180.199219 85.101562 1177.300781 85.5 L 1177.300781 89.199219 C 1179.800781 89.199219 1183.101562 88.398438 1184.699219 84.699219 L 1184.699219 88.398438 L 1189.199219 88.398438 Z M 1177.199219 60.898438 L 1176.398438 60.898438 C 1169.398438 60.898438 1165.300781 66.699219 1165.300781 74.5 C 1165.300781 82.300781 1167.800781 89.300781 1177.199219 89.300781 L 1177.199219 85.601562 C 1172.300781 85.601562 1169.800781 81.101562 1169.800781 74.898438 C 1169.800781 68.699219 1170.199219 65 1177.199219 65 Z M 1177.199219 60.898438 "/>
<path style=" stroke:none;fill-rule:nonzero;fill:rgb(0%,0%,0%);fill-opacity:1;" d="M 1205.199219 64.601562 L 1205.601562 64.601562 C 1209.699219 64.601562 1211.800781 66.300781 1211.800781 69.101562 C 1211.800781 71.898438 1210.5 72 1209.300781 72 L 1205.199219 72.800781 L 1205.199219 76.5 C 1210.101562 75.699219 1211 75.300781 1211.800781 74.800781 L 1211.800781 79.300781 C 1211.800781 82.199219 1208.898438 84.699219 1205.199219 85.5 L 1205.199219 88.800781 C 1208.5 88.398438 1210.601562 86.300781 1212.199219 84.699219 C 1212.199219 86.800781 1212.601562 88.800781 1216.699219 88.800781 C 1220.800781 88.800781 1218.398438 88.800781 1219.199219 88.398438 L 1219.199219 85.101562 C 1218.800781 85.101562 1218.398438 85.5 1218 85.5 C 1216.699219 85.5 1216.300781 85.101562 1216.300781 83.800781 L 1216.300781 68.101562 C 1216.300781 61.101562 1208.5 60.699219 1206.398438 60.699219 L 1205.199219 60.699219 Z M 1199.5 70 C 1199.898438 67.898438 1200.300781 64.601562 1205.300781 64.601562 L 1205.300781 60.898438 C 1199.101562 61.300781 1195.398438 63.800781 1195.398438 69.898438 L 1199.5 69.898438 Z M 1205.199219 72.898438 L 1201.898438 73.300781 C 1194.5 74.101562 1193.699219 79.5 1193.699219 81.5 C 1193.699219 86 1197.398438 89.300781 1202.300781 89.300781 C 1207.199219 89.300781 1204.300781 89.300781 1205.199219 88.898438 L 1205.199219 85.601562 L 1203.5 85.601562 C 1199.800781 85.601562 1198.601562 83.898438 1198.601562 81.101562 C 1198.601562 78.300781 1201.898438 77 1204.398438 76.601562 L 1205.199219 76.601562 Z M 1205.199219 72.898438 "/>
<path style=" stroke:none;fill-rule:nonzero;fill:rgb(91.37255%,14.509805%,17.647059%);fill-opacity:1;" d="M 0 1.199219 L 44 1.199219 L 44 88.398438 L 0 88.398438 Z M 0 1.199219 "/>
<path style=" stroke:none;fill-rule:nonzero;fill:rgb(91.37255%,14.509805%,17.647059%);fill-opacity:1;" d="M 89.699219 81.898438 C 89.699219 81.898438 89.300781 67.101562 89.300781 65.398438 C 89.300781 63.699219 91 63.699219 92.199219 63.699219 C 93.898438 64.101562 107.398438 67 107.398438 67 C 107.398438 67 106.101562 64.101562 105.300781 61.601562 C 104.898438 59.5 105.699219 59.101562 106.101562 58.699219 C 106.5 58.300781 121.800781 45.101562 121.800781 45.101562 L 119.300781 43.898438 C 117.601562 43.5 118.101562 42.199219 118.5 41.398438 C 118.5 40.601562 121 31.898438 121 31.898438 C 121 31.898438 114.800781 33.601562 112.800781 33.601562 C 111.601562 34 111.101562 33.199219 110.699219 32.398438 C 110.300781 31.601562 109 27.898438 109 27.898438 C 109 27.898438 101.199219 36.5 101.199219 36.898438 C 99.5 38.101562 97.898438 36.898438 98.300781 35.699219 C 98.699219 34 102.398438 16.398438 102.398438 16.398438 C 102.398438 16.398438 98.300781 18.898438 96.601562 19.699219 C 95.398438 20.5 94.5 20.5 94.101562 19.300781 C 93.300781 18.101562 87.898438 7.800781 87.898438 7.800781 C 87.898438 7.800781 82.5 18.101562 82.101562 19.300781 C 81.300781 20.5 80.398438 20.5 79.199219 19.699219 C 77.5 18.898438 73.800781 16.398438 73.800781 16.398438 C 73.800781 16.398438 77.5 34.101562 77.5 35.699219 C 77.898438 36.898438 76.300781 38.199219 75 36.898438 C 74.601562 36.5 66.800781 27.898438 66.800781 27.898438 C 66.800781 27.898438 65.101562 31.601562 64.699219 32.398438 C 64.300781 33.199219 63.898438 34.101562 62.601562 33.601562 C 61.398438 33.601562 54.800781 31.898438 54.800781 31.898438 C 54.800781 31.898438 57.300781 40.5 57.699219 41.398438 C 57.699219 42.199219 58.101562 43.5 56.5 43.898438 L 54 45.101562 C 54 45.101562 69.199219 58.300781 69.699219 58.699219 C 70.101562 59.101562 71.398438 59.5 70.5 61.601562 C 69.699219 64.101562 68.800781 67 68.800781 67 C 68.800781 67 82.398438 64.101562 83.601562 63.699219 C 85.300781 63.699219 86.5 64.101562 86.5 65.398438 C 86.5 66.699219 85.699219 81.898438 85.699219 81.898438 Z M 89.699219 81.898438 "/>
<path style=" stroke:none;fill-rule:nonzero;fill:rgb(91.37255%,14.509805%,17.647059%);fill-opacity:1;" d="M 131.601562 1.199219 L 175.601562 1.199219 L 175.601562 88.398438 L 131.601562 88.398438 Z M 131.601562 1.199219 "/>
</g>
</svg>
