<?xml version="1.0" encoding="UTF-8"?>
<svg xmlns="http://www.w3.org/2000/svg" xmlns:xlink="http://www.w3.org/1999/xlink" width="px" height="100px" viewBox="0 0 1220 100" version="1.1">
<g id="surface1">
<path style=" stroke:none;fill-rule:nonzero;fill:rgb(0%,0%,0%);fill-opacity:1;" d="M 272.601562 27.199219 L 276.300781 37.898438 L 281.699219 37.898438 L 268.5 1.300781 L 265.199219 1.300781 L 265.199219 7.101562 L 265.199219 6.699219 L 271 22.800781 L 265.199219 22.800781 L 265.199219 27.300781 L 272.601562 27.300781 Z M 265.101562 1.199219 L 262.601562 1.199219 L 248.601562 37.800781 L 254 37.800781 L 257.699219 27.101562 L 265.101562 27.101562 L 265.101562 22.601562 L 259.300781 22.601562 L 265.101562 6.898438 Z M 265.101562 1.199219 "/>
<path style=" stroke:none;fill-rule:nonzero;fill:rgb(0%,0%,0%);fill-opacity:1;" d="M 296 14.398438 C 302.601562 14.398438 303.398438 21.398438 303.398438 25.898438 C 303.398438 32.898438 298.898438 34.898438 296 34.898438 L 296 38.601562 C 299.699219 38.601562 301.800781 36.898438 303 34.898438 L 303 36.601562 C 303 39.5 303 45.199219 296 45.601562 L 296 49.300781 C 307.5 48.898438 307.5 39.398438 307.5 35.699219 L 307.5 11.101562 L 303.398438 11.101562 L 303.398438 15.199219 C 302.199219 13.5 300.5 10.699219 296 10.300781 Z M 288.601562 24.300781 C 288.601562 21 289 14.398438 296 14.398438 L 296 10.300781 L 295.199219 10.300781 C 288.199219 10.300781 284.5 16.101562 284.5 23.898438 C 284.5 31.699219 287 38.699219 296 38.699219 L 296 35 C 291.101562 35 288.601562 30.5 288.601562 24.300781 M 296 45.699219 L 296 49.398438 L 295.199219 49.398438 C 291.898438 49.398438 286.199219 48.601562 285.300781 41.199219 L 289.398438 41.199219 C 290.199219 45.699219 294.300781 45.699219 295.601562 45.699219 C 295.601562 45.699219 296 45.699219 296 45.699219 Z M 296 45.699219 "/>
<path style=" stroke:none;fill-rule:nonzero;fill:rgb(0%,0%,0%);fill-opacity:1;" d="M 332.199219 29.601562 C 332.199219 31.699219 329.300781 35 325.199219 35 L 324.800781 35 L 324.800781 38.699219 C 328.898438 38.699219 330.601562 37.898438 331.800781 37 C 335.5 34.5 336.699219 30.800781 336.699219 29.601562 Z M 324.800781 25.898438 L 337.101562 25.898438 C 337.101562 16.398438 333.398438 10.300781 325.601562 10.300781 L 324.800781 10.300781 L 324.800781 14.398438 C 330.601562 14.398438 332.199219 18.101562 332.199219 22.199219 L 324.800781 22.199219 C 324.800781 22.199219 324.800781 25.898438 324.800781 25.898438 Z M 324.800781 35 C 319.898438 34.601562 317.398438 31.699219 317.398438 26 L 324.800781 26 L 324.800781 22.300781 L 317.398438 22.300781 C 317.398438 18.199219 320.699219 14.5 324.800781 14.5 L 324.800781 10.398438 C 316.601562 10.800781 312.5 17.398438 312.5 25.199219 C 312.5 33 317 38.800781 324.800781 38.800781 Z M 324.800781 35 "/>
<path style=" stroke:none;fill-rule:nonzero;fill:rgb(0%,0%,0%);fill-opacity:1;" d="M 364.300781 19.800781 C 364.300781 12 358.898438 10.300781 354.800781 10.300781 C 350.699219 10.300781 347.800781 13.601562 347 14.800781 L 346.601562 14.800781 L 346.601562 11.101562 L 342.5 11.101562 L 342.5 37.800781 L 347 37.800781 L 347 23.398438 C 347 16 351.5 14.398438 354 14.398438 C 358.5 14.398438 359.800781 16.898438 359.800781 21.398438 L 359.800781 37.898438 L 364.300781 37.898438 Z M 364.300781 19.800781 "/>
<path style=" stroke:none;fill-rule:nonzero;fill:rgb(0%,0%,0%);fill-opacity:1;" d="M 392.300781 20.199219 C 391.898438 15.699219 389.398438 10.300781 382 10.300781 C 374.601562 10.300781 369.300781 16.898438 369.300781 25.101562 C 369.300781 33.300781 373.800781 38.699219 381.199219 38.699219 C 388.601562 38.699219 391.898438 32.898438 392.300781 28.398438 L 387.800781 28.398438 C 387 32.5 384.5 35 381.601562 35 C 375.398438 35 374.199219 29.199219 374.199219 24.699219 C 374.199219 20.199219 375.898438 14.398438 381.601562 14.398438 C 387.300781 14.398438 387.398438 16.5 387.800781 20.199219 Z M 392.300781 20.199219 "/>
<path style=" stroke:none;fill-rule:nonzero;fill:rgb(0%,0%,0%);fill-opacity:1;" d="M 414.898438 29.601562 C 414.898438 31.699219 412.398438 35 408.300781 35 L 407.898438 35 L 407.898438 38.699219 C 412 38.699219 413.699219 37.898438 414.898438 37 C 418.199219 34.5 419.398438 30.800781 419.398438 29.601562 Z M 407.898438 25.898438 L 419.800781 25.898438 C 419.800781 16.398438 416.101562 10.300781 408.300781 10.300781 L 407.898438 10.300781 L 407.898438 14.398438 C 413.300781 14.398438 414.898438 18.101562 415.300781 22.199219 L 407.898438 22.199219 Z M 407.898438 35 C 403 34.601562 400.5 31.699219 400.5 26 L 407.898438 26 L 407.898438 22.300781 L 400.5 22.300781 C 400.5 18.199219 403.800781 14.5 407.898438 14.5 L 407.898438 10.398438 C 399.300781 10.800781 395.601562 17.398438 395.601562 25.199219 C 395.601562 33 400.101562 38.800781 407.5 38.800781 L 407.898438 38.800781 Z M 407.898438 35 "/>
<path style=" stroke:none;fill-rule:nonzero;fill:rgb(0%,0%,0%);fill-opacity:1;" d="M 461.800781 1.199219 L 457.300781 1.199219 L 457.300781 14.800781 C 456.5 13.601562 454.398438 10.699219 450.300781 10.300781 L 450.300781 14.398438 C 456.898438 14.398438 457.300781 21.398438 457.300781 25.898438 C 457.300781 32.898438 453.199219 34.898438 450.300781 34.898438 L 450.300781 38.601562 C 452.800781 38.601562 455.699219 37.800781 457.699219 34.101562 L 457.699219 37.800781 L 461.800781 37.800781 Z M 450.300781 10.300781 L 449.5 10.300781 C 442.101562 10.300781 438 16.101562 438 23.898438 C 438 31.699219 440.898438 38.699219 449.898438 38.699219 L 450.300781 38.699219 L 450.300781 35 L 449.898438 35 C 445 35 442.898438 30.5 442.898438 24.300781 C 442.898438 18.101562 443.300781 14.398438 450.300781 14.398438 Z M 450.300781 10.300781 "/>
<path style=" stroke:none;fill-rule:nonzero;fill:rgb(0%,0%,0%);fill-opacity:1;" d="M 486.5 29.601562 C 486.5 31.699219 484 35 479.5 35 L 479.5 38.699219 C 483.601562 38.699219 485.300781 37.898438 486.5 37 C 489.800781 34.5 491 30.800781 491 29.601562 Z M 479.5 25.898438 L 491.398438 25.898438 C 491.398438 16.398438 487.699219 10.300781 479.898438 10.300781 L 479.5 10.300781 L 479.5 14.398438 C 484.898438 14.398438 486.5 18.101562 486.898438 22.199219 L 479.5 22.199219 Z M 479.5 35 C 474.101562 34.601562 471.699219 31.699219 471.699219 26 L 479.5 26 L 479.5 22.300781 L 471.699219 22.300781 C 471.699219 18.199219 475 14.5 479.101562 14.5 L 479.5 14.5 L 479.5 10.398438 C 470.898438 10.800781 467.101562 17.398438 467.101562 25.199219 C 467.101562 33 471.199219 38.800781 479.101562 38.800781 L 479.5 38.800781 Z M 479.5 35 "/>
<path style=" stroke:none;fill-rule:nonzero;fill:rgb(0%,0%,0%);fill-opacity:1;" d="M 516.5 19 C 516.5 17.300781 515.699219 10.398438 506.199219 10.398438 C 496.699219 10.398438 495.898438 13.300781 495.898438 19 C 495.898438 24.699219 498.398438 24.800781 502.101562 25.601562 L 507.5 26.800781 C 511.199219 27.601562 512.898438 28.5 512.898438 30.5 C 512.898438 33.800781 510 35 506.699219 35 C 500.5 35 499.699219 31.300781 499.699219 29.199219 L 495.199219 29.199219 C 495.199219 32.5 496 38.699219 506.699219 38.699219 C 517.398438 38.699219 517.398438 35.398438 517.398438 30.101562 C 517.398438 24.800781 515.300781 24.300781 510 22.699219 L 505.5 21.898438 C 501.800781 20.699219 500.601562 20.199219 500.601562 18.199219 C 500.601562 14.898438 504.300781 14.5 506 14.5 C 511.800781 14.5 512.199219 17 512.199219 19 C 512.199219 19 516.699219 19 516.699219 19 Z M 516.5 19 "/>
<path style=" stroke:none;fill-rule:nonzero;fill:rgb(0%,0%,0%);fill-opacity:1;" d="M 556.5 19 C 556.5 17.300781 556.101562 10.398438 546.199219 10.398438 C 536.300781 10.398438 535.898438 13.300781 535.898438 19 C 535.898438 24.699219 538.398438 24.800781 542.5 25.601562 L 547.398438 26.800781 C 551.5 27.601562 552.800781 28.5 552.800781 30.5 C 552.800781 33.800781 549.898438 35 546.601562 35 C 540.398438 35 539.601562 31.300781 539.601562 29.199219 L 535.101562 29.199219 C 535.5 32.5 536.398438 38.699219 546.601562 38.699219 C 556.800781 38.699219 557.300781 35.398438 557.300781 30.101562 C 557.300781 24.800781 555.601562 24.300781 549.898438 22.699219 L 545.398438 21.898438 C 541.699219 20.699219 540.5 20.199219 540.5 18.199219 C 540.5 14.898438 544.601562 14.5 545.898438 14.5 C 551.699219 14.5 552.101562 17 552.5 19 L 556.699219 19 Z M 556.5 19 "/>
<path style=" stroke:none;fill-rule:nonzero;fill:rgb(0%,0%,0%);fill-opacity:1;" d="M 580.699219 29.601562 C 580.699219 31.699219 578.199219 35 574.101562 35 L 573.699219 35 L 573.699219 38.699219 C 577.800781 38.699219 579.5 37.898438 580.699219 37 C 584 34.5 585.199219 30.800781 585.199219 29.601562 L 580.601562 29.601562 Z M 573.699219 25.898438 L 585.699219 25.898438 C 585.699219 16.398438 582 10.300781 574.199219 10.300781 L 573.800781 10.300781 L 573.800781 14.398438 C 579.199219 14.398438 580.800781 18.101562 581.199219 22.199219 L 573.800781 22.199219 L 573.800781 25.898438 Z M 573.699219 35 C 568.800781 34.601562 566.300781 31.699219 566.300781 26 L 573.699219 26 L 573.699219 22.300781 L 566.300781 22.300781 C 566.300781 18.199219 569.601562 14.5 573.699219 14.5 L 573.699219 10.398438 C 565.101562 10.800781 561.398438 17.398438 561.398438 25.199219 C 561.398438 33 565.898438 38.800781 573.300781 38.800781 L 573.699219 38.800781 Z M 573.699219 35 "/>
<path style=" stroke:none;fill-rule:nonzero;fill:rgb(0%,0%,0%);fill-opacity:1;" d="M 596.398438 22.199219 C 596.398438 18.5 598.898438 15.199219 603.398438 15.199219 L 605 15.199219 L 605 10.300781 L 603.800781 10.300781 C 600.5 10.300781 598 12.398438 596.398438 15.699219 L 596 15.699219 L 596 11.199219 L 591.898438 11.199219 L 591.898438 37.898438 L 596.398438 37.898438 Z M 596.398438 22.199219 "/>
<path style=" stroke:none;fill-rule:nonzero;fill:rgb(0%,0%,0%);fill-opacity:1;" d="M 619.398438 32.898438 L 619 32.898438 L 612 11.101562 L 607.101562 11.101562 L 617 37.898438 L 621.5 37.898438 L 631.800781 11.101562 L 626.800781 11.101562 Z M 619.398438 32.898438 "/>
<path style=" stroke:none;fill-rule:nonzero;fill:rgb(0%,0%,0%);fill-opacity:1;" d="M 640.398438 11.101562 L 635.898438 11.101562 L 635.898438 37.800781 L 640.398438 37.800781 Z M 640.398438 1.199219 L 635.898438 1.199219 L 635.898438 6.101562 L 640.398438 6.101562 Z M 640.398438 1.199219 "/>
<path style=" stroke:none;fill-rule:nonzero;fill:rgb(0%,0%,0%);fill-opacity:1;" d="M 668.398438 20.199219 C 668 15.699219 665.101562 10.300781 658.101562 10.300781 C 651.101562 10.300781 645.398438 16.898438 645.398438 25.101562 C 645.398438 33.300781 649.898438 38.699219 657.300781 38.699219 C 664.699219 38.699219 667.601562 32.898438 668.398438 28.398438 L 663.898438 28.398438 C 663.101562 32.5 660.601562 35 657.300781 35 C 651.101562 35 649.898438 29.199219 649.898438 24.699219 C 649.898438 20.199219 652 14.398438 657.300781 14.398438 C 662.601562 14.398438 663.5 16.5 663.898438 20.199219 Z M 668.398438 20.199219 "/>
<path style=" stroke:none;fill-rule:nonzero;fill:rgb(0%,0%,0%);fill-opacity:1;" d="M 691 29.601562 C 691 31.699219 688.5 35 684 35 L 683.601562 35 L 683.601562 38.699219 C 687.699219 38.699219 689.800781 37.898438 690.601562 37 C 694.300781 34.5 695.5 30.800781 695.5 29.601562 Z M 683.601562 25.898438 L 695.898438 25.898438 C 695.898438 16.398438 692.199219 10.300781 684.398438 10.300781 L 683.601562 10.300781 L 683.601562 14.398438 C 689.398438 14.398438 691 18.101562 691.398438 22.199219 L 683.601562 22.199219 Z M 683.601562 35 C 678.699219 34.601562 676.199219 31.699219 676.199219 26 L 683.601562 26 L 683.601562 22.300781 L 676.199219 22.300781 C 676.199219 18.199219 679.5 14.5 683.601562 14.5 L 683.601562 10.398438 C 675.398438 10.800781 671.300781 17.398438 671.300781 25.199219 C 671.300781 33 675.800781 38.800781 683.601562 38.800781 Z M 683.601562 35 "/>
<path style=" stroke:none;fill-rule:nonzero;fill:rgb(0%,0%,0%);fill-opacity:1;" d="M 721.101562 19 C 721.101562 17.300781 720.300781 10.398438 710.800781 10.398438 C 701.300781 10.398438 700.5 13.300781 700.5 19 C 700.5 24.699219 703 24.800781 706.699219 25.601562 L 712.101562 26.800781 C 715.800781 27.601562 717.5 28.5 717.5 30.5 C 717.5 33.800781 714.601562 35 711.300781 35 C 704.699219 35 704.300781 31.300781 704.300781 29.199219 L 699.800781 29.199219 C 699.800781 32.5 700.601562 38.699219 711.300781 38.699219 C 722 38.699219 722 35.398438 722 30.101562 C 722 24.800781 719.898438 24.300781 714.601562 22.699219 L 710.101562 21.898438 C 706.398438 20.699219 705.199219 20.199219 705.199219 18.199219 C 705.199219 14.898438 708.898438 14.5 710.601562 14.5 C 716.398438 14.5 716.800781 17 716.800781 19 C 716.800781 19 721.300781 19 721.300781 19 Z M 721.101562 19 "/>
<path style=" stroke:none;fill-rule:nonzero;fill:rgb(0%,0%,0%);fill-opacity:1;" d="M 261.398438 65.398438 L 261.398438 61.699219 L 256.898438 61.699219 L 256.898438 58.398438 C 256.898438 55.898438 257.699219 55.101562 259.800781 55.101562 L 261.398438 55.101562 L 261.398438 51 L 259.300781 51 C 254.800781 51 252.300781 53.101562 252.300781 57.199219 L 252.300781 61.699219 L 248.601562 61.699219 L 248.601562 65.398438 L 252.300781 65.398438 L 252.300781 88.398438 L 256.800781 88.398438 L 256.800781 65.398438 Z M 261.398438 65.398438 "/>
<path style=" stroke:none;fill-rule:nonzero;fill:rgb(0%,0%,0%);fill-opacity:1;" d="M 270.898438 72.898438 C 270.898438 69.199219 273.398438 65.898438 277.898438 65.898438 L 279.601562 65.898438 L 279.601562 61 L 278.300781 61 C 275 61 272.5 63.101562 270.5 66.398438 L 270.5 61.898438 L 266.398438 61.898438 L 266.398438 88.699219 L 270.898438 88.699219 Z M 270.898438 72.898438 "/>
<path style=" stroke:none;fill-rule:nonzero;fill:rgb(0%,0%,0%);fill-opacity:1;" d="M 293.5 89.300781 C 301.699219 89.300781 305.800781 81.898438 305.800781 74.898438 C 305.800781 67.898438 301.699219 60.898438 293.5 60.898438 L 293.5 64.601562 C 299.699219 64.601562 301.300781 71.601562 301.300781 74.898438 C 301.300781 78.199219 299.601562 85.199219 293.5 85.199219 C 293.5 85.199219 293.5 89.300781 293.5 89.300781 Z M 281.199219 74.898438 C 281.199219 81.898438 285.300781 89.300781 293.5 89.300781 L 293.5 85.199219 C 287.300781 85.199219 286.101562 78.601562 286.101562 74.898438 C 286.101562 71.199219 287.398438 64.601562 293.5 64.601562 L 293.5 60.898438 C 285.300781 60.898438 281.199219 68.300781 281.199219 74.898438 "/>
<path style=" stroke:none;fill-rule:nonzero;fill:rgb(0%,0%,0%);fill-opacity:1;" d="M 333 70.398438 C 333 62.601562 327.601562 60.898438 323.5 60.898438 C 319.398438 60.898438 316.101562 64.199219 315.300781 65.398438 L 315.300781 61.699219 L 310.800781 61.699219 L 310.800781 88.5 L 315.300781 88.5 L 315.300781 74.101562 C 315.300781 66.699219 319.800781 65.101562 322.699219 65.101562 C 326.800781 65.101562 328.5 67.601562 328.5 72.101562 L 328.5 88.601562 L 333 88.601562 Z M 333 70.398438 "/>
<path style=" stroke:none;fill-rule:nonzero;fill:rgb(0%,0%,0%);fill-opacity:1;" d="M 349.5 65.398438 L 349.5 61.699219 L 345 61.699219 L 345 54.300781 L 340.5 54.300781 L 340.5 61.699219 L 337.199219 61.699219 L 337.199219 65.398438 L 340.5 65.398438 L 340.5 83.101562 C 340.5 86.398438 341.800781 88.898438 346.300781 88.898438 C 350.800781 88.898438 348 88.898438 349.601562 88.5 L 349.601562 85.199219 L 348 85.199219 C 347.199219 85.199219 345.101562 85.199219 345.101562 82.699219 L 345.101562 65.398438 C 345.101562 65.398438 349.601562 65.398438 349.601562 65.398438 Z M 349.5 65.398438 "/>
<path style=" stroke:none;fill-rule:nonzero;fill:rgb(0%,0%,0%);fill-opacity:1;" d="M 363.898438 64.601562 C 368.398438 64.601562 370.5 66.300781 370.5 69.101562 C 370.5 71.898438 369.300781 72 368 72 L 363.898438 72.800781 L 363.898438 76.5 C 368.398438 75.699219 369.699219 75.300781 370.5 74.800781 L 370.5 79.300781 C 370.5 82.199219 367.199219 84.699219 363.898438 85.5 L 363.898438 88.800781 C 367.199219 88.398438 369.300781 86.300781 370.5 84.699219 C 370.898438 86.800781 371.300781 88.800781 375.398438 88.800781 C 379.5 88.800781 377 88.800781 377.898438 88.398438 L 377.898438 85.101562 C 377.5 85.101562 376.699219 85.5 376.300781 85.5 C 375.5 85.5 375 85.101562 375 83.800781 L 375 68.101562 C 375 61.101562 367.199219 60.699219 364.699219 60.699219 L 363.898438 60.699219 Z M 357.699219 70 C 358.101562 67.898438 358.898438 64.601562 363.898438 64.601562 L 363.898438 60.898438 C 357.699219 61.300781 354 63.800781 353.601562 69.898438 L 357.699219 69.898438 Z M 363.898438 72.898438 L 360.601562 73.300781 C 353.199219 74.101562 352.398438 79.5 352.398438 81.5 C 352.398438 86 356.101562 89.300781 361 89.300781 C 365.898438 89.300781 362.601562 89.300781 363.898438 88.898438 L 363.898438 85.601562 L 361.800781 85.601562 C 358.5 85.601562 356.898438 83.898438 356.898438 81.101562 C 356.898438 78.300781 360.601562 77 362.699219 76.601562 L 364 76.601562 C 364 76.601562 364 72.898438 364 72.898438 Z M 363.898438 72.898438 "/>
<path style=" stroke:none;fill-rule:nonzero;fill:rgb(0%,0%,0%);fill-opacity:1;" d="M 382.398438 51.398438 L 386.898438 51.398438 L 386.898438 88.398438 L 382.398438 88.398438 Z M 382.398438 51.398438 "/>
<path style=" stroke:none;fill-rule:nonzero;fill:rgb(0%,0%,0%);fill-opacity:1;" d="M 398.398438 61.699219 L 393.898438 61.699219 L 393.898438 88.5 L 398.398438 88.5 Z M 398.398438 51.398438 L 393.898438 51.398438 L 393.898438 56.800781 L 398.398438 56.800781 Z M 398.398438 51.398438 "/>
<path style=" stroke:none;fill-rule:nonzero;fill:rgb(0%,0%,0%);fill-opacity:1;" d="M 423.601562 80.199219 C 423.601562 82.300781 421.101562 85.601562 416.601562 85.601562 L 416.601562 89.300781 C 420.699219 89.300781 422.398438 88.5 423.601562 87.601562 C 426.898438 85.101562 428.101562 81.398438 428.101562 80.199219 Z M 416.601562 76.5 L 428.5 76.5 C 428.5 67 424.800781 60.800781 417 60.800781 L 416.601562 60.800781 L 416.601562 64.898438 C 422 64.898438 423.601562 68.601562 424 72.699219 L 416.601562 72.699219 Z M 416.601562 85.601562 C 411.199219 85.199219 408.800781 81.898438 408.800781 76.601562 L 416.601562 76.601562 L 416.601562 72.898438 L 408.800781 72.898438 C 408.800781 68.800781 412.101562 65.101562 416.199219 65.101562 L 416.601562 65.101562 L 416.601562 61 C 408 61.398438 404.300781 68 404.300781 75.800781 C 404.300781 83.601562 408.398438 89.398438 416.199219 89.398438 L 416.601562 89.398438 Z M 416.601562 85.601562 "/>
<path style=" stroke:none;fill-rule:nonzero;fill:rgb(0%,0%,0%);fill-opacity:1;" d="M 439.199219 72.898438 C 439.199219 69.199219 441.699219 65.898438 445.800781 65.898438 L 447.898438 65.898438 L 447.898438 61 L 446.699219 61 C 443 61 440.898438 63.101562 438.898438 66.398438 L 438.898438 61.898438 L 434.800781 61.898438 L 434.800781 88.699219 L 439.300781 88.699219 C 439.300781 88.699219 439.300781 73 439.300781 73 Z M 439.199219 72.898438 "/>
<path style=" stroke:none;fill-rule:nonzero;fill:rgb(0%,0%,0%);fill-opacity:1;" d="M 470.898438 69.199219 C 470.898438 67.898438 470.101562 61 460.601562 61 C 451.101562 61 450.300781 63.5 450.300781 69.601562 C 450.300781 75.699219 452.800781 75 456.5 76.199219 L 461.898438 77.398438 C 465.601562 78.199219 467.300781 79.101562 467.300781 81.101562 C 467.300781 84 464.398438 85.601562 461.101562 85.601562 C 454.5 85.601562 454.101562 81.898438 453.699219 79.800781 L 449.601562 79.800781 C 449.601562 83.101562 450.398438 89.300781 461.101562 89.300781 C 471.800781 89.300781 471.800781 86 471.800781 80.300781 C 471.800781 74.601562 469.699219 74.898438 464 73.300781 L 459.5 72.101562 C 456.199219 71.300781 454.601562 70.898438 454.601562 68.800781 C 454.601562 65.5 458.699219 64.699219 460 64.699219 C 465.800781 64.699219 466.601562 67.601562 466.601562 69.199219 L 471.199219 69.199219 Z M 470.898438 69.199219 "/>
<path style=" stroke:none;fill-rule:nonzero;fill:rgb(0%,0%,0%);fill-opacity:1;" d="M 513.300781 51.398438 L 508.800781 51.398438 L 508.800781 65.398438 C 508 64.199219 505.898438 61.300781 501.398438 60.898438 L 501.398438 65 L 501.800781 65 C 508 65 508.800781 72 508.800781 76.5 C 508.800781 83.5 504.300781 85.101562 501.398438 85.5 L 501.398438 89.199219 C 504.300781 89.199219 507.199219 88.398438 509.199219 84.699219 L 509.199219 88.398438 L 513.300781 88.398438 Z M 501.300781 60.898438 L 500.898438 60.898438 C 493.5 60.898438 489.398438 66.699219 489.398438 74.5 C 489.398438 82.300781 492.300781 89.300781 501.300781 89.300781 L 501.300781 85.601562 C 496.398438 85.601562 494.300781 81.101562 494.300781 74.898438 C 494.300781 68.699219 494.699219 65 501.300781 65 Z M 501.300781 60.898438 "/>
<path style=" stroke:none;fill-rule:nonzero;fill:rgb(0%,0%,0%);fill-opacity:1;" d="M 541.699219 88.5 L 541.699219 61.699219 L 537.199219 61.699219 L 537.199219 76.5 C 537.199219 80.199219 535.101562 85.5 529.800781 85.5 C 524.5 85.5 524.398438 83.800781 524.398438 79.300781 L 524.398438 61.601562 L 519.898438 61.601562 L 519.898438 80.898438 C 519.898438 87.101562 524.800781 89.101562 528.5 89.101562 C 532.199219 89.101562 535.101562 87.398438 537.101562 84.199219 L 537.101562 88.300781 L 541.601562 88.300781 Z M 541.699219 88.5 "/>
<path style=" stroke:none;fill-rule:nonzero;fill:rgb(0%,0%,0%);fill-opacity:1;" d="M 593.898438 62.601562 C 593.101562 56.398438 588.101562 50.699219 578.699219 50.699219 C 569.300781 50.699219 561.398438 58.5 561.398438 70 C 561.398438 81.5 569.601562 89.800781 578.300781 89.800781 C 587 89.800781 592.300781 89 594.398438 75 L 589.5 75 C 587.898438 83.601562 582.101562 85.300781 578.800781 85.300781 C 569.800781 85.300781 566.898438 78.699219 566.898438 69.699219 C 566.898438 60.699219 572.300781 55.300781 578.800781 55.300781 C 585.300781 55.300781 587.800781 56.601562 589.101562 62.699219 L 594 62.699219 Z M 593.898438 62.601562 "/>
<path style=" stroke:none;fill-rule:nonzero;fill:rgb(0%,0%,0%);fill-opacity:1;" d="M 609.5 64.601562 L 609.898438 64.601562 C 614 64.601562 616.101562 66.300781 616.101562 69.101562 C 616.101562 71.898438 614.898438 72 613.601562 72 L 609.5 72.800781 L 609.5 76.5 C 614.398438 75.699219 615.300781 75.300781 616.101562 74.800781 L 616.101562 79.300781 C 616.101562 82.199219 613.199219 84.699219 609.5 85.5 L 609.5 88.800781 C 612.800781 88.398438 614.898438 86.300781 616.5 84.699219 C 616.5 86.800781 616.898438 88.800781 621 88.800781 C 625.101562 88.800781 622.601562 88.800781 623.5 88.398438 L 623.5 85.101562 C 623.101562 85.101562 622.699219 85.5 622.300781 85.5 C 621.101562 85.5 620.699219 85.101562 620.699219 83.800781 L 620.699219 68.101562 C 620.699219 61.101562 612.898438 60.699219 610.800781 60.699219 L 609.5 60.699219 Z M 603.800781 70 C 604.199219 67.898438 604.601562 64.601562 609.601562 64.601562 L 609.601562 60.898438 C 603.398438 61.300781 599.699219 63.800781 599.699219 69.898438 L 603.800781 69.898438 Z M 609.5 72.898438 L 606.199219 73.300781 C 598.800781 74.101562 598 79.5 598 81.5 C 598 86 601.699219 89.300781 606.601562 89.300781 C 611.5 89.300781 608.699219 89.300781 609.5 88.898438 L 609.5 85.601562 L 607.898438 85.601562 C 604.199219 85.601562 603 83.898438 603 81.101562 C 603 78.300781 606.300781 77 608.800781 76.601562 L 609.601562 76.601562 L 609.601562 72.898438 Z M 609.5 72.898438 "/>
<path style=" stroke:none;fill-rule:nonzero;fill:rgb(0%,0%,0%);fill-opacity:1;" d="M 650.300781 70.398438 C 650.300781 62.601562 644.898438 60.898438 640.800781 60.898438 C 636.699219 60.898438 633.800781 64.199219 632.601562 65.398438 L 632.601562 61.699219 L 628.5 61.699219 L 628.5 88.5 L 633 88.5 L 633 74.101562 C 633 66.699219 637.5 65.101562 640 65.101562 C 644.5 65.101562 645.800781 67.601562 645.800781 72.101562 L 645.800781 88.601562 L 650.300781 88.601562 Z M 650.300781 70.398438 "/>
<path style=" stroke:none;fill-rule:nonzero;fill:rgb(0%,0%,0%);fill-opacity:1;" d="M 666.699219 64.601562 L 667.101562 64.601562 C 671.199219 64.601562 673.300781 66.300781 673.300781 69.101562 C 673.300781 71.898438 672 72 670.800781 72 L 666.699219 72.800781 L 666.699219 76.5 C 671.601562 75.699219 672.5 75.300781 673.300781 74.800781 L 673.300781 79.300781 C 673.300781 82.199219 670.398438 84.699219 666.699219 85.5 L 666.699219 88.800781 C 670 88.398438 672.101562 86.300781 673.699219 84.699219 C 673.699219 86.800781 674.101562 88.800781 678.199219 88.800781 C 682.300781 88.800781 679.898438 88.800781 680.699219 88.398438 L 680.699219 85.101562 C 680.300781 85.101562 679.898438 85.5 679.5 85.5 C 678.199219 85.5 677.800781 85.101562 677.800781 83.800781 L 677.800781 68.101562 C 677.800781 61.101562 670 60.699219 667.898438 60.699219 L 666.699219 60.699219 Z M 661 70 C 661.398438 67.898438 661.800781 64.601562 666.800781 64.601562 L 666.800781 60.898438 C 660.601562 61.300781 656.898438 63.800781 656.898438 69.898438 L 661 69.898438 Z M 666.699219 72.898438 L 663.398438 73.300781 C 656 74.101562 655.199219 79.5 655.199219 81.5 C 655.199219 86 658.898438 89.300781 663.800781 89.300781 C 668.699219 89.300781 665.898438 89.300781 666.699219 88.898438 L 666.699219 85.601562 L 665 85.601562 C 661.300781 85.601562 660.101562 83.898438 660.101562 81.101562 C 660.101562 78.300781 663.398438 77 665.898438 76.601562 L 666.699219 76.601562 Z M 666.699219 72.898438 "/>
<path style=" stroke:none;fill-rule:nonzero;fill:rgb(0%,0%,0%);fill-opacity:1;" d="M 707.898438 51.398438 L 703.398438 51.398438 L 703.398438 65.398438 C 702.199219 64.199219 700.5 61.300781 696 60.898438 L 696 65 C 702.601562 65 703.398438 72 703.398438 76.5 C 703.398438 83.5 698.898438 85.101562 696 85.5 L 696 89.199219 C 698.5 89.199219 701.800781 88.398438 703.398438 84.699219 L 703.398438 88.398438 L 707.898438 88.398438 Z M 696 60.898438 L 695.199219 60.898438 C 688.199219 60.898438 684.101562 66.699219 684.101562 74.5 C 684.101562 82.300781 686.601562 89.300781 696 89.300781 L 696 85.601562 C 691.101562 85.601562 688.601562 81.101562 688.601562 74.898438 C 688.601562 68.699219 689 65 696 65 Z M 696 60.898438 "/>
<path style=" stroke:none;fill-rule:nonzero;fill:rgb(0%,0%,0%);fill-opacity:1;" d="M 724 64.601562 L 724.398438 64.601562 C 728.5 64.601562 730.601562 66.300781 730.601562 69.101562 C 730.601562 71.898438 729.300781 72 728.101562 72 L 724 72.800781 L 724 76.5 C 728.898438 75.699219 729.800781 75.300781 730.601562 74.800781 L 730.601562 79.300781 C 730.601562 82.199219 727.699219 84.699219 724 85.5 L 724 88.800781 C 727.300781 88.398438 729.398438 86.300781 731 84.699219 C 731 86.800781 731.398438 88.800781 735.5 88.800781 C 739.601562 88.800781 737.199219 88.800781 738 88.398438 L 738 85.101562 C 737.601562 85.101562 737.199219 85.5 736.800781 85.5 C 735.5 85.5 735.101562 85.101562 735.101562 83.800781 L 735.101562 68.101562 C 735.101562 61.101562 727.300781 60.699219 725.199219 60.699219 L 724 60.699219 Z M 718.199219 70 C 718.601562 67.898438 719 64.601562 724 64.601562 L 724 60.898438 C 717.800781 61.300781 714.101562 63.800781 714.101562 69.898438 L 718.199219 69.898438 Z M 724 72.898438 L 720.699219 73.300781 C 713.300781 74.101562 712.5 79.5 712.5 81.5 C 712.5 86 716.199219 89.300781 721.101562 89.300781 C 726 89.300781 723.101562 89.300781 724 88.898438 L 724 85.601562 L 722.300781 85.601562 C 718.601562 85.601562 717.398438 83.898438 717.398438 81.101562 C 717.398438 78.300781 720.699219 77 723.199219 76.601562 L 724 76.601562 Z M 724 72.898438 "/>
<path style=" stroke:none;fill-rule:nonzero;fill:rgb(91.37255%,14.509805%,17.647059%);fill-opacity:1;" d="M 0 1.199219 L 44 1.199219 L 44 88.398438 L 0 88.398438 Z M 0 1.199219 "/>
<path style=" stroke:none;fill-rule:nonzero;fill:rgb(91.37255%,14.509805%,17.647059%);fill-opacity:1;" d="M 88.898438 81.898438 C 88.898438 81.898438 88.5 67.101562 88.5 65.398438 C 88.5 63.699219 90.199219 63.699219 91.398438 63.699219 C 93.101562 64.101562 106.601562 67 106.601562 67 C 106.601562 67 105.300781 64.101562 104.5 61.601562 C 104.101562 59.5 104.898438 59.101562 105.300781 58.699219 C 105.699219 58.300781 121 45.101562 121 45.101562 L 118.5 43.898438 C 116.800781 43.5 117.300781 42.199219 117.699219 41.398438 C 117.699219 40.601562 120.199219 31.898438 120.199219 31.898438 C 120.199219 31.898438 114 33.601562 112 33.601562 C 110.800781 34 110.300781 33.199219 109.898438 32.398438 C 109.5 31.601562 108.199219 27.898438 108.199219 27.898438 C 108.199219 27.898438 100.398438 36.5 100.398438 36.898438 C 98.699219 38.101562 97.101562 36.898438 97.5 35.699219 C 97.898438 34 101.601562 16.398438 101.601562 16.398438 C 101.601562 16.398438 97.5 18.898438 95.800781 19.699219 C 94.601562 20.5 93.699219 20.5 93.300781 19.300781 C 92.5 18.101562 87.101562 7.800781 87.101562 7.800781 C 87.101562 7.800781 81.699219 18.101562 81.300781 19.300781 C 80.5 20.5 79.601562 20.5 78.398438 19.699219 C 76.699219 18.898438 73 16.398438 73 16.398438 C 73 16.398438 76.699219 34.101562 76.699219 35.699219 C 77.101562 36.898438 75.5 38.199219 74.199219 36.898438 C 73.800781 36.5 66 27.898438 66 27.898438 C 66 27.898438 64.300781 31.601562 63.898438 32.398438 C 63.5 33.199219 63.101562 34.101562 61.800781 33.601562 C 60.601562 33.601562 54 31.898438 54 31.898438 C 54 31.898438 56.5 40.5 56.898438 41.398438 C 56.898438 42.199219 57.300781 43.5 55.699219 43.898438 L 53.199219 45.101562 C 53.199219 45.101562 68.398438 58.300781 68.898438 58.699219 C 69.300781 59.101562 70.601562 59.5 69.699219 61.601562 C 68.898438 64.101562 68 67 68 67 C 68 67 81.601562 64.101562 82.800781 63.699219 C 84.5 63.699219 85.699219 64.101562 85.699219 65.398438 C 85.699219 66.699219 84.898438 81.898438 84.898438 81.898438 Z M 88.898438 81.898438 "/>
<path style=" stroke:none;fill-rule:nonzero;fill:rgb(91.37255%,14.509805%,17.647059%);fill-opacity:1;" d="M 130.800781 1.199219 L 174.800781 1.199219 L 174.800781 88.398438 L 130.800781 88.398438 Z M 130.800781 1.199219 "/>
<path style=" stroke:none;fill-rule:nonzero;fill:rgb(0%,0%,0%);fill-opacity:1;" d="M 865.898438 11.898438 C 865.101562 5.699219 860.101562 0 850.699219 0 C 841.300781 0 833.398438 7.800781 833.398438 19.300781 C 833.398438 30.800781 841.601562 39.101562 849.898438 39.101562 C 858.199219 39.101562 864.300781 38.300781 866.398438 24.300781 L 861.5 24.300781 C 859.800781 32.898438 854.101562 34.601562 850.800781 34.601562 C 841.800781 34.601562 838.898438 28 838.898438 18.898438 C 838.898438 9.800781 844.300781 4.5 850.800781 4.5 C 857.300781 4.5 859.800781 5.699219 861.101562 11.898438 L 866 11.898438 Z M 865.898438 11.898438 "/>
<path style=" stroke:none;fill-rule:nonzero;fill:rgb(0%,0%,0%);fill-opacity:1;" d="M 881.5 14 L 881.898438 14 C 886 14 888.101562 15.699219 888.101562 18.5 C 888.101562 21.300781 886.898438 21.398438 885.601562 21.398438 L 881.5 22.199219 L 881.5 25.898438 C 886.398438 25.101562 887.300781 24.699219 888.101562 24.199219 L 888.101562 28.699219 C 888.101562 31.601562 884.800781 34.101562 881.5 34.898438 L 881.5 38.199219 C 884.800781 37.800781 886.898438 35.699219 888.101562 34.101562 C 888.5 36.199219 888.898438 38.199219 893 38.199219 C 897.101562 38.199219 894.699219 38.199219 895.5 37.800781 L 895.5 34.5 C 895.101562 34.5 894.300781 34.898438 893.898438 34.898438 C 893.101562 34.898438 892.699219 34.5 892.699219 33.199219 L 892.699219 17.5 C 892.699219 10.5 884.898438 10.101562 882.800781 10.101562 L 881.601562 10.101562 L 881.601562 13.800781 Z M 875.800781 19.398438 C 875.800781 17.300781 876.601562 14 881.601562 14 L 881.601562 10.300781 C 875.398438 10.699219 871.699219 13.199219 871.699219 19.300781 L 875.800781 19.300781 Z M 881.5 22.199219 L 878.199219 22.601562 C 870.800781 23.398438 870 28.800781 870 30.800781 C 870 35.300781 873.699219 38.601562 878.601562 38.601562 C 883.5 38.601562 880.699219 38.601562 881.5 38.199219 L 881.5 34.898438 L 879.800781 34.898438 C 876.101562 34.898438 874.898438 33.199219 874.898438 30.398438 C 874.898438 27.601562 878.199219 26.300781 880.699219 25.898438 L 881.5 25.898438 Z M 881.5 22.199219 "/>
<path style=" stroke:none;fill-rule:nonzero;fill:rgb(0%,0%,0%);fill-opacity:1;" d="M 922.300781 19.800781 C 922.300781 12 916.898438 10.300781 912.800781 10.300781 C 908.699219 10.300781 905.398438 13.601562 904.601562 14.800781 L 904.601562 11.101562 L 900.101562 11.101562 L 900.101562 37.800781 L 904.601562 37.800781 L 904.601562 23.398438 C 904.601562 16 909.101562 14.398438 912 14.398438 C 916.101562 14.398438 917.800781 16.898438 917.800781 21.398438 L 917.800781 37.898438 L 922.300781 37.898438 Z M 922.300781 19.800781 "/>
<path style=" stroke:none;fill-rule:nonzero;fill:rgb(0%,0%,0%);fill-opacity:1;" d="M 938.699219 14 L 939.101562 14 C 943.199219 14 945.300781 15.699219 945.300781 18.5 C 945.300781 21.300781 944.101562 21.398438 942.800781 21.398438 L 938.699219 22.199219 L 938.699219 25.898438 C 943.601562 25.101562 944.5 24.699219 945.300781 24.199219 L 945.300781 28.699219 C 945.300781 31.601562 942 34.101562 938.699219 34.898438 L 938.699219 38.199219 C 942 37.800781 944.101562 35.699219 945.300781 34.101562 C 945.699219 36.199219 946.101562 38.199219 950.199219 38.199219 C 954.300781 38.199219 951.898438 38.199219 952.699219 37.800781 L 952.699219 34.5 C 952.300781 34.5 951.5 34.898438 951 34.898438 C 950.199219 34.898438 949.800781 34.5 949.800781 33.199219 L 949.800781 17.5 C 949.800781 10.5 942 10.101562 939.898438 10.101562 L 938.699219 10.101562 Z M 933 19.398438 C 933 17.300781 933.800781 14 938.800781 14 L 938.800781 10.300781 C 932.601562 10.699219 928.898438 13.199219 928.898438 19.300781 L 933 19.300781 Z M 938.699219 22.199219 L 935.398438 22.601562 C 928 23.398438 927.199219 28.800781 927.199219 30.800781 C 927.199219 35.300781 930.898438 38.601562 935.800781 38.601562 C 940.699219 38.601562 937.898438 38.601562 938.699219 38.199219 L 938.699219 34.898438 L 937 34.898438 C 933.300781 34.898438 932.101562 33.199219 932.101562 30.398438 C 932.101562 27.601562 935.398438 26.300781 937.898438 25.898438 L 938.699219 25.898438 Z M 938.699219 22.199219 "/>
<path style=" stroke:none;fill-rule:nonzero;fill:rgb(0%,0%,0%);fill-opacity:1;" d="M 979.898438 0.800781 L 975.398438 0.800781 L 975.398438 14.800781 L 975 14.800781 C 974.199219 13.601562 972.101562 10.699219 968 10.300781 L 968 14.398438 C 974.601562 14.398438 975.398438 21.398438 975.398438 25.898438 C 975.398438 32.898438 970.898438 34.898438 968 34.898438 L 968 38.601562 C 970.5 38.601562 973.398438 37.800781 975.398438 34.101562 L 975.398438 37.800781 L 979.898438 37.800781 Z M 967.898438 10.300781 L 967.101562 10.300781 C 960.101562 10.300781 956 16.101562 956 23.898438 C 956 31.699219 958.5 38.699219 967.5 38.699219 L 967.898438 38.699219 L 967.898438 35 C 963 35 960.5 30.5 960.5 24.300781 C 960.5 18.101562 960.898438 14.398438 967.898438 14.398438 Z M 967.898438 10.300781 "/>
<path style=" stroke:none;fill-rule:nonzero;fill:rgb(0%,0%,0%);fill-opacity:1;" d="M 995.898438 14 L 996.300781 14 C 1000.398438 14 1002.5 15.699219 1002.5 18.5 C 1002.5 21.300781 1001.300781 21.398438 1000 21.398438 L 995.898438 22.199219 L 995.898438 25.898438 C 1000.800781 25.101562 1001.699219 24.699219 1002.5 24.199219 L 1002.5 28.699219 C 1002.5 31.601562 999.199219 34.101562 995.898438 34.898438 L 995.898438 38.199219 C 999.199219 37.800781 1001.300781 35.699219 1002.5 34.101562 C 1002.898438 36.199219 1003.300781 38.199219 1007.398438 38.199219 C 1011.5 38.199219 1009.101562 38.199219 1009.898438 37.800781 L 1009.898438 34.5 C 1009.5 34.5 1008.699219 34.898438 1008.199219 34.898438 C 1007.398438 34.898438 1007 34.5 1007 33.199219 L 1007 17.5 C 1007 10.5 999.199219 10.101562 997.101562 10.101562 L 995.898438 10.101562 Z M 990.199219 19.398438 C 990.199219 17.300781 991 14 996 14 L 996 10.300781 C 989.800781 10.699219 986.101562 13.199219 986.101562 19.300781 L 990.199219 19.300781 Z M 995.898438 22.199219 L 992.601562 22.601562 C 985.199219 23.398438 984.398438 28.800781 984.398438 30.800781 C 984.398438 35.300781 988.101562 38.601562 993 38.601562 C 997.898438 38.601562 995.101562 38.601562 995.898438 38.199219 L 995.898438 34.898438 L 994.199219 34.898438 C 990.5 34.898438 989.300781 33.199219 989.300781 30.398438 C 989.300781 27.601562 992.601562 26.300781 995.101562 25.898438 L 995.898438 25.898438 Z M 995.898438 22.199219 "/>
<path style=" stroke:none;fill-rule:nonzero;fill:rgb(0%,0%,0%);fill-opacity:1;" d="M 1042.800781 5.398438 L 1043.199219 5.398438 C 1049 5.398438 1051 7.5 1051 10.800781 C 1051 14.101562 1048.101562 16.601562 1043.199219 16.601562 L 1042.800781 16.601562 L 1042.800781 20.699219 L 1044 20.699219 C 1048.101562 20.699219 1052.601562 21.898438 1052.601562 26.898438 C 1052.601562 31.898438 1050.101562 33.898438 1044.800781 33.898438 L 1042.699219 33.898438 L 1042.699219 38 L 1045.199219 38 C 1053.398438 38 1057.5 33.101562 1057.5 27.300781 C 1057.5 21.5 1053.398438 19.101562 1050.898438 18.300781 C 1055 16.199219 1055.800781 12.898438 1055.800781 10.5 C 1055.800781 5.601562 1052.5 1 1045.5 1 L 1042.601562 1 L 1042.601562 5.5 Z M 1034.199219 5.398438 L 1042.800781 5.398438 L 1042.800781 0.800781 L 1029.199219 0.800781 L 1029.199219 37.800781 L 1042.800781 37.800781 L 1042.800781 33.699219 L 1034.199219 33.699219 L 1034.199219 20.5 L 1042.800781 20.5 L 1042.800781 16.398438 L 1034.199219 16.398438 Z M 1034.199219 5.398438 "/>
<path style=" stroke:none;fill-rule:nonzero;fill:rgb(0%,0%,0%);fill-opacity:1;" d="M 1074.101562 38.699219 C 1082.699219 38.699219 1086.800781 31.300781 1086.800781 24.300781 C 1086.800781 17.300781 1082.699219 10.300781 1074.101562 10.300781 L 1074.101562 14 C 1080.699219 14 1081.898438 21 1081.898438 24.300781 C 1081.898438 27.601562 1080.699219 34.601562 1074.101562 34.601562 Z M 1061.699219 24.300781 C 1061.699219 31.300781 1065.398438 38.699219 1074 38.699219 L 1074 34.601562 C 1067.398438 34.601562 1066.199219 28 1066.199219 24.300781 C 1066.199219 20.601562 1067.398438 14 1074 14 L 1074 10.300781 C 1065.398438 10.300781 1061.699219 17.699219 1061.699219 24.300781 "/>
<path style=" stroke:none;fill-rule:nonzero;fill:rgb(0%,0%,0%);fill-opacity:1;" d="M 1097.101562 22.199219 C 1097.101562 18.5 1099.601562 15.199219 1103.699219 15.199219 L 1105.398438 15.199219 L 1105.398438 10.300781 L 1104.601562 10.300781 C 1100.898438 10.300781 1098.800781 12.398438 1096.800781 15.699219 L 1096.800781 11.199219 L 1092.699219 11.199219 L 1092.699219 37.898438 L 1097.199219 37.898438 L 1097.199219 22.300781 Z M 1097.101562 22.199219 "/>
<path style=" stroke:none;fill-rule:nonzero;fill:rgb(0%,0%,0%);fill-opacity:1;" d="M 1131.300781 0.800781 L 1126.800781 0.800781 L 1126.800781 14.800781 C 1125.601562 13.601562 1123.898438 10.699219 1119.398438 10.300781 L 1119.398438 14.398438 C 1126 14.398438 1126.800781 21.398438 1126.800781 25.898438 C 1126.800781 32.898438 1122.300781 34.898438 1119.398438 34.898438 L 1119.398438 38.601562 C 1121.898438 38.601562 1125.199219 37.800781 1126.800781 34.101562 L 1127.199219 34.101562 L 1127.199219 37.800781 L 1131.300781 37.800781 Z M 1119.300781 10.300781 L 1118.5 10.300781 C 1111.5 10.300781 1107.398438 16.101562 1107.398438 23.898438 C 1107.398438 31.699219 1109.898438 38.699219 1119.300781 38.699219 L 1119.300781 35 C 1114.398438 35 1111.898438 30.5 1111.898438 24.300781 C 1111.898438 18.101562 1112.300781 14.398438 1119.300781 14.398438 Z M 1119.300781 10.300781 "/>
<path style=" stroke:none;fill-rule:nonzero;fill:rgb(0%,0%,0%);fill-opacity:1;" d="M 1156 29.601562 C 1155.601562 31.699219 1153.101562 35 1149 35 L 1148.601562 35 L 1148.601562 38.699219 C 1152.699219 38.699219 1154.398438 37.898438 1155.601562 37 C 1158.898438 34.5 1160.101562 30.800781 1160.5 29.601562 Z M 1148.601562 25.898438 L 1160.898438 25.898438 C 1160.898438 16.398438 1156.800781 10.300781 1149 10.300781 L 1148.601562 10.300781 L 1148.601562 14.398438 C 1154 14.398438 1156 18.101562 1156 22.199219 L 1148.601562 22.199219 Z M 1148.601562 35 C 1143.699219 34.601562 1141.199219 31.300781 1141.199219 26 L 1148.601562 26 L 1148.601562 22.300781 L 1141.199219 22.300781 C 1141.199219 18.199219 1144.5 14.5 1148.601562 14.5 L 1148.601562 10.398438 C 1140 10.800781 1136.300781 17.398438 1136.300781 25.199219 C 1136.300781 33 1140.800781 38.800781 1148.199219 38.800781 L 1148.601562 38.800781 Z M 1148.601562 35 "/>
<path style=" stroke:none;fill-rule:nonzero;fill:rgb(0%,0%,0%);fill-opacity:1;" d="M 1171.199219 22.199219 C 1171.199219 18.5 1174.101562 15.199219 1178.199219 15.199219 L 1179.898438 15.199219 L 1179.898438 10.300781 L 1178.699219 10.300781 C 1175.398438 10.300781 1172.898438 12.398438 1171.300781 15.699219 L 1171.300781 11.199219 L 1166.800781 11.199219 L 1166.800781 37.898438 L 1171.300781 37.898438 L 1171.300781 22.300781 Z M 1171.199219 22.199219 "/>
<path style=" stroke:none;fill-rule:nonzero;fill:rgb(0%,0%,0%);fill-opacity:1;" d="M 862.199219 62.601562 C 861.800781 58.5 860.5 50.699219 847.800781 50.699219 C 835.101562 50.699219 835 56.5 835 62.199219 C 835 67.898438 840.398438 70 842.800781 70.800781 L 850.199219 72.5 C 856.398438 74.199219 858 75.398438 858 79.101562 C 858 84.5 852.199219 85.300781 848.5 85.300781 C 844.800781 85.300781 838.199219 83.199219 838.199219 76.699219 L 833.699219 76.699219 C 833.699219 80 834.101562 83.300781 837.398438 86.199219 C 839.101562 87.398438 841.5 89.5 848.5 89.5 C 855.5 89.5 862.898438 87.398438 862.898438 78.398438 C 862.898438 69.398438 859.199219 69.800781 854.699219 68.5 L 844 66 C 841.898438 65.601562 839.5 64.800781 839.5 61.5 C 839.5 55.699219 844.898438 54.898438 848.101562 54.898438 C 851.300781 54.898438 857.101562 57 857.101562 62.699219 L 862.101562 62.699219 Z M 862.199219 62.601562 "/>
<path style=" stroke:none;fill-rule:nonzero;fill:rgb(0%,0%,0%);fill-opacity:1;" d="M 887.300781 80.199219 C 886.898438 81.898438 884.398438 85.101562 880.300781 85.101562 L 879.898438 85.101562 L 879.898438 89.199219 C 884 89.199219 885.699219 88 886.898438 87.101562 C 890.199219 85 891.398438 81.300781 891.800781 80.101562 L 887.300781 80.101562 Z M 879.898438 76.5 L 891.800781 76.5 C 891.800781 67 888.101562 60.898438 880.300781 60.898438 L 879.898438 60.898438 L 879.898438 65 C 885.300781 65 886.898438 68.699219 887.300781 72.800781 L 879.898438 72.800781 Z M 879.898438 85.199219 C 875 85.199219 872.5 81.898438 872.5 76.601562 L 879.898438 76.601562 L 879.898438 72.898438 L 872.5 72.898438 C 872.5 68.800781 875.800781 65.101562 879.898438 65.101562 L 879.898438 61 C 871.300781 61 867.601562 67.601562 867.601562 75.800781 C 867.601562 84 872.101562 89.398438 879.5 89.398438 L 879.898438 89.398438 Z M 879.898438 85.199219 "/>
<path style=" stroke:none;fill-rule:nonzero;fill:rgb(0%,0%,0%);fill-opacity:1;" d="M 902.5 72.898438 C 902.5 69.199219 905.398438 65.898438 909.5 65.898438 L 911.199219 65.898438 L 911.199219 61 L 910 61 C 906.699219 61 904.199219 63.101562 902.601562 66.398438 L 902.199219 66.398438 L 902.199219 61.898438 L 898.101562 61.898438 L 898.101562 88.699219 L 902.601562 88.699219 L 902.601562 73 Z M 902.5 72.898438 "/>
<path style=" stroke:none;fill-rule:nonzero;fill:rgb(0%,0%,0%);fill-opacity:1;" d="M 925.601562 83.601562 L 918.5 61.699219 L 913.199219 61.699219 L 923.101562 88.5 L 927.601562 88.5 L 937.898438 61.699219 L 932.898438 61.699219 Z M 925.601562 83.601562 "/>
<path style=" stroke:none;fill-rule:nonzero;fill:rgb(0%,0%,0%);fill-opacity:1;" d="M 946.5 61.699219 L 942 61.699219 L 942 88.5 L 946.5 88.5 Z M 946.5 51.398438 L 942 51.398438 L 942 56.800781 L 946.5 56.800781 Z M 946.5 51.398438 "/>
<path style=" stroke:none;fill-rule:nonzero;fill:rgb(0%,0%,0%);fill-opacity:1;" d="M 974.5 70.800781 C 974.101562 65.898438 971.199219 60.898438 964.199219 60.898438 C 957.199219 60.898438 951.398438 67.5 951.398438 75.699219 C 951.398438 83.898438 955.898438 89.300781 963.300781 89.300781 C 970.699219 89.300781 974 83.101562 974.398438 79 L 969.898438 79 C 969.101562 83.101562 966.601562 85.199219 963.300781 85.199219 C 957.101562 85.199219 956.300781 79.800781 956.300781 74.898438 C 956.300781 70 958 65 963.699219 65 C 969.398438 65 969.5 67.101562 969.898438 70.800781 Z M 974.5 70.800781 "/>
<path style=" stroke:none;fill-rule:nonzero;fill:rgb(0%,0%,0%);fill-opacity:1;" d="M 997.101562 80.199219 C 997.101562 81.898438 994.601562 85.101562 990.101562 85.101562 L 990.101562 89.199219 C 994.199219 89.199219 995.898438 88 997.101562 87.101562 C 1000.398438 85 1001.601562 81.300781 1001.601562 80.101562 L 997.101562 80.101562 Z M 990.199219 76.5 L 1002.101562 76.5 C 1002.101562 67 998.398438 60.898438 990.601562 60.898438 L 990.199219 60.898438 L 990.199219 65 C 995.601562 65 997.199219 68.699219 997.601562 72.800781 L 990.199219 72.800781 Z M 990.199219 85.199219 C 984.800781 85.199219 982.398438 81.898438 982.398438 76.601562 L 990.199219 76.601562 L 990.199219 72.898438 L 982.398438 72.898438 C 982.398438 68.800781 985.699219 65.101562 989.800781 65.101562 L 990.199219 65.101562 L 990.199219 61 C 981.601562 61 977.898438 67.601562 977.898438 75.800781 C 977.898438 84 982 89.398438 989.800781 89.398438 L 990.199219 89.398438 Z M 990.199219 85.199219 "/>
<path style=" stroke:none;fill-rule:nonzero;fill:rgb(0%,0%,0%);fill-opacity:1;" d="M 1027.199219 69.199219 C 1027.199219 67.898438 1026.398438 61 1016.898438 61 C 1007.398438 61 1006.601562 63.5 1006.601562 69.601562 C 1006.601562 75.699219 1009.101562 75 1012.800781 76.199219 L 1018.199219 77.398438 C 1021.898438 78.199219 1023.601562 79.101562 1023.601562 81.101562 C 1023.601562 84 1020.699219 85.199219 1017.398438 85.199219 C 1011.199219 85.199219 1010.398438 81.898438 1010.398438 79.800781 L 1005.898438 79.800781 C 1005.898438 83.101562 1006.699219 89.300781 1017.398438 89.300781 C 1028.101562 89.300781 1028.101562 86 1028.101562 80.300781 C 1028.101562 74.601562 1026 74.5 1020.699219 73.300781 L 1016.199219 72.101562 C 1012.5 71.300781 1011.300781 70.898438 1011.300781 68.800781 C 1011.300781 65.101562 1015 64.699219 1016.699219 64.699219 C 1022.5 64.699219 1022.898438 67.601562 1022.898438 69.199219 L 1027.5 69.199219 Z M 1027.199219 69.199219 "/>
<path style=" stroke:none;fill-rule:nonzero;fill:rgb(0%,0%,0%);fill-opacity:1;" d="M 1068.800781 77.800781 L 1072.5 88.5 L 1077.898438 88.5 L 1064.699219 51.5 L 1061.398438 51.5 L 1061.398438 57.699219 L 1061.398438 57.300781 L 1067.199219 73.398438 L 1061.398438 73.398438 L 1061.398438 77.898438 L 1068.800781 77.898438 Z M 1061.300781 51.398438 L 1058.800781 51.398438 L 1044.800781 88.398438 L 1050.199219 88.398438 L 1053.898438 77.699219 L 1061.300781 77.699219 L 1061.300781 73.199219 L 1055.5 73.199219 L 1061.300781 57.5 L 1061.300781 51.300781 Z M 1061.300781 51.398438 "/>
<path style=" stroke:none;fill-rule:nonzero;fill:rgb(0%,0%,0%);fill-opacity:1;" d="M 1092.601562 65 C 1099.199219 65 1100 72 1100 76.101562 C 1100 83.5 1095.5 85.101562 1092.601562 85.101562 L 1092.601562 89.199219 C 1095.898438 89.199219 1098.398438 87.5 1099.601562 85.5 L 1099.601562 86.800781 C 1099.601562 90.101562 1099.601562 95.800781 1092.601562 95.800781 L 1092.601562 99.5 C 1104.101562 99.101562 1104.101562 90 1104.101562 86.300781 L 1104.101562 61.601562 L 1100 61.601562 L 1100 65.300781 C 1098.800781 63.601562 1096.699219 61.199219 1092.601562 60.800781 Z M 1085.199219 74.898438 C 1085.199219 71.601562 1085.601562 65 1092.601562 65 L 1092.601562 60.898438 L 1091.800781 60.898438 C 1084.800781 60.898438 1080.699219 66.699219 1080.699219 74.101562 C 1080.699219 81.5 1083.199219 89.300781 1092.199219 89.300781 L 1092.601562 89.300781 L 1092.601562 85.199219 C 1087.699219 85.199219 1085.199219 81.101562 1085.199219 74.898438 M 1092.601562 95.898438 L 1092.601562 99.601562 C 1092.199219 100 1091.800781 100 1091.800781 100 C 1088.5 100 1082.300781 98.800781 1081.5 91.800781 L 1086 91.800781 C 1086.800781 95.898438 1090.898438 95.898438 1091.800781 95.898438 C 1091.800781 95.898438 1092.601562 95.898438 1092.601562 95.898438 Z M 1092.601562 95.898438 "/>
<path style=" stroke:none;fill-rule:nonzero;fill:rgb(0%,0%,0%);fill-opacity:1;" d="M 1128.800781 80.199219 C 1128.398438 81.898438 1125.898438 85.101562 1121.800781 85.101562 L 1121.398438 85.101562 L 1121.398438 89.199219 C 1125.5 89.199219 1127.199219 88 1128.398438 87.101562 C 1131.699219 85 1132.898438 81.300781 1133.300781 80.101562 L 1128.800781 80.101562 Z M 1121.398438 76.5 L 1133.699219 76.5 C 1133.699219 67 1129.601562 60.898438 1122.199219 60.898438 L 1121.398438 60.898438 L 1121.398438 65 C 1126.800781 65 1128.800781 68.699219 1128.800781 72.800781 L 1121.398438 72.800781 Z M 1121.398438 85.199219 C 1116.5 85.199219 1114 81.898438 1114 76.601562 L 1121.398438 76.601562 L 1121.398438 72.898438 L 1114 72.898438 C 1114 68.800781 1117.300781 65.101562 1121.398438 65.101562 L 1121.398438 61 C 1113.199219 61 1109.101562 67.601562 1109.101562 75.800781 C 1109.101562 84 1113.601562 89.398438 1121 89.398438 L 1121.398438 89.398438 Z M 1121.398438 85.199219 "/>
<path style=" stroke:none;fill-rule:nonzero;fill:rgb(0%,0%,0%);fill-opacity:1;" d="M 1160.898438 70.398438 C 1160.898438 62.601562 1155.5 60.898438 1151.398438 60.898438 C 1147.300781 60.898438 1144.398438 63.800781 1143.199219 65.398438 L 1143.199219 61.699219 L 1139.101562 61.699219 L 1139.101562 88.5 L 1143.601562 88.5 L 1143.601562 73.699219 C 1143.601562 66.699219 1148.101562 65.101562 1150.601562 65.101562 C 1155.101562 65.101562 1156.398438 67.199219 1156.398438 72.101562 L 1156.398438 88.601562 L 1160.898438 88.601562 Z M 1160.898438 70.398438 "/>
<path style=" stroke:none;fill-rule:nonzero;fill:rgb(0%,0%,0%);fill-opacity:1;" d="M 1188.898438 70.800781 C 1188.5 65.898438 1185.601562 60.898438 1178.601562 60.898438 C 1171.601562 60.898438 1165.800781 67.5 1165.800781 75.699219 C 1165.800781 83.898438 1170.300781 89.300781 1177.699219 89.300781 C 1185.101562 89.300781 1188.398438 83.101562 1188.800781 79 L 1184.300781 79 C 1183.5 83.101562 1181 85.199219 1178.101562 85.199219 C 1171.5 85.199219 1170.699219 79.800781 1170.699219 74.898438 C 1170.699219 70 1172.398438 65 1178.101562 65 C 1183.800781 65 1183.898438 67.101562 1184.300781 70.800781 Z M 1188.898438 70.800781 "/>
<path style=" stroke:none;fill-rule:nonzero;fill:rgb(0%,0%,0%);fill-opacity:1;" d="M 1202.898438 83.601562 L 1195.898438 61.800781 L 1190.5 61.800781 L 1200.398438 89.398438 C 1198.300781 94.800781 1197.898438 95.601562 1195.898438 95.601562 C 1193.898438 95.601562 1193.398438 95.199219 1193 95.199219 L 1193 99.300781 C 1193.800781 99.300781 1194.199219 99.699219 1195.101562 99.699219 C 1200.898438 99.699219 1201.300781 98.898438 1205.398438 88.199219 C 1209.101562 79.199219 1212 70.5 1215.300781 61.898438 L 1210.398438 61.898438 L 1203 83.699219 Z M 1202.898438 83.601562 "/>
</g>
</svg>
