<svg width="1368" height="266" viewBox="0 0 1368 266" fill="none" xmlns="http://www.w3.org/2000/svg">
<g clip-path="url(#clip0_1_2)">
<path d="M373.3 79.6C373.3 91.2 373.2 94.2 372.4 97.5C371.3 102.5 368.5 111.1 353.1 111.1C340 111.1 334.6 103.3 333.3 95.4C332.9 93 332.4 89.3 332.4 67.9C332.4 45.3 332.8 42.6 333.4 38.8C334.1 35 336.3 22.6 354 22.6C361.1 22.6 369.8 25.6 372 35C373 39.1 373 44.2 372.9 50.9H362.9V44.5C362.9 38.7 362.8 31.6 354 31.6C344.9 31.6 344.1 38.9 343.8 42.2C343.1 48.4 343.1 61.4 343.1 68C343.1 73.2 343.3 90.6 343.8 94C344.2 95.6 345.3 102 353.8 102C361.5 102 362.6 95.4 362.9 93.9C363.4 91.7 363.4 89.8 363.4 79.5L373.3 79.6Z" fill="black"/>
<path d="M415.4 97C415.4 106.5 415.8 107.8 418.3 109.9H406.4V102.6C405.1 105.3 402.1 111 393.9 111C391.1 111 388.7 110.4 386.6 109.2C380.9 105.8 380.3 100 380.3 95.5C380.3 85.6 384.2 82.5 390.5 78.1C399.7 71.9 400.7 71.3 405.8 66.5C405.8 61.5 405.8 55.8 398.4 55.8C391.1 55.8 391.1 60.9 391.1 64.6C391.1 66.4 391.2 67.8 391.3 69.1H382.4C382.3 66.5 382.3 60 383.3 56.9C386.3 48 396.7 48 399.4 48C403.8 48 408.2 48.7 411.7 52.5C415.5 56.4 415.5 59.7 415.5 67.9V97H415.4ZM405.8 75.2C403 77.9 402.5 78.2 397.8 81.8C393.4 85.2 390.1 87.8 390.1 94.8C390.1 97.5 390.1 103.8 396.7 103.8C398.5 103.8 400.3 103.2 401.9 102C405.4 99.3 405.8 95.2 405.8 90.3V75.2Z" fill="black"/>
<path d="M461.1 109.9H451.2V70.3C451.2 61.5 451.2 55.7 444 55.7C435.9 55.7 435.9 64 435.9 70.7V110H426.2V49.2H435.4V54.8C437.2 52.6 441 48.1 448.4 48.1C461 48.1 461 58.8 461 67.2V109.9H461.1Z" fill="black"/>
<path d="M504.1 97C504.1 106.5 504.5 107.8 507 109.9H495.1V102.6C493.8 105.3 490.8 111 482.6 111C479.8 111 477.4 110.4 475.3 109.2C469.6 105.8 469 100 469 95.5C469 85.6 472.9 82.5 479.2 78.1C488.4 71.9 489.4 71.3 494.5 66.5C494.5 61.5 494.5 55.8 487.1 55.8C479.8 55.8 479.8 60.9 479.8 64.6C479.8 66.4 479.9 67.8 480 69.1H471.1C471 66.5 471 60 472 56.9C475 48 485.4 48 488.1 48C492.5 48 496.9 48.7 500.4 52.5C504.2 56.4 504.2 59.7 504.2 67.9L504.1 97ZM494.5 75.2C491.7 77.9 491.2 78.2 486.5 81.8C482.1 85.2 478.8 87.8 478.8 94.8C478.8 97.5 478.8 103.8 485.4 103.8C487.2 103.8 489 103.2 490.6 102C494.1 99.3 494.5 95.2 494.5 90.3V75.2Z" fill="black"/>
<path d="M549.8 109.9H540.7V103.5C539.4 105.8 536.2 111 527.9 111C526.7 111 525.3 110.9 524.1 110.5C514.2 107.9 513.9 97.6 513.9 79.9C513.9 74.2 513.9 62.9 515.4 58.1C517.1 52.4 521.7 48 528.4 48C535.3 48 538.3 51.6 540 54V24H549.9V109.9H549.8ZM531.7 55.7C524.4 55.7 524.2 63.1 523.9 68C523.7 74.6 523.7 74.6 523.7 84.4C523.7 87.1 523.7 90.2 523.9 94C524.1 96.6 524.5 103.4 531.7 103.4C540 103.4 540 95.3 540.2 79.8C540.4 65.2 540.4 55.7 531.7 55.7Z" fill="black"/>
<path d="M570.1 38.4H560.5V25.9H570.1V38.4ZM570.1 109.9H560.5V49H570.1V109.9Z" fill="black"/>
<path d="M613 97C613 106.5 613.4 107.8 615.9 109.9H604V102.6C602.7 105.3 599.7 111 591.5 111C588.7 111 586.3 110.4 584.2 109.2C578.5 105.8 577.9 100 577.9 95.5C577.9 85.6 581.8 82.5 588.1 78.1C597.3 71.9 598.3 71.3 603.4 66.5C603.4 61.5 603.4 55.8 596 55.8C588.7 55.8 588.7 60.9 588.7 64.6C588.7 66.4 588.8 67.8 588.9 69.1H580C579.9 66.5 579.9 60 580.9 56.9C583.9 48 594.3 48 597 48C601.4 48 605.8 48.7 609.3 52.5C613.1 56.4 613.1 59.7 613.1 67.9L613 97ZM603.4 75.2C600.6 77.9 600.1 78.2 595.4 81.8C591 85.2 587.7 87.8 587.7 94.8C587.7 97.5 587.7 103.8 594.3 103.8C596.1 103.8 597.9 103.2 599.5 102C603 99.3 603.4 95.2 603.4 90.3V75.2Z" fill="black"/>
<path d="M658.7 109.9H648.8V70.3C648.8 61.5 648.8 55.7 641.6 55.7C633.5 55.7 633.5 64 633.5 70.7V110H623.8V49.2H633V54.8C634.8 52.6 638.6 48.1 646 48.1C658.6 48.1 658.6 58.8 658.6 67.2V109.9H658.7Z" fill="black"/>
<path d="M698 109.9V24H714.2C722.6 24 730.3 24 735.4 30.4C739.4 35.4 739.8 39.9 739.8 60.7C739.8 65.3 739.8 70.8 739.6 82.5C739.5 90.9 739.2 97 736.2 102.1C731.3 109.9 723.3 109.9 714.1 109.9H698ZM708.7 100.4H715.6C722.4 100.4 727.3 99.8 728.5 92.1C729.1 88.1 729.2 76 729.2 71.5C729.2 63.6 729.2 60.6 729.1 52.3C729 42.9 728.9 38.3 725.1 35.6C722.4 33.8 720 33.8 708.7 33.8V100.4Z" fill="black"/>
<path d="M760 38.4H750.4V25.9H760V38.4ZM760 109.9H750.4V49H760V109.9Z" fill="black"/>
<path d="M805.8 49.1V106.7C805.8 114.5 805.8 116.9 804.7 120.3C801.9 128.9 792.1 130.3 786.8 130.3C779.6 130.3 770.3 127.1 770.3 114.7H779.2C779.3 117.3 779.6 122.6 787.5 122.6C796 122.6 796 116 796 110.6V103.5C792.7 108.2 788.3 110.2 783.7 110.2C779.3 110.2 773.7 108.4 771.4 102.2C769.7 97.7 769.7 93.3 769.7 78.2C769.7 67.5 769.8 63.2 770.8 59.2C771.3 56.9 773.5 47.9 784.8 47.9C792.7 47.9 795.4 52.2 796.7 54.5V49H805.8V49.1ZM795.8 64.9C795.6 59.1 793.1 54.9 787.5 54.9C779.5 54.9 779.5 63.7 779.5 73.3C779.5 79.3 779.5 90.2 779.9 94.5C780.1 99.2 782.1 102.9 787.3 102.9C791.9 102.9 794.8 100 795.7 95.5C796.2 92.7 796.2 83.8 796.2 80.4C796.2 80.1 795.9 66.6 795.8 64.9Z" fill="black"/>
<path d="M826 38.4H816.4V25.9H826V38.4ZM826 109.9H816.4V49H826V109.9Z" fill="black"/>
<path d="M858.2 56.4H849.3V95.1C849.3 99 849.7 102.9 854.9 102.9C856.5 102.9 857.3 102.7 858.3 102.4V110.3C857 110.7 855.5 111 852.9 111C844.4 111 841.7 108.1 840.5 105.3C839.3 102.5 839.3 101.3 839.3 90.1V56.4H832V49H839.5V32.7H849.2V49H858.1V56.4H858.2Z" fill="black"/>
<path d="M897.9 97C897.9 106.5 898.3 107.8 900.8 109.9H888.9V102.6C887.6 105.3 884.6 111 876.4 111C873.6 111 871.2 110.4 869.1 109.2C863.4 105.8 862.8 100 862.8 95.5C862.8 85.6 866.7 82.5 873 78.1C882.2 71.9 883.2 71.3 888.3 66.5C888.3 61.5 888.3 55.8 880.9 55.8C873.6 55.8 873.6 60.9 873.6 64.6C873.6 66.4 873.7 67.8 873.8 69.1H864.9C864.8 66.5 864.8 60 865.8 56.9C868.8 48 879.2 48 881.9 48C886.3 48 890.7 48.7 894.2 52.5C898 56.4 898 59.7 898 67.9L897.9 97ZM888.3 75.2C885.5 77.9 885 78.2 880.3 81.8C875.9 85.2 872.6 87.8 872.6 94.8C872.6 97.5 872.6 103.8 879.2 103.8C881 103.8 882.8 103.2 884.4 102C887.9 99.3 888.3 95.2 888.3 90.3V75.2Z" fill="black"/>
<path d="M918.5 109.9H908.6V24H918.5V109.9Z" fill="black"/>
<path d="M954.8 80.2H965C965 89.2 965 90.2 965.1 91.8C965.2 94 966 102 975.4 102C978.8 102 986.2 100.7 986.2 91.3C986.2 84.5 983.2 81.1 978.3 76.1L966.6 64.2C958.5 55.8 956.7 50.6 956.7 42.8C956.7 38.1 956.7 22.7 976.6 22.7C981 22.7 988.4 23.4 992.3 29.8C994.7 33.8 994.7 36.7 994.7 49.4H985.3C985.1 41.3 985.1 40.4 984.8 38.8C984.6 37.2 983.5 31.9 975.9 31.9C966.9 31.9 966.9 39.7 966.9 42.1C966.9 48.5 969.2 51.1 975.3 57.5L986.1 68.8C993.2 76.3 996.3 80.7 996.3 90.6C996.3 108.8 981.9 111.2 975.5 111.2C967.2 111.2 962.9 108.4 961.1 106.9C955.6 102.6 954.4 96.2 954.4 89.8V80.2H954.8Z" fill="black"/>
<path d="M1038.4 91.1C1038.4 95.2 1038.4 98.3 1037.3 101.4C1033.8 111 1024.3 111 1021.2 111C1017.6 111 1009.2 110.5 1005.6 101.6C1004.5 98.7 1004 97.5 1004 73C1004 60 1005.1 48.1 1020.8 48.1C1024.7 48.1 1035.9 48.1 1037.8 61.4C1038.3 64.4 1038.3 66.1 1038.3 81.5H1013.9C1013.9 86.2 1013.8 92.4 1014 94.6C1014.2 96.9 1014.7 103.2 1021.7 103.2C1028.8 103.2 1029.4 97.2 1029.4 91L1038.4 91.1ZM1029.3 73.5V66C1029.2 62.7 1029.1 55.5 1021.8 55.5C1016.8 55.5 1015.4 58.7 1014.7 60.6C1014 62.9 1014 64.9 1014 73.5H1029.3Z" fill="black"/>
<path d="M1058.1 109.9H1048.1V49.1H1057.5V60.5C1059.7 55.8 1063.5 47.5 1073.9 48.1V58.2C1069.5 58.2 1064.2 58.2 1060.8 63.2C1058.9 66.1 1058.1 69.5 1058.1 80.8V109.9Z" fill="black"/>
<path d="M1102.2 109.9H1091.1L1078.1 49.1H1088.7L1096.7 98.8L1105.6 49.1H1116.1L1102.2 109.9Z" fill="black"/>
<path d="M1131.2 38.4H1121.6V25.9H1131.2V38.4ZM1131.2 109.9H1121.6V49H1131.2V109.9Z" fill="black"/>
<path d="M1175.4 87.3C1175.4 98.4 1175.4 111 1157.8 111C1150.4 111 1144.4 108.3 1142.4 101.4C1141.2 97.4 1140.9 90.9 1140.9 81C1140.9 59.4 1141.5 48 1158.8 48C1175.5 48 1175.5 59.1 1175.5 71.1H1166.3C1166.3 60.6 1166.3 55.4 1158.6 55.4C1150.9 55.4 1150.8 60.6 1150.8 77.7C1150.8 80.1 1150.8 88.8 1150.9 94C1151 97.2 1151.3 103.4 1158.4 103.4C1165.6 103.4 1166.2 97.4 1166.2 87.3H1175.4Z" fill="black"/>
<path d="M1218.2 91.1C1218.2 95.2 1218.2 98.3 1217.1 101.4C1213.6 111 1204.1 111 1201 111C1197.4 111 1189 110.5 1185.4 101.6C1184.3 98.7 1183.8 97.5 1183.8 73C1183.8 60 1184.9 48.1 1200.6 48.1C1204.5 48.1 1215.7 48.1 1217.6 61.4C1218.1 64.4 1218.1 66.1 1218.1 81.5H1193.8C1193.8 86.2 1193.7 92.4 1193.9 94.6C1194.1 96.9 1194.6 103.2 1201.6 103.2C1208.7 103.2 1209.3 97.2 1209.3 91L1218.2 91.1ZM1209.1 73.5V66C1209 62.7 1208.9 55.5 1201.6 55.5C1196.6 55.5 1195.2 58.7 1194.5 60.6C1193.8 62.9 1193.8 64.9 1193.8 73.5H1209.1Z" fill="black"/>
<path d="M330.4 203.9H340.6C340.6 212.9 340.6 213.9 340.7 215.5C340.8 217.7 341.6 225.7 351 225.7C354.4 225.7 361.8 224.4 361.8 215C361.8 208.2 358.8 204.8 353.9 199.8L342.2 187.9C334.1 179.5 332.3 174.3 332.3 166.5C332.3 161.8 332.3 146.4 352.2 146.4C356.6 146.4 364 147.1 367.9 153.5C370.3 157.5 370.3 160.4 370.3 173.1H360.9C360.7 165 360.7 164.1 360.4 162.5C360.2 160.9 359.1 155.6 351.5 155.6C342.5 155.6 342.5 163.4 342.5 165.8C342.5 172.2 344.8 174.8 350.9 181.2L361.7 192.5C368.8 200 371.9 204.4 371.9 214.3C371.9 232.5 357.6 234.9 351.1 234.9C342.8 234.9 338.5 232.1 336.7 230.6C331.2 226.3 330 219.9 330 213.5V203.9H330.4Z" fill="black"/>
<path d="M413.9 214.7C413.9 218.8 413.9 221.9 412.8 225C409.3 234.6 399.8 234.6 396.7 234.6C393.1 234.6 384.7 234.1 381.1 225.2C380 222.3 379.5 221.1 379.5 196.6C379.5 183.6 380.6 171.7 396.3 171.7C400.2 171.7 411.4 171.7 413.3 185C413.8 188 413.8 189.7 413.8 205.1H389.4C389.4 209.8 389.3 216 389.5 218.2C389.7 220.5 390.2 226.8 397.2 226.8C404.3 226.8 404.9 220.8 404.9 214.6H413.9V214.7ZM404.8 197.2V189.7C404.7 186.4 404.6 179.2 397.3 179.2C392.3 179.2 390.9 182.4 390.2 184.3C389.5 186.6 389.5 188.6 389.5 197.2H404.8Z" fill="black"/>
<path d="M433.6 233.5H423.6V172.7H433V184.1C435.2 179.4 439 171.1 449.4 171.7V181.8C445 181.8 439.7 181.8 436.3 186.8C434.4 189.7 433.6 193.1 433.6 204.4V233.5Z" fill="black"/>
<path d="M477.8 233.5H466.7L453.7 172.7H464.3L472.3 222.4L481.2 172.7H491.7L477.8 233.5Z" fill="black"/>
<path d="M506.7 162H497.1V149.5H506.7V162ZM506.7 233.5H497.1V172.6H506.7V233.5Z" fill="black"/>
<path d="M551 210.9C551 222 551 234.6 533.4 234.6C526 234.6 520 231.9 518 225C516.8 221 516.5 214.5 516.5 204.6C516.5 183 517.1 171.6 534.4 171.6C551.1 171.6 551.1 182.7 551.1 194.7H541.8C541.8 184.2 541.8 179 534.1 179C526.4 179 526.3 184.2 526.3 201.3C526.3 203.7 526.3 212.4 526.4 217.6C526.5 220.8 526.8 227 533.9 227C541.1 227 541.7 221 541.7 210.9H551Z" fill="black"/>
<path d="M593.8 214.7C593.8 218.8 593.8 221.9 592.7 225C589.2 234.6 579.7 234.6 576.6 234.6C573 234.6 564.6 234.1 561 225.2C559.9 222.3 559.4 221.1 559.4 196.6C559.4 183.6 560.5 171.7 576.2 171.7C580.1 171.7 591.3 171.7 593.2 185C593.7 188 593.7 189.7 593.7 205.1H569.3C569.3 209.8 569.2 216 569.4 218.2C569.6 220.5 570.1 226.8 577.1 226.8C584.2 226.8 584.8 220.8 584.8 214.6H593.8V214.7ZM584.7 197.2V189.7C584.6 186.4 584.5 179.2 577.2 179.2C572.2 179.2 570.8 182.4 570.1 184.3C569.4 186.6 569.4 188.6 569.4 197.2H584.7Z" fill="black"/>
<path d="M666.3 233.5H656.4V193.9C656.4 185.1 656.4 179.3 649.2 179.3C641.1 179.3 641.1 187.6 641.1 194.3V233.6H631.4V172.8H640.6V178.4C642.4 176.2 646.2 171.7 653.6 171.7C666.2 171.7 666.2 182.4 666.2 190.8V233.5H666.3Z" fill="black"/>
<path d="M711.9 233.5H702.5V227.9C700.6 230.3 697.1 234.6 689.6 234.6C684.5 234.6 681.3 232.3 679.7 229.9C677.1 226 676.9 221.6 676.9 211V172.7H686.6V212.6L686.7 218.4C686.7 220.8 686.9 227.3 693.8 227.3C702.2 227.3 702.2 218.8 702.2 212.5V172.7H711.8V233.5H711.9Z" fill="black"/>
<path d="M782.9 233.5H773V193.7C773 188.3 772.9 186 772.4 184.2C771.5 181.5 769.4 179.1 765.3 179.1C757.5 179.1 757.5 187.2 757.5 193.6V233.5H747.8V193.7C747.8 185.6 747.8 179.1 740.3 179.1C732.4 179.1 732.4 186.8 732.4 193.8V233.4H722.5V172.6H731.7V178.7C733.5 176.3 737.2 171.5 744.7 171.5C752.5 171.5 755.3 176.2 756.6 178.7C758.5 176.1 761.8 171.5 769.2 171.5C770.4 171.5 774.9 171.5 778.7 175.3C782.8 179.4 782.8 183.9 782.8 193.8V233.5H782.9Z" fill="black"/>
<path d="M826.8 214.7C826.8 218.8 826.8 221.9 825.7 225C822.2 234.6 812.7 234.6 809.6 234.6C806 234.6 797.6 234.1 794 225.2C792.9 222.3 792.4 221.1 792.4 196.6C792.4 183.6 793.5 171.7 809.2 171.7C813.1 171.7 824.3 171.7 826.2 185C826.7 188 826.7 189.7 826.7 205.1H802.3C802.3 209.8 802.2 216 802.4 218.2C802.6 220.5 803.1 226.8 810.1 226.8C817.2 226.8 817.8 220.8 817.8 214.6H826.8V214.7ZM817.7 197.2V189.7C817.6 186.4 817.5 179.2 810.2 179.2C805.2 179.2 803.8 182.4 803.1 184.3C802.4 186.6 802.4 188.6 802.4 197.2H817.7ZM812.2 165.1H804.4L810.8 152H824.1L812.2 165.1Z" fill="black"/>
<path d="M846.5 233.5H836.5V172.7H845.9V184.1C848.1 179.4 851.9 171.1 862.3 171.7V181.8C857.9 181.8 852.6 181.8 849.2 186.8C847.3 189.7 846.5 193.1 846.5 204.4V233.5Z" fill="black"/>
<path d="M876.5 162H866.9V149.5H876.5V162ZM876.5 233.5H866.9V172.6H876.5V233.5Z" fill="black"/>
<path d="M922.1 252.9H912.5V227.5C911.3 229.4 908.1 234.7 900.3 234.7C893 234.7 888.4 229.6 887 223C886.4 219.6 886.1 208.3 886.1 204.2C886.1 199.2 886.1 187.3 887 183.3C888.7 175.9 894.5 171.7 900.6 171.7C908 171.7 910.9 176.4 912.6 179.4V172.8H922L922.1 252.9ZM912.2 188.8C912.1 186.5 911.5 179.4 903.8 179.4C897.2 179.4 896.9 185.2 896.6 187.7C896.4 190.7 896.4 198.9 896.4 204.2C896.4 220.3 896.4 226.9 903.9 226.9C912.7 226.9 912.7 218 912.7 202.7C912.7 199.8 912.4 191.8 912.2 188.8Z" fill="black"/>
<path d="M967.8 233.5H958.4V227.9C956.5 230.3 953 234.6 945.5 234.6C940.4 234.6 937.2 232.3 935.6 229.9C933 226 932.8 221.6 932.8 211V172.7H942.5V212.6L942.6 218.4C942.6 220.8 942.8 227.3 949.7 227.3C958.1 227.3 958.1 218.8 958.1 212.5V172.7H967.7V233.5H967.8Z" fill="black"/>
<path d="M1011.8 214.7C1011.8 218.8 1011.8 221.9 1010.7 225C1007.2 234.6 997.7 234.6 994.6 234.6C991 234.6 982.6 234.1 979 225.2C977.9 222.3 977.4 221.1 977.4 196.6C977.4 183.6 978.5 171.7 994.2 171.7C998.1 171.7 1009.3 171.7 1011.2 185C1011.7 188 1011.7 189.7 1011.7 205.1H987.3C987.3 209.8 987.2 216 987.4 218.2C987.6 220.5 988.1 226.8 995.1 226.8C1002.2 226.8 1002.8 220.8 1002.8 214.6H1011.8V214.7ZM1002.7 197.2V189.7C1002.6 186.4 1002.5 179.2 995.2 179.2C990.2 179.2 988.8 182.4 988.1 184.3C987.4 186.6 987.4 188.6 987.4 197.2H1002.7Z" fill="black"/>
<path d="M1082.9 210.9C1082.9 222 1082.9 234.6 1065.3 234.6C1057.9 234.6 1051.9 231.9 1049.9 225C1048.7 221 1048.4 214.5 1048.4 204.6C1048.4 183 1049 171.6 1066.3 171.6C1083 171.6 1083 182.7 1083 194.7H1073.8C1073.8 184.2 1073.8 179 1066.1 179C1058.4 179 1058.3 184.2 1058.3 201.3C1058.3 203.7 1058.3 212.4 1058.4 217.6C1058.5 220.8 1058.8 227 1065.9 227C1073.1 227 1073.7 221 1073.7 210.9H1082.9Z" fill="black"/>
<path d="M1124.6 220.6C1124.6 230.1 1125 231.4 1127.5 233.5H1115.6V226.2C1114.3 228.9 1111.3 234.6 1103.1 234.6C1100.3 234.6 1097.9 234 1095.8 232.8C1090.1 229.4 1089.5 223.6 1089.5 219.1C1089.5 209.2 1093.4 206.1 1099.7 201.7C1108.9 195.5 1109.9 194.9 1115 190.1C1115 185.1 1115 179.4 1107.6 179.4C1100.3 179.4 1100.3 184.5 1100.3 188.2C1100.3 190 1100.4 191.4 1100.5 192.7H1091.6C1091.5 190.1 1091.5 183.6 1092.5 180.5C1095.5 171.6 1105.9 171.6 1108.6 171.6C1113 171.6 1117.4 172.3 1120.9 176.1C1124.7 180 1124.7 183.3 1124.7 191.5L1124.6 220.6ZM1115 198.9C1112.2 201.6 1111.7 201.9 1107 205.5C1102.6 208.9 1099.3 211.5 1099.3 218.5C1099.3 221.2 1099.3 227.5 1105.9 227.5C1107.7 227.5 1109.5 226.9 1111.1 225.7C1114.6 223 1115 218.9 1115 214V198.9Z" fill="black"/>
<path d="M1170.3 233.5H1160.4V193.9C1160.4 185.1 1160.4 179.3 1153.2 179.3C1145.1 179.3 1145.1 187.6 1145.1 194.3V233.6H1135.4V172.8H1144.6V178.4C1146.4 176.2 1150.2 171.7 1157.6 171.7C1170.2 171.7 1170.2 182.4 1170.2 190.8L1170.3 233.5Z" fill="black"/>
<path d="M1213.3 220.6C1213.3 230.1 1213.7 231.4 1216.2 233.5H1204.3V226.2C1203 228.9 1200 234.6 1191.8 234.6C1189 234.6 1186.6 234 1184.5 232.8C1178.8 229.4 1178.2 223.6 1178.2 219.1C1178.2 209.2 1182.1 206.1 1188.4 201.7C1197.6 195.5 1198.6 194.9 1203.7 190.1C1203.7 185.1 1203.7 179.4 1196.3 179.4C1189 179.4 1189 184.5 1189 188.2C1189 190 1189.1 191.4 1189.2 192.7H1180.3C1180.2 190.1 1180.2 183.6 1181.2 180.5C1184.2 171.6 1194.6 171.6 1197.3 171.6C1201.7 171.6 1206.1 172.3 1209.6 176.1C1213.4 180 1213.4 183.3 1213.4 191.5L1213.3 220.6ZM1203.7 198.9C1200.9 201.6 1200.4 201.9 1195.7 205.5C1191.3 208.9 1188 211.5 1188 218.5C1188 221.2 1188 227.5 1194.6 227.5C1196.4 227.5 1198.2 226.9 1199.8 225.7C1203.3 223 1203.7 218.9 1203.7 214V198.9Z" fill="black"/>
<path d="M1259 233.5H1249.9V227.1C1248.6 229.4 1245.4 234.6 1237.1 234.6C1235.9 234.6 1234.5 234.5 1233.3 234.1C1223.4 231.5 1223.1 221.2 1223.1 203.5C1223.1 197.8 1223.1 186.5 1224.6 181.7C1226.3 176 1230.9 171.6 1237.6 171.6C1244.5 171.6 1247.5 175.2 1249.2 177.6V147.7H1259.1L1259 233.5ZM1240.9 179.3C1233.6 179.3 1233.4 186.7 1233.1 191.6C1232.9 198.2 1232.9 198.2 1232.9 208C1232.9 210.7 1232.9 213.8 1233.1 217.6C1233.3 220.2 1233.7 227 1240.9 227C1249.2 227 1249.2 218.9 1249.4 203.4C1249.6 188.8 1249.6 179.3 1240.9 179.3Z" fill="black"/>
<path d="M1279.3 162H1269.7V149.5H1279.3V162ZM1279.3 233.5H1269.7V172.6H1279.3V233.5Z" fill="black"/>
<path d="M1323.3 214.7C1323.3 218.8 1323.3 221.9 1322.2 225C1318.7 234.6 1309.2 234.6 1306.1 234.6C1302.5 234.6 1294.1 234.1 1290.5 225.2C1289.4 222.3 1288.9 221.1 1288.9 196.6C1288.9 183.6 1290 171.7 1305.7 171.7C1309.6 171.7 1320.8 171.7 1322.7 185C1323.2 188 1323.2 189.7 1323.2 205.1H1298.8C1298.8 209.8 1298.7 216 1298.9 218.2C1299.1 220.5 1299.6 226.8 1306.6 226.8C1313.7 226.8 1314.3 220.8 1314.3 214.6H1323.3V214.7ZM1314.2 197.2V189.7C1314.1 186.4 1314 179.2 1306.7 179.2C1301.7 179.2 1300.3 182.4 1299.6 184.3C1298.9 186.6 1298.9 188.6 1298.9 197.2H1314.2Z" fill="black"/>
<path d="M1368 233.5H1358.1V193.9C1358.1 185.1 1358.1 179.3 1350.9 179.3C1342.8 179.3 1342.8 187.6 1342.8 194.3V233.6H1333.1V172.8H1342.3V178.4C1344.1 176.2 1347.9 171.7 1355.3 171.7C1367.9 171.7 1367.9 182.4 1367.9 190.8L1368 233.5Z" fill="black"/>
<path d="M262 3.5H3.5V262H262V3.5Z" fill="black"/>
<path d="M214 75.4L213.6 64C213.6 62.9 214.5 62.9 216.5 63.3L225.7 65.1L224.5 62.1C224.1 60.9 224 60.2 224.9 59.4L235.8 50.5L233.8 49.3C233.2 48.9 233.2 48.4 233.5 47.4L235.5 40.8L230.2 41.9C228.7 42.2 228.3 41.9 228 41.1L226.5 38.1L221.3 44C220.4 45.1 219.1 44.4 219.5 42.8L222 30.6L218.2 32.8C217.6 33.2 216.9 33.3 216.6 32.6L212.5 24.4L208.4 32.6C208 33.3 207.4 33.2 206.8 32.8L203 30.6L205.5 42.8C205.9 44.4 204.6 45.1 203.7 44L198.5 38.1L197 41.1C196.6 41.9 196.2 42.3 194.8 41.9L189.5 40.8L191.5 47.4C191.8 48.4 191.8 48.9 191.2 49.3L189.2 50.5L200.1 59.4C201 60.2 200.9 61 200.5 62.1L199.3 65.1L208.5 63.3C210.5 62.9 211.4 62.9 211.4 64L211 75.4H214Z" fill="white"/>
<path d="M170.9 143.2C170.9 150.8 170.8 152.8 170.3 155C169.6 158.3 167.7 164 157.5 164C148.8 164 145.3 158.9 144.4 153.6C144.2 152 143.8 149.6 143.8 135.4C143.8 120.4 144 118.7 144.4 116.2C144.9 113.7 146.3 105.5 158 105.5C162.7 105.5 168.5 107.5 169.9 113.7C170.5 116.4 170.5 119.8 170.5 124.2H163.9V119.9C163.9 116 163.8 111.4 158 111.4C152 111.4 151.5 116.2 151.2 118.4C150.7 122.5 150.7 131.1 150.7 135.4C150.7 138.9 150.9 150.4 151.2 152.6C151.4 153.6 152.2 157.9 157.8 157.9C162.9 157.9 163.6 153.6 163.8 152.5C164.1 151.1 164.1 149.8 164.1 143H170.9V143.2Z" fill="white"/>
<path d="M176.7 163.3V106.5H187.4C192.9 106.5 198 106.5 201.4 110.8C204.1 114.1 204.3 117.1 204.3 130.8C204.3 133.9 204.3 137.5 204.1 145.2C204 150.7 203.9 154.8 201.8 158.1C198.6 163.2 193.3 163.2 187.2 163.2H176.7V163.3ZM183.8 157.1H188.4C192.9 157.1 196.1 156.7 196.9 151.6C197.3 148.9 197.4 141 197.4 138C197.4 132.8 197.4 130.8 197.3 125.3C197.2 119.1 197.1 116.1 194.6 114.3C192.8 113.1 191.2 113.1 183.7 113.1V157.1H183.8Z" fill="white"/>
<path d="M208.8 143.6H215.6C215.6 149.6 215.6 150.2 215.7 151.2C215.8 152.6 216.3 158 222.5 158C224.8 158 229.7 157.1 229.7 150.9C229.7 146.4 227.7 144.1 224.5 140.8L216.8 132.9C211.4 127.4 210.3 123.9 210.3 118.7C210.3 115.6 210.3 105.4 223.5 105.4C226.4 105.4 231.3 105.9 233.9 110.1C235.5 112.8 235.5 114.7 235.5 123H229.3C229.1 117.6 229.1 117 229 116C228.8 115 228.1 111.4 223.1 111.4C217.2 111.4 217.2 116.5 217.2 118.2C217.2 122.5 218.7 124.2 222.7 128.4L229.9 135.9C234.6 140.9 236.7 143.8 236.7 150.3C236.7 162.4 227.2 163.9 223 163.9C217.5 163.9 214.6 162.1 213.5 161.1C209.9 158.3 209.1 154 209.1 149.8V143.6H208.8Z" fill="white"/>
<path d="M143.5 214H150.3C150.3 220 150.3 220.6 150.4 221.6C150.5 223 151 228.4 157.2 228.4C159.5 228.4 164.4 227.5 164.4 221.3C164.4 216.8 162.4 214.5 159.2 211.2L151.5 203.3C146.1 197.8 145 194.3 145 189.1C145 186 145 175.8 158.2 175.8C161.1 175.8 166 176.3 168.6 180.5C170.2 183.2 170.2 185.1 170.2 193.4H163.8C163.6 188 163.6 187.4 163.5 186.4C163.3 185.4 162.6 181.8 157.6 181.8C151.7 181.8 151.7 186.9 151.7 188.6C151.7 192.9 153.2 194.6 157.2 198.8L164.4 206.3C169.1 211.3 171.2 214.2 171.2 220.7C171.2 232.8 161.7 234.3 157.5 234.3C152 234.3 149.1 232.5 148 231.5C144.4 228.7 143.6 224.4 143.6 220.2V214H143.5Z" fill="white"/>
<path d="M202.8 233.6H192.8L181.8 184.4L182.8 233.6H175.8V176.8H185.4L196.9 226.6L195.9 176.8H202.7V233.6H202.8Z" fill="white"/>
<path d="M235.5 213.6C235.5 221.2 235.4 223.2 234.9 225.4C234.2 228.7 232.3 234.4 222.1 234.4C213.4 234.4 209.9 229.3 209 224C208.8 222.4 208.4 220 208.4 205.8C208.4 190.8 208.6 189.1 209 186.6C209.5 184.1 210.9 175.9 222.6 175.9C227.3 175.9 233.1 177.9 234.5 184.1C235.1 186.8 235.1 190.2 235.1 194.6H228.5V190.3C228.5 186.4 228.4 181.8 222.6 181.8C216.6 181.8 216.1 186.6 215.8 188.8C215.3 192.9 215.3 201.5 215.3 205.8C215.3 209.3 215.5 220.8 215.8 223C216 224 216.8 228.3 222.4 228.3C227.5 228.3 228.2 224 228.4 222.9C228.7 221.5 228.7 220.2 228.7 213.4H235.5V213.6Z" fill="white"/>
<path d="M265.5 265.5H0V0H265.5V265.5ZM7 258.4H258.4V7H7V258.4Z" fill="white"/>
</g>
<defs>
<clipPath id="clip0_1_2">
<rect width="1368" height="265.5" fill="white"/>
</clipPath>
</defs>
</svg>
