<svg width="1368" height="266" viewBox="0 0 1368 266" fill="none" xmlns="http://www.w3.org/2000/svg">
<g clip-path="url(#clip0_1_64)">
<path d="M330.4 80.2H340.7C340.7 89.2 340.7 90.2 340.8 91.8C340.9 94 341.6 102.1 351.2 102.1C354.6 102.1 362.1 100.8 362.1 91.4C362.1 84.6 359.1 81.1 354.2 76.2L342.5 64.2C334.4 55.9 332.7 50.5 332.7 42.8C332.7 38.1 332.7 22.7 352.6 22.7C357 22.7 364.4 23.4 368.3 29.7C370.7 33.7 370.7 36.6 370.7 49.3H361.4C361.2 41.2 361.2 40.3 360.9 38.7C360.7 37.1 359.6 31.8 352.1 31.8C343.1 31.8 343.1 39.5 343.1 42.1C343.1 48.5 345.4 51.1 351.4 57.6L362.3 69C369.3 76.5 372.6 81 372.6 90.8C372.6 109.1 358.2 111.3 351.8 111.3C343.6 111.3 339.1 108.5 337.4 107.1C332 102.9 330.7 96.4 330.7 89.9V80.3L330.4 80.2Z" fill="black"/>
<path d="M414 91.1C414 95.2 414 98.2 412.9 101.5C409.4 111.1 399.9 111.1 396.8 111.1C393.2 111.1 384.7 110.6 381.2 101.8C380.1 98.9 379.6 97.7 379.6 73.3C379.6 60.3 380.7 48.4 396.4 48.4C400.3 48.4 411.5 48.4 413.4 61.7C413.9 64.7 413.9 66.4 413.9 81.8H389.5C389.5 86.5 389.4 92.8 389.6 95C389.8 97.3 390.3 103.6 397.2 103.6C404.2 103.6 404.8 97.7 404.8 91.4H413.9L414 91.1ZM404.8 73.6V66C404.7 62.7 404.6 55.5 397.3 55.5C392.3 55.5 390.9 58.6 390.3 60.6C389.6 62.9 389.6 64.8 389.6 73.5L404.8 73.6Z" fill="black"/>
<path d="M433.7 110H423.7V49.1H433V60.6C435.2 55.9 438.9 47.6 449.4 48.2V58.3C445 58.3 439.7 58.3 436.2 63.3C434.3 66.2 433.5 69.6 433.5 80.9V109.9L433.7 110Z" fill="black"/>
<path d="M477.8 110H466.7L453.7 49.2H464.3L472.3 99L481.1 49.2H491.6L477.8 110Z" fill="black"/>
<path d="M506.8 38.4H497.2V25.8H506.8V38.4ZM506.8 110H497.2V49H506.8V110Z" fill="black"/>
<path d="M551 87.2C551 98.3 551 110.9 533.4 110.9C526 110.9 520 108.2 517.9 101.3C516.7 97.3 516.4 90.8 516.4 80.9C516.4 59.3 517 47.9 534.3 47.9C551 47.9 551 59 551 71.1H541.8C541.8 60.6 541.8 55.4 534.2 55.4C526.6 55.4 526.5 60.6 526.5 77.6C526.5 80 526.5 88.7 526.6 93.9C526.7 97 527 103.2 534.1 103.2C541.2 103.2 541.8 97.3 541.8 87.1H551V87.2Z" fill="black"/>
<path d="M593.8 91.1C593.8 95.2 593.8 98.2 592.7 101.5C589.2 111.1 579.7 111.1 576.6 111.1C573 111.1 564.5 110.6 561 101.8C559.9 98.9 559.4 97.7 559.4 73.3C559.4 60.3 560.5 48.4 576.2 48.4C580.1 48.4 591.3 48.4 593.2 61.7C593.7 64.7 593.7 66.4 593.7 81.8H569.3C569.3 86.5 569.2 92.8 569.4 95C569.6 97.3 570.1 103.6 577 103.6C584 103.6 584.6 97.7 584.6 91.4H593.7V91.1H593.8ZM584.6 73.6V66C584.5 62.7 584.4 55.5 577.1 55.5C572.1 55.5 570.7 58.6 570.1 60.6C569.4 62.9 569.4 64.8 569.4 73.5L584.6 73.6Z" fill="black"/>
<path d="M666.3 110H656.5V70.4C656.5 61.7 656.5 55.8 649.4 55.8C641.3 55.8 641.3 64 641.3 70.8V110.1H631.6V49.2H640.8V54.8C642.6 52.6 646.4 48.1 653.8 48.1C666.5 48.1 666.5 58.8 666.5 67.2L666.3 110Z" fill="black"/>
<path d="M711.9 110H702.6V104.4C700.7 106.8 697.3 111.1 689.7 111.1C684.6 111.1 681.5 108.8 679.9 106.4C677.4 102.5 677.1 98.2 677.1 87.5V49.1H686.8V89L686.9 94.8C686.9 97.2 687.1 103.6 693.9 103.6C702.2 103.6 702.2 95.1 702.2 88.7V49H711.8V110H711.9Z" fill="black"/>
<path d="M782.9 110H773.1V70.2C773.1 64.9 773 62.6 772.5 60.8C771.7 58.1 769.5 55.7 765.5 55.7C757.8 55.7 757.8 63.8 757.8 70.2V110H748V70.2C748 62.1 748 55.6 740.5 55.6C732.6 55.6 732.6 63.2 732.6 70.3V109.9H722.6V49H731.8V55C733.6 52.6 737.2 47.9 744.8 47.9C752.5 47.9 755.4 52.6 756.8 55C758.7 52.5 762 47.9 769.5 47.9C770.7 47.9 775.2 47.9 778.9 51.7C783 55.8 783 60.3 783 70.2L782.9 110Z" fill="black"/>
<path d="M826.9 91.1C826.9 95.2 826.9 98.2 825.8 101.5C822.3 111.1 812.8 111.1 809.7 111.1C806.1 111.1 797.6 110.6 794.1 101.8C793 98.9 792.5 97.7 792.5 73.3C792.5 60.3 793.6 48.4 809.3 48.4C813.2 48.4 824.4 48.4 826.3 61.7C826.8 64.7 826.8 66.4 826.8 81.8H802.4C802.4 86.5 802.3 92.8 802.5 95C802.7 97.3 803.2 103.6 810.1 103.6C817.1 103.6 817.7 97.7 817.7 91.4H826.8V91.1H826.9ZM817.7 73.6V66C817.6 62.7 817.5 55.5 810.2 55.5C805.2 55.5 803.8 58.6 803.2 60.6C802.5 62.9 802.5 64.8 802.5 73.5L817.7 73.6ZM812.2 41.4H804.5L810.9 28.2H824.2L812.2 41.4Z" fill="black"/>
<path d="M846.6 110H836.6V49.1H845.9V60.6C848.1 55.9 851.8 47.6 862.3 48.2V58.3C857.9 58.3 852.6 58.3 849.1 63.3C847.2 66.2 846.4 69.6 846.4 80.9V109.9L846.6 110Z" fill="black"/>
<path d="M876.5 38.4H866.9V25.8H876.5V38.4ZM876.5 110H866.9V49H876.5V110Z" fill="black"/>
<path d="M922.2 129.3H912.6V103.9C911.4 105.8 908.2 111 900.4 111C893.1 111 888.4 105.9 887.1 99.3C886.5 95.9 886.3 84.6 886.3 80.4C886.3 75.4 886.3 63.5 887.1 59.5C888.8 52.1 894.6 47.9 900.8 47.9C908.2 47.9 911.2 52.6 912.9 55.5V49H922.2V129.3ZM912.2 65.1C912.1 62.8 911.5 55.8 903.9 55.8C897.4 55.8 897 61.6 896.8 64C896.6 67 896.6 75.2 896.6 80.6C896.6 96.7 896.6 103.3 904.1 103.3C912.8 103.3 912.8 94.5 912.8 79.1C912.7 76.2 912.4 68.1 912.2 65.1Z" fill="black"/>
<path d="M967.8 110H958.5V104.4C956.6 106.8 953.2 111.1 945.6 111.1C940.5 111.1 937.4 108.8 935.8 106.4C933.3 102.5 933 98.2 933 87.5V49.1H942.7V89L942.8 94.8C942.8 97.2 943 103.6 949.8 103.6C958.1 103.6 958.1 95.1 958.1 88.7V49H967.7V110H967.8Z" fill="black"/>
<path d="M1011.8 91.1C1011.8 95.2 1011.8 98.2 1010.7 101.5C1007.2 111.1 997.7 111.1 994.6 111.1C991 111.1 982.5 110.6 979 101.8C977.9 98.9 977.4 97.7 977.4 73.3C977.4 60.3 978.5 48.4 994.2 48.4C998.1 48.4 1009.3 48.4 1011.2 61.7C1011.7 64.7 1011.7 66.4 1011.7 81.8H987.3C987.3 86.5 987.2 92.8 987.4 95C987.6 97.3 988.1 103.6 995 103.6C1002 103.6 1002.6 97.7 1002.6 91.4H1011.7L1011.8 91.1ZM1002.7 73.6V66C1002.6 62.7 1002.5 55.5 995.2 55.5C990.2 55.5 988.8 58.6 988.2 60.6C987.5 62.9 987.5 64.8 987.5 73.5L1002.7 73.6Z" fill="black"/>
<path d="M1083 87.2C1083 98.3 1083 110.9 1065.4 110.9C1058 110.9 1052 108.2 1049.9 101.3C1048.7 97.3 1048.4 90.8 1048.4 80.9C1048.4 59.3 1049 47.9 1066.3 47.9C1083 47.9 1083 59 1083 71H1073.8C1073.8 60.5 1073.8 55.3 1066.2 55.3C1058.6 55.3 1058.5 60.5 1058.5 77.5C1058.5 79.9 1058.5 88.6 1058.6 93.8C1058.7 96.9 1059 103.1 1066.1 103.1C1073.2 103.1 1073.8 97.2 1073.8 87H1083V87.2Z" fill="black"/>
<path d="M1124.7 97C1124.7 106.4 1125.1 107.9 1127.6 109.9H1115.6V102.6C1114.3 105.3 1111.4 110.9 1103 110.9C1100.2 110.9 1097.8 110.3 1095.7 109.1C1090 105.7 1089.4 99.9 1089.4 95.3C1089.4 85.5 1093.3 82.3 1099.7 77.9C1108.9 71.7 1110 71.1 1115 66.3C1115 61.3 1115 55.6 1107.6 55.6C1100.3 55.6 1100.3 60.7 1100.3 64.3C1100.3 66.1 1100.4 67.4 1100.5 68.8H1091.7C1091.6 66.3 1091.6 59.7 1092.5 56.6C1095.5 47.8 1105.9 47.8 1108.6 47.8C1113 47.8 1117.3 48.5 1120.9 52.3C1124.7 56.2 1124.7 59.4 1124.7 67.8V96.8V97ZM1115 75.3C1112.2 78 1111.7 78.3 1107 81.8C1102.6 85.2 1099.4 87.7 1099.4 94.8C1099.4 97.5 1099.4 103.8 1105.9 103.8C1107.7 103.8 1109.5 103.2 1111.1 102C1114.6 99.3 1115 95.2 1115 90.3V75.3Z" fill="black"/>
<path d="M1170.4 110H1160.6V70.4C1160.6 61.7 1160.6 55.8 1153.5 55.8C1145.4 55.8 1145.4 64 1145.4 70.8V110.1H1135.7V49.2H1144.9V54.8C1146.7 52.6 1150.5 48.1 1157.9 48.1C1170.6 48.1 1170.6 58.8 1170.6 67.2V110H1170.4Z" fill="black"/>
<path d="M1213.3 97C1213.3 106.4 1213.7 107.9 1216.2 109.9H1204.2V102.6C1202.9 105.3 1200 110.9 1191.6 110.9C1188.8 110.9 1186.4 110.3 1184.3 109.1C1178.6 105.7 1178 99.9 1178 95.3C1178 85.5 1181.9 82.3 1188.3 77.9C1197.5 71.7 1198.6 71.1 1203.6 66.3C1203.6 61.3 1203.6 55.6 1196.2 55.6C1188.9 55.6 1188.9 60.7 1188.9 64.3C1188.9 66.1 1189 67.4 1189.1 68.8H1180.3C1180.2 66.3 1180.2 59.7 1181.1 56.6C1184.1 47.8 1194.5 47.8 1197.2 47.8C1201.6 47.8 1205.9 48.5 1209.5 52.3C1213.3 56.2 1213.3 59.4 1213.3 67.8V96.8V97ZM1203.7 75.3C1200.9 78 1200.4 78.3 1195.7 81.8C1191.3 85.2 1188.1 87.7 1188.1 94.8C1188.1 97.5 1188.1 103.8 1194.6 103.8C1196.4 103.8 1198.2 103.2 1199.8 102C1203.3 99.3 1203.7 95.2 1203.7 90.3V75.3Z" fill="black"/>
<path d="M1259.1 110H1250V103.6C1248.7 105.9 1245.5 111.1 1237.2 111.1C1236 111.1 1234.7 111 1233.4 110.6C1223.6 108.1 1223.1 97.7 1223.1 79.9C1223.1 74.2 1223.1 62.9 1224.6 58.1C1226.3 52.4 1230.9 48 1237.6 48C1244.5 48 1247.4 51.6 1249.2 53.9V24H1259L1259.1 110ZM1241 55.7C1233.7 55.7 1233.5 63.1 1233.3 68C1233.1 74.5 1233.1 74.5 1233.1 84.4C1233.1 87.1 1233.1 90.2 1233.3 94C1233.5 96.5 1233.9 103.3 1241 103.3C1249.2 103.3 1249.2 95.2 1249.5 79.7C1249.7 65.1 1249.7 55.7 1241 55.7Z" fill="black"/>
<path d="M1279.4 38.4H1269.8V25.8H1279.4V38.4ZM1279.4 110H1269.8V49H1279.4V110Z" fill="black"/>
<path d="M1323.4 91.1C1323.4 95.2 1323.4 98.2 1322.3 101.5C1318.8 111.1 1309.3 111.1 1306.2 111.1C1302.6 111.1 1294.1 110.6 1290.6 101.8C1289.5 98.9 1289 97.7 1289 73.3C1289 60.3 1290.1 48.4 1305.8 48.4C1309.7 48.4 1320.9 48.4 1322.8 61.7C1323.3 64.7 1323.3 66.4 1323.3 81.8H1298.9C1298.9 86.5 1298.8 92.8 1299 95C1299.2 97.3 1299.7 103.6 1306.6 103.6C1313.6 103.6 1314.2 97.7 1314.2 91.4H1323.3L1323.4 91.1ZM1314.2 73.6V66C1314.1 62.7 1314 55.5 1306.7 55.5C1301.7 55.5 1300.3 58.6 1299.7 60.6C1299 62.9 1299 64.8 1299 73.5L1314.2 73.6Z" fill="black"/>
<path d="M1368 110H1358.2V70.4C1358.2 61.7 1358.2 55.8 1351.1 55.8C1343 55.8 1343 64 1343 70.8V110.1H1333.3V49.2H1342.5V54.8C1344.3 52.6 1348.1 48.1 1355.5 48.1C1368.2 48.1 1368.2 58.8 1368.2 67.2V110H1368Z" fill="black"/>
<path d="M373.4 203.2C373.4 214.8 373.3 217.8 372.6 221.1C371.5 226.1 368.7 234.8 353.3 234.8C340.1 234.8 334.8 227.1 333.5 219.1C333.1 216.7 332.7 213.1 332.7 191.7C332.7 169.1 333.1 166.4 333.7 162.7C334.4 158.9 336.6 146.5 354.2 146.5C361.2 146.5 370 149.5 372.2 158.9C373.2 163 373.2 168.1 373 174.9H363V168.5C363 162.7 362.9 155.6 354.2 155.6C345.1 155.6 344.4 162.9 343.9 166.2C343.2 172.4 343.2 185.4 343.2 192C343.2 197.2 343.4 214.6 343.9 218C344.3 219.6 345.4 226 353.9 226C361.5 226 362.6 219.5 363 217.9C363.5 215.7 363.5 213.8 363.5 203.5H373.3L373.4 203.2Z" fill="black"/>
<path d="M415.4 220.6C415.4 230 415.8 231.5 418.3 233.5H406.3V226.2C405 228.9 402.1 234.5 393.7 234.5C390.9 234.5 388.5 233.9 386.4 232.7C380.7 229.3 380.1 223.5 380.1 218.9C380.1 209.1 384 205.9 390.4 201.5C399.6 195.3 400.7 194.7 405.7 189.9C405.7 184.9 405.7 179.2 398.3 179.2C391 179.2 391 184.3 391 187.9C391 189.7 391.1 191 391.2 192.4H382.4C382.3 189.9 382.3 183.3 383.2 180.2C386.2 171.4 396.6 171.4 399.3 171.4C403.7 171.4 408 172.1 411.6 175.9C415.4 179.8 415.4 183 415.4 191.4V220.4V220.6ZM405.8 198.9C403 201.6 402.5 201.9 397.8 205.4C393.4 208.8 390.2 211.3 390.2 218.4C390.2 221.1 390.2 227.4 396.7 227.4C398.5 227.4 400.3 226.8 401.9 225.6C405.4 222.9 405.8 218.8 405.8 213.9V198.9Z" fill="black"/>
<path d="M461.1 233.6H451.3V194C451.3 185.3 451.3 179.4 444.2 179.4C436.1 179.4 436.1 187.6 436.1 194.4V233.7H426.4V172.9H435.6V178.5C437.4 176.3 441.2 171.8 448.6 171.8C461.3 171.8 461.3 182.5 461.3 190.9V233.6H461.1Z" fill="black"/>
<path d="M504 220.6C504 230 504.4 231.5 506.9 233.5H494.9V226.2C493.6 228.9 490.7 234.5 482.3 234.5C479.5 234.5 477.1 233.9 475 232.7C469.3 229.3 468.7 223.5 468.7 218.9C468.7 209.1 472.6 205.9 479 201.5C488.2 195.3 489.3 194.7 494.3 189.9C494.3 184.9 494.3 179.2 486.9 179.2C479.6 179.2 479.6 184.3 479.6 187.9C479.6 189.7 479.7 191 479.8 192.4H471C470.9 189.9 470.9 183.3 471.8 180.2C474.8 171.4 485.2 171.4 487.9 171.4C492.3 171.4 496.6 172.1 500.2 175.9C504 179.8 504 183 504 191.4V220.4V220.6ZM494.5 198.9C491.7 201.6 491.2 201.9 486.5 205.4C482.1 208.8 478.9 211.3 478.9 218.4C478.9 221.1 478.9 227.4 485.4 227.4C487.2 227.4 489 226.8 490.6 225.6C494.1 222.9 494.5 218.8 494.5 213.9V198.9Z" fill="black"/>
<path d="M549.8 233.6H540.7V227.2C539.4 229.5 536.2 234.7 527.9 234.7C526.7 234.7 525.4 234.6 524.1 234.2C514.3 231.7 513.8 221.3 513.8 203.5C513.8 197.8 513.8 186.5 515.3 181.7C517 176 521.6 171.6 528.3 171.6C535.2 171.6 538.1 175.2 539.9 177.5V147.5H549.7L549.8 233.6ZM531.7 179.3C524.4 179.3 524.2 186.7 524 191.6C523.8 198.1 523.8 198.1 523.8 208C523.8 210.7 523.8 213.8 524 217.6C524.2 220.1 524.6 226.9 531.7 226.9C539.9 226.9 539.9 218.8 540.2 203.3C540.4 188.8 540.4 179.3 531.7 179.3Z" fill="black"/>
<path d="M570.1 162H560.5V149.4H570.1V162ZM570.1 233.6H560.5V172.7H570.1V233.6Z" fill="black"/>
<path d="M613 220.6C613 230 613.4 231.5 615.9 233.5H603.9V226.2C602.6 228.9 599.7 234.5 591.3 234.5C588.5 234.5 586.1 233.9 584 232.7C578.3 229.3 577.7 223.5 577.7 218.9C577.7 209.1 581.6 205.9 588 201.5C597.2 195.3 598.3 194.7 603.3 189.9C603.3 184.9 603.3 179.2 595.9 179.2C588.6 179.2 588.6 184.3 588.6 187.9C588.6 189.7 588.7 191 588.8 192.4H580C579.9 189.9 579.9 183.3 580.8 180.2C583.8 171.4 594.2 171.4 596.9 171.4C601.3 171.4 605.6 172.1 609.2 175.9C613 179.8 613 183 613 191.4V220.4V220.6ZM603.4 198.9C600.6 201.6 600.1 201.9 595.4 205.4C591 208.8 587.8 211.3 587.8 218.4C587.8 221.1 587.8 227.4 594.3 227.4C596.1 227.4 597.9 226.8 599.5 225.6C603 222.9 603.4 218.8 603.4 213.9V198.9Z" fill="black"/>
<path d="M658.7 233.6H648.9V194C648.9 185.3 648.9 179.4 641.8 179.4C633.7 179.4 633.7 187.6 633.7 194.4V233.7H624V172.9H633.2V178.5C635 176.3 638.8 171.8 646.2 171.8C658.9 171.8 658.9 182.5 658.9 190.9L658.7 233.6Z" fill="black"/>
<path d="M698 233.6V147.8H714.2C722.5 147.8 730.3 147.8 735.4 154.2C739.4 159.2 739.8 163.6 739.8 184.5C739.8 189.1 739.8 194.6 739.6 206.3C739.5 214.6 739.2 220.8 736.2 225.9C731.4 233.6 723.3 233.6 714.1 233.6H698ZM708.8 224H715.7C722.5 224 727.4 223.4 728.6 215.8C729.2 211.8 729.3 199.7 729.3 195.3C729.3 187.4 729.3 184.3 729.2 176.1C729.1 166.8 729 162.1 725.2 159.4C722.5 157.6 720.1 157.6 708.8 157.6V224Z" fill="black"/>
<path d="M760 162H750.4V149.4H760V162ZM760 233.6H750.4V172.7H760V233.6Z" fill="black"/>
<path d="M805.8 172.8V230.5C805.8 238.2 805.8 240.8 804.7 244.2C801.9 252.8 792 254.2 786.8 254.2C779.7 254.2 770.2 251.1 770.2 238.6H779C779.1 241.1 779.4 246.5 787.2 246.5C795.7 246.5 795.7 240 795.7 234.4V227.4C792.4 232.1 788.1 234.1 783.4 234.1C779 234.1 773.4 232.3 771.1 226.1C769.4 221.6 769.4 217.3 769.4 202.2C769.4 191.5 769.5 187.2 770.5 183.2C771 180.9 773.2 171.8 784.5 171.8C792.4 171.8 795.1 176 796.5 178.3V172.9H805.6V172.8H805.8ZM795.8 188.6C795.6 182.8 793.1 178.6 787.6 178.6C779.6 178.6 779.6 187.3 779.6 197C779.6 202.9 779.6 213.9 780 218.2C780.2 222.9 782.2 226.5 787.4 226.5C792 226.5 794.9 223.6 795.7 219.1C796.2 216.3 796.2 207.4 796.2 204C796.2 203.7 795.9 190.3 795.8 188.6Z" fill="black"/>
<path d="M826 162H816.4V149.4H826V162ZM826 233.6H816.4V172.7H826V233.6Z" fill="black"/>
<path d="M858.2 180H849.4V218.7C849.4 222.6 849.8 226.4 855 226.4C856.6 226.4 857.4 226.2 858.4 225.9V233.8C857.1 234.2 855.6 234.5 853.1 234.5C844.6 234.5 841.9 231.6 840.7 228.8C839.5 226 839.5 224.8 839.5 213.6V180H832.2V172.6H839.7V156.3H849.4V172.6H858.2V180Z" fill="black"/>
<path d="M897.9 220.6C897.9 230 898.3 231.5 900.8 233.5H888.8V226.2C887.5 228.9 884.6 234.5 876.2 234.5C873.4 234.5 871 233.9 868.9 232.7C863.2 229.3 862.6 223.5 862.6 218.9C862.6 209.1 866.5 205.9 872.9 201.5C882.1 195.3 883.2 194.7 888.2 189.9C888.2 184.9 888.2 179.2 880.8 179.2C873.5 179.2 873.5 184.3 873.5 187.9C873.5 189.7 873.6 191 873.7 192.4H864.9C864.8 189.9 864.8 183.3 865.7 180.2C868.7 171.4 879.1 171.4 881.8 171.4C886.2 171.4 890.5 172.1 894.1 175.9C897.9 179.8 897.9 183 897.9 191.4V220.4V220.6ZM888.4 198.9C885.6 201.6 885.1 201.9 880.4 205.4C876 208.8 872.8 211.3 872.8 218.4C872.8 221.1 872.8 227.4 879.3 227.4C881.1 227.4 882.9 226.8 884.5 225.6C888 222.9 888.4 218.8 888.4 213.9V198.9Z" fill="black"/>
<path d="M918.5 233.6H908.7V147.8H918.5V233.6Z" fill="black"/>
<path d="M954.8 203.8H965.1C965.1 212.8 965.1 213.8 965.2 215.4C965.3 217.6 966 225.7 975.6 225.7C979 225.7 986.5 224.4 986.5 215C986.5 208.2 983.5 204.7 978.6 199.8L966.9 187.8C958.8 179.5 957.1 174.1 957.1 166.4C957.1 161.7 957.1 146.3 977 146.3C981.4 146.3 988.8 147 992.7 153.3C995.1 157.3 995.1 160.2 995.1 172.9H985.8C985.6 164.8 985.6 163.9 985.3 162.3C985 160.7 984 155.4 976.5 155.4C967.5 155.4 967.5 163.1 967.5 165.7C967.5 172.1 969.8 174.7 975.8 181.2L986.7 192.6C993.7 200.1 997 204.6 997 214.4C997 232.7 982.6 234.9 976.2 234.9C968 234.9 963.5 232.1 961.8 230.7C956.4 226.5 955.1 220 955.1 213.5L954.8 203.8Z" fill="black"/>
<path d="M1038.4 214.7C1038.4 218.8 1038.4 221.8 1037.3 225.1C1033.8 234.7 1024.3 234.7 1021.2 234.7C1017.6 234.7 1009.1 234.2 1005.6 225.4C1004.5 222.5 1004 221.3 1004 196.9C1004 183.9 1005.1 172 1020.8 172C1024.7 172 1035.9 172 1037.8 185.3C1038.3 188.3 1038.3 190 1038.3 205.4H1013.9C1013.9 210.1 1013.8 216.4 1014 218.6C1014.2 220.9 1014.7 227.2 1021.6 227.2C1028.6 227.2 1029.2 221.3 1029.2 215H1038.3L1038.4 214.7ZM1029.3 197.2V189.7C1029.2 186.4 1029.1 179.2 1021.8 179.2C1016.8 179.2 1015.4 182.3 1014.8 184.3C1014.1 186.6 1014.1 188.5 1014.1 197.2H1029.3Z" fill="black"/>
<path d="M1058.1 233.6H1048.1V172.8H1057.4V184.3C1059.6 179.6 1063.3 171.3 1073.8 171.9V182C1069.4 182 1064.1 182 1060.6 187C1058.7 189.9 1057.9 193.3 1057.9 204.6L1058.1 233.6Z" fill="black"/>
<path d="M1102.3 233.6H1091.2L1078.2 172.8H1088.8L1096.8 222.6L1105.6 172.8H1116.1L1102.3 233.6Z" fill="black"/>
<path d="M1131.2 162H1121.6V149.4H1131.2V162ZM1131.2 233.6H1121.6V172.7H1131.2V233.6Z" fill="black"/>
<path d="M1175.4 210.9C1175.4 222 1175.4 234.6 1157.8 234.6C1150.4 234.6 1144.4 231.9 1142.3 225C1141.1 221 1140.8 214.5 1140.8 204.6C1140.8 183 1141.4 171.6 1158.7 171.6C1175.4 171.6 1175.4 182.7 1175.4 194.7H1166.2C1166.2 184.2 1166.2 179 1158.6 179C1151 179 1150.9 184.2 1150.9 201.2C1150.9 203.6 1150.9 212.3 1151 217.5C1151.1 220.6 1151.4 226.8 1158.5 226.8C1165.6 226.8 1166.2 220.9 1166.2 210.7L1175.4 210.9Z" fill="black"/>
<path d="M1218.2 214.7C1218.2 218.8 1218.2 221.8 1217.1 225.1C1213.6 234.7 1204.1 234.7 1201 234.7C1197.4 234.7 1188.9 234.2 1185.4 225.4C1184.3 222.5 1183.8 221.3 1183.8 196.9C1183.8 183.9 1184.9 172 1200.6 172C1204.5 172 1215.7 172 1217.6 185.3C1218.1 188.3 1218.1 190 1218.1 205.4H1193.8C1193.8 210.1 1193.7 216.4 1193.9 218.6C1194.1 220.9 1194.6 227.2 1201.5 227.2C1208.5 227.2 1209.1 221.3 1209.1 215H1218.1L1218.2 214.7ZM1209.1 197.2V189.7C1209 186.4 1208.9 179.2 1201.6 179.2C1196.6 179.2 1195.2 182.3 1194.6 184.3C1193.9 186.6 1193.9 188.5 1193.9 197.2H1209.1Z" fill="black"/>
<path d="M262 3.5H3.5V262H262V3.5Z" fill="black"/>
<path d="M214.1 75.5L213.7 64.1C213.7 63 214.6 63 216.6 63.4L225.8 65.2L224.6 62.2C224.2 61 224.1 60.3 225 59.5L236 50.6L234 49.4C233.4 49 233.4 48.5 233.7 47.5L235.7 40.9L230.5 42C229 42.3 228.6 42 228.3 41.2L226.8 38.2L221.6 44C220.7 45.1 219.4 44.4 219.8 42.8L222.3 30.5L218.5 32.7C217.9 33.1 217.2 33.2 216.9 32.5L212.9 24.3L208.9 32.5C208.5 33.2 207.9 33.1 207.3 32.7L203.5 30.5L206 42.8C206.4 44.4 205.1 45.1 204.2 44L199 38.2L197.5 41.2C197.1 42 196.7 42.4 195.3 42L190.1 40.9L192.1 47.5C192.4 48.5 192.4 49 191.8 49.4L189.8 50.6L200.8 59.5C201.7 60.3 201.6 61.1 201.2 62.2L200 65.2L209.2 63.4C211.2 63 212.1 63 212.1 64.1L211.7 75.5H214.1Z" fill="white"/>
<path d="M265.4 265.4H0V0H265.5V265.4H265.4ZM7 258.4H258.5V7H7V258.4Z" fill="white"/>
<path d="M171 213.6C171 221.2 170.9 223.2 170.4 225.5C169.7 228.8 167.8 234.5 157.6 234.5C149 234.5 145.3 229.4 144.5 224.1C144.3 222.5 143.9 220.1 143.9 205.9C143.9 190.9 144.1 189.2 144.5 186.7C145 184.2 146.4 176 158.1 176C162.7 176 168.6 178 170 184.2C170.6 186.9 170.6 190.3 170.6 194.8H164V190.6C164 186.8 163.9 182.1 158.2 182.1C152.2 182.1 151.7 186.9 151.5 189.1C151 193.2 151 201.8 151 206.2C151 209.6 151.2 221.2 151.5 223.4C151.7 224.4 152.5 228.7 158.1 228.7C163.1 228.7 163.9 224.4 164.1 223.3C164.4 221.9 164.4 220.6 164.4 213.9H171V213.6Z" fill="white"/>
<path d="M176.7 233.7V176.9H187.4C192.9 176.9 198.1 176.9 201.4 181.1C204 184.4 204.3 187.3 204.3 201.1C204.3 204.1 204.3 207.7 204.1 215.5C204 221 203.9 225 201.9 228.5C198.7 233.6 193.4 233.6 187.2 233.6H176.7V233.7ZM183.8 227.4H188.4C192.9 227.4 196.1 227 196.9 222C197.3 219.4 197.4 211.3 197.4 208.4C197.4 203.2 197.4 201.2 197.3 195.7C197.2 189.5 197.1 186.5 194.7 184.6C192.9 183.4 191.3 183.4 183.8 183.4V227.4Z" fill="white"/>
<path d="M208.8 214H215.5C215.5 219.9 215.5 220.6 215.6 221.6C215.7 223 216.2 228.3 222.4 228.3C224.6 228.3 229.5 227.4 229.5 221.3C229.5 216.8 227.5 214.6 224.3 211.2L216.6 203.4C211.2 197.9 210.1 194.4 210.1 189.2C210.1 186.1 210.1 175.9 223.3 175.9C226.2 175.9 231.1 176.4 233.7 180.5C235.3 183.1 235.3 185.1 235.3 193.5H229C228.8 188.1 228.8 187.6 228.7 186.5C228.5 185.5 227.8 181.9 222.9 181.9C217 181.9 217 187 217 188.6C217 192.8 218.5 194.5 222.5 198.9L229.6 206.3C234.2 211.3 236.3 214.1 236.3 220.7C236.3 232.8 226.9 234.3 222.5 234.3C217.1 234.3 214.2 232.5 213.1 231.5C209.5 228.7 208.7 224.5 208.7 220.1L208.8 214Z" fill="white"/>
<path d="M144.4 143.6H151.1C151.1 149.5 151.1 150.2 151.2 151.2C151.3 152.6 151.8 157.9 158 157.9C160.2 157.9 165.1 157 165.1 150.9C165.1 146.4 163.1 144.2 159.9 140.8L152.2 133C146.8 127.5 145.7 124 145.7 118.8C145.7 115.7 145.7 105.5 158.9 105.5C161.8 105.5 166.7 106 169.3 110.1C170.9 112.7 170.9 114.7 170.9 123.1H164.7C164.5 117.7 164.5 117.2 164.4 116.1C164.2 115.1 163.5 111.5 158.6 111.5C152.7 111.5 152.7 116.6 152.7 118.2C152.7 122.4 154.2 124.1 158.2 128.5L165.3 135.9C169.9 140.9 172 143.7 172 150.3C172 162.4 162.6 163.9 158.2 163.9C152.8 163.9 149.9 162.1 148.8 161.1C145.2 158.3 144.4 154.1 144.4 149.7V143.6Z" fill="white"/>
<path d="M203.7 163.2H193.7L182.7 114L183.7 163.2H176.8V106.3H186.4L197.9 156.1L196.9 106.3H203.7V163.2Z" fill="white"/>
<path d="M236.4 143.2C236.4 150.8 236.3 152.8 235.8 155.1C235.1 158.4 233.2 164.1 223 164.1C214.4 164.1 210.7 159 209.9 153.7C209.7 152.1 209.3 149.7 209.3 135.5C209.3 120.5 209.5 118.8 209.9 116.3C210.4 113.8 211.8 105.6 223.5 105.6C228.1 105.6 234 107.6 235.4 113.8C236 116.5 236 119.9 236 124.4H229.4V120.2C229.4 116.4 229.3 111.7 223.6 111.7C217.6 111.7 217.1 116.5 216.9 118.7C216.4 122.8 216.4 131.4 216.4 135.8C216.4 139.2 216.6 150.8 216.9 153C217.1 154 217.9 158.3 223.5 158.3C228.5 158.3 229.3 154 229.5 152.9C229.8 151.5 229.8 150.2 229.8 143.5H236.4V143.2Z" fill="white"/>
</g>
<defs>
<clipPath id="clip0_1_64">
<rect width="1368" height="265.4" fill="white"/>
</clipPath>
</defs>
</svg>
