<?xml version="1.0" encoding="UTF-8"?>
<svg id="Layer_1" data-name="Layer 1" xmlns="http://www.w3.org/2000/svg" viewBox="0 0 273.6 39.6">
  <defs>
    <style>
      .cls-1, .cls-2, .cls-3 {
        stroke-width: 0px;
      }

      .cls-2 {
        fill: #ea2d37;
      }

      .cls-3 {
        fill: #eb2d37;
      }
    </style>
  </defs>
  <g>
    <path class="cls-1" d="M69.72,9.33h4.03c1.61,0,2.6.88,2.6,2.24,0,1.03-.46,1.88-1.49,2.17v.02c1,.19,1.2.92,1.28,1.76.07.84.02,1.77.5,2.36h-1.27c-.32-.35-.14-1.27-.31-2.11-.12-.84-.32-1.55-1.43-1.55h-2.78v3.66h-1.14v-8.56ZM73.23,13.28c1.07,0,1.98-.28,1.98-1.52,0-.84-.46-1.46-1.52-1.46h-2.83v2.99h2.38Z"/>
    <path class="cls-1" d="M83.06,15.93c-.28,1.37-1.26,2.11-2.65,2.11-1.98,0-2.91-1.37-2.97-3.26,0-1.86,1.22-3.23,2.91-3.23,2.19,0,2.87,2.05,2.81,3.55h-4.64c-.04,1.08.58,2.04,1.93,2.04.84,0,1.43-.41,1.61-1.21h1.01ZM82.08,14.2c-.05-.97-.78-1.75-1.79-1.75-1.07,0-1.7.8-1.78,1.75h3.56ZM80.53,9.13h1.31l-1.57,1.72h-.77l1.03-1.72Z"/>
    <path class="cls-1" d="M89.56,17.37c0,2.02-.92,3.05-2.88,3.05-1.16,0-2.51-.47-2.57-1.82h1.02c.05.74.94,1.01,1.61,1.01,1.33,0,1.86-.96,1.86-2.35v-.41h-.02c-.34.76-1.15,1.13-1.93,1.13-1.85,0-2.77-1.45-2.77-3.14,0-1.46.72-3.27,2.87-3.27.78,0,1.47.35,1.85,1.03h.01v-.89h.96v5.67ZM88.56,14.67c0-1.09-.48-2.22-1.76-2.22s-1.84,1.07-1.84,2.26c0,1.11.41,2.36,1.75,2.36s1.85-1.24,1.85-2.4"/>
    <path class="cls-1" d="M92.18,10.58h-1.02v-1.25h1.02v1.25ZM91.16,11.69h1.02v6.2h-1.02v-6.2Z"/>
    <path class="cls-1" d="M99.06,15.93c-.28,1.37-1.26,2.11-2.65,2.11-1.98,0-2.91-1.37-2.97-3.26,0-1.86,1.22-3.23,2.92-3.23,2.19,0,2.87,2.05,2.81,3.55h-4.64c-.04,1.08.58,2.04,1.93,2.04.84,0,1.43-.41,1.61-1.21h1.01ZM98.07,14.2c-.05-.97-.78-1.75-1.79-1.75-1.07,0-1.7.8-1.78,1.75h3.56Z"/>
    <path class="cls-1" d="M109.09,17.89h-1.02v-.84h-.02c-.34.68-1.13.98-1.98.98-1.91,0-2.85-1.51-2.85-3.26s.94-3.23,2.83-3.23c.64,0,1.55.24,2,.97h.02v-3.19h1.02v8.56ZM106.21,17.14c1.37,0,1.89-1.18,1.89-2.34,0-1.22-.55-2.35-1.96-2.35s-1.86,1.19-1.86,2.4.6,2.29,1.92,2.29"/>
    <path class="cls-1" d="M115.95,15.93c-.28,1.37-1.26,2.11-2.65,2.11-1.98,0-2.91-1.37-2.97-3.26,0-1.86,1.22-3.23,2.92-3.23,2.19,0,2.87,2.05,2.81,3.55h-4.64c-.04,1.08.58,2.04,1.93,2.04.84,0,1.43-.41,1.61-1.21h1.01ZM114.97,14.2c-.05-.97-.78-1.75-1.79-1.75-1.07,0-1.7.8-1.78,1.75h3.56Z"/>
    <rect class="cls-1" x="120.5" y="9.33" width="1.02" height="8.56"/>
    <path class="cls-1" d="M123.33,9.33h1.33v1.33c0,.95-.39,1.76-1.32,1.76v-.6c.54,0,.7-.61.7-1.16h-.71v-1.33Z"/>
    <path class="cls-1" d="M131.73,15.93c-.28,1.37-1.26,2.11-2.65,2.11-1.98,0-2.92-1.37-2.97-3.26,0-1.86,1.22-3.23,2.91-3.23,2.2,0,2.87,2.05,2.81,3.55h-4.64c-.04,1.08.58,2.04,1.93,2.04.84,0,1.43-.41,1.61-1.21h1.01ZM130.75,14.2c-.05-.97-.78-1.75-1.79-1.75-1.07,0-1.7.8-1.77,1.75h3.56ZM129.2,9.13h1.31l-1.57,1.72h-.77l1.03-1.72Z"/>
    <path class="cls-1" d="M132.88,11.69h.96v.98h.02c.43-.77,1.13-1.13,2.01-1.13,1.63,0,2.13.94,2.13,2.27v4.08h-1.02v-4.2c0-.75-.48-1.25-1.26-1.25-1.24,0-1.83.83-1.83,1.94v3.5h-1.02v-6.2Z"/>
    <path class="cls-1" d="M144.85,15.93c-.28,1.37-1.26,2.11-2.65,2.11-1.98,0-2.91-1.37-2.97-3.26,0-1.86,1.22-3.23,2.91-3.23,2.2,0,2.87,2.05,2.81,3.55h-4.64c-.04,1.08.58,2.04,1.93,2.04.84,0,1.43-.41,1.61-1.21h1.01ZM143.86,14.2c-.05-.97-.78-1.75-1.79-1.75-1.07,0-1.7.8-1.78,1.75h3.56Z"/>
    <path class="cls-1" d="M145.97,11.69h.96v1.31h.02c.49-1,1.18-1.49,2.28-1.45v1.08c-1.64,0-2.24.93-2.24,2.51v2.76h-1.02v-6.2Z"/>
    <path class="cls-1" d="M155.01,17.37c0,2.02-.92,3.05-2.88,3.05-1.16,0-2.51-.47-2.57-1.82h1.02c.05.74.94,1.01,1.61,1.01,1.33,0,1.86-.96,1.86-2.35v-.41h-.02c-.34.76-1.15,1.13-1.93,1.13-1.85,0-2.77-1.45-2.77-3.14,0-1.46.72-3.27,2.87-3.27.78,0,1.48.35,1.85,1.03h.01v-.89h.96v5.67ZM154,14.67c0-1.09-.48-2.22-1.76-2.22s-1.84,1.07-1.84,2.26c0,1.11.41,2.36,1.75,2.36s1.85-1.24,1.85-2.4"/>
    <path class="cls-1" d="M157.63,10.58h-1.02v-1.25h1.02v1.25ZM156.61,11.69h1.02v6.2h-1.02v-6.2Z"/>
    <path class="cls-1" d="M164.5,15.93c-.27,1.37-1.26,2.11-2.65,2.11-1.98,0-2.91-1.37-2.98-3.26,0-1.86,1.22-3.23,2.91-3.23,2.2,0,2.87,2.05,2.81,3.55h-4.64c-.04,1.08.58,2.04,1.93,2.04.84,0,1.43-.41,1.61-1.21h1.01ZM163.52,14.2c-.05-.97-.78-1.75-1.79-1.75-1.07,0-1.7.8-1.78,1.75h3.56Z"/>
    <path class="cls-1" d="M75.09,30.24h-1.02v-.84h-.02c-.34.68-1.13.98-1.98.98-1.91,0-2.85-1.51-2.85-3.26s.94-3.23,2.83-3.23c.64,0,1.55.24,2,.97h.02v-3.19h1.02v8.56ZM72.21,29.49c1.37,0,1.89-1.18,1.89-2.34,0-1.22-.55-2.35-1.95-2.35s-1.86,1.19-1.86,2.4.6,2.29,1.92,2.29"/>
    <path class="cls-1" d="M81.8,30.24h-.96v-.98h-.02c-.43.77-1.13,1.13-2.02,1.13-1.63,0-2.13-.94-2.13-2.27v-4.08h1.02v4.2c0,.76.48,1.25,1.26,1.25,1.24,0,1.83-.83,1.83-1.94v-3.5h1.02v6.2Z"/>
    <path class="cls-1" d="M92.86,24.26c-.24-1.21-1.21-1.82-2.4-1.82-2.04,0-2.9,1.68-2.9,3.47,0,1.95.86,3.59,2.91,3.59,1.5,0,2.36-1.06,2.47-2.47h1.14c-.22,2.14-1.55,3.43-3.71,3.43-2.66,0-3.96-1.97-3.96-4.46s1.42-4.51,4.05-4.51c1.79,0,3.26.96,3.53,2.78h-1.14Z"/>
    <path class="cls-1" d="M100.83,30.22c-.18.11-.41.17-.73.17-.53,0-.86-.29-.86-.96-.56.66-1.32.96-2.18.96-1.13,0-2.05-.5-2.05-1.74,0-1.4,1.04-1.7,2.1-1.91,1.13-.22,2.09-.14,2.09-.91,0-.89-.73-1.03-1.38-1.03-.86,0-1.5.26-1.55,1.18h-1.02c.06-1.54,1.25-2.08,2.63-2.08,1.12,0,2.33.25,2.33,1.7v3.19c0,.48,0,.69.32.69.08,0,.18-.01.31-.06v.79ZM99.18,27.04c-.4.29-1.16.3-1.85.42-.67.12-1.25.36-1.25,1.12,0,.67.57.91,1.2.91,1.34,0,1.9-.84,1.9-1.4v-1.04Z"/>
    <path class="cls-1" d="M101.78,24.04h.96v.98h.02c.43-.77,1.13-1.13,2.02-1.13,1.63,0,2.13.94,2.13,2.27v4.08h-1.02v-4.2c0-.76-.48-1.25-1.26-1.25-1.24,0-1.83.83-1.83,1.94v3.5h-1.02v-6.2Z"/>
    <path class="cls-1" d="M113.95,30.22c-.18.11-.41.17-.73.17-.53,0-.86-.29-.86-.96-.56.66-1.32.96-2.18.96-1.13,0-2.05-.5-2.05-1.74,0-1.4,1.04-1.7,2.1-1.91,1.13-.22,2.09-.14,2.09-.91,0-.89-.73-1.03-1.38-1.03-.86,0-1.5.26-1.55,1.18h-1.02c.06-1.54,1.25-2.08,2.63-2.08,1.12,0,2.33.25,2.33,1.7v3.19c0,.48,0,.69.32.69.08,0,.18-.01.31-.06v.79ZM112.29,27.04c-.4.29-1.16.3-1.85.42-.67.12-1.25.36-1.25,1.12,0,.67.57.91,1.2.91,1.34,0,1.9-.84,1.9-1.4v-1.04Z"/>
    <path class="cls-1" d="M120.44,30.24h-1.02v-.84h-.02c-.34.68-1.13.98-1.98.98-1.91,0-2.85-1.51-2.85-3.26s.94-3.23,2.83-3.23c.64,0,1.55.24,2,.97h.02v-3.19h1.02v8.56ZM117.56,29.49c1.37,0,1.89-1.18,1.89-2.34,0-1.22-.55-2.35-1.96-2.35s-1.86,1.19-1.86,2.4.6,2.29,1.92,2.29"/>
    <path class="cls-1" d="M127.51,30.22c-.18.11-.41.17-.73.17-.53,0-.86-.29-.86-.96-.56.66-1.32.96-2.18.96-1.13,0-2.05-.5-2.05-1.74,0-1.4,1.04-1.7,2.1-1.91,1.13-.22,2.09-.14,2.09-.91,0-.89-.73-1.03-1.38-1.03-.86,0-1.5.26-1.55,1.18h-1.02c.06-1.54,1.25-2.08,2.63-2.08,1.12,0,2.33.25,2.33,1.7v3.19c0,.48,0,.69.32.69.08,0,.18-.01.31-.06v.79ZM125.85,27.04c-.4.29-1.16.3-1.85.42-.67.12-1.25.36-1.25,1.12,0,.67.57.91,1.2.91,1.34,0,1.9-.84,1.9-1.4v-1.04Z"/>
    <path class="cls-1" d="M189.42,11.91c-.24-1.21-1.21-1.82-2.4-1.82-2.04,0-2.9,1.68-2.9,3.47,0,1.95.86,3.59,2.91,3.59,1.5,0,2.36-1.06,2.47-2.47h1.14c-.22,2.14-1.55,3.43-3.71,3.43-2.66,0-3.96-1.97-3.96-4.46s1.41-4.51,4.05-4.51c1.79,0,3.26.96,3.53,2.78h-1.14Z"/>
    <path class="cls-1" d="M197.39,17.87c-.18.11-.41.17-.73.17-.53,0-.86-.29-.86-.96-.56.66-1.32.96-2.18.96-1.13,0-2.05-.5-2.05-1.74,0-1.4,1.04-1.7,2.1-1.91,1.13-.22,2.09-.14,2.09-.91,0-.89-.73-1.03-1.38-1.03-.86,0-1.5.26-1.55,1.18h-1.02c.06-1.54,1.25-2.08,2.63-2.08,1.12,0,2.33.25,2.33,1.7v3.19c0,.48,0,.7.32.7.08,0,.18-.01.31-.06v.79ZM195.73,14.69c-.4.29-1.16.3-1.85.42-.67.12-1.25.36-1.25,1.12,0,.67.58.91,1.2.91,1.34,0,1.9-.84,1.9-1.4v-1.04Z"/>
    <path class="cls-1" d="M198.34,11.69h.96v.98h.02c.43-.77,1.13-1.13,2.01-1.13,1.63,0,2.14.94,2.14,2.27v4.08h-1.02v-4.2c0-.75-.48-1.25-1.26-1.25-1.24,0-1.83.83-1.83,1.94v3.5h-1.02v-6.2Z"/>
    <path class="cls-1" d="M210.5,17.87c-.18.11-.41.17-.73.17-.53,0-.86-.29-.86-.96-.56.66-1.32.96-2.18.96-1.13,0-2.05-.5-2.05-1.74,0-1.4,1.04-1.7,2.1-1.91,1.13-.22,2.09-.14,2.09-.91,0-.89-.73-1.03-1.38-1.03-.86,0-1.5.26-1.55,1.18h-1.02c.06-1.54,1.25-2.08,2.63-2.08,1.12,0,2.33.25,2.33,1.7v3.19c0,.48,0,.7.32.7.08,0,.18-.01.31-.06v.79ZM208.85,14.69c-.4.29-1.16.3-1.85.42-.67.12-1.25.36-1.25,1.12,0,.67.58.91,1.2.91,1.34,0,1.9-.84,1.9-1.4v-1.04Z"/>
    <path class="cls-1" d="M217,17.89h-1.02v-.84h-.02c-.33.68-1.13.98-1.98.98-1.91,0-2.85-1.51-2.85-3.26s.93-3.23,2.83-3.23c.64,0,1.55.24,2,.97h.02v-3.19h1.02v8.56ZM214.12,17.14c1.37,0,1.9-1.18,1.9-2.34,0-1.22-.55-2.35-1.96-2.35s-1.86,1.19-1.86,2.4.6,2.29,1.92,2.29"/>
    <path class="cls-1" d="M224.06,17.87c-.18.11-.41.17-.73.17-.53,0-.86-.29-.86-.96-.56.66-1.32.96-2.18.96-1.13,0-2.05-.5-2.05-1.74,0-1.4,1.04-1.7,2.1-1.91,1.13-.22,2.09-.14,2.09-.91,0-.89-.73-1.03-1.38-1.03-.86,0-1.5.26-1.55,1.18h-1.02c.06-1.54,1.25-2.08,2.63-2.08,1.12,0,2.33.25,2.33,1.7v3.19c0,.48,0,.7.32.7.08,0,.18-.01.31-.06v.79ZM222.41,14.69c-.4.29-1.16.3-1.85.42-.67.12-1.25.36-1.25,1.12,0,.67.58.91,1.2.91,1.34,0,1.9-.84,1.9-1.4v-1.04Z"/>
    <polygon class="cls-1" points="228.52 9.33 234.43 9.33 234.43 10.29 229.66 10.29 229.66 13.01 234.11 13.01 234.11 13.97 229.66 13.97 229.66 16.93 234.47 16.93 234.47 17.89 228.52 17.89 228.52 9.33"/>
    <path class="cls-1" d="M235.68,11.69h.96v.98h.02c.43-.77,1.13-1.13,2.01-1.13,1.63,0,2.14.94,2.14,2.27v4.08h-1.02v-4.2c0-.75-.48-1.25-1.26-1.25-1.24,0-1.83.83-1.83,1.94v3.5h-1.02v-6.2Z"/>
    <path class="cls-1" d="M247.64,15.93c-.27,1.37-1.26,2.11-2.65,2.11-1.98,0-2.91-1.37-2.98-3.26,0-1.86,1.22-3.23,2.91-3.23,2.2,0,2.87,2.05,2.81,3.55h-4.64c-.04,1.08.58,2.04,1.93,2.04.84,0,1.43-.41,1.61-1.21h1.01ZM246.66,14.2c-.05-.97-.78-1.75-1.79-1.75-1.07,0-1.7.8-1.78,1.75h3.56Z"/>
    <path class="cls-1" d="M248.76,11.69h.96v1.31h.02c.49-1,1.18-1.49,2.28-1.45v1.08c-1.64,0-2.24.93-2.24,2.51v2.76h-1.02v-6.2Z"/>
    <path class="cls-1" d="M257.81,17.36c0,2.02-.92,3.05-2.88,3.05-1.16,0-2.51-.47-2.57-1.82h1.02c.05.74.94,1.01,1.61,1.01,1.33,0,1.86-.96,1.86-2.35v-.41h-.02c-.34.76-1.15,1.13-1.93,1.13-1.85,0-2.77-1.45-2.77-3.14,0-1.46.72-3.27,2.87-3.27.78,0,1.48.35,1.85,1.03h.01v-.89h.96v5.67ZM256.8,14.67c0-1.09-.48-2.22-1.76-2.22s-1.84,1.07-1.84,2.26c0,1.11.41,2.36,1.75,2.36s1.85-1.24,1.85-2.4"/>
    <path class="cls-1" d="M261.78,18.72c-.47,1.21-.89,1.66-1.8,1.66-.24,0-.48-.02-.71-.11v-.94c.19.06.4.14.6.14.42,0,.65-.2.84-.56l.42-1.06-2.46-6.16h1.15l1.81,5.07h.02l1.74-5.07h1.08l-2.7,7.03Z"/>
    <path class="cls-1" d="M183.4,21.68h4.03c1.61,0,2.6.88,2.6,2.24,0,1.03-.46,1.88-1.49,2.17v.03c1,.19,1.2.92,1.28,1.76.07.84.02,1.77.5,2.36h-1.27c-.32-.35-.14-1.27-.31-2.11-.12-.84-.32-1.55-1.43-1.55h-2.78v3.66h-1.14v-8.56ZM186.91,25.63c1.07,0,1.98-.27,1.98-1.52,0-.84-.46-1.46-1.52-1.46h-2.83v2.99h2.37Z"/>
    <path class="cls-1" d="M196.74,28.28c-.27,1.37-1.26,2.11-2.65,2.11-1.98,0-2.91-1.37-2.98-3.26,0-1.86,1.22-3.23,2.91-3.23,2.2,0,2.87,2.05,2.81,3.55h-4.64c-.04,1.08.58,2.04,1.93,2.04.84,0,1.43-.41,1.61-1.21h1.01ZM195.76,26.55c-.05-.97-.78-1.75-1.79-1.75-1.07,0-1.7.8-1.78,1.75h3.56Z"/>
    <path class="cls-1" d="M203.24,29.71c0,2.02-.92,3.05-2.88,3.05-1.16,0-2.51-.47-2.57-1.82h1.02c.05.74.94,1.01,1.61,1.01,1.33,0,1.86-.96,1.86-2.35v-.41h-.02c-.34.76-1.15,1.13-1.93,1.13-1.85,0-2.77-1.45-2.77-3.14,0-1.46.72-3.27,2.87-3.27.78,0,1.48.35,1.85,1.03h.01v-.89h.96v5.67ZM202.24,27.02c0-1.09-.48-2.22-1.76-2.22s-1.84,1.07-1.84,2.26c0,1.12.41,2.36,1.75,2.36s1.85-1.23,1.85-2.4"/>
    <path class="cls-1" d="M209.91,30.24h-.96v-.98h-.02c-.43.77-1.13,1.13-2.01,1.13-1.63,0-2.14-.94-2.14-2.27v-4.08h1.02v4.2c0,.76.48,1.25,1.26,1.25,1.24,0,1.83-.83,1.83-1.94v-3.5h1.02v6.2Z"/>
    <rect class="cls-1" x="211.51" y="21.68" width="1.02" height="8.56"/>
    <path class="cls-1" d="M219.61,30.22c-.18.11-.41.17-.73.17-.53,0-.86-.29-.86-.96-.56.66-1.32.96-2.18.96-1.13,0-2.05-.5-2.05-1.74,0-1.4,1.04-1.7,2.1-1.91,1.13-.22,2.09-.14,2.09-.91,0-.89-.73-1.03-1.38-1.03-.86,0-1.5.26-1.55,1.18h-1.02c.06-1.54,1.25-2.08,2.63-2.08,1.12,0,2.33.25,2.33,1.7v3.19c0,.48,0,.69.32.69.08,0,.18-.01.31-.06v.79ZM217.96,27.04c-.4.29-1.16.3-1.85.42-.67.12-1.25.36-1.25,1.12,0,.67.58.91,1.2.91,1.34,0,1.9-.84,1.9-1.4v-1.04Z"/>
    <path class="cls-1" d="M221.98,24.04h1.23v.9h-1.23v3.85c0,.47.13.55.77.55h.47v.9h-.78c-1.06,0-1.48-.22-1.48-1.36v-3.95h-1.05v-.9h1.05v-1.86h1.02v1.86Z"/>
    <path class="cls-1" d="M227.02,23.9c1.97,0,3.01,1.43,3.01,3.25s-1.04,3.24-3.01,3.24-3.01-1.43-3.01-3.24,1.04-3.25,3.01-3.25M227.02,29.49c1.07,0,1.93-.84,1.93-2.34s-.86-2.35-1.93-2.35-1.93.84-1.93,2.35.87,2.34,1.93,2.34"/>
    <path class="cls-1" d="M231.19,24.04h.96v1.31h.02c.49-1,1.18-1.49,2.28-1.45v1.08c-1.64,0-2.24.93-2.24,2.51v2.76h-1.02v-6.2Z"/>
  </g>
  <g>
    <path class="cls-3" d="M26.05,23.22s-3.78-3.27-3.78-3.27l.58-.29c.09-.04.15-.09.19-.14.13-.16.09-.36.06-.52-.02-.05-.65-2.25-.65-2.25,0,0,1.79.38,1.9.4.04,0,.07.01.1.01.03,0,.08,0,.08,0,.15-.03.23-.14.29-.29.02-.05.46-1.1.46-1.1,0,0,1.92,2.11,1.93,2.12.14.12.27.16.38.15.02,0,.04-.01.06-.02.15-.06.24-.22.2-.43-.03-.19-.97-4.52-.97-4.52,0,0,1,.6,1.34.79.16.1.29.14.39.12.11-.02.19-.11.28-.27.05-.09,1.41-2.78,1.41-2.78,0,0,1.36,2.69,1.41,2.78.09.16.17.25.28.27.11.02.23-.02.39-.12.33-.19,1.34-.79,1.34-.79,0,0-.94,4.32-.97,4.52-.04.21.06.38.2.43.02,0,.04.02.06.02.11.02.24-.02.38-.15.01,0,1.93-2.12,1.93-2.12,0,0,.44,1.05.46,1.1.06.15.13.26.29.29,0,0,.05,0,.08,0,.03,0,.07,0,.1-.01.11-.01,1.9-.4,1.9-.4,0,0-.63,2.2-.65,2.25-.04.15-.08.36.05.52.04.05.1.1.19.14l.58.29s-3.74,3.24-3.78,3.27c-.11.1-.2.26-.08.65.03.09.43,1.24.43,1.24,0,0-3.59-.73-3.65-.75-.09-.02-.17-.03-.25-.02-.23.02-.4.15-.4.41,0,.36.14,3.88.14,3.88h-.91s.14-3.53.14-3.88c0-.26-.16-.39-.39-.41-.08,0-.16,0-.25.02-.06.01-3.65.75-3.65.75,0,0,.4-1.15.43-1.24.13-.4.03-.55-.08-.65"/>
    <rect class="cls-3" x="9.38" y="9.32" width="10.46" height="20.92"/>
    <rect class="cls-2" x="40.76" y="9.32" width="10.46" height="20.92"/>
    <rect class="cls-3" x="40.76" y="9.32" width="10.46" height="20.92"/>
  </g>
</svg>