<?xml version="1.0" encoding="UTF-8"?>
<svg id="Layer_1" data-name="Layer 1" xmlns="http://www.w3.org/2000/svg" viewBox="0 0 273.68 39.57">
  <defs>
    <style>
      .cls-1, .cls-2, .cls-3 {
        stroke-width: 0px;
      }

      .cls-2 {
        fill: #ea2b37;
      }

      .cls-3 {
        fill: #eb2d37;
      }
    </style>
  </defs>
  <g>
    <path class="cls-1" d="M169.31,9.29h4.03c1.61,0,2.6.88,2.6,2.24,0,1.03-.46,1.88-1.49,2.17v.02c1,.19,1.2.92,1.28,1.76.07.84.02,1.77.5,2.36h-1.27c-.32-.35-.14-1.27-.31-2.11-.12-.84-.32-1.55-1.43-1.55h-2.78v3.66h-1.14v-8.56ZM172.82,13.24c1.07,0,1.98-.28,1.98-1.52,0-.84-.46-1.46-1.52-1.46h-2.83v2.99h2.38Z"/>
    <path class="cls-1" d="M182.65,15.89c-.28,1.37-1.26,2.11-2.65,2.11-1.98,0-2.91-1.37-2.97-3.26,0-1.86,1.22-3.23,2.91-3.23,2.2,0,2.87,2.05,2.81,3.55h-4.64c-.04,1.08.58,2.04,1.93,2.04.84,0,1.43-.41,1.61-1.21h1.01ZM181.67,14.16c-.05-.97-.78-1.75-1.79-1.75-1.07,0-1.7.8-1.78,1.75h3.56ZM180.12,9.09h1.31l-1.57,1.72h-.77l1.03-1.72Z"/>
    <path class="cls-1" d="M189.16,17.32c0,2.02-.92,3.05-2.88,3.05-1.16,0-2.51-.47-2.57-1.82h1.02c.05.74.94,1.01,1.61,1.01,1.33,0,1.86-.96,1.86-2.35v-.41h-.02c-.34.76-1.15,1.13-1.93,1.13-1.85,0-2.77-1.45-2.77-3.14,0-1.46.72-3.27,2.87-3.27.78,0,1.48.35,1.85,1.03h.01v-.89h.96v5.67ZM188.15,14.63c0-1.09-.48-2.22-1.76-2.22s-1.84,1.07-1.84,2.26c0,1.11.41,2.36,1.75,2.36s1.85-1.24,1.85-2.4"/>
    <path class="cls-1" d="M191.77,10.54h-1.02v-1.25h1.02v1.25ZM190.75,11.65h1.02v6.2h-1.02v-6.2Z"/>
    <path class="cls-1" d="M198.65,15.89c-.27,1.37-1.26,2.11-2.65,2.11-1.98,0-2.91-1.37-2.98-3.26,0-1.86,1.22-3.23,2.92-3.23,2.19,0,2.87,2.05,2.81,3.55h-4.64c-.04,1.08.58,2.04,1.93,2.04.84,0,1.43-.41,1.61-1.21h1.01ZM197.66,14.16c-.05-.97-.78-1.75-1.79-1.75-1.07,0-1.7.8-1.78,1.75h3.56Z"/>
    <path class="cls-1" d="M208.68,17.85h-1.02v-.84h-.02c-.34.68-1.13.98-1.98.98-1.91,0-2.85-1.51-2.85-3.26s.93-3.23,2.83-3.23c.64,0,1.55.24,2,.97h.02v-3.19h1.02v8.56ZM205.8,17.1c1.37,0,1.9-1.18,1.9-2.34,0-1.22-.55-2.35-1.96-2.35s-1.86,1.19-1.86,2.4.6,2.29,1.92,2.29"/>
    <path class="cls-1" d="M215.54,15.89c-.27,1.37-1.26,2.11-2.65,2.11-1.98,0-2.91-1.37-2.98-3.26,0-1.86,1.22-3.23,2.92-3.23,2.19,0,2.87,2.05,2.81,3.55h-4.64c-.04,1.08.58,2.04,1.93,2.04.84,0,1.43-.41,1.61-1.21h1.01ZM214.56,14.16c-.05-.97-.78-1.75-1.79-1.75-1.07,0-1.7.8-1.78,1.75h3.56Z"/>
    <rect class="cls-1" x="220.09" y="9.29" width="1.02" height="8.56"/>
    <path class="cls-1" d="M222.92,9.29h1.33v1.33c0,.95-.4,1.76-1.32,1.76v-.6c.54,0,.69-.61.69-1.16h-.71v-1.33Z"/>
    <path class="cls-1" d="M231.32,15.89c-.28,1.37-1.26,2.11-2.65,2.11-1.98,0-2.91-1.37-2.97-3.26,0-1.86,1.22-3.23,2.91-3.23,2.2,0,2.87,2.05,2.81,3.55h-4.64c-.04,1.08.58,2.04,1.93,2.04.84,0,1.43-.41,1.61-1.21h1.01ZM230.34,14.16c-.05-.97-.78-1.75-1.79-1.75-1.07,0-1.7.8-1.78,1.75h3.56ZM228.79,9.09h1.31l-1.57,1.72h-.77l1.03-1.72Z"/>
    <path class="cls-1" d="M232.48,11.65h.96v.98h.02c.43-.77,1.13-1.13,2.01-1.13,1.63,0,2.14.94,2.14,2.27v4.08h-1.02v-4.2c0-.75-.48-1.25-1.26-1.25-1.24,0-1.83.83-1.83,1.94v3.5h-1.02v-6.2Z"/>
    <path class="cls-1" d="M244.44,15.89c-.28,1.37-1.26,2.11-2.65,2.11-1.98,0-2.91-1.37-2.98-3.26,0-1.86,1.22-3.23,2.91-3.23,2.2,0,2.87,2.05,2.81,3.55h-4.64c-.04,1.08.58,2.04,1.93,2.04.84,0,1.43-.41,1.61-1.21h1.01ZM243.45,14.16c-.05-.97-.78-1.75-1.79-1.75-1.07,0-1.7.8-1.78,1.75h3.56Z"/>
    <path class="cls-1" d="M245.56,11.65h.96v1.31h.02c.49-1,1.18-1.49,2.28-1.45v1.08c-1.64,0-2.24.93-2.24,2.51v2.76h-1.02v-6.2Z"/>
    <path class="cls-1" d="M254.6,17.32c0,2.02-.92,3.05-2.88,3.05-1.16,0-2.51-.47-2.57-1.82h1.02c.05.74.94,1.01,1.61,1.01,1.33,0,1.86-.96,1.86-2.35v-.41h-.02c-.34.76-1.15,1.13-1.93,1.13-1.85,0-2.77-1.45-2.77-3.14,0-1.46.72-3.27,2.87-3.27.78,0,1.47.35,1.85,1.03h.01v-.89h.96v5.67ZM253.59,14.63c0-1.09-.48-2.22-1.76-2.22s-1.84,1.07-1.84,2.26c0,1.11.41,2.36,1.75,2.36s1.85-1.24,1.85-2.4"/>
    <path class="cls-1" d="M257.22,10.54h-1.02v-1.25h1.02v1.25ZM256.2,11.65h1.02v6.2h-1.02v-6.2Z"/>
    <path class="cls-1" d="M264.09,15.89c-.27,1.37-1.26,2.11-2.65,2.11-1.98,0-2.91-1.37-2.98-3.26,0-1.86,1.22-3.23,2.92-3.23,2.19,0,2.87,2.05,2.81,3.55h-4.64c-.04,1.08.58,2.04,1.93,2.04.84,0,1.43-.41,1.61-1.21h1.01ZM263.11,14.16c-.05-.97-.78-1.75-1.79-1.75-1.07,0-1.7.8-1.78,1.75h3.56Z"/>
    <path class="cls-1" d="M174.68,30.2h-1.02v-.84h-.02c-.34.68-1.13.98-1.98.98-1.91,0-2.85-1.51-2.85-3.26s.93-3.23,2.83-3.23c.64,0,1.55.24,2,.97h.02v-3.19h1.02v8.56ZM171.8,29.45c1.37,0,1.9-1.18,1.9-2.34,0-1.22-.55-2.35-1.96-2.35s-1.86,1.19-1.86,2.4.6,2.29,1.92,2.29"/>
    <path class="cls-1" d="M181.39,30.2h-.96v-.98h-.02c-.43.77-1.13,1.13-2.02,1.13-1.63,0-2.13-.94-2.13-2.27v-4.08h1.02v4.2c0,.76.48,1.25,1.26,1.25,1.24,0,1.83-.83,1.83-1.94v-3.5h1.02v6.2Z"/>
    <path class="cls-1" d="M192.45,24.22c-.24-1.21-1.21-1.82-2.4-1.82-2.04,0-2.9,1.68-2.9,3.47,0,1.95.86,3.59,2.91,3.59,1.5,0,2.36-1.06,2.47-2.47h1.14c-.22,2.14-1.55,3.43-3.71,3.43-2.66,0-3.96-1.97-3.96-4.46s1.42-4.51,4.05-4.51c1.79,0,3.26.96,3.53,2.78h-1.14Z"/>
    <path class="cls-1" d="M200.42,30.18c-.18.11-.41.17-.73.17-.53,0-.86-.29-.86-.96-.57.66-1.32.96-2.18.96-1.13,0-2.05-.5-2.05-1.74,0-1.4,1.04-1.7,2.1-1.91,1.13-.22,2.09-.14,2.09-.91,0-.89-.73-1.03-1.38-1.03-.86,0-1.5.26-1.55,1.18h-1.02c.06-1.54,1.25-2.08,2.63-2.08,1.12,0,2.33.25,2.33,1.7v3.19c0,.48,0,.69.32.69.08,0,.18-.01.31-.06v.79ZM198.77,27c-.4.29-1.16.3-1.85.42-.67.12-1.25.36-1.25,1.12,0,.67.57.91,1.2.91,1.34,0,1.9-.84,1.9-1.4v-1.04Z"/>
    <path class="cls-1" d="M201.37,24h.96v.98h.02c.43-.77,1.13-1.13,2.01-1.13,1.63,0,2.14.94,2.14,2.27v4.08h-1.02v-4.2c0-.76-.48-1.25-1.26-1.25-1.24,0-1.83.83-1.83,1.94v3.5h-1.02v-6.2Z"/>
    <path class="cls-1" d="M213.54,30.18c-.18.11-.41.17-.73.17-.53,0-.86-.29-.86-.96-.56.66-1.32.96-2.18.96-1.13,0-2.05-.5-2.05-1.74,0-1.4,1.04-1.7,2.1-1.91,1.13-.22,2.09-.14,2.09-.91,0-.89-.73-1.03-1.38-1.03-.86,0-1.5.26-1.55,1.18h-1.02c.06-1.54,1.25-2.08,2.63-2.08,1.12,0,2.33.25,2.33,1.7v3.19c0,.48,0,.69.32.69.08,0,.18-.01.31-.06v.79ZM211.88,27c-.4.29-1.16.3-1.85.42-.67.12-1.25.36-1.25,1.12,0,.67.58.91,1.2.91,1.34,0,1.9-.84,1.9-1.4v-1.04Z"/>
    <path class="cls-1" d="M220.03,30.2h-1.02v-.84h-.02c-.34.68-1.13.98-1.98.98-1.91,0-2.85-1.51-2.85-3.26s.94-3.23,2.83-3.23c.64,0,1.55.24,2,.97h.02v-3.19h1.02v8.56ZM217.15,29.45c1.37,0,1.89-1.18,1.89-2.34,0-1.22-.55-2.35-1.96-2.35s-1.86,1.19-1.86,2.4.6,2.29,1.92,2.29"/>
    <path class="cls-1" d="M227.1,30.18c-.18.11-.41.17-.73.17-.53,0-.86-.29-.86-.96-.56.66-1.32.96-2.18.96-1.13,0-2.05-.5-2.05-1.74,0-1.4,1.04-1.7,2.1-1.91,1.13-.22,2.09-.14,2.09-.91,0-.89-.73-1.03-1.38-1.03-.86,0-1.5.26-1.55,1.18h-1.02c.06-1.54,1.25-2.08,2.63-2.08,1.12,0,2.33.25,2.33,1.7v3.19c0,.48,0,.69.32.69.08,0,.18-.01.31-.06v.79ZM225.44,27c-.4.29-1.16.3-1.85.42-.67.12-1.25.36-1.25,1.12,0,.67.58.91,1.2.91,1.34,0,1.9-.84,1.9-1.4v-1.04Z"/>
    <path class="cls-1" d="M75.63,11.87c-.24-1.21-1.21-1.82-2.4-1.82-2.04,0-2.9,1.68-2.9,3.47,0,1.95.86,3.59,2.91,3.59,1.5,0,2.36-1.06,2.47-2.47h1.14c-.22,2.14-1.55,3.43-3.71,3.43-2.66,0-3.96-1.97-3.96-4.46s1.42-4.51,4.05-4.51c1.79,0,3.26.96,3.53,2.78h-1.14Z"/>
    <path class="cls-1" d="M83.6,17.83c-.18.11-.41.17-.73.17-.53,0-.86-.29-.86-.96-.56.66-1.32.96-2.18.96-1.13,0-2.05-.5-2.05-1.74,0-1.4,1.04-1.7,2.1-1.91,1.13-.22,2.09-.14,2.09-.91,0-.89-.73-1.03-1.38-1.03-.86,0-1.5.26-1.55,1.18h-1.02c.06-1.54,1.25-2.08,2.63-2.08,1.12,0,2.33.25,2.33,1.7v3.19c0,.48,0,.7.32.7.08,0,.18-.01.31-.06v.79ZM81.95,14.65c-.4.29-1.16.3-1.85.42-.67.12-1.25.36-1.25,1.12,0,.67.57.91,1.2.91,1.34,0,1.9-.84,1.9-1.4v-1.04Z"/>
    <path class="cls-1" d="M84.55,11.65h.96v.98h.02c.43-.77,1.13-1.13,2.02-1.13,1.63,0,2.13.94,2.13,2.27v4.08h-1.02v-4.2c0-.75-.48-1.25-1.26-1.25-1.24,0-1.83.83-1.83,1.94v3.5h-1.02v-6.2Z"/>
    <path class="cls-1" d="M96.72,17.83c-.18.11-.41.17-.73.17-.53,0-.86-.29-.86-.96-.56.66-1.32.96-2.18.96-1.13,0-2.05-.5-2.05-1.74,0-1.4,1.04-1.7,2.1-1.91,1.13-.22,2.09-.14,2.09-.91,0-.89-.73-1.03-1.38-1.03-.86,0-1.5.26-1.55,1.18h-1.02c.06-1.54,1.25-2.08,2.63-2.08,1.12,0,2.33.25,2.33,1.7v3.19c0,.48,0,.7.32.7.08,0,.18-.01.31-.06v.79ZM95.06,14.65c-.4.29-1.16.3-1.85.42-.67.12-1.25.36-1.25,1.12,0,.67.57.91,1.2.91,1.34,0,1.9-.84,1.9-1.4v-1.04Z"/>
    <path class="cls-1" d="M103.21,17.85h-1.02v-.84h-.02c-.34.68-1.13.98-1.98.98-1.91,0-2.85-1.51-2.85-3.26s.94-3.23,2.83-3.23c.64,0,1.55.24,2,.97h.02v-3.19h1.02v8.56ZM100.33,17.1c1.37,0,1.89-1.18,1.89-2.34,0-1.22-.55-2.35-1.96-2.35s-1.86,1.19-1.86,2.4.6,2.29,1.92,2.29"/>
    <path class="cls-1" d="M110.28,17.83c-.18.11-.41.17-.73.17-.53,0-.86-.29-.86-.96-.56.66-1.32.96-2.18.96-1.13,0-2.05-.5-2.05-1.74,0-1.4,1.04-1.7,2.1-1.91,1.13-.22,2.09-.14,2.09-.91,0-.89-.73-1.03-1.38-1.03-.86,0-1.5.26-1.55,1.18h-1.02c.06-1.54,1.25-2.08,2.63-2.08,1.12,0,2.33.25,2.33,1.7v3.19c0,.48,0,.7.32.7.08,0,.18-.01.31-.06v.79ZM108.62,14.65c-.4.29-1.16.3-1.85.42-.67.12-1.25.36-1.25,1.12,0,.67.57.91,1.2.91,1.34,0,1.9-.84,1.9-1.4v-1.04Z"/>
    <polygon class="cls-1" points="114.73 9.29 120.65 9.29 120.65 10.25 115.87 10.25 115.87 12.97 120.32 12.97 120.32 13.93 115.87 13.93 115.87 16.89 120.68 16.89 120.68 17.85 114.73 17.85 114.73 9.29"/>
    <path class="cls-1" d="M121.9,11.65h.96v.98h.02c.43-.77,1.13-1.13,2.02-1.13,1.63,0,2.13.94,2.13,2.27v4.08h-1.02v-4.2c0-.75-.48-1.25-1.26-1.25-1.24,0-1.83.83-1.83,1.94v3.5h-1.02v-6.2Z"/>
    <path class="cls-1" d="M133.86,15.89c-.28,1.37-1.26,2.11-2.65,2.11-1.98,0-2.91-1.37-2.97-3.26,0-1.86,1.22-3.23,2.91-3.23,2.2,0,2.87,2.05,2.81,3.55h-4.64c-.04,1.08.58,2.04,1.93,2.04.84,0,1.43-.41,1.61-1.21h1.01ZM132.88,14.16c-.05-.97-.78-1.75-1.79-1.75-1.07,0-1.7.8-1.78,1.75h3.56Z"/>
    <path class="cls-1" d="M134.98,11.65h.96v1.31h.02c.49-1,1.18-1.49,2.28-1.45v1.08c-1.64,0-2.24.93-2.24,2.51v2.76h-1.02v-6.2Z"/>
    <path class="cls-1" d="M144.02,17.32c0,2.02-.92,3.05-2.88,3.05-1.16,0-2.51-.47-2.57-1.82h1.02c.05.74.94,1.01,1.61,1.01,1.33,0,1.86-.96,1.86-2.35v-.41h-.02c-.34.76-1.15,1.13-1.93,1.13-1.85,0-2.77-1.45-2.77-3.14,0-1.46.72-3.27,2.87-3.27.78,0,1.47.35,1.85,1.03h.01v-.89h.96v5.67ZM143.01,14.63c0-1.09-.48-2.22-1.76-2.22s-1.84,1.07-1.84,2.26c0,1.11.41,2.36,1.75,2.36s1.85-1.24,1.85-2.4"/>
    <path class="cls-1" d="M148,18.68c-.47,1.21-.89,1.66-1.8,1.66-.24,0-.48-.02-.71-.11v-.94c.19.06.4.14.6.14.42,0,.65-.2.84-.56l.42-1.06-2.46-6.16h1.15l1.81,5.07h.03l1.74-5.07h1.08l-2.7,7.03Z"/>
    <path class="cls-1" d="M69.61,21.64h4.03c1.61,0,2.6.88,2.6,2.24,0,1.03-.46,1.88-1.49,2.17v.03c1,.19,1.2.92,1.28,1.76.07.84.02,1.77.5,2.36h-1.27c-.32-.35-.14-1.27-.31-2.11-.12-.84-.32-1.55-1.43-1.55h-2.78v3.66h-1.14v-8.56ZM73.13,25.59c1.07,0,1.98-.27,1.98-1.52,0-.84-.46-1.46-1.52-1.46h-2.83v2.99h2.38Z"/>
    <path class="cls-1" d="M82.96,28.24c-.28,1.37-1.26,2.11-2.65,2.11-1.98,0-2.91-1.37-2.97-3.26,0-1.86,1.22-3.23,2.92-3.23,2.19,0,2.87,2.05,2.81,3.55h-4.64c-.04,1.08.58,2.04,1.93,2.04.84,0,1.43-.41,1.61-1.21h1.01ZM81.97,26.51c-.05-.97-.78-1.75-1.79-1.75-1.07,0-1.7.8-1.78,1.75h3.56Z"/>
    <path class="cls-1" d="M89.46,29.68c0,2.02-.92,3.05-2.88,3.05-1.16,0-2.51-.47-2.57-1.82h1.02c.05.74.94,1.01,1.61,1.01,1.33,0,1.86-.96,1.86-2.35v-.41h-.02c-.34.76-1.15,1.13-1.93,1.13-1.85,0-2.77-1.45-2.77-3.14,0-1.46.72-3.27,2.87-3.27.78,0,1.47.35,1.85,1.03h.01v-.89h.96v5.67ZM88.45,26.98c0-1.09-.48-2.22-1.76-2.22s-1.84,1.07-1.84,2.26c0,1.12.41,2.36,1.75,2.36s1.85-1.23,1.85-2.4"/>
    <path class="cls-1" d="M96.13,30.2h-.96v-.98h-.02c-.43.77-1.13,1.13-2.02,1.13-1.63,0-2.13-.94-2.13-2.27v-4.08h1.02v4.2c0,.76.48,1.25,1.26,1.25,1.24,0,1.83-.83,1.83-1.94v-3.5h1.02v6.2Z"/>
    <rect class="cls-1" x="97.73" y="21.64" width="1.02" height="8.56"/>
    <path class="cls-1" d="M105.83,30.18c-.18.11-.41.17-.73.17-.53,0-.86-.29-.86-.96-.56.66-1.32.96-2.18.96-1.13,0-2.05-.5-2.05-1.74,0-1.4,1.04-1.7,2.1-1.91,1.13-.22,2.09-.14,2.09-.91,0-.89-.73-1.03-1.38-1.03-.86,0-1.5.26-1.55,1.18h-1.02c.06-1.54,1.25-2.08,2.63-2.08,1.12,0,2.33.25,2.33,1.7v3.19c0,.48,0,.69.32.69.08,0,.18-.01.31-.06v.79ZM104.17,27c-.4.29-1.16.3-1.85.42-.67.12-1.25.36-1.25,1.12,0,.67.57.91,1.2.91,1.34,0,1.9-.84,1.9-1.4v-1.04Z"/>
    <path class="cls-1" d="M108.19,24h1.23v.9h-1.23v3.85c0,.47.13.55.77.55h.47v.9h-.78c-1.06,0-1.47-.22-1.47-1.36v-3.95h-1.06v-.9h1.06v-1.86h1.02v1.86Z"/>
    <path class="cls-1" d="M113.23,23.86c1.97,0,3.01,1.43,3.01,3.25s-1.04,3.24-3.01,3.24-3.01-1.43-3.01-3.24,1.04-3.25,3.01-3.25M113.23,29.45c1.07,0,1.93-.84,1.93-2.34s-.86-2.35-1.93-2.35-1.93.84-1.93,2.35.86,2.34,1.93,2.34"/>
    <path class="cls-1" d="M117.41,24h.96v1.31h.02c.49-1,1.18-1.49,2.28-1.45v1.08c-1.64,0-2.24.93-2.24,2.51v2.76h-1.02v-6.2Z"/>
  </g>
  <rect class="cls-2" x="9.19" y="9.28" width="10.46" height="20.92"/>
  <g>
    <path class="cls-3" d="M25.86,23.19s-3.78-3.27-3.78-3.27l.58-.29c.09-.04.15-.09.19-.14.13-.16.09-.36.06-.52-.02-.05-.65-2.25-.65-2.25,0,0,1.79.38,1.9.4.04,0,.07.01.1.01.03,0,.08,0,.08,0,.15-.03.23-.14.29-.29.02-.05.46-1.1.46-1.1,0,0,1.92,2.11,1.93,2.12.14.12.27.16.38.15.02,0,.04-.01.06-.02.15-.06.24-.22.2-.43-.03-.19-.97-4.52-.97-4.52,0,0,1,.6,1.34.79.16.1.29.14.39.12.11-.02.19-.11.28-.27.05-.09,1.41-2.78,1.41-2.78,0,0,1.36,2.69,1.41,2.78.09.16.17.25.28.27.11.02.23-.02.39-.12.33-.19,1.34-.79,1.34-.79,0,0-.94,4.32-.97,4.52-.04.21.06.38.2.43.02,0,.04.02.06.02.11.02.24-.02.38-.15.01,0,1.93-2.12,1.93-2.12,0,0,.44,1.05.46,1.1.06.15.13.26.29.29,0,0,.05,0,.08,0,.03,0,.07,0,.1-.01.11-.01,1.9-.4,1.9-.4,0,0-.63,2.2-.65,2.25-.04.15-.08.36.05.52.04.05.1.1.19.14l.58.29s-3.74,3.24-3.78,3.27c-.11.1-.2.26-.08.65.03.09.43,1.24.43,1.24,0,0-3.59-.73-3.65-.75-.09-.02-.17-.03-.25-.02-.23.02-.4.15-.4.41,0,.36.14,3.88.14,3.88h-.91s.14-3.53.14-3.88c0-.26-.16-.39-.39-.41-.08,0-.16,0-.25.02-.06.01-3.65.75-3.65.75,0,0,.4-1.15.43-1.24.13-.4.03-.55-.08-.65"/>
    <rect class="cls-3" x="9.19" y="9.28" width="10.46" height="20.92"/>
    <rect class="cls-3" x="40.58" y="9.28" width="10.46" height="20.92"/>
    <rect class="cls-3" x="40.58" y="9.28" width="10.46" height="20.92"/>
  </g>
</svg>