<?xml version="1.0" encoding="UTF-8"?><svg id="Layer_1" xmlns="http://www.w3.org/2000/svg" viewBox="0 0 276.71 20.34"><g><path d="m60.42,2.48c-.28-1.33-1.4-1.57-2.12-1.57-1.38,0-2.49,1.01-2.49,3.01,0,1.78.63,3.16,2.52,3.16.66,0,1.82-.32,2.17-2.08h1c-.42,2.86-2.75,2.99-3.32,2.99-1.72,0-3.41-1.12-3.41-4.03,0-2.33,1.33-3.95,3.54-3.95,1.96,0,2.97,1.21,3.12,2.48h-.99Z"/><path d="m62.58,3.93c.04-1.32.92-1.83,2.28-1.83.44,0,2.05.13,2.05,1.54v3.18c0,.23.12.32.31.32.08,0,.2-.02.31-.04v.68c-.16.04-.3.1-.51.1-.82,0-.95-.42-.98-.84-.36.39-.92.9-2,.9-1.02,0-1.74-.65-1.74-1.6,0-.46.14-1.54,1.68-1.73l1.53-.19c.22-.02.49-.1.49-.65,0-.58-.42-.9-1.3-.9-1.06,0-1.21.64-1.27,1.06h-.86Zm3.41,1.03c-.15.11-.38.2-1.54.34-.45.07-1.18.2-1.18.9,0,.6.31.96,1,.96.87,0,1.71-.56,1.71-1.3v-.9Z"/><path d="m73,7.78h-.93v-3.4c0-.96-.27-1.45-1.19-1.45-.53,0-1.46.33-1.46,1.83v3.01h-.93V2.26h.88v.78h.02c.2-.29.72-.94,1.67-.94.86,0,1.94.35,1.94,1.92v3.76Z"/><path d="m74.35,3.93c.04-1.32.92-1.83,2.28-1.83.44,0,2.05.13,2.05,1.54v3.18c0,.23.11.32.3.32.09,0,.2-.02.31-.04v.68c-.16.04-.29.1-.51.1-.83,0-.95-.42-.98-.84-.36.39-.92.9-2,.9-1.02,0-1.73-.65-1.73-1.6,0-.46.14-1.54,1.68-1.73l1.53-.19c.22-.02.49-.1.49-.65,0-.58-.42-.9-1.3-.9-1.06,0-1.21.64-1.27,1.06h-.85Zm3.4,1.03c-.15.11-.38.2-1.54.34-.45.07-1.18.2-1.18.9,0,.6.31.96,1,.96.87,0,1.72-.56,1.72-1.3v-.9Z"/><path d="m84.85,7.78h-.88v-.76h-.02c-.4.75-1.04.92-1.58.92-1.88,0-2.43-1.76-2.43-3.08,0-1.55.83-2.76,2.31-2.76,1,0,1.43.62,1.65.94h.02V.2h.93v7.58Zm-2.45-.64c.59,0,1.52-.39,1.52-1.86,0-.9-.15-2.34-1.5-2.34-1.44,0-1.51,1.36-1.51,2.06,0,1.22.48,2.14,1.49,2.14Z"/><path d="m86.16,1.25V.2h.93v1.06h-.93Zm.93,6.53h-.93V2.26h.93v5.52Z"/><path d="m88.46,3.93c.04-1.32.92-1.83,2.28-1.83.45,0,2.05.13,2.05,1.54v3.18c0,.23.11.32.31.32.08,0,.2-.02.3-.04v.68c-.15.04-.3.1-.51.1-.82,0-.95-.42-.98-.84-.36.39-.92.9-2,.9-1.02,0-1.73-.65-1.73-1.6,0-.46.14-1.54,1.68-1.73l1.53-.19c.22-.02.49-.1.49-.65,0-.58-.42-.9-1.3-.9-1.06,0-1.21.64-1.27,1.06h-.86Zm3.4,1.03c-.14.11-.38.2-1.53.34-.45.07-1.18.2-1.18.9,0,.6.31.96,1,.96.87,0,1.71-.56,1.71-1.3v-.9Z"/><path d="m98.88,7.78h-.93v-3.4c0-.96-.28-1.45-1.18-1.45-.53,0-1.46.33-1.46,1.83v3.01h-.93V2.26h.88v.78h.02c.2-.29.72-.94,1.67-.94.86,0,1.94.35,1.94,1.92v3.76Z"/><path d="m108.35.2h.99v7.58h-1.15l-3.86-6.12h-.02v6.12h-1V.2h1.22l3.8,6.13h.02V.2Z"/><path d="m114.44,7.78v-.8l-.02-.02c-.39.64-.87.98-1.75.98-.81,0-1.8-.39-1.8-1.71v-3.97h.93v3.67c0,.91.47,1.21,1.07,1.21,1.17,0,1.52-1.04,1.52-1.84v-3.04h.93v5.52h-.88Z"/><path d="m120.18,4.12c-.12-.74-.53-1.18-1.31-1.18-1.15,0-1.52,1.1-1.52,2.08s.23,2.12,1.51,2.12c.62,0,1.16-.47,1.32-1.31h.9c-.1.88-.63,2.11-2.25,2.11s-2.48-1.17-2.48-2.77c0-1.71.83-3.07,2.65-3.07,1.45,0,2,1.05,2.07,2.02h-.9Z"/><path d="m122.96,7.78h-.93V.2h.93v7.58Z"/><path d="m129.05,6.05c-.03.27-.28,1.04-.98,1.51-.25.17-.61.38-1.5.38-1.55,0-2.48-1.17-2.48-2.77,0-1.71.83-3.07,2.65-3.07,1.6,0,2.38,1.27,2.38,3.22h-4.04c0,1.15.54,1.82,1.6,1.82.88,0,1.4-.68,1.43-1.09h.93Zm-.89-1.47c-.05-.86-.41-1.65-1.55-1.65-.86,0-1.53.79-1.53,1.65h3.08Z"/><path d="m130.21,3.93c.04-1.32.92-1.83,2.29-1.83.44,0,2.05.13,2.05,1.54v3.18c0,.23.12.32.31.32.08,0,.2-.02.31-.04v.68c-.16.04-.3.1-.5.1-.83,0-.95-.42-.98-.84-.36.39-.92.9-2,.9-1.02,0-1.73-.65-1.73-1.6,0-.46.14-1.54,1.68-1.73l1.53-.19c.22-.02.49-.1.49-.65,0-.58-.42-.9-1.3-.9-1.06,0-1.2.64-1.27,1.06h-.86Zm3.41,1.03c-.15.11-.38.2-1.54.34-.45.07-1.19.2-1.19.9,0,.6.31.96,1,.96.87,0,1.72-.56,1.72-1.3v-.9Z"/><path d="m137.18,7.78h-.93V2.26h.88v.92h.02c.37-.65.86-1.08,1.56-1.08.12,0,.16,0,.24.03v.96h-.35c-.87,0-1.42.68-1.42,1.48v3.21Z"/><path d="m59.67,12.71c-.05-1.17-1.02-1.54-1.88-1.54-.64,0-1.73.18-1.73,1.33,0,.64.45.85.9.96l2.17.5c.98.23,1.72.83,1.72,2.03,0,1.79-1.67,2.29-2.97,2.29-1.41,0-1.96-.42-2.29-.72-.65-.58-.77-1.21-.77-1.93h.96c0,1.37,1.12,1.78,2.1,1.78.74,0,1.99-.2,1.99-1.28,0-.79-.37-1.05-1.62-1.34l-1.56-.36c-.5-.11-1.62-.46-1.62-1.78,0-1.18.77-2.35,2.61-2.35,2.66,0,2.92,1.58,2.96,2.41h-.96Z"/><path d="m62,14.24c.04-1.32.92-1.84,2.28-1.84.44,0,2.05.13,2.05,1.54v3.18c0,.23.12.33.31.33.08,0,.2-.02.31-.04v.67c-.16.04-.29.1-.51.1-.82,0-.95-.42-.98-.85-.36.39-.92.9-2,.9-1.02,0-1.74-.64-1.74-1.59,0-.47.14-1.54,1.68-1.74l1.54-.19c.22-.02.48-.1.48-.65,0-.58-.42-.9-1.3-.9-1.06,0-1.21.64-1.27,1.07h-.86Zm3.4,1.02c-.15.12-.38.2-1.53.35-.45.06-1.18.2-1.18.9,0,.6.31.96,1,.96.87,0,1.71-.56,1.71-1.3v-.91Z"/><path d="m69.07,13.33v4.75h-.93v-4.75h-.76v-.77h.76v-.95c0-.83.53-1.21,1.44-1.21.14,0,.28,0,.42.02v.83c-.12,0-.26-.02-.38-.02-.4,0-.55.2-.55.65v.68h.93v.77h-.93Z"/><path d="m75.23,16.35c-.03.26-.29,1.05-.98,1.51-.25.17-.61.38-1.5.38-1.56,0-2.48-1.18-2.48-2.77,0-1.71.83-3.07,2.65-3.07,1.6,0,2.38,1.27,2.38,3.22h-4.04c0,1.15.54,1.82,1.61,1.82.88,0,1.39-.67,1.43-1.09h.93Zm-.89-1.47c-.05-.86-.41-1.65-1.54-1.65-.86,0-1.53.8-1.53,1.65h3.08Z"/><path d="m77.56,13.33v3.59c0,.43.37.43.56.43h.33v.73c-.34.03-.6.08-.7.08-.92,0-1.12-.52-1.12-1.18v-3.64h-.75v-.77h.75v-1.54h.93v1.54h.89v.77h-.89Z"/><path d="m82.82,12.56h1.03c-.64,1.8-1.28,3.61-1.99,5.41-.88,2.24-.97,2.37-2.17,2.37-.14,0-.24-.05-.39-.09v-.85c.11.04.31.09.56.09.49,0,.54-.14.98-1.27l-2.05-5.67h1.06l1.47,4.49h.02l1.48-4.49Z"/><path d="m93.04,12.78c-.29-1.32-1.4-1.57-2.13-1.57-1.38,0-2.49,1.01-2.49,3.01,0,1.79.64,3.16,2.52,3.16.67,0,1.82-.32,2.17-2.08h1c-.42,2.86-2.75,2.98-3.32,2.98-1.72,0-3.42-1.12-3.42-4.03,0-2.33,1.33-3.95,3.54-3.95,1.95,0,2.97,1.21,3.12,2.48h-.99Z"/><path d="m97.48,12.4c1.77,0,2.57,1.49,2.57,2.92s-.8,2.91-2.57,2.91-2.57-1.49-2.57-2.91.8-2.92,2.57-2.92Zm0,5.03c1.33,0,1.61-1.37,1.61-2.11s-.28-2.11-1.61-2.11-1.61,1.37-1.61,2.11.28,2.11,1.61,2.11Z"/><path d="m101.11,12.56h.88v.78h.02c.2-.29.68-.94,1.67-.94s1.31.6,1.47.9c.46-.52.84-.9,1.69-.9.59,0,1.71.31,1.71,1.86v3.82h-.93v-3.57c0-.76-.23-1.28-1.03-1.28s-1.3.74-1.3,1.48v3.36h-.93v-3.82c0-.46-.18-1.02-.87-1.02-.53,0-1.46.34-1.46,1.84v3h-.93v-5.52Z"/><path d="m109.93,12.56h.88v.78h.02c.2-.29.68-.94,1.67-.94s1.31.6,1.47.9c.46-.52.84-.9,1.69-.9.59,0,1.71.31,1.71,1.86v3.82h-.93v-3.57c0-.76-.23-1.28-1.03-1.28s-1.3.74-1.3,1.48v3.36h-.93v-3.82c0-.46-.18-1.02-.87-1.02-.53,0-1.46.34-1.46,1.84v3h-.93v-5.52Z"/><path d="m118.76,11.55v-1.06h.93v1.06h-.93Zm.93,6.52h-.93v-5.52h.93v5.52Z"/><path d="m124.23,14.13c0-.35-.14-.92-1.31-.92-.28,0-1.1.09-1.1.77,0,.46.28.56,1.01.74l.93.23c1.15.29,1.55.71,1.55,1.46,0,1.14-.94,1.83-2.19,1.83-2.19,0-2.35-1.27-2.38-1.93h.9c.03.43.16,1.13,1.47,1.13.67,0,1.27-.27,1.27-.87,0-.45-.31-.6-1.1-.79l-1.08-.27c-.77-.19-1.28-.58-1.28-1.34,0-1.21,1-1.77,2.09-1.77,1.98,0,2.12,1.46,2.12,1.73h-.9Z"/><path d="m129.52,14.13c-.01-.35-.14-.92-1.31-.92-.28,0-1.1.09-1.1.77,0,.46.28.56,1,.74l.93.23c1.15.29,1.55.71,1.55,1.46,0,1.14-.94,1.83-2.19,1.83-2.19,0-2.35-1.27-2.38-1.93h.9c.03.43.16,1.13,1.47,1.13.67,0,1.27-.27,1.27-.87,0-.45-.3-.6-1.1-.79l-1.08-.27c-.77-.19-1.28-.58-1.28-1.34,0-1.21,1-1.77,2.09-1.77,1.98,0,2.12,1.46,2.12,1.73h-.9Z"/><path d="m131.69,11.55v-1.06h.93v1.06h-.93Zm.93,6.52h-.93v-5.52h.93v5.52Z"/><path d="m136.27,12.4c1.77,0,2.57,1.49,2.57,2.92s-.8,2.91-2.57,2.91-2.57-1.49-2.57-2.91.8-2.92,2.57-2.92Zm0,5.03c1.33,0,1.61-1.37,1.61-2.11s-.28-2.11-1.61-2.11-1.61,1.37-1.61,2.11.28,2.11,1.61,2.11Z"/><path d="m144.41,18.08h-.93v-3.4c0-.96-.27-1.45-1.18-1.45-.53,0-1.46.34-1.46,1.84v3h-.93v-5.52h.88v.78h.02c.2-.29.72-.94,1.67-.94.86,0,1.94.35,1.94,1.92v3.76Z"/></g><g><path d="m167.45,2.51c-.29-1.33-1.4-1.57-2.12-1.57-1.38,0-2.49,1.01-2.49,3.01,0,1.79.63,3.16,2.52,3.16.67,0,1.82-.32,2.17-2.08h.99c-.42,2.86-2.75,2.99-3.32,2.99-1.73,0-3.42-1.12-3.42-4.03,0-2.33,1.33-3.95,3.54-3.95,1.96,0,2.97,1.21,3.12,2.47h-.99Z"/><path d="m171.9,2.13c1.77,0,2.57,1.48,2.57,2.91s-.8,2.91-2.57,2.91-2.57-1.49-2.57-2.91.8-2.91,2.57-2.91Zm0,5.02c1.33,0,1.61-1.37,1.61-2.11s-.28-2.11-1.61-2.11-1.61,1.37-1.61,2.11.27,2.11,1.61,2.11Z"/><path d="m175.52,2.29h.88v.78h.02c.2-.3.68-.94,1.67-.94s1.31.6,1.47.89c.47-.52.83-.89,1.69-.89.59,0,1.71.31,1.71,1.86v3.82h-.93v-3.57c0-.76-.23-1.28-1.03-1.28s-1.3.74-1.3,1.48v3.37h-.93v-3.82c0-.47-.18-1.03-.87-1.03-.53,0-1.46.34-1.46,1.84v3.01h-.93V2.29Z"/><path d="m184.34,2.29h.88v.78h.02c.2-.3.67-.94,1.67-.94s1.31.6,1.47.89c.46-.52.84-.89,1.69-.89.59,0,1.71.31,1.71,1.86v3.82h-.93v-3.57c0-.76-.23-1.28-1.03-1.28s-1.3.74-1.3,1.48v3.37h-.93v-3.82c0-.47-.18-1.03-.87-1.03-.53,0-1.46.34-1.46,1.84v3.01h-.93V2.29Z"/><path d="m193.17,1.29V.23h.93v1.06h-.93Zm.93,6.53h-.93V2.29h.93v5.52Z"/><path d="m198.64,3.86c-.01-.35-.14-.93-1.31-.93-.28,0-1.1.09-1.1.78,0,.46.28.56,1,.74l.93.23c1.15.29,1.55.7,1.55,1.46,0,1.14-.94,1.82-2.19,1.82-2.19,0-2.35-1.26-2.38-1.93h.9c.03.43.16,1.13,1.47,1.13.67,0,1.27-.26,1.27-.87,0-.45-.31-.59-1.1-.79l-1.08-.27c-.78-.19-1.28-.58-1.28-1.34,0-1.21,1-1.76,2.09-1.76,1.98,0,2.12,1.46,2.12,1.73h-.9Z"/><path d="m203.93,3.86c0-.35-.14-.93-1.31-.93-.29,0-1.1.09-1.1.78,0,.46.28.56,1,.74l.93.23c1.15.29,1.56.7,1.56,1.46,0,1.14-.94,1.82-2.19,1.82-2.19,0-2.35-1.26-2.38-1.93h.9c.03.43.16,1.13,1.47,1.13.66,0,1.27-.26,1.27-.87,0-.45-.31-.59-1.1-.79l-1.08-.27c-.77-.19-1.28-.58-1.28-1.34,0-1.21,1-1.76,2.09-1.76,1.98,0,2.11,1.46,2.11,1.73h-.9Z"/><path d="m206.1,1.29V.23h.93v1.06h-.93Zm.93,6.53h-.93V2.29h.93v5.52Z"/><path d="m210.68,2.13c1.77,0,2.57,1.48,2.57,2.91s-.8,2.91-2.57,2.91-2.57-1.49-2.57-2.91.8-2.91,2.57-2.91Zm0,5.02c1.33,0,1.61-1.37,1.61-2.11s-.27-2.11-1.61-2.11-1.61,1.37-1.61,2.11.27,2.11,1.61,2.11Z"/><path d="m218.82,7.81h-.93v-3.4c0-.96-.28-1.45-1.19-1.45-.53,0-1.46.34-1.46,1.84v3.01h-.93V2.29h.88v.78h.02c.2-.3.72-.94,1.67-.94.85,0,1.93.35,1.93,1.92v3.76Z"/><path d="m226.58,4.15c-.12-.74-.53-1.19-1.31-1.19-1.15,0-1.52,1.1-1.52,2.08s.23,2.12,1.51,2.12c.62,0,1.16-.46,1.32-1.31h.9c-.09.88-.63,2.11-2.25,2.11s-2.47-1.18-2.47-2.77c0-1.71.82-3.07,2.65-3.07,1.45,0,2,1.06,2.07,2.02h-.9Z"/><path d="m228.38,3.96c.04-1.32.92-1.83,2.29-1.83.44,0,2.05.12,2.05,1.54v3.18c0,.24.12.33.31.33.09,0,.2-.02.31-.04v.67c-.16.04-.3.11-.51.11-.83,0-.95-.43-.99-.85-.36.39-.92.9-2,.9-1.02,0-1.74-.64-1.74-1.59,0-.47.14-1.54,1.68-1.73l1.53-.19c.22-.02.49-.11.49-.66,0-.58-.42-.9-1.3-.9-1.06,0-1.21.64-1.27,1.06h-.86Zm3.41,1.03c-.15.11-.38.2-1.53.35-.46.06-1.19.2-1.19.9,0,.6.31.95,1.01.95.87,0,1.71-.56,1.71-1.3v-.9Z"/><path d="m238.8,7.81h-.93v-3.4c0-.96-.27-1.45-1.18-1.45-.53,0-1.46.34-1.46,1.84v3.01h-.93V2.29h.88v.78h.02c.2-.3.72-.94,1.67-.94.86,0,1.93.35,1.93,1.92v3.76Z"/><path d="m240.14,3.96c.04-1.32.92-1.83,2.29-1.83.44,0,2.05.12,2.05,1.54v3.18c0,.24.12.33.31.33.09,0,.2-.02.31-.04v.67c-.16.04-.3.11-.51.11-.83,0-.95-.43-.98-.85-.36.39-.92.9-2,.9-1.01,0-1.73-.64-1.73-1.59,0-.47.14-1.54,1.68-1.73l1.53-.19c.22-.02.49-.11.49-.66,0-.58-.42-.9-1.3-.9-1.06,0-1.21.64-1.27,1.06h-.86Zm3.41,1.03c-.15.11-.38.2-1.53.35-.46.06-1.18.2-1.18.9,0,.6.31.95,1,.95.87,0,1.71-.56,1.71-1.3v-.9Z"/><path d="m250.65,7.81h-.88v-.76h-.02c-.4.75-1.03.92-1.57.92-1.88,0-2.43-1.76-2.43-3.08,0-1.55.83-2.75,2.3-2.75,1,0,1.43.62,1.65.94h.02V.23h.93v7.58Zm-2.45-.64c.59,0,1.51-.39,1.51-1.86,0-.9-.15-2.35-1.49-2.35-1.44,0-1.51,1.37-1.51,2.07,0,1.21.48,2.13,1.49,2.13Z"/><path d="m251.96,1.29V.23h.93v1.06h-.93Zm.93,6.53h-.93V2.29h.93v5.52Z"/><path d="m258.99,6.08c-.03.26-.29,1.04-.98,1.51-.25.17-.61.38-1.5.38-1.55,0-2.47-1.18-2.47-2.77,0-1.71.82-3.07,2.65-3.07,1.6,0,2.38,1.27,2.38,3.22h-4.04c0,1.15.54,1.82,1.61,1.82.88,0,1.4-.67,1.43-1.09h.93Zm-.89-1.47c-.05-.86-.41-1.65-1.54-1.65-.86,0-1.53.79-1.53,1.65h3.08Z"/><path d="m264.68,7.81h-.93v-3.4c0-.96-.28-1.45-1.19-1.45-.53,0-1.46.34-1.46,1.84v3.01h-.93V2.29h.88v.78h.02c.2-.3.72-.94,1.67-.94.86,0,1.94.35,1.94,1.92v3.76Z"/><path d="m270.56,7.81h-.93v-3.4c0-.96-.27-1.45-1.18-1.45-.53,0-1.46.34-1.46,1.84v3.01h-.93V2.29h.88v.78h.02c.2-.3.72-.94,1.67-.94.86,0,1.94.35,1.94,1.92v3.76Z"/><path d="m276.63,6.08c-.03.26-.28,1.04-.98,1.51-.26.17-.61.38-1.5.38-1.55,0-2.47-1.18-2.47-2.77,0-1.71.83-3.07,2.66-3.07,1.6,0,2.38,1.27,2.38,3.22h-4.04c0,1.15.54,1.82,1.61,1.82.88,0,1.4-.67,1.43-1.09h.93Zm-.89-1.47c-.05-.86-.41-1.65-1.54-1.65-.85,0-1.53.79-1.53,1.65h3.08Z"/><path d="m166.6,18.11h-.88v-.76h-.02c-.4.75-1.04.92-1.58.92-1.88,0-2.43-1.76-2.43-3.08,0-1.55.84-2.75,2.31-2.75,1,0,1.43.62,1.65.94h.02v-2.84h.93v7.58Zm-2.45-.64c.59,0,1.51-.39,1.51-1.86,0-.9-.15-2.34-1.49-2.34-1.44,0-1.51,1.36-1.51,2.07,0,1.21.48,2.13,1.49,2.13Z"/><path d="m172.58,16.38c-.03.26-.29,1.04-.98,1.51-.25.17-.61.38-1.5.38-1.55,0-2.47-1.18-2.47-2.77,0-1.71.83-3.07,2.65-3.07,1.6,0,2.38,1.26,2.38,3.22h-4.04c0,1.15.54,1.81,1.61,1.81.88,0,1.39-.67,1.43-1.09h.93Zm-.89-1.47c-.05-.86-.41-1.65-1.54-1.65-.85,0-1.53.79-1.53,1.65h3.08Z"/><path d="m179.85,14.16c0-.35-.14-.93-1.31-.93-.29,0-1.1.1-1.1.79,0,.45.29.56,1.01.74l.93.23c1.15.29,1.56.71,1.56,1.46,0,1.14-.94,1.83-2.19,1.83-2.19,0-2.35-1.27-2.38-1.93h.9c.03.43.16,1.13,1.47,1.13.67,0,1.27-.26,1.27-.88,0-.44-.31-.59-1.1-.79l-1.08-.27c-.77-.19-1.28-.58-1.28-1.34,0-1.21,1.01-1.76,2.09-1.76,1.98,0,2.11,1.46,2.11,1.73h-.9Z"/><path d="m185.61,18.11v-.8l-.02-.02c-.39.64-.87.98-1.76.98-.81,0-1.8-.39-1.8-1.71v-3.97h.93v3.66c0,.91.47,1.22,1.07,1.22,1.17,0,1.52-1.03,1.52-1.84v-3.04h.93v5.52h-.88Zm-2.05-6.26h-.84l1.05-1.49h.98l1.05,1.49h-.85l-.7-.98-.7.98Z"/><path d="m188.94,18.11h-.93v-5.52h.88v.92h.02c.37-.64.86-1.08,1.55-1.08.12,0,.17,0,.24.03v.96h-.35c-.87,0-1.42.67-1.42,1.48v3.21Z"/><path d="m196.1,16.38c-.03.26-.29,1.04-.98,1.51-.25.17-.61.38-1.5.38-1.55,0-2.47-1.18-2.47-2.77,0-1.71.83-3.07,2.65-3.07,1.6,0,2.38,1.26,2.38,3.22h-4.04c0,1.15.54,1.81,1.61,1.81.88,0,1.39-.67,1.43-1.09h.93Zm-.89-1.47c-.05-.86-.41-1.65-1.55-1.65-.85,0-1.53.79-1.53,1.65h3.08Z"/><path d="m198.43,13.36v3.59c0,.43.37.43.56.43h.33v.73c-.34.03-.6.07-.7.07-.92,0-1.12-.51-1.12-1.18v-3.64h-.75v-.77h.75v-1.54h.93v1.54h.89v.77h-.89Z"/><path d="m204.93,16.38c-.03.26-.29,1.04-.98,1.51-.25.17-.61.38-1.5.38-1.55,0-2.47-1.18-2.47-2.77,0-1.71.83-3.07,2.65-3.07,1.6,0,2.38,1.26,2.38,3.22h-4.04c0,1.15.54,1.81,1.61,1.81.88,0,1.39-.67,1.43-1.09h.93Zm-.89-1.47c-.05-.86-.41-1.65-1.54-1.65-.86,0-1.53.79-1.53,1.65h3.08Zm-1.31-3.06h-.71l.94-1.49h1.14l-1.38,1.49Z"/><path d="m213.56,18.11h-.93v-3.39c0-.96-.27-1.45-1.18-1.45-.53,0-1.46.33-1.46,1.84v3h-.93v-5.52h.88v.78h.02c.2-.3.72-.94,1.67-.94.86,0,1.93.34,1.93,1.92v3.76Z"/><path d="m218.44,18.11v-.8l-.02-.02c-.39.64-.87.98-1.76.98-.81,0-1.8-.39-1.8-1.71v-3.97h.93v3.66c0,.91.47,1.22,1.07,1.22,1.17,0,1.52-1.03,1.52-1.84v-3.04h.93v5.52h-.88Z"/><path d="m224.16,14.45c-.12-.74-.53-1.18-1.31-1.18-1.14,0-1.51,1.1-1.51,2.08s.23,2.12,1.5,2.12c.62,0,1.15-.47,1.31-1.31h.9c-.09.88-.63,2.11-2.24,2.11s-2.47-1.18-2.47-2.77c0-1.71.83-3.07,2.64-3.07,1.44,0,1.99,1.05,2.07,2.01h-.9Z"/><path d="m226.94,18.11h-.93v-7.58h.93v7.58Z"/><path d="m233.03,16.38c-.03.26-.29,1.04-.98,1.51-.25.17-.61.38-1.5.38-1.55,0-2.47-1.18-2.47-2.77,0-1.71.83-3.07,2.65-3.07,1.6,0,2.38,1.26,2.38,3.22h-4.04c0,1.15.54,1.81,1.61,1.81.88,0,1.4-.67,1.43-1.09h.93Zm-.89-1.47c-.05-.86-.41-1.65-1.54-1.65-.85,0-1.53.79-1.53,1.65h3.08Zm-1.31-3.06h-.71l.94-1.49h1.14l-1.37,1.49Z"/><path d="m234.19,14.27c.04-1.32.92-1.83,2.28-1.83.45,0,2.05.12,2.05,1.54v3.18c0,.23.12.33.31.33.08,0,.2-.02.31-.04v.67c-.16.04-.3.11-.51.11-.83,0-.95-.43-.98-.85-.36.39-.92.9-2,.9-1.01,0-1.73-.65-1.73-1.6,0-.46.14-1.54,1.68-1.73l1.53-.19c.22-.02.49-.11.49-.65,0-.59-.43-.9-1.3-.9-1.06,0-1.21.64-1.27,1.06h-.86Zm3.41,1.02c-.15.12-.38.2-1.53.35-.46.06-1.19.2-1.19.9,0,.6.31.96,1.01.96.87,0,1.71-.57,1.71-1.3v-.91Z"/><path d="m240.12,11.59v-1.06h.93v1.06h-.93Zm.93,6.52h-.93v-5.52h.93v5.52Z"/><path d="m243.51,18.11h-.93v-5.52h.88v.92h.02c.37-.64.86-1.08,1.55-1.08.12,0,.17,0,.24.03v.96h-.35c-.87,0-1.42.67-1.42,1.48v3.21Z"/><path d="m250.67,16.38c-.03.26-.28,1.04-.98,1.51-.25.17-.61.38-1.5.38-1.55,0-2.47-1.18-2.47-2.77,0-1.71.82-3.07,2.65-3.07,1.6,0,2.38,1.26,2.38,3.22h-4.04c0,1.15.54,1.81,1.61,1.81.88,0,1.39-.67,1.43-1.09h.93Zm-.89-1.47c-.05-.86-.41-1.65-1.55-1.65-.86,0-1.53.79-1.53,1.65h3.08Z"/></g><g><rect x=".4" y=".09" width="8.84" height="17.97" style="fill:#ea2d37;"/><rect x="28.82" y=".09" width="8.83" height="17.97" style="fill:#ea2d37;"/><path d="m17.8,3.83l1.26-2.57,1.25,2.47c.16.26.28.24.53.11l1.08-.53-.7,3.45c-.15.67.24.88.66.42l1.53-1.63.41.92c.14.28.34.24.62.18l1.59-.33-.53,2v.04c-.07.26-.2.48.09.6l.56.28-3.27,2.76c-.33.35-.22.45-.09.84l.3.92-3.05-.55c-.38-.09-.64-.09-.65.21l.13,3.49h-.92l.13-3.48c0-.35-.26-.33-.88-.21l-2.82.54.37-.92c.12-.35.16-.6-.13-.84l-3.34-2.72.62-.38c.18-.13.19-.28.09-.58l-.63-2.04,1.61.34c.45.1.57,0,.69-.25l.45-.92,1.59,1.8c.28.33.68.12.55-.37l-.76-3.73,1.18.67c.19.12.39.15.5-.07" style="fill:#ea2d37;"/></g></svg>