<?xml version="1.0" encoding="UTF-8"?>
<svg id="Layer_1" xmlns="http://www.w3.org/2000/svg" version="1.1" viewBox="0 0 1152 100">
  <!-- Generator: Adobe Illustrator 30.0.0, SVG Export Plug-In . SVG Version: 2.1.1 Build 123)  -->
  <defs>
    <style>
      .st0 {
        fill: #231f20;
      }

      .st1 {
        fill: #f5333f;
      }
    </style>
  </defs>
  <g>
    <path class="st0" d="M745.07,27.33l-3.88,10.82h-5.18l13.98-37.16h5.69l13.46,37.16h-5.49l-3.67-10.82h-14.91ZM758.17,22.88l-5.49-16.36h-.1l-5.95,16.36h11.54Z"/>
    <path class="st0" d="M795.64,35.92c0,3.88-.05,13.61-12.58,13.61-3.21,0-9.47-.88-10.35-8.07h4.56c.83,4.3,5.02,4.3,6.11,4.3,7.56,0,7.71-5.85,7.71-9.16v-1.5c-1.29,2.17-3.68,3.83-7.3,3.83-9.21,0-11.91-8.64-11.91-15.11,0-7.61,4.09-13.51,11.28-13.51,4.92,0,7.04,3.11,8.18,4.76v-3.99h4.3v24.85ZM783.89,34.99c2.9,0,7.4-1.92,7.4-9.11,0-4.4-.72-11.49-7.3-11.49-7.04,0-7.4,6.68-7.4,10.15,0,5.95,2.33,10.46,7.3,10.46Z"/>
    <path class="st0" d="M824.93,29.66c-.16,1.29-1.4,5.12-4.81,7.4-1.24.83-3,1.86-7.35,1.86-7.61,0-12.11-5.75-12.11-13.56,0-8.39,4.04-15.06,12.99-15.06,7.82,0,11.65,6.21,11.65,15.79h-19.77c0,5.64,2.64,8.9,7.87,8.9,4.3,0,6.83-3.31,6.99-5.33h4.56ZM820.58,22.47c-.26-4.19-2.02-8.07-7.56-8.07-4.19,0-7.51,3.88-7.51,8.07h15.06Z"/>
    <path class="st0" d="M852.78,38.15h-4.55v-16.67c0-4.71-1.35-7.09-5.8-7.09-2.59,0-7.14,1.66-7.14,9.01v14.75h-4.56V11.08h4.3v3.83h.1c.98-1.45,3.52-4.61,8.18-4.61,4.19,0,9.47,1.71,9.47,9.42v18.43Z"/>
    <path class="st0" d="M876.43,20.19c-.57-3.62-2.59-5.8-6.42-5.8-5.64,0-7.45,5.38-7.45,10.2s1.14,10.4,7.4,10.4c3.05,0,5.69-2.28,6.47-6.42h4.4c-.47,4.3-3.11,10.35-11.03,10.35s-12.11-5.75-12.11-13.56c0-8.39,4.04-15.06,12.99-15.06,7.09,0,9.78,5.18,10.15,9.89h-4.4Z"/>
    <path class="st0" d="M908.37,29.66c-.16,1.29-1.4,5.12-4.81,7.4-1.24.83-3,1.86-7.35,1.86-7.61,0-12.11-5.75-12.11-13.56,0-8.39,4.04-15.06,12.99-15.06,7.82,0,11.65,6.21,11.65,15.79h-19.77c0,5.64,2.64,8.9,7.87,8.9,4.3,0,6.83-3.31,6.99-5.33h4.56ZM904.02,22.47c-.26-4.19-2.02-8.07-7.56-8.07-4.19,0-7.51,3.88-7.51,8.07h15.06Z"/>
    <path class="st0" d="M951.01,38.15h-4.3v-3.73h-.1c-1.97,3.68-5.07,4.5-7.71,4.5-9.21,0-11.91-8.64-11.91-15.11,0-7.61,4.09-13.51,11.28-13.51,4.92,0,6.99,3.05,8.08,4.61h.1V.99h4.55v37.16ZM939.01,34.99c2.9,0,7.4-1.92,7.4-9.11,0-4.4-.72-11.49-7.3-11.49-7.04,0-7.4,6.68-7.4,10.15,0,5.95,2.33,10.46,7.3,10.46Z"/>
    <path class="st0" d="M974.98,38.15v-3.93l-.1-.1c-1.92,3.16-4.24,4.81-8.59,4.81-3.99,0-8.8-1.92-8.8-8.39V11.08h4.56v17.96c0,4.45,2.28,5.95,5.23,5.95,5.75,0,7.45-5.07,7.45-9.01v-14.91h4.55v27.07h-4.3Z"/>
    <path class="st0" d="M1005.67,38.15h-4.55V11.08h4.3v4.5h.1c1.81-3.16,4.19-5.28,7.61-5.28.57,0,.83.05,1.19.16v4.71h-1.71c-4.24,0-6.94,3.31-6.94,7.25v15.74Z"/>
    <path class="st0" d="M1040.71,29.66c-.16,1.29-1.4,5.12-4.81,7.4-1.24.83-3,1.86-7.35,1.86-7.61,0-12.11-5.75-12.11-13.56,0-8.39,4.04-15.06,12.99-15.06,7.82,0,11.65,6.21,11.65,15.79h-19.77c0,5.64,2.64,8.9,7.87,8.9,4.3,0,6.83-3.31,6.99-5.33h4.56ZM1036.36,22.47c-.26-4.19-2.02-8.07-7.56-8.07-4.19,0-7.51,3.88-7.51,8.07h15.06Z"/>
    <path class="st0" d="M1063.64,11.08h4.97l-10.3,27.07h-4.87l-9.89-27.07h5.28l7.04,22.05h.1l7.66-22.05Z"/>
    <path class="st0" d="M1095.36,29.66c-.16,1.29-1.4,5.12-4.81,7.4-1.24.83-3,1.86-7.35,1.86-7.61,0-12.11-5.75-12.11-13.56,0-8.39,4.04-15.06,12.99-15.06,7.82,0,11.65,6.21,11.65,15.79h-19.77c0,5.64,2.64,8.9,7.87,8.9,4.3,0,6.83-3.31,6.99-5.33h4.56ZM1091.02,22.47c-.26-4.19-2.02-8.07-7.56-8.07-4.19,0-7.51,3.88-7.51,8.07h15.06Z"/>
    <path class="st0" d="M1123.21,38.15h-4.55v-16.67c0-4.71-1.35-7.09-5.8-7.09-2.59,0-7.14,1.66-7.14,9.01v14.75h-4.56V11.08h4.3v3.83h.1c.98-1.45,3.52-4.61,8.18-4.61,4.19,0,9.47,1.71,9.47,9.42v18.43Z"/>
    <path class="st0" d="M1147.59,38.15v-3.93l-.1-.1c-1.92,3.16-4.24,4.81-8.59,4.81-3.99,0-8.8-1.92-8.8-8.39V11.08h4.56v17.96c0,4.45,2.28,5.95,5.23,5.95,5.75,0,7.45-5.07,7.45-9.01v-14.91h4.55v27.07h-4.3Z"/>
    <path class="st0" d="M761.12,88.61h-4.3v-3.73h-.1c-1.97,3.68-5.07,4.5-7.71,4.5-9.21,0-11.91-8.64-11.91-15.11,0-7.61,4.09-13.51,11.28-13.51,4.92,0,6.99,3.05,8.08,4.61h.1v-13.92h4.55v37.16ZM749.11,85.46c2.9,0,7.4-1.91,7.4-9.11,0-4.4-.72-11.49-7.3-11.49-7.04,0-7.4,6.68-7.4,10.15,0,5.95,2.33,10.46,7.3,10.46Z"/>
    <path class="st0" d="M785.08,88.61v-3.93l-.1-.1c-1.92,3.16-4.24,4.81-8.59,4.81-3.99,0-8.8-1.92-8.8-8.39v-19.46h4.56v17.96c0,4.45,2.28,5.95,5.23,5.95,5.75,0,7.45-5.07,7.45-9.01v-14.91h4.55v27.07h-4.3Z"/>
    <path class="st0" d="M837.25,62.63c-1.4-6.52-6.83-7.71-10.4-7.71-6.73,0-12.16,4.97-12.16,14.75,0,8.75,3.11,15.48,12.32,15.48,3.26,0,8.9-1.55,10.61-10.2h4.87c-2.07,14.03-13.46,14.65-16.25,14.65-8.44,0-16.72-5.49-16.72-19.77,0-11.44,6.52-19.36,17.34-19.36,9.58,0,14.55,5.95,15.27,12.16h-4.87Z"/>
    <path class="st0" d="M847.81,69.77c.21-6.47,4.5-9.01,11.18-9.01,2.17,0,10.04.62,10.04,7.56v15.58c0,1.14.57,1.61,1.5,1.61.41,0,.98-.1,1.5-.21v3.31c-.78.21-1.45.52-2.49.52-4.04,0-4.66-2.07-4.81-4.14-1.76,1.92-4.5,4.4-9.78,4.4-4.97,0-8.49-3.16-8.49-7.82,0-2.28.67-7.56,8.23-8.49l7.51-.93c1.09-.1,2.38-.52,2.38-3.21,0-2.85-2.07-4.4-6.37-4.4-5.18,0-5.9,3.16-6.21,5.23h-4.19ZM864.47,74.79c-.72.57-1.86.98-7.51,1.71-2.23.31-5.8.98-5.8,4.4,0,2.95,1.5,4.71,4.92,4.71,4.24,0,8.38-2.74,8.38-6.37v-4.45Z"/>
    <path class="st0" d="M898.79,88.61h-4.55v-16.67c0-4.71-1.35-7.09-5.8-7.09-2.59,0-7.14,1.66-7.14,9.01v14.75h-4.56v-27.07h4.3v3.83h.1c.98-1.45,3.52-4.61,8.18-4.61,4.19,0,9.47,1.71,9.47,9.42v18.43Z"/>
    <path class="st0" d="M905.36,69.77c.21-6.47,4.5-9.01,11.18-9.01,2.17,0,10.04.62,10.04,7.56v15.58c0,1.14.57,1.61,1.5,1.61.41,0,.98-.1,1.5-.21v3.31c-.78.21-1.45.52-2.49.52-4.04,0-4.66-2.07-4.81-4.14-1.76,1.92-4.5,4.4-9.78,4.4-4.97,0-8.49-3.16-8.49-7.82,0-2.28.67-7.56,8.23-8.49l7.51-.93c1.09-.1,2.38-.52,2.38-3.21,0-2.85-2.07-4.4-6.37-4.4-5.18,0-5.9,3.16-6.21,5.23h-4.19ZM922.03,74.79c-.72.57-1.86.98-7.51,1.71-2.23.31-5.8.98-5.8,4.4,0,2.95,1.5,4.71,4.92,4.71,4.24,0,8.38-2.74,8.38-6.37v-4.45Z"/>
    <path class="st0" d="M956.76,88.61h-4.3v-3.73h-.1c-1.97,3.68-5.07,4.5-7.71,4.5-9.21,0-11.91-8.64-11.91-15.11,0-7.61,4.09-13.51,11.28-13.51,4.92,0,6.99,3.05,8.08,4.61h.1v-13.92h4.55v37.16ZM944.75,85.46c2.9,0,7.4-1.91,7.4-9.11,0-4.4-.72-11.49-7.3-11.49-7.04,0-7.4,6.68-7.4,10.15,0,5.95,2.33,10.46,7.3,10.46Z"/>
    <path class="st0" d="M962.92,69.77c.21-6.47,4.5-9.01,11.18-9.01,2.17,0,10.04.62,10.04,7.56v15.58c0,1.14.57,1.61,1.5,1.61.41,0,.98-.1,1.5-.21v3.31c-.78.21-1.45.52-2.49.52-4.04,0-4.66-2.07-4.81-4.14-1.76,1.92-4.5,4.4-9.78,4.4-4.97,0-8.49-3.16-8.49-7.82,0-2.28.67-7.56,8.23-8.49l7.51-.93c1.09-.1,2.38-.52,2.38-3.21,0-2.85-2.07-4.4-6.37-4.4-5.18,0-5.9,3.16-6.21,5.23h-4.19ZM979.58,74.79c-.72.57-1.86.98-7.51,1.71-2.23.31-5.8.98-5.8,4.4,0,2.95,1.5,4.71,4.92,4.71,4.24,0,8.38-2.74,8.38-6.37v-4.45Z"/>
  </g>
  <g>
    <path class="st0" d="M286.79,12.16c-1.4-6.52-6.83-7.71-10.4-7.71-6.73,0-12.16,4.97-12.16,14.75,0,8.75,3.11,15.48,12.32,15.48,3.26,0,8.9-1.55,10.61-10.2h4.87c-2.07,14.03-13.46,14.65-16.25,14.65-8.44,0-16.72-5.49-16.72-19.77,0-11.44,6.52-19.36,17.34-19.36,9.58,0,14.54,5.95,15.27,12.16h-4.87Z"/>
    <path class="st0" d="M297.34,19.31c.21-6.47,4.5-9.01,11.18-9.01,2.17,0,10.04.62,10.04,7.56v15.58c0,1.14.57,1.6,1.5,1.6.41,0,.98-.1,1.5-.21v3.31c-.78.21-1.45.52-2.48.52-4.04,0-4.66-2.07-4.81-4.14-1.76,1.92-4.5,4.4-9.78,4.4-4.97,0-8.49-3.16-8.49-7.82,0-2.28.67-7.56,8.23-8.49l7.51-.93c1.09-.1,2.38-.52,2.38-3.21,0-2.85-2.07-4.4-6.37-4.4-5.18,0-5.9,3.16-6.21,5.23h-4.19ZM314.01,24.33c-.72.57-1.86.98-7.51,1.71-2.23.31-5.8.98-5.8,4.4,0,2.95,1.5,4.71,4.92,4.71,4.24,0,8.39-2.74,8.39-6.37v-4.45Z"/>
    <path class="st0" d="M348.33,38.15h-4.56v-16.67c0-4.71-1.35-7.09-5.8-7.09-2.59,0-7.14,1.66-7.14,9.01v14.75h-4.55V11.08h4.3v3.83h.1c.98-1.45,3.52-4.61,8.18-4.61,4.19,0,9.47,1.71,9.47,9.42v18.43Z"/>
    <path class="st0" d="M354.9,19.31c.21-6.47,4.5-9.01,11.18-9.01,2.17,0,10.04.62,10.04,7.56v15.58c0,1.14.57,1.6,1.5,1.6.41,0,.98-.1,1.5-.21v3.31c-.78.21-1.45.52-2.48.52-4.04,0-4.66-2.07-4.81-4.14-1.76,1.92-4.5,4.4-9.78,4.4-4.97,0-8.49-3.16-8.49-7.82,0-2.28.67-7.56,8.23-8.49l7.51-.93c1.09-.1,2.38-.52,2.38-3.21,0-2.85-2.07-4.4-6.37-4.4-5.18,0-5.9,3.16-6.21,5.23h-4.19ZM371.57,24.33c-.72.57-1.86.98-7.51,1.71-2.23.31-5.8.98-5.8,4.4,0,2.95,1.5,4.71,4.92,4.71,4.24,0,8.39-2.74,8.39-6.37v-4.45Z"/>
    <path class="st0" d="M406.29,38.15h-4.3v-3.73h-.1c-1.97,3.68-5.07,4.5-7.71,4.5-9.21,0-11.91-8.64-11.91-15.11,0-7.61,4.09-13.51,11.28-13.51,4.92,0,6.99,3.05,8.07,4.61h.1V.98h4.55v37.16ZM394.29,34.99c2.9,0,7.4-1.92,7.4-9.11,0-4.4-.72-11.49-7.3-11.49-7.04,0-7.4,6.68-7.4,10.15,0,5.95,2.33,10.46,7.3,10.46Z"/>
    <path class="st0" d="M412.45,19.31c.21-6.47,4.5-9.01,11.18-9.01,2.17,0,10.04.62,10.04,7.56v15.58c0,1.14.57,1.6,1.5,1.6.41,0,.98-.1,1.5-.21v3.31c-.78.21-1.45.52-2.48.52-4.04,0-4.66-2.07-4.81-4.14-1.76,1.92-4.5,4.4-9.78,4.4-4.97,0-8.49-3.16-8.49-7.82,0-2.28.67-7.56,8.23-8.49l7.51-.93c1.09-.1,2.38-.52,2.38-3.21,0-2.85-2.07-4.4-6.37-4.4-5.18,0-5.9,3.16-6.21,5.23h-4.19ZM429.12,24.33c-.72.57-1.86.98-7.51,1.71-2.23.31-5.8.98-5.8,4.4,0,2.95,1.5,4.71,4.92,4.71,4.24,0,8.39-2.74,8.39-6.37v-4.45Z"/>
    <path class="st0" d="M461.98,38.15h-5.02V.98h17.18c6.11,0,12.22,2.12,12.22,9.99,0,5.49-2.79,7.51-5.18,8.9,2.12.88,4.24,1.81,4.45,6.99l.31,6.73c.05,2.07.31,2.85,1.86,3.73v.83h-6.16c-.72-2.28-.88-7.92-.88-9.32,0-3.05-.62-6.63-6.63-6.63h-12.16v15.94ZM461.98,17.91h11.65c3.68,0,7.56-.93,7.56-6.42s-4.19-6.21-6.68-6.21h-12.53v12.63Z"/>
    <path class="st0" d="M516.12,29.66c-.16,1.29-1.4,5.12-4.81,7.4-1.24.83-3,1.86-7.35,1.86-7.61,0-12.11-5.75-12.11-13.56,0-8.39,4.04-15.06,12.99-15.06,7.82,0,11.65,6.21,11.65,15.79h-19.77c0,5.64,2.64,8.9,7.87,8.9,4.3,0,6.83-3.31,6.99-5.33h4.55ZM511.78,22.46c-.26-4.19-2.02-8.07-7.56-8.07-4.19,0-7.51,3.88-7.51,8.07h15.06Z"/>
    <path class="st0" d="M539.05,11.08h4.97l-10.3,27.07h-4.87l-9.89-27.07h5.28l7.04,22.05h.1l7.66-22.05Z"/>
    <path class="st0" d="M570.78,29.66c-.16,1.29-1.4,5.12-4.81,7.4-1.24.83-3,1.86-7.35,1.86-7.61,0-12.11-5.75-12.11-13.56,0-8.39,4.04-15.06,12.99-15.06,7.82,0,11.65,6.21,11.65,15.79h-19.77c0,5.64,2.64,8.9,7.87,8.9,4.3,0,6.83-3.31,6.99-5.33h4.55ZM566.43,22.46c-.26-4.19-2.02-8.07-7.56-8.07-4.19,0-7.51,3.88-7.51,8.07h15.06Z"/>
    <path class="st0" d="M598.62,38.15h-4.56v-16.67c0-4.71-1.35-7.09-5.8-7.09-2.59,0-7.14,1.66-7.14,9.01v14.75h-4.56V11.08h4.3v3.83h.1c.98-1.45,3.52-4.61,8.18-4.61,4.19,0,9.47,1.71,9.47,9.42v18.43Z"/>
    <path class="st0" d="M623,38.15v-3.93l-.1-.1c-1.92,3.16-4.24,4.81-8.59,4.81-3.99,0-8.8-1.92-8.8-8.39V11.08h4.56v17.96c0,4.45,2.28,5.95,5.23,5.95,5.75,0,7.45-5.07,7.45-9.01v-14.91h4.55v27.07h-4.3Z"/>
    <path class="st0" d="M657.11,29.66c-.16,1.29-1.4,5.12-4.81,7.4-1.24.83-3,1.86-7.35,1.86-7.61,0-12.11-5.75-12.11-13.56,0-8.39,4.04-15.06,12.99-15.06,7.82,0,11.65,6.21,11.65,15.79h-19.77c0,5.64,2.64,8.9,7.87,8.9,4.3,0,6.83-3.31,6.99-5.33h4.56ZM652.76,22.46c-.26-4.19-2.02-8.07-7.56-8.07-4.19,0-7.51,3.88-7.51,8.07h15.06Z"/>
    <path class="st0" d="M266.55,77.79l-3.88,10.82h-5.18l13.98-37.16h5.69l13.46,37.16h-5.49l-3.68-10.82h-14.91ZM279.64,73.34l-5.49-16.36h-.1l-5.95,16.36h11.54Z"/>
    <path class="st0" d="M317.12,86.39c0,3.88-.05,13.61-12.58,13.61-3.21,0-9.47-.88-10.35-8.08h4.56c.83,4.3,5.02,4.3,6.11,4.3,7.56,0,7.71-5.85,7.71-9.16v-1.5c-1.29,2.17-3.68,3.83-7.3,3.83-9.21,0-11.91-8.64-11.91-15.11,0-7.61,4.09-13.51,11.28-13.51,4.92,0,7.04,3.11,8.18,4.76v-3.99h4.3v24.85ZM305.37,85.45c2.9,0,7.4-1.91,7.4-9.11,0-4.4-.72-11.49-7.3-11.49-7.04,0-7.4,6.68-7.4,10.15,0,5.95,2.33,10.46,7.3,10.46Z"/>
    <path class="st0" d="M346.41,80.12c-.16,1.29-1.4,5.12-4.81,7.4-1.24.83-3,1.86-7.35,1.86-7.61,0-12.11-5.75-12.11-13.56,0-8.39,4.04-15.06,12.99-15.06,7.82,0,11.65,6.21,11.65,15.79h-19.77c0,5.64,2.64,8.9,7.87,8.9,4.3,0,6.83-3.31,6.99-5.33h4.55ZM342.06,72.93c-.26-4.19-2.02-8.08-7.56-8.08-4.19,0-7.51,3.88-7.51,8.08h15.06Z"/>
    <path class="st0" d="M374.26,88.61h-4.56v-16.67c0-4.71-1.35-7.09-5.8-7.09-2.59,0-7.14,1.66-7.14,9.01v14.75h-4.55v-27.07h4.3v3.83h.1c.98-1.45,3.52-4.61,8.18-4.61,4.19,0,9.47,1.71,9.47,9.42v18.43Z"/>
    <path class="st0" d="M397.91,70.65c-.57-3.62-2.59-5.8-6.42-5.8-5.64,0-7.45,5.38-7.45,10.2s1.14,10.4,7.4,10.4c3.05,0,5.69-2.28,6.47-6.42h4.4c-.47,4.3-3.11,10.35-11.02,10.35s-12.11-5.75-12.11-13.56c0-8.39,4.04-15.06,12.99-15.06,7.09,0,9.78,5.18,10.15,9.89h-4.4Z"/>
    <path class="st0" d="M423.79,61.54h5.02c-3.16,8.85-6.26,17.7-9.73,26.55-4.3,10.97-4.76,11.6-10.61,11.6-.67,0-1.19-.21-1.92-.41v-4.14c.57.21,1.5.47,2.74.47,2.38,0,2.64-.67,4.81-6.26l-10.04-27.8h5.18l7.19,22.05h.1l7.25-22.05Z"/>
  </g>
  <g>
    <rect class="st1" x=".12" y=".76" width="43.91" height="87.56"/>
    <path class="st1" d="M90.01,81.78s-1.04-14.75-1.04-16.47c0-1.38,1.38-2.06,2.77-1.72,1.38.34,15.56,3.44,15.56,3.44,0,0-.68-3.09-1.39-5.16-1.04-2.41,0-2.75.7-3.42.34-.36,15.2-13.4,15.2-13.4l-2.42-1.03c-1.38-.68-1.38-1.71-1.04-2.75.35-1.04,2.42-9.27,2.42-9.27,0,0-6.21,1.04-7.95,1.37-1.38,0-1.72-.33-2.08-1.03-.34-.68-1.72-4.45-1.72-4.45,0,0-7.95,8.59-8.3,8.59-1.38,1.36-2.76.34-2.41-1.04.34-1.71,4.14-18.89,4.14-18.89,0,0-4.14,2.41-5.88,3.43-1.38.68-2.07.34-3.11-.69-.68-1.72-5.88-11.68-5.88-11.68h0s-4.5,9.96-5.19,11.68c-1.04,1.02-1.73,1.37-3.11.69-1.73-1.02-5.88-3.43-5.88-3.43,0,0,3.8,17.18,4.14,18.89,0,1.38-1.03,2.4-2.76,1.04l-7.95-8.59s-2.07,3.77-2.42,4.45c-.35.7-.69,1.03-1.38,1.03-1.73-.33-8.3-1.37-8.3-1.37,0,0,2.41,8.23,2.76,9.27.36,1.03.36,2.07-1.03,2.75l-2.42,1.03s14.86,13.04,15.21,13.4c1.04.67,1.73,1.01,1.04,3.42-1.04,2.07-2.08,5.16-2.08,5.16,0,0,14.52-3.09,15.91-3.44,1.39-.34,2.43.34,2.43,1.72,0,1.72-.35,16.47-.35,16.47h3.8Z"/>
    <rect class="st1" x="132.19" y=".76" width="43.9" height="87.56"/>
  </g>
</svg>