<svg id="Layer_1" data-name="Layer 1" xmlns="http://www.w3.org/2000/svg" viewBox="0 0 448.32 86.51"><defs><style>.cls-1{fill:#bd472a;}.cls-2{fill:#004976;}</style></defs><polygon class="cls-1" points="209.44 27.23 224.86 42.8 240.56 26.95 225.08 0.13 209.44 27.23"/><polygon class="cls-1" points="221.3 74.26 191.67 44.34 166.72 44.25 196.44 74.27 221.3 74.26"/><polygon class="cls-1" points="258.33 44.34 228.7 74.26 253.55 74.27 283.28 44.25 258.33 44.34"/><polygon class="cls-1" points="223.27 46.21 193.64 16.29 193.64 41.38 223.36 71.4 223.27 46.21"/><polygon class="cls-1" points="256.36 16.29 226.72 46.21 226.64 71.4 256.36 41.38 256.36 16.29"/><polygon class="cls-1" points="223.86 77.11 219.58 77.11 225 86.51 230.42 77.11 223.86 77.11"/><path class="cls-2" d="M146.8,60.53l1.92,5.36h-3.85Zm-3.88,10.82,1.23-3.43h5.31l1.23,3.43h2.77l-5.2-13h-2.77l-5.18,13Zm-5.74-6.53q0,4.43-4.69,4.42h-2.16V60.41h2.16q4.69,0,4.69,4.41m-4.63,6.53a9.34,9.34,0,0,0,4-.77A5.71,5.71,0,0,0,139,68.34a7.71,7.71,0,0,0,0-7,5.51,5.51,0,0,0-2.44-2.23,8.93,8.93,0,0,0-3.87-.77h-5v13ZM119.12,60.53,121,65.89H117.2Zm-3.88,10.82,1.24-3.43h5.3L123,71.35h2.76l-5.2-13h-2.76l-5.19,13Zm-13.84,0V62.11l6.95,9.24h2.32v-13h-2.38v9.25l-7-9.25H99v13Zm-11-10.82,1.92,5.36H88.47ZM86.52,71.35l1.23-3.43h5.31l1.23,3.43h2.77l-5.21-13H89.09l-5.18,13Zm-6.06-.09a7.93,7.93,0,0,0,2-.77l-.27-2.28a10.05,10.05,0,0,1-1.92.74,7.43,7.43,0,0,1-1.9.27A4.92,4.92,0,0,1,76,68.68a3.84,3.84,0,0,1-1.55-1.52,4.63,4.63,0,0,1-.55-2.32,4.71,4.71,0,0,1,.55-2.32A3.89,3.89,0,0,1,76,61a4.64,4.64,0,0,1,2.31-.55,8.06,8.06,0,0,1,3.61.94l.43-2.21a7,7,0,0,0-1.9-.77,9.17,9.17,0,0,0-2.17-.28,8,8,0,0,0-2.86.5A6.84,6.84,0,0,0,73.2,60a6.33,6.33,0,0,0-1.47,2.15,7.13,7.13,0,0,0-.51,2.73,6.86,6.86,0,0,0,.86,3.5,5.85,5.85,0,0,0,2.43,2.32,7.75,7.75,0,0,0,3.66.83,9.38,9.38,0,0,0,2.29-.28"/><path class="cls-2" d="M143,49.89V40.65L150,49.89h2.32v-13H149.9v9.25l-7-9.25h-2.32v13Zm-13.86-2.63a4.08,4.08,0,0,1-1.48-1.6,5.19,5.19,0,0,1,0-4.61,4.18,4.18,0,0,1,5.81-1.58A4.05,4.05,0,0,1,135,41.05a5.23,5.23,0,0,1,0,4.63,4,4,0,0,1-1.49,1.59,4.1,4.1,0,0,1-2.16.57,4,4,0,0,1-2.17-.58M134,49.65a6.85,6.85,0,0,0,2.2-1.45A6.47,6.47,0,0,0,137.71,46a7,7,0,0,0,.52-2.68,6.85,6.85,0,0,0-.52-2.71,6.33,6.33,0,0,0-1.45-2.15,6.49,6.49,0,0,0-2.19-1.43,7.49,7.49,0,0,0-5.46,0,6.73,6.73,0,0,0-3.66,3.6,6.81,6.81,0,0,0-.52,2.68,7.07,7.07,0,0,0,.51,2.71,6.42,6.42,0,0,0,1.45,2.16,6.75,6.75,0,0,0,2.19,1.43,7.43,7.43,0,0,0,2.75.5,7.11,7.11,0,0,0,2.71-.51M122,36.84H119.4v13H122Zm-9,13V39h4.2V36.84h-11V39h4.21V49.89Zm-10.44-.09a7.93,7.93,0,0,0,2-.77l-.27-2.28a10,10,0,0,1-1.92.73,7,7,0,0,1-1.89.28,4.94,4.94,0,0,1-2.37-.54,3.91,3.91,0,0,1-1.55-1.52,4.74,4.74,0,0,1-.55-2.32,4.82,4.82,0,0,1,.55-2.32,3.83,3.83,0,0,1,1.55-1.54,4.64,4.64,0,0,1,2.31-.55,8.06,8.06,0,0,1,3.61.94l.43-2.21a7,7,0,0,0-1.9-.77,8.68,8.68,0,0,0-2.17-.28,8,8,0,0,0-2.86.5,6.84,6.84,0,0,0-2.25,1.4,6.29,6.29,0,0,0-1.47,2.14,7.19,7.19,0,0,0-.51,2.74,7,7,0,0,0,.86,3.5,5.85,5.85,0,0,0,2.43,2.32,7.75,7.75,0,0,0,3.66.83,9.9,9.9,0,0,0,2.29-.28m-13.2-1.15a5.8,5.8,0,0,0,1.52-4.29V36.84H88.28v7.33q0,3.67-3.15,3.67T82,44.17V36.84H79.36v7.52a5.83,5.83,0,0,0,1.5,4.28,5.68,5.68,0,0,0,4.25,1.52,5.79,5.79,0,0,0,4.28-1.51M74,41.05c0,1.48-.9,2.23-2.7,2.23H69.88V38.81h1.46c1.74,0,2.61.75,2.61,2.24m-4.07,8.84V45.25h2.23l2.75,4.64h2.93L74.36,44.6a4.61,4.61,0,0,0,1.55-1.43,3.75,3.75,0,0,0,.6-2.11,4.19,4.19,0,0,0-.59-2.25,3.88,3.88,0,0,0-1.66-1.46,6,6,0,0,0-2.58-.51H67.39v13Zm-8.86,0V39h4.21V36.84h-11V39h4.2V49.89Zm-9.44-.78a3.55,3.55,0,0,0,1.32-2.93,3.34,3.34,0,0,0-.43-1.73,3.87,3.87,0,0,0-1.37-1.28,11.51,11.51,0,0,0-2.51-1,13.13,13.13,0,0,1-1.4-.54,1.67,1.67,0,0,1-.7-.57,1.32,1.32,0,0,1-.2-.75,1.35,1.35,0,0,1,.58-1.17,2.82,2.82,0,0,1,1.63-.41,6.93,6.93,0,0,1,1.8.26,6.51,6.51,0,0,1,1.65.7l.36-2.11a6.55,6.55,0,0,0-1.79-.71,8.46,8.46,0,0,0-2.1-.27,6.1,6.1,0,0,0-2.48.47,3.79,3.79,0,0,0-1.62,1.32,3.58,3.58,0,0,0-.57,2,3.73,3.73,0,0,0,.38,1.72,3.31,3.31,0,0,0,1.26,1.26,9.8,9.8,0,0,0,2.31,1,12.38,12.38,0,0,1,1.59.59,1.85,1.85,0,0,1,.79.61,1.4,1.4,0,0,1,.23.8,1.47,1.47,0,0,1-.67,1.26,3.18,3.18,0,0,1-1.82.45,7.66,7.66,0,0,1-2.12-.31,8.45,8.45,0,0,1-1.94-.82l-.24,2.18a4.71,4.71,0,0,0,1.21.57,9.78,9.78,0,0,0,1.55.37,9.3,9.3,0,0,0,1.66.14,5.73,5.73,0,0,0,3.64-1m-19.85.78V40.65l7,9.24H41v-13H38.61v9.25l-6.95-9.25H29.34v13ZM17.87,47.26a4.08,4.08,0,0,1-1.48-1.6,5.19,5.19,0,0,1,0-4.61,4.18,4.18,0,0,1,5.81-1.58,4.12,4.12,0,0,1,1.49,1.58,5.23,5.23,0,0,1,0,4.63A4,4,0,0,1,20,47.84a4,4,0,0,1-2.17-.58m4.88,2.39A6.85,6.85,0,0,0,25,48.2,6.3,6.3,0,0,0,26.41,46a6.78,6.78,0,0,0,.53-2.68,6.85,6.85,0,0,0-.52-2.71A6.33,6.33,0,0,0,25,38.5a6.49,6.49,0,0,0-2.19-1.43,7.49,7.49,0,0,0-5.46,0,6.73,6.73,0,0,0-3.66,3.6,6.82,6.82,0,0,0-.53,2.68,7.07,7.07,0,0,0,.52,2.71,6.42,6.42,0,0,0,1.45,2.16,6.65,6.65,0,0,0,2.19,1.43,7.39,7.39,0,0,0,2.75.5,7.14,7.14,0,0,0,2.71-.51M9.24,49.8a7.93,7.93,0,0,0,2-.77L11,46.75a9.78,9.78,0,0,1-1.92.73,7,7,0,0,1-1.89.28,4.9,4.9,0,0,1-2.36-.54A3.87,3.87,0,0,1,3.26,45.7a4.74,4.74,0,0,1-.55-2.32,4.82,4.82,0,0,1,.55-2.32,3.83,3.83,0,0,1,1.55-1.54A4.66,4.66,0,0,1,7.13,39a8.05,8.05,0,0,1,3.6.94l.43-2.21a7,7,0,0,0-1.9-.77,8.68,8.68,0,0,0-2.17-.28,8,8,0,0,0-2.86.5A6.84,6.84,0,0,0,2,38.55,6.13,6.13,0,0,0,.52,40.69a7.52,7.52,0,0,0,.34,6.24,5.85,5.85,0,0,0,2.43,2.32A7.78,7.78,0,0,0,7,50.08a9.9,9.9,0,0,0,2.29-.28"/><path class="cls-2" d="M152.74,28.43V26.38h-6.41V22.79h5.46v-2h-5.46V17.42h6.17v-2h-8.62V28.43Zm-13.43-.09a8,8,0,0,0,2-.77l-.28-2.29a9.12,9.12,0,0,1-1.91.74,7,7,0,0,1-1.9.28,4.92,4.92,0,0,1-2.36-.54,3.78,3.78,0,0,1-1.55-1.52,4.66,4.66,0,0,1-.55-2.32,4.68,4.68,0,0,1,.55-2.32,3.81,3.81,0,0,1,1.54-1.54,4.71,4.71,0,0,1,2.32-.55,8,8,0,0,1,3.6.94l.43-2.21a6.55,6.55,0,0,0-1.89-.77,8.74,8.74,0,0,0-2.17-.28,7.7,7.7,0,0,0-2.86.5,6.49,6.49,0,0,0-2.25,1.4,6,6,0,0,0-1.47,2.14,7.15,7.15,0,0,0-.52,2.74,6.92,6.92,0,0,0,.86,3.49,5.93,5.93,0,0,0,2.43,2.33,7.79,7.79,0,0,0,3.67.82,9.8,9.8,0,0,0,2.28-.27m-20.91.09V19.19l6.95,9.24h2.32v-13h-2.39v9.25l-7-9.25H116V28.43Zm-5.07,0V26.38h-6.4V22.79h5.46v-2h-5.46V17.42h6.16v-2h-8.62V28.43Zm-17,0V23.22h5V21.11h-5V17.49h5.82V15.38H93.73V28.43Zm-5.24,0V26.38H84.64V22.79H90.1v-2H84.64V17.42h6.17v-2H82.19V28.43Zm-14-6.53q0,4.41-4.68,4.41H70.22V17.49h2.17q4.68,0,4.68,4.41m-4.63,6.53a9.18,9.18,0,0,0,4-.78,5.59,5.59,0,0,0,2.51-2.24,6.79,6.79,0,0,0,.87-3.53,6.91,6.91,0,0,0-.85-3.51,5.49,5.49,0,0,0-2.44-2.22,8.79,8.79,0,0,0-3.87-.77h-5V28.43Z"/><path class="cls-2" d="M371.61,60.53l1.92,5.36h-3.84Zm-3.88,10.82L369,67.92h5.31l1.24,3.43h2.76l-5.2-13H370.3l-5.18,13ZM362,64.82q0,4.43-4.68,4.42h-2.17V60.41h2.17q4.68,0,4.68,4.41m-4.63,6.53a9.34,9.34,0,0,0,4-.77,5.71,5.71,0,0,0,2.51-2.24,7.63,7.63,0,0,0,0-7,5.51,5.51,0,0,0-2.44-2.23,8.93,8.93,0,0,0-3.87-.77h-5v13ZM343.93,60.53l1.92,5.36H342Zm-3.88,10.82,1.24-3.43h5.3l1.24,3.43h2.76l-5.2-13h-2.76l-5.19,13Zm-13.84,0V62.11l7,9.24h2.31v-13H333.1v9.25l-7-9.25h-2.31v13Zm-11-10.82,1.92,5.36h-3.85Zm-3.88,10.82,1.23-3.43h5.31l1.23,3.43h2.77l-5.2-13H313.9l-5.18,13Zm-6.06-.09a7.93,7.93,0,0,0,2-.77L307,68.21a10.05,10.05,0,0,1-1.92.74,7.42,7.42,0,0,1-1.89.27,4.94,4.94,0,0,1-2.37-.54,3.84,3.84,0,0,1-1.55-1.52,4.63,4.63,0,0,1-.55-2.32,4.71,4.71,0,0,1,.55-2.32A3.89,3.89,0,0,1,300.84,61a4.64,4.64,0,0,1,2.31-.55,8.06,8.06,0,0,1,3.61.94l.43-2.21a7,7,0,0,0-1.9-.77,9.17,9.17,0,0,0-2.17-.28,8,8,0,0,0-2.86.5A6.84,6.84,0,0,0,298,60a6.33,6.33,0,0,0-1.47,2.15,7.13,7.13,0,0,0-.51,2.73,6.86,6.86,0,0,0,.86,3.5,5.85,5.85,0,0,0,2.43,2.32,7.75,7.75,0,0,0,3.66.83,9.38,9.38,0,0,0,2.29-.28"/><path class="cls-2" d="M410.08,49.89v-2h-6.4V44.26h5.46v-2h-5.46V38.88h6.16v-2h-8.62v13Zm-12.86-.78a3.53,3.53,0,0,0,1.33-2.93,3.44,3.44,0,0,0-.43-1.73,3.83,3.83,0,0,0-1.38-1.28,11.41,11.41,0,0,0-2.5-1,12.33,12.33,0,0,1-1.4-.54,1.71,1.71,0,0,1-.71-.57,1.39,1.39,0,0,1-.19-.75,1.33,1.33,0,0,1,.58-1.16,2.75,2.75,0,0,1,1.63-.42A6.93,6.93,0,0,1,396,39a6.51,6.51,0,0,1,1.65.7l.36-2.11a6.89,6.89,0,0,0-1.79-.71,8.52,8.52,0,0,0-2.1-.27,6.06,6.06,0,0,0-2.48.47A3.68,3.68,0,0,0,390,38.35a3.91,3.91,0,0,0-.19,3.75A3.31,3.31,0,0,0,391,43.36a9.7,9.7,0,0,0,2.3,1,12.05,12.05,0,0,1,1.6.59,1.85,1.85,0,0,1,.79.61,1.39,1.39,0,0,1,.22.8,1.45,1.45,0,0,1-.66,1.26,3.22,3.22,0,0,1-1.83.45,7.77,7.77,0,0,1-2.12-.31,8.56,8.56,0,0,1-1.93-.82l-.24,2.18a4.79,4.79,0,0,0,1.2.57,9.91,9.91,0,0,0,1.56.37,9.19,9.19,0,0,0,1.65.14,5.69,5.69,0,0,0,3.64-1m-19.84.78V40.65l6.95,9.24h2.32v-13h-2.39v9.25l-6.95-9.25H375v13Zm-5.07,0v-2h-6.4V44.26h5.46v-2h-5.46V38.88h6.16v-2h-8.62v13Zm-17.05,0v-5.2h5V42.57h-5V39h5.82V36.84H352.7v13Zm-9.18-14.34,2.59-2.45h-2.89l-1.95,2.45ZM350,49.89v-2h-6.41V44.26h5.46v-2h-5.46V38.88h6.17v-2h-8.62v13Zm-14-6.53c0,2.94-1.56,4.42-4.69,4.42H329.2V39h2.16q4.69,0,4.69,4.41m-4.64,6.53a9.2,9.2,0,0,0,4-.78,5.59,5.59,0,0,0,2.51-2.24,6.85,6.85,0,0,0,.86-3.52,6.92,6.92,0,0,0-.84-3.52,5.57,5.57,0,0,0-2.45-2.22,8.93,8.93,0,0,0-3.87-.77h-5v13Zm-11.24,0v-2h-6.41V44.26h5.46v-2h-5.46V38.88h6.17v-2h-8.62v13Zm-14-6.53c0,2.94-1.56,4.42-4.69,4.42h-2.16V39h2.16q4.69,0,4.69,4.41m-4.63,6.53a9.18,9.18,0,0,0,4-.78A5.59,5.59,0,0,0,308,46.87a6.76,6.76,0,0,0,.87-3.52,6.92,6.92,0,0,0-.85-3.52,5.55,5.55,0,0,0-2.44-2.22,8.93,8.93,0,0,0-3.87-.77h-5v13Z"/><path class="cls-2" d="M439.05,28.43V19.19L446,28.43h2.32v-13h-2.39v9.25L439,15.38h-2.32V28.43ZM425.19,25.8a4.08,4.08,0,0,1-1.48-1.6,4.79,4.79,0,0,1-.54-2.3,4.87,4.87,0,0,1,.54-2.32,4,4,0,0,1,3.65-2.16,4,4,0,0,1,2.16.58A4.12,4.12,0,0,1,431,19.59a4.7,4.7,0,0,1,.55,2.31,4.76,4.76,0,0,1-.55,2.32,4,4,0,0,1-3.64,2.16,4,4,0,0,1-2.17-.58m4.88,2.38a6.77,6.77,0,0,0,2.2-1.44,6.5,6.5,0,0,0,1.46-2.16,6.78,6.78,0,0,0,.53-2.68,6.85,6.85,0,0,0-.52-2.71A6.37,6.37,0,0,0,432.29,17a6.62,6.62,0,0,0-2.19-1.42,7.19,7.19,0,0,0-2.74-.51,7,7,0,0,0-2.72.52,6.73,6.73,0,0,0-3.66,3.6,6.82,6.82,0,0,0-.53,2.68,7.11,7.11,0,0,0,.52,2.71,6.49,6.49,0,0,0,3.64,3.58,7.2,7.2,0,0,0,2.75.51,7,7,0,0,0,2.71-.52m-12-12.8h-2.63V28.43h2.63Zm-9,13.05V17.52h4.21V15.38h-11v2.14h4.21V28.43Zm-10.44-.09a7.86,7.86,0,0,0,2-.77l-.27-2.29a9.43,9.43,0,0,1-1.92.74,7.47,7.47,0,0,1-1.9.28,4.92,4.92,0,0,1-2.36-.54,3.91,3.91,0,0,1-1.55-1.52,4.66,4.66,0,0,1-.55-2.32,4.68,4.68,0,0,1,.55-2.32,3.92,3.92,0,0,1,1.55-1.55,4.75,4.75,0,0,1,2.31-.54,8.06,8.06,0,0,1,3.61.94l.43-2.22a7,7,0,0,0-1.9-.76,8.68,8.68,0,0,0-2.17-.28,7.74,7.74,0,0,0-2.86.5,6.82,6.82,0,0,0-2.25,1.39,6.43,6.43,0,0,0-1.47,2.15,7.15,7.15,0,0,0-.51,2.74,6.82,6.82,0,0,0,.86,3.49,5.81,5.81,0,0,0,2.43,2.33,7.72,7.72,0,0,0,3.66.82,9.74,9.74,0,0,0,2.28-.27m-13.19-1.15a5.8,5.8,0,0,0,1.52-4.29V15.38h-2.63v7.33q0,3.67-3.16,3.67T378,22.71V15.38h-2.62V22.9a5.83,5.83,0,0,0,1.5,4.28,5.72,5.72,0,0,0,4.25,1.52,5.79,5.79,0,0,0,4.28-1.51M370,19.58c0,1.49-.9,2.24-2.7,2.24h-1.37V17.35h1.46c1.74,0,2.61.75,2.61,2.23m-4.07,8.85V23.79h2.23l2.75,4.64h2.93l-3.43-5.29a4.52,4.52,0,0,0,1.54-1.44,3.7,3.7,0,0,0,.61-2.1,4.19,4.19,0,0,0-.59-2.25,3.82,3.82,0,0,0-1.66-1.46,6,6,0,0,0-2.58-.51h-4.29V28.43Zm-8.86,0V17.52h4.2V15.38h-11v2.14h4.21V28.43Zm-9.45-.79a3.51,3.51,0,0,0,1.33-2.92A3.41,3.41,0,0,0,348.5,23a3.85,3.85,0,0,0-1.38-1.29,12.48,12.48,0,0,0-2.5-1,9.88,9.88,0,0,1-1.4-.54,1.68,1.68,0,0,1-.71-.56,1.39,1.39,0,0,1-.19-.75,1.35,1.35,0,0,1,.58-1.17,2.82,2.82,0,0,1,1.63-.41,6.93,6.93,0,0,1,1.8.26,6.17,6.17,0,0,1,1.65.7l.36-2.11a6.55,6.55,0,0,0-1.79-.71,8.46,8.46,0,0,0-2.1-.27,6.1,6.1,0,0,0-2.48.47,3.67,3.67,0,0,0-1.62,1.32,3.57,3.57,0,0,0-.57,2,3.62,3.62,0,0,0,.38,1.73,3.31,3.31,0,0,0,1.26,1.26,9.7,9.7,0,0,0,2.3,1,10.78,10.78,0,0,1,1.6.59,1.85,1.85,0,0,1,.79.61,1.38,1.38,0,0,1,.22.79,1.47,1.47,0,0,1-.66,1.27,3.22,3.22,0,0,1-1.83.45,7.43,7.43,0,0,1-2.12-.32,8.12,8.12,0,0,1-1.93-.81l-.24,2.18a4.79,4.79,0,0,0,1.2.56,9.13,9.13,0,0,0,1.56.38,10.33,10.33,0,0,0,1.66.14,5.62,5.62,0,0,0,3.63-1.06m-19.84.79V19.19l6.95,9.24H337v-13h-2.39v9.25l-6.95-9.25h-2.32V28.43ZM313.9,25.8a4.08,4.08,0,0,1-1.48-1.6,4.79,4.79,0,0,1-.54-2.3,4.87,4.87,0,0,1,.54-2.32,4,4,0,0,1,3.64-2.16,4,4,0,0,1,2.17.58,4.12,4.12,0,0,1,1.48,1.59,4.8,4.8,0,0,1,.54,2.31,4.87,4.87,0,0,1-.54,2.32,4,4,0,0,1-3.65,2.16,4,4,0,0,1-2.16-.58m4.88,2.38A6.7,6.7,0,0,0,323,21.9a6.85,6.85,0,0,0-.52-2.71A6.52,6.52,0,0,0,321,17a6.62,6.62,0,0,0-2.19-1.42,7.2,7.2,0,0,0-2.75-.51,7,7,0,0,0-2.71.52,6.77,6.77,0,0,0-2.2,1.44,6.65,6.65,0,0,0-1.46,2.16,6.82,6.82,0,0,0-.53,2.68,6.92,6.92,0,0,0,.52,2.71,6.28,6.28,0,0,0,1.45,2.16,6.47,6.47,0,0,0,2.19,1.42,7.19,7.19,0,0,0,2.74.51,7,7,0,0,0,2.72-.52m-13.51.16a7.93,7.93,0,0,0,2-.77L307,25.28a9.43,9.43,0,0,1-1.92.74,7.46,7.46,0,0,1-1.89.28,4.94,4.94,0,0,1-2.37-.54,3.91,3.91,0,0,1-1.55-1.52,4.66,4.66,0,0,1-.55-2.32,4.68,4.68,0,0,1,.55-2.32,3.92,3.92,0,0,1,1.55-1.55,4.75,4.75,0,0,1,2.31-.54,8.06,8.06,0,0,1,3.61.94l.43-2.22a7,7,0,0,0-1.9-.76,8.68,8.68,0,0,0-2.17-.28,7.74,7.74,0,0,0-2.86.5A6.82,6.82,0,0,0,298,17.08a6.43,6.43,0,0,0-1.47,2.15A7.15,7.15,0,0,0,296,22a6.82,6.82,0,0,0,.86,3.49,5.81,5.81,0,0,0,2.43,2.33,7.75,7.75,0,0,0,3.66.82,9.88,9.88,0,0,0,2.29-.27"/></svg>