<?xml version="1.0" encoding="utf-8"?>
<!-- Generator: Adobe Illustrator 25.0.1, SVG Export Plug-In . SVG Version: 6.00 Build 0)  -->
<svg version="1.1" id="Layer_1" xmlns="http://www.w3.org/2000/svg" xmlns:xlink="http://www.w3.org/1999/xlink" x="0px" y="0px"
	 viewBox="0 0 448.9 86.4" style="enable-background:new 0 0 448.9 86.4;" xml:space="preserve">
<style type="text/css">
	.st0{fill:#004976;}
	.st1{fill:#BD472A;}
	.st2{fill:#FFFFFF;}
	.st3{fill:#231F20;}
</style>
<g>
	<polygon class="st1" points="209.3,27.1 224.8,42.7 240.5,26.8 225,0 	"/>
	<g>
		<polygon class="st1" points="221.2,74.1 191.6,44.2 166.6,44.1 196.3,74.1 		"/>
		<polygon class="st1" points="258.2,44.2 228.6,74.1 253.4,74.1 283.2,44.1 		"/>
	</g>
	<g>
		<polygon class="st1" points="223.2,46.1 193.5,16.2 193.5,41.3 223.3,71.3 		"/>
		<polygon class="st1" points="256.3,16.2 226.6,46.1 226.5,71.3 256.3,41.3 		"/>
	</g>
	<polygon class="st1" points="223.8,77 219.5,77 224.9,86.4 230.3,77 	"/>
</g>
<g>
	<g>
		<path class="st0" d="M372.2,60.4l1.9,5.4h-3.8L372.2,60.4z M368.3,71.2l1.2-3.4h5.3l1.2,3.4h2.8l-5.2-13h-2.8l-5.2,13H368.3z
			 M362.5,64.7c0,2.9-1.6,4.4-4.7,4.4h-2.2v-8.8h2.2C361,60.3,362.5,61.8,362.5,64.7 M357.9,71.2c1.6,0,2.9-0.3,4-0.8
			c1.1-0.5,1.9-1.3,2.5-2.2c0.6-1,0.9-2.2,0.9-3.5c0-1.4-0.3-2.5-0.8-3.5s-1.4-1.7-2.4-2.2s-2.4-0.8-3.9-0.8h-5v13H357.9z
			 M344.5,60.4l1.9,5.4h-3.8L344.5,60.4z M340.6,71.2l1.2-3.4h5.3l1.2,3.4h2.8l-5.2-13h-2.8l-5.2,13H340.6z M326.8,71.2V62l7,9.2
			h2.3v-13h-2.4v9.3l-7-9.3h-2.3v13H326.8z M315.8,60.4l1.9,5.4h-3.8L315.8,60.4z M311.9,71.2l1.2-3.4h5.3l1.2,3.4h2.8l-5.2-13h-2.8
			l-5.2,13H311.9z M305.8,71.1c0.8-0.2,1.4-0.4,2-0.8l-0.3-2.3c-0.6,0.3-1.2,0.6-1.9,0.7s-1.3,0.3-1.9,0.3c-0.9,0-1.7-0.2-2.4-0.5
			c-0.7-0.4-1.2-0.9-1.6-1.5c-0.4-0.7-0.5-1.4-0.5-2.3c0-0.9,0.2-1.7,0.5-2.3c0.4-0.7,0.9-1.2,1.5-1.5c0.7-0.4,1.4-0.5,2.3-0.5
			c1.1,0,2.3,0.3,3.6,0.9l0.4-2.2c-0.5-0.3-1.2-0.6-1.9-0.8c-0.7-0.2-1.5-0.3-2.2-0.3c-1,0-2,0.2-2.9,0.5c-0.9,0.3-1.6,0.8-2.2,1.4
			c-0.6,0.6-1.1,1.3-1.5,2.1c-0.3,0.8-0.5,1.7-0.5,2.7c0,1.3,0.3,2.5,0.9,3.5c0.6,1,1.4,1.8,2.4,2.3c1,0.5,2.3,0.8,3.7,0.8
			C304.3,71.4,305.1,71.3,305.8,71.1"/>
		<path class="st0" d="M439.6,49.8v-9.2l7,9.2h2.3v-13h-2.4V46l-7-9.3h-2.3v13H439.6z M425.7,47.1c-0.6-0.4-1.1-0.9-1.5-1.6
			c-0.4-0.7-0.5-1.4-0.5-2.3c0-0.9,0.2-1.6,0.5-2.3c0.4-0.7,0.9-1.2,1.5-1.6c0.6-0.4,1.4-0.6,2.2-0.6c0.8,0,1.5,0.2,2.2,0.6
			c0.6,0.4,1.1,0.9,1.5,1.6c0.4,0.7,0.5,1.4,0.5,2.3c0,0.9-0.2,1.6-0.5,2.3c-0.4,0.7-0.9,1.2-1.5,1.6c-0.6,0.4-1.4,0.6-2.2,0.6
			C427.1,47.7,426.4,47.5,425.7,47.1 M430.6,49.5c0.8-0.3,1.6-0.8,2.2-1.4c0.6-0.6,1.1-1.3,1.5-2.2s0.5-1.7,0.5-2.7
			c0-1-0.2-1.9-0.5-2.7c-0.3-0.8-0.8-1.5-1.5-2.2c-0.6-0.6-1.4-1.1-2.2-1.4c-0.8-0.3-1.8-0.5-2.7-0.5c-1,0-1.9,0.2-2.7,0.5
			c-0.8,0.3-1.6,0.8-2.2,1.4c-0.6,0.6-1.1,1.3-1.5,2.2c-0.3,0.8-0.5,1.7-0.5,2.7c0,1,0.2,1.9,0.5,2.7c0.3,0.8,0.8,1.6,1.5,2.2
			c0.6,0.6,1.4,1.1,2.2,1.4c0.8,0.3,1.8,0.5,2.7,0.5C428.9,50,429.8,49.9,430.6,49.5 M418.6,36.7H416v13h2.6V36.7z M409.6,49.8V38.9
			h4.2v-2.1h-11v2.1h4.2v10.9H409.6z M399.2,49.7c0.8-0.2,1.4-0.4,2-0.8l-0.3-2.3c-0.6,0.3-1.2,0.6-1.9,0.7
			c-0.7,0.2-1.3,0.3-1.9,0.3c-0.9,0-1.7-0.2-2.4-0.5c-0.7-0.4-1.2-0.9-1.6-1.5c-0.4-0.7-0.5-1.4-0.5-2.3c0-0.9,0.2-1.7,0.5-2.3
			c0.4-0.7,0.9-1.2,1.5-1.5c0.7-0.4,1.4-0.5,2.3-0.5c1.1,0,2.3,0.3,3.6,0.9l0.4-2.2c-0.5-0.3-1.2-0.6-1.9-0.8
			c-0.7-0.2-1.5-0.3-2.2-0.3c-1,0-2,0.2-2.9,0.5c-0.9,0.3-1.6,0.8-2.2,1.4c-0.6,0.6-1.1,1.3-1.5,2.1c-0.3,0.8-0.5,1.7-0.5,2.7
			c0,1.3,0.3,2.5,0.9,3.5c0.6,1,1.4,1.8,2.4,2.3c1,0.5,2.3,0.8,3.7,0.8C397.7,49.9,398.4,49.9,399.2,49.7 M386,48.5
			c1-1,1.5-2.4,1.5-4.3v-7.5h-2.6V44c0,2.5-1.1,3.7-3.2,3.7c-2.1,0-3.1-1.2-3.1-3.7v-7.3h-2.6v7.5c0,1.8,0.5,3.3,1.5,4.3
			c1,1,2.4,1.5,4.2,1.5C383.5,50,385,49.5,386,48.5 M370.5,40.9c0,1.5-0.9,2.2-2.7,2.2h-1.4v-4.5h1.5
			C369.7,38.7,370.5,39.4,370.5,40.9 M366.5,49.8v-4.6h2h0.3l2.7,4.6h2.9l-3.4-5.3c0.6-0.4,1.1-0.8,1.5-1.4c0.4-0.6,0.6-1.3,0.6-2.1
			c0-0.9-0.2-1.6-0.6-2.2c-0.4-0.6-0.9-1.1-1.7-1.5c-0.7-0.3-1.6-0.5-2.6-0.5H364v13H366.5z M357.6,49.8V38.9h4.2v-2.1h-11v2.1h4.2
			v10.9H357.6z M348.2,49c0.9-0.7,1.3-1.7,1.3-2.9c0-0.7-0.1-1.2-0.4-1.7c-0.3-0.5-0.7-0.9-1.4-1.3c-0.6-0.4-1.5-0.7-2.5-1
			c-0.6-0.2-1.1-0.4-1.4-0.5c-0.3-0.2-0.6-0.4-0.7-0.6c-0.1-0.2-0.2-0.5-0.2-0.7c0-0.5,0.2-0.9,0.6-1.2c0.4-0.3,0.9-0.4,1.6-0.4
			c0.6,0,1.2,0.1,1.8,0.3s1.2,0.4,1.7,0.7l0.4-2.1c-0.5-0.3-1.1-0.5-1.8-0.7c-0.7-0.2-1.4-0.3-2.1-0.3c-1,0-1.8,0.2-2.5,0.5
			c-0.7,0.3-1.2,0.8-1.6,1.3c-0.4,0.6-0.6,1.2-0.6,2c0,0.7,0.1,1.2,0.4,1.7c0.3,0.5,0.7,0.9,1.3,1.3c0.6,0.4,1.4,0.7,2.3,1
			c0.7,0.2,1.2,0.4,1.6,0.6c0.4,0.2,0.6,0.4,0.8,0.6c0.1,0.2,0.2,0.5,0.2,0.8c0,0.5-0.2,1-0.7,1.3c-0.4,0.3-1,0.5-1.8,0.5
			c-0.7,0-1.4-0.1-2.1-0.3c-0.7-0.2-1.4-0.5-1.9-0.8l-0.2,2.2c0.3,0.2,0.7,0.4,1.2,0.6c0.5,0.2,1,0.3,1.6,0.4
			c0.6,0.1,1.1,0.1,1.7,0.1C346.1,50,347.3,49.7,348.2,49 M328.3,49.8v-9.2l7,9.2h2.3v-13h-2.4V46l-7-9.3h-2.3v13H328.3z
			 M314.5,47.1c-0.6-0.4-1.1-0.9-1.5-1.6c-0.4-0.7-0.5-1.4-0.5-2.3c0-0.9,0.2-1.6,0.5-2.3c0.4-0.7,0.9-1.2,1.5-1.6
			c0.6-0.4,1.4-0.6,2.2-0.6c0.8,0,1.5,0.2,2.2,0.6c0.6,0.4,1.1,0.9,1.5,1.6c0.4,0.7,0.5,1.4,0.5,2.3c0,0.9-0.2,1.6-0.5,2.3
			c-0.4,0.7-0.9,1.2-1.5,1.6c-0.6,0.4-1.4,0.6-2.2,0.6C315.8,47.7,315.1,47.5,314.5,47.1 M319.3,49.5c0.8-0.3,1.6-0.8,2.2-1.4
			c0.6-0.6,1.1-1.3,1.5-2.2c0.3-0.8,0.5-1.7,0.5-2.7c0-1-0.2-1.9-0.5-2.7c-0.3-0.8-0.8-1.5-1.5-2.2c-0.6-0.6-1.4-1.1-2.2-1.4
			c-0.8-0.3-1.8-0.5-2.7-0.5c-1,0-1.9,0.2-2.7,0.5c-0.8,0.3-1.6,0.8-2.2,1.4c-0.6,0.6-1.1,1.3-1.5,2.2c-0.3,0.8-0.5,1.7-0.5,2.7
			c0,1,0.2,1.9,0.5,2.7c0.3,0.8,0.8,1.6,1.5,2.2c0.6,0.6,1.4,1.1,2.2,1.4c0.8,0.3,1.8,0.5,2.7,0.5C317.6,50,318.5,49.9,319.3,49.5
			 M305.8,49.7c0.8-0.2,1.4-0.4,2-0.8l-0.3-2.3c-0.6,0.3-1.2,0.6-1.9,0.7c-0.7,0.2-1.3,0.3-1.9,0.3c-0.9,0-1.7-0.2-2.4-0.5
			c-0.7-0.4-1.2-0.9-1.6-1.5c-0.4-0.7-0.5-1.4-0.5-2.3c0-0.9,0.2-1.7,0.5-2.3s0.9-1.2,1.5-1.5c0.7-0.4,1.4-0.5,2.3-0.5
			c1.1,0,2.3,0.3,3.6,0.9l0.4-2.2c-0.5-0.3-1.2-0.6-1.9-0.8c-0.7-0.2-1.5-0.3-2.2-0.3c-1,0-2,0.2-2.9,0.5s-1.6,0.8-2.2,1.4
			c-0.6,0.6-1.1,1.3-1.5,2.1c-0.3,0.8-0.5,1.7-0.5,2.7c0,1.3,0.3,2.5,0.9,3.5c0.6,1,1.4,1.8,2.4,2.3c1,0.5,2.3,0.8,3.7,0.8
			C304.3,49.9,305.1,49.9,305.8,49.7"/>
		<path class="st0" d="M381.7,28.3v-2h-6.4v-3.6h5.5v-2h-5.5v-3.3h6.2v-2h-8.6v13H381.7z M368.3,28.2c0.8-0.2,1.4-0.4,2-0.8
			l-0.3-2.3c-0.6,0.3-1.2,0.6-1.9,0.7c-0.7,0.2-1.3,0.3-1.9,0.3c-0.9,0-1.7-0.2-2.4-0.5c-0.7-0.4-1.2-0.9-1.6-1.5
			c-0.4-0.7-0.5-1.4-0.5-2.3c0-0.9,0.2-1.7,0.5-2.3c0.4-0.7,0.9-1.2,1.5-1.5c0.7-0.4,1.4-0.5,2.3-0.5c1.1,0,2.3,0.3,3.6,0.9l0.4-2.2
			c-0.5-0.3-1.2-0.6-1.9-0.8c-0.7-0.2-1.5-0.3-2.2-0.3c-1,0-2,0.2-2.9,0.5c-0.9,0.3-1.6,0.8-2.2,1.4c-0.6,0.6-1.1,1.3-1.5,2.1
			c-0.3,0.8-0.5,1.7-0.5,2.7c0,1.3,0.3,2.5,0.9,3.5c0.6,1,1.4,1.8,2.4,2.3c1,0.5,2.3,0.8,3.7,0.8C366.7,28.5,367.5,28.4,368.3,28.2
			 M347.4,28.3v-9.2l7,9.2h2.3v-13h-2.4v9.3l-7-9.3H345v13H347.4z M342.3,28.3v-2h-6.4v-3.6h5.5v-2h-5.5v-3.3h6.2v-2h-8.6v13H342.3z
			 M325.2,28.3v-5.2h5V21h-5v-3.6h5.8v-2.1h-8.4v13H325.2z M320,28.3v-2h-6.4v-3.6h5.5v-2h-5.5v-3.3h6.2v-2h-8.6v13H320z M306,21.8
			c0,2.9-1.6,4.4-4.7,4.4h-2.2v-8.8h2.2C304.5,17.4,306,18.8,306,21.8 M301.4,28.3c1.6,0,2.9-0.3,4-0.8c1.1-0.5,1.9-1.3,2.5-2.2
			c0.6-1,0.9-2.2,0.9-3.5c0-1.4-0.3-2.5-0.8-3.5c-0.6-1-1.4-1.7-2.4-2.2c-1.1-0.5-2.4-0.8-3.9-0.8h-5v13H301.4z"/>
	</g>
	<g>
		<path class="st0" d="M145.6,60.4l1.9,5.4h-3.8L145.6,60.4z M141.8,71.2l1.2-3.4h5.3l1.2,3.4h2.8l-5.2-13h-2.8l-5.2,13H141.8z
			 M136,64.7c0,2.9-1.6,4.4-4.7,4.4h-2.2v-8.8h2.2C134.5,60.3,136,61.8,136,64.7 M131.4,71.2c1.6,0,2.9-0.3,4-0.8
			c1.1-0.5,1.9-1.3,2.5-2.2c0.6-1,0.9-2.2,0.9-3.5c0-1.4-0.3-2.5-0.8-3.5c-0.6-1-1.4-1.7-2.4-2.2c-1.1-0.5-2.4-0.8-3.9-0.8h-5v13
			H131.4z M118,60.4l1.9,5.4H116L118,60.4z M114.1,71.2l1.2-3.4h5.3l1.2,3.4h2.8l-5.2-13h-2.8l-5.2,13H114.1z M100.2,71.2V62l7,9.2
			h2.3v-13h-2.4v9.3l-7-9.3h-2.3v13H100.2z M89.2,60.4l1.9,5.4h-3.8L89.2,60.4z M85.3,71.2l1.2-3.4h5.3l1.2,3.4h2.8l-5.2-13h-2.8
			l-5.2,13H85.3z M79.3,71.1c0.8-0.2,1.4-0.4,2-0.8L81,68.1c-0.6,0.3-1.2,0.6-1.9,0.7s-1.3,0.3-1.9,0.3c-0.9,0-1.7-0.2-2.4-0.5
			c-0.7-0.4-1.2-0.9-1.6-1.5c-0.4-0.7-0.5-1.4-0.5-2.3c0-0.9,0.2-1.7,0.5-2.3c0.4-0.7,0.9-1.2,1.5-1.5c0.7-0.4,1.4-0.5,2.3-0.5
			c1.1,0,2.3,0.3,3.6,0.9l0.4-2.2c-0.5-0.3-1.2-0.6-1.9-0.8c-0.7-0.2-1.5-0.3-2.2-0.3c-1,0-2,0.2-2.9,0.5c-0.9,0.3-1.6,0.8-2.2,1.4
			c-0.6,0.6-1.1,1.3-1.5,2.1c-0.3,0.8-0.5,1.7-0.5,2.7c0,1.3,0.3,2.5,0.9,3.5c0.6,1,1.4,1.8,2.4,2.3c1,0.5,2.3,0.8,3.7,0.8
			C77.8,71.4,78.5,71.3,79.3,71.1"/>
		<path class="st0" d="M152.3,49.8v-2h-6.4v-3.6h5.5v-2h-5.5v-3.3h6.2v-2h-8.6v13H152.3z M139.4,49c0.9-0.7,1.3-1.7,1.3-2.9
			c0-0.7-0.1-1.2-0.4-1.7c-0.3-0.5-0.7-0.9-1.4-1.3c-0.6-0.4-1.5-0.7-2.5-1c-0.6-0.2-1.1-0.4-1.4-0.5c-0.3-0.2-0.6-0.4-0.7-0.6
			c-0.1-0.2-0.2-0.5-0.2-0.7c0-0.5,0.2-0.9,0.6-1.2c0.4-0.3,0.9-0.4,1.6-0.4c0.6,0,1.2,0.1,1.8,0.3c0.6,0.2,1.2,0.4,1.7,0.7l0.4-2.1
			c-0.5-0.3-1.1-0.5-1.8-0.7c-0.7-0.2-1.4-0.3-2.1-0.3c-1,0-1.8,0.2-2.5,0.5c-0.7,0.3-1.2,0.8-1.6,1.3c-0.4,0.6-0.6,1.2-0.6,2
			c0,0.7,0.1,1.2,0.4,1.7c0.3,0.5,0.7,0.9,1.3,1.3c0.6,0.4,1.3,0.7,2.3,1c0.7,0.2,1.2,0.4,1.6,0.6c0.4,0.2,0.6,0.4,0.8,0.6
			c0.1,0.2,0.2,0.5,0.2,0.8c0,0.5-0.2,1-0.7,1.3s-1.1,0.5-1.8,0.5c-0.7,0-1.4-0.1-2.1-0.3c-0.7-0.2-1.4-0.5-1.9-0.8l-0.2,2.2
			c0.3,0.2,0.7,0.4,1.2,0.6c0.5,0.2,1,0.3,1.6,0.4c0.6,0.1,1.1,0.1,1.7,0.1C137.3,50,138.6,49.7,139.4,49 M119.6,49.8v-9.2l7,9.2
			h2.3v-13h-2.4V46l-7-9.3h-2.3v13H119.6z M114.5,49.8v-2h-6.4v-3.6h5.5v-2h-5.5v-3.3h6.2v-2h-8.6v13H114.5z M97.5,49.8v-5.2h5v-2.1
			h-5v-3.6h5.8v-2.1h-8.4v13H97.5z M88.3,35.4l2.6-2.5H88l-2,2.5H88.3z M92.2,49.8v-2h-6.4v-3.6h5.5v-2h-5.5v-3.3H92v-2h-8.6v13
			H92.2z M78.3,43.2c0,2.9-1.6,4.4-4.7,4.4h-2.2v-8.8h2.2C76.7,38.8,78.3,40.3,78.3,43.2 M73.6,49.8c1.6,0,2.9-0.3,4-0.8
			c1.1-0.5,1.9-1.3,2.5-2.2c0.6-1,0.9-2.2,0.9-3.5c0-1.4-0.3-2.5-0.8-3.5c-0.6-1-1.4-1.7-2.4-2.2c-1.1-0.5-2.4-0.8-3.9-0.8h-5v13
			H73.6z M62.4,49.8v-2H56v-3.6h5.5v-2H56v-3.3h6.2v-2h-8.6v13H62.4z M48.4,43.2c0,2.9-1.6,4.4-4.7,4.4h-2.2v-8.8h2.2
			C46.8,38.8,48.4,40.3,48.4,43.2 M43.8,49.8c1.6,0,2.9-0.3,4-0.8c1.1-0.5,1.9-1.3,2.5-2.2c0.6-1,0.9-2.2,0.9-3.5
			c0-1.4-0.3-2.5-0.8-3.5c-0.6-1-1.4-1.7-2.4-2.2c-1.1-0.5-2.4-0.8-3.9-0.8h-5v13H43.8z"/>
		<path class="st0" d="M143,28.3v-9.2l7,9.2h2.3v-13h-2.4v9.3l-7-9.3h-2.3v13H143z M129.2,25.7c-0.6-0.4-1.1-0.9-1.5-1.6
			c-0.4-0.7-0.5-1.4-0.5-2.3c0-0.9,0.2-1.6,0.5-2.3c0.4-0.7,0.9-1.2,1.5-1.6c0.6-0.4,1.4-0.6,2.2-0.6c0.8,0,1.5,0.2,2.2,0.6
			c0.6,0.4,1.1,0.9,1.5,1.6c0.4,0.7,0.5,1.4,0.5,2.3c0,0.9-0.2,1.6-0.5,2.3c-0.4,0.7-0.9,1.2-1.5,1.6c-0.6,0.4-1.4,0.6-2.2,0.6
			C130.5,26.3,129.8,26.1,129.2,25.7 M134,28.1c0.8-0.3,1.6-0.8,2.2-1.4c0.6-0.6,1.1-1.3,1.5-2.2s0.5-1.7,0.5-2.7
			c0-1-0.2-1.9-0.5-2.7c-0.3-0.8-0.8-1.5-1.5-2.2c-0.6-0.6-1.4-1.1-2.2-1.4c-0.8-0.3-1.8-0.5-2.7-0.5c-1,0-1.9,0.2-2.7,0.5
			c-0.8,0.3-1.6,0.8-2.2,1.4c-0.6,0.6-1.1,1.3-1.5,2.2c-0.3,0.8-0.5,1.7-0.5,2.7c0,1,0.2,1.9,0.5,2.7c0.3,0.8,0.8,1.6,1.5,2.2
			c0.6,0.6,1.4,1.1,2.2,1.4c0.8,0.3,1.8,0.5,2.7,0.5C132.3,28.6,133.2,28.4,134,28.1 M122,15.2h-2.6v13h2.6V15.2z M113,28.3V17.4
			h4.2v-2.1h-11v2.1h4.2v10.9H113z M102.6,28.2c0.8-0.2,1.4-0.4,2-0.8l-0.3-2.3c-0.6,0.3-1.2,0.6-1.9,0.7c-0.7,0.2-1.3,0.3-1.9,0.3
			c-0.9,0-1.7-0.2-2.4-0.5c-0.7-0.4-1.2-0.9-1.6-1.5c-0.4-0.7-0.5-1.4-0.5-2.3c0-0.9,0.2-1.7,0.5-2.3c0.4-0.7,0.9-1.2,1.5-1.5
			c0.7-0.4,1.4-0.5,2.3-0.5c1.1,0,2.3,0.3,3.6,0.9l0.4-2.2c-0.5-0.3-1.2-0.6-1.9-0.8c-0.7-0.2-1.5-0.3-2.2-0.3c-1,0-2,0.2-2.9,0.5
			c-0.9,0.3-1.6,0.8-2.2,1.4c-0.6,0.6-1.1,1.3-1.5,2.1c-0.3,0.8-0.5,1.7-0.5,2.7c0,1.3,0.3,2.5,0.9,3.5c0.6,1,1.4,1.8,2.4,2.3
			c1,0.5,2.3,0.8,3.7,0.8C101.1,28.5,101.8,28.4,102.6,28.2 M89.4,27.1c1-1,1.5-2.4,1.5-4.3v-7.5h-2.6v7.3c0,2.5-1.1,3.7-3.2,3.7
			C83,26.3,82,25,82,22.6v-7.3h-2.6v7.5c0,1.8,0.5,3.3,1.5,4.3c1,1,2.4,1.5,4.2,1.5C87,28.6,88.4,28.1,89.4,27.1 M73.9,19.5
			c0,1.5-0.9,2.2-2.7,2.2h-1.4v-4.5h1.5C73.1,17.2,73.9,18,73.9,19.5 M69.9,28.3v-4.6h2h0.3l2.7,4.6h2.9L74.4,23
			c0.6-0.4,1.1-0.8,1.5-1.4c0.4-0.6,0.6-1.3,0.6-2.1c0-0.9-0.2-1.6-0.6-2.2c-0.4-0.6-0.9-1.1-1.7-1.5c-0.7-0.3-1.6-0.5-2.6-0.5h-4.3
			v13H69.9z M61,28.3V17.4h4.2v-2.1h-11v2.1h4.2v10.9H61z M51.6,27.5c0.9-0.7,1.3-1.7,1.3-2.9c0-0.7-0.1-1.2-0.4-1.7
			c-0.3-0.5-0.7-0.9-1.4-1.3c-0.6-0.4-1.5-0.7-2.5-1c-0.6-0.2-1.1-0.4-1.4-0.5c-0.3-0.2-0.6-0.4-0.7-0.6c-0.1-0.2-0.2-0.5-0.2-0.7
			c0-0.5,0.2-0.9,0.6-1.2c0.4-0.3,0.9-0.4,1.6-0.4c0.6,0,1.2,0.1,1.8,0.3c0.6,0.2,1.2,0.4,1.7,0.7l0.4-2.1c-0.5-0.3-1.1-0.5-1.8-0.7
			c-0.7-0.2-1.4-0.3-2.1-0.3c-1,0-1.8,0.2-2.5,0.5s-1.2,0.8-1.6,1.3c-0.4,0.6-0.6,1.2-0.6,2c0,0.7,0.1,1.2,0.4,1.7
			c0.3,0.5,0.7,0.9,1.3,1.3c0.6,0.4,1.4,0.7,2.3,1c0.7,0.2,1.2,0.4,1.6,0.6c0.4,0.2,0.6,0.4,0.8,0.6c0.1,0.2,0.2,0.5,0.2,0.8
			c0,0.5-0.2,1-0.7,1.3c-0.4,0.3-1,0.5-1.8,0.5c-0.7,0-1.4-0.1-2.1-0.3c-0.7-0.2-1.4-0.5-1.9-0.8l-0.2,2.2c0.3,0.2,0.7,0.4,1.2,0.6
			c0.5,0.2,1,0.3,1.6,0.4c0.6,0.1,1.1,0.1,1.7,0.1C49.5,28.6,50.7,28.2,51.6,27.5 M31.7,28.3v-9.2l7,9.2H41v-13h-2.4v9.3l-7-9.3
			h-2.3v13H31.7z M17.9,25.7c-0.6-0.4-1.1-0.9-1.5-1.6c-0.4-0.7-0.5-1.4-0.5-2.3c0-0.9,0.2-1.6,0.5-2.3c0.4-0.7,0.9-1.2,1.5-1.6
			c0.6-0.4,1.4-0.6,2.2-0.6c0.8,0,1.5,0.2,2.2,0.6c0.6,0.4,1.1,0.9,1.5,1.6c0.4,0.7,0.5,1.4,0.5,2.3c0,0.9-0.2,1.6-0.5,2.3
			c-0.4,0.7-0.9,1.2-1.5,1.6c-0.6,0.4-1.4,0.6-2.2,0.6C19.2,26.3,18.5,26.1,17.9,25.7 M22.7,28.1c0.8-0.3,1.6-0.8,2.2-1.4
			c0.6-0.6,1.1-1.3,1.5-2.2s0.5-1.7,0.5-2.7c0-1-0.2-1.9-0.5-2.7c-0.3-0.8-0.8-1.5-1.4-2.2c-0.6-0.6-1.4-1.1-2.2-1.4
			C21.9,15.1,21,15,20,15c-1,0-1.9,0.2-2.7,0.5c-0.8,0.3-1.6,0.8-2.2,1.4c-0.6,0.6-1.1,1.3-1.5,2.2c-0.3,0.8-0.5,1.7-0.5,2.7
			c0,1,0.2,1.9,0.5,2.7c0.3,0.8,0.8,1.6,1.5,2.2c0.6,0.6,1.4,1.1,2.2,1.4c0.8,0.3,1.8,0.5,2.7,0.5C21,28.6,21.9,28.4,22.7,28.1
			 M9.2,28.2c0.8-0.2,1.4-0.4,2-0.8L11,25.2c-0.6,0.3-1.2,0.6-1.9,0.7c-0.7,0.2-1.3,0.3-1.9,0.3c-0.9,0-1.7-0.2-2.4-0.5
			c-0.7-0.4-1.2-0.9-1.6-1.5c-0.4-0.7-0.5-1.4-0.5-2.3c0-0.9,0.2-1.7,0.5-2.3s0.9-1.2,1.5-1.5c0.7-0.4,1.4-0.5,2.3-0.5
			c1.1,0,2.3,0.3,3.6,0.9l0.4-2.2c-0.5-0.3-1.2-0.6-1.9-0.8c-0.7-0.2-1.5-0.3-2.2-0.3c-1,0-2,0.2-2.9,0.5C3.4,15.9,2.6,16.4,2,17
			c-0.6,0.6-1.1,1.3-1.5,2.1C0.2,19.9,0,20.8,0,21.8c0,1.3,0.3,2.5,0.9,3.5c0.6,1,1.4,1.8,2.4,2.3c1,0.5,2.3,0.8,3.7,0.8
			C7.7,28.5,8.5,28.4,9.2,28.2"/>
	</g>
</g>
</svg>
