<?xml version="1.0" encoding="utf-8"?>
<!-- Generator: Adobe Illustrator 27.5.0, SVG Export Plug-In . SVG Version: 6.00 Build 0)  -->
<svg version="1.1" id="Layer_1" xmlns="http://www.w3.org/2000/svg" xmlns:xlink="http://www.w3.org/1999/xlink" x="0px" y="0px"
	 viewBox="0 0 700 76" style="enable-background:new 0 0 700 76;" xml:space="preserve">
<style type="text/css">
	.st0{fill:#231F20;}
	.st1{fill:#EC1C24;}
</style>
<g>
	<path class="st0" d="M129.13,0.43h6.16c5.54,0,8.66,2.77,8.66,8.55c0,6.01-2.65,9.42-8.66,9.42h-6.16V0.43z M131.52,16.37h3.98
		c1.65,0,6.06-0.45,6.06-7.08c0-4.28-1.59-6.86-6-6.86h-4.03V16.37z"/>
	<path class="st0" d="M157.65,14.26c-0.58,2.87-2.65,4.44-5.57,4.44c-4.15,0-6.11-2.88-6.24-6.85c0-3.9,2.57-6.77,6.1-6.77
		c4.63,0,6.05,4.3,5.92,7.45h-9.75c-0.1,2.27,1.19,4.28,4.04,4.28c1.78,0,3.01-0.86,3.37-2.55H157.65z M155.6,10.64
		c-0.1-2.03-1.65-3.68-3.77-3.68c-2.23,0-3.58,1.69-3.71,3.68H155.6z M152.34,0h2.73l-3.3,3.6h-1.62L152.34,0z"/>
	<polygon class="st0" points="165.95,18.39 163.69,18.39 158.82,5.37 161.23,5.37 164.89,16.22 164.92,16.22 168.48,5.37 
		170.73,5.37 	"/>
	<g>
		<path class="st0" d="M183.83,14.26c-0.57,2.87-2.64,4.44-5.56,4.44c-4.16,0-6.14-2.88-6.27-6.85c0-3.9,2.57-6.77,6.13-6.77
			c4.61,0,6.02,4.3,5.9,7.45h-9.77c-0.07,2.27,1.22,4.28,4.08,4.28c1.76,0,2.98-0.86,3.37-2.55H183.83z M181.77,10.64
			c-0.11-2.03-1.65-3.68-3.77-3.68c-2.25,0-3.58,1.69-3.74,3.68H181.77z"/>
	</g>
	<rect x="186.39" y="0.42" class="st0" width="2.13" height="17.97"/>
	<g>
		<path class="st0" d="M197.49,5.07c4.13,0,6.33,3,6.33,6.82c0,3.8-2.2,6.8-6.33,6.8c-4.15,0-6.35-3-6.35-6.8
			C191.13,8.07,193.34,5.07,197.49,5.07 M197.49,16.8c2.23,0,4.05-1.76,4.05-4.91c0-3.17-1.82-4.93-4.05-4.93
			c-2.25,0-4.07,1.76-4.07,4.93C193.42,15.04,195.24,16.8,197.49,16.8"/>
		<path class="st0" d="M206.4,5.37h2.18v1.78h0.03c0.71-1.45,2.37-2.07,4.16-2.07c4,0,6,3.18,6,6.83c0,3.68-1.95,6.79-5.93,6.79
			c-1.33,0-3.27-0.51-4.22-2.05h-0.03v6.71h-2.18V5.37z M212.48,6.96c-2.88,0-4,2.47-4,4.9c0,2.58,1.18,4.94,4.12,4.94
			c2.93,0,3.89-2.49,3.89-5.04C216.49,9.32,215.24,6.96,212.48,6.96"/>
		<path class="st0" d="M221.38,5.37h2.15v1.78h0.05c0.7-1.45,2.37-2.07,4.16-2.07c4.01,0,6,3.18,6,6.83c0,3.68-1.98,6.79-5.94,6.79
			c-1.32,0-3.27-0.51-4.22-2.05h-0.05v6.71h-2.15V5.37z M227.44,6.96c-2.87,0-3.99,2.47-3.99,4.9c0,2.58,1.17,4.94,4.12,4.94
			c2.9,0,3.89-2.49,3.89-5.04C231.47,9.32,230.2,6.96,227.44,6.96"/>
		<path class="st0" d="M247.39,14.26c-0.58,2.87-2.66,4.44-5.58,4.44c-4.16,0-6.14-2.88-6.24-6.85c0-3.9,2.58-6.77,6.1-6.77
			c4.63,0,6.06,4.3,5.92,7.45h-9.76c-0.06,2.27,1.2,4.28,4.06,4.28c1.76,0,3-0.86,3.4-2.55H247.39z M245.32,10.64
			c-0.09-2.03-1.65-3.68-3.74-3.68c-2.27,0-3.58,1.69-3.75,3.68H245.32z"/>
		<path class="st0" d="M249.81,5.37h2.02v1.92h0.05c0.98-1.46,2.45-2.22,4.22-2.22c1.59,0,3.05,0.62,3.58,2.22
			c0.88-1.37,2.41-2.22,4.1-2.22c2.58,0,4.32,1.09,4.32,3.78v9.54h-2.13V9.86c0-1.61-0.44-2.9-2.54-2.9c-2.07,0-3.38,1.31-3.38,3.33
			v8.1h-2.16V9.86c0-1.69-0.54-2.9-2.46-2.9c-2.54,0-3.49,2.33-3.49,3.33v8.1h-2.14V5.37z"/>
		<path class="st0" d="M282.47,14.26c-0.57,2.87-2.65,4.44-5.58,4.44c-4.16,0-6.13-2.88-6.27-6.85c0-3.9,2.57-6.77,6.14-6.77
			c4.6,0,6.02,4.3,5.9,7.45h-9.76c-0.07,2.27,1.21,4.28,4.07,4.28c1.76,0,3-0.86,3.37-2.55H282.47z M280.41,10.64
			c-0.11-2.03-1.65-3.68-3.77-3.68c-2.24,0-3.58,1.69-3.74,3.68H280.41z"/>
		<path class="st0" d="M284.89,5.37h2.03v2.07h0.05c0.92-1.61,2.38-2.37,4.23-2.37c3.43,0,4.49,1.97,4.49,4.75v8.56h-2.14V9.58
			c0-1.59-1.02-2.62-2.65-2.62c-2.59,0-3.86,1.73-3.86,4.08v7.35h-2.15V5.37z"/>
		<path class="st0" d="M301.9,5.37h2.61v1.89h-2.61v8.08c0,0.98,0.28,1.16,1.63,1.16h0.98v1.89h-1.66c-2.22,0-3.1-0.46-3.1-2.84
			V7.26h-2.2V5.37h2.2V1.48h2.15V5.37z"/>
		<path class="st0" d="M139.89,40.17c-0.58,2.86-2.65,4.42-5.57,4.42c-4.16,0-6.14-2.88-6.25-6.84c0-3.9,2.57-6.77,6.11-6.77
			c4.63,0,6.05,4.3,5.9,7.44h-9.77c-0.06,2.28,1.22,4.28,4.07,4.28c1.78,0,3.01-0.86,3.4-2.53H139.89z M137.83,36.54
			c-0.1-2.04-1.64-3.68-3.77-3.68c-2.25,0-3.59,1.69-3.75,3.68H137.83z M134.58,25.89h2.74l-3.3,3.6h-1.61L134.58,25.89z"/>
		<path class="st0" d="M151.19,35.46c-0.33-1.63-1.49-2.6-3.26-2.6c-3.1,0-4.06,2.45-4.06,5.09c0,2.39,1.1,4.75,3.83,4.75
			c2.04,0,3.3-1.21,3.58-3.17h2.21c-0.49,3.17-2.48,5.07-5.77,5.07c-3.99,0-6.11-2.78-6.11-6.65c0-3.9,2.03-6.97,6.18-6.97
			c2.93,0,5.31,1.38,5.6,4.48H151.19z"/>
		<path class="st0" d="M161.5,30.98c4.13,0,6.32,2.99,6.32,6.82c0,3.79-2.19,6.79-6.32,6.79c-4.15,0-6.34-3-6.34-6.79
			C155.16,33.97,157.35,30.98,161.5,30.98 M161.5,42.7c2.24,0,4.05-1.76,4.05-4.9c0-3.17-1.81-4.94-4.05-4.94
			c-2.26,0-4.06,1.77-4.06,4.94C157.43,40.94,159.24,42.7,161.5,42.7"/>
		<path class="st0" d="M170.36,31.29h2v2.07h0.07c0.9-1.61,2.36-2.37,4.24-2.37c3.41,0,4.47,1.97,4.47,4.76v8.54h-2.13v-8.8
			c0-1.59-1.01-2.62-2.66-2.62c-2.57,0-3.86,1.73-3.86,4.06v7.35h-2.14V31.29z"/>
		<path class="st0" d="M190.01,30.98c4.14,0,6.34,2.99,6.34,6.82c0,3.79-2.21,6.79-6.34,6.79c-4.12,0-6.33-3-6.33-6.79
			C183.68,33.97,185.88,30.98,190.01,30.98 M190.01,42.7c2.25,0,4.06-1.76,4.06-4.9c0-3.17-1.81-4.94-4.06-4.94
			c-2.24,0-4.06,1.77-4.06,4.94C185.95,40.94,187.77,42.7,190.01,42.7"/>
		<path class="st0" d="M198.87,31.29h2.03v1.91h0.05c0.95-1.46,2.41-2.21,4.19-2.21c1.6,0,3.06,0.63,3.6,2.21
			c0.87-1.38,2.43-2.21,4.09-2.21c2.59,0,4.34,1.09,4.34,3.78v9.52h-2.14v-8.52c0-1.61-0.45-2.89-2.53-2.89
			c-2.08,0-3.42,1.31-3.42,3.31v8.1h-2.13v-8.52c0-1.69-0.53-2.89-2.43-2.89c-2.56,0-3.5,2.34-3.5,3.31v8.1h-2.14V31.29z"/>
	</g>
	<path class="st0" d="M220.52,44.28h2.14V31.29h-2.14V44.28z M220.52,28.94h2.14v-2.61h-2.14V28.94z"/>
	<g>
		<path class="st0" d="M237.65,49.27h-2.14v-6.74h-0.06c-0.7,1.43-2.36,2.07-4.15,2.07c-4.01,0-6-3.18-6-6.84
			c0-3.69,1.95-6.77,5.94-6.77c1.34,0,3.26,0.5,4.21,2.04h0.06v-1.74h2.14V49.27z M231.61,42.7c2.86,0,3.97-2.47,3.97-4.9
			c0-2.56-1.15-4.95-4.11-4.95c-2.9,0-3.89,2.51-3.89,5.05C227.57,40.34,228.82,42.7,231.61,42.7"/>
		<path class="st0" d="M251.75,44.29h-2v-2.06h-0.06c-0.89,1.6-2.38,2.37-4.24,2.37c-3.42,0-4.49-1.98-4.49-4.76v-8.55h2.14v8.8
			c0,1.59,1,2.61,2.66,2.61c2.59,0,3.84-1.73,3.84-4.07v-7.34h2.15V44.29z"/>
		<path class="st0" d="M266.1,40.17c-0.57,2.86-2.64,4.43-5.56,4.43c-4.16,0-6.13-2.88-6.25-6.85c0-3.9,2.57-6.77,6.14-6.77
			c4.6,0,6.01,4.3,5.9,7.44h-9.77c-0.07,2.28,1.21,4.28,4.07,4.28c1.74,0,2.98-0.86,3.37-2.53H266.1z M264.06,36.54
			c-0.11-2.04-1.66-3.67-3.77-3.67c-2.23,0-3.59,1.68-3.73,3.67H264.06z"/>
		<path class="st0" d="M288.57,31.74c-0.51-2.55-2.56-3.82-5.06-3.82c-4.29,0-6.09,3.53-6.09,7.26c0,4.1,1.8,7.52,6.14,7.52
			c3.15,0,4.97-2.21,5.18-5.18h2.42c-0.46,4.48-3.27,7.19-7.82,7.19c-5.58,0-8.31-4.12-8.31-9.35c0-5.23,2.96-9.47,8.52-9.47
			c3.76,0,6.87,2.02,7.42,5.84H288.57z"/>
		<path class="st0" d="M305.34,44.24c-0.38,0.21-0.86,0.36-1.56,0.36c-1.09,0-1.8-0.61-1.8-2.02c-1.17,1.37-2.79,2.02-4.59,2.02
			c-2.37,0-4.33-1.06-4.33-3.66c0-2.93,2.2-3.58,4.42-4.01c2.39-0.44,4.4-0.3,4.4-1.91c0-1.86-1.55-2.17-2.92-2.17
			c-1.8,0-3.15,0.57-3.24,2.47h-2.13c0.11-3.22,2.61-4.35,5.51-4.35c2.36,0,4.89,0.53,4.89,3.56v6.7c0,1.01,0,1.45,0.68,1.45
			c0.18,0,0.38-0.02,0.66-0.12V44.24z M301.85,37.57c-0.82,0.6-2.44,0.63-3.87,0.87c-1.43,0.25-2.63,0.76-2.63,2.35
			c0,1.41,1.2,1.91,2.53,1.91c2.83,0,3.97-1.76,3.97-2.94V37.57z"/>
		<path class="st0" d="M307.32,31.29h2.03v2.07h0.04c0.91-1.61,2.37-2.37,4.25-2.37c3.43,0,4.48,1.97,4.48,4.76v8.54h-2.15v-8.8
			c0-1.59-1-2.62-2.64-2.62c-2.61,0-3.84,1.73-3.84,4.06v7.35h-2.17V31.29z"/>
		<path class="st0" d="M332.91,44.24c-0.39,0.21-0.84,0.36-1.52,0.36c-1.13,0-1.84-0.61-1.84-2.02c-1.17,1.37-2.76,2.02-4.58,2.02
			c-2.37,0-4.3-1.06-4.3-3.66c0-2.93,2.18-3.58,4.42-4.01c2.36-0.44,4.37-0.3,4.37-1.91c0-1.86-1.53-2.17-2.89-2.17
			c-1.84,0-3.15,0.57-3.26,2.47h-2.16c0.14-3.22,2.63-4.35,5.53-4.35c2.36,0,4.9,0.53,4.9,3.56v6.7c0,1.01,0,1.45,0.68,1.45
			c0.17,0,0.36-0.02,0.65-0.12V44.24z M329.44,37.57c-0.84,0.6-2.45,0.63-3.9,0.87c-1.4,0.25-2.61,0.76-2.61,2.35
			c0,1.41,1.21,1.91,2.52,1.91c2.8,0,3.99-1.76,3.99-2.94V37.57z"/>
		<path class="st0" d="M346.57,44.29h-2.15v-1.76h-0.05c-0.7,1.43-2.37,2.07-4.17,2.07c-4,0-5.99-3.18-5.99-6.84
			c0-3.69,1.96-6.77,5.95-6.77c1.34,0,3.25,0.5,4.21,2.04h0.05v-6.69h2.15V44.29z M340.51,42.7c2.88,0,3.96-2.47,3.96-4.9
			c0-2.56-1.16-4.95-4.1-4.95c-2.92,0-3.91,2.51-3.91,5.05C336.47,40.34,337.74,42.7,340.51,42.7"/>
		<path class="st0" d="M361.44,44.24c-0.37,0.21-0.86,0.36-1.55,0.36c-1.09,0-1.81-0.61-1.81-2.02c-1.16,1.37-2.78,2.02-4.58,2.02
			c-2.37,0-4.32-1.06-4.32-3.66c0-2.93,2.19-3.58,4.42-4.01c2.36-0.44,4.36-0.3,4.36-1.91c0-1.86-1.51-2.17-2.88-2.17
			c-1.79,0-3.14,0.57-3.26,2.47h-2.14c0.13-3.22,2.61-4.35,5.51-4.35c2.37,0,4.88,0.53,4.88,3.56v6.7c0,1.01,0,1.45,0.7,1.45
			c0.19,0,0.38-0.02,0.67-0.12V44.24z M357.93,37.57c-0.8,0.6-2.43,0.63-3.87,0.87c-1.42,0.25-2.63,0.76-2.63,2.35
			c0,1.41,1.21,1.91,2.51,1.91c2.84,0,3.99-1.76,3.99-2.94V37.57z"/>
		<path class="st0" d="M128.85,57.19h2.16v1.76h0.02c0.72-1.43,2.39-2.06,4.19-2.06c4,0,5.99,3.17,5.99,6.84
			c0,3.67-1.97,6.76-5.96,6.76c-1.31,0-3.25-0.5-4.22-2.04h-0.02v6.73h-2.16V57.19z M134.91,58.78c-2.89,0-4.01,2.46-4.01,4.9
			c0,2.57,1.18,4.93,4.13,4.93c2.92,0,3.9-2.49,3.9-5.03C138.93,61.14,137.67,58.78,134.91,58.78"/>
		<path class="st0" d="M149.36,56.89c4.14,0,6.34,2.99,6.34,6.81c0,3.8-2.2,6.79-6.34,6.79c-4.14,0-6.32-2.99-6.32-6.79
			C143.04,59.88,145.22,56.89,149.36,56.89 M149.36,68.6c2.25,0,4.07-1.76,4.07-4.9c0-3.17-1.83-4.92-4.07-4.92
			c-2.24,0-4.06,1.75-4.06,4.92C145.3,66.85,147.12,68.6,149.36,68.6"/>
		<path class="st0" d="M169.01,70.19H167v-2.06h-0.04c-0.91,1.61-2.38,2.36-4.25,2.36c-3.43,0-4.48-1.95-4.48-4.75v-8.55h2.13V66
			c0,1.57,1.01,2.61,2.66,2.61c2.58,0,3.85-1.73,3.85-4.07v-7.34h2.14V70.19z"/>
		<path class="st0" d="M172.17,57.19h2.02v2.74h0.06c1.01-2.09,2.46-3.12,4.76-3.04v2.26c-3.45,0-4.7,1.96-4.7,5.26v5.79h-2.15
			V57.19z"/>
	</g>
	<rect x="187.81" y="52.22" class="st0" width="2.13" height="17.97"/>
	<g>
		<path class="st0" d="M204.4,66.07c-0.59,2.86-2.64,4.42-5.58,4.42c-4.16,0-6.14-2.86-6.27-6.84c0-3.91,2.58-6.77,6.14-6.77
			c4.59,0,6.04,4.3,5.88,7.43h-9.75c-0.07,2.27,1.21,4.28,4.06,4.28c1.77,0,3.01-0.85,3.39-2.53H204.4z M202.33,62.45
			c-0.11-2.04-1.63-3.67-3.77-3.67c-2.24,0-3.58,1.69-3.72,3.67H202.33z"/>
		<path class="st0" d="M208.14,66.09c0.05,1.91,1.74,2.51,3.49,2.51c1.33,0,3.17-0.3,3.17-1.94c0-1.65-2.12-1.93-4.27-2.41
			c-2.12-0.47-4.26-1.17-4.26-3.67c0-2.62,2.59-3.69,4.88-3.69c2.85,0,5.15,0.9,5.33,4.06h-2.15c-0.14-1.66-1.6-2.17-3.01-2.17
			c-1.29,0-2.78,0.33-2.78,1.66c0,1.54,2.27,1.77,4.27,2.26c2.13,0.48,4.26,1.19,4.26,3.7c0,3.09-2.9,4.09-5.54,4.09
			c-2.94,0-5.41-1.18-5.53-4.39H208.14z"/>
		<path class="st0" d="M226.38,57.19h2.01v2.74h0.07c1.02-2.09,2.45-3.12,4.78-3.04v2.26c-3.45,0-4.72,1.96-4.72,5.26v5.79h-2.14
			V57.19z"/>
		<path class="st0" d="M245.52,66.07c-0.58,2.86-2.66,4.42-5.57,4.42c-4.16,0-6.11-2.86-6.25-6.84c0-3.91,2.58-6.77,6.12-6.77
			c4.62,0,6.03,4.3,5.91,7.43h-9.77c-0.08,2.28,1.22,4.28,4.07,4.28c1.77,0,2.99-0.85,3.39-2.53H245.52z M243.46,62.45
			c-0.1-2.04-1.65-3.67-3.77-3.67c-2.25,0-3.59,1.69-3.73,3.67H243.46z M240.21,51.8h2.74l-3.28,3.61h-1.63L240.21,51.8z"/>
		<path class="st0" d="M259.21,69.08c0,4.22-1.96,6.4-6.06,6.4c-2.44,0-5.27-0.99-5.39-3.83h2.15c0.09,1.56,1.95,2.12,3.37,2.12
			c2.77,0,3.89-2.02,3.89-4.93v-0.87h-0.04c-0.7,1.59-2.42,2.38-4.06,2.38c-3.9,0-5.82-3.04-5.82-6.6c0-3.07,1.51-6.86,6.04-6.86
			c1.63,0,3.09,0.73,3.87,2.16h0.02v-1.86h2.03V69.08z M257.08,63.42c0-2.28-1.02-4.64-3.7-4.64c-2.75,0-3.86,2.23-3.86,4.72
			c0,2.34,0.86,4.95,3.7,4.95C256.02,68.45,257.08,65.86,257.08,63.42"/>
	</g>
	<path class="st0" d="M262.56,70.19h2.14v-13h-2.14V70.19z M262.56,54.84h2.14v-2.62h-2.14V54.84z"/>
	<g>
		<path class="st0" d="M273.68,56.89c4.12,0,6.32,2.99,6.32,6.81c0,3.8-2.2,6.79-6.32,6.79c-4.16,0-6.35-2.99-6.35-6.79
			C267.33,59.88,269.52,56.89,273.68,56.89 M273.68,68.6c2.23,0,4.04-1.76,4.04-4.9c0-3.17-1.82-4.92-4.04-4.92
			c-2.26,0-4.07,1.75-4.07,4.92C269.61,66.85,271.42,68.6,273.68,68.6"/>
		<path class="st0" d="M282.54,57.19h2.01v2.06h0.06c0.9-1.61,2.37-2.36,4.23-2.36c3.43,0,4.47,1.97,4.47,4.75v8.56h-2.13v-8.81
			c0-1.58-1-2.61-2.65-2.61c-2.58,0-3.85,1.72-3.85,4.07v7.35h-2.14V57.19z"/>
		<path class="st0" d="M297.88,66.09c0.05,1.91,1.74,2.51,3.51,2.51c1.34,0,3.15-0.3,3.15-1.94c0-1.65-2.13-1.93-4.27-2.41
			c-2.13-0.47-4.26-1.17-4.26-3.67c0-2.62,2.6-3.69,4.87-3.69c2.87,0,5.15,0.9,5.33,4.06h-2.15c-0.14-1.66-1.6-2.17-3.02-2.17
			c-1.29,0-2.76,0.33-2.76,1.66c0,1.54,2.27,1.77,4.25,2.26c2.14,0.48,4.28,1.19,4.28,3.7c0,3.09-2.91,4.09-5.55,4.09
			c-2.93,0-5.42-1.18-5.53-4.39H297.88z"/>
		<path class="st0" d="M327.84,70.19h-2.16v-1.76h-0.03c-0.71,1.44-2.39,2.06-4.16,2.06c-4.03,0-6-3.16-6-6.84
			c0-3.68,1.96-6.77,5.95-6.77c1.32,0,3.24,0.49,4.21,2.03h0.03v-6.7h2.16V70.19z M321.79,68.6c2.88,0,3.99-2.47,3.99-4.9
			c0-2.56-1.17-4.92-4.12-4.92c-2.93,0-3.91,2.48-3.91,5.02C317.75,66.24,319.01,68.6,321.79,68.6"/>
		<path class="st0" d="M341.95,70.19h-2.01v-2.06h-0.05c-0.91,1.61-2.37,2.36-4.23,2.36c-3.44,0-4.5-1.95-4.5-4.75v-8.55h2.15V66
			c0,1.57,0.99,2.61,2.64,2.61c2.59,0,3.87-1.73,3.87-4.07v-7.34h2.14V70.19z"/>
		<path class="st0" d="M367.23,71.75l-2.75-2.21c-1.19,0.7-2.63,1.08-4.31,1.08c-5.73,0-8.63-4.53-8.63-9.41
			c0-4.87,2.9-9.41,8.63-9.41c5.72,0,8.62,4.54,8.62,9.41c0,2.74-0.9,5.38-2.72,7.15l2.37,1.88L367.23,71.75z M361.94,65.07
			l2.39,1.9c1.42-1.38,2.07-3.59,2.07-5.76c0-3.63-1.85-7.4-6.24-7.4c-4.4,0-6.22,3.77-6.22,7.4c0,3.62,1.82,7.39,6.22,7.39
			c0.95,0,1.74-0.16,2.5-0.5l-2-1.58L361.94,65.07z"/>
		<path class="st0" d="M382.17,70.19h-2v-2.06h-0.06c-0.91,1.61-2.38,2.36-4.24,2.36c-3.42,0-4.48-1.95-4.48-4.75v-8.55h2.13V66
			c0,1.57,1.03,2.61,2.65,2.61c2.59,0,3.87-1.73,3.87-4.07v-7.34h2.14V70.19z"/>
		<path class="st0" d="M396.54,66.07c-0.57,2.86-2.65,4.42-5.58,4.42c-4.15,0-6.13-2.86-6.26-6.84c0-3.91,2.57-6.77,6.12-6.77
			c4.63,0,6.04,4.3,5.92,7.43h-9.77c-0.08,2.28,1.21,4.28,4.06,4.28c1.78,0,3.01-0.85,3.38-2.53H396.54z M394.46,62.45
			c-0.11-2.04-1.63-3.67-3.75-3.67c-2.25,0-3.59,1.69-3.74,3.67H394.46z M391.2,51.8h2.77l-3.3,3.61h-1.61L391.2,51.8z"/>
		<path class="st0" d="M399.05,52.22h2.13v6.73h0.07c0.69-1.43,2.36-2.06,4.15-2.06c4,0,5.99,3.17,5.99,6.84
			c0,3.67-1.97,6.76-5.95,6.76c-1.33,0-3.24-0.5-4.19-2.04h-0.07v1.74h-2.13V52.22z M405.08,58.78c-2.88,0-3.99,2.46-3.99,4.9
			c0,2.57,1.16,4.93,4.11,4.93c2.96,0,3.93-2.49,3.93-5.03C409.13,61.14,407.88,58.78,405.08,58.78"/>
		<path class="st0" d="M425.04,66.07c-0.58,2.86-2.64,4.42-5.55,4.42c-4.17,0-6.12-2.86-6.26-6.84c0-3.91,2.57-6.77,6.13-6.77
			c4.62,0,6.02,4.3,5.91,7.43h-9.76c-0.07,2.27,1.21,4.28,4.04,4.28c1.77,0,3.02-0.85,3.37-2.53H425.04z M422.97,62.45
			c-0.09-2.04-1.61-3.67-3.74-3.67c-2.24,0-3.6,1.69-3.73,3.67H422.97z"/>
		<path class="st0" d="M436.33,61.36c-0.31-1.63-1.45-2.59-3.23-2.59c-3.09,0-4.06,2.44-4.06,5.08c0,2.39,1.1,4.76,3.81,4.76
			c2.08,0,3.32-1.21,3.59-3.16h2.19c-0.47,3.16-2.46,5.05-5.75,5.05c-3.98,0-6.1-2.77-6.1-6.64c0-3.89,2.02-6.96,6.16-6.96
			c2.94,0,5.3,1.37,5.63,4.47H436.33z"/>
		<path class="st0" d="M478.42,59.08h-2.2v-1.89h2.2v-1.94c0-2.12,1.27-3.22,3.6-3.22c0.42,0,0.99,0.07,1.38,0.2v1.87
			c-0.35-0.12-0.82-0.18-1.18-0.18c-1.04,0-1.64,0.32-1.64,1.46v1.81h2.51v1.89h-2.51v11.12h-2.15V59.08z"/>
		<path class="st0" d="M490.56,5.83c-0.5-2.54-2.56-3.82-5.06-3.82c-4.29,0-6.09,3.52-6.09,7.27c0,4.09,1.8,7.53,6.13,7.53
			c3.13,0,4.97-2.22,5.2-5.19h2.4c-0.48,4.47-3.28,7.2-7.8,7.2c-5.62,0-8.33-4.13-8.33-9.36c0-5.2,2.98-9.45,8.53-9.45
			c3.76,0,6.83,2.01,7.41,5.83H490.56z"/>
		<path class="st0" d="M507.06,18.33c-0.4,0.23-0.85,0.36-1.55,0.36c-1.1,0-1.81-0.61-1.81-2.02c-1.18,1.39-2.78,2.02-4.59,2.02
			c-2.36,0-4.34-1.06-4.34-3.65c0-2.94,2.22-3.58,4.43-4c2.38-0.45,4.39-0.3,4.39-1.91c0-1.87-1.52-2.17-2.89-2.17
			c-1.82,0-3.18,0.56-3.26,2.47h-2.12c0.11-3.22,2.62-4.36,5.51-4.36c2.35,0,4.89,0.54,4.89,3.58v6.7c0,0.99,0,1.44,0.68,1.44
			c0.19,0,0.38-0.02,0.66-0.12V18.33z M503.57,11.67c-0.83,0.61-2.44,0.63-3.87,0.88c-1.42,0.25-2.63,0.76-2.63,2.35
			c0,1.4,1.2,1.9,2.52,1.9c2.82,0,3.98-1.75,3.98-2.93V11.67z"/>
		<path class="st0" d="M509.07,5.37h2.02v2.07h0.05c0.92-1.61,2.36-2.37,4.23-2.37c3.44,0,4.5,1.97,4.5,4.75v8.56h-2.14V9.58
			c0-1.59-1.01-2.62-2.66-2.62c-2.59,0-3.86,1.73-3.86,4.08v7.35h-2.15V5.37z"/>
		<path class="st0" d="M534.53,18.33c-0.36,0.23-0.86,0.36-1.51,0.36c-1.11,0-1.83-0.61-1.83-2.02c-1.17,1.39-2.77,2.02-4.58,2.02
			c-2.37,0-4.31-1.06-4.31-3.65c0-2.94,2.18-3.58,4.43-4c2.36-0.45,4.37-0.3,4.37-1.91c0-1.87-1.53-2.17-2.91-2.17
			c-1.81,0-3.14,0.56-3.24,2.47h-2.13c0.1-3.22,2.61-4.36,5.53-4.36c2.35,0,4.9,0.54,4.9,3.58v6.7c0,0.99,0,1.44,0.66,1.44
			c0.16,0,0.37-0.02,0.64-0.12V18.33z M531.08,11.67c-0.85,0.61-2.45,0.63-3.9,0.88c-1.4,0.25-2.6,0.76-2.6,2.35
			c0,1.4,1.2,1.9,2.51,1.9c2.8,0,3.99-1.75,3.99-2.93V11.67z"/>
		<path class="st0" d="M548.1,18.39h-2.14v-1.77h-0.04c-0.73,1.44-2.4,2.07-4.18,2.07c-4,0-5.99-3.18-5.99-6.85s1.97-6.77,5.94-6.77
			c1.34,0,3.27,0.51,4.24,2.04h0.04V0.43h2.14V18.39z M542.04,16.8c2.86,0,3.99-2.47,3.99-4.91c0-2.58-1.16-4.93-4.14-4.93
			c-2.91,0-3.89,2.49-3.89,5.03C538.01,14.44,539.25,16.8,542.04,16.8"/>
		<path class="st0" d="M562.86,18.33c-0.39,0.23-0.85,0.36-1.55,0.36c-1.1,0-1.82-0.61-1.82-2.02c-1.18,1.39-2.78,2.02-4.6,2.02
			c-2.36,0-4.31-1.06-4.31-3.65c0-2.94,2.2-3.58,4.43-4c2.36-0.45,4.38-0.3,4.38-1.91c0-1.87-1.55-2.17-2.89-2.17
			c-1.83,0-3.15,0.56-3.26,2.47h-2.14c0.12-3.22,2.63-4.36,5.54-4.36c2.32,0,4.87,0.54,4.87,3.58v6.7c0,0.99,0,1.44,0.67,1.44
			c0.19,0,0.39-0.02,0.67-0.12V18.33z M559.38,11.67c-0.83,0.61-2.47,0.63-3.89,0.88c-1.42,0.25-2.61,0.76-2.61,2.35
			c0,1.4,1.2,1.9,2.51,1.9c2.8,0,3.98-1.75,3.98-2.93V11.67z"/>
	</g>
	<polygon class="st0" points="572.21,0.43 584.66,0.43 584.66,2.44 574.6,2.44 574.6,8.15 583.96,8.15 583.96,10.16 574.6,10.16 
		574.6,16.37 584.73,16.37 584.73,18.39 572.21,18.39 	"/>
	<g>
		<path class="st0" d="M595.72,9.56c-0.33-1.64-1.47-2.6-3.25-2.6c-3.07,0-4.03,2.45-4.03,5.09c0,2.39,1.08,4.76,3.79,4.76
			c2.08,0,3.3-1.2,3.59-3.17h2.19c-0.47,3.17-2.48,5.06-5.75,5.06c-3.99,0-6.11-2.77-6.11-6.64c0-3.9,2.03-6.98,6.16-6.98
			c2.96,0,5.3,1.39,5.64,4.49H595.72z"/>
		<path class="st0" d="M606.07,5.07c4.13,0,6.32,3,6.32,6.82c0,3.8-2.2,6.8-6.32,6.8c-4.14,0-6.33-3-6.33-6.8
			C599.74,8.07,601.93,5.07,606.07,5.07 M606.07,16.8c2.24,0,4.07-1.76,4.07-4.91c0-3.17-1.83-4.93-4.07-4.93
			c-2.25,0-4.06,1.76-4.06,4.93C602.01,15.04,603.82,16.8,606.07,16.8"/>
		<path class="st0" d="M614.86,5.37h2.02v2.07h0.06c0.9-1.61,2.36-2.37,4.21-2.37c3.42,0,4.48,1.97,4.48,4.75v8.56h-2.12V9.58
			c0-1.59-1.01-2.62-2.64-2.62c-2.6,0-3.89,1.73-3.89,4.08v7.35h-2.14V5.37z"/>
		<path class="st0" d="M634.4,5.07c4.16,0,6.35,3,6.35,6.82c0,3.8-2.19,6.8-6.35,6.8c-4.12,0-6.3-3-6.3-6.8
			C628.1,8.07,630.28,5.07,634.4,5.07 M634.4,16.8c2.26,0,4.08-1.76,4.08-4.91c0-3.17-1.82-4.93-4.08-4.93
			c-2.24,0-4.05,1.76-4.05,4.93C630.35,15.04,632.16,16.8,634.4,16.8"/>
		<path class="st0" d="M643.22,5.37h2v1.92h0.06c0.96-1.46,2.42-2.22,4.2-2.22c1.6,0,3.06,0.64,3.6,2.22
			c0.88-1.37,2.41-2.22,4.07-2.22c2.6,0,4.33,1.09,4.33,3.78v9.54h-2.13V9.86c0-1.61-0.42-2.9-2.53-2.9c-2.07,0-3.39,1.31-3.39,3.33
			v8.1h-2.14V9.86c0-1.69-0.54-2.9-2.46-2.9c-2.53,0-3.47,2.33-3.47,3.33v8.1h-2.14V5.37z"/>
	</g>
	<path class="st0" d="M664.71,18.39h2.17V5.37h-2.17V18.39z M664.71,3.04h2.17V0.43h-2.17V3.04z"/>
	<g>
		<path class="st0" d="M678.96,9.56c-0.33-1.64-1.47-2.6-3.22-2.6c-3.1,0-4.06,2.45-4.06,5.09c0,2.39,1.08,4.76,3.79,4.76
			c2.07,0,3.31-1.2,3.59-3.17h2.2c-0.48,3.17-2.48,5.06-5.75,5.06c-3.98,0-6.1-2.77-6.1-6.64c0-3.9,2-6.98,6.16-6.98
			c2.95,0,5.31,1.39,5.61,4.49H678.96z"/>
		<path class="st0" d="M477.89,26.33h6.16c5.54,0,8.67,2.76,8.67,8.55c0,6.02-2.65,9.4-8.67,9.4h-6.16V26.33z M480.29,42.29h3.99
			c1.63,0,6.07-0.47,6.07-7.07c0-4.28-1.61-6.87-6.02-6.87h-4.04V42.29z"/>
		<path class="st0" d="M506.47,40.17c-0.58,2.86-2.66,4.43-5.59,4.43c-4.15,0-6.13-2.88-6.23-6.85c0-3.9,2.58-6.77,6.12-6.77
			c4.61,0,6.03,4.3,5.9,7.44h-9.74c-0.09,2.28,1.19,4.28,4.04,4.28c1.77,0,3-0.86,3.38-2.53H506.47z M504.39,36.54
			c-0.09-2.04-1.65-3.67-3.73-3.67c-2.26,0-3.6,1.68-3.74,3.67H504.39z"/>
	</g>
	<polygon class="st0" points="514.37,44.29 512.06,44.29 507.23,31.29 509.62,31.29 513.28,42.12 513.34,42.12 516.9,31.29 
		519.12,31.29 	"/>
	<g>
		<path class="st0" d="M531.66,40.17c-0.57,2.86-2.64,4.43-5.57,4.43c-4.16,0-6.13-2.88-6.26-6.85c0-3.9,2.59-6.77,6.13-6.77
			c4.63,0,6.04,4.3,5.92,7.44h-9.77c-0.08,2.28,1.21,4.28,4.07,4.28c1.76,0,2.98-0.86,3.36-2.53H531.66z M529.6,36.54
			c-0.09-2.04-1.63-3.67-3.75-3.67c-2.26,0-3.58,1.68-3.74,3.67H529.6z"/>
	</g>
	<rect x="534.21" y="26.33" class="st0" width="2.15" height="17.95"/>
	<g>
		<path class="st0" d="M545.19,30.98c4.13,0,6.34,2.99,6.34,6.82c0,3.79-2.21,6.79-6.34,6.79c-4.12,0-6.33-3-6.33-6.79
			C538.86,33.97,541.08,30.98,545.19,30.98 M545.19,42.7c2.25,0,4.08-1.76,4.08-4.9c0-3.17-1.84-4.94-4.08-4.94
			c-2.22,0-4.06,1.77-4.06,4.94C541.13,40.94,542.97,42.7,545.19,42.7"/>
		<path class="st0" d="M554.03,31.29h2.13v1.76h0.06c0.68-1.43,2.36-2.07,4.15-2.07c4,0,6.01,3.17,6.01,6.85
			c0,3.66-1.96,6.77-5.95,6.77c-1.34,0-3.26-0.51-4.21-2.04h-0.06v6.71h-2.13V31.29z M560.08,32.87c-2.88,0-4.01,2.46-4.01,4.9
			c0,2.57,1.19,4.93,4.11,4.93c2.95,0,3.93-2.49,3.93-5.03C564.12,35.24,562.84,32.87,560.08,32.87"/>
		<path class="st0" d="M568.88,31.29h2.01v1.91h0.06c0.94-1.46,2.42-2.21,4.22-2.21c1.57,0,3.04,0.63,3.58,2.21
			c0.87-1.38,2.43-2.21,4.09-2.21c2.58,0,4.33,1.09,4.33,3.78v9.52h-2.13v-8.52c0-1.61-0.43-2.89-2.54-2.89
			c-2.06,0-3.4,1.31-3.4,3.31v8.1h-2.14v-8.52c0-1.69-0.54-2.89-2.45-2.89c-2.56,0-3.49,2.34-3.49,3.31v8.1h-2.13V31.29z"/>
		<path class="st0" d="M601.45,40.17c-0.58,2.86-2.65,4.43-5.57,4.43c-4.17,0-6.15-2.88-6.24-6.85c0-3.9,2.55-6.77,6.11-6.77
			c4.63,0,6.04,4.3,5.92,7.44h-9.77c-0.08,2.28,1.19,4.28,4.06,4.28c1.74,0,3-0.86,3.38-2.53H601.45z M599.38,36.54
			c-0.09-2.04-1.65-3.67-3.76-3.67c-2.24,0-3.57,1.68-3.72,3.67H599.38z"/>
		<path class="st0" d="M603.95,31.29h2.03v2.07h0.04c0.9-1.61,2.37-2.37,4.25-2.37c3.41,0,4.48,1.97,4.48,4.76v8.54h-2.14v-8.8
			c0-1.59-1.03-2.62-2.64-2.62c-2.62,0-3.89,1.73-3.89,4.06v7.35h-2.12V31.29z"/>
		<path class="st0" d="M620.79,31.29h2.59v1.88h-2.59v8.08c0,0.98,0.27,1.15,1.61,1.15h0.98v1.88h-1.64c-2.22,0-3.11-0.45-3.11-2.84
			v-8.27h-2.21v-1.88h2.21v-3.91h2.15V31.29z"/>
		<path class="st0" d="M490.34,56.89c4.13,0,6.32,2.99,6.32,6.81c0,3.8-2.19,6.79-6.32,6.79c-4.14,0-6.35-2.99-6.35-6.79
			C484,59.88,486.2,56.89,490.34,56.89 M490.34,68.6c2.26,0,4.07-1.76,4.07-4.9c0-3.17-1.81-4.92-4.07-4.92
			c-2.24,0-4.07,1.75-4.07,4.92C486.27,66.85,488.1,68.6,490.34,68.6"/>
		<path class="st0" d="M499.1,57.19h2.02v2.74h0.06c1.02-2.09,2.48-3.12,4.78-3.04v2.26c-3.47,0-4.71,1.96-4.71,5.26v5.79h-2.15
			V57.19z"/>
		<path class="st0" d="M529.63,71.75l-2.75-2.21c-1.2,0.7-2.64,1.08-4.31,1.08c-5.74,0-8.62-4.53-8.62-9.41
			c0-4.87,2.88-9.41,8.62-9.41c5.71,0,8.61,4.54,8.61,9.41c0,2.74-0.89,5.38-2.71,7.15l2.36,1.88L529.63,71.75z M524.31,65.07
			l2.41,1.9c1.4-1.38,2.06-3.59,2.06-5.76c0-3.63-1.84-7.4-6.2-7.4c-4.41,0-6.25,3.77-6.25,7.4c0,3.62,1.84,7.39,6.25,7.39
			c0.94,0,1.74-0.16,2.47-0.5l-1.98-1.58L524.31,65.07z"/>
		<path class="st0" d="M544.71,70.19h-2.02v-2.06h-0.06c-0.9,1.61-2.37,2.36-4.23,2.36c-3.42,0-4.49-1.95-4.49-4.75v-8.55h2.15V66
			c0,1.57,1,2.61,2.64,2.61c2.6,0,3.86-1.73,3.86-4.07v-7.34h2.15V70.19z"/>
		<path class="st0" d="M559,66.07c-0.57,2.86-2.66,4.42-5.57,4.42c-4.16,0-6.14-2.86-6.27-6.84c0-3.91,2.56-6.77,6.14-6.77
			c4.62,0,6.03,4.3,5.91,7.43h-9.77c-0.09,2.27,1.21,4.28,4.05,4.28c1.78,0,3-0.85,3.38-2.53H559z M556.92,62.45
			c-0.09-2.04-1.62-3.67-3.76-3.67c-2.24,0-3.57,1.69-3.71,3.67H556.92z"/>
		<path class="st0" d="M561.53,52.22h2.15v6.73h0.03c0.72-1.43,2.4-2.06,4.17-2.06c4.02,0,6.02,3.17,6.02,6.84
			c0,3.67-1.98,6.76-5.95,6.76c-1.36,0-3.26-0.5-4.23-2.04h-0.03v1.74h-2.15V52.22z M567.59,58.78c-2.89,0-3.99,2.46-3.99,4.9
			c0,2.57,1.16,4.93,4.11,4.93c2.93,0,3.9-2.49,3.9-5.03C571.61,61.14,570.34,58.78,567.59,58.78"/>
		<path class="st0" d="M587.54,66.07c-0.6,2.86-2.65,4.42-5.57,4.42c-4.17,0-6.15-2.86-6.26-6.84c0-3.91,2.58-6.77,6.12-6.77
			c4.61,0,6.05,4.3,5.9,7.43h-9.77c-0.06,2.27,1.23,4.28,4.08,4.28c1.78,0,3-0.85,3.38-2.53H587.54z M585.46,62.45
			c-0.07-2.04-1.62-3.67-3.76-3.67c-2.23,0-3.57,1.69-3.74,3.67H585.46z"/>
		<path class="st0" d="M598.96,61.36c-0.33-1.63-1.47-2.59-3.21-2.59c-3.09,0-4.07,2.44-4.07,5.08c0,2.39,1.08,4.76,3.79,4.76
			c2.08,0,3.33-1.21,3.58-3.16h2.2c-0.49,3.16-2.45,5.05-5.74,5.05c-3.99,0-6.12-2.77-6.12-6.64c0-3.89,2.05-6.96,6.15-6.96
			c2.97,0,5.34,1.37,5.65,4.47H598.96z"/>
		<path class="st0" d="M611.04,52.22h8.47c3.39,0,5.49,1.84,5.49,4.71c0,2.17-0.96,3.95-3.14,4.56v0.04c2.11,0.4,2.52,1.93,2.69,3.7
			c0.16,1.77,0.06,3.73,1.07,4.96h-2.67c-0.67-0.74-0.3-2.66-0.66-4.43c-0.25-1.78-0.68-3.26-2.99-3.26h-5.86v7.68h-2.4V52.22z
			 M618.45,60.51c2.24,0,4.16-0.58,4.16-3.2c0-1.75-0.98-3.07-3.22-3.07h-5.95v6.27H618.45z"/>
		<path class="st0" d="M638.99,66.07c-0.58,2.86-2.66,4.42-5.58,4.42c-4.16,0-6.12-2.86-6.25-6.84c0-3.91,2.58-6.77,6.14-6.77
			c4.6,0,6.02,4.3,5.89,7.43h-9.76c-0.05,2.27,1.23,4.28,4.05,4.28c1.78,0,3-0.85,3.39-2.53H638.99z M636.91,62.45
			c-0.1-2.04-1.64-3.67-3.75-3.67c-2.25,0-3.6,1.69-3.74,3.67H636.91z"/>
		<path class="st0" d="M652.82,69.08c0,4.22-1.93,6.4-6.06,6.4c-2.45,0-5.29-0.99-5.39-3.83h2.15c0.09,1.56,1.94,2.12,3.38,2.12
			c2.77,0,3.89-2.02,3.89-4.93v-0.87h-0.05c-0.72,1.59-2.42,2.38-4.07,2.38c-3.88,0-5.8-3.04-5.8-6.6c0-3.07,1.49-6.86,6.03-6.86
			c1.62,0,3.07,0.73,3.87,2.16h0.03v-1.86h2.02V69.08z M650.69,63.42c0-2.28-1.02-4.64-3.71-4.64c-2.75,0-3.88,2.23-3.88,4.72
			c0,2.34,0.88,4.95,3.69,4.95C649.63,68.45,650.69,65.86,650.69,63.42"/>
	</g>
	<path class="st0" d="M656.01,70.19h2.14v-13h-2.14V70.19z M656.01,54.84h2.14v-2.62h-2.14V54.84z"/>
	<g>
		<path class="st0" d="M666.98,56.89c4.17,0,6.35,2.99,6.35,6.81c0,3.8-2.18,6.79-6.35,6.79c-4.11,0-6.31-2.99-6.31-6.79
			C660.67,59.88,662.87,56.89,666.98,56.89 M666.98,68.6c2.25,0,4.08-1.76,4.08-4.9c0-3.17-1.83-4.92-4.08-4.92
			c-2.23,0-4.07,1.75-4.07,4.92C662.91,66.85,664.75,68.6,666.98,68.6"/>
		<path class="st0" d="M675.79,57.19h2.02v2.06h0.04c0.92-1.61,2.37-2.36,4.24-2.36c3.43,0,4.47,1.97,4.47,4.75v8.56h-2.13v-8.81
			c0-1.58-1.02-2.61-2.65-2.61c-2.58,0-3.86,1.72-3.86,4.07v7.35h-2.13V57.19z"/>
		<path class="st0" d="M691.1,66.09c0.07,1.91,1.73,2.51,3.51,2.51c1.33,0,3.14-0.3,3.14-1.94c0-1.65-2.11-1.93-4.27-2.41
			c-2.09-0.47-4.24-1.17-4.24-3.67c0-2.62,2.58-3.69,4.87-3.69c2.87,0,5.16,0.9,5.32,4.06h-2.13c-0.15-1.66-1.6-2.17-3.02-2.17
			c-1.29,0-2.79,0.33-2.79,1.66c0,1.54,2.29,1.77,4.28,2.26c2.14,0.48,4.24,1.19,4.24,3.7c0,3.09-2.9,4.09-5.53,4.09
			c-2.93,0-5.41-1.18-5.55-4.39H691.1z"/>
		<path class="st1" d="M44.31,3.69c0,0-2.74,5.27-3.11,5.81c-0.36,0.72-0.73,0.72-1.29,0.37c-0.73-0.37-2.93-1.64-2.93-1.64
			s2.03,8.71,2.03,9.44c0.18,0.73-0.56,1.28-1.28,0.73c-0.2-0.18-4.03-4.54-4.03-4.54s-0.92,2-1.11,2.37
			c-0.18,0.36-0.36,0.71-0.91,0.54c-0.74-0.18-4.21-0.91-4.21-0.91s1.3,4.35,1.48,4.91c0.17,0.42,0.35,0.91-0.38,1.26l-1.28,0.55
			c0,0,7.5,6.56,7.69,6.73c0.37,0.37,0.75,0.55,0.37,1.65c-0.37,1.1-0.73,2.55-0.73,2.55s6.94-1.45,7.68-1.65
			c0.63-0.06,1.34,0.2,1.34,0.92c0,0.73-0.43,8.22-0.43,8.22h2.2c0,0-0.43-7.5-0.43-8.22c0-0.72,0.69-0.98,1.35-0.92
			c0.74,0.2,7.69,1.65,7.69,1.65s-0.37-1.45-0.74-2.55c-0.36-1.1,0-1.27,0.38-1.65c0.18-0.17,7.68-6.73,7.68-6.73l-1.28-0.55
			c-0.72-0.36-0.54-0.84-0.37-1.26c0.18-0.56,1.48-4.91,1.48-4.91s-3.47,0.73-4.22,0.91c-0.55,0.17-0.74-0.18-0.92-0.54
			c-0.18-0.37-1.09-2.37-1.09-2.37s-3.86,4.36-4.03,4.54c-0.74,0.55-1.46,0-1.28-0.73c0-0.73,2.01-9.44,2.01-9.44
			s-2.19,1.27-2.93,1.64c-0.55,0.35-0.93,0.35-1.29-0.37C47.08,8.96,44.31,3.69,44.31,3.69"/>
	</g>
	<rect y="0.42" class="st1" width="22.16" height="43.88"/>
	<rect x="66.47" y="0.42" class="st1" width="22.17" height="43.88"/>
</g>
</svg>
