<?xml version="1.0" encoding="utf-8"?>
<!-- Generator: Adobe Illustrator 27.5.0, SVG Export Plug-In . SVG Version: 6.00 Build 0)  -->
<svg version="1.1" id="Layer_1" xmlns="http://www.w3.org/2000/svg" xmlns:xlink="http://www.w3.org/1999/xlink" x="0px" y="0px"
	 viewBox="0 0 700 76" style="enable-background:new 0 0 700 76;" xml:space="preserve">
<style type="text/css">
	.st0{fill:#231F20;}
	.st1{fill:#EC1C24;}
</style>
<g>
	<path class="st0" d="M392.59,16.43h3.99c1.64,0,6.06-0.45,6.06-7.1c0-4.29-1.59-6.89-6.01-6.89h-4.04V16.43z M390.19,0.43h6.19
		c5.55,0,8.65,2.78,8.65,8.59c0,6.03-2.65,9.44-8.65,9.44h-6.19V0.43z"/>
	<path class="st0" d="M413.43,0h2.75l-3.3,3.61h-1.62L413.43,0z M416.69,10.68c-0.1-2.05-1.64-3.69-3.77-3.69
		c-2.25,0-3.58,1.69-3.74,3.69H416.69z M418.75,14.31c-0.58,2.88-2.65,4.44-5.58,4.44c-4.17,0-6.14-2.88-6.26-6.87
		c0-3.92,2.58-6.79,6.13-6.79c4.62,0,6.03,4.32,5.91,7.47h-9.77c-0.07,2.27,1.21,4.29,4.07,4.29c1.77,0,3.01-0.86,3.38-2.55H418.75z
		"/>
	<polygon class="st0" points="427.07,18.45 424.77,18.45 419.92,5.4 422.32,5.4 425.98,16.28 426.03,16.28 429.59,5.4 431.84,5.4 	
		"/>
	<path class="st0" d="M442.88,10.68c-0.1-2.05-1.64-3.69-3.76-3.69c-2.25,0-3.59,1.69-3.74,3.69H442.88z M444.95,14.31
		c-0.58,2.88-2.65,4.44-5.58,4.44c-4.17,0-6.13-2.88-6.26-6.87c0-3.92,2.57-6.79,6.13-6.79c4.62,0,6.03,4.32,5.91,7.47h-9.77
		c-0.08,2.27,1.21,4.29,4.07,4.29c1.77,0,3.01-0.86,3.38-2.55H444.95z"/>
	<rect x="447.51" y="0.43" class="st0" width="2.15" height="18.03"/>
	<path class="st0" d="M458.61,16.86c2.25,0,4.07-1.77,4.07-4.92c0-3.18-1.82-4.95-4.07-4.95c-2.25,0-4.06,1.77-4.06,4.95
		C454.55,15.1,456.37,16.86,458.61,16.86 M458.61,5.1c4.14,0,6.34,3,6.34,6.84c0,3.81-2.19,6.82-6.34,6.82
		c-4.14,0-6.34-3.01-6.34-6.82C452.28,8.1,454.48,5.1,458.61,5.1"/>
	<path class="st0" d="M473.62,6.99c-2.88,0-3.99,2.47-3.99,4.92c0,2.58,1.16,4.95,4.12,4.95c2.93,0,3.91-2.5,3.91-5.05
		C477.66,9.36,476.4,6.99,473.62,6.99 M467.56,5.4h2.15v1.77h0.05c0.7-1.44,2.37-2.07,4.16-2.07c4.01,0,6.01,3.19,6.01,6.87
		c0,3.69-1.97,6.8-5.96,6.8c-1.34,0-3.26-0.51-4.21-2.05h-0.05v6.74h-2.15V5.4z"/>
	<path class="st0" d="M488.6,6.99c-2.88,0-3.99,2.47-3.99,4.92c0,2.58,1.16,4.95,4.12,4.95c2.93,0,3.91-2.5,3.91-5.05
		C492.64,9.36,491.37,6.99,488.6,6.99 M482.54,5.4h2.15v1.77h0.05c0.7-1.44,2.37-2.07,4.16-2.07c4.01,0,6.01,3.19,6.01,6.87
		c0,3.69-1.97,6.8-5.96,6.8c-1.34,0-3.26-0.51-4.21-2.05h-0.05v6.74h-2.15V5.4z"/>
	<path class="st0" d="M506.51,10.68c-0.1-2.05-1.64-3.69-3.76-3.69c-2.25,0-3.59,1.69-3.74,3.69H506.51z M508.58,14.31
		c-0.58,2.88-2.65,4.44-5.58,4.44c-4.17,0-6.14-2.88-6.26-6.87c0-3.92,2.58-6.79,6.13-6.79c4.63,0,6.03,4.32,5.91,7.47h-9.77
		c-0.07,2.27,1.21,4.29,4.07,4.29c1.77,0,3-0.86,3.39-2.55H508.58z"/>
	<path class="st0" d="M511.01,5.4h2.02v1.92h0.05c0.96-1.47,2.43-2.23,4.22-2.23c1.59,0,3.05,0.63,3.59,2.23
		c0.88-1.39,2.42-2.23,4.09-2.23c2.6,0,4.34,1.09,4.34,3.79v9.57h-2.14V9.89c0-1.61-0.43-2.9-2.53-2.9c-2.07,0-3.4,1.31-3.4,3.33
		v8.13h-2.15V9.89c0-1.69-0.53-2.9-2.45-2.9c-2.55,0-3.48,2.35-3.48,3.33v8.13h-2.15V5.4z"/>
	<path class="st0" d="M541.62,10.68c-0.1-2.05-1.64-3.69-3.76-3.69c-2.25,0-3.58,1.69-3.74,3.69H541.62z M543.69,14.31
		c-0.58,2.88-2.65,4.44-5.58,4.44c-4.17,0-6.14-2.88-6.26-6.87c0-3.92,2.57-6.79,6.14-6.79c4.62,0,6.03,4.32,5.91,7.47h-9.77
		c-0.07,2.27,1.21,4.29,4.07,4.29c1.77,0,3-0.86,3.39-2.55H543.69z"/>
	<path class="st0" d="M546.12,5.4h2.02v2.07h0.05c0.91-1.62,2.37-2.38,4.24-2.38c3.43,0,4.5,1.97,4.5,4.77v8.58h-2.15V9.62
		c0-1.59-1.01-2.62-2.65-2.62c-2.6,0-3.86,1.74-3.86,4.09v7.37h-2.15V5.4z"/>
	<path class="st0" d="M563.14,5.4h2.6v1.89h-2.6v8.11c0,0.98,0.28,1.16,1.61,1.16h0.99v1.89h-1.64c-2.23,0-3.11-0.45-3.11-2.85V7.29
		h-2.22V5.4H561V1.49h2.15V5.4z"/>
	<path class="st0" d="M395.65,26h2.75l-3.31,3.61h-1.62L395.65,26z M398.9,36.67c-0.1-2.05-1.64-3.69-3.76-3.69
		c-2.25,0-3.59,1.69-3.74,3.69H398.9z M400.97,40.31c-0.58,2.88-2.65,4.44-5.58,4.44c-4.17,0-6.13-2.88-6.26-6.87
		c0-3.91,2.57-6.79,6.13-6.79c4.62,0,6.03,4.32,5.91,7.47h-9.77c-0.08,2.27,1.21,4.29,4.07,4.29c1.77,0,3.01-0.86,3.38-2.55H400.97z
		"/>
	<path class="st0" d="M412.27,35.59c-0.33-1.64-1.47-2.6-3.23-2.6c-3.11,0-4.07,2.45-4.07,5.1c0,2.4,1.08,4.77,3.81,4.77
		c2.07,0,3.3-1.21,3.58-3.18h2.2c-0.48,3.18-2.48,5.08-5.76,5.08c-3.99,0-6.11-2.78-6.11-6.67c0-3.91,2.02-7,6.16-7
		c2.95,0,5.33,1.39,5.63,4.5H412.27z"/>
	<path class="st0" d="M422.59,42.86c2.25,0,4.07-1.77,4.07-4.92c0-3.18-1.82-4.95-4.07-4.95c-2.25,0-4.06,1.77-4.06,4.95
		C418.53,41.09,420.35,42.86,422.59,42.86 M422.59,31.1c4.14,0,6.34,3,6.34,6.84c0,3.81-2.19,6.82-6.34,6.82
		c-4.14,0-6.34-3.01-6.34-6.82C416.26,34.1,418.46,31.1,422.59,31.1"/>
	<path class="st0" d="M431.47,31.4h2.02v2.07h0.05c0.91-1.62,2.37-2.38,4.24-2.38c3.43,0,4.5,1.97,4.5,4.77v8.58h-2.15v-8.83
		c0-1.59-1.01-2.63-2.65-2.63c-2.6,0-3.86,1.74-3.86,4.09v7.37h-2.15V31.4z"/>
	<path class="st0" d="M451.14,42.86c2.25,0,4.07-1.77,4.07-4.92c0-3.18-1.82-4.95-4.07-4.95c-2.24,0-4.07,1.77-4.07,4.95
		C447.07,41.09,448.9,42.86,451.14,42.86 M451.14,31.1c4.14,0,6.34,3,6.34,6.84c0,3.81-2.2,6.82-6.34,6.82
		c-4.14,0-6.34-3.01-6.34-6.82C444.8,34.1,447,31.1,451.14,31.1"/>
	<path class="st0" d="M460.01,31.4h2.02v1.92h0.05c0.96-1.47,2.42-2.22,4.21-2.22c1.59,0,3.06,0.63,3.58,2.22
		c0.89-1.39,2.42-2.22,4.09-2.22c2.6,0,4.34,1.09,4.34,3.79v9.56h-2.14v-8.56c0-1.62-0.43-2.9-2.52-2.9c-2.07,0-3.41,1.31-3.41,3.33
		v8.13h-2.14v-8.56c0-1.69-0.53-2.9-2.45-2.9c-2.55,0-3.49,2.35-3.49,3.33v8.13h-2.15V31.4z"/>
	<path class="st0" d="M481.68,44.45h2.15V31.4h-2.15V44.45z M481.68,29.05h2.15v-2.63h-2.15V29.05z"/>
	<path class="st0" d="M492.77,42.86c2.88,0,3.99-2.47,3.99-4.92c0-2.57-1.16-4.95-4.12-4.95c-2.93,0-3.91,2.5-3.91,5.05
		C488.73,40.49,489.99,42.86,492.77,42.86 M498.83,49.45h-2.15v-6.77h-0.05c-0.71,1.44-2.37,2.07-4.16,2.07
		c-4.01,0-6.01-3.18-6.01-6.87c0-3.69,1.97-6.79,5.96-6.79c1.34,0,3.26,0.5,4.21,2.04h0.05V31.4h2.15V49.45z"/>
	<path class="st0" d="M512.95,44.45h-2.02v-2.07h-0.05c-0.91,1.61-2.37,2.37-4.24,2.37c-3.43,0-4.5-1.97-4.5-4.77V31.4h2.15v8.84
		c0,1.59,1.01,2.62,2.66,2.62c2.6,0,3.86-1.74,3.86-4.09V31.4h2.15V44.45z"/>
	<path class="st0" d="M525.25,36.67c-0.1-2.05-1.65-3.69-3.76-3.69c-2.25,0-3.58,1.69-3.74,3.69H525.25z M527.32,40.31
		c-0.57,2.88-2.65,4.44-5.58,4.44c-4.17,0-6.14-2.88-6.26-6.87c0-3.91,2.58-6.79,6.13-6.79c4.62,0,6.03,4.32,5.91,7.47h-9.77
		c-0.08,2.27,1.21,4.29,4.07,4.29c1.77,0,3-0.86,3.38-2.55H527.32z"/>
	<path class="st0" d="M549.8,31.85c-0.51-2.55-2.55-3.84-5.05-3.84c-4.29,0-6.11,3.53-6.11,7.29c0,4.12,1.82,7.55,6.13,7.55
		c3.16,0,4.98-2.22,5.2-5.2h2.4c-0.46,4.5-3.26,7.22-7.8,7.22c-5.6,0-8.33-4.14-8.33-9.39c0-5.23,2.98-9.49,8.53-9.49
		c3.76,0,6.87,2.02,7.42,5.86H549.8z"/>
	<path class="st0" d="M563.09,37.71c-0.83,0.61-2.45,0.63-3.89,0.88c-1.42,0.25-2.63,0.76-2.63,2.35c0,1.41,1.21,1.92,2.53,1.92
		c2.83,0,3.99-1.77,3.99-2.95V37.71z M566.58,44.4c-0.38,0.23-0.86,0.35-1.55,0.35c-1.11,0-1.82-0.61-1.82-2.02
		c-1.18,1.39-2.77,2.02-4.59,2.02c-2.37,0-4.31-1.06-4.31-3.67c0-2.95,2.2-3.58,4.42-4.01c2.37-0.45,4.4-0.3,4.4-1.92
		c0-1.86-1.54-2.17-2.9-2.17c-1.82,0-3.16,0.56-3.26,2.48h-2.14c0.13-3.23,2.62-4.37,5.53-4.37c2.35,0,4.9,0.53,4.9,3.59v6.72
		c0,1.01,0,1.46,0.68,1.46c0.17,0,0.37-0.02,0.66-0.13V44.4z"/>
	<path class="st0" d="M568.58,31.4h2.02v2.07h0.05c0.91-1.62,2.37-2.38,4.24-2.38c3.43,0,4.49,1.97,4.49,4.77v8.58h-2.15v-8.83
		c0-1.59-1.01-2.63-2.65-2.63c-2.6,0-3.86,1.74-3.86,4.09v7.37h-2.15V31.4z"/>
	<path class="st0" d="M590.7,37.71c-0.84,0.61-2.45,0.63-3.89,0.88c-1.41,0.25-2.62,0.76-2.62,2.35c0,1.41,1.21,1.92,2.53,1.92
		c2.82,0,3.99-1.77,3.99-2.95V37.71z M594.18,44.4c-0.37,0.23-0.85,0.35-1.54,0.35c-1.11,0-1.82-0.61-1.82-2.02
		c-1.19,1.39-2.78,2.02-4.59,2.02c-2.37,0-4.32-1.06-4.32-3.67c0-2.95,2.2-3.58,4.42-4.01c2.37-0.45,4.4-0.3,4.4-1.92
		c0-1.86-1.54-2.17-2.91-2.17c-1.82,0-3.16,0.56-3.26,2.48h-2.15c0.13-3.23,2.62-4.37,5.53-4.37c2.35,0,4.9,0.53,4.9,3.59v6.72
		c0,1.01,0,1.46,0.68,1.46c0.17,0,0.37-0.02,0.65-0.13V44.4z"/>
	<path class="st0" d="M601.79,42.86c2.88,0,3.99-2.47,3.99-4.92c0-2.57-1.16-4.95-4.12-4.95c-2.92,0-3.91,2.5-3.91,5.05
		C597.75,40.49,599.01,42.86,601.79,42.86 M607.85,44.45h-2.15v-1.77h-0.05c-0.71,1.44-2.37,2.07-4.17,2.07
		c-4.01,0-6.01-3.18-6.01-6.87c0-3.69,1.97-6.79,5.96-6.79c1.34,0,3.26,0.5,4.22,2.05h0.05v-6.72h2.15V44.45z"/>
	<path class="st0" d="M619.24,37.71c-0.83,0.61-2.45,0.63-3.89,0.88c-1.41,0.25-2.63,0.76-2.63,2.35c0,1.41,1.21,1.92,2.53,1.92
		c2.82,0,3.99-1.77,3.99-2.95V37.71z M622.73,44.4c-0.37,0.23-0.86,0.35-1.54,0.35c-1.11,0-1.82-0.61-1.82-2.02
		c-1.18,1.39-2.77,2.02-4.59,2.02c-2.38,0-4.32-1.06-4.32-3.67c0-2.95,2.2-3.58,4.42-4.01c2.37-0.45,4.39-0.3,4.39-1.92
		c0-1.86-1.54-2.17-2.9-2.17c-1.82,0-3.15,0.56-3.26,2.48h-2.15c0.13-3.23,2.62-4.37,5.53-4.37c2.35,0,4.9,0.53,4.9,3.59v6.72
		c0,1.01,0,1.46,0.68,1.46c0.18,0,0.38-0.02,0.66-0.13V44.4z"/>
	<path class="st0" d="M395.97,58.99c-2.88,0-3.99,2.47-3.99,4.92c0,2.58,1.16,4.95,4.12,4.95c2.93,0,3.91-2.5,3.91-5.05
		C400.01,61.36,398.75,58.99,395.97,58.99 M389.91,57.39h2.15v1.77h0.05c0.7-1.44,2.37-2.07,4.16-2.07c4.01,0,6.01,3.18,6.01,6.86
		c0,3.69-1.97,6.79-5.96,6.79c-1.34,0-3.26-0.51-4.21-2.05h-0.05v6.74h-2.15V57.39z"/>
	<path class="st0" d="M410.45,68.86c2.25,0,4.06-1.77,4.06-4.93c0-3.18-1.82-4.95-4.06-4.95c-2.25,0-4.07,1.77-4.07,4.95
		C406.38,67.09,408.2,68.86,410.45,68.86 M410.45,57.09c4.14,0,6.34,3,6.34,6.84c0,3.81-2.2,6.82-6.34,6.82
		c-4.14,0-6.34-3-6.34-6.82C404.11,60.1,406.3,57.09,410.45,57.09"/>
	<path class="st0" d="M430.12,70.45h-2.02v-2.07h-0.05c-0.91,1.61-2.38,2.37-4.25,2.37c-3.43,0-4.49-1.97-4.49-4.77v-8.58h2.14v8.84
		c0,1.59,1.01,2.62,2.66,2.62c2.6,0,3.86-1.74,3.86-4.09v-7.37h2.14V70.45z"/>
	<path class="st0" d="M433.28,57.39h2.02v2.75h0.05c1.04-2.1,2.47-3.13,4.8-3.05v2.27c-3.46,0-4.72,1.97-4.72,5.28v5.81h-2.15V57.39
		z"/>
	<rect x="448.92" y="52.42" class="st0" width="2.15" height="18.03"/>
	<path class="st0" d="M463.47,62.67c-0.1-2.05-1.64-3.69-3.76-3.69c-2.25,0-3.59,1.69-3.74,3.69H463.47z M465.54,66.31
		c-0.58,2.88-2.65,4.44-5.58,4.44c-4.17,0-6.14-2.88-6.26-6.87c0-3.91,2.57-6.79,6.13-6.79c4.62,0,6.03,4.31,5.91,7.47h-9.77
		c-0.07,2.27,1.21,4.29,4.07,4.29c1.77,0,3-0.86,3.38-2.55H465.54z"/>
	<path class="st0" d="M469.28,66.33c0.07,1.92,1.74,2.53,3.51,2.53c1.34,0,3.16-0.31,3.16-1.95c0-1.67-2.12-1.94-4.27-2.42
		c-2.12-0.48-4.27-1.19-4.27-3.69c0-2.62,2.6-3.71,4.87-3.71c2.88,0,5.17,0.91,5.35,4.09h-2.14c-0.15-1.67-1.62-2.2-3.03-2.2
		c-1.29,0-2.78,0.35-2.78,1.67c0,1.54,2.27,1.79,4.27,2.27c2.15,0.48,4.27,1.19,4.27,3.71c0,3.1-2.9,4.12-5.55,4.12
		c-2.93,0-5.41-1.19-5.53-4.42H469.28z"/>
	<path class="st0" d="M487.54,57.39h2.02v2.75h0.05c1.04-2.1,2.47-3.13,4.8-3.05v2.27c-3.46,0-4.72,1.97-4.72,5.28v5.81h-2.15V57.39
		z"/>
	<path class="st0" d="M501.39,51.99h2.75l-3.3,3.61h-1.62L501.39,51.99z M504.64,62.67c-0.1-2.05-1.64-3.69-3.77-3.69
		c-2.25,0-3.58,1.69-3.74,3.69H504.64z M506.71,66.31c-0.58,2.88-2.65,4.44-5.58,4.44c-4.17,0-6.14-2.88-6.26-6.87
		c0-3.91,2.58-6.79,6.13-6.79c4.62,0,6.03,4.31,5.91,7.47h-9.77c-0.07,2.27,1.21,4.29,4.07,4.29c1.77,0,3.01-0.86,3.38-2.55H506.71z
		"/>
	<path class="st0" d="M518.28,63.66c0-2.29-1.01-4.67-3.71-4.67c-2.75,0-3.87,2.25-3.87,4.75c0,2.35,0.86,4.97,3.69,4.97
		C517.22,68.71,518.28,66.11,518.28,63.66 M520.4,69.34c0,4.24-1.94,6.41-6.05,6.41c-2.45,0-5.28-0.99-5.41-3.84h2.15
		c0.1,1.57,1.97,2.12,3.38,2.12c2.8,0,3.91-2.02,3.91-4.95v-0.86h-0.05c-0.71,1.59-2.43,2.37-4.07,2.37c-3.89,0-5.83-3.05-5.83-6.62
		c0-3.08,1.52-6.89,6.03-6.89c1.64,0,3.11,0.73,3.89,2.17h0.02v-1.87h2.02V69.34z"/>
	<path class="st0" d="M523.76,70.45h2.15V57.39h-2.15V70.45z M523.76,55.05h2.15v-2.63h-2.15V55.05z"/>
	<path class="st0" d="M534.87,68.86c2.25,0,4.07-1.77,4.07-4.93c0-3.18-1.81-4.95-4.07-4.95c-2.24,0-4.06,1.77-4.06,4.95
		C530.82,67.09,532.63,68.86,534.87,68.86 M534.87,57.09c4.14,0,6.34,3,6.34,6.84c0,3.81-2.2,6.82-6.34,6.82
		c-4.14,0-6.33-3-6.33-6.82C528.54,60.1,530.73,57.09,534.87,57.09"/>
	<path class="st0" d="M543.75,57.39h2.02v2.07h0.05c0.91-1.62,2.37-2.37,4.25-2.37c3.43,0,4.49,1.97,4.49,4.77v8.58h-2.15v-8.84
		c0-1.59-1.01-2.63-2.66-2.63c-2.6,0-3.86,1.74-3.86,4.09v7.37h-2.15V57.39z"/>
	<path class="st0" d="M559.1,66.33c0.07,1.92,1.74,2.53,3.51,2.53c1.34,0,3.16-0.31,3.16-1.95c0-1.67-2.12-1.94-4.27-2.42
		c-2.12-0.48-4.26-1.19-4.26-3.69c0-2.62,2.59-3.71,4.87-3.71c2.88,0,5.17,0.91,5.35,4.09h-2.15c-0.15-1.67-1.61-2.2-3.03-2.2
		c-1.29,0-2.77,0.35-2.77,1.67c0,1.54,2.27,1.79,4.26,2.27c2.15,0.48,4.27,1.19,4.27,3.71c0,3.1-2.9,4.12-5.55,4.12
		c-2.93,0-5.41-1.19-5.53-4.42H559.1z"/>
	<path class="st0" d="M583.05,68.86c2.88,0,3.99-2.47,3.99-4.93c0-2.57-1.17-4.95-4.12-4.95c-2.93,0-3.91,2.5-3.91,5.05
		C579.01,66.49,580.27,68.86,583.05,68.86 M589.11,70.45h-2.15v-1.77h-0.05c-0.71,1.44-2.37,2.07-4.17,2.07
		c-4.01,0-6.01-3.18-6.01-6.87c0-3.69,1.97-6.79,5.96-6.79c1.33,0,3.25,0.5,4.21,2.04h0.05v-6.71h2.15V70.45z"/>
	<path class="st0" d="M603.23,70.45h-2.02v-2.07h-0.05c-0.91,1.61-2.37,2.37-4.24,2.37c-3.43,0-4.49-1.97-4.49-4.77v-8.58h2.15v8.84
		c0,1.59,1.01,2.62,2.65,2.62c2.6,0,3.86-1.74,3.86-4.09v-7.37h2.15V70.45z"/>
	<path class="st0" d="M623.24,65.3l2.39,1.92c1.42-1.39,2.07-3.61,2.07-5.78c0-3.63-1.84-7.42-6.23-7.42c-4.4,0-6.24,3.79-6.24,7.42
		c0,3.64,1.84,7.42,6.24,7.42c0.93,0,1.74-0.17,2.5-0.51l-2-1.59L623.24,65.3z M628.54,72.01l-2.75-2.22
		c-1.19,0.71-2.63,1.09-4.32,1.09c-5.73,0-8.64-4.55-8.64-9.45c0-4.89,2.91-9.44,8.64-9.44c5.73,0,8.63,4.55,8.63,9.44
		c0,2.75-0.91,5.4-2.72,7.17l2.37,1.89L628.54,72.01z"/>
	<path class="st0" d="M643.49,70.45h-2.02v-2.07h-0.05c-0.91,1.61-2.37,2.37-4.24,2.37c-3.43,0-4.49-1.97-4.49-4.77v-8.58h2.15v8.84
		c0,1.59,1.01,2.62,2.65,2.62c2.6,0,3.86-1.74,3.86-4.09v-7.37h2.15V70.45z"/>
	<path class="st0" d="M652.54,51.99h2.76l-3.31,3.61h-1.61L652.54,51.99z M655.8,62.67c-0.1-2.05-1.64-3.69-3.76-3.69
		c-2.25,0-3.59,1.69-3.74,3.69H655.8z M657.87,66.31c-0.58,2.88-2.65,4.44-5.58,4.44c-4.16,0-6.13-2.88-6.26-6.87
		c0-3.91,2.57-6.79,6.13-6.79c4.63,0,6.04,4.31,5.91,7.47h-9.77c-0.07,2.27,1.21,4.29,4.07,4.29c1.77,0,3-0.86,3.38-2.55H657.87z"/>
	<path class="st0" d="M666.43,58.99c-2.87,0-3.99,2.47-3.99,4.93c0,2.57,1.16,4.95,4.11,4.95c2.93,0,3.91-2.5,3.91-5.05
		C670.47,61.36,669.21,58.99,666.43,58.99 M660.37,52.42h2.14v6.74h0.05c0.71-1.44,2.37-2.07,4.17-2.07c4.01,0,6.01,3.18,6.01,6.87
		c0,3.69-1.97,6.79-5.96,6.79c-1.34,0-3.25-0.5-4.21-2.05h-0.05v1.74h-2.14V52.42z"/>
	<path class="st0" d="M684.34,62.67c-0.1-2.05-1.64-3.69-3.76-3.69c-2.25,0-3.59,1.69-3.74,3.69H684.34z M686.41,66.31
		c-0.58,2.88-2.65,4.44-5.58,4.44c-4.17,0-6.14-2.88-6.26-6.87c0-3.91,2.57-6.79,6.13-6.79c4.62,0,6.03,4.31,5.91,7.47h-9.77
		c-0.07,2.27,1.21,4.29,4.07,4.29c1.76,0,3-0.86,3.38-2.55H686.41z"/>
	<path class="st0" d="M697.7,61.59c-0.33-1.64-1.47-2.6-3.23-2.6c-3.1,0-4.06,2.45-4.06,5.1c0,2.4,1.09,4.77,3.81,4.77
		c2.07,0,3.31-1.21,3.59-3.18H700c-0.48,3.18-2.47,5.07-5.76,5.07c-3.99,0-6.11-2.78-6.11-6.66c0-3.91,2.02-6.99,6.16-6.99
		c2.96,0,5.32,1.39,5.63,4.5H697.7z"/>
	<path class="st0" d="M129.48,59.29h-2.2v-1.89h2.2v-1.94c0-2.12,1.26-3.23,3.61-3.23c0.41,0,0.99,0.08,1.39,0.2v1.87
		c-0.38-0.12-0.83-0.17-1.21-0.17c-1.03,0-1.64,0.33-1.64,1.47v1.82h2.53v1.89h-2.53v11.16h-2.14V59.29z"/>
	<path class="st0" d="M141.63,5.85c-0.5-2.55-2.55-3.83-5.05-3.83c-4.29,0-6.11,3.53-6.11,7.3c0,4.11,1.82,7.55,6.14,7.55
		c3.16,0,4.97-2.22,5.2-5.2h2.4c-0.45,4.49-3.26,7.22-7.8,7.22c-5.6,0-8.33-4.14-8.33-9.39c0-5.22,2.98-9.49,8.54-9.49
		c3.76,0,6.86,2.02,7.42,5.85H141.63z"/>
	<path class="st0" d="M154.66,11.71c-0.83,0.61-2.45,0.63-3.89,0.89c-1.42,0.25-2.62,0.75-2.62,2.35c0,1.41,1.21,1.92,2.52,1.92
		c2.83,0,3.99-1.77,3.99-2.96V11.71z M158.15,18.4c-0.38,0.23-0.86,0.35-1.54,0.35c-1.11,0-1.82-0.6-1.82-2.02
		c-1.19,1.39-2.78,2.02-4.59,2.02c-2.37,0-4.32-1.06-4.32-3.66c0-2.96,2.2-3.58,4.42-4.01c2.38-0.45,4.4-0.3,4.4-1.92
		c0-1.87-1.54-2.17-2.9-2.17c-1.82,0-3.16,0.56-3.26,2.47h-2.14c0.13-3.23,2.62-4.37,5.53-4.37c2.35,0,4.9,0.53,4.9,3.58v6.72
		c0,1.01,0,1.47,0.68,1.47c0.17,0,0.38-0.03,0.65-0.13V18.4z"/>
	<path class="st0" d="M160.17,5.4h2.02v2.07h0.05c0.91-1.62,2.37-2.38,4.24-2.38c3.43,0,4.49,1.97,4.49,4.77v8.58h-2.14V9.62
		c0-1.59-1.01-2.62-2.65-2.62c-2.6,0-3.87,1.74-3.87,4.09v7.37h-2.14V5.4z"/>
	<path class="st0" d="M182.19,11.71c-0.83,0.61-2.45,0.63-3.89,0.89c-1.41,0.25-2.63,0.75-2.63,2.35c0,1.41,1.21,1.92,2.52,1.92
		c2.83,0,3.99-1.77,3.99-2.96V11.71z M185.67,18.4c-0.38,0.23-0.86,0.35-1.54,0.35c-1.11,0-1.82-0.6-1.82-2.02
		c-1.18,1.39-2.77,2.02-4.59,2.02c-2.37,0-4.32-1.06-4.32-3.66c0-2.96,2.2-3.58,4.42-4.01c2.37-0.45,4.4-0.3,4.4-1.92
		c0-1.87-1.54-2.17-2.9-2.17c-1.82,0-3.16,0.56-3.26,2.47h-2.15c0.13-3.23,2.63-4.37,5.53-4.37c2.35,0,4.9,0.53,4.9,3.58v6.72
		c0,1.01,0,1.47,0.68,1.47c0.17,0,0.38-0.03,0.66-0.13V18.4z"/>
	<path class="st0" d="M193.17,16.86c2.88,0,3.99-2.48,3.99-4.92c0-2.58-1.16-4.95-4.12-4.95c-2.93,0-3.91,2.5-3.91,5.05
		C189.13,14.49,190.39,16.86,193.17,16.86 M199.23,18.45h-2.14v-1.76h-0.05c-0.71,1.44-2.38,2.07-4.17,2.07
		c-4.01,0-6.01-3.18-6.01-6.87c0-3.69,1.97-6.8,5.96-6.8c1.34,0,3.26,0.51,4.22,2.05h0.05V0.43h2.14V18.45z"/>
	<path class="st0" d="M210.52,11.71c-0.83,0.61-2.45,0.63-3.89,0.89c-1.41,0.25-2.63,0.75-2.63,2.35c0,1.41,1.21,1.92,2.52,1.92
		c2.83,0,3.99-1.77,3.99-2.96V11.71z M214,18.4c-0.38,0.23-0.86,0.35-1.54,0.35c-1.11,0-1.82-0.6-1.82-2.02
		c-1.18,1.39-2.77,2.02-4.59,2.02c-2.37,0-4.32-1.06-4.32-3.66c0-2.96,2.2-3.58,4.42-4.01c2.37-0.45,4.4-0.3,4.4-1.92
		c0-1.87-1.54-2.17-2.9-2.17c-1.82,0-3.16,0.56-3.26,2.47h-2.15c0.13-3.23,2.63-4.37,5.53-4.37c2.35,0,4.9,0.53,4.9,3.58v6.72
		c0,1.01,0,1.47,0.68,1.47c0.17,0,0.38-0.03,0.66-0.13V18.4z"/>
	<polygon class="st0" points="223.38,0.43 235.82,0.43 235.82,2.45 225.77,2.45 225.77,8.18 235.14,8.18 235.14,10.2 225.77,10.2 
		225.77,16.43 235.9,16.43 235.9,18.45 223.38,18.45 	"/>
	<path class="st0" d="M246.9,9.59c-0.33-1.64-1.46-2.6-3.23-2.6c-3.11,0-4.07,2.45-4.07,5.1c0,2.4,1.09,4.77,3.81,4.77
		c2.07,0,3.31-1.21,3.58-3.18h2.2c-0.48,3.18-2.47,5.07-5.76,5.07c-3.99,0-6.11-2.78-6.11-6.66c0-3.91,2.02-6.99,6.16-6.99
		c2.95,0,5.32,1.39,5.63,4.5H246.9z"/>
	<path class="st0" d="M257.26,16.86c2.25,0,4.06-1.77,4.06-4.92c0-3.18-1.82-4.95-4.06-4.95c-2.25,0-4.07,1.77-4.07,4.95
		C253.19,15.1,255.01,16.86,257.26,16.86 M257.26,5.1c4.14,0,6.34,3,6.34,6.84c0,3.81-2.2,6.82-6.34,6.82
		c-4.14,0-6.34-3.01-6.34-6.82C250.92,8.1,253.12,5.1,257.26,5.1"/>
	<path class="st0" d="M266.06,5.4h2.02v2.07h0.05c0.91-1.62,2.37-2.38,4.24-2.38c3.43,0,4.49,1.97,4.49,4.77v8.58h-2.14V9.62
		c0-1.59-1.01-2.62-2.65-2.62c-2.6,0-3.86,1.74-3.86,4.09v7.37h-2.15V5.4z"/>
	<path class="st0" d="M285.63,16.86c2.24,0,4.06-1.77,4.06-4.92c0-3.18-1.82-4.95-4.06-4.95c-2.25,0-4.06,1.77-4.06,4.95
		C281.57,15.1,283.38,16.86,285.63,16.86 M285.63,5.1c4.14,0,6.33,3,6.33,6.84c0,3.81-2.19,6.82-6.33,6.82
		c-4.14,0-6.34-3.01-6.34-6.82C279.29,8.1,281.49,5.1,285.63,5.1"/>
	<path class="st0" d="M294.44,5.4h2.02v1.92h0.05c0.96-1.47,2.42-2.23,4.22-2.23c1.59,0,3.06,0.64,3.58,2.23
		c0.89-1.39,2.43-2.23,4.09-2.23c2.6,0,4.34,1.09,4.34,3.79v9.57h-2.14V9.89c0-1.61-0.43-2.9-2.52-2.9c-2.07,0-3.41,1.31-3.41,3.33
		v8.13h-2.14V9.89c0-1.69-0.53-2.9-2.45-2.9c-2.55,0-3.48,2.35-3.48,3.33v8.13h-2.15V5.4z"/>
	<path class="st0" d="M315.96,18.45h2.14V5.4h-2.14V18.45z M315.96,3.06h2.14V0.43h-2.14V3.06z"/>
	<path class="st0" d="M330.23,9.59c-0.33-1.64-1.46-2.6-3.23-2.6c-3.1,0-4.06,2.45-4.06,5.1c0,2.4,1.08,4.77,3.81,4.77
		c2.07,0,3.3-1.21,3.59-3.18h2.19c-0.48,3.18-2.47,5.07-5.75,5.07c-3.99,0-6.11-2.78-6.11-6.66c0-3.91,2.02-6.99,6.16-6.99
		c2.95,0,5.33,1.39,5.63,4.5H330.23z"/>
	<path class="st0" d="M131.35,42.43h3.99c1.64,0,6.06-0.45,6.06-7.1c0-4.29-1.59-6.89-6.01-6.89h-4.04V42.43z M128.95,26.43h6.19
		c5.56,0,8.66,2.78,8.66,8.58c0,6.03-2.65,9.44-8.66,9.44h-6.19V26.43z"/>
	<path class="st0" d="M155.49,36.67c-0.1-2.05-1.65-3.69-3.76-3.69c-2.25,0-3.59,1.69-3.74,3.69H155.49z M157.55,40.31
		c-0.58,2.88-2.65,4.44-5.58,4.44c-4.17,0-6.14-2.88-6.26-6.87c0-3.91,2.57-6.79,6.13-6.79c4.62,0,6.04,4.32,5.91,7.47h-9.77
		c-0.08,2.27,1.21,4.29,4.06,4.29c1.77,0,3.01-0.86,3.38-2.55H157.55z"/>
	<polygon class="st0" points="165.47,44.45 163.17,44.45 158.32,31.4 160.72,31.4 164.38,42.28 164.43,42.28 167.99,31.4 
		170.23,31.4 	"/>
	<path class="st0" d="M180.72,36.67c-0.1-2.05-1.64-3.69-3.76-3.69c-2.25,0-3.58,1.69-3.74,3.69H180.72z M182.79,40.31
		c-0.58,2.88-2.65,4.44-5.58,4.44c-4.17,0-6.14-2.88-6.26-6.87c0-3.91,2.58-6.79,6.14-6.79c4.62,0,6.03,4.32,5.91,7.47h-9.77
		c-0.08,2.27,1.21,4.29,4.06,4.29c1.77,0,3-0.86,3.38-2.55H182.79z"/>
	<rect x="185.33" y="26.42" class="st0" width="2.15" height="18.03"/>
	<path class="st0" d="M196.33,42.86c2.25,0,4.06-1.77,4.06-4.92c0-3.18-1.81-4.95-4.06-4.95c-2.25,0-4.07,1.77-4.07,4.95
		C192.26,41.09,194.08,42.86,196.33,42.86 M196.33,31.1c4.14,0,6.34,3,6.34,6.84c0,3.81-2.2,6.82-6.34,6.82
		c-4.14,0-6.33-3.01-6.33-6.82C189.99,34.1,192.19,31.1,196.33,31.1"/>
	<path class="st0" d="M211.22,32.99c-2.88,0-3.99,2.47-3.99,4.92c0,2.58,1.16,4.95,4.11,4.95c2.93,0,3.91-2.5,3.91-5.05
		C215.26,35.36,214,32.99,211.22,32.99 M205.16,31.4h2.14v1.77h0.05c0.71-1.44,2.37-2.07,4.17-2.07c4.01,0,6.01,3.18,6.01,6.87
		c0,3.69-1.97,6.79-5.96,6.79c-1.34,0-3.26-0.51-4.22-2.05h-0.05v6.74h-2.14V31.4z"/>
	<path class="st0" d="M220.04,31.4h2.02v1.92h0.05c0.96-1.47,2.43-2.22,4.22-2.22c1.59,0,3.06,0.63,3.59,2.22
		c0.88-1.39,2.42-2.22,4.09-2.22c2.6,0,4.34,1.09,4.34,3.79v9.56h-2.14v-8.56c0-1.62-0.43-2.9-2.53-2.9c-2.07,0-3.41,1.31-3.41,3.33
		v8.13h-2.14v-8.56c0-1.69-0.53-2.9-2.45-2.9c-2.55,0-3.49,2.35-3.49,3.33v8.13h-2.14V31.4z"/>
	<path class="st0" d="M250.57,36.67c-0.1-2.05-1.64-3.69-3.76-3.69c-2.24,0-3.58,1.69-3.74,3.69H250.57z M252.64,40.31
		c-0.58,2.88-2.65,4.44-5.58,4.44c-4.17,0-6.14-2.88-6.26-6.87c0-3.91,2.58-6.79,6.13-6.79c4.62,0,6.03,4.32,5.91,7.47h-9.77
		c-0.08,2.27,1.21,4.29,4.06,4.29c1.77,0,3.01-0.86,3.38-2.55H252.64z"/>
	<path class="st0" d="M255.13,31.4h2.02v2.07h0.05c0.91-1.62,2.37-2.38,4.24-2.38c3.43,0,4.5,1.97,4.5,4.77v8.58h-2.15v-8.83
		c0-1.59-1.01-2.63-2.65-2.63c-2.6,0-3.87,1.74-3.87,4.09v7.37h-2.14V31.4z"/>
	<path class="st0" d="M271.99,31.4h2.6v1.89h-2.6v8.1c0,0.98,0.28,1.16,1.62,1.16h0.98v1.89h-1.64c-2.22,0-3.11-0.45-3.11-2.85
		v-8.31h-2.22V31.4h2.22v-3.91h2.14V31.4z"/>
	<path class="st0" d="M141.42,68.86c2.25,0,4.06-1.77,4.06-4.93c0-3.18-1.82-4.95-4.06-4.95c-2.25,0-4.06,1.77-4.06,4.95
		C137.35,67.09,139.17,68.86,141.42,68.86 M141.42,57.09c4.14,0,6.34,3,6.34,6.84c0,3.81-2.2,6.82-6.34,6.82
		c-4.14,0-6.34-3-6.34-6.82C135.08,60.1,137.27,57.09,141.42,57.09"/>
	<path class="st0" d="M150.18,57.39h2.02v2.75h0.05c1.04-2.1,2.47-3.13,4.8-3.05v2.27c-3.46,0-4.72,1.97-4.72,5.28v5.81h-2.15V57.39
		z"/>
	<path class="st0" d="M175.44,65.3l2.4,1.92c1.41-1.39,2.07-3.61,2.07-5.78c0-3.63-1.84-7.42-6.23-7.42c-4.4,0-6.23,3.79-6.23,7.42
		c0,3.64,1.84,7.42,6.23,7.42c0.94,0,1.74-0.17,2.5-0.51l-2-1.59L175.44,65.3z M180.74,72.01l-2.75-2.22
		c-1.19,0.71-2.62,1.09-4.32,1.09c-5.73,0-8.64-4.55-8.64-9.45c0-4.89,2.9-9.44,8.64-9.44c5.73,0,8.63,4.55,8.63,9.44
		c0,2.75-0.91,5.4-2.73,7.17l2.37,1.89L180.74,72.01z"/>
	<path class="st0" d="M195.84,70.45h-2.02v-2.07h-0.05c-0.91,1.61-2.37,2.37-4.24,2.37c-3.43,0-4.49-1.97-4.49-4.77v-8.58h2.15v8.84
		c0,1.59,1.01,2.62,2.65,2.62c2.6,0,3.86-1.74,3.86-4.09v-7.37h2.14V70.45z"/>
	<path class="st0" d="M208.08,62.67c-0.1-2.05-1.65-3.69-3.76-3.69c-2.25,0-3.58,1.69-3.73,3.69H208.08z M210.14,66.31
		c-0.58,2.88-2.65,4.44-5.58,4.44c-4.17,0-6.14-2.88-6.26-6.87c0-3.91,2.58-6.79,6.13-6.79c4.62,0,6.04,4.31,5.91,7.47h-9.77
		c-0.08,2.27,1.21,4.29,4.06,4.29c1.77,0,3.01-0.86,3.38-2.55H210.14z"/>
	<path class="st0" d="M218.74,58.99c-2.88,0-3.99,2.47-3.99,4.93c0,2.57,1.16,4.95,4.11,4.95c2.93,0,3.91-2.5,3.91-5.05
		C222.77,61.36,221.51,58.99,218.74,58.99 M212.68,52.42h2.14v6.74h0.05c0.71-1.44,2.37-2.07,4.17-2.07c4.01,0,6.01,3.18,6.01,6.87
		c0,3.69-1.97,6.79-5.96,6.79c-1.34,0-3.26-0.5-4.22-2.05h-0.05v1.74h-2.14V52.42z"/>
	<path class="st0" d="M236.64,62.67c-0.1-2.05-1.64-3.69-3.76-3.69c-2.25,0-3.59,1.69-3.74,3.69H236.64z M238.71,66.31
		c-0.58,2.88-2.65,4.44-5.58,4.44c-4.17,0-6.14-2.88-6.26-6.87c0-3.91,2.57-6.79,6.13-6.79c4.62,0,6.03,4.31,5.91,7.47h-9.77
		c-0.08,2.27,1.21,4.29,4.06,4.29c1.77,0,3.01-0.86,3.38-2.55H238.71z"/>
	<path class="st0" d="M250.16,61.59c-0.33-1.64-1.46-2.6-3.23-2.6c-3.1,0-4.06,2.45-4.06,5.1c0,2.4,1.09,4.77,3.81,4.77
		c2.07,0,3.31-1.21,3.58-3.18h2.2c-0.48,3.18-2.47,5.07-5.76,5.07c-3.99,0-6.11-2.78-6.11-6.66c0-3.91,2.02-6.99,6.16-6.99
		c2.95,0,5.33,1.39,5.63,4.5H250.16z"/>
	<path class="st0" d="M269.63,60.73c2.25,0,4.17-0.58,4.17-3.2c0-1.77-0.96-3.08-3.21-3.08h-5.96v6.28H269.63z M262.24,52.42h8.48
		c3.38,0,5.48,1.84,5.48,4.72c0,2.17-0.96,3.97-3.13,4.57v0.05c2.1,0.4,2.52,1.94,2.7,3.71c0.15,1.77,0.05,3.73,1.06,4.97h-2.68
		c-0.68-0.73-0.3-2.68-0.65-4.44c-0.25-1.77-0.68-3.26-3.01-3.26h-5.86v7.7h-2.4V52.42z"/>
	<path class="st0" d="M288.14,62.67c-0.1-2.05-1.64-3.69-3.76-3.69c-2.25,0-3.59,1.69-3.74,3.69H288.14z M290.21,66.31
		c-0.58,2.88-2.65,4.44-5.58,4.44c-4.17,0-6.14-2.88-6.26-6.87c0-3.91,2.58-6.79,6.14-6.79c4.62,0,6.03,4.31,5.91,7.47h-9.77
		c-0.08,2.27,1.21,4.29,4.06,4.29c1.77,0,3-0.86,3.38-2.55H290.21z"/>
	<path class="st0" d="M301.93,63.66c0-2.29-1.01-4.67-3.71-4.67c-2.75,0-3.86,2.25-3.86,4.75c0,2.35,0.86,4.97,3.69,4.97
		C300.87,68.71,301.93,66.11,301.93,63.66 M304.05,69.34c0,4.24-1.95,6.41-6.06,6.41c-2.45,0-5.27-0.99-5.4-3.84h2.15
		c0.1,1.57,1.97,2.12,3.38,2.12c2.8,0,3.91-2.02,3.91-4.95v-0.86h-0.05c-0.71,1.59-2.43,2.37-4.06,2.37c-3.89,0-5.84-3.05-5.84-6.62
		c0-3.08,1.52-6.89,6.04-6.89c1.64,0,3.1,0.73,3.89,2.17h0.03v-1.87h2.02V69.34z"/>
	<path class="st0" d="M307.25,70.45h2.14V57.39h-2.14V70.45z M307.25,55.05h2.14v-2.63h-2.14V55.05z"/>
	<path class="st0" d="M318.24,68.86c2.25,0,4.06-1.77,4.06-4.93c0-3.18-1.82-4.95-4.06-4.95c-2.25,0-4.07,1.77-4.07,4.95
		C314.18,67.09,316,68.86,318.24,68.86 M318.24,57.09c4.14,0,6.34,3,6.34,6.84c0,3.81-2.19,6.82-6.34,6.82c-4.14,0-6.34-3-6.34-6.82
		C311.9,60.1,314.1,57.09,318.24,57.09"/>
	<path class="st0" d="M327.05,57.39h2.02v2.07h0.05c0.91-1.62,2.37-2.37,4.24-2.37c3.43,0,4.49,1.97,4.49,4.77v8.58h-2.15v-8.84
		c0-1.59-1.01-2.63-2.65-2.63c-2.6,0-3.86,1.74-3.86,4.09v7.37h-2.15V57.39z"/>
	<path class="st0" d="M342.36,66.33c0.08,1.92,1.74,2.53,3.51,2.53c1.34,0,3.16-0.31,3.16-1.95c0-1.67-2.12-1.94-4.27-2.42
		c-2.12-0.48-4.27-1.19-4.27-3.69c0-2.62,2.6-3.71,4.87-3.71c2.88,0,5.18,0.91,5.35,4.09h-2.15c-0.15-1.67-1.62-2.2-3.03-2.2
		c-1.29,0-2.78,0.35-2.78,1.67c0,1.54,2.27,1.79,4.27,2.27c2.15,0.48,4.27,1.19,4.27,3.71c0,3.1-2.9,4.12-5.55,4.12
		c-2.93,0-5.41-1.19-5.53-4.42H342.36z"/>
	<path class="st1" d="M44.35,3.71c0,0-2.75,5.29-3.11,5.83c-0.37,0.73-0.73,0.73-1.29,0.37c-0.73-0.37-2.93-1.64-2.93-1.64
		s2.02,8.75,2.02,9.48c0.18,0.73-0.55,1.27-1.29,0.73c-0.18-0.18-4.03-4.56-4.03-4.56s-0.91,2.01-1.1,2.37
		c-0.18,0.37-0.36,0.73-0.91,0.55c-0.73-0.18-4.22-0.91-4.22-0.91s1.29,4.37,1.47,4.92c0.18,0.44,0.36,0.91-0.37,1.28l-1.28,0.55
		c0,0,7.51,6.57,7.69,6.76c0.37,0.36,0.74,0.55,0.37,1.65c-0.37,1.1-0.73,2.57-0.73,2.57s6.96-1.47,7.7-1.66
		c0.64-0.06,1.34,0.19,1.34,0.92c0,0.74-0.42,8.26-0.42,8.26h2.2c0,0-0.43-7.52-0.43-8.26c0-0.73,0.7-0.98,1.34-0.92
		c0.73,0.19,7.69,1.66,7.69,1.66s-0.37-1.47-0.73-2.57c-0.37-1.1,0-1.28,0.37-1.65c0.18-0.18,7.7-6.76,7.7-6.76l-1.28-0.55
		c-0.73-0.36-0.54-0.84-0.37-1.28c0.18-0.55,1.47-4.92,1.47-4.92s-3.49,0.73-4.22,0.91c-0.54,0.18-0.73-0.18-0.91-0.55
		c-0.18-0.36-1.1-2.37-1.1-2.37s-3.85,4.38-4.03,4.56c-0.73,0.55-1.47,0-1.29-0.73c0-0.73,2.02-9.48,2.02-9.48s-2.2,1.27-2.93,1.64
		c-0.55,0.36-0.92,0.36-1.29-0.37C47.1,9,44.35,3.71,44.35,3.71"/>
	<rect y="0.42" class="st1" width="22.18" height="44.04"/>
	<rect x="66.52" y="0.42" class="st1" width="22.18" height="44.04"/>
</g>
</svg>
