<svg width="167" height="21" viewBox="0 0 167 21" fill="none" xmlns="http://www.w3.org/2000/svg">
<g clip-path="url(#clip0_5103_15418)">
<path d="M10.223 0H0V20.818H10.223V0Z" fill="#E73137"/>
<path d="M43.1221 0H32.899V20.818H43.1221V0Z" fill="#E73137"/>
<path d="M20.1431 4.32798L21.6041 1.35498L23.0541 4.21798C23.2351 4.52098 23.3801 4.49598 23.6701 4.35098L24.9151 3.73498L24.1051 7.73398C23.9361 8.51898 24.383 8.74998 24.866 8.21598L26.6421 6.31998L27.1121 7.39498C27.2701 7.72098 27.5111 7.67198 27.8251 7.61198L29.661 7.22498L29.0451 9.54498L29.0321 9.59298C28.9601 9.89598 28.815 10.149 29.154 10.294L29.806 10.62L26.0241 13.822C25.6381 14.22 25.7711 14.342 25.9161 14.789L26.2661 15.863L22.7391 15.222C22.3041 15.113 22.0021 15.113 21.9901 15.464L22.1351 19.511H21.0731L21.2191 15.476C21.2191 15.078 20.916 15.089 20.203 15.235L16.9411 15.863L17.3641 14.789C17.5081 14.377 17.5451 14.1 17.2181 13.822L13.3521 10.668L14.0651 10.233C14.2711 10.076 14.2821 9.90698 14.1741 9.55598L13.4491 7.20098L15.3101 7.59898C15.8291 7.71998 15.9741 7.59898 16.1061 7.30898L16.626 6.24598L18.4621 8.32498C18.7891 8.71098 19.2481 8.45698 19.1031 7.90098L18.2211 3.56398L19.5861 4.34898C19.8031 4.48198 20.0331 4.51898 20.1661 4.26498" fill="#E73137"/>
<path d="M60.151 1.25122H63.412C64.519 1.25122 65.377 1.64922 65.988 2.44522C66.532 3.16322 66.804 4.08422 66.804 5.20522C66.804 6.07122 66.643 6.85422 66.322 7.55422C65.756 8.79122 64.782 9.40922 63.401 9.40922H60.151V1.25122ZM63.195 8.46522C63.561 8.46522 63.861 8.42622 64.096 8.34922C64.516 8.20422 64.86 7.92722 65.128 7.51622C65.341 7.18622 65.495 6.76422 65.589 6.24922C65.644 5.94222 65.671 5.65722 65.671 5.39422C65.671 4.38322 65.475 3.59822 65.082 3.03922C64.689 2.48022 64.056 2.20122 63.184 2.20122H61.267V8.46522H63.195Z" fill="black"/>
<path d="M72.1511 3.62512C72.5451 3.82312 72.8451 4.08012 73.0511 4.39412C73.2501 4.69412 73.3821 5.04412 73.4481 5.44412C73.5071 5.71812 73.5361 6.15512 73.5361 6.75512H69.2101C69.2281 7.36012 69.3701 7.84612 69.6341 8.21212C69.8981 8.57812 70.3081 8.76012 70.8631 8.76012C71.3811 8.76012 71.7941 8.58712 72.1031 8.24112C72.2761 8.04012 72.3981 7.80712 72.4701 7.54312H73.4531C73.4271 7.76212 73.3411 8.00512 73.1951 8.27312C73.0491 8.54212 72.8861 8.76112 72.7061 8.93112C72.4051 9.22712 72.0321 9.42712 71.5871 9.53112C71.3481 9.59012 71.0781 9.62012 70.7761 9.62012C70.0401 9.62012 69.4171 9.35112 68.9051 8.81212C68.3931 8.27312 68.1381 7.51912 68.1381 6.54912C68.1381 5.59312 68.3951 4.81812 68.9101 4.22212C69.4251 3.62612 70.0981 3.32812 70.9301 3.32812C71.3511 3.32912 71.7571 3.42812 72.1511 3.62512ZM72.5091 5.96112C72.4681 5.52812 72.3751 5.18212 72.2281 4.92212C71.9571 4.44112 71.5031 4.20012 70.8681 4.20012C70.4121 4.20012 70.0311 4.36612 69.7221 4.69712C69.4131 5.02912 69.2501 5.45012 69.2321 5.96112H72.5091ZM72.1091 1.06812L70.6261 2.67312H69.8601L70.8771 1.06812H72.1091Z" fill="black"/>
<path d="M75.565 1.64601C75.798 1.30601 76.248 1.13501 76.915 1.13501C76.977 1.13501 77.042 1.13701 77.109 1.14001C77.175 1.14401 77.251 1.14901 77.337 1.15701V2.06801C77.232 2.06101 77.156 2.05601 77.109 2.05401C77.062 2.05301 77.018 2.05201 76.977 2.05201C76.67 2.05201 76.486 2.13101 76.427 2.28801C76.367 2.44601 76.337 2.84601 76.337 3.49101H77.337V4.28001H76.337V9.41001H75.348V4.27801H74.52V3.49001H75.348V2.55701C75.363 2.14201 75.436 1.83801 75.565 1.64601Z" fill="black"/>
<path d="M82.228 3.62512C82.622 3.82312 82.922 4.08012 83.128 4.39412C83.327 4.69412 83.459 5.04412 83.525 5.44412C83.584 5.71812 83.613 6.15513 83.613 6.75513H79.287C79.305 7.36013 79.447 7.84612 79.711 8.21212C79.975 8.57812 80.385 8.76013 80.94 8.76013C81.458 8.76013 81.871 8.58713 82.18 8.24113C82.353 8.04013 82.475 7.80713 82.547 7.54313H83.53C83.504 7.76213 83.418 8.00512 83.272 8.27312C83.126 8.54212 82.963 8.76112 82.783 8.93112C82.482 9.22712 82.109 9.42713 81.664 9.53113C81.425 9.59013 81.155 9.62012 80.853 9.62012C80.117 9.62012 79.494 9.35113 78.982 8.81213C78.47 8.27313 78.215 7.51912 78.215 6.54912C78.215 5.59312 78.472 4.81813 78.987 4.22213C79.502 3.62613 80.175 3.32812 81.007 3.32812C81.428 3.32913 81.834 3.42812 82.228 3.62512ZM82.586 5.96112C82.545 5.52812 82.452 5.18212 82.305 4.92212C82.034 4.44112 81.58 4.20012 80.945 4.20012C80.489 4.20012 80.108 4.36612 79.799 4.69712C79.49 5.02912 79.327 5.45012 79.309 5.96112H82.586Z" fill="black"/>
<path d="M85.175 3.46212H86.125V4.30613C86.406 3.95813 86.705 3.70812 87.019 3.55612C87.334 3.40412 87.684 3.32812 88.069 3.32812C88.913 3.32812 89.483 3.62212 89.779 4.21112C89.942 4.53312 90.024 4.99412 90.024 5.59412V9.41012H89.007V5.66112C89.007 5.29812 88.953 5.00612 88.846 4.78412C88.668 4.41412 88.346 4.22813 87.88 4.22813C87.643 4.22813 87.449 4.25213 87.297 4.30013C87.023 4.38213 86.782 4.54512 86.575 4.78912C86.408 4.98512 86.3 5.18812 86.25 5.39712C86.2 5.60612 86.175 5.90513 86.175 6.29413V9.41012H85.175V3.46212Z" fill="black"/>
<path d="M92.3911 7.54315C92.4211 7.87615 92.5061 8.13215 92.6461 8.31015C92.9031 8.63215 93.3491 8.79315 93.9831 8.79315C94.3611 8.79315 94.6931 8.71215 94.9811 8.55115C95.2691 8.39015 95.4121 8.14115 95.4121 7.80415C95.4121 7.54915 95.2971 7.35415 95.0671 7.22115C94.9211 7.13915 94.6311 7.04515 94.1981 6.93815L93.3911 6.73815C92.8751 6.61315 92.4951 6.47115 92.2511 6.31615C91.8141 6.04515 91.5961 5.67115 91.5961 5.19415C91.5961 4.63215 91.8021 4.17615 92.2121 3.82815C92.6231 3.48015 93.1751 3.30615 93.8701 3.30615C94.7781 3.30615 95.4321 3.56915 95.8341 4.09515C96.0851 4.42815 96.2081 4.78715 96.2001 5.17315H95.2561C95.2371 4.94815 95.1551 4.74415 95.0121 4.56015C94.7771 4.29915 94.3691 4.16815 93.7891 4.16815C93.4031 4.16815 93.1101 4.24015 92.9111 4.38415C92.7121 4.52815 92.6131 4.71815 92.6131 4.95415C92.6131 5.21215 92.7441 5.41915 93.0061 5.57415C93.1561 5.66615 93.379 5.74715 93.673 5.81815L94.3461 5.97915C95.0781 6.15315 95.5681 6.32115 95.8171 6.48415C96.2061 6.73915 96.4001 7.14115 96.4001 7.68915C96.4001 8.21915 96.1971 8.67615 95.7901 9.06115C95.3831 9.44615 94.7641 9.63915 93.9321 9.63915C93.0361 9.63915 92.4021 9.43815 92.0291 9.03615C91.6561 8.63515 91.4561 8.13815 91.4301 7.54515H92.3911V7.54315Z" fill="black"/>
<path d="M101.453 3.62512C101.847 3.82312 102.147 4.08012 102.353 4.39412C102.552 4.69412 102.684 5.04412 102.75 5.44412C102.809 5.71812 102.838 6.15513 102.838 6.75513H98.5121C98.5301 7.36013 98.6721 7.84612 98.9361 8.21212C99.2001 8.57812 99.6101 8.76013 100.165 8.76013C100.683 8.76013 101.096 8.58713 101.405 8.24113C101.578 8.04013 101.7 7.80713 101.772 7.54313H102.755C102.729 7.76213 102.643 8.00512 102.497 8.27312C102.351 8.54212 102.188 8.76112 102.008 8.93112C101.707 9.22712 101.334 9.42713 100.889 9.53113C100.65 9.59013 100.38 9.62012 100.078 9.62012C99.3421 9.62012 98.7191 9.35113 98.2071 8.81213C97.6951 8.27313 97.4401 7.51912 97.4401 6.54912C97.4401 5.59312 97.6971 4.81813 98.2121 4.22213C98.7271 3.62613 99.4001 3.32812 100.232 3.32812C100.653 3.32913 101.06 3.42812 101.453 3.62512ZM101.812 5.96112C101.771 5.52812 101.678 5.18212 101.531 4.92212C101.26 4.44112 100.806 4.20012 100.171 4.20012C99.7151 4.20012 99.3341 4.36612 99.0251 4.69712C98.7161 5.02912 98.5531 5.45012 98.5351 5.96112H101.812Z" fill="black"/>
<path d="M59.968 14.8352H60.918V15.6792C61.199 15.3312 61.498 15.0812 61.812 14.9292C62.127 14.7772 62.477 14.7012 62.862 14.7012C63.706 14.7012 64.276 14.9952 64.572 15.5842C64.735 15.9062 64.817 16.3672 64.817 16.9672V20.7822H63.8V17.0332C63.8 16.6702 63.746 16.3782 63.639 16.1562C63.461 15.7862 63.139 15.6002 62.673 15.6002C62.436 15.6002 62.242 15.6242 62.09 15.6722C61.816 15.7542 61.575 15.9172 61.368 16.1612C61.201 16.3572 61.093 16.5602 61.043 16.7692C60.993 16.9782 60.968 17.2772 60.968 17.6662V20.7822H59.968V14.8352Z" fill="black"/>
<path d="M69.777 17.1841C70.006 17.1551 70.16 17.0591 70.238 16.8961C70.282 16.8071 70.304 16.6781 70.304 16.5111C70.304 16.1691 70.183 15.9211 69.941 15.7671C69.699 15.6131 69.353 15.5361 68.902 15.5361C68.381 15.5361 68.011 15.6771 67.793 15.9601C67.671 16.1171 67.592 16.3491 67.555 16.6581H66.622C66.64 15.9231 66.878 15.4111 67.334 15.1241C67.791 14.8361 68.321 14.6921 68.923 14.6921C69.622 14.6921 70.19 14.8251 70.626 15.0921C71.059 15.3591 71.275 15.7731 71.275 16.3361V19.7631C71.275 19.8671 71.296 19.9501 71.339 20.0131C71.381 20.0761 71.471 20.1071 71.608 20.1071C71.652 20.1071 71.703 20.1051 71.758 20.0991C71.814 20.0941 71.873 20.0851 71.936 20.0741V20.8131C71.781 20.8571 71.662 20.8851 71.581 20.8961C71.499 20.9071 71.389 20.9131 71.248 20.9131C70.904 20.9131 70.654 20.7901 70.498 20.5461C70.417 20.4171 70.359 20.2331 70.326 19.9961C70.122 20.2631 69.83 20.4941 69.449 20.6901C69.068 20.8861 68.647 20.9841 68.188 20.9841C67.636 20.9841 67.186 20.8171 66.835 20.4821C66.485 20.1481 66.311 19.7291 66.311 19.2261C66.311 18.6751 66.483 18.2481 66.827 17.9451C67.172 17.6421 67.623 17.4551 68.182 17.3851L69.777 17.1841ZM67.672 19.8841C67.883 20.0501 68.133 20.1331 68.422 20.1331C68.774 20.1331 69.114 20.0521 69.443 19.8891C69.999 19.6191 70.276 19.1771 70.276 18.5641V17.7601C70.154 17.8381 69.997 17.9031 69.805 17.9551C69.613 18.0071 69.424 18.0441 69.24 18.0661L68.636 18.1441C68.274 18.1921 68.001 18.2681 67.819 18.3721C67.509 18.5451 67.355 18.8231 67.355 19.2031C67.355 19.4911 67.461 19.7181 67.672 19.8841Z" fill="black"/>
<path d="M73.4111 13.175H74.4221V14.836H75.3721V15.652H74.4221V19.534C74.4221 19.742 74.4921 19.88 74.6331 19.951C74.7111 19.992 74.8411 20.012 75.0221 20.012C75.0701 20.012 75.1221 20.011 75.1781 20.009C75.2331 20.007 75.2981 20 75.3721 19.99V20.784C75.2571 20.817 75.1381 20.841 75.0141 20.856C74.8901 20.871 74.7561 20.878 74.6121 20.878C74.1451 20.878 73.8291 20.759 73.6621 20.52C73.4951 20.281 73.4121 19.971 73.4121 19.59V15.652H72.6071V14.836H73.4121L73.4111 13.175Z" fill="black"/>
<path d="M76.666 12.625H77.683V13.758H76.666V12.625ZM76.666 14.863H77.683V20.783H76.666V14.863Z" fill="black"/>
<path d="M83.798 15.4291C84.324 15.9401 84.587 16.6911 84.587 17.6821C84.587 18.6401 84.356 19.4321 83.892 20.0571C83.429 20.6821 82.71 20.9951 81.736 20.9951C80.924 20.9951 80.278 20.7191 79.8 20.1651C79.322 19.6121 79.083 18.8701 79.083 17.9371C79.083 16.9381 79.335 16.1431 79.838 15.5511C80.342 14.9591 81.018 14.6631 81.867 14.6631C82.629 14.6631 83.273 14.9181 83.798 15.4291ZM83.178 19.3821C83.422 18.8811 83.543 18.3231 83.543 17.7101C83.543 17.1551 83.455 16.7041 83.279 16.3561C83.001 15.8091 82.521 15.5351 81.841 15.5351C81.237 15.5351 80.798 15.7681 80.523 16.2341C80.248 16.7001 80.111 17.2621 80.111 17.9211C80.111 18.5531 80.248 19.0801 80.523 19.5021C80.797 19.9241 81.233 20.1341 81.83 20.1341C82.485 20.1331 82.935 19.8831 83.178 19.3821Z" fill="black"/>
<path d="M86.11 14.8352H87.06V15.6792C87.341 15.3312 87.64 15.0812 87.954 14.9292C88.269 14.7772 88.619 14.7012 89.004 14.7012C89.848 14.7012 90.418 14.9952 90.714 15.5842C90.877 15.9062 90.959 16.3672 90.959 16.9672V20.7822H89.942V17.0332C89.942 16.6702 89.888 16.3782 89.781 16.1562C89.603 15.7862 89.281 15.6002 88.815 15.6002C88.578 15.6002 88.384 15.6242 88.232 15.6722C87.958 15.7542 87.717 15.9172 87.51 16.1612C87.343 16.3572 87.235 16.5602 87.185 16.7692C87.135 16.9782 87.11 17.2772 87.11 17.6662V20.7822H86.11V14.8352Z" fill="black"/>
<path d="M95.919 17.1841C96.148 17.1551 96.302 17.0591 96.38 16.8961C96.424 16.8071 96.446 16.6781 96.446 16.5111C96.446 16.1691 96.325 15.9211 96.083 15.7671C95.841 15.6131 95.495 15.5361 95.044 15.5361C94.523 15.5361 94.153 15.6771 93.935 15.9601C93.813 16.1171 93.734 16.3491 93.697 16.6581H92.764C92.782 15.9231 93.02 15.4111 93.476 15.1241C93.933 14.8361 94.463 14.6921 95.065 14.6921C95.764 14.6921 96.332 14.8251 96.768 15.0921C97.201 15.3591 97.417 15.7731 97.417 16.3361V19.7631C97.417 19.8671 97.438 19.9501 97.481 20.0131C97.523 20.0761 97.613 20.1071 97.75 20.1071C97.794 20.1071 97.845 20.1051 97.9 20.0991C97.956 20.0941 98.015 20.0851 98.078 20.0741V20.8131C97.923 20.8571 97.804 20.8851 97.723 20.8961C97.641 20.9071 97.531 20.9131 97.39 20.9131C97.046 20.9131 96.796 20.7901 96.64 20.5461C96.559 20.4171 96.501 20.2331 96.468 19.9961C96.264 20.2631 95.972 20.4941 95.591 20.6901C95.21 20.8861 94.789 20.9841 94.33 20.9841C93.778 20.9841 93.328 20.8171 92.977 20.4821C92.627 20.1481 92.453 19.7291 92.453 19.2261C92.453 18.6751 92.625 18.2481 92.969 17.9451C93.314 17.6421 93.765 17.4551 94.324 17.3851L95.919 17.1841ZM93.814 19.8841C94.025 20.0501 94.275 20.1331 94.564 20.1331C94.916 20.1331 95.256 20.0521 95.585 19.8891C96.141 19.6191 96.418 19.1771 96.418 18.5641V17.7601C96.296 17.8381 96.139 17.9031 95.947 17.9551C95.755 18.0071 95.566 18.0441 95.382 18.0661L94.778 18.1441C94.416 18.1921 94.143 18.2681 93.961 18.3721C93.651 18.5451 93.497 18.8231 93.497 19.2031C93.498 19.4911 93.603 19.7181 93.814 19.8841Z" fill="black"/>
<path d="M99.38 12.625H100.38V20.783H99.38V12.625Z" fill="black"/>
<path d="M105.849 14.9991C106.243 15.1971 106.543 15.4541 106.749 15.7681C106.948 16.0681 107.08 16.4181 107.146 16.8181C107.205 17.0921 107.234 17.5291 107.234 18.1291H102.908C102.926 18.7341 103.068 19.2201 103.332 19.5861C103.596 19.9521 104.006 20.1341 104.561 20.1341C105.079 20.1341 105.492 19.9611 105.801 19.6151C105.974 19.4141 106.096 19.1811 106.168 18.9171H107.151C107.125 19.1361 107.039 19.3791 106.893 19.6471C106.747 19.9161 106.584 20.1351 106.404 20.3051C106.103 20.6011 105.73 20.8011 105.285 20.9051C105.046 20.9641 104.776 20.9941 104.474 20.9941C103.738 20.9941 103.115 20.7251 102.603 20.1861C102.091 19.6471 101.836 18.8931 101.836 17.9231C101.836 16.9671 102.093 16.1921 102.608 15.5961C103.123 15.0001 103.796 14.7021 104.628 14.7021C105.048 14.7021 105.455 14.8011 105.849 14.9991ZM106.207 17.3341C106.166 16.9011 106.073 16.5551 105.926 16.2951C105.655 15.8141 105.201 15.5731 104.566 15.5731C104.11 15.5731 103.729 15.7391 103.42 16.0701C103.111 16.4021 102.948 16.8231 102.93 17.3341H106.207Z" fill="black"/>
<path d="M124.034 1.25098H125.336L129.404 7.84298V1.25098H130.459V9.40998H129.217L125.088 2.82698V9.40998H124.033L124.034 1.25098Z" fill="black"/>
<path d="M135.598 5.80987C135.827 5.78087 135.981 5.68487 136.059 5.52187C136.103 5.43287 136.125 5.30387 136.125 5.13687C136.125 4.79487 136.004 4.54687 135.762 4.39287C135.52 4.23887 135.174 4.16187 134.723 4.16187C134.202 4.16187 133.832 4.30287 133.614 4.58587C133.492 4.74287 133.413 4.97487 133.376 5.28387H132.443C132.461 4.54887 132.699 4.03687 133.155 3.74987C133.612 3.46187 134.142 3.31787 134.744 3.31787C135.443 3.31787 136.011 3.45087 136.447 3.71787C136.88 3.98487 137.096 4.39887 137.096 4.96187V8.38887C137.096 8.49287 137.117 8.57587 137.16 8.63887C137.202 8.70187 137.292 8.73287 137.429 8.73287C137.473 8.73287 137.524 8.73087 137.579 8.72487C137.635 8.71987 137.694 8.71087 137.757 8.69987V9.43887C137.602 9.48287 137.483 9.51087 137.402 9.52187C137.32 9.53287 137.21 9.53887 137.069 9.53887C136.725 9.53887 136.475 9.41587 136.319 9.17187C136.238 9.04287 136.18 8.85887 136.147 8.62187C135.943 8.88887 135.651 9.11987 135.27 9.31587C134.889 9.51187 134.468 9.60987 134.009 9.60987C133.457 9.60987 133.007 9.44287 132.656 9.10787C132.306 8.77387 132.132 8.35487 132.132 7.85187C132.132 7.30087 132.304 6.87387 132.648 6.57087C132.993 6.26787 133.444 6.08087 134.003 6.01087L135.598 5.80987ZM133.493 8.51087C133.704 8.67687 133.954 8.75987 134.243 8.75987C134.595 8.75987 134.935 8.67887 135.264 8.51587C135.82 8.24587 136.097 7.80387 136.097 7.19087V6.38687C135.975 6.46487 135.818 6.52987 135.626 6.58187C135.434 6.63387 135.245 6.67087 135.061 6.69287L134.457 6.77087C134.095 6.81887 133.822 6.89487 133.64 6.99887C133.33 7.17187 133.176 7.44987 133.176 7.82987C133.176 8.11687 133.282 8.34387 133.493 8.51087Z" fill="black"/>
<path d="M139.231 1.80103H140.242V3.46203H141.192V4.27803H140.242V8.16003C140.242 8.36803 140.312 8.50602 140.453 8.57702C140.531 8.61802 140.661 8.63802 140.842 8.63802C140.89 8.63802 140.942 8.63703 140.998 8.63503C141.053 8.63303 141.118 8.62603 141.192 8.61603V9.41003C141.077 9.44303 140.958 9.46703 140.834 9.48203C140.71 9.49703 140.576 9.50402 140.432 9.50402C139.965 9.50402 139.649 9.38503 139.482 9.14603C139.315 8.90703 139.232 8.59702 139.232 8.21602V4.27803H138.427V3.46203H139.232L139.231 1.80103Z" fill="black"/>
<path d="M142.487 1.25098H143.504V2.38398H142.487V1.25098ZM142.487 3.48998H143.504V9.40998H142.487V3.48998Z" fill="black"/>
<path d="M149.619 4.05506C150.145 4.56606 150.408 5.31706 150.408 6.30806C150.408 7.26606 150.177 8.05806 149.713 8.68306C149.25 9.30806 148.531 9.62106 147.557 9.62106C146.745 9.62106 146.099 9.34506 145.621 8.79106C145.143 8.23806 144.904 7.49606 144.904 6.56306C144.904 5.56406 145.156 4.76906 145.659 4.17706C146.163 3.58506 146.839 3.28906 147.688 3.28906C148.45 3.29006 149.094 3.54506 149.619 4.05506ZM148.999 8.00806C149.243 7.50706 149.364 6.94906 149.364 6.33606C149.364 5.78106 149.276 5.33006 149.1 4.98206C148.822 4.43506 148.342 4.16106 147.662 4.16106C147.058 4.16106 146.619 4.39406 146.344 4.86006C146.069 5.32606 145.932 5.88806 145.932 6.54706C145.932 7.17906 146.069 7.70606 146.344 8.12806C146.618 8.55006 147.054 8.76006 147.651 8.76006C148.306 8.76006 148.755 8.50906 148.999 8.00806Z" fill="black"/>
<path d="M151.931 3.46188H152.881V4.30588C153.162 3.95788 153.461 3.70788 153.775 3.55588C154.09 3.40388 154.44 3.32788 154.825 3.32788C155.669 3.32788 156.239 3.62188 156.535 4.21088C156.698 4.53288 156.78 4.99388 156.78 5.59388V9.40988H155.763V5.66088C155.763 5.29788 155.709 5.00588 155.602 4.78388C155.424 4.41388 155.102 4.22788 154.636 4.22788C154.399 4.22788 154.205 4.25188 154.053 4.29988C153.779 4.38188 153.538 4.54488 153.331 4.78888C153.164 4.98488 153.056 5.18788 153.006 5.39688C152.956 5.60588 152.931 5.90488 152.931 6.29388V9.40988H151.931V3.46188Z" fill="black"/>
<path d="M161.74 5.80987C161.969 5.78087 162.123 5.68487 162.201 5.52187C162.245 5.43287 162.267 5.30387 162.267 5.13687C162.267 4.79487 162.146 4.54687 161.904 4.39287C161.662 4.23887 161.316 4.16187 160.865 4.16187C160.344 4.16187 159.974 4.30287 159.756 4.58587C159.634 4.74287 159.555 4.97487 159.518 5.28387H158.585C158.603 4.54887 158.841 4.03687 159.297 3.74987C159.754 3.46187 160.284 3.31787 160.886 3.31787C161.585 3.31787 162.153 3.45087 162.589 3.71787C163.022 3.98487 163.238 4.39887 163.238 4.96187V8.38887C163.238 8.49287 163.259 8.57587 163.302 8.63887C163.344 8.70187 163.434 8.73287 163.571 8.73287C163.615 8.73287 163.666 8.73087 163.721 8.72487C163.777 8.71987 163.836 8.71087 163.899 8.69987V9.43887C163.744 9.48287 163.625 9.51087 163.544 9.52187C163.462 9.53287 163.352 9.53887 163.211 9.53887C162.867 9.53887 162.617 9.41587 162.461 9.17187C162.38 9.04287 162.322 8.85887 162.289 8.62187C162.085 8.88887 161.793 9.11987 161.412 9.31587C161.031 9.51187 160.61 9.60987 160.151 9.60987C159.599 9.60987 159.149 9.44287 158.798 9.10787C158.448 8.77387 158.274 8.35487 158.274 7.85187C158.274 7.30087 158.446 6.87387 158.79 6.57087C159.135 6.26787 159.586 6.08087 160.145 6.01087L161.74 5.80987ZM159.635 8.51087C159.846 8.67687 160.096 8.75987 160.385 8.75987C160.737 8.75987 161.077 8.67887 161.406 8.51587C161.962 8.24587 162.239 7.80387 162.239 7.19087V6.38687C162.117 6.46487 161.96 6.52987 161.768 6.58187C161.576 6.63387 161.387 6.67087 161.203 6.69287L160.599 6.77087C160.237 6.81887 159.964 6.89487 159.782 6.99887C159.472 7.17187 159.318 7.44987 159.318 7.82987C159.318 8.11687 159.424 8.34387 159.635 8.51087Z" fill="black"/>
<path d="M165.201 1.25098H166.201V9.40998H165.201V1.25098Z" fill="black"/>
<path d="M124.084 12.625H127.345C128.452 12.625 129.31 13.023 129.921 13.819C130.465 14.537 130.737 15.458 130.737 16.579C130.737 17.445 130.576 18.228 130.255 18.928C129.689 20.165 128.715 20.783 127.334 20.783H124.084V12.625ZM127.128 19.839C127.494 19.839 127.794 19.8 128.029 19.723C128.449 19.578 128.793 19.301 129.061 18.89C129.274 18.56 129.428 18.138 129.522 17.623C129.577 17.316 129.604 17.031 129.604 16.768C129.604 15.757 129.408 14.972 129.015 14.413C128.622 13.854 127.989 13.575 127.117 13.575H125.2V19.839H127.128Z" fill="black"/>
<path d="M136.083 14.9989C136.477 15.1969 136.777 15.4539 136.983 15.7679C137.182 16.0679 137.314 16.4179 137.38 16.8179C137.439 17.0919 137.468 17.5289 137.468 18.1289H133.142C133.16 18.7339 133.302 19.2199 133.566 19.5859C133.83 19.9519 134.24 20.1339 134.795 20.1339C135.313 20.1339 135.726 19.9609 136.035 19.6149C136.208 19.4139 136.33 19.1809 136.402 18.9169H137.385C137.359 19.1359 137.273 19.3789 137.127 19.6469C136.981 19.9159 136.818 20.1349 136.638 20.3049C136.337 20.6009 135.964 20.8009 135.519 20.9049C135.28 20.9639 135.01 20.9939 134.708 20.9939C133.972 20.9939 133.349 20.7249 132.837 20.1859C132.325 19.6469 132.07 18.8929 132.07 17.9229C132.07 16.9669 132.327 16.1919 132.842 15.5959C133.357 14.9999 134.03 14.7019 134.862 14.7019C135.283 14.7019 135.69 14.8009 136.083 14.9989ZM136.442 17.3339C136.401 16.9009 136.308 16.5549 136.161 16.2949C135.89 15.8139 135.436 15.5729 134.801 15.5729C134.345 15.5729 133.964 15.7389 133.655 16.0699C133.346 16.4019 133.183 16.8229 133.165 17.3339H136.442Z" fill="black"/>
<path d="M139.498 13.0191C139.731 12.6791 140.181 12.5081 140.848 12.5081C140.91 12.5081 140.975 12.5101 141.042 12.5131C141.108 12.5171 141.184 12.5221 141.27 12.5301V13.4411C141.165 13.4341 141.089 13.4291 141.042 13.4271C140.995 13.4261 140.951 13.4251 140.91 13.4251C140.603 13.4251 140.419 13.5041 140.36 13.6611C140.3 13.8191 140.27 14.2191 140.27 14.8641H141.27V15.6531H140.27V20.7841H139.281V15.6531H138.453V14.8641H139.281V13.9301C139.296 13.5161 139.368 13.2121 139.498 13.0191Z" fill="black"/>
<path d="M146.161 14.9989C146.555 15.1969 146.855 15.4539 147.061 15.7679C147.26 16.0679 147.392 16.4179 147.458 16.8179C147.517 17.0919 147.546 17.5289 147.546 18.1289H143.22C143.238 18.7339 143.38 19.2199 143.644 19.5859C143.908 19.9519 144.318 20.1339 144.873 20.1339C145.391 20.1339 145.804 19.9609 146.113 19.6149C146.286 19.4139 146.408 19.1809 146.48 18.9169H147.463C147.437 19.1359 147.351 19.3789 147.205 19.6469C147.059 19.9159 146.896 20.1349 146.716 20.3049C146.415 20.6009 146.042 20.8009 145.597 20.9049C145.358 20.9639 145.088 20.9939 144.786 20.9939C144.05 20.9939 143.427 20.7249 142.915 20.1859C142.403 19.6469 142.148 18.8929 142.148 17.9229C142.148 16.9669 142.405 16.1919 142.92 15.5959C143.435 14.9999 144.108 14.7019 144.94 14.7019C145.36 14.7019 145.767 14.8009 146.161 14.9989ZM146.519 17.3339C146.478 16.9009 146.385 16.5549 146.238 16.2949C145.967 15.8139 145.513 15.5729 144.878 15.5729C144.422 15.5729 144.041 15.7389 143.732 16.0699C143.423 16.4019 143.26 16.8229 143.242 17.3339H146.519Z" fill="black"/>
<path d="M149.108 14.8349H150.058V15.6789C150.339 15.3309 150.638 15.0809 150.952 14.9289C151.267 14.7769 151.617 14.7009 152.002 14.7009C152.846 14.7009 153.416 14.9949 153.712 15.5839C153.875 15.9059 153.957 16.3669 153.957 16.9669V20.7819H152.94V17.0329C152.94 16.6699 152.886 16.3779 152.779 16.1559C152.601 15.7859 152.279 15.5999 151.813 15.5999C151.576 15.5999 151.382 15.6239 151.23 15.6719C150.956 15.7539 150.715 15.9169 150.508 16.1609C150.341 16.3569 150.233 16.5599 150.183 16.7689C150.133 16.9779 150.108 17.2769 150.108 17.6659V20.7819H149.108V14.8349Z" fill="black"/>
<path d="M159.659 15.1519C160.079 15.4779 160.332 16.0389 160.417 16.8349H159.445C159.386 16.4689 159.251 16.1639 159.04 15.9209C158.829 15.6789 158.49 15.5569 158.024 15.5569C157.387 15.5569 156.932 15.8679 156.658 16.4889C156.48 16.8919 156.391 17.3889 156.391 17.9809C156.391 18.5759 156.517 19.0769 156.768 19.4839C157.02 19.8909 157.416 20.0939 157.956 20.0939C158.371 20.0939 158.699 19.9679 158.942 19.7149C159.185 19.4619 159.352 19.1159 159.444 18.6769H160.416C160.305 19.4659 160.027 20.0429 159.583 20.4069C159.139 20.7719 158.57 20.9539 157.878 20.9539C157.101 20.9539 156.481 20.6699 156.018 20.1009C155.555 19.5319 155.324 18.8229 155.324 17.9709C155.324 16.9269 155.577 16.1139 156.085 15.5329C156.592 14.9509 157.238 14.6609 158.023 14.6609C158.693 14.6629 159.239 14.8259 159.659 15.1519Z" fill="black"/>
<path d="M165.386 14.9989C165.78 15.1969 166.08 15.4539 166.286 15.7679C166.485 16.0679 166.617 16.4179 166.683 16.8179C166.742 17.0919 166.771 17.5289 166.771 18.1289H162.445C162.463 18.7339 162.605 19.2199 162.869 19.5859C163.133 19.9519 163.543 20.1339 164.098 20.1339C164.616 20.1339 165.029 19.9609 165.338 19.6149C165.511 19.4139 165.633 19.1809 165.705 18.9169H166.688C166.662 19.1359 166.576 19.3789 166.43 19.6469C166.284 19.9159 166.121 20.1349 165.941 20.3049C165.64 20.6009 165.267 20.8009 164.822 20.9049C164.583 20.9639 164.313 20.9939 164.011 20.9939C163.275 20.9939 162.652 20.7249 162.14 20.1859C161.628 19.6469 161.373 18.8929 161.373 17.9229C161.373 16.9669 161.63 16.1919 162.145 15.5959C162.66 14.9999 163.333 14.7019 164.165 14.7019C164.585 14.7019 164.992 14.8009 165.386 14.9989ZM165.744 17.3339C165.703 16.9009 165.61 16.5549 165.463 16.2949C165.192 15.8139 164.738 15.5729 164.103 15.5729C163.647 15.5729 163.266 15.7389 162.957 16.0699C162.648 16.4019 162.485 16.8229 162.467 17.3339H165.744Z" fill="black"/>
</g>
<defs>
<clipPath id="clip0_5103_15418">
<rect width="166.771" height="20.994" fill="white"/>
</clipPath>
</defs>
</svg>
