<svg width="167" height="21" viewBox="0 0 167 21" fill="none" xmlns="http://www.w3.org/2000/svg">
<g clip-path="url(#clip0_5103_15459)">
<path d="M10.223 0H0V20.818H10.223V0Z" fill="#E73137"/>
<path d="M43.1221 0H32.899V20.818H43.1221V0Z" fill="#E73137"/>
<path d="M20.1431 4.32798L21.6041 1.35498L23.0541 4.21798C23.2351 4.52098 23.3801 4.49598 23.6701 4.35098L24.9151 3.73498L24.1051 7.73398C23.9361 8.51898 24.383 8.74998 24.866 8.21598L26.6421 6.31998L27.1121 7.39498C27.2701 7.72098 27.5111 7.67198 27.8251 7.61198L29.661 7.22498L29.0451 9.54498L29.0321 9.59298C28.9601 9.89598 28.815 10.149 29.154 10.294L29.806 10.62L26.0241 13.822C25.6381 14.22 25.7711 14.342 25.9161 14.789L26.2661 15.863L22.7391 15.222C22.3041 15.113 22.0021 15.113 21.9901 15.464L22.1351 19.511H21.0731L21.2191 15.476C21.2191 15.078 20.916 15.089 20.203 15.235L16.9411 15.863L17.3641 14.789C17.5081 14.377 17.5451 14.1 17.2181 13.822L13.3521 10.668L14.0651 10.233C14.2711 10.076 14.2821 9.90698 14.1741 9.55598L13.4491 7.20098L15.3101 7.59898C15.8291 7.71998 15.9741 7.59898 16.1061 7.30898L16.626 6.24598L18.4621 8.32498C18.7891 8.71098 19.2481 8.45698 19.1031 7.90098L18.2211 3.56398L19.5861 4.34898C19.8031 4.48198 20.0331 4.51898 20.1661 4.26498" fill="#E73137"/>
<path d="M59.969 1.16016H61.271L65.339 7.75216V1.16016H66.394V9.31916H65.152L61.023 2.73616V9.31916H59.968L59.969 1.16016Z" fill="black"/>
<path d="M71.533 5.71905C71.762 5.69005 71.916 5.59405 71.994 5.43105C72.038 5.34205 72.06 5.21305 72.06 5.04605C72.06 4.70405 71.939 4.45605 71.697 4.30205C71.455 4.14805 71.109 4.07105 70.658 4.07105C70.137 4.07105 69.767 4.21205 69.549 4.49505C69.427 4.65205 69.348 4.88405 69.311 5.19305H68.378C68.396 4.45805 68.634 3.94605 69.09 3.65905C69.547 3.37105 70.077 3.22705 70.679 3.22705C71.378 3.22705 71.946 3.36005 72.382 3.62705C72.815 3.89405 73.031 4.30805 73.031 4.87105V8.29805C73.031 8.40205 73.052 8.48505 73.095 8.54805C73.137 8.61105 73.227 8.64205 73.364 8.64205C73.408 8.64205 73.459 8.64005 73.514 8.63405C73.57 8.62905 73.629 8.62005 73.692 8.60905V9.34805C73.537 9.39205 73.418 9.42005 73.337 9.43105C73.255 9.44205 73.145 9.44805 73.004 9.44805C72.66 9.44805 72.41 9.32505 72.254 9.08105C72.173 8.95205 72.115 8.76805 72.082 8.53105C71.878 8.79805 71.586 9.02905 71.205 9.22505C70.824 9.42105 70.403 9.51905 69.944 9.51905C69.392 9.51905 68.942 9.35205 68.591 9.01705C68.241 8.68305 68.067 8.26405 68.067 7.76105C68.067 7.21005 68.239 6.78305 68.583 6.48005C68.928 6.17705 69.379 5.99005 69.938 5.92005L71.533 5.71905ZM69.428 8.42005C69.639 8.58605 69.889 8.66905 70.178 8.66905C70.53 8.66905 70.87 8.58805 71.199 8.42505C71.755 8.15505 72.032 7.71305 72.032 7.10005V6.29605C71.91 6.37405 71.753 6.43905 71.561 6.49105C71.369 6.54305 71.18 6.58005 70.996 6.60205L70.392 6.68005C70.03 6.72805 69.757 6.80405 69.575 6.90805C69.265 7.08105 69.111 7.35905 69.111 7.73905C69.111 8.02605 69.217 8.25305 69.428 8.42005Z" fill="black"/>
<path d="M75.1661 1.71021H76.1771V3.3712H77.1271V4.1872H76.1771V8.0692C76.1771 8.2772 76.2471 8.4152 76.3881 8.4862C76.4661 8.5272 76.5961 8.5472 76.7771 8.5472C76.8251 8.5472 76.8771 8.54621 76.9331 8.54421C76.9881 8.54221 77.0531 8.53521 77.1271 8.52521V9.3192C77.0121 9.3522 76.8931 9.37621 76.7691 9.39121C76.6451 9.40621 76.5111 9.4132 76.3671 9.4132C75.9001 9.4132 75.5841 9.2942 75.4171 9.0552C75.2501 8.8162 75.1671 8.5062 75.1671 8.1252V4.1872H74.3621V3.3712H75.1671L75.1661 1.71021Z" fill="black"/>
<path d="M78.422 1.16016H79.439V2.29316H78.422V1.16016ZM78.422 3.39916H79.439V9.31916H78.422V3.39916Z" fill="black"/>
<path d="M85.554 3.96424C86.08 4.47524 86.343 5.22624 86.343 6.21724C86.343 7.17524 86.112 7.96724 85.648 8.59224C85.185 9.21724 84.466 9.53024 83.492 9.53024C82.68 9.53024 82.034 9.25424 81.556 8.70024C81.078 8.14724 80.839 7.40524 80.839 6.47224C80.839 5.47324 81.091 4.67824 81.594 4.08624C82.098 3.49424 82.774 3.19824 83.623 3.19824C84.385 3.19924 85.029 3.45424 85.554 3.96424ZM84.934 7.91724C85.178 7.41624 85.299 6.85824 85.299 6.24524C85.299 5.69024 85.211 5.23924 85.035 4.89124C84.757 4.34424 84.277 4.07024 83.597 4.07024C82.993 4.07024 82.554 4.30324 82.279 4.76924C82.004 5.23524 81.867 5.79724 81.867 6.45624C81.867 7.08824 82.004 7.61524 82.279 8.03724C82.553 8.45924 82.989 8.66924 83.586 8.66924C84.241 8.66924 84.69 8.41824 84.934 7.91724Z" fill="black"/>
<path d="M87.866 3.37106H88.816V4.21506C89.097 3.86706 89.396 3.61706 89.71 3.46506C90.025 3.31306 90.375 3.23706 90.76 3.23706C91.604 3.23706 92.174 3.53106 92.47 4.12006C92.633 4.44206 92.715 4.90306 92.715 5.50306V9.31906H91.698V5.57006C91.698 5.20706 91.644 4.91506 91.537 4.69306C91.359 4.32306 91.037 4.13706 90.571 4.13706C90.334 4.13706 90.14 4.16106 89.988 4.20906C89.714 4.29106 89.473 4.45406 89.266 4.69806C89.099 4.89406 88.991 5.09706 88.941 5.30606C88.891 5.51506 88.866 5.81406 88.866 6.20306V9.31906H87.866V3.37106Z" fill="black"/>
<path d="M97.675 5.71905C97.904 5.69005 98.058 5.59405 98.136 5.43105C98.18 5.34205 98.202 5.21305 98.202 5.04605C98.202 4.70405 98.081 4.45605 97.839 4.30205C97.597 4.14805 97.251 4.07105 96.8 4.07105C96.279 4.07105 95.909 4.21205 95.691 4.49505C95.569 4.65205 95.49 4.88405 95.453 5.19305H94.52C94.538 4.45805 94.776 3.94605 95.232 3.65905C95.689 3.37105 96.219 3.22705 96.821 3.22705C97.52 3.22705 98.088 3.36005 98.524 3.62705C98.957 3.89405 99.173 4.30805 99.173 4.87105V8.29805C99.173 8.40205 99.194 8.48505 99.237 8.54805C99.279 8.61105 99.369 8.64205 99.506 8.64205C99.55 8.64205 99.601 8.64005 99.656 8.63405C99.712 8.62905 99.771 8.62005 99.834 8.60905V9.34805C99.679 9.39205 99.56 9.42005 99.479 9.43105C99.397 9.44205 99.287 9.44805 99.146 9.44805C98.802 9.44805 98.552 9.32505 98.396 9.08105C98.315 8.95205 98.257 8.76805 98.224 8.53105C98.02 8.79805 97.728 9.02905 97.347 9.22505C96.966 9.42105 96.545 9.51905 96.086 9.51905C95.534 9.51905 95.084 9.35205 94.733 9.01705C94.383 8.68305 94.209 8.26405 94.209 7.76105C94.209 7.21005 94.381 6.78305 94.725 6.48005C95.07 6.17705 95.521 5.99005 96.08 5.92005L97.675 5.71905ZM95.57 8.42005C95.781 8.58605 96.031 8.66905 96.32 8.66905C96.672 8.66905 97.012 8.58805 97.341 8.42505C97.897 8.15505 98.174 7.71305 98.174 7.10005V6.29605C98.052 6.37405 97.895 6.43905 97.703 6.49105C97.511 6.54305 97.322 6.58005 97.138 6.60205L96.534 6.68005C96.172 6.72805 95.899 6.80405 95.717 6.90805C95.407 7.08105 95.253 7.35905 95.253 7.73905C95.253 8.02605 95.359 8.25305 95.57 8.42005Z" fill="black"/>
<path d="M101.136 1.16016H102.136V9.31916H101.136V1.16016Z" fill="black"/>
<path d="M60.019 12.5342H63.28C64.387 12.5342 65.245 12.9322 65.856 13.7282C66.4 14.4462 66.672 15.3672 66.672 16.4882C66.672 17.3542 66.511 18.1372 66.19 18.8372C65.624 20.0742 64.65 20.6922 63.269 20.6922H60.019V12.5342ZM63.063 19.7482C63.429 19.7482 63.7291 19.7092 63.9641 19.6322C64.3841 19.4872 64.728 19.2102 64.996 18.7992C65.209 18.4692 65.363 18.0472 65.457 17.5322C65.512 17.2252 65.539 16.9402 65.539 16.6772C65.539 15.6662 65.343 14.8812 64.95 14.3222C64.557 13.7632 63.924 13.4842 63.052 13.4842H61.135V19.7482H63.063Z" fill="black"/>
<path d="M72.018 14.9081C72.412 15.1061 72.712 15.3631 72.918 15.6771C73.117 15.9771 73.249 16.3271 73.315 16.7271C73.374 17.0011 73.403 17.4381 73.403 18.0381H69.077C69.095 18.6431 69.237 19.1291 69.501 19.4951C69.765 19.8611 70.175 20.0431 70.73 20.0431C71.248 20.0431 71.661 19.8701 71.97 19.5241C72.143 19.3231 72.265 19.0901 72.337 18.8261H73.32C73.294 19.0451 73.208 19.2881 73.062 19.5561C72.916 19.8251 72.753 20.0441 72.573 20.2141C72.272 20.5101 71.899 20.7101 71.454 20.8141C71.215 20.8731 70.945 20.9031 70.643 20.9031C69.907 20.9031 69.284 20.6341 68.772 20.0951C68.26 19.5561 68.005 18.8021 68.005 17.8321C68.005 16.8761 68.262 16.1011 68.777 15.5051C69.292 14.9091 69.965 14.6111 70.797 14.6111C71.218 14.6111 71.625 14.7101 72.018 14.9081ZM72.377 17.2431C72.336 16.8101 72.243 16.4641 72.096 16.2041C71.825 15.7231 71.371 15.4821 70.736 15.4821C70.28 15.4821 69.899 15.6481 69.59 15.9791C69.281 16.3111 69.118 16.7321 69.1 17.2431H72.377Z" fill="black"/>
<path d="M75.4331 12.9282C75.6661 12.5882 76.1161 12.4172 76.7831 12.4172C76.8451 12.4172 76.9101 12.4192 76.9771 12.4222C77.0431 12.4262 77.1191 12.4312 77.2051 12.4392V13.3502C77.1001 13.3432 77.0241 13.3382 76.9771 13.3362C76.9301 13.3352 76.8861 13.3342 76.8451 13.3342C76.5381 13.3342 76.3541 13.4132 76.2951 13.5702C76.2351 13.7282 76.2051 14.1282 76.2051 14.7732H77.2051V15.5622H76.2051V20.6932H75.2161V15.5622H74.3881V14.7732H75.2161V13.8392C75.2311 13.4252 75.3031 13.1212 75.4331 12.9282Z" fill="black"/>
<path d="M82.096 14.9081C82.49 15.1061 82.79 15.3631 82.996 15.6771C83.195 15.9771 83.327 16.3271 83.393 16.7271C83.452 17.0011 83.481 17.4381 83.481 18.0381H79.155C79.173 18.6431 79.315 19.1291 79.579 19.4951C79.843 19.8611 80.253 20.0431 80.808 20.0431C81.326 20.0431 81.739 19.8701 82.048 19.5241C82.221 19.3231 82.343 19.0901 82.415 18.8261H83.398C83.372 19.0451 83.286 19.2881 83.14 19.5561C82.994 19.8251 82.831 20.0441 82.651 20.2141C82.35 20.5101 81.977 20.7101 81.532 20.8141C81.293 20.8731 81.023 20.9031 80.721 20.9031C79.985 20.9031 79.362 20.6341 78.85 20.0951C78.338 19.5561 78.083 18.8021 78.083 17.8321C78.083 16.8761 78.34 16.1011 78.855 15.5051C79.37 14.9091 80.043 14.6111 80.875 14.6111C81.295 14.6111 81.702 14.7101 82.096 14.9081ZM82.454 17.2431C82.413 16.8101 82.32 16.4641 82.173 16.2041C81.902 15.7231 81.448 15.4821 80.813 15.4821C80.357 15.4821 79.976 15.6481 79.667 15.9791C79.358 16.3111 79.195 16.7321 79.177 17.2431H82.454Z" fill="black"/>
<path d="M85.043 14.7441H85.993V15.5881C86.274 15.2401 86.573 14.9901 86.887 14.8381C87.202 14.6861 87.552 14.6101 87.937 14.6101C88.781 14.6101 89.351 14.9041 89.647 15.4931C89.81 15.8151 89.892 16.2761 89.892 16.8761V20.6911H88.875V16.9421C88.875 16.5791 88.821 16.2871 88.714 16.0651C88.536 15.6951 88.214 15.5091 87.748 15.5091C87.511 15.5091 87.317 15.5331 87.165 15.5811C86.891 15.6631 86.65 15.8261 86.443 16.0701C86.276 16.2661 86.168 16.4691 86.118 16.6781C86.068 16.8871 86.043 17.1861 86.043 17.5751V20.6911H85.043V14.7441Z" fill="black"/>
<path d="M95.594 15.0611C96.014 15.3871 96.267 15.9481 96.352 16.7441H95.38C95.321 16.3781 95.186 16.0731 94.975 15.8301C94.764 15.5881 94.425 15.4661 93.959 15.4661C93.322 15.4661 92.867 15.7771 92.593 16.3981C92.415 16.8011 92.326 17.2981 92.326 17.8901C92.326 18.4851 92.452 18.9861 92.703 19.3931C92.955 19.8001 93.351 20.0031 93.891 20.0031C94.306 20.0031 94.634 19.8771 94.877 19.6241C95.12 19.3711 95.287 19.0251 95.379 18.5861H96.351C96.24 19.3751 95.962 19.9521 95.518 20.3161C95.074 20.6811 94.505 20.8631 93.813 20.8631C93.036 20.8631 92.416 20.5791 91.953 20.0101C91.49 19.4411 91.259 18.7321 91.259 17.8801C91.259 16.8361 91.512 16.0231 92.02 15.4421C92.527 14.8601 93.173 14.5701 93.958 14.5701C94.628 14.5721 95.174 14.7351 95.594 15.0611Z" fill="black"/>
<path d="M101.321 14.9081C101.715 15.1061 102.015 15.3631 102.221 15.6771C102.42 15.9771 102.552 16.3271 102.618 16.7271C102.677 17.0011 102.706 17.4381 102.706 18.0381H98.38C98.398 18.6431 98.54 19.1291 98.804 19.4951C99.068 19.8611 99.478 20.0431 100.033 20.0431C100.551 20.0431 100.964 19.8701 101.273 19.5241C101.446 19.3231 101.568 19.0901 101.64 18.8261H102.623C102.597 19.0451 102.511 19.2881 102.365 19.5561C102.219 19.8251 102.056 20.0441 101.876 20.2141C101.575 20.5101 101.202 20.7101 100.757 20.8141C100.518 20.8731 100.248 20.9031 99.946 20.9031C99.21 20.9031 98.587 20.6341 98.075 20.0951C97.563 19.5561 97.308 18.8021 97.308 17.8321C97.308 16.8761 97.565 16.1011 98.08 15.5051C98.595 14.9091 99.268 14.6111 100.1 14.6111C100.52 14.6111 100.927 14.7101 101.321 14.9081ZM101.679 17.2431C101.638 16.8101 101.545 16.4641 101.398 16.2041C101.127 15.7231 100.673 15.4821 100.038 15.4821C99.582 15.4821 99.201 15.6481 98.892 15.9791C98.583 16.3111 98.42 16.7321 98.402 17.2431H101.679Z" fill="black"/>
<path d="M119.889 1.25122H123.15C124.257 1.25122 125.115 1.64922 125.726 2.44522C126.27 3.16322 126.542 4.08422 126.542 5.20522C126.542 6.07122 126.381 6.85422 126.06 7.55422C125.494 8.79122 124.52 9.40922 123.139 9.40922H119.889V1.25122ZM122.933 8.46522C123.299 8.46522 123.599 8.42622 123.834 8.34922C124.254 8.20422 124.598 7.92722 124.866 7.51622C125.079 7.18622 125.233 6.76422 125.327 6.24922C125.382 5.94222 125.409 5.65722 125.409 5.39422C125.409 4.38322 125.213 3.59822 124.82 3.03922C124.427 2.48022 123.794 2.20122 122.922 2.20122H121.005V8.46522H122.933Z" fill="black"/>
<path d="M131.889 3.62512C132.283 3.82312 132.583 4.08012 132.789 4.39412C132.988 4.69412 133.12 5.04412 133.186 5.44412C133.245 5.71812 133.274 6.15512 133.274 6.75512H128.948C128.966 7.36012 129.108 7.84612 129.372 8.21212C129.636 8.57812 130.046 8.76012 130.601 8.76012C131.119 8.76012 131.532 8.58712 131.841 8.24112C132.014 8.04012 132.136 7.80712 132.208 7.54312H133.191C133.165 7.76212 133.079 8.00512 132.933 8.27312C132.787 8.54212 132.624 8.76112 132.444 8.93112C132.143 9.22712 131.77 9.42712 131.325 9.53112C131.086 9.59012 130.816 9.62012 130.514 9.62012C129.778 9.62012 129.155 9.35112 128.643 8.81212C128.131 8.27312 127.876 7.51912 127.876 6.54912C127.876 5.59312 128.133 4.81812 128.648 4.22212C129.163 3.62612 129.836 3.32812 130.668 3.32812C131.089 3.32912 131.495 3.42812 131.889 3.62512ZM132.247 5.96112C132.206 5.52812 132.113 5.18212 131.966 4.92212C131.695 4.44112 131.241 4.20012 130.606 4.20012C130.15 4.20012 129.769 4.36612 129.46 4.69712C129.151 5.02912 128.988 5.45012 128.97 5.96112H132.247ZM131.847 1.06812L130.364 2.67312H129.598L130.615 1.06812H131.847Z" fill="black"/>
<path d="M135.303 1.64601C135.536 1.30601 135.986 1.13501 136.653 1.13501C136.715 1.13501 136.78 1.13701 136.847 1.14001C136.913 1.14401 136.989 1.14901 137.075 1.15701V2.06801C136.97 2.06101 136.894 2.05601 136.847 2.05401C136.8 2.05301 136.756 2.05201 136.715 2.05201C136.408 2.05201 136.224 2.13101 136.165 2.28801C136.105 2.44601 136.075 2.84601 136.075 3.49101H137.075V4.28001H136.075V9.41001H135.086V4.27801H134.258V3.49001H135.086V2.55701C135.101 2.14201 135.174 1.83801 135.303 1.64601Z" fill="black"/>
<path d="M141.966 3.62512C142.36 3.82312 142.66 4.08012 142.866 4.39412C143.065 4.69412 143.197 5.04412 143.263 5.44412C143.322 5.71812 143.351 6.15513 143.351 6.75513H139.025C139.043 7.36013 139.185 7.84612 139.449 8.21212C139.713 8.57812 140.123 8.76013 140.678 8.76013C141.196 8.76013 141.609 8.58713 141.918 8.24113C142.091 8.04013 142.213 7.80713 142.285 7.54313H143.268C143.242 7.76213 143.156 8.00512 143.01 8.27312C142.864 8.54212 142.701 8.76112 142.521 8.93112C142.22 9.22712 141.847 9.42713 141.402 9.53113C141.163 9.59013 140.893 9.62012 140.591 9.62012C139.855 9.62012 139.232 9.35113 138.72 8.81213C138.208 8.27313 137.953 7.51912 137.953 6.54912C137.953 5.59312 138.21 4.81813 138.725 4.22213C139.24 3.62613 139.913 3.32812 140.745 3.32812C141.166 3.32913 141.572 3.42812 141.966 3.62512ZM142.324 5.96112C142.283 5.52812 142.19 5.18212 142.043 4.92212C141.772 4.44112 141.318 4.20012 140.683 4.20012C140.227 4.20012 139.846 4.36612 139.537 4.69712C139.228 5.02912 139.065 5.45012 139.047 5.96112H142.324Z" fill="black"/>
<path d="M144.913 3.46212H145.863V4.30613C146.144 3.95813 146.443 3.70812 146.757 3.55612C147.072 3.40412 147.422 3.32812 147.807 3.32812C148.651 3.32812 149.221 3.62212 149.517 4.21112C149.68 4.53312 149.762 4.99412 149.762 5.59412V9.41012H148.745V5.66112C148.745 5.29812 148.691 5.00612 148.584 4.78412C148.406 4.41412 148.084 4.22813 147.618 4.22813C147.381 4.22813 147.187 4.25213 147.035 4.30013C146.761 4.38213 146.52 4.54512 146.313 4.78912C146.146 4.98512 146.038 5.18812 145.988 5.39712C145.938 5.60612 145.913 5.90513 145.913 6.29413V9.41012H144.913V3.46212Z" fill="black"/>
<path d="M152.129 7.54315C152.159 7.87615 152.244 8.13215 152.384 8.31015C152.641 8.63215 153.087 8.79315 153.721 8.79315C154.099 8.79315 154.431 8.71215 154.719 8.55115C155.007 8.39015 155.15 8.14115 155.15 7.80415C155.15 7.54915 155.035 7.35415 154.805 7.22115C154.659 7.13915 154.369 7.04515 153.936 6.93815L153.129 6.73815C152.613 6.61315 152.233 6.47115 151.989 6.31615C151.552 6.04515 151.334 5.67115 151.334 5.19415C151.334 4.63215 151.54 4.17615 151.95 3.82815C152.361 3.48015 152.913 3.30615 153.608 3.30615C154.516 3.30615 155.17 3.56915 155.572 4.09515C155.823 4.42815 155.946 4.78715 155.938 5.17315H154.994C154.975 4.94815 154.893 4.74415 154.75 4.56015C154.515 4.29915 154.107 4.16815 153.527 4.16815C153.141 4.16815 152.848 4.24015 152.649 4.38415C152.45 4.52815 152.351 4.71815 152.351 4.95415C152.351 5.21215 152.482 5.41915 152.744 5.57415C152.894 5.66615 153.117 5.74715 153.411 5.81815L154.084 5.97915C154.816 6.15315 155.306 6.32115 155.555 6.48415C155.944 6.73915 156.138 7.14115 156.138 7.68915C156.138 8.21915 155.935 8.67615 155.528 9.06115C155.121 9.44615 154.502 9.63915 153.67 9.63915C152.774 9.63915 152.14 9.43815 151.767 9.03615C151.394 8.63515 151.194 8.13815 151.168 7.54515H152.129V7.54315Z" fill="black"/>
<path d="M161.191 3.62512C161.585 3.82312 161.885 4.08012 162.091 4.39412C162.29 4.69412 162.422 5.04412 162.488 5.44412C162.547 5.71812 162.576 6.15513 162.576 6.75513H158.25C158.268 7.36013 158.41 7.84612 158.674 8.21212C158.938 8.57812 159.348 8.76013 159.903 8.76013C160.421 8.76013 160.834 8.58713 161.143 8.24113C161.316 8.04013 161.438 7.80713 161.51 7.54313H162.493C162.467 7.76213 162.381 8.00512 162.235 8.27312C162.089 8.54212 161.926 8.76112 161.746 8.93112C161.445 9.22712 161.072 9.42713 160.627 9.53113C160.388 9.59013 160.118 9.62012 159.816 9.62012C159.08 9.62012 158.457 9.35113 157.945 8.81213C157.433 8.27313 157.178 7.51912 157.178 6.54912C157.178 5.59312 157.435 4.81813 157.95 4.22213C158.465 3.62613 159.138 3.32812 159.97 3.32812C160.391 3.32913 160.798 3.42812 161.191 3.62512ZM161.55 5.96112C161.509 5.52812 161.416 5.18212 161.269 4.92212C160.998 4.44112 160.544 4.20012 159.909 4.20012C159.453 4.20012 159.072 4.36612 158.763 4.69712C158.454 5.02912 158.291 5.45012 158.273 5.96112H161.55Z" fill="black"/>
<path d="M119.706 14.8352H120.656V15.6792C120.937 15.3312 121.236 15.0812 121.55 14.9292C121.865 14.7772 122.215 14.7012 122.6 14.7012C123.444 14.7012 124.014 14.9952 124.31 15.5842C124.473 15.9062 124.555 16.3672 124.555 16.9672V20.7822H123.538V17.0332C123.538 16.6702 123.484 16.3782 123.377 16.1562C123.199 15.7862 122.877 15.6002 122.411 15.6002C122.174 15.6002 121.98 15.6242 121.828 15.6722C121.554 15.7542 121.313 15.9172 121.106 16.1612C120.939 16.3572 120.831 16.5602 120.781 16.7692C120.731 16.9782 120.706 17.2772 120.706 17.6662V20.7822H119.706V14.8352Z" fill="black"/>
<path d="M129.515 17.1841C129.744 17.1551 129.898 17.0591 129.976 16.8961C130.02 16.8071 130.042 16.6781 130.042 16.5111C130.042 16.1691 129.921 15.9211 129.679 15.7671C129.437 15.6131 129.091 15.5361 128.64 15.5361C128.119 15.5361 127.749 15.6771 127.531 15.9601C127.409 16.1171 127.33 16.3491 127.293 16.6581H126.36C126.378 15.9231 126.616 15.4111 127.072 15.1241C127.529 14.8361 128.059 14.6921 128.661 14.6921C129.36 14.6921 129.928 14.8251 130.364 15.0921C130.797 15.3591 131.013 15.7731 131.013 16.3361V19.7631C131.013 19.8671 131.034 19.9501 131.077 20.0131C131.119 20.0761 131.209 20.1071 131.346 20.1071C131.39 20.1071 131.441 20.1051 131.496 20.0991C131.552 20.0941 131.611 20.0851 131.674 20.0741V20.8131C131.519 20.8571 131.4 20.8851 131.319 20.8961C131.237 20.9071 131.127 20.9131 130.986 20.9131C130.642 20.9131 130.392 20.7901 130.236 20.5461C130.155 20.4171 130.097 20.2331 130.064 19.9961C129.86 20.2631 129.568 20.4941 129.187 20.6901C128.806 20.8861 128.385 20.9841 127.926 20.9841C127.374 20.9841 126.924 20.8171 126.573 20.4821C126.223 20.1481 126.049 19.7291 126.049 19.2261C126.049 18.6751 126.221 18.2481 126.565 17.9451C126.91 17.6421 127.361 17.4551 127.92 17.3851L129.515 17.1841ZM127.41 19.8841C127.621 20.0501 127.871 20.1331 128.16 20.1331C128.512 20.1331 128.852 20.0521 129.181 19.8891C129.737 19.6191 130.014 19.1771 130.014 18.5641V17.7601C129.892 17.8381 129.735 17.9031 129.543 17.9551C129.351 18.0071 129.162 18.0441 128.978 18.0661L128.374 18.1441C128.012 18.1921 127.739 18.2681 127.557 18.3721C127.247 18.5451 127.093 18.8231 127.093 19.2031C127.093 19.4911 127.199 19.7181 127.41 19.8841Z" fill="black"/>
<path d="M133.149 13.175H134.16V14.836H135.11V15.652H134.16V19.534C134.16 19.742 134.23 19.88 134.371 19.951C134.449 19.992 134.579 20.012 134.76 20.012C134.808 20.012 134.86 20.011 134.916 20.009C134.971 20.007 135.036 20 135.11 19.99V20.784C134.995 20.817 134.876 20.841 134.752 20.856C134.628 20.871 134.494 20.878 134.35 20.878C133.883 20.878 133.567 20.759 133.4 20.52C133.233 20.281 133.15 19.971 133.15 19.59V15.652H132.345V14.836H133.15L133.149 13.175Z" fill="black"/>
<path d="M136.404 12.625H137.421V13.758H136.404V12.625ZM136.404 14.863H137.421V20.783H136.404V14.863Z" fill="black"/>
<path d="M143.536 15.4291C144.062 15.9401 144.325 16.6911 144.325 17.6821C144.325 18.6401 144.094 19.4321 143.63 20.0571C143.167 20.6821 142.448 20.9951 141.474 20.9951C140.662 20.9951 140.016 20.7191 139.538 20.1651C139.06 19.6121 138.821 18.8701 138.821 17.9371C138.821 16.9381 139.073 16.1431 139.576 15.5511C140.08 14.9591 140.756 14.6631 141.605 14.6631C142.367 14.6631 143.011 14.9181 143.536 15.4291ZM142.916 19.3821C143.16 18.8811 143.281 18.3231 143.281 17.7101C143.281 17.1551 143.193 16.7041 143.017 16.3561C142.739 15.8091 142.259 15.5351 141.579 15.5351C140.975 15.5351 140.536 15.7681 140.261 16.2341C139.986 16.7001 139.849 17.2621 139.849 17.9211C139.849 18.5531 139.986 19.0801 140.261 19.5021C140.535 19.9241 140.971 20.1341 141.568 20.1341C142.223 20.1331 142.673 19.8831 142.916 19.3821Z" fill="black"/>
<path d="M145.848 14.8352H146.798V15.6792C147.079 15.3312 147.378 15.0812 147.692 14.9292C148.007 14.7772 148.357 14.7012 148.742 14.7012C149.586 14.7012 150.156 14.9952 150.452 15.5842C150.615 15.9062 150.697 16.3672 150.697 16.9672V20.7822H149.68V17.0332C149.68 16.6702 149.626 16.3782 149.519 16.1562C149.341 15.7862 149.019 15.6002 148.553 15.6002C148.316 15.6002 148.122 15.6242 147.97 15.6722C147.696 15.7542 147.455 15.9172 147.248 16.1612C147.081 16.3572 146.973 16.5602 146.923 16.7692C146.873 16.9782 146.848 17.2772 146.848 17.6662V20.7822H145.848V14.8352Z" fill="black"/>
<path d="M155.657 17.1841C155.886 17.1551 156.04 17.0591 156.118 16.8961C156.162 16.8071 156.184 16.6781 156.184 16.5111C156.184 16.1691 156.063 15.9211 155.821 15.7671C155.579 15.6131 155.233 15.5361 154.782 15.5361C154.261 15.5361 153.891 15.6771 153.673 15.9601C153.551 16.1171 153.472 16.3491 153.435 16.6581H152.502C152.52 15.9231 152.758 15.4111 153.214 15.1241C153.671 14.8361 154.201 14.6921 154.803 14.6921C155.502 14.6921 156.07 14.8251 156.506 15.0921C156.939 15.3591 157.155 15.7731 157.155 16.3361V19.7631C157.155 19.8671 157.176 19.9501 157.219 20.0131C157.261 20.0761 157.351 20.1071 157.488 20.1071C157.532 20.1071 157.583 20.1051 157.638 20.0991C157.694 20.0941 157.753 20.0851 157.816 20.0741V20.8131C157.661 20.8571 157.542 20.8851 157.461 20.8961C157.379 20.9071 157.269 20.9131 157.128 20.9131C156.784 20.9131 156.534 20.7901 156.378 20.5461C156.297 20.4171 156.239 20.2331 156.206 19.9961C156.002 20.2631 155.71 20.4941 155.329 20.6901C154.948 20.8861 154.527 20.9841 154.068 20.9841C153.516 20.9841 153.066 20.8171 152.715 20.4821C152.365 20.1481 152.191 19.7291 152.191 19.2261C152.191 18.6751 152.363 18.2481 152.707 17.9451C153.052 17.6421 153.503 17.4551 154.062 17.3851L155.657 17.1841ZM153.552 19.8841C153.763 20.0501 154.013 20.1331 154.302 20.1331C154.654 20.1331 154.994 20.0521 155.323 19.8891C155.879 19.6191 156.156 19.1771 156.156 18.5641V17.7601C156.034 17.8381 155.877 17.9031 155.685 17.9551C155.493 18.0071 155.304 18.0441 155.12 18.0661L154.516 18.1441C154.154 18.1921 153.881 18.2681 153.699 18.3721C153.389 18.5451 153.235 18.8231 153.235 19.2031C153.236 19.4911 153.341 19.7181 153.552 19.8841Z" fill="black"/>
<path d="M159.118 12.625H160.118V20.783H159.118V12.625Z" fill="black"/>
<path d="M165.587 14.9991C165.981 15.1971 166.281 15.4541 166.487 15.7681C166.686 16.0681 166.818 16.4181 166.884 16.8181C166.943 17.0921 166.972 17.5291 166.972 18.1291H162.646C162.664 18.7341 162.806 19.2201 163.07 19.5861C163.334 19.9521 163.744 20.1341 164.299 20.1341C164.817 20.1341 165.23 19.9611 165.539 19.6151C165.712 19.4141 165.834 19.1811 165.906 18.9171H166.889C166.863 19.1361 166.777 19.3791 166.631 19.6471C166.485 19.9161 166.322 20.1351 166.142 20.3051C165.841 20.6011 165.468 20.8011 165.023 20.9051C164.784 20.9641 164.514 20.9941 164.212 20.9941C163.476 20.9941 162.853 20.7251 162.341 20.1861C161.829 19.6471 161.574 18.8931 161.574 17.9231C161.574 16.9671 161.831 16.1921 162.346 15.5961C162.861 15.0001 163.534 14.7021 164.366 14.7021C164.786 14.7021 165.193 14.8011 165.587 14.9991ZM165.945 17.3341C165.904 16.9011 165.811 16.5551 165.664 16.2951C165.393 15.8141 164.939 15.5731 164.304 15.5731C163.848 15.5731 163.467 15.7391 163.158 16.0701C162.849 16.4021 162.686 16.8231 162.668 17.3341H165.945Z" fill="black"/>
</g>
<defs>
<clipPath id="clip0_5103_15459">
<rect width="166.771" height="20.994" fill="white"/>
</clipPath>
</defs>
</svg>
