<svg xmlns="http://www.w3.org/2000/svg" width="1627" height="100" viewBox="0 0 1626 100">
  <path d="M90.25 6.695s-5.586 10.77-6.328 11.875c-.75 1.489-1.496 1.489-2.621.746-1.492-.746-5.969-3.336-5.969-3.336s4.113 17.805 4.113 19.293c.364 1.489-1.125 2.602-2.617 1.489-.367-.367-8.2-9.282-8.2-9.282s-1.858 4.082-2.241 4.832c-.367.739-.739 1.473-1.864 1.11-1.492-.371-8.578-1.86-8.578-1.86s2.625 8.895 2.985 10.02c.363.89.746 1.855-.742 2.598l-2.606 1.12S70.859 58.685 71.238 59.06c.754.742 1.496 1.113.754 3.351-.754 2.235-1.5 5.23-1.5 5.23s14.172-2.995 15.664-3.374c1.305-.133 2.723.379 2.723 1.867 0 1.508-.867 16.797-.867 16.797h4.48s-.867-15.29-.867-16.797c0-1.488 1.414-2 2.73-1.867 1.497.379 15.657 3.375 15.657 3.375s-.75-2.996-1.492-5.23c-.75-2.24 0-2.61.742-3.352.379-.375 15.66-13.758 15.66-13.758l-2.606-1.121c-1.492-.742-1.097-1.707-.742-2.598.36-1.125 2.98-10.02 2.98-10.02s-7.09 1.489-8.581 1.86c-1.11.363-1.493-.371-1.864-1.11-.367-.75-2.234-4.832-2.234-4.832s-7.836 8.915-8.203 9.282c-1.488 1.113-2.98 0-2.61-1.489 0-1.488 4.102-19.293 4.102-19.293s-4.473 2.59-5.96 3.336c-1.118.743-1.876.743-2.61-.746-.742-1.105-6.344-11.875-6.344-11.875M45.129 0H.016v89.637h45.113ZM180.48 0h-45.12v89.637h45.12Zm0 0" style="stroke:none;fill-rule:nonzero;fill:#ee1d23;fill-opacity:.992157"/>
  <path d="M260.035.02h25.324v4.109h-20.441v11.668h19.055v4.11h-19.055v12.69h20.598v4.11h-25.48ZM290.246 10.14h4.113v4.215h.102c1.844-3.289 4.828-4.832 8.629-4.832 6.984 0 9.144 4.008 9.144 9.711v17.473h-4.367V18.719c0-3.239-2.058-5.34-5.394-5.34-5.293 0-7.86 3.543-7.86 8.324v15.004h-4.367ZM329.672 36.707h-4.676l-9.863-26.566h4.887l7.44 22.152h.103l7.25-22.152h4.57ZM343.379 5.363h4.367V.023h-4.367Zm0 31.344h4.367v-26.57h-4.367ZM354.086 10.14h4.105v5.602h.106c2.105-4.27 5.035-6.375 9.758-6.219v4.625c-7.035 0-9.602 4.008-9.602 10.739v11.82h-4.367ZM382.516 9.523c8.421 0 12.898 6.114 12.898 13.93 0 7.754-4.476 13.875-12.898 13.875s-12.895-6.121-12.895-13.875c0-7.816 4.473-13.93 12.895-13.93m0 23.95c4.57 0 8.27-3.598 8.27-10.02 0-6.476-3.7-10.074-8.27-10.074-4.57 0-8.266 3.598-8.266 10.074 0 6.422 3.695 10.02 8.266 10.02M400.422 10.14h4.11v4.215h.1c1.845-3.289 4.833-4.832 8.63-4.832 6.988 0 9.148 4.008 9.148 9.711v17.473h-4.37V18.719c0-3.239-2.056-5.34-5.392-5.34-5.293 0-7.859 3.543-7.859 8.324v15.004h-4.367ZM428.785 10.14h4.11v4.215H433c1.848-3.289 4.824-4.832 8.625-4.832 6.984 0 9.145 4.008 9.145 9.711v17.473h-4.368V18.719c0-3.239-2.05-5.34-5.39-5.34-5.293 0-7.86 3.543-7.86 8.324v15.004h-4.367ZM479.785 28.281c-1.183 5.86-5.39 9.043-11.348 9.043-8.48 0-12.488-5.86-12.742-13.976 0-7.961 5.243-13.825 12.48-13.825 9.4 0 12.274 8.79 12.02 15.211h-19.879c-.152 4.625 2.473 8.735 8.27 8.735 3.598 0 6.113-1.746 6.887-5.188Zm-4.215-7.398c-.199-4.164-3.34-7.5-7.648-7.5-4.57 0-7.297 3.437-7.606 7.5ZM484.871 10.14h4.113v3.907h.102c1.95-2.98 4.934-4.524 8.578-4.524 3.234 0 6.215 1.282 7.293 4.524 1.797-2.828 4.934-4.524 8.324-4.524 5.285 0 8.828 2.211 8.828 7.707v19.477h-4.367V19.289c0-3.293-.87-5.91-5.133-5.91-4.21 0-6.933 2.672-6.933 6.781v16.547h-4.367V19.289c0-3.445-1.079-5.91-4.98-5.91-5.184 0-7.087 4.777-7.087 6.781v16.547h-4.37ZM551.176 28.281c-1.18 5.86-5.39 9.043-11.348 9.043-8.476 0-12.484-5.86-12.742-13.976 0-7.961 5.242-13.825 12.488-13.825 9.395 0 12.274 8.79 12.02 15.211h-19.88c-.155 4.625 2.466 8.735 8.266 8.735 3.598 0 6.114-1.746 6.887-5.188Zm-4.211-7.398c-.203-4.164-3.34-7.5-7.653-7.5-4.57 0-7.296 3.437-7.597 7.5ZM556.266 10.14h4.105v4.215h.106c1.851-3.289 4.828-4.832 8.625-4.832 6.988 0 9.144 4.008 9.144 9.711v17.473h-4.367V18.719c0-3.239-2.05-5.34-5.387-5.34-5.293 0-7.86 3.543-7.86 8.324v15.004h-4.366ZM590.563 10.14h5.289v3.852h-5.29v16.496c0 2.004.563 2.367 3.29 2.367h2v3.852h-3.336c-4.52 0-6.325-.922-6.325-5.809V13.992h-4.52v-3.851h4.52V2.176h4.371ZM637.629 28.281c-1.18 5.86-5.395 9.043-11.352 9.043-8.472 0-12.48-5.86-12.742-13.976 0-7.961 5.246-13.825 12.488-13.825 9.395 0 12.274 8.79 12.02 15.211h-19.879c-.152 4.625 2.465 8.735 8.27 8.735 3.597 0 6.109-1.746 6.886-5.188Zm-4.215-7.398c-.2-4.164-3.336-7.5-7.648-7.5-4.57 0-7.297 3.437-7.602 7.5ZM648.445 10.14h5.293v3.852h-5.293v16.496c0 2.004.567 2.367 3.29 2.367h2.003v3.852h-3.336c-4.523 0-6.324-.922-6.324-5.809V13.992h-4.52v-3.851h4.52V2.176h4.367ZM285.824 63.973c-1.023-5.188-5.183-7.809-10.27-7.809-8.738 0-12.429 7.195-12.429 14.848 0 8.379 3.691 15.367 12.477 15.367 6.425 0 10.12-4.524 10.586-10.582h4.875c-.922 9.144-6.618 14.691-15.872 14.691-11.398 0-16.949-8.425-16.949-19.113 0-10.637 6.063-19.32 17.36-19.32 7.656 0 13.976 4.11 15.105 11.918ZM296.2 52.93h4.366v14.027h.102c1.434-3.184 5.184-4.523 8.367-4.523 6.988 0 9.145 4.007 9.145 9.714v17.473h-4.368V71.637c0-3.239-2.05-5.344-5.386-5.344-5.293 0-7.86 3.543-7.86 8.32v15.008H296.2ZM348.066 89.508c-.773.46-1.746.719-3.132.719-2.262 0-3.696-1.235-3.696-4.11-2.418 2.828-5.656 4.11-9.355 4.11-4.824 0-8.781-2.16-8.781-7.45 0-6.011 4.468-7.3 8.992-8.172 4.824-.921 8.937-.617 8.937-3.906 0-3.8-3.136-4.418-5.91-4.418-3.7 0-6.418 1.13-6.625 5.035h-4.363c.254-6.574 5.34-8.886 11.25-8.886 4.773 0 9.96 1.078 9.96 7.293v13.672c0 2.05 0 2.98 1.387 2.98.364 0 .77-.05 1.336-.258Zm-7.09-13.621c-1.695 1.234-4.98 1.289-7.906 1.797-2.879.515-5.347 1.546-5.347 4.785 0 2.875 2.468 3.906 5.14 3.906 5.75 0 8.114-3.598 8.114-6.012ZM352.176 63.063h4.11v4.214h.1c1.852-3.289 4.833-4.832 8.63-4.832 6.988 0 9.148 4.008 9.148 9.715v17.473h-4.371V71.645c0-3.239-2.055-5.344-5.39-5.344-5.294 0-7.86 3.547-7.86 8.324v15.008h-4.367ZM403.441 87.352c0 8.632-3.953 13.05-12.328 13.05-4.984 0-10.734-2.004-10.988-7.808h4.363c.207 3.183 4.004 4.316 6.887 4.316 5.695 0 7.957-4.11 7.957-10.07v-1.746h-.105c-1.434 3.234-4.926 4.824-8.266 4.824-7.91 0-11.867-6.215-11.867-13.457 0-6.273 3.086-14.031 12.281-14.031 3.336 0 6.316 1.488 7.906 4.418h.051v-3.801h4.11Zm-4.308-11.563c0-4.676-2.063-9.504-7.559-9.504-5.594 0-7.86 4.57-7.86 9.66 0 4.778 1.75 10.121 7.5 10.121 5.755 0 7.919-5.289 7.919-10.277M432.563 81.195c-1.188 5.86-5.395 9.043-11.352 9.043-8.48 0-12.488-5.86-12.742-13.976 0-7.961 5.246-13.825 12.484-13.825 9.399 0 12.274 8.793 12.02 15.215h-19.88c-.156 4.621 2.47 8.73 8.266 8.73 3.598 0 6.118-1.745 6.887-5.187Zm-4.215-7.398c-.203-4.164-3.336-7.5-7.653-7.5-4.57 0-7.293 3.437-7.601 7.5ZM437.625 63.063h4.113v3.906h.102c1.95-2.98 4.93-4.524 8.578-4.524 3.234 0 6.215 1.29 7.293 4.524 1.797-2.828 4.934-4.524 8.324-4.524 5.285 0 8.828 2.211 8.828 7.711v19.477h-4.367V72.21c0-3.29-.871-5.91-5.133-5.91-4.215 0-6.933 2.672-6.933 6.781v16.55h-4.368V72.212c0-3.445-1.078-5.91-4.98-5.91-5.184 0-7.086 4.777-7.086 6.781v16.55h-4.371ZM503.953 81.195c-1.18 5.86-5.394 9.043-11.351 9.043-8.473 0-12.48-5.86-12.743-13.976 0-7.961 5.246-13.825 12.489-13.825 9.394 0 12.273 8.793 12.02 15.215h-19.88c-.152 4.621 2.465 8.73 8.27 8.73 3.597 0 6.11-1.745 6.887-5.187Zm-4.215-7.398c-.199-4.164-3.336-7.5-7.652-7.5-4.566 0-7.293 3.437-7.598 7.5ZM509.04 63.063h4.108v4.214h.106c1.848-3.289 4.824-4.832 8.625-4.832 6.988 0 9.144 4.008 9.144 9.715v17.473h-4.367V71.645c0-3.239-2.05-5.344-5.39-5.344-5.293 0-7.86 3.547-7.86 8.324v15.008h-4.367ZM543.336 63.063h5.293v3.855h-5.293v16.496c0 2.004.562 2.363 3.289 2.363h2.004v3.856h-3.336c-4.523 0-6.324-.926-6.324-5.813V66.918h-4.524v-3.856h4.524v-7.96h4.367ZM585.762 71.598c-.668-3.34-2.977-5.297-6.57-5.297-6.325 0-8.27 4.988-8.27 10.383 0 4.879 2.203 9.71 7.754 9.71 4.207 0 6.726-2.464 7.293-6.472h4.468c-.976 6.473-5.035 10.328-11.714 10.328-8.114 0-12.43-5.656-12.43-13.566 0-7.97 4.113-14.235 12.535-14.235 6.012 0 10.836 2.828 11.457 9.149ZM595.45 58.285h4.366v-5.347h-4.367Zm0 31.344h4.366V58.285h-4.367ZM606.355 58.285h4.368v-5.347h-4.368Zm0 31.344h4.368v-26.57h-4.368ZM617.148 63.063h4.114v3.906h.101c1.95-2.98 4.93-4.524 8.574-4.524 3.239 0 6.215 1.29 7.297 4.524 1.797-2.828 4.934-4.524 8.32-4.524 5.294 0 8.833 2.211 8.833 7.711v19.477h-4.367V72.21c0-3.29-.872-5.91-5.133-5.91-4.215 0-6.934 2.672-6.934 6.781v16.55h-4.367V72.212c0-3.445-1.082-5.91-4.98-5.91-5.188 0-7.09 4.777-7.09 6.781v16.55h-4.368ZM684.43 89.508c-.77.46-1.742.719-3.133.719-2.258 0-3.695-1.235-3.695-4.11-2.418 2.828-5.653 4.11-9.352 4.11-4.828 0-8.781-2.16-8.781-7.45 0-6.011 4.468-7.3 8.988-8.172 4.824-.921 8.938-.617 8.938-3.906 0-3.8-3.133-4.418-5.907-4.418-3.699 0-6.422 1.13-6.629 5.035h-4.367c.258-6.574 5.348-8.886 11.254-8.886 4.777 0 9.965 1.078 9.965 7.293v13.672c0 2.05 0 2.98 1.387 2.98.359 0 .77-.05 1.332-.258Zm-7.086-13.621c-1.696 1.234-4.985 1.289-7.914 1.797-2.875.515-5.34 1.546-5.34 4.785 0 2.875 2.465 3.906 5.14 3.906 5.747 0 8.114-3.598 8.114-6.012ZM694.316 63.063h5.293v3.855h-5.293v16.496c0 2.004.567 2.363 3.29 2.363h2.003v3.856h-3.34c-4.519 0-6.316-.926-6.316-5.813V66.918h-4.523v-3.856h4.523v-7.96h4.363ZM704.18 58.285h4.367v-5.347h-4.367Zm0 31.344h4.367v-26.57h-4.367ZM738.898 99.797h-4.37v-13.77h-.098c-1.438 2.93-4.832 4.211-8.477 4.211-8.168 0-12.226-6.476-12.226-13.976 0-7.5 4.003-13.825 12.125-13.825 2.722 0 6.625 1.032 8.578 4.165h.097v-3.543h4.371ZM726.57 86.383c5.856 0 8.114-5.031 8.114-10.02 0-5.242-2.36-10.066-8.371-10.066-5.961 0-7.965 5.082-7.965 10.273 0 4.989 2.566 9.813 8.222 9.813M767.309 89.617h-4.11v-4.215h-.105c-1.852 3.29-4.824 4.832-8.625 4.832-6.989 0-9.145-4.007-9.145-9.71V63.05h4.367v17.988c0 3.238 2.051 5.34 5.387 5.34 5.293 0 7.86-3.543 7.86-8.324V63.05h4.37ZM796.426 81.195c-1.176 5.86-5.39 9.043-11.348 9.043-8.48 0-12.48-5.86-12.742-13.976 0-7.961 5.242-13.825 12.48-13.825 9.403 0 12.282 8.793 12.02 15.215h-19.879c-.148 4.621 2.473 8.73 8.273 8.73 3.594 0 6.114-1.745 6.883-5.187Zm-4.211-7.398c-.203-4.164-3.34-7.5-7.653-7.5-4.57 0-7.296 3.437-7.605 7.5ZM842.14 63.973c-1.03-5.188-5.183-7.809-10.269-7.809-8.738 0-12.43 7.195-12.43 14.848 0 8.379 3.692 15.367 12.477 15.367 6.426 0 10.121-4.524 10.586-10.582h4.875c-.922 9.144-6.621 14.691-15.871 14.691-11.403 0-16.95-8.425-16.95-19.113 0-10.637 6.063-19.32 17.36-19.32 7.656 0 13.977 4.11 15.105 11.918ZM875.77 89.508c-.77.46-1.747.719-3.133.719-2.258 0-3.7-1.235-3.7-4.11-2.41 2.828-5.648 4.11-9.347 4.11-4.828 0-8.781-2.16-8.781-7.45 0-6.011 4.468-7.3 8.984-8.172 4.832-.921 8.937-.617 8.937-3.906 0-3.8-3.128-4.418-5.902-4.418-3.7 0-6.422 1.13-6.629 5.035h-4.367c.262-6.574 5.348-8.886 11.25-8.886 4.781 0 9.969 1.078 9.969 7.293v13.672c0 2.05 0 2.98 1.386 2.98.356 0 .77-.05 1.333-.258Zm-7.086-13.621c-1.696 1.234-4.985 1.289-7.914 1.797-2.875.515-5.34 1.546-5.34 4.785 0 2.875 2.465 3.906 5.14 3.906 5.746 0 8.114-3.598 8.114-6.012ZM879.879 63.063h4.113v4.214h.102c1.843-3.289 4.824-4.832 8.625-4.832 6.988 0 9.144 4.008 9.144 9.715v17.473h-4.367V71.645c0-3.239-2.05-5.344-5.387-5.344-5.293 0-7.859 3.547-7.859 8.324v15.008h-4.371ZM931.746 89.508c-.77.46-1.746.719-3.129.719-2.262 0-3.703-1.235-3.703-4.11-2.414 2.828-5.648 4.11-9.348 4.11-4.828 0-8.78-2.16-8.78-7.45 0-6.011 4.468-7.3 8.984-8.172 4.828-.921 8.937-.617 8.937-3.906 0-3.8-3.129-4.418-5.902-4.418-3.7 0-6.422 1.13-6.63 5.035h-4.362c.257-6.574 5.343-8.886 11.246-8.886 4.777 0 9.968 1.078 9.968 7.293v13.672c0 2.05 0 2.98 1.383 2.98.36 0 .774-.05 1.336-.258Zm-7.086-13.621c-1.695 1.234-4.98 1.289-7.906 1.797-2.883.515-5.348 1.546-5.348 4.785 0 2.875 2.465 3.906 5.137 3.906 5.75 0 8.117-3.598 8.117-6.012ZM959.336 89.617h-4.367v-3.594h-.102c-1.433 2.93-4.832 4.211-8.476 4.211-8.168 0-12.227-6.472-12.227-13.976 0-7.5 4.008-13.824 12.125-13.824 2.723 0 6.629 1.03 8.578 4.16h.102V52.93h4.367Zm-12.328-3.238c5.855 0 8.113-5.031 8.113-10.02 0-5.242-2.36-10.066-8.367-10.066-5.965 0-7.965 5.082-7.965 10.273 0 4.98 2.566 9.813 8.219 9.813M989.39 89.508c-.773.46-1.75.719-3.136.719-2.258 0-3.7-1.235-3.7-4.11-2.41 2.828-5.648 4.11-9.347 4.11-4.828 0-8.781-2.16-8.781-7.45 0-6.011 4.469-7.3 8.984-8.172 4.832-.921 8.938-.617 8.938-3.906 0-3.8-3.13-4.418-5.903-4.418-3.699 0-6.418 1.13-6.625 5.035h-4.37c.26-6.574 5.347-8.886 11.25-8.886 4.777 0 9.968 1.078 9.968 7.293v13.672c0 2.05 0 2.98 1.383 2.98.36 0 .773-.05 1.34-.258Zm-7.09-13.621c-1.695 1.234-4.984 1.289-7.905 1.797-2.88.515-5.348 1.546-5.348 4.785 0 2.875 2.469 3.906 5.14 3.906 5.75 0 8.114-3.598 8.114-6.012ZM1073.598.02h25.32v4.109h-20.441v11.668h19.058v4.11h-19.058v12.69h20.593v4.11h-25.472ZM1103.785 10.14h4.106v4.215h.109c1.848-3.289 4.824-4.832 8.629-4.832 6.98 0 9.137 4.008 9.137 9.711v17.473h-4.36V18.719c0-3.239-2.058-5.34-5.394-5.34-5.293 0-7.86 3.543-7.86 8.324v15.004h-4.367ZM1143.234 36.707h-4.675l-9.86-26.566h4.88l7.444 22.152h.106l7.242-22.152h4.57ZM1156.918 5.363h4.367V.023h-4.367Zm0 31.344h4.367v-26.57h-4.367ZM1167.625 10.14h4.105v5.602h.106c2.105-4.27 5.035-6.375 9.758-6.219v4.625c-7.035 0-9.602 4.008-9.602 10.739v11.82h-4.367ZM1196.078 9.523c8.426 0 12.895 6.114 12.895 13.93 0 7.754-4.47 13.875-12.895 13.875-8.422 0-12.89-6.121-12.89-13.875 0-7.816 4.468-13.93 12.89-13.93m0 23.95c4.57 0 8.274-3.598 8.274-10.02 0-6.476-3.704-10.074-8.274-10.074-4.57 0-8.27 3.598-8.27 10.074 0 6.422 3.7 10.02 8.27 10.02M1213.98 10.14h4.11v4.215h.105c1.848-3.289 4.825-4.832 8.63-4.832 6.984 0 9.14 4.008 9.14 9.711v17.473h-4.363V18.719c0-3.239-2.055-5.34-5.395-5.34-5.293 0-7.86 3.543-7.86 8.324v15.004h-4.367ZM1242.348 10.14h4.105v3.907h.11c1.949-2.98 4.93-4.524 8.574-4.524 3.238 0 6.218 1.282 7.297 4.524 1.796-2.828 4.93-4.524 8.316-4.524 5.293 0 8.836 2.211 8.836 7.707v19.477h-4.367V19.289c0-3.293-.871-5.91-5.133-5.91-4.215 0-6.938 2.672-6.938 6.781v16.547h-4.367V19.289c0-3.445-1.078-5.91-4.984-5.91-5.184 0-7.082 4.777-7.082 6.781v16.547h-4.367ZM1308.652 28.281c-1.18 5.86-5.394 9.043-11.351 9.043-8.473 0-12.48-5.86-12.742-13.976 0-7.961 5.246-13.825 12.484-13.825 9.398 0 12.277 8.79 12.023 15.211h-19.879c-.16 4.625 2.465 8.735 8.27 8.735 3.59 0 6.11-1.746 6.879-5.188Zm-4.215-7.398c-.203-4.164-3.335-7.5-7.652-7.5-4.57 0-7.293 3.437-7.598 7.5ZM1313.738 10.14h4.11v4.215h.105c1.848-3.289 4.824-4.832 8.629-4.832 6.98 0 9.14 4.008 9.14 9.711v17.473h-4.363V18.719c0-3.239-2.058-5.34-5.394-5.34-5.293 0-7.86 3.543-7.86 8.324v15.004h-4.367ZM1348.035 10.14h5.293v3.852h-5.293v16.496c0 2.004.57 2.367 3.29 2.367h2.003v3.852h-3.336c-4.523 0-6.32-.922-6.32-5.809V13.992h-4.52v-3.851h4.52V2.176h4.363ZM1395.969 36.598c-.77.46-1.746.718-3.133.718-2.258 0-3.7-1.234-3.7-4.109-2.413 2.828-5.648 4.11-9.347 4.11-4.824 0-8.781-2.16-8.781-7.45 0-6.012 4.469-7.297 8.988-8.172 4.824-.922 8.938-.617 8.938-3.906 0-3.8-3.133-4.418-5.907-4.418-3.699 0-6.422 1.129-6.629 5.035h-4.363c.258-6.574 5.344-8.886 11.246-8.886 4.778 0 9.969 1.078 9.969 7.293v13.671c0 2.051 0 2.98 1.387 2.98.355 0 .765-.05 1.332-.257Zm-7.086-13.621c-1.696 1.234-4.985 1.289-7.914 1.804-2.875.508-5.34 1.54-5.34 4.778 0 2.875 2.465 3.906 5.137 3.906 5.75 0 8.117-3.598 8.117-6.016ZM1400.078 10.14h4.11v4.215h.105c1.848-3.289 4.824-4.832 8.629-4.832 6.984 0 9.14 4.008 9.14 9.711v17.473h-4.363V18.719c0-3.239-2.054-5.34-5.394-5.34-5.293 0-7.86 3.543-7.86 8.324v15.004h-4.367ZM1452.258 36.707h-4.367v-3.594h-.102c-1.441 2.93-4.832 4.211-8.476 4.211-8.168 0-12.227-6.472-12.227-13.976 0-7.5 4.008-13.825 12.125-13.825 2.723 0 6.629 1.032 8.578 4.16h.102V.02h4.367Zm-12.328-3.234c5.855 0 8.113-5.035 8.113-10.024 0-5.242-2.36-10.066-8.367-10.066-5.965 0-7.969 5.082-7.969 10.273 0 4.98 2.574 9.817 8.223 9.817M1099.387 63.973c-1.028-5.188-5.188-7.809-10.274-7.809-8.734 0-12.426 7.195-12.426 14.848 0 8.379 3.692 15.367 12.477 15.367 6.422 0 10.121-4.524 10.582-10.582h4.879c-.926 9.144-6.625 14.691-15.871 14.691-11.402 0-16.95-8.425-16.95-19.113 0-10.637 6.063-19.32 17.36-19.32 7.656 0 13.973 4.11 15.106 11.918ZM1109.96 58.285h4.368v-5.347h-4.367Zm0 31.344h4.368V58.285h-4.367ZM1120.867 58.285h4.367v-5.347h-4.367Zm0 31.344h4.367v-26.57h-4.367ZM1131.684 63.063h4.109v3.906h.105c1.95-2.98 4.93-4.524 8.575-4.524 3.238 0 6.218 1.29 7.297 4.524 1.796-2.828 4.93-4.524 8.316-4.524 5.293 0 8.836 2.211 8.836 7.711v19.477h-4.367V72.21c0-3.29-.871-5.91-5.133-5.91-4.215 0-6.934 2.676-6.934 6.781v16.55h-4.37V72.212c0-3.445-1.079-5.91-4.985-5.91-5.184 0-7.082 4.777-7.082 6.781v16.55h-4.367ZM1198.965 89.508c-.77.46-1.746.719-3.133.719-2.258 0-3.7-1.235-3.7-4.11-2.413 2.828-5.648 4.11-9.347 4.11-4.828 0-8.785-2.16-8.785-7.45 0-6.011 4.469-7.3 8.992-8.172 4.824-.921 8.938-.617 8.938-3.906 0-3.8-3.133-4.418-5.907-4.418-3.699 0-6.421 1.13-6.628 5.035h-4.368c.262-6.578 5.348-8.886 11.25-8.886 4.778 0 9.97 1.078 9.97 7.293v13.672c0 2.05 0 2.98 1.386 2.98.355 0 .765-.05 1.332-.258Zm-7.086-13.621c-1.695 1.234-4.984 1.289-7.914 1.797-2.875.515-5.34 1.546-5.34 4.785 0 2.875 2.465 3.906 5.137 3.906 5.75 0 8.117-3.598 8.117-6.012ZM1208.828 63.063h5.293v3.855h-5.293v16.496c0 2.004.57 2.363 3.29 2.363h2.003v3.856h-3.336c-4.523 0-6.32-.926-6.32-5.813V66.918h-4.52v-3.856h4.52v-7.96h4.363ZM1240.547 81.195c-1.18 5.86-5.39 9.043-11.348 9.043-8.476 0-12.484-5.86-12.742-13.976 0-7.961 5.242-13.825 12.48-13.825 9.399 0 12.282 8.793 12.024 15.215h-19.879c-.156 4.621 2.469 8.73 8.27 8.73 3.593 0 6.109-1.745 6.882-5.187Zm-4.211-7.398c-.203-4.164-3.34-7.5-7.652-7.5-4.57 0-7.297 3.437-7.602 7.5ZM1286.285 63.973c-1.027-5.188-5.187-7.809-10.273-7.809-8.735 0-12.43 7.195-12.43 14.848 0 8.379 3.695 15.367 12.477 15.367 6.425 0 10.125-4.524 10.586-10.582h4.878c-.925 9.144-6.625 14.691-15.87 14.691-11.407 0-16.954-8.425-16.954-19.113 0-10.637 6.063-19.32 17.36-19.32 7.66 0 13.976 4.11 15.101 11.918ZM1296.656 52.93h4.367v14.027h.102c1.441-3.184 5.188-4.523 8.375-4.523 6.984 0 9.14 4.007 9.14 9.714v17.473h-4.363V71.637c0-3.239-2.054-5.344-5.394-5.344-5.293 0-7.86 3.543-7.86 8.32v15.008h-4.367ZM1348.547 89.508c-.77.46-1.75.719-3.137.719-2.258 0-3.7-1.235-3.7-4.11-2.41 2.828-5.648 4.11-9.343 4.11-4.832 0-8.785-2.16-8.785-7.45 0-6.011 4.469-7.3 8.992-8.172 4.824-.921 8.938-.617 8.938-3.906 0-3.8-3.137-4.418-5.91-4.418-3.7 0-6.418 1.13-6.625 5.035h-4.368c.258-6.578 5.344-8.886 11.246-8.886 4.778 0 9.97 1.078 9.97 7.293v13.672c0 2.05 0 2.98 1.386 2.98.355 0 .766-.05 1.336-.258Zm-7.09-13.621c-1.695 1.234-4.984 1.289-7.91 1.797-2.875.515-5.344 1.546-5.344 4.785 0 2.875 2.469 3.906 5.14 3.906 5.75 0 8.114-3.598 8.114-6.012ZM1352.656 63.063h4.106v4.214h.105c1.844-3.289 4.828-4.832 8.633-4.832 6.98 0 9.137 4.008 9.137 9.715v17.473h-4.36V71.645c0-3.239-2.058-5.344-5.394-5.344-5.293 0-7.86 3.547-7.86 8.324v15.008h-4.367ZM1403.922 87.352c0 8.632-3.953 13.05-12.328 13.05-4.985 0-10.735-2.004-10.989-7.808h4.364c.207 3.183 4.004 4.316 6.879 4.316 5.703 0 7.968-4.11 7.968-10.07v-1.746h-.109c-1.434 3.234-4.93 4.824-8.266 4.824-7.906 0-11.867-6.215-11.867-13.457 0-6.273 3.082-14.031 12.274-14.031 3.343 0 6.32 1.488 7.914 4.418h.054v-3.801h4.106Zm-4.317-11.563c0-4.676-2.054-9.504-7.55-9.504-5.598 0-7.856 4.57-7.856 9.66 0 4.778 1.746 10.121 7.496 10.121 5.754 0 7.91-5.289 7.91-10.277M1433.02 81.195c-1.18 5.86-5.391 9.043-11.348 9.043-8.477 0-12.485-5.86-12.742-13.976 0-7.961 5.242-13.825 12.48-13.825 9.399 0 12.274 8.793 12.02 15.215h-19.88c-.152 4.621 2.466 8.73 8.274 8.73 3.594 0 6.113-1.745 6.883-5.187Zm-4.211-7.398c-.204-4.164-3.34-7.5-7.653-7.5-4.57 0-7.297 3.437-7.605 7.5ZM1478.758 63.973c-1.028-5.188-5.188-7.809-10.274-7.809-8.734 0-12.43 7.195-12.43 14.848 0 8.379 3.696 15.367 12.477 15.367 6.426 0 10.125-4.524 10.586-10.582h4.88c-.927 9.144-6.626 14.691-15.872 14.691-11.406 0-16.953-8.425-16.953-19.113 0-10.637 6.062-19.32 17.36-19.32 7.66 0 13.976 4.11 15.1 11.918ZM1512.363 89.508c-.77.46-1.746.719-3.133.719-2.257 0-3.699-1.235-3.699-4.11-2.414 2.828-5.648 4.11-9.347 4.11-4.829 0-8.782-2.16-8.782-7.45 0-6.011 4.47-7.3 8.989-8.172 4.824-.921 8.937-.617 8.937-3.906 0-3.8-3.133-4.418-5.906-4.418-3.7 0-6.422 1.13-6.629 5.035h-4.367c.262-6.578 5.347-8.886 11.25-8.886 4.777 0 9.969 1.078 9.969 7.293v13.672c0 2.05 0 2.98 1.386 2.98.356 0 .766-.05 1.332-.258Zm-7.086-13.621c-1.695 1.234-4.984 1.289-7.914 1.797-2.875.515-5.34 1.546-5.34 4.785 0 2.875 2.465 3.906 5.137 3.906 5.75 0 8.117-3.598 8.117-6.012ZM1516.473 63.063h4.109v4.214h.105c1.848-3.289 4.825-4.832 8.63-4.832 6.984 0 9.14 4.008 9.14 9.715v17.473h-4.363V71.645c0-3.239-2.055-5.344-5.399-5.344-5.289 0-7.86 3.547-7.86 8.324v15.008h-4.362ZM1568.363 89.508c-.77.46-1.75.719-3.129.719-2.265 0-3.707-1.235-3.707-4.11-2.41 2.828-5.648 4.11-9.343 4.11-4.832 0-8.786-2.16-8.786-7.45 0-6.011 4.47-7.3 8.985-8.172 4.832-.921 8.937-.617 8.937-3.906 0-3.8-3.129-4.418-5.902-4.418-3.7 0-6.418 1.13-6.625 5.035h-4.367c.258-6.578 5.344-8.886 11.246-8.886 4.777 0 9.969 1.078 9.969 7.293v13.672c0 2.05 0 2.98 1.382 2.98.364 0 .778-.05 1.34-.258Zm-7.09-13.621c-1.695 1.234-4.976 1.289-7.906 1.797-2.879.515-5.347 1.546-5.347 4.785 0 2.875 2.468 3.906 5.14 3.906 5.75 0 8.113-3.598 8.113-6.012ZM1595.95 89.617h-4.368v-3.594h-.102c-1.433 2.93-4.828 4.211-8.472 4.211-8.168 0-12.227-6.472-12.227-13.976 0-7.5 4.004-13.824 12.125-13.824 2.719 0 6.625 1.03 8.574 4.16h.102V52.93h4.367Zm-12.329-3.234c5.86 0 8.117-5.035 8.117-10.024 0-5.242-2.36-10.066-8.37-10.066-5.962 0-7.966 5.082-7.966 10.273 0 4.98 2.567 9.817 8.22 9.817M1626.004 89.508c-.77.46-1.746.719-3.133.719-2.262 0-3.7-1.235-3.7-4.11-2.413 2.828-5.655 4.11-9.347 4.11-4.832 0-8.785-2.16-8.785-7.45 0-6.011 4.469-7.3 8.988-8.172 4.828-.921 8.938-.617 8.938-3.906 0-3.8-3.133-4.418-5.906-4.418-3.696 0-6.418 1.13-6.625 5.035h-4.368c.262-6.578 5.344-8.886 11.25-8.886 4.782 0 9.97 1.078 9.97 7.293v13.672c0 2.05 0 2.98 1.386 2.98.355 0 .77-.05 1.332-.258Zm-7.09-13.621c-1.691 1.234-4.984 1.289-7.91 1.797-2.875.515-5.34 1.546-5.34 4.785 0 2.875 2.465 3.906 5.137 3.906 5.75 0 8.113-3.598 8.113-6.012Zm0 0" style="stroke:none;fill-rule:nonzero;fill:#231f20;fill-opacity:.988235"/>
</svg>
