<svg width="993" height="100" viewBox="0 0 993 100" fill="none" xmlns="http://www.w3.org/2000/svg">
<path fill-rule="evenodd" clip-rule="evenodd" d="M56.8119 12.3391C56.8119 12.3391 53.47 18.7658 52.9559 19.5371C52.4417 20.3083 52.1847 20.3083 51.4135 20.0512C50.3852 19.5371 47.8145 17.9946 47.8145 17.9946C47.8145 17.9946 50.3852 28.7916 50.3852 29.5628C50.6422 30.334 49.614 31.1052 48.8428 30.334C48.5857 30.0769 43.7014 24.9355 43.7014 24.9355C43.7014 24.9355 42.6731 27.5062 42.416 27.7633C42.1589 28.2774 41.9019 28.5345 41.3877 28.5345C40.6165 28.2774 36.2463 27.5062 36.2463 27.5062C36.2463 27.5062 37.7887 32.9047 38.0458 33.4188C38.3029 33.9329 38.56 34.4471 37.5317 34.9612L35.9893 35.4754C35.9893 35.4754 45.2438 43.4445 45.5008 43.7016C46.015 44.2157 46.2721 44.4728 46.015 45.7581C45.5008 47.0435 45.2438 48.843 45.2438 48.843C45.2438 48.843 53.7271 47.0435 54.7554 46.7864C55.5266 46.7864 56.2978 47.0435 56.2978 47.8147C56.2978 48.5859 55.7836 57.8404 55.7836 57.8404H58.3543C58.3543 57.8404 57.8402 48.5859 57.8402 47.8147C57.8402 47.0435 58.6114 46.5293 59.3826 46.7864C60.1538 47.0435 68.8942 48.843 68.8942 48.843C68.8942 48.843 68.3801 47.0435 68.123 45.7581C67.6089 44.4728 68.123 44.2157 68.6371 43.7016C68.8942 43.4445 78.1487 35.4754 78.1487 35.4754L76.6063 34.7041C75.8351 34.19 75.8351 33.6759 76.0922 33.1617C76.3492 32.3905 77.8917 27.2491 77.8917 27.2491C77.8917 27.2491 73.5215 28.0203 72.7503 28.2774C71.9791 28.5345 71.9791 28.0203 71.722 27.5062C71.4649 26.9921 70.4366 24.6784 70.4366 24.6784C70.4366 24.6784 65.8094 30.0769 65.5523 30.334C64.7811 31.1052 63.7528 30.334 64.0099 29.5628C64.0099 28.7916 66.5806 17.9946 66.5806 17.9946C66.5806 17.9946 64.0099 19.5371 62.9816 20.0512C62.2104 20.5653 61.9533 20.5653 61.4392 19.5371C60.1538 18.7658 56.8119 12.3391 56.8119 12.3391Z" fill="#ED1C24"/>
<path fill-rule="evenodd" clip-rule="evenodd" d="M29.5627 62.2106V8.22607H2.57031V62.2106H29.5627Z" fill="#ED1C24"/>
<path fill-rule="evenodd" clip-rule="evenodd" d="M110.797 62.2106V8.22607H83.8047V62.2106H110.797Z" fill="#ED1C24"/>
<path d="M567.353 14.9099C566.582 11.568 563.754 9.5114 560.669 9.5114C554.757 9.5114 552.443 14.3957 552.443 19.28C552.443 24.1644 555.014 29.0487 560.669 29.0487C564.782 29.0487 567.353 25.9638 567.61 22.1078H569.667C569.153 27.5063 565.554 30.8482 560.412 30.8482C553.471 30.8482 550.129 25.4497 550.129 19.28C550.129 13.1104 553.471 7.71191 560.412 7.71191C564.525 7.71191 568.638 10.2826 569.153 14.9099H567.353Z" fill="black"/>
<path d="M573.78 22.879C573.78 25.7068 575.322 29.0487 578.921 29.0487C581.749 29.0487 583.291 27.5063 583.805 24.9356H585.862C585.091 28.5345 583.034 30.5911 578.921 30.5911C573.78 30.5911 571.723 26.7351 571.723 22.1078C571.723 17.9947 573.78 13.6245 578.921 13.6245C584.063 13.6245 586.119 17.9947 585.862 22.6219H573.78V22.879ZM584.063 21.3366C584.063 18.5088 582.263 15.6811 578.921 15.6811C575.836 15.6811 574.037 18.5088 573.78 21.3366H584.063Z" fill="black"/>
<path d="M588.433 14.3957H590.489V17.2235C591.26 15.424 593.317 14.1387 595.631 14.1387C600.001 14.1387 601.543 16.4523 601.543 20.3083V30.5911H599.487V20.5654C599.487 17.7376 598.715 15.6811 595.374 15.6811C592.289 15.6811 590.489 17.9947 590.489 21.0795V30.334H588.433V14.3957Z" fill="black"/>
<path d="M608.226 14.3958H611.568V15.9382H608.226V26.7351C608.226 28.0205 608.483 28.7917 609.769 28.7917C610.283 28.7917 610.797 28.7917 611.311 28.7917V30.3341C610.797 30.3341 610.283 30.3341 609.512 30.3341C606.941 30.3341 605.913 29.5629 606.17 26.7351V16.1953H603.342V14.3958H606.17V9.76855H608.226V14.3958Z" fill="black"/>
<path d="M614.139 14.3958H615.939V18.2518C616.967 15.6811 619.024 14.1387 621.851 14.3958V16.4523C618.252 16.1952 615.939 18.7659 615.939 22.1078V30.5911H613.882V14.3958H614.139Z" fill="black"/>
<path d="M624.679 22.8793C624.679 25.707 626.221 29.0489 629.82 29.0489C632.648 29.0489 634.19 27.5065 634.704 24.9358H636.761C635.99 28.5348 633.933 30.5913 629.82 30.5913C624.679 30.5913 622.622 26.7353 622.622 22.108C622.622 17.9949 624.679 13.6248 629.82 13.6248C634.961 13.6248 637.018 17.9949 636.761 22.6222H624.679V22.8793ZM634.961 21.3368C634.961 18.5091 633.162 15.6813 629.82 15.6813C626.735 15.6813 624.936 18.5091 624.679 21.3368H634.961Z" fill="black"/>
<path d="M661.955 30.3341H660.155V27.2492C659.384 29.3058 656.813 30.8482 654.5 30.8482C649.615 30.8482 647.302 26.9921 647.302 22.3649C647.302 17.7377 649.615 13.8816 654.5 13.8816C656.813 13.8816 659.127 15.167 659.898 17.4806V8.48315H661.955V30.3341ZM654.5 29.3058C658.613 29.3058 660.155 25.7068 660.155 22.622C660.155 19.5371 658.613 15.9382 654.5 15.9382C650.901 15.9382 649.358 19.5371 649.358 22.622C649.358 25.7068 650.901 29.3058 654.5 29.3058Z" fill="black"/>
<path d="M667.096 8.48315H669.153V15.9382H667.096V8.48315Z" fill="black"/>
<path d="M674.037 19.28C674.294 15.424 676.865 13.8816 680.464 13.8816C683.292 13.8816 686.376 14.6528 686.376 19.023V27.5063C686.376 28.2775 686.634 28.7916 687.405 28.7916C687.662 28.7916 687.919 28.7916 687.919 28.7916V30.334C687.405 30.334 687.148 30.334 686.634 30.334C684.577 30.334 684.32 29.3058 684.32 27.5063C683.035 29.5628 681.492 30.8482 678.407 30.8482C675.58 30.8482 673.009 29.3058 673.009 26.2209C673.009 21.8507 677.379 21.5937 681.492 21.0795C683.035 20.8225 684.063 20.5654 684.063 19.023C684.063 16.4523 682.263 15.6811 679.95 15.6811C677.636 15.6811 675.837 16.7094 675.579 19.28H674.037ZM684.577 21.5937C684.32 22.1078 683.292 22.1078 682.777 22.3649C679.436 22.879 675.322 22.879 675.322 25.9639C675.322 28.0204 677.122 29.0487 678.921 29.0487C682.006 29.0487 684.577 27.2492 684.577 24.1644V21.5937Z" fill="black"/>
<path d="M690.232 14.3957H692.289V17.2235C693.06 15.424 695.117 14.1387 697.43 14.1387C701.801 14.1387 703.343 16.4523 703.343 20.3083V30.5911H701.286V20.5654C701.286 17.7376 700.515 15.6811 697.173 15.6811C694.089 15.6811 692.289 17.9947 692.289 21.0795V30.334H690.232V14.3957Z" fill="black"/>
<path d="M706.685 19.28C706.942 15.424 709.513 13.8816 713.112 13.8816C715.94 13.8816 719.024 14.6528 719.024 19.023V27.5063C719.024 28.2775 719.281 28.7916 720.053 28.7916C720.31 28.7916 720.567 28.7916 720.567 28.7916V30.334C720.053 30.334 719.796 30.334 719.281 30.334C717.225 30.334 716.968 29.3058 716.968 27.5063C715.682 29.5628 714.14 30.8482 711.055 30.8482C708.227 30.8482 705.657 29.3058 705.657 26.2209C705.657 21.8507 710.027 21.5937 714.14 21.0795C715.682 20.8225 716.711 20.5654 716.711 19.023C716.711 16.4523 714.911 15.6811 712.598 15.6811C710.284 15.6811 708.485 16.7094 708.227 19.28H706.685ZM716.968 21.5937C716.711 22.1078 715.682 22.1078 715.168 22.3649C711.826 22.879 707.713 22.879 707.713 25.9639C707.713 28.0204 709.513 29.0487 711.312 29.0487C714.397 29.0487 716.968 27.2492 716.968 24.1644V21.5937Z" fill="black"/>
<path d="M722.879 8.48315H724.936V30.5911H722.879V8.48315Z" fill="black"/>
<path d="M726.735 14.396H728.792L733.933 28.0207L738.818 14.396H740.874L733.933 32.6479C732.905 35.2186 732.134 35.9898 729.82 35.9898C729.049 35.9898 728.535 35.9898 728.278 35.7328V34.1903C728.792 34.1903 729.049 34.4474 729.563 34.4474C731.363 34.4474 731.62 33.4191 732.391 31.8767L733.162 30.0772L726.735 14.396Z" fill="black"/>
<path d="M752.442 19.0232C752.442 16.7096 750.386 15.4242 748.329 15.4242C746.53 15.4242 744.473 16.1954 744.473 18.252C744.473 20.0515 746.53 20.5656 747.815 20.8227L750.386 21.3368C752.699 21.5939 755.013 22.8793 755.013 25.707C755.013 29.0489 751.671 30.5913 748.586 30.5913C744.987 30.5913 742.417 28.7918 742.16 24.9358H744.216C744.473 27.5065 746.273 28.7918 748.843 28.7918C750.643 28.7918 753.214 28.0206 753.214 25.707C753.214 23.9075 751.414 23.1363 749.615 22.8793L747.044 22.3651C744.473 21.5939 742.674 20.8227 742.674 17.9949C742.674 14.653 745.759 13.6248 748.586 13.6248C751.671 13.6248 754.242 15.1672 754.499 18.7661H752.442V19.0232Z" fill="black"/>
<path d="M758.87 22.879C758.87 25.7068 760.413 29.0487 764.011 29.0487C766.839 29.0487 768.382 27.5063 768.896 24.9356H770.952C770.181 28.5345 768.125 30.5911 764.011 30.5911C758.87 30.5911 756.813 26.7351 756.813 22.1078C756.813 17.9947 758.87 13.6245 764.011 13.6245C769.153 13.6245 771.209 17.9947 770.952 22.6219H758.87V22.879ZM769.153 21.3366C769.153 18.5088 767.353 15.6811 764.011 15.6811C760.927 15.6811 759.127 18.5088 758.87 21.3366H769.153Z" fill="black"/>
<path d="M796.402 30.3341H794.603V27.2492C793.831 29.3058 791.261 30.8482 788.947 30.8482C784.063 30.8482 781.749 26.9921 781.749 22.3649C781.749 17.7377 784.063 13.8816 788.947 13.8816C791.261 13.8816 793.574 15.167 794.345 17.4806V8.48315H796.402V30.3341ZM788.69 29.3058C792.803 29.3058 794.345 25.7068 794.345 22.622C794.345 19.5371 792.803 15.9382 788.69 15.9382C785.091 15.9382 783.548 19.5371 783.548 22.622C783.548 25.7068 785.091 29.3058 788.69 29.3058Z" fill="black"/>
<path d="M801.029 22.879C801.029 25.7068 802.572 29.0487 806.171 29.0487C808.998 29.0487 810.541 27.5063 811.055 24.9356H813.112C812.34 28.5345 810.284 30.5911 806.171 30.5911C801.029 30.5911 798.973 26.7351 798.973 22.1078C798.973 17.9947 801.029 13.6245 806.171 13.6245C811.312 13.6245 813.369 17.9947 813.112 22.6219H801.029V22.879ZM811.312 21.3366C811.312 18.5088 809.513 15.6811 806.171 15.6811C803.086 15.6811 801.286 18.5088 801.029 21.3366H811.312Z" fill="black"/>
<path d="M825.451 19.023C825.451 16.7093 823.395 15.424 821.338 15.424C819.539 15.424 817.482 16.1952 817.482 18.2518C817.482 20.0512 819.539 20.5654 820.824 20.8225L823.395 21.3366C825.708 21.5937 828.022 22.879 828.022 25.7068C828.022 29.0487 824.68 30.5911 821.595 30.5911C817.996 30.5911 815.426 28.7916 815.168 24.9356H817.225C817.482 27.5063 819.282 28.7916 821.852 28.7916C823.652 28.7916 826.222 28.0204 826.222 25.7068C826.222 23.9073 824.423 23.1361 822.623 22.879L820.053 22.3649C817.482 21.5937 815.683 20.8225 815.683 17.9947C815.683 14.6528 818.767 13.6245 821.595 13.6245C824.68 13.6245 827.251 15.1669 827.508 18.7659H825.451V19.023Z" fill="black"/>
<path d="M853.729 22.3649C853.729 26.9921 851.158 30.8482 846.274 30.8482C841.39 30.8482 838.819 26.9921 838.819 22.3649C838.819 17.7376 841.39 13.8816 846.274 13.8816C850.901 13.8816 853.729 17.7376 853.729 22.3649ZM840.618 22.3649C840.618 25.7068 842.418 29.0487 846.274 29.0487C850.13 29.0487 851.929 25.7068 851.929 22.3649C851.929 19.023 850.13 15.6811 846.274 15.6811C842.418 15.6811 840.618 19.023 840.618 22.3649Z" fill="black"/>
<path d="M856.556 14.3955H858.355V17.4803C859.126 15.4238 861.44 13.8813 864.011 13.8813C868.895 13.8813 871.209 17.7374 871.209 22.3646C871.209 26.9919 868.895 30.8479 864.011 30.8479C861.697 30.8479 859.383 29.5626 858.612 27.249V36.2464H856.556V14.3955ZM864.011 15.6808C859.64 15.6808 858.355 18.7657 858.355 22.3646C858.355 25.7065 859.898 29.0484 864.011 29.0484C867.61 29.0484 869.152 25.4495 869.152 22.3646C869.152 19.2798 867.867 15.6808 864.011 15.6808Z" fill="black"/>
<path d="M875.322 22.8793C875.322 25.707 876.865 29.0489 880.464 29.0489C883.291 29.0489 884.834 27.5065 885.348 24.9358H887.404C886.633 28.5348 884.577 30.5913 880.464 30.5913C875.322 30.5913 873.266 26.7353 873.266 22.1081C873.266 17.9949 875.322 13.6248 880.464 13.6248C885.605 13.6248 887.662 17.9949 887.404 22.6222H875.322V22.8793ZM885.605 21.3368C885.605 18.5091 883.805 15.6813 880.464 15.6813C877.379 15.6813 875.579 18.5091 875.322 21.3368H885.605ZM880.206 12.3394H878.664L882.006 7.96924H884.32L880.206 12.3394Z" fill="black"/>
<path d="M890.232 14.3955H892.032V18.2515C893.06 15.6809 895.116 14.1384 897.944 14.3955V16.4521C894.345 16.195 892.032 18.7657 892.032 22.1076V30.5909H889.975V14.3955H890.232Z" fill="black"/>
<path d="M899.745 19.28C900.002 15.424 902.572 13.8816 906.171 13.8816C908.999 13.8816 912.084 14.6528 912.084 19.023V27.5063C912.084 28.2775 912.341 28.7916 913.112 28.7916C913.369 28.7916 913.626 28.7916 913.626 28.7916V30.334C913.112 30.334 912.855 30.334 912.341 30.334C910.284 30.334 910.027 29.3058 910.027 27.5063C908.742 29.5628 907.2 30.8482 904.115 30.8482C901.287 30.8482 898.716 29.3058 898.716 26.2209C898.716 21.8507 903.086 21.5937 907.2 21.0795C908.742 20.8225 909.77 20.5654 909.77 19.023C909.77 16.4523 907.971 15.6811 905.657 15.6811C903.344 15.6811 901.544 16.7094 901.287 19.28H899.745ZM910.284 21.5937C910.027 22.1078 908.999 22.1078 908.485 22.3649C905.143 22.879 901.03 22.879 901.03 25.9639C901.03 28.0204 902.829 29.0487 904.629 29.0487C907.714 29.0487 910.284 27.2492 910.284 24.1644V21.5937Z" fill="black"/>
<path d="M919.024 14.3958H922.366V15.9382H919.024V26.7351C919.024 28.0205 919.282 28.7917 920.567 28.7917C921.081 28.7917 921.595 28.7917 922.109 28.7917V30.3341C921.595 30.3341 921.081 30.3341 920.31 30.3341C917.739 30.3341 916.711 29.5629 916.968 26.7351V16.1953H914.14V14.3958H916.968V9.76855H919.024V14.3958Z" fill="black"/>
<path d="M925.194 8.48315H927.251V11.568H925.194V8.48315ZM925.194 14.3958H927.251V30.3341H925.194V14.3958Z" fill="black"/>
<path d="M944.989 22.3649C944.989 26.9921 942.418 30.8482 937.534 30.8482C932.649 30.8482 930.079 26.9921 930.079 22.3649C930.079 17.7376 932.649 13.8816 937.534 13.8816C942.418 13.8816 944.989 17.7376 944.989 22.3649ZM931.878 22.3649C931.878 25.7068 933.678 29.0487 937.534 29.0487C941.39 29.0487 943.189 25.7068 943.189 22.3649C943.189 19.023 941.39 15.6811 937.534 15.6811C933.678 15.6811 931.878 19.023 931.878 22.3649Z" fill="black"/>
<path d="M948.073 14.3957H950.13V17.2235C950.901 15.424 952.957 14.1387 955.271 14.1387C959.641 14.1387 961.184 16.4523 961.184 20.3083V30.5911H958.87V20.5654C958.87 17.7376 958.099 15.6811 954.757 15.6811C951.672 15.6811 949.872 17.9947 949.872 21.0795V30.334H947.816V14.3957H948.073Z" fill="black"/>
<path d="M974.038 19.023C974.038 16.7093 971.981 15.424 969.925 15.424C968.125 15.424 966.068 16.1952 966.068 18.2518C966.068 20.0512 968.125 20.5654 969.41 20.8225L971.981 21.3366C974.295 21.5937 976.608 22.879 976.608 25.7068C976.608 29.0487 973.266 30.5911 970.182 30.5911C966.583 30.5911 964.012 28.7916 963.755 24.9356H965.811C966.069 27.5063 967.868 28.7916 970.439 28.7916C972.238 28.7916 974.809 28.0204 974.809 25.7068C974.809 23.9073 973.009 23.1361 971.21 22.879L968.639 22.3649C966.068 21.5937 964.269 20.8225 964.269 17.9947C964.269 14.6528 967.354 13.6245 970.182 13.6245C973.266 13.6245 975.837 15.1669 976.094 18.7659H974.038V19.023Z" fill="black"/>
<path d="M551.929 54.7557C551.929 57.5835 553.471 60.9254 557.07 60.9254C559.898 60.9254 561.44 59.383 561.954 56.8123H564.011C563.24 60.4112 561.183 62.4678 557.07 62.4678C551.929 62.4678 549.872 58.6118 549.872 53.9845C549.872 49.8714 551.929 45.5012 557.07 45.5012C562.211 45.5012 564.268 49.8714 564.011 54.4986H551.929V54.7557ZM562.211 52.9562C562.211 50.1285 560.412 47.3007 557.07 47.3007C553.985 47.3007 552.186 50.1285 551.929 52.9562H562.211Z" fill="black"/>
<path d="M569.923 46.2723H573.265V47.8147H569.923V58.6116C569.923 59.8969 570.18 60.6681 571.466 60.6681C571.98 60.6681 572.494 60.6681 573.008 60.6681V62.2106C572.494 62.2106 571.98 62.2106 571.209 62.2106C568.638 62.2106 567.61 61.4393 567.867 58.6116V47.8147H565.039V46.2723H567.867V41.3879H569.923V46.2723Z" fill="black"/>
<path d="M598.458 62.2105H596.659V59.1257C595.887 61.1822 593.317 62.7247 591.003 62.7247C586.119 62.7247 583.805 58.8686 583.805 54.2414C583.805 49.6141 586.119 45.7581 591.003 45.7581C593.317 45.7581 595.63 47.0434 596.402 49.3571V40.3596H598.458V62.2105ZM591.003 60.9252C595.116 60.9252 596.659 57.3262 596.659 54.2414C596.659 51.1565 595.116 47.5576 591.003 47.5576C587.404 47.5576 585.862 51.1565 585.862 54.2414C585.862 57.3262 587.404 60.9252 591.003 60.9252Z" fill="black"/>
<path d="M603.343 54.7557C603.343 57.5835 604.885 60.9254 608.484 60.9254C611.312 60.9254 612.854 59.383 613.368 56.8123H615.425C614.654 60.4112 612.597 62.4678 608.484 62.4678C603.343 62.4678 601.286 58.6118 601.286 53.9845C601.286 49.8714 603.343 45.5012 608.484 45.5012C613.626 45.5012 615.682 49.8714 615.425 54.4987H603.343V54.7557ZM613.626 52.9562C613.626 50.1285 611.826 47.3007 608.484 47.3007C605.399 47.3007 603.6 50.1285 603.343 52.9562H613.626ZM608.227 43.9588H606.685L610.027 39.5886H612.34L608.227 43.9588Z" fill="black"/>
<path d="M629.563 51.157C629.049 48.8434 627.507 47.3009 624.936 47.3009C621.08 47.3009 619.28 50.6428 619.28 53.9847C619.28 57.3266 621.08 60.6685 624.936 60.6685C627.25 60.6685 629.306 58.8691 629.563 56.0413H631.62C631.106 59.8973 628.535 62.211 624.936 62.211C620.052 62.211 617.481 58.3549 617.481 53.7277C617.481 49.1004 620.052 45.2444 624.936 45.2444C628.278 45.2444 630.849 47.0439 631.363 50.6428H629.563V51.157Z" fill="black"/>
<path d="M634.19 40.103H636.247V62.211H634.19V40.103Z" fill="black"/>
<path d="M639.847 51.1568C640.104 47.3007 642.674 45.7583 646.273 45.7583C649.101 45.7583 652.186 46.5295 652.186 50.8997V59.383C652.186 60.1542 652.443 60.6683 653.214 60.6683C653.471 60.6683 653.728 60.6683 653.728 60.6683V62.2107C653.214 62.2107 652.957 62.2107 652.443 62.2107C650.387 62.2107 650.129 61.1825 650.129 59.383C648.844 61.4395 647.302 62.7249 644.217 62.7249C641.389 62.7249 638.818 61.1825 638.818 58.0976C638.818 53.7275 643.189 53.4704 647.302 52.9562C648.844 52.6992 649.872 52.4421 649.872 50.8997C649.872 48.329 648.073 47.5578 645.759 47.5578C643.446 47.5578 641.646 48.5861 641.389 51.1568H639.847ZM650.129 53.4704C649.872 53.9845 648.844 53.9845 648.33 54.2416C644.988 54.7557 640.875 54.7557 640.875 57.8406C640.875 59.8971 642.674 60.9254 644.474 60.9254C647.559 60.9254 650.129 59.1259 650.129 56.0411V53.4704Z" fill="black"/>
<path d="M656.042 46.2722H657.842V50.1283C658.87 47.5576 660.927 46.0151 663.754 46.2722V48.3288C660.155 48.0717 657.842 50.6424 657.842 53.9843V62.4676H655.785V46.2722H656.042Z" fill="black"/>
<path d="M665.554 51.1568C665.811 47.3007 668.381 45.7583 671.98 45.7583C674.808 45.7583 677.893 46.5295 677.893 50.8997V59.383C677.893 60.1542 678.15 60.6683 678.921 60.6683C679.178 60.6683 679.435 60.6683 679.435 60.6683V62.2107C678.921 62.2107 678.664 62.2107 678.15 62.2107C676.094 62.2107 675.836 61.1825 675.836 59.383C674.551 61.4395 673.009 62.7249 669.924 62.7249C667.096 62.7249 664.525 61.1825 664.525 58.0976C664.525 53.7275 668.896 53.4704 673.009 52.9562C674.551 52.6992 675.579 52.4421 675.579 50.8997C675.579 48.329 673.78 47.5578 671.466 47.5578C669.153 47.5578 667.353 48.5861 667.096 51.1568H665.554ZM675.836 53.4704C675.579 53.9845 674.551 53.9845 674.037 54.2416C670.695 54.7557 666.582 54.7557 666.582 57.8406C666.582 59.8971 668.381 60.9254 670.181 60.9254C673.266 60.9254 675.836 59.1259 675.836 56.0411V53.4704Z" fill="black"/>
<path d="M684.834 46.2723H688.176V47.8147H684.834V58.6116C684.834 59.8969 685.091 60.6681 686.376 60.6681C686.891 60.6681 687.405 60.6681 687.919 60.6681V62.2106C687.405 62.2106 686.891 62.2106 686.119 62.2106C683.549 62.2106 682.52 61.4393 682.777 58.6116V47.8147H679.95V46.2723H682.777V41.3879H684.834V46.2723Z" fill="black"/>
<path d="M691.003 40.1025H693.06V43.1874H691.003V40.1025ZM691.003 46.2722H693.06V62.2105H691.003V46.2722Z" fill="black"/>
<path d="M710.797 54.2416C710.797 58.8688 708.227 62.7249 703.342 62.7249C698.458 62.7249 695.887 58.8688 695.887 54.2416C695.887 49.6143 698.458 45.7583 703.342 45.7583C708.227 45.7583 710.797 49.6143 710.797 54.2416ZM697.687 54.2416C697.687 57.5835 699.486 60.9254 703.342 60.9254C707.198 60.9254 708.998 57.5835 708.998 54.2416C708.998 50.8997 707.198 47.5578 703.342 47.5578C699.486 47.5578 697.687 50.8997 697.687 54.2416Z" fill="black"/>
<path d="M713.625 46.2724H715.682V48.8431C716.453 47.0436 718.51 45.7583 720.823 45.7583C725.194 45.7583 726.736 48.0719 726.736 51.928V62.2107H724.679V52.185C724.679 49.3573 723.908 47.3007 720.566 47.3007C717.481 47.3007 715.682 49.6143 715.682 52.6992V61.9537H713.625V46.2724Z" fill="black"/>
<path d="M739.847 50.8997C739.847 48.586 737.79 47.3007 735.734 47.3007C733.934 47.3007 731.878 48.0719 731.878 50.1285C731.878 51.928 733.934 52.4421 735.22 52.6992L737.79 53.2133C740.104 53.4704 742.417 54.7557 742.417 57.5835C742.417 60.9254 739.076 62.4678 735.991 62.4678C732.392 62.4678 729.821 60.6683 729.564 56.8123H731.621C731.878 59.383 733.677 60.6683 736.248 60.6683C738.047 60.6683 740.618 59.8971 740.618 57.5835C740.618 55.784 738.819 55.0128 737.019 54.7557L734.448 54.2416C731.878 53.4704 730.078 52.6992 730.078 49.8714C730.078 46.5295 733.163 45.5012 735.991 45.5012C739.076 45.5012 741.646 47.0436 741.903 50.6426H739.847V50.8997Z" fill="black"/>
<path d="M754.757 47.8146H751.929V46.2722H754.757V44.7298C754.757 41.902 755.528 40.1025 758.613 40.1025C759.127 40.1025 759.641 40.1025 760.155 40.1025V41.645C759.641 41.645 759.127 41.3879 758.613 41.3879C756.556 41.3879 756.556 42.6732 756.556 44.4727V46.2722H759.641V47.8146H756.556V62.2105H754.5V47.8146H754.757ZM761.698 40.1025H763.754V43.1874H761.698V40.1025ZM761.698 46.2722H763.754V62.2105H761.698V46.2722Z" fill="black"/>
<path d="M767.354 46.2724H769.41V48.8431C770.181 47.0436 772.238 45.7583 774.551 45.7583C778.922 45.7583 780.464 48.0719 780.464 51.928V62.2107H778.407V52.185C778.407 49.3573 777.636 47.3007 774.294 47.3007C771.21 47.3007 769.41 49.6143 769.41 52.6992V61.9537H767.354V46.2724Z" fill="black"/>
<path d="M783.806 51.1568C784.063 47.3007 786.633 45.7583 790.232 45.7583C793.06 45.7583 796.145 46.5295 796.145 50.8997V59.383C796.145 60.1542 796.402 60.6683 797.173 60.6683C797.43 60.6683 797.687 60.6683 797.687 60.6683V62.2107C797.173 62.2107 796.916 62.2107 796.402 62.2107C794.345 62.2107 794.088 61.1825 794.088 59.383C792.803 61.4395 791.261 62.7249 788.176 62.7249C785.348 62.7249 782.777 61.1825 782.777 58.0976C782.777 53.7275 787.148 53.4704 791.261 52.9562C792.803 52.6992 793.831 52.4421 793.831 50.8997C793.831 48.329 792.032 47.5578 789.718 47.5578C787.405 47.5578 785.605 48.5861 785.348 51.1568H783.806ZM794.088 53.4704C793.831 53.9845 792.803 53.9845 792.289 54.2416C788.947 54.7557 784.834 54.7557 784.834 57.8406C784.834 59.8971 786.633 60.9254 788.433 60.9254C791.518 60.9254 794.088 59.1259 794.088 56.0411V53.4704Z" fill="black"/>
<path d="M800 46.2724H802.057V48.8431C802.828 47.0436 804.885 45.7583 807.198 45.7583C811.569 45.7583 813.111 48.0719 813.111 51.928V62.2107H811.054V52.185C811.054 49.3573 810.283 47.3007 806.941 47.3007C803.856 47.3007 802.057 49.6143 802.057 52.6992V61.9537H800V46.2724Z" fill="black"/>
<path d="M827.765 51.1567C827.251 48.8431 825.708 47.3007 823.138 47.3007C819.282 47.3007 817.482 50.6426 817.482 53.9845C817.482 57.3264 819.282 60.6683 823.138 60.6683C825.451 60.6683 827.508 58.8688 827.765 56.0411H829.821C829.307 59.8971 826.737 62.2107 823.138 62.2107C818.253 62.2107 815.683 58.3547 815.683 53.7274C815.683 49.1002 818.253 45.2441 823.138 45.2441C826.48 45.2441 829.05 47.0436 829.564 50.6426H827.765V51.1567Z" fill="black"/>
<path d="M832.649 40.1025H834.706V43.1874H832.649V40.1025ZM832.649 46.2722H834.706V62.2105H832.649V46.2722Z" fill="black"/>
<path d="M839.332 54.7555C839.332 57.5832 840.874 60.9251 844.473 60.9251C847.301 60.9251 848.843 59.3827 849.358 56.812H851.414C850.643 60.411 848.586 62.4676 844.473 62.4676C839.332 62.4676 837.275 58.6115 837.275 53.9843C837.275 49.8712 839.332 45.501 844.473 45.501C849.615 45.501 851.671 49.8712 851.414 54.4984H839.332V54.7555ZM849.615 52.956C849.615 50.1282 847.815 47.3005 844.473 47.3005C841.388 47.3005 839.589 50.1282 839.332 52.956H849.615ZM840.617 39.5884H842.931L846.273 43.9586H844.73L840.617 39.5884Z" fill="black"/>
<path d="M854.242 46.2725H856.042V50.1285C857.07 47.5578 859.127 46.0154 861.954 46.2725V48.329C858.355 48.0719 856.042 50.6426 856.042 53.9845V62.4678H853.985V46.2725H854.242Z" fill="black"/>
<path d="M864.526 54.7557C864.526 57.5835 866.068 60.9254 869.667 60.9254C872.495 60.9254 874.037 59.383 874.552 56.8123H876.608C875.837 60.4112 873.78 62.4678 869.667 62.4678C864.526 62.4678 862.469 58.6118 862.469 53.9845C862.469 49.8714 864.526 45.5012 869.667 45.5012C874.809 45.5012 876.865 49.8714 876.608 54.4986H864.526V54.7557ZM874.809 52.9562C874.809 50.1285 873.009 47.3007 869.667 47.3007C866.582 47.3007 864.783 50.1285 864.526 52.9562H874.809Z" fill="black"/>
<path d="M888.947 50.8997C888.947 48.586 886.891 47.3007 884.834 47.3007C883.035 47.3007 880.978 48.0719 880.978 50.1285C880.978 51.928 883.035 52.4421 884.32 52.6992L886.891 53.2133C889.204 53.4704 891.518 54.7557 891.518 57.5835C891.518 60.9254 888.176 62.4678 885.091 62.4678C881.492 62.4678 878.922 60.6683 878.665 56.8123H880.721C880.978 59.383 882.778 60.6683 885.348 60.6683C887.148 60.6683 889.719 59.8971 889.719 57.5835C889.719 55.784 887.919 55.0128 886.12 54.7557L883.549 54.2416C880.978 53.4704 879.179 52.6992 879.179 49.8714C879.179 46.5295 882.264 45.5012 885.091 45.5012C888.176 45.5012 890.747 47.0436 891.004 50.6426H888.947V50.8997Z" fill="black"/>
<path d="M564.782 93.8301H562.983V90.7453C562.212 92.8019 559.641 94.3443 557.327 94.3443C552.443 94.3443 550.129 90.4882 550.129 85.861C550.129 81.2338 552.443 77.3777 557.327 77.3777C559.641 77.3777 561.955 78.6631 562.726 80.9767V71.9792H564.782V93.8301ZM557.327 92.8019C561.44 92.8019 562.983 89.2029 562.983 86.1181C562.983 83.0332 561.44 79.4343 557.327 79.4343C553.728 79.4343 552.186 83.0332 552.186 86.1181C552.186 89.2029 553.728 92.8019 557.327 92.8019Z" fill="black"/>
<path d="M581.491 93.8299H579.692V91.0022C578.663 93.0587 576.607 94.3441 574.293 94.3441C570.18 94.3441 568.638 92.0304 568.638 88.4315V78.1487H570.694V88.4315C570.694 91.2592 571.98 92.8016 575.064 92.8016C578.406 92.8016 579.949 89.7168 579.949 86.3749V78.1487H582.005V93.8299H581.491Z" fill="black"/>
<path d="M610.026 78.4059C609.255 75.064 606.427 73.0075 603.343 73.0075C597.43 73.0075 595.116 77.8918 595.116 82.7761C595.116 87.6604 597.687 92.5448 603.343 92.5448C607.456 92.5448 610.026 89.4599 610.283 85.6039H612.34C611.826 91.0023 608.227 94.3443 603.086 94.3443C596.145 94.3443 592.803 88.9458 592.803 82.7761C592.803 76.6065 596.145 71.208 603.086 71.208C607.199 71.208 611.312 73.7787 611.826 78.4059H610.026Z" fill="black"/>
<path d="M615.168 82.7761C615.425 78.9201 617.996 77.3777 621.595 77.3777C624.422 77.3777 627.507 78.1489 627.507 82.5191V91.0024C627.507 91.7736 627.764 92.2877 628.536 92.2877C628.793 92.2877 629.05 92.2877 629.05 92.2877V93.8301C628.536 93.8301 628.279 93.8301 627.764 93.8301C625.708 93.8301 625.451 92.8019 625.451 91.0024C624.165 93.0589 622.623 94.3443 619.538 94.3443C616.71 94.3443 614.14 92.8019 614.14 89.717C614.14 85.3468 618.51 85.0898 622.623 84.5756C624.165 84.3186 625.194 84.0615 625.194 82.5191C625.194 79.9484 623.394 79.1772 621.081 79.1772C618.767 79.1772 616.967 80.2054 616.71 82.7761H615.168ZM625.451 85.0898C625.194 85.6039 624.165 85.6039 623.651 85.861C620.309 86.3751 616.196 86.3751 616.196 89.4599C616.196 91.5165 617.996 92.5448 619.795 92.5448C622.88 92.5448 625.451 90.7453 625.451 87.6605V85.0898Z" fill="black"/>
<path d="M631.363 77.8918H633.42V80.7196C634.191 78.9201 636.248 77.6348 638.561 77.6348C642.931 77.6348 644.474 79.9484 644.474 83.8044V94.0872H642.417V84.0615C642.417 81.2337 641.646 79.1772 638.304 79.1772C635.219 79.1772 633.42 81.4908 633.42 84.5756V93.8301H631.363V77.8918Z" fill="black"/>
<path d="M647.816 82.7761C648.073 78.9201 650.644 77.3777 654.243 77.3777C657.07 77.3777 660.155 78.1489 660.155 82.5191V91.0024C660.155 91.7736 660.412 92.2877 661.184 92.2877C661.441 92.2877 661.698 92.2877 661.698 92.2877V93.8301C661.183 93.8301 660.926 93.8301 660.412 93.8301C658.356 93.8301 658.099 92.8019 658.099 91.0024C656.813 93.0589 655.271 94.3443 652.186 94.3443C649.358 94.3443 646.788 92.8019 646.788 89.717C646.788 85.3468 651.158 85.0898 655.271 84.5756C656.813 84.3186 657.842 84.0615 657.842 82.5191C657.842 79.9484 656.042 79.1772 653.728 79.1772C651.415 79.1772 649.615 80.2054 649.358 82.7761H647.816ZM658.099 85.0898C657.842 85.6039 656.813 85.6039 656.299 85.861C652.957 86.3751 648.844 86.3751 648.844 89.4599C648.844 91.5165 650.644 92.5448 652.443 92.5448C655.528 92.5448 658.099 90.7453 658.099 87.6605V85.0898Z" fill="black"/>
<path d="M677.893 93.8301H676.093V90.7453C675.322 92.8019 672.751 94.3443 670.438 94.3443C665.553 94.3443 663.24 90.4882 663.24 85.861C663.24 81.2338 665.553 77.3777 670.438 77.3777C672.751 77.3777 675.065 78.6631 675.836 80.9767V71.9792H677.893V93.8301ZM670.438 92.8019C674.551 92.8019 676.093 89.2029 676.093 86.1181C676.093 83.0332 674.551 79.4343 670.438 79.4343C666.839 79.4343 665.296 83.0332 665.296 86.1181C665.296 89.2029 666.839 92.8019 670.438 92.8019Z" fill="black"/>
<path d="M681.491 82.7764C681.748 78.9203 684.319 77.3779 687.918 77.3779C690.746 77.3779 693.83 78.1491 693.83 82.5193V91.0026C693.83 91.7738 694.088 92.288 694.859 92.288C695.116 92.288 695.373 92.288 695.373 92.288V93.8304C694.859 93.8304 694.602 93.8304 694.088 93.8304C692.031 93.8304 691.774 92.8021 691.774 91.0026C690.489 93.0592 688.946 94.3445 685.861 94.3445C683.034 94.3445 680.463 92.8021 680.463 89.7173C680.463 85.3471 684.833 85.09 688.946 84.5759C690.489 84.3188 691.517 84.0617 691.517 82.5193C691.517 79.9486 689.717 79.1774 687.404 79.1774C685.09 79.1774 683.291 80.2057 683.034 82.7764H681.491ZM691.774 85.09C691.517 85.6041 690.489 85.6042 689.974 85.8612C686.633 86.3754 682.519 86.3754 682.519 89.4602C682.519 91.5167 684.319 92.545 686.118 92.545C689.203 92.545 691.774 90.7455 691.774 87.6607V85.09Z" fill="black"/>
<path d="M158.611 8.48315H172.493V10.2826H160.667V17.9947H171.207V19.7942H160.667V30.3341H158.611V8.48315Z" fill="black"/>
<path d="M174.807 8.48291H176.864V11.5677H174.807V8.48291ZM174.807 14.3955H176.864V30.3338H174.807V14.3955Z" fill="black"/>
<path d="M180.462 14.3955H182.518V17.2233C183.29 15.4238 185.346 14.1384 187.66 14.1384C192.03 14.1384 193.572 16.4521 193.572 20.3081V30.5909H191.516V20.5652C191.516 17.7374 190.745 15.6808 187.403 15.6808C184.318 15.6808 182.518 17.9945 182.518 21.0793V30.3338H180.462V14.3955Z" fill="black"/>
<path d="M196.915 19.2803C197.172 15.4243 199.742 13.8818 203.341 13.8818C206.169 13.8818 209.254 14.653 209.254 19.0232V27.5065C209.254 28.2777 209.511 28.7919 210.282 28.7919C210.539 28.7919 210.796 28.7919 210.796 28.7919V30.3343C210.282 30.3343 210.025 30.3343 209.511 30.3343C207.454 30.3343 207.197 29.306 207.197 27.5065C205.912 29.5631 204.37 30.8484 201.285 30.8484C198.457 30.8484 195.886 29.306 195.886 26.2212C195.886 21.851 200.256 21.5939 204.37 21.0798C205.912 20.8227 206.94 20.5656 206.94 19.0232C206.94 16.4525 205.141 15.6813 202.827 15.6813C200.514 15.6813 198.714 16.7096 198.457 19.2803H196.915ZM207.197 21.5939C206.94 22.1081 205.912 22.1081 205.398 22.3651C202.056 22.8793 197.943 22.8793 197.943 25.9641C197.943 28.0207 199.742 29.0489 201.542 29.0489C204.627 29.0489 207.197 27.2494 207.197 24.1646V21.5939Z" fill="black"/>
<path d="M212.854 14.3955H214.91V17.2233C215.681 15.4238 217.738 14.1384 220.051 14.1384C224.422 14.1384 225.964 16.4521 225.964 20.3081V30.5909H223.908V20.5652C223.908 17.7374 223.136 15.6808 219.794 15.6808C216.71 15.6808 214.91 17.9945 214.91 21.0793V30.3338H212.854V14.3955Z" fill="black"/>
<path d="M240.874 19.5371C240.36 17.2235 238.818 15.6811 236.247 15.6811C232.391 15.6811 230.591 19.023 230.591 22.3649C230.591 25.7068 232.391 29.0487 236.247 29.0487C238.561 29.0487 240.617 27.2492 240.874 24.4214H242.931C242.417 28.2775 239.846 30.5911 236.247 30.5911C231.363 30.8482 228.792 26.9921 228.792 22.3649C228.792 17.7376 231.363 13.8816 236.247 13.8816C239.589 13.8816 242.16 15.6811 242.674 19.28H240.874V19.5371Z" fill="black"/>
<path d="M245.501 8.48291H247.558V11.5677H245.501V8.48291ZM245.501 14.3955H247.558V30.3338H245.501V14.3955Z" fill="black"/>
<path d="M251.157 19.2798C251.414 15.4238 253.985 13.8813 257.584 13.8813C260.412 13.8813 263.497 14.6526 263.497 19.0227V27.506C263.497 28.2772 263.754 28.7914 264.525 28.7914C264.782 28.7914 265.039 28.7914 265.039 28.7914V30.3338C264.525 30.3338 264.268 30.3338 263.754 30.3338C261.697 30.3338 261.44 29.3055 261.44 27.506C260.155 29.5626 258.612 30.8479 255.527 30.8479C252.7 30.8479 250.129 29.3055 250.129 26.2207C250.129 21.8505 254.499 21.5934 258.612 21.0793C260.155 20.8222 261.183 20.5652 261.183 19.0227C261.183 16.452 259.383 15.6808 257.07 15.6808C254.756 15.6808 252.957 16.7091 252.7 19.2798H251.157ZM261.44 21.5934C261.183 22.1076 260.155 22.1076 259.64 22.3646C256.299 22.8788 252.185 22.8788 252.185 25.9636C252.185 28.0202 253.985 29.0484 255.784 29.0484C258.869 29.0484 261.44 27.249 261.44 24.1641V21.5934Z" fill="black"/>
<path d="M267.353 8.48291H269.409V30.5909H267.353V8.48291Z" fill="black"/>
<path d="M279.692 8.48291H297.173V10.2824H289.461V30.5909H287.404V10.2824H279.692V8.48291Z" fill="black"/>
<path d="M295.887 14.3955H297.686V18.2515C298.715 15.6809 300.771 14.1384 303.599 14.3955V16.4521C300 16.195 297.686 18.7657 297.686 22.1076V30.5909H295.63V14.3955H295.887Z" fill="black"/>
<path d="M305.399 19.2798C305.656 15.4238 308.227 13.8813 311.826 13.8813C314.653 13.8813 317.738 14.6526 317.738 19.0227V27.506C317.738 28.2772 317.995 28.7914 318.767 28.7914C319.024 28.7914 319.281 28.7914 319.281 28.7914V30.3338C318.767 30.3338 318.509 30.3338 317.995 30.3338C315.939 30.3338 315.682 29.3055 315.682 27.506C314.396 29.5626 312.854 30.8479 309.769 30.8479C306.941 30.8479 304.371 29.3055 304.371 26.2207C304.371 21.8505 308.741 21.5934 312.854 21.0793C314.396 20.8222 315.425 20.5652 315.425 19.0227C315.425 16.452 313.625 15.6808 311.311 15.6808C308.998 15.6808 307.198 16.7091 306.941 19.2798H305.399ZM315.682 21.5934C315.425 22.1076 314.396 22.1076 313.882 22.3646C310.54 22.8788 306.427 22.8788 306.427 25.9636C306.427 28.0202 308.227 29.0484 310.026 29.0484C313.111 29.0484 315.682 27.249 315.682 24.1641V21.5934Z" fill="black"/>
<path d="M321.593 14.3955H323.65V17.2233C324.421 15.4238 326.478 14.1384 328.791 14.1384C333.161 14.1384 334.704 16.4521 334.704 20.3081V30.5909H332.647V20.5652C332.647 17.7374 331.876 15.6808 328.534 15.6808C325.449 15.6808 323.65 17.9945 323.65 21.0793V30.3338H321.593V14.3955Z" fill="black"/>
<path d="M347.816 19.0227C347.816 16.7091 345.759 15.4238 343.702 15.4238C341.903 15.4238 339.846 16.195 339.846 18.2515C339.846 20.051 341.903 20.5651 343.188 20.8222L345.759 21.3363C348.073 21.5934 350.386 22.8788 350.386 25.7065C350.386 29.0484 347.044 30.5908 343.959 30.5908C340.36 30.5908 337.79 28.7914 337.533 24.9353H339.589C339.846 27.506 341.646 28.7914 344.217 28.7914C346.016 28.7914 348.587 28.0202 348.587 25.7065C348.587 23.907 346.787 23.1358 344.988 22.8788L342.417 22.3646C339.846 21.5934 338.047 20.8222 338.047 17.9944C338.047 14.6525 341.132 13.6243 343.959 13.6243C347.044 13.6243 349.615 15.1667 349.872 18.7657H347.816V19.0227Z" fill="black"/>
<path d="M352.957 19.2798C353.214 15.4238 355.784 13.8813 359.383 13.8813C362.211 13.8813 365.296 14.6526 365.296 19.0227V27.506C365.296 28.2772 365.553 28.7914 366.324 28.7914C366.581 28.7914 366.838 28.7914 366.838 28.7914V30.3338C366.324 30.3338 366.067 30.3338 365.553 30.3338C363.496 30.3338 363.239 29.3055 363.239 27.506C361.954 29.5626 360.412 30.8479 357.327 30.8479C354.499 30.8479 351.928 29.3055 351.928 26.2207C351.928 21.8505 356.298 21.5934 360.412 21.0793C361.954 20.8222 362.982 20.5652 362.982 19.0227C362.982 16.452 361.183 15.6808 358.869 15.6808C356.556 15.6808 354.756 16.7091 354.499 19.2798H352.957ZM363.239 21.5934C362.982 22.1076 361.954 22.1076 361.44 22.3646C358.098 22.8788 353.985 22.8788 353.985 25.9636C353.985 28.0202 355.784 29.0484 357.584 29.0484C360.669 29.0484 363.239 27.249 363.239 24.1641V21.5934Z" fill="black"/>
<path d="M380.205 19.5371C379.691 17.2235 378.149 15.6811 375.578 15.6811C371.722 15.6811 369.923 19.023 369.923 22.3649C369.923 25.7068 371.722 29.0487 375.578 29.0487C377.892 29.0487 379.948 27.2492 380.205 24.4214H382.262C381.748 28.2775 379.177 30.5911 375.578 30.5911C370.694 30.5911 368.123 26.7351 368.123 22.1078C368.123 17.4806 370.694 13.6245 375.578 13.6245C378.92 13.6245 381.491 15.424 382.005 19.023H380.205V19.5371Z" fill="black"/>
<path d="M388.174 14.3956H391.516V15.938H388.174V26.7349C388.174 28.0202 388.431 28.7914 389.717 28.7914C390.231 28.7914 390.745 28.7914 391.259 28.7914V30.3339C390.745 30.3339 390.231 30.3339 389.46 30.3339C386.889 30.3339 385.861 29.5627 386.118 26.7349V16.195H383.29V14.3956H386.118V9.76831H388.174V14.3956Z" fill="black"/>
<path d="M394.088 8.48291H396.144V11.5677H394.088V8.48291ZM394.088 14.3955H396.144V30.3338H394.088V14.3955Z" fill="black"/>
<path d="M414.14 22.3646C414.14 26.9919 411.569 30.8479 406.685 30.8479C401.8 30.8479 399.229 26.9919 399.229 22.3646C399.229 17.7374 401.8 13.8813 406.685 13.8813C411.569 13.8813 414.14 17.7374 414.14 22.3646ZM401.029 22.3646C401.029 25.7065 402.828 29.0484 406.685 29.0484C410.541 29.0484 412.34 25.7065 412.34 22.3646C412.34 19.0227 410.541 15.6808 406.685 15.6808C402.828 15.6808 401.029 19.0227 401.029 22.3646Z" fill="black"/>
<path d="M416.966 14.3955H419.023V17.2233C419.794 15.4238 421.851 14.1384 424.164 14.1384C428.534 14.1384 430.077 16.4521 430.077 20.3081V30.5909H428.02V20.5652C428.02 17.7374 427.249 15.6808 423.907 15.6808C420.822 15.6808 419.023 17.9945 419.023 21.0793V30.3338H416.966V14.3955Z" fill="black"/>
<path d="M443.188 19.0227C443.188 16.7091 441.132 15.4238 439.075 15.4238C437.275 15.4238 435.219 16.195 435.219 18.2515C435.219 20.051 437.275 20.5651 438.561 20.8222L441.132 21.3363C443.445 21.5934 445.759 22.8788 445.759 25.7065C445.759 29.0484 442.417 30.5908 439.332 30.5908C435.733 30.5908 433.162 28.7914 432.905 24.9353H434.962C435.219 27.506 437.018 28.7914 439.589 28.7914C441.389 28.7914 443.959 28.0202 443.959 25.7065C443.959 23.907 442.16 23.1358 440.36 22.8788L437.79 22.3646C435.219 21.5934 433.419 20.8222 433.419 17.9944C433.419 14.6525 436.504 13.6243 439.332 13.6243C442.417 13.6243 444.988 15.1667 445.245 18.7657H443.188V19.0227Z" fill="black"/>
<path d="M456.813 19.2798C457.07 15.4238 459.641 13.8813 463.24 13.8813C466.067 13.8813 469.152 14.6526 469.152 19.0227V27.506C469.152 28.2772 469.409 28.7914 470.181 28.7914C470.438 28.7914 470.695 28.7914 470.695 28.7914V30.3338C470.181 30.3338 469.924 30.3338 469.409 30.3338C467.353 30.3338 467.096 29.3055 467.096 27.506C465.81 29.5626 464.268 30.8479 461.183 30.8479C458.355 30.8479 455.785 29.3055 455.785 26.2207C455.785 21.8505 460.155 21.5934 464.268 21.0793C465.81 20.8222 466.839 20.5652 466.839 19.0227C466.839 16.452 465.039 15.6808 462.726 15.6808C460.412 15.6808 458.612 16.7091 458.355 19.2798H456.813ZM467.096 21.5934C466.839 22.1076 465.81 22.1076 465.296 22.3646C461.954 22.8788 457.841 22.8788 457.841 25.9636C457.841 28.0202 459.641 29.0484 461.44 29.0484C464.525 29.0484 467.096 27.249 467.096 24.1641V21.5934Z" fill="black"/>
<path d="M473.008 14.3955H475.065V17.2233C475.836 15.4238 477.893 14.1384 480.206 14.1384C484.576 14.1384 486.119 16.4521 486.119 20.3081V30.5909H484.062V20.5652C484.062 17.7374 483.291 15.6808 479.949 15.6808C476.864 15.6808 475.065 17.9945 475.065 21.0793V30.3338H473.008V14.3955Z" fill="black"/>
<path d="M503.599 30.3341H501.799V27.2492C501.028 29.3058 498.457 30.8482 496.144 30.8482C491.259 30.8482 488.946 26.9921 488.946 22.3649C488.946 17.7377 491.259 13.8816 496.144 13.8816C498.457 13.8816 500.771 15.167 501.542 17.4806V8.48315H503.599V30.3341ZM496.144 29.3058C500.257 29.3058 501.799 25.7068 501.799 22.622C501.799 19.5371 500.257 15.9382 496.144 15.9382C492.545 15.9382 491.002 19.5371 491.002 22.622C491.002 25.7068 492.288 29.3058 496.144 29.3058Z" fill="black"/>
<path d="M158.611 40.1028H168.637C172.236 40.1028 175.32 41.9023 175.32 45.7583C175.32 48.5861 173.778 50.8997 170.95 51.4138C173.778 51.928 174.806 53.9845 174.806 56.5552C174.806 58.0976 174.806 61.1825 175.835 62.2108H173.521C173.007 61.4395 173.007 59.6401 173.007 58.8688C172.75 55.784 172.493 52.4421 168.637 52.4421H160.667V62.2108H158.611V40.1028ZM160.667 50.6426H168.379C170.95 50.6426 173.007 49.1002 173.007 46.2724C173.007 43.7018 171.464 41.9023 168.379 41.9023H160.667V50.6426Z" fill="black"/>
<path d="M179.948 54.7552C179.948 57.583 181.49 60.9249 185.089 60.9249C187.917 60.9249 189.459 59.3825 189.973 56.8118H192.03C191.259 60.4108 189.202 62.4673 185.089 62.4673C179.948 62.4673 177.891 58.6113 177.891 53.984C177.891 49.8709 179.948 45.5007 185.089 45.5007C190.23 45.5007 192.287 49.8709 192.03 54.4982H179.948V54.7552ZM190.23 52.9557C190.23 50.128 188.431 47.3002 185.089 47.3002C182.004 47.3002 180.205 50.128 179.948 52.9557H190.23Z" fill="black"/>
<path d="M194.859 46.2722H196.658V49.357C197.43 47.3005 199.743 45.7581 202.314 45.7581C207.198 45.7581 209.512 49.6141 209.512 54.2413C209.512 58.8686 207.198 62.7246 202.314 62.7246C200 62.7246 197.687 61.4393 196.915 59.1257V68.1231H194.859V46.2722ZM202.314 47.3005C197.944 47.3005 196.658 50.3853 196.658 53.9843C196.658 57.3262 198.201 60.6681 202.314 60.6681C205.913 60.6681 207.455 57.0691 207.455 53.9843C207.455 50.8994 205.913 47.3005 202.314 47.3005Z" fill="black"/>
<path d="M226.735 54.2413C226.735 58.8686 224.165 62.7246 219.28 62.7246C214.396 62.7246 211.825 58.8686 211.825 54.2413C211.825 49.6141 214.396 45.7581 219.28 45.7581C224.165 45.7581 226.735 49.6141 226.735 54.2413ZM213.625 54.2413C213.625 57.5833 215.424 60.9252 219.28 60.9252C223.136 60.9252 224.936 57.5833 224.936 54.2413C224.936 50.8994 223.136 47.5575 219.28 47.5575C215.424 47.5575 213.625 50.8994 213.625 54.2413Z" fill="black"/>
<path d="M229.562 46.2722H231.362V50.1283C232.39 47.5576 234.447 46.0151 237.274 46.2722V48.3288C233.675 48.0717 231.362 50.6424 231.362 53.9843V62.4676H229.305V46.2722H229.562Z" fill="black"/>
<path d="M242.417 46.272H245.758V47.8144H242.417V58.6113C242.417 59.8967 242.674 60.6679 243.959 60.6679C244.473 60.6679 244.987 60.6679 245.501 60.6679V62.2103C244.987 62.2103 244.473 62.2103 243.702 62.2103C241.131 62.2103 240.103 61.4391 240.36 58.6113V47.8144H237.532V46.272H240.36V41.3877H242.417V46.272Z" fill="black"/>
<path d="M258.098 50.8994C258.098 48.5858 256.041 47.3005 253.985 47.3005C252.185 47.3005 250.129 48.0717 250.129 50.1282C250.129 51.9277 252.185 52.4418 253.47 52.6989L256.041 53.2131C258.355 53.4701 260.668 54.7555 260.668 57.5832C260.668 60.9251 257.327 62.4676 254.242 62.4676C250.643 62.4676 248.072 60.6681 247.815 56.812H249.871C250.129 59.3827 251.928 60.6681 254.499 60.6681C256.298 60.6681 258.869 59.8969 258.869 57.5832C258.869 55.7837 257.069 55.0125 255.27 54.7555L252.699 54.2413C250.129 53.4701 248.329 52.6989 248.329 49.8712C248.329 46.5293 251.414 45.501 254.242 45.501C257.327 45.501 259.897 47.0434 260.154 50.6424H258.098V50.8994Z" fill="black"/>
<path d="M278.664 40.1025H280.977L289.718 62.2105H287.404L284.833 55.2696H274.808L272.237 62.2105H269.923L278.664 40.1025ZM275.322 53.4701H284.062L279.692 42.1591L275.322 53.4701Z" fill="black"/>
<path d="M291.26 46.2722H293.316V48.8429C294.088 47.0434 296.144 45.7581 298.458 45.7581C302.828 45.7581 304.37 48.0717 304.37 51.9277V62.2105H302.314V52.1848C302.314 49.357 301.543 47.3005 298.201 47.3005C295.116 47.3005 293.316 49.6141 293.316 52.6989V61.9534H291.26V46.2722Z" fill="black"/>
<path d="M307.712 51.1565C307.969 47.3005 310.54 45.7581 314.139 45.7581C316.967 45.7581 320.052 46.5293 320.052 50.8994V59.3827C320.052 60.1539 320.309 60.6681 321.08 60.6681C321.337 60.6681 321.594 60.6681 321.594 60.6681V62.2105C321.08 62.2105 320.823 62.2105 320.309 62.2105C318.252 62.2105 317.995 61.1822 317.995 59.3827C316.71 61.4393 315.167 62.7246 312.083 62.7246C309.255 62.7246 306.684 61.1822 306.684 58.0974C306.684 53.7272 311.054 53.4701 315.167 52.956C316.71 52.6989 317.738 52.4419 317.738 50.8994C317.738 48.3288 315.939 47.5575 313.625 47.5575C311.311 47.5575 309.512 48.5858 309.255 51.1565H307.712ZM317.995 53.4701C317.738 53.9843 316.71 53.9843 316.196 54.2413C312.854 54.7555 308.741 54.7555 308.741 57.8403C308.741 59.8969 310.54 60.9252 312.34 60.9252C315.424 60.9252 317.995 59.1257 317.995 56.0408V53.4701Z" fill="black"/>
<path d="M323.908 40.1025H325.964V62.2105H323.908V40.1025Z" fill="black"/>
<path d="M327.764 46.2722H329.82L334.962 59.8969L339.846 46.2722H341.903L334.962 64.5241C333.933 67.0948 333.162 67.866 330.849 67.866C330.077 67.866 329.563 67.866 329.306 67.609V66.0666C329.82 66.0666 330.077 66.3236 330.591 66.3236C332.391 66.3236 332.648 65.2954 333.419 63.7529L334.19 61.9535L327.764 46.2722Z" fill="black"/>
<path d="M353.471 50.8994C353.471 48.5858 351.414 47.3005 349.358 47.3005C347.558 47.3005 345.502 48.0717 345.502 50.1282C345.502 51.9277 347.558 52.4418 348.844 52.6989L351.414 53.2131C353.728 53.4701 356.041 54.7555 356.041 57.5832C356.041 60.9251 352.7 62.4676 349.615 62.4676C346.016 62.4676 343.445 60.6681 343.188 56.812H345.245C345.502 59.3827 347.301 60.6681 349.872 60.6681C351.671 60.6681 354.242 59.8969 354.242 57.5832C354.242 55.7837 352.442 55.0125 350.643 54.7555L348.072 54.2413C345.502 53.4701 343.702 52.6989 343.702 49.8712C343.702 46.5293 346.787 45.501 349.615 45.501C352.7 45.501 355.27 47.0434 355.527 50.6424H353.471V50.8994Z" fill="black"/>
<path d="M358.612 40.1025H360.669V43.1874H358.612V40.1025ZM358.612 46.2722H360.669V62.2105H358.612V46.2722Z" fill="black"/>
<path d="M374.036 50.8994C374.036 48.5858 371.98 47.3005 369.923 47.3005C368.124 47.3005 366.067 48.0717 366.067 50.1282C366.067 51.9277 368.124 52.4418 369.409 52.6989L371.98 53.2131C374.293 53.4701 376.607 54.7555 376.607 57.5832C376.607 60.9251 373.265 62.4676 370.18 62.4676C366.581 62.4676 364.01 60.6681 363.753 56.812H365.81C366.067 59.3827 367.867 60.6681 370.437 60.6681C372.237 60.6681 374.807 59.8969 374.807 57.5832C374.807 55.7837 373.008 55.0125 371.208 54.7555L368.638 54.2413C366.067 53.4701 364.268 52.6989 364.268 49.8712C364.268 46.5293 367.352 45.501 370.18 45.501C373.265 45.501 375.836 47.0434 376.093 50.6424H374.036V50.8994Z" fill="black"/>
<path d="M404.37 46.7866C403.598 43.4447 400.771 41.3881 397.686 41.3881C391.773 41.3881 389.46 46.2724 389.46 51.1567C389.46 56.0411 392.03 60.9254 397.686 60.9254C401.799 60.9254 404.37 57.8406 404.627 53.9845H406.683C406.169 59.383 402.57 62.7249 397.429 62.7249C390.488 62.7249 387.146 57.3264 387.146 51.1567C387.146 44.9871 390.488 39.5886 397.429 39.5886C401.542 39.5886 405.655 42.1593 406.169 46.7866H404.37Z" fill="black"/>
<path d="M410.797 54.7555C410.797 57.5832 412.34 60.9251 415.939 60.9251C418.766 60.9251 420.309 59.3827 420.823 56.812H422.88C422.108 60.411 420.052 62.4676 415.939 62.4676C410.797 62.4676 408.741 58.6115 408.741 53.9843C408.741 49.8712 410.797 45.501 415.939 45.501C421.08 45.501 423.137 49.8712 422.88 54.4984H410.797V54.7555ZM421.08 52.956C421.08 50.1282 419.281 47.3005 415.939 47.3005C412.854 47.3005 411.054 50.1282 410.797 52.956H421.08Z" fill="black"/>
<path d="M425.45 46.2722H427.507V48.8429C428.278 47.0434 430.335 45.7581 432.648 45.7581C437.018 45.7581 438.561 48.0717 438.561 51.9277V62.2105H436.504V52.1848C436.504 49.357 435.733 47.3005 432.391 47.3005C429.306 47.3005 427.507 49.6141 427.507 52.6989V61.9534H425.45V46.2722Z" fill="black"/>
<path d="M445.245 46.272H448.587V47.8144H445.245V58.6113C445.245 59.8967 445.502 60.6679 446.787 60.6679C447.301 60.6679 447.815 60.6679 448.329 60.6679V62.2103C447.815 62.2103 447.301 62.2103 446.53 62.2103C443.959 62.2103 442.931 61.4391 443.188 58.6113V47.8144H440.36V46.272H443.188V41.3877H445.245V46.272Z" fill="black"/>
<path d="M451.157 46.2722H452.957V50.1283C453.985 47.5576 456.042 46.0151 458.87 46.2722V48.3288C455.271 48.0717 452.957 50.6424 452.957 53.9843V62.4676H450.9V46.2722H451.157Z" fill="black"/>
<path d="M461.439 54.7552C461.439 57.583 462.982 60.9249 466.581 60.9249C469.409 60.9249 470.951 59.3825 471.465 56.8118H473.522C472.75 60.4108 470.694 62.4673 466.581 62.4673C461.439 62.4673 459.383 58.6113 459.383 53.984C459.383 49.8709 461.439 45.5007 466.581 45.5007C471.722 45.5007 473.779 49.8709 473.522 54.4982H461.439V54.7552ZM471.722 52.9557C471.722 50.128 469.923 47.3002 466.581 47.3002C463.496 47.3002 461.696 50.128 461.439 52.9557H471.722Z" fill="black"/>
<path d="M172.494 85.8607C172.494 90.488 169.923 94.344 165.039 94.344C160.154 94.344 157.583 90.488 157.583 85.8607C157.583 81.2335 160.154 77.3774 165.039 77.3774C169.666 77.3774 172.494 81.2335 172.494 85.8607ZM159.383 85.8607C159.383 89.2026 161.182 92.5445 165.039 92.5445C168.895 92.5445 170.694 89.2026 170.694 85.8607C170.694 82.5188 168.895 79.1769 165.039 79.1769C161.182 79.1769 159.383 82.5188 159.383 85.8607Z" fill="black"/>
<path d="M181.491 79.6913H178.406V94.0872H176.35V79.6913H173.522V78.1489H176.35V76.6065C176.35 73.7787 177.121 71.9792 180.206 71.9792C180.72 71.9792 181.234 71.9792 181.748 71.9792V73.5217C181.234 73.5217 180.72 73.2646 180.206 73.2646C178.149 73.2646 178.149 74.5499 178.149 76.3494V77.6348H181.234V79.6913H181.491Z" fill="black"/>
<path d="M208.226 78.4059C207.455 75.064 204.627 73.0075 201.543 73.0075C195.63 73.0075 193.316 77.8918 193.316 82.7761C193.316 87.6604 195.887 92.5448 201.543 92.5448C205.656 92.5448 208.226 89.4599 208.483 85.6039H210.797C210.283 91.0023 206.684 94.3443 201.543 94.3443C194.602 94.3443 191.26 88.9458 191.26 82.7761C191.26 76.8635 194.602 71.208 201.543 71.208C205.656 71.208 209.769 73.7787 210.283 78.4059H208.226Z" fill="black"/>
<path d="M213.367 82.7764C213.624 78.9203 216.195 77.3779 219.794 77.3779C222.622 77.3779 225.707 78.1491 225.707 82.5193V91.0026C225.707 91.7738 225.964 92.288 226.735 92.288C226.992 92.288 227.249 92.288 227.249 92.288V93.8304C226.735 93.8304 226.478 93.8304 225.964 93.8304C223.907 93.8304 223.65 92.8021 223.65 91.0026C222.365 93.0592 220.822 94.3445 217.737 94.3445C214.91 94.3445 212.339 92.8021 212.339 89.7173C212.339 85.3471 216.709 85.09 220.822 84.5759C222.365 84.3188 223.393 84.0617 223.393 82.5193C223.393 79.9486 221.593 79.1774 219.28 79.1774C216.966 79.1774 215.167 80.2057 214.91 82.7764H213.367ZM223.65 85.09C223.393 85.6041 222.365 85.6042 221.85 85.8612C218.509 86.3754 214.395 86.3754 214.395 89.4602C214.395 91.5167 216.195 92.545 217.994 92.545C221.079 92.545 223.65 90.7455 223.65 87.6607V85.09Z" fill="black"/>
<path d="M229.563 77.8916H231.62V80.7194C232.391 78.9199 234.447 77.6345 236.761 77.6345C241.131 77.6345 242.674 79.9481 242.674 83.8042V94.087H240.617V84.0613C240.617 81.2335 239.846 79.1769 236.504 79.1769C233.419 79.1769 231.62 81.4906 231.62 84.5754V93.8299H229.563V77.8916Z" fill="black"/>
<path d="M246.016 82.7759C246.273 78.9199 248.843 77.3774 252.442 77.3774C255.27 77.3774 258.355 78.1486 258.355 82.5188V91.0021C258.355 91.7733 258.612 92.2875 259.383 92.2875C259.64 92.2875 259.897 92.2875 259.897 92.2875V93.8299C259.383 93.8299 259.126 93.8299 258.612 93.8299C256.555 93.8299 256.298 92.8016 256.298 91.0021C255.013 93.0587 253.471 94.344 250.386 94.344C247.558 94.344 244.987 92.8016 244.987 89.7168C244.987 85.3466 249.357 85.0895 253.471 84.5754C255.013 84.3183 256.041 84.0612 256.041 82.5188C256.041 79.9481 254.242 79.1769 251.928 79.1769C249.615 79.1769 247.815 80.2052 247.558 82.7759H246.016ZM256.298 85.0895C256.041 85.6037 255.013 85.6037 254.499 85.8607C251.157 86.3749 247.044 86.3749 247.044 89.4597C247.044 91.5163 248.843 92.5445 250.643 92.5445C253.728 92.5445 256.298 90.745 256.298 87.6602V85.0895Z" fill="black"/>
<path d="M276.092 93.8299H274.292V90.7451C273.521 92.8016 270.951 94.344 268.637 94.344C263.753 94.344 261.439 90.488 261.439 85.8608C261.439 81.2335 263.753 77.3775 268.637 77.3775C270.951 77.3775 273.264 78.6628 274.035 80.9764V71.979H276.092V93.8299ZM268.637 92.8016C272.75 92.8016 274.292 89.2027 274.292 86.1178C274.292 83.033 272.75 79.434 268.637 79.434C265.038 79.434 263.496 83.033 263.496 86.1178C263.496 89.2027 265.038 92.8016 268.637 92.8016Z" fill="black"/>
<path d="M279.692 82.7759C279.949 78.9199 282.52 77.3774 286.119 77.3774C288.946 77.3774 292.031 78.1486 292.031 82.5188V91.0021C292.031 91.7733 292.288 92.2875 293.059 92.2875C293.317 92.2875 293.574 92.2875 293.574 92.2875V93.8299C293.059 93.8299 292.802 93.8299 292.288 93.8299C290.232 93.8299 289.975 92.8016 289.975 91.0021C288.689 93.0587 287.147 94.344 284.062 94.344C281.234 94.344 278.664 92.8016 278.664 89.7168C278.664 85.3466 283.034 85.0895 287.147 84.5754C288.689 84.3183 289.718 84.0612 289.718 82.5188C289.718 79.9481 287.918 79.1769 285.604 79.1769C283.291 79.1769 281.491 80.2052 281.234 82.7759H279.692ZM289.975 85.0895C289.718 85.6037 288.689 85.6037 288.175 85.8607C284.833 86.3749 280.72 86.3749 280.72 89.4597C280.72 91.5163 282.52 92.5445 284.319 92.5445C287.404 92.5445 289.975 90.745 289.975 87.6602V85.0895Z" fill="black"/>
</svg>
