<svg width="993" height="100" viewBox="0 0 993 100" fill="none" xmlns="http://www.w3.org/2000/svg">
<path fill-rule="evenodd" clip-rule="evenodd" d="M56.8119 12.3391C56.8119 12.3391 53.47 18.7658 52.9559 19.5371C52.4417 20.3083 52.1847 20.3083 51.4135 20.0512C50.3852 19.5371 47.8145 17.9946 47.8145 17.9946C47.8145 17.9946 50.3852 28.7916 50.3852 29.5628C50.6422 30.334 49.614 31.1052 48.8428 30.334C48.5857 30.0769 43.7014 24.9355 43.7014 24.9355C43.7014 24.9355 42.6731 27.5062 42.416 27.7633C42.1589 28.2774 41.9019 28.5345 41.3877 28.5345C40.6165 28.2774 36.2463 27.5062 36.2463 27.5062C36.2463 27.5062 37.7887 32.9047 38.0458 33.4188C38.3029 33.9329 38.56 34.4471 37.5317 34.9612L35.9893 35.4754C35.9893 35.4754 45.2438 43.4445 45.5008 43.7016C46.015 44.2157 46.2721 44.4728 46.015 45.7581C45.5008 47.0435 45.2438 48.843 45.2438 48.843C45.2438 48.843 53.7271 47.0435 54.7554 46.7864C55.5266 46.7864 56.2978 47.0435 56.2978 47.8147C56.2978 48.5859 55.7836 57.8404 55.7836 57.8404H58.3543C58.3543 57.8404 57.8402 48.5859 57.8402 47.8147C57.8402 47.0435 58.6114 46.5293 59.3826 46.7864C60.1538 47.0435 68.8942 48.843 68.8942 48.843C68.8942 48.843 68.3801 47.0435 68.123 45.7581C67.6089 44.4728 68.123 44.2157 68.6371 43.7016C68.8942 43.4445 78.1487 35.4754 78.1487 35.4754L76.6063 34.7041C75.8351 34.19 75.8351 33.6759 76.0922 33.1617C76.3492 32.3905 77.8917 27.2491 77.8917 27.2491C77.8917 27.2491 73.5215 28.0203 72.7503 28.2774C71.9791 28.5345 71.9791 28.0203 71.722 27.5062C71.4649 26.9921 70.4366 24.6784 70.4366 24.6784C70.4366 24.6784 65.8094 30.0769 65.5523 30.334C64.7811 31.1052 63.7528 30.334 64.0099 29.5628C64.0099 28.7916 66.5806 17.9946 66.5806 17.9946C66.5806 17.9946 64.0099 19.5371 62.9816 20.0512C62.2104 20.5653 61.9533 20.5653 61.4392 19.5371C60.1538 18.7658 56.8119 12.3391 56.8119 12.3391Z" fill="#ED1C24"/>
<path fill-rule="evenodd" clip-rule="evenodd" d="M29.5627 62.2106V8.22607H2.57031V62.2106H29.5627Z" fill="#ED1C24"/>
<path fill-rule="evenodd" clip-rule="evenodd" d="M110.797 62.2106V8.22607H83.8047V62.2106H110.797Z" fill="#ED1C24"/>
<path d="M174.55 14.9099C173.779 11.568 170.951 9.5114 167.867 9.5114C161.954 9.5114 159.64 14.3957 159.64 19.28C159.64 24.1644 162.211 29.0487 167.867 29.0487C171.98 29.0487 174.55 25.9638 174.807 22.1078H176.864C176.35 27.5063 172.751 30.8482 167.609 30.8482C160.669 30.8482 157.327 25.4497 157.327 19.28C157.327 13.1104 160.669 7.71191 167.609 7.71191C171.723 7.71191 175.836 10.2826 176.35 14.9099H174.55Z" fill="black"/>
<path d="M180.977 22.879C180.977 25.7068 182.519 29.0487 186.118 29.0487C188.946 29.0487 190.489 27.5063 191.003 24.9356H193.059C192.288 28.7916 190.231 30.8482 186.118 30.8482C180.977 30.8482 178.92 26.9921 178.92 22.3649C178.92 18.2518 180.977 13.8816 186.118 13.8816C191.26 13.8816 193.316 18.2518 193.059 22.879H180.977ZM191.26 21.3366C191.26 18.5088 189.46 15.6811 186.118 15.6811C183.034 15.6811 181.234 18.5088 180.977 21.3366H191.26Z" fill="black"/>
<path d="M195.887 14.3957H197.944V17.2235C198.715 15.424 200.772 14.1387 203.085 14.1387C207.455 14.1387 208.998 16.4523 208.998 20.3083V30.5911H206.941V20.5654C206.941 17.7376 206.17 15.6811 202.828 15.6811C199.743 15.6811 197.944 17.9947 197.944 21.0795V30.334H195.887V14.3957Z" fill="black"/>
<path d="M215.425 14.3958H218.767V15.9382H215.425V26.7351C215.425 28.0205 215.682 28.7917 216.967 28.7917C217.481 28.7917 217.995 28.7917 218.509 28.7917V30.3341C217.995 30.3341 217.481 30.3341 216.71 30.3341C214.139 30.3341 213.111 29.5629 213.368 26.7351V16.1953H210.797V14.3958H213.625V9.76855H215.682V14.3958H215.425Z" fill="black"/>
<path d="M221.594 14.3958H223.393V18.2518C224.422 15.6811 226.478 14.1387 229.306 14.3958V16.4523C225.707 16.1952 223.393 18.7659 223.393 22.1078V30.5911H221.337V14.3958H221.594Z" fill="black"/>
<path d="M231.878 22.8793C231.878 25.707 233.42 29.0489 237.019 29.0489C239.847 29.0489 241.389 27.5065 241.904 24.9358H243.96C243.189 28.5348 241.132 30.5913 237.019 30.5913C231.878 30.5913 229.821 26.7353 229.821 22.108C229.821 17.9949 231.878 13.6248 237.019 13.6248C242.161 13.6248 244.217 17.9949 243.96 22.6222H231.878V22.8793ZM242.161 21.3368C242.161 18.5091 240.361 15.6813 237.019 15.6813C233.934 15.6813 232.135 18.5091 231.878 21.3368H242.161Z" fill="black"/>
<path d="M269.409 30.3341H267.61V27.2492C266.839 29.3058 264.268 30.8482 261.954 30.8482C257.07 30.8482 254.756 26.9921 254.756 22.3649C254.756 17.7377 257.07 13.8816 261.954 13.8816C264.268 13.8816 266.582 15.167 267.353 17.4806V8.48315H269.409V30.3341ZM261.697 29.3058C265.81 29.3058 267.353 25.7068 267.353 22.622C267.353 19.5371 265.81 15.9382 261.697 15.9382C258.098 15.9382 256.556 19.5371 256.556 22.622C256.556 25.7068 258.098 29.3058 261.697 29.3058Z" fill="black"/>
<path d="M274.551 8.48315H276.608V15.9382H274.551V8.48315Z" fill="black"/>
<path d="M281.492 19.28C281.749 15.424 284.319 13.8816 287.918 13.8816C290.746 13.8816 293.831 14.6528 293.831 19.023V27.5063C293.831 28.2775 294.088 28.7916 294.859 28.7916C295.116 28.7916 295.373 28.7916 295.373 28.7916V30.334C294.859 30.334 294.602 30.334 294.088 30.334C292.032 30.334 291.774 29.3058 291.774 27.5063C290.489 29.5628 288.947 30.8482 285.862 30.8482C283.034 30.8482 280.463 29.3058 280.463 26.2209C280.463 21.8507 284.834 21.5937 288.947 21.0795C290.489 20.8225 291.517 20.5654 291.517 19.023C291.517 16.4523 289.718 15.6811 287.404 15.6811C285.091 15.6811 283.291 16.7094 283.034 19.28H281.492ZM291.774 21.5937C291.517 22.1078 290.489 22.1078 289.975 22.3649C286.633 22.879 282.52 22.879 282.52 25.9639C282.52 28.0204 284.319 29.0487 286.119 29.0487C289.204 29.0487 291.774 27.2492 291.774 24.1644V21.5937Z" fill="black"/>
<path d="M297.687 14.3957H299.743V17.2235C300.515 15.424 302.571 14.1387 304.885 14.1387C309.255 14.1387 310.797 16.4523 310.797 20.3083V30.5911H308.484V20.5654C308.484 17.7376 307.712 15.6811 304.371 15.6811C301.286 15.6811 299.486 17.9947 299.486 21.0795V30.334H297.43V14.3957H297.687Z" fill="black"/>
<path d="M313.882 19.28C314.139 15.424 316.71 13.8816 320.309 13.8816C323.137 13.8816 326.222 14.6528 326.222 19.023V27.5063C326.222 28.2775 326.479 28.7916 327.25 28.7916C327.507 28.7916 327.764 28.7916 327.764 28.7916V30.334C327.25 30.334 326.993 30.334 326.479 30.334C324.422 30.334 324.165 29.3058 324.165 27.5063C322.88 29.5628 321.337 30.8482 318.252 30.8482C315.425 30.8482 312.854 29.3058 312.854 26.2209C312.854 21.8507 317.224 21.5937 321.337 21.0795C322.88 20.8225 323.908 20.5654 323.908 19.023C323.908 16.4523 322.109 15.6811 319.795 15.6811C317.481 15.6811 315.682 16.7094 315.425 19.28H313.882ZM324.422 21.5937C324.165 22.1078 323.137 22.1078 322.623 22.3649C319.281 22.879 315.168 22.879 315.168 25.9639C315.168 28.0204 316.967 29.0487 318.767 29.0487C321.851 29.0487 324.422 27.2492 324.422 24.1644V21.5937Z" fill="black"/>
<path d="M330.335 8.48315H332.392V30.5911H330.335V8.48315Z" fill="black"/>
<path d="M334.191 14.3958H336.247L341.389 28.0204L346.273 14.3958H348.33L341.389 32.6477C340.361 35.2184 339.589 35.9896 337.276 35.9896C336.505 35.9896 335.99 35.9896 335.733 35.7325V34.1901C336.247 34.1901 336.505 34.4472 337.019 34.4472C338.818 34.4472 339.075 33.4189 339.846 31.8765L340.618 30.077L334.191 14.3958Z" fill="black"/>
<path d="M359.642 19.0232C359.642 16.7096 357.585 15.4242 355.529 15.4242C353.729 15.4242 351.673 16.1954 351.673 18.252C351.673 20.0515 353.729 20.5656 355.014 20.8227L357.585 21.3368C359.899 21.5939 362.212 22.8793 362.212 25.707C362.212 29.0489 358.87 30.5913 355.786 30.5913C352.187 30.5913 349.616 28.7918 349.359 24.9358H351.415C351.673 27.5065 353.472 28.7918 356.043 28.7918C357.842 28.7918 360.413 28.0206 360.413 25.707C360.413 23.9075 358.613 23.1363 356.814 22.8793L354.243 22.3651C351.673 21.5939 349.873 20.8227 349.873 17.9949C349.873 14.653 352.958 13.6248 355.786 13.6248C358.87 13.6248 361.441 15.1672 361.698 18.7661H359.642V19.0232Z" fill="black"/>
<path d="M366.067 22.879C366.067 25.7068 367.61 29.0487 371.209 29.0487C374.036 29.0487 375.579 27.5063 376.093 24.9356H378.15C377.378 28.5345 375.322 30.5911 371.209 30.5911C366.067 30.5911 364.011 26.7351 364.011 22.1078C364.011 17.9947 366.067 13.6245 371.209 13.6245C376.35 13.6245 378.407 17.9947 378.15 22.6219H366.067V22.879ZM376.35 21.3366C376.35 18.5088 374.551 15.6811 371.209 15.6811C368.124 15.6811 366.324 18.5088 366.067 21.3366H376.35Z" fill="black"/>
<path d="M403.6 30.3341H401.801V27.2492C401.03 29.3058 398.459 30.8482 396.145 30.8482C391.261 30.8482 388.947 26.9921 388.947 22.3649C388.947 17.7377 391.261 13.8816 396.145 13.8816C398.459 13.8816 400.772 15.167 401.544 17.4806V8.48315H403.6V30.3341ZM396.145 29.3058C400.258 29.3058 401.801 25.7068 401.801 22.622C401.801 19.5371 400.258 15.9382 396.145 15.9382C392.546 15.9382 391.004 19.5371 391.004 22.622C391.004 25.7068 392.289 29.3058 396.145 29.3058Z" fill="black"/>
<path d="M408.484 22.879C408.484 25.7068 410.027 29.0487 413.626 29.0487C416.453 29.0487 417.996 27.5063 418.51 24.9356H420.567C419.795 28.5345 417.739 30.5911 413.626 30.5911C408.484 30.5911 406.428 26.7351 406.428 22.1078C406.428 17.9947 408.484 13.6245 413.626 13.6245C418.767 13.6245 420.824 17.9947 420.567 22.6219H408.484V22.879ZM418.767 21.3366C418.767 18.5088 416.968 15.6811 413.626 15.6811C410.541 15.6811 408.741 18.5088 408.484 21.3366H418.767Z" fill="black"/>
<path d="M432.907 19.0232C432.907 16.7096 430.85 15.4242 428.794 15.4242C426.994 15.4242 424.938 16.1954 424.938 18.252C424.938 20.0515 426.994 20.5656 428.28 20.8227L430.85 21.3368C433.164 21.5939 435.478 22.8793 435.478 25.707C435.478 29.0489 432.136 30.5913 429.051 30.5913C425.452 30.5913 422.881 28.7918 422.624 24.9358H424.681C424.938 27.5065 426.737 28.7918 429.308 28.7918C431.107 28.7918 433.678 28.0206 433.678 25.707C433.678 23.9075 431.879 23.1363 430.079 22.8793L427.508 22.3651C424.938 21.5939 423.138 20.8227 423.138 17.9949C423.138 14.653 426.223 13.6248 429.051 13.6248C432.136 13.6248 434.706 15.1672 434.963 18.7661H432.907V19.0232Z" fill="black"/>
<path d="M460.926 22.3649C460.926 26.9921 458.355 30.8482 453.471 30.8482C448.587 30.8482 446.016 26.9921 446.016 22.3649C446.016 17.7376 448.587 13.8816 453.471 13.8816C458.355 13.8816 460.926 17.7376 460.926 22.3649ZM447.816 22.3649C447.816 25.7068 449.615 29.0487 453.471 29.0487C457.327 29.0487 459.127 25.7068 459.127 22.3649C459.127 19.023 457.327 15.6811 453.471 15.6811C449.615 15.6811 447.816 19.023 447.816 22.3649Z" fill="black"/>
<path d="M463.755 14.3955H465.554V17.4803C466.326 15.4238 468.639 13.8813 471.21 13.8813C476.094 13.8813 478.408 17.7374 478.408 22.3646C478.408 26.9919 476.094 30.8479 471.21 30.8479C468.896 30.8479 466.583 29.5626 465.811 27.249V36.2464H463.755V14.3955ZM471.467 15.6808C467.097 15.6808 465.811 18.7657 465.811 22.3646C465.811 25.7065 467.354 29.0484 471.467 29.0484C475.066 29.0484 476.608 25.4495 476.608 22.3646C476.608 19.2798 475.066 15.6808 471.467 15.6808Z" fill="black"/>
<path d="M482.777 22.879C482.777 25.7068 484.32 29.0487 487.919 29.0487C490.746 29.0487 492.289 27.5063 492.803 24.9356H494.86C494.088 28.5345 492.032 30.5911 487.919 30.5911C482.777 30.5911 480.721 26.7351 480.721 22.1078C480.721 17.9947 482.777 13.6245 487.919 13.6245C493.06 13.6245 495.117 17.9947 494.86 22.622H482.777V22.879ZM493.06 21.3366C493.06 18.5088 491.261 15.6811 487.919 15.6811C484.834 15.6811 483.034 18.5088 482.777 21.3366H493.06ZM487.405 12.3392H485.862L489.204 7.96899H491.518L487.405 12.3392Z" fill="black"/>
<path d="M497.687 14.3958H499.487V18.2518C500.515 15.6811 502.572 14.1387 505.399 14.3958V16.4523C501.8 16.1952 499.487 18.7659 499.487 22.1078V30.5911H497.43V14.3958H497.687Z" fill="black"/>
<path d="M507.2 19.2798C507.457 15.4238 510.028 13.8813 513.627 13.8813C516.455 13.8813 519.54 14.6526 519.54 19.0227V27.506C519.54 28.2772 519.797 28.7914 520.568 28.7914C520.825 28.7914 521.082 28.7914 521.082 28.7914V30.3338C520.568 30.3338 520.311 30.3338 519.797 30.3338C517.74 30.3338 517.483 29.3055 517.483 27.506C516.198 29.5626 514.655 30.8479 511.57 30.8479C508.743 30.8479 506.172 29.3055 506.172 26.2207C506.172 21.8505 510.542 21.5934 514.655 21.0793C516.198 20.8222 517.226 20.5652 517.226 19.0227C517.226 16.452 515.426 15.6808 513.113 15.6808C510.799 15.6808 509 16.7091 508.743 19.2798H507.2ZM517.483 21.5934C517.226 22.1076 516.198 22.1076 515.683 22.3646C512.342 22.8788 508.228 22.8788 508.228 25.9636C508.228 28.0202 510.028 29.0484 511.827 29.0484C514.912 29.0484 517.483 27.249 517.483 24.1641V21.5934Z" fill="black"/>
<path d="M526.48 14.3958H529.822V15.9382H526.48V26.7351C526.48 28.0205 526.737 28.7917 528.022 28.7917C528.537 28.7917 529.051 28.7917 529.565 28.7917V30.3341C529.051 30.3341 528.537 30.3341 527.765 30.3341C525.195 30.3341 524.166 29.5629 524.423 26.7351V16.1953H521.596V14.3958H524.423V9.76855H526.48V14.3958Z" fill="black"/>
<path d="M532.392 8.48315H534.448V11.568H532.392V8.48315ZM532.392 14.3958H534.448V30.3341H532.392V14.3958Z" fill="black"/>
<path d="M552.443 22.3649C552.443 26.9921 549.873 30.8482 544.988 30.8482C540.104 30.8482 537.533 26.9921 537.533 22.3649C537.533 17.7376 540.104 13.8816 544.988 13.8816C549.873 13.8816 552.443 17.7376 552.443 22.3649ZM539.333 22.3649C539.333 25.7068 541.132 29.0487 544.988 29.0487C548.844 29.0487 550.644 25.7068 550.644 22.3649C550.644 19.023 548.844 15.6811 544.988 15.6811C541.132 15.6811 539.333 19.023 539.333 22.3649Z" fill="black"/>
<path d="M555.271 14.3957H557.328V17.2235C558.099 15.424 560.155 14.1387 562.469 14.1387C566.839 14.1387 568.382 16.4523 568.382 20.3083V30.5911H566.325V20.5654C566.325 17.7376 565.554 15.6811 562.212 15.6811C559.127 15.6811 557.328 17.9947 557.328 21.0795V30.334H555.271V14.3957Z" fill="black"/>
<path d="M581.492 19.023C581.492 16.7093 579.436 15.424 577.379 15.424C575.58 15.424 573.523 16.1952 573.523 18.2518C573.523 20.0512 575.58 20.5654 576.865 20.8225L579.436 21.3366C581.749 21.5937 584.063 22.879 584.063 25.7068C584.063 29.0487 580.721 30.5911 577.636 30.5911C574.037 30.5911 571.467 28.7916 571.209 24.9356H573.266C573.523 27.5063 575.323 28.7916 577.893 28.7916C579.693 28.7916 582.263 28.0204 582.263 25.7068C582.263 23.9073 580.464 23.1361 578.665 22.879L576.094 22.3649C573.523 21.5937 571.724 20.8225 571.724 17.9947C571.724 14.6528 574.808 13.6245 577.636 13.6245C580.721 13.6245 583.292 15.1669 583.549 18.7659H581.492V19.023Z" fill="black"/>
<path d="M159.383 54.7557C159.383 57.5835 160.926 60.9254 164.525 60.9254C167.352 60.9254 168.895 59.383 169.409 56.8123H171.465C170.694 60.4112 168.638 62.4678 164.525 62.4678C159.383 62.4678 157.327 58.6118 157.327 53.9845C157.327 49.8714 159.383 45.5012 164.525 45.5012C169.666 45.5012 171.723 49.8714 171.465 54.4986H159.383V54.7557ZM169.666 52.9562C169.666 50.1285 167.867 47.3007 164.525 47.3007C161.44 47.3007 159.64 50.1285 159.383 52.9562H169.666Z" fill="black"/>
<path d="M177.121 46.2723H180.463V47.8147H177.121V58.6116C177.121 59.8969 177.378 60.6681 178.664 60.6681C179.178 60.6681 179.692 60.6681 180.206 60.6681V62.2106C179.692 62.2106 179.178 62.2106 178.407 62.2106C175.836 62.2106 174.808 61.4393 175.065 58.6116V47.8147H172.237V46.2723H175.065V41.3879H177.121V46.2723Z" fill="black"/>
<path d="M205.914 62.2105H204.114V59.1257C203.343 61.1822 200.772 62.7247 198.459 62.7247C193.574 62.7247 191.261 58.8686 191.261 54.2414C191.261 49.6141 193.574 45.7581 198.459 45.7581C200.772 45.7581 203.086 47.0434 203.857 49.3571V40.3596H205.914V62.2105ZM198.459 60.9252C202.572 60.9252 204.114 57.3262 204.114 54.2414C204.114 51.1565 202.572 47.5576 198.459 47.5576C194.86 47.5576 193.317 51.1565 193.317 54.2414C193.317 57.3262 194.603 60.9252 198.459 60.9252Z" fill="black"/>
<path d="M210.797 54.7557C210.797 57.5835 212.34 60.9254 215.939 60.9254C218.766 60.9254 220.309 59.383 220.823 56.8123H222.88C222.108 60.4112 220.052 62.4678 215.939 62.4678C210.797 62.4678 208.741 58.6118 208.741 53.9845C208.741 49.8714 210.797 45.5012 215.939 45.5012C221.08 45.5012 223.137 49.8714 222.88 54.4987H210.797V54.7557ZM221.08 52.9562C221.08 50.1285 219.281 47.3007 215.939 47.3007C212.854 47.3007 211.054 50.1285 210.797 52.9562H221.08ZM215.425 43.9588H213.882L217.224 39.5886H219.538L215.425 43.9588Z" fill="black"/>
<path d="M236.762 51.157C236.248 48.8434 234.706 47.3009 232.135 47.3009C228.279 47.3009 226.48 50.6428 226.48 53.9847C226.48 57.3266 228.279 60.6685 232.135 60.6685C234.449 60.6685 236.505 58.8691 236.762 56.0413H238.819C238.305 59.8973 235.734 62.211 232.135 62.211C227.251 62.211 224.68 58.3549 224.68 53.7277C224.68 49.1004 227.251 45.2444 232.135 45.2444C235.477 45.2444 238.048 47.0439 238.562 50.6428H236.762V51.157Z" fill="black"/>
<path d="M241.646 40.1025H243.702V62.2105H241.646V40.1025Z" fill="black"/>
<path d="M247.044 51.1568C247.301 47.3007 249.872 45.7583 253.471 45.7583C256.298 45.7583 259.383 46.5295 259.383 50.8997V59.383C259.383 60.1542 259.64 60.6683 260.412 60.6683C260.669 60.6683 260.926 60.6683 260.926 60.6683V62.2107C260.412 62.2107 260.154 62.2107 259.64 62.2107C257.584 62.2107 257.327 61.1825 257.327 59.383C256.041 61.4395 254.499 62.7249 251.414 62.7249C248.586 62.7249 246.016 61.1825 246.016 58.0976C246.016 53.7275 250.386 53.4704 254.499 52.9562C256.041 52.6992 257.07 52.4421 257.07 50.8997C257.07 48.329 255.27 47.5578 252.957 47.5578C250.643 47.5578 248.843 48.5861 248.586 51.1568H247.044ZM257.584 53.4704C257.327 53.9845 256.298 53.9845 255.784 54.2416C252.442 54.7557 248.329 54.7557 248.329 57.8406C248.329 59.8971 250.129 60.9254 251.928 60.9254C255.013 60.9254 257.584 59.1259 257.584 56.0411V53.4704Z" fill="black"/>
<path d="M263.24 46.2725H265.04V50.1285C266.068 47.5578 268.125 46.0154 270.953 46.2725V48.329C267.354 48.0719 265.04 50.6426 265.04 53.9845V62.4678H262.983V46.2725H263.24Z" fill="black"/>
<path d="M272.751 51.1568C273.008 47.3007 275.579 45.7583 279.178 45.7583C282.005 45.7583 285.09 46.5295 285.09 50.8997V59.383C285.09 60.1542 285.347 60.6683 286.119 60.6683C286.376 60.6683 286.633 60.6683 286.633 60.6683V62.2107C286.119 62.2107 285.862 62.2107 285.347 62.2107C283.291 62.2107 283.034 61.1825 283.034 59.383C281.748 61.4395 280.206 62.7249 277.121 62.7249C274.293 62.7249 271.723 61.1825 271.723 58.0976C271.723 53.7275 276.093 53.4704 280.206 52.9562C281.748 52.6992 282.777 52.4421 282.777 50.8997C282.777 48.329 280.977 47.5578 278.664 47.5578C276.35 47.5578 274.55 48.5861 274.293 51.1568H272.751ZM283.291 53.4704C283.034 53.9845 282.005 53.9845 281.491 54.2416C278.149 54.7557 274.036 54.7557 274.036 57.8406C274.036 59.8971 275.836 60.9254 277.635 60.9254C280.72 60.9254 283.291 59.1259 283.291 56.0411V53.4704Z" fill="black"/>
<path d="M292.031 46.2723H295.373V47.8147H292.031V58.6116C292.031 59.8969 292.288 60.6681 293.574 60.6681C294.088 60.6681 294.602 60.6681 295.116 60.6681V62.2106C294.602 62.2106 294.088 62.2106 293.317 62.2106C290.746 62.2106 289.718 61.4393 289.975 58.6116V47.8147H287.147V46.2723H289.975V41.3879H292.031V46.2723Z" fill="black"/>
<path d="M298.201 40.1025H300.258V43.1874H298.201V40.1025ZM298.201 46.2722H300.258V62.2105H298.201V46.2722Z" fill="black"/>
<path d="M317.996 54.2416C317.996 58.8688 315.426 62.7249 310.541 62.7249C305.657 62.7249 303.086 58.8688 303.086 54.2416C303.086 49.6143 305.657 45.7583 310.541 45.7583C315.426 45.7583 317.996 49.6143 317.996 54.2416ZM304.886 54.2416C304.886 57.5835 306.685 60.9254 310.541 60.9254C314.398 60.9254 316.197 57.5835 316.197 54.2416C316.197 50.8997 314.398 47.5578 310.541 47.5578C306.685 47.5578 304.886 50.8997 304.886 54.2416Z" fill="black"/>
<path d="M321.081 46.2724H323.138V48.8431C323.909 47.0436 325.965 45.7583 328.279 45.7583C332.649 45.7583 334.192 48.0719 334.192 51.928V62.2107H332.135V52.185C332.135 49.3573 331.364 47.3007 328.022 47.3007C324.937 47.3007 323.138 49.6143 323.138 52.6992V61.9537H321.081V46.2724Z" fill="black"/>
<path d="M347.045 50.8997C347.045 48.586 344.988 47.3007 342.931 47.3007C341.132 47.3007 339.075 48.0719 339.075 50.1285C339.075 51.928 341.132 52.4421 342.417 52.6992L344.988 53.2133C347.302 53.4704 349.615 54.7557 349.615 57.5835C349.615 60.9254 346.273 62.4678 343.188 62.4678C339.589 62.4678 337.019 60.6683 336.762 56.8123H338.818C339.075 59.383 340.875 60.6683 343.446 60.6683C345.245 60.6683 347.816 59.8971 347.816 57.5835C347.816 55.784 346.016 55.0128 344.217 54.7557L341.646 54.2416C339.075 53.4704 337.276 52.6992 337.276 49.8714C337.276 46.5295 340.361 45.5012 343.188 45.5012C346.273 45.5012 348.844 47.0436 349.101 50.6426H347.045V50.8997Z" fill="black"/>
<path d="M361.954 47.8146H359.126V46.2722H361.954V44.7298C361.954 41.902 362.725 40.1025 365.81 40.1025C366.324 40.1025 366.839 40.1025 367.353 40.1025V41.645C366.839 41.645 366.324 41.3879 365.81 41.3879C363.754 41.3879 363.754 42.6732 363.754 44.4727V46.2722H366.839V47.8146H363.754V62.2105H361.697V47.8146H361.954ZM368.895 40.1025H370.952V43.1874H368.895V40.1025ZM368.895 46.2722H370.952V62.2105H368.895V46.2722Z" fill="black"/>
<path d="M374.551 46.2724H376.607V48.8431C377.379 47.0436 379.435 45.7583 381.749 45.7583C386.119 45.7583 387.661 48.0719 387.661 51.928V62.2107H385.605V52.185C385.605 49.3573 384.834 47.3007 381.492 47.3007C378.407 47.3007 376.607 49.6143 376.607 52.6992V61.9537H374.551V46.2724Z" fill="black"/>
<path d="M391.003 51.1568C391.26 47.3007 393.831 45.7583 397.43 45.7583C400.258 45.7583 403.343 46.5295 403.343 50.8997V59.383C403.343 60.1542 403.6 60.6683 404.371 60.6683C404.628 60.6683 404.885 60.6683 404.885 60.6683V62.2107C404.371 62.2107 404.114 62.2107 403.6 62.2107C401.543 62.2107 401.286 61.1825 401.286 59.383C400.001 61.4395 398.458 62.7249 395.374 62.7249C392.546 62.7249 389.975 61.1825 389.975 58.0976C389.975 53.7275 394.345 53.4704 398.458 52.9562C400.001 52.6992 401.029 52.4421 401.029 50.8997C401.029 48.329 399.23 47.5578 396.916 47.5578C394.602 47.5578 392.803 48.5861 392.546 51.1568H391.003ZM401.543 53.4704C401.286 53.9845 400.258 53.9845 399.744 54.2416C396.402 54.7557 392.289 54.7557 392.289 57.8406C392.289 59.8971 394.088 60.9254 395.888 60.9254C398.973 60.9254 401.543 59.1259 401.543 56.0411V53.4704Z" fill="black"/>
<path d="M407.2 46.2724H409.256V48.8431C410.027 47.0436 412.084 45.7583 414.398 45.7583C418.768 45.7583 420.31 48.0719 420.31 51.928V62.2107H418.254V52.185C418.254 49.3573 417.483 47.3007 414.141 47.3007C411.056 47.3007 409.256 49.6143 409.256 52.6992V61.9537H407.2V46.2724Z" fill="black"/>
<path d="M434.962 51.1567C434.448 48.8431 432.906 47.3007 430.335 47.3007C426.479 47.3007 424.679 50.6426 424.679 53.9845C424.679 57.3264 426.479 60.6683 430.335 60.6683C432.649 60.6683 434.705 58.8688 434.962 56.0411H437.019C436.505 59.8971 433.934 62.2107 430.335 62.2107C425.451 62.2107 422.88 58.3547 422.88 53.7274C422.88 49.1002 425.451 45.2441 430.335 45.2441C433.677 45.2441 436.248 47.0436 436.762 50.6426H434.962V51.1567Z" fill="black"/>
<path d="M439.847 40.1025H441.903V43.1874H439.847V40.1025ZM439.847 46.2722H441.903V62.2105H439.847V46.2722Z" fill="black"/>
<path d="M446.788 54.7557C446.788 57.5835 448.33 60.9254 451.929 60.9254C454.757 60.9254 456.299 59.383 456.813 56.8123H458.87C458.099 60.4112 456.042 62.4678 451.929 62.4678C446.788 62.4678 444.731 58.6118 444.731 53.9845C444.731 49.8714 446.788 45.5012 451.929 45.5012C457.07 45.5012 459.127 49.8714 458.87 54.4987H446.788V54.7557ZM457.07 52.9562C457.07 50.1285 455.271 47.3007 451.929 47.3007C448.844 47.3007 447.045 50.1285 446.788 52.9562H457.07ZM447.816 39.5886H450.129L453.471 43.9588H451.929L447.816 39.5886Z" fill="black"/>
<path d="M461.442 46.2725H463.241V50.1285C464.269 47.5578 466.326 46.0154 469.154 46.2725V48.329C465.555 48.0719 463.241 50.6426 463.241 53.9845V62.4678H461.185V46.2725H461.442Z" fill="black"/>
<path d="M471.981 54.7555C471.981 57.5832 473.523 60.9251 477.122 60.9251C479.95 60.9251 481.492 59.3827 482.007 56.812H484.063C483.292 60.411 481.235 62.4676 477.122 62.4676C471.981 62.4676 469.924 58.6115 469.924 53.9843C469.924 49.8712 471.981 45.501 477.122 45.501C482.264 45.501 484.32 49.8712 484.063 54.4984H471.981V54.7555ZM482.264 52.956C482.264 50.1282 480.464 47.3005 477.122 47.3005C474.037 47.3005 472.238 50.1282 471.981 52.956H482.264Z" fill="black"/>
<path d="M496.145 50.8997C496.145 48.586 494.089 47.3007 492.032 47.3007C490.232 47.3007 488.176 48.0719 488.176 50.1285C488.176 51.928 490.232 52.4421 491.518 52.6992L494.089 53.2133C496.402 53.4704 498.716 54.7557 498.716 57.5835C498.716 60.9254 495.374 62.4678 492.289 62.4678C488.69 62.4678 486.119 60.6683 485.862 56.8123H487.919C488.176 59.383 489.975 60.6683 492.546 60.6683C494.346 60.6683 496.916 59.8971 496.916 57.5835C496.916 55.784 495.117 55.0128 493.317 54.7557L490.747 54.2416C488.176 53.4704 486.376 52.6992 486.376 49.8714C486.376 46.5295 489.461 45.5012 492.289 45.5012C495.374 45.5012 497.945 47.0436 498.202 50.6426H496.145V50.8997Z" fill="black"/>
<path d="M172.237 93.8301H170.438V90.7453C169.667 92.8019 167.096 94.3443 164.782 94.3443C159.898 94.3443 157.584 90.4882 157.584 85.861C157.584 81.2338 159.898 77.3777 164.782 77.3777C167.096 77.3777 169.41 78.6631 170.181 80.9767V71.9792H172.237V93.8301ZM164.525 92.8019C168.638 92.8019 170.181 89.2029 170.181 86.1181C170.181 83.0332 168.638 79.4343 164.525 79.4343C160.926 79.4343 159.384 83.0332 159.384 86.1181C159.384 89.2029 160.926 92.8019 164.525 92.8019Z" fill="black"/>
<path d="M188.69 93.8299H186.891V91.0022C185.863 93.0587 183.806 94.3441 181.492 94.3441C177.379 94.3441 175.837 92.0304 175.837 88.4315V78.1487H177.893V88.4315C177.893 91.2592 179.179 92.8016 182.264 92.8016C185.606 92.8016 187.148 89.7168 187.148 86.3749V78.1487H189.205V93.8299H188.69Z" fill="black"/>
<path d="M217.482 78.4059C216.711 75.064 213.883 73.0075 210.798 73.0075C204.886 73.0075 202.572 77.8918 202.572 82.7761C202.572 87.6604 205.143 92.5448 210.798 92.5448C214.911 92.5448 217.482 89.4599 217.739 85.6039H219.796C219.281 91.0023 215.683 94.3443 210.541 94.3443C203.6 94.3443 200.258 88.9458 200.258 82.7761C200.258 76.6065 203.6 71.208 210.541 71.208C214.654 71.208 218.767 73.7787 219.281 78.4059H217.482Z" fill="black"/>
<path d="M222.623 82.7761C222.88 78.9201 225.45 77.3777 229.049 77.3777C231.877 77.3777 234.962 78.1489 234.962 82.5191V91.0024C234.962 91.7736 235.219 92.2877 235.99 92.2877C236.247 92.2877 236.504 92.2877 236.504 92.2877V93.8301C235.99 93.8301 235.733 93.8301 235.219 93.8301C233.162 93.8301 232.905 92.8019 232.905 91.0024C231.62 93.0589 230.078 94.3443 226.993 94.3443C224.165 94.3443 221.594 92.8019 221.594 89.717C221.594 85.3468 225.964 85.0898 230.078 84.5756C231.62 84.3186 232.648 84.0615 232.648 82.5191C232.648 79.9484 230.849 79.1772 228.535 79.1772C226.222 79.1772 224.422 80.2054 224.165 82.7761H222.623ZM232.905 85.0898C232.648 85.6039 231.62 85.6039 231.106 85.861C227.764 86.3751 223.651 86.3751 223.651 89.4599C223.651 91.5165 225.45 92.5448 227.25 92.5448C230.335 92.5448 232.905 90.7453 232.905 87.6605V85.0898Z" fill="black"/>
<path d="M238.562 77.8918H240.618V80.7196C241.389 78.9201 243.446 77.6348 245.759 77.6348C250.13 77.6348 251.672 79.9484 251.672 83.8044V94.0872H249.616V84.0615C249.616 81.2337 248.844 79.1772 245.502 79.1772C242.418 79.1772 240.618 81.4908 240.618 84.5756V93.8301H238.562V77.8918Z" fill="black"/>
<path d="M255.014 82.7764C255.271 78.9203 257.842 77.3779 261.441 77.3779C264.269 77.3779 267.353 78.1491 267.353 82.5193V91.0026C267.353 91.7738 267.611 92.288 268.382 92.288C268.639 92.288 268.896 92.288 268.896 92.288V93.8304C268.382 93.8304 268.125 93.8304 267.611 93.8304C265.554 93.8304 265.297 92.8021 265.297 91.0026C264.012 93.0592 262.469 94.3445 259.384 94.3445C256.557 94.3445 253.986 92.8021 253.986 89.7173C253.986 85.3471 258.356 85.09 262.469 84.5759C264.012 84.3188 265.04 84.0617 265.04 82.5193C265.04 79.9486 263.24 79.1774 260.927 79.1774C258.613 79.1774 256.814 80.2057 256.557 82.7764H255.014ZM265.554 85.09C265.297 85.6041 264.269 85.6042 263.754 85.8612C260.413 86.3754 256.299 86.3754 256.299 89.4602C256.299 91.5167 258.099 92.545 259.898 92.545C262.983 92.545 265.554 90.7455 265.554 87.6607V85.09Z" fill="black"/>
<path d="M285.348 93.8301H283.549V90.7453C282.778 92.8019 280.207 94.3443 277.893 94.3443C273.009 94.3443 270.695 90.4882 270.695 85.861C270.695 81.2338 273.009 77.3777 277.893 77.3777C280.207 77.3777 282.521 78.6631 283.292 80.9767V71.9792H285.348V93.8301ZM277.893 92.8019C282.006 92.8019 283.549 89.2029 283.549 86.1181C283.549 83.0332 282.006 79.4343 277.893 79.4343C274.294 79.4343 272.752 83.0332 272.752 86.1181C272.752 89.2029 274.037 92.8019 277.893 92.8019Z" fill="black"/>
<path d="M288.69 82.7764C288.947 78.9203 291.518 77.3779 295.117 77.3779C297.945 77.3779 301.03 78.1491 301.03 82.5193V91.0026C301.03 91.7738 301.287 92.288 302.058 92.288C302.315 92.288 302.572 92.288 302.572 92.288V93.8304C302.058 93.8304 301.801 93.8304 301.287 93.8304C299.23 93.8304 298.973 92.8021 298.973 91.0026C297.688 93.0592 296.145 94.3445 293.061 94.3445C290.233 94.3445 287.662 92.8021 287.662 89.7173C287.662 85.3471 292.032 85.09 296.145 84.5759C297.688 84.3188 298.716 84.0617 298.716 82.5193C298.716 79.9486 296.917 79.1774 294.603 79.1774C292.289 79.1774 290.49 80.2057 290.233 82.7764H288.69ZM299.23 85.09C298.973 85.6041 297.945 85.6042 297.431 85.8612C294.089 86.3754 289.976 86.3754 289.976 89.4602C289.976 91.5167 291.775 92.545 293.575 92.545C296.66 92.545 299.23 90.7455 299.23 87.6607V85.09Z" fill="black"/>
<path d="M631.364 8.48315H645.246V10.2826H633.42V17.9947H643.96V19.7942H633.42V30.3341H631.364V8.48315Z" fill="black"/>
<path d="M647.816 8.48315H649.873V11.568H647.816V8.48315ZM647.816 14.3958H649.873V30.3341H647.816V14.3958Z" fill="black"/>
<path d="M653.472 14.3957H655.528V17.2235C656.299 15.424 658.356 14.1387 660.67 14.1387C665.04 14.1387 666.582 16.4523 666.582 20.3083V30.5911H664.526V20.5654C664.526 17.7376 663.754 15.6811 660.413 15.6811C657.328 15.6811 655.528 17.9947 655.528 21.0795V30.334H653.472V14.3957Z" fill="black"/>
<path d="M669.667 19.28C669.924 15.424 672.495 13.8816 676.094 13.8816C678.921 13.8816 682.006 14.6528 682.006 19.023V27.5063C682.006 28.2775 682.263 28.7916 683.035 28.7916C683.292 28.7916 683.549 28.7916 683.549 28.7916V30.334C683.035 30.334 682.777 30.334 682.263 30.334C680.207 30.334 679.95 29.3058 679.95 27.5063C678.664 29.5628 677.122 30.8482 674.037 30.8482C671.209 30.8482 668.639 29.3058 668.639 26.2209C668.639 21.8507 673.009 21.5937 677.122 21.0795C678.664 20.8225 679.693 20.5654 679.693 19.023C679.693 16.4523 677.893 15.6811 675.58 15.6811C673.266 15.6811 671.466 16.7094 671.209 19.28H669.667ZM680.207 21.5937C679.95 22.1078 678.921 22.1078 678.407 22.3649C675.065 22.879 670.952 22.879 670.952 25.9639C670.952 28.0204 672.752 29.0487 674.551 29.0487C677.636 29.0487 680.207 27.2492 680.207 24.1644V21.5937Z" fill="black"/>
<path d="M685.863 14.3957H687.92V17.2235C688.691 15.424 690.748 14.1387 693.061 14.1387C697.431 14.1387 698.974 16.4523 698.974 20.3083V30.5911H696.917V20.5654C696.917 17.7376 696.146 15.6811 692.804 15.6811C689.719 15.6811 687.92 17.9947 687.92 21.0795V30.334H685.863V14.3957Z" fill="black"/>
<path d="M713.627 19.5374C713.113 17.2237 711.571 15.6813 709 15.6813C705.144 15.6813 703.344 19.0232 703.344 22.3651C703.344 25.707 705.144 29.0489 709 29.0489C711.314 29.0489 713.37 27.2494 713.627 24.4217H715.684C715.17 28.2777 712.599 30.5913 709 30.5913C704.116 30.5913 701.545 26.7353 701.545 22.108C701.545 17.4808 704.116 13.6248 709 13.6248C712.342 13.6248 714.913 15.4242 715.427 19.0232H713.627V19.5374Z" fill="black"/>
<path d="M718.51 8.48315H720.567V11.568H718.51V8.48315ZM718.51 14.3958H720.567V30.3341H718.51V14.3958Z" fill="black"/>
<path d="M724.167 19.2805C724.424 15.4245 726.995 13.8821 730.594 13.8821C733.422 13.8821 736.506 14.6533 736.506 19.0235V27.5068C736.506 28.278 736.763 28.7921 737.535 28.7921C737.792 28.7921 738.049 28.7921 738.049 28.7921V30.3345C737.535 30.3345 737.278 30.3345 736.763 30.3345C734.707 30.3345 734.45 29.3062 734.45 27.5068C733.164 29.5633 731.622 30.8487 728.537 30.8487C725.709 30.8487 723.139 29.3062 723.139 26.2214C723.139 21.8512 727.509 21.5942 731.622 21.08C733.164 20.823 734.193 20.5659 734.193 19.0235C734.193 16.4528 732.393 15.6816 730.08 15.6816C727.766 15.6816 725.966 16.7098 725.709 19.2805H724.167ZM734.45 21.5942C734.193 22.1083 733.164 22.1083 732.65 22.3654C729.308 22.8795 725.195 22.8795 725.195 25.9643C725.195 28.0209 726.995 29.0492 728.794 29.0492C731.879 29.0492 734.45 27.2497 734.45 24.1649V21.5942Z" fill="black"/>
<path d="M740.361 8.48315H742.418V30.5911H740.361V8.48315Z" fill="black"/>
<path d="M752.444 8.48315H769.925V10.2826H762.212V30.5911H760.156V10.2826H752.444V8.48315Z" fill="black"/>
<path d="M768.896 14.3958H770.696V18.2518C771.724 15.6811 773.781 14.1387 776.608 14.3958V16.4523C773.009 16.1952 770.696 18.7659 770.696 22.1078V30.5911H768.639V14.3958H768.896Z" fill="black"/>
<path d="M778.409 19.2805C778.666 15.4245 781.236 13.8821 784.835 13.8821C787.663 13.8821 790.748 14.6533 790.748 19.0235V27.5068C790.748 28.278 791.005 28.7921 791.776 28.7921C792.033 28.7921 792.29 28.7921 792.29 28.7921V30.3345C791.776 30.3345 791.519 30.3345 791.005 30.3345C788.949 30.3345 788.691 29.3062 788.691 27.5068C787.406 29.5633 785.864 30.8487 782.779 30.8487C779.951 30.8487 777.38 29.3062 777.38 26.2214C777.38 21.8512 781.751 21.5942 785.864 21.08C787.406 20.823 788.434 20.5659 788.434 19.0235C788.434 16.4528 786.635 15.6816 784.321 15.6816C782.008 15.6816 780.208 16.7098 779.951 19.2805H778.409ZM788.691 21.5942C788.434 22.1083 787.406 22.1083 786.892 22.3654C783.55 22.8795 779.437 22.8795 779.437 25.9643C779.437 28.0209 781.236 29.0492 783.036 29.0492C786.121 29.0492 788.691 27.2497 788.691 24.1649V21.5942Z" fill="black"/>
<path d="M794.603 14.3957H796.66V17.2235C797.431 15.424 799.487 14.1387 801.801 14.1387C806.171 14.1387 807.714 16.4523 807.714 20.3083V30.5911H805.657V20.5654C805.657 17.7376 804.886 15.6811 801.544 15.6811C798.459 15.6811 796.66 17.9947 796.66 21.0795V30.334H794.603V14.3957Z" fill="black"/>
<path d="M820.567 19.023C820.567 16.7093 818.511 15.424 816.454 15.424C814.655 15.424 812.598 16.1952 812.598 18.2518C812.598 20.0512 814.655 20.5654 815.94 20.8225L818.511 21.3366C820.824 21.5937 823.138 22.879 823.138 25.7068C823.138 29.0487 819.796 30.5911 816.711 30.5911C813.112 30.5911 810.542 28.7916 810.285 24.9356H812.341C812.598 27.5063 814.398 28.7916 816.968 28.7916C818.768 28.7916 821.339 28.0204 821.339 25.7068C821.339 23.9073 819.539 23.1361 817.74 22.879L815.169 22.3649C812.598 21.5937 810.799 20.8225 810.799 17.9947C810.799 14.6528 813.884 13.6245 816.711 13.6245C819.796 13.6245 822.367 15.1669 822.624 18.7659H820.567V19.023Z" fill="black"/>
<path d="M825.709 19.2805C825.967 15.4245 828.537 13.8821 832.136 13.8821C834.964 13.8821 838.049 14.6533 838.049 19.0235V27.5068C838.049 28.278 838.306 28.7921 839.077 28.7921C839.334 28.7921 839.591 28.7921 839.591 28.7921V30.3345C839.077 30.3345 838.82 30.3345 838.306 30.3345C836.249 30.3345 835.992 29.3062 835.992 27.5068C834.707 29.5633 833.164 30.8487 830.08 30.8487C827.252 30.8487 824.681 29.3062 824.681 26.2214C824.681 21.8512 829.051 21.5942 833.165 21.08C834.707 20.823 835.735 20.5659 835.735 19.0235C835.735 16.4528 833.936 15.6816 831.622 15.6816C829.308 15.6816 827.509 16.7098 827.252 19.2805H825.709ZM836.249 21.5942C835.992 22.1083 834.964 22.1083 834.45 22.3654C831.108 22.8795 826.995 22.8795 826.995 25.9643C826.995 28.0209 828.794 29.0492 830.594 29.0492C833.679 29.0492 836.249 27.2497 836.249 24.1649V21.5942Z" fill="black"/>
<path d="M853.215 19.5371C852.701 17.2235 851.159 15.6811 848.588 15.6811C844.732 15.6811 842.932 19.023 842.932 22.3649C842.932 25.7068 844.732 29.0487 848.588 29.0487C850.901 29.0487 852.958 27.2492 853.215 24.4214H855.272C854.758 28.2775 852.187 30.5911 848.588 30.5911C843.703 30.5911 841.133 26.7351 841.133 22.1078C841.133 17.4806 843.703 13.6245 848.588 13.6245C851.93 13.6245 854.5 15.424 855.015 19.023H853.215V19.5371Z" fill="black"/>
<path d="M861.184 14.3958H864.526V15.9382H861.184V26.7351C861.184 28.0205 861.441 28.7917 862.727 28.7917C863.241 28.7917 863.755 28.7917 864.269 28.7917V30.3341C863.755 30.3341 863.241 30.3341 862.469 30.3341C859.899 30.3341 858.871 29.5629 859.128 26.7351V16.1953H856.3V14.3958H859.128V9.76855H861.184V14.3958Z" fill="black"/>
<path d="M867.098 8.4834H869.154V11.5682H867.098V8.4834ZM867.098 14.396H869.154V30.3343H867.098V14.396Z" fill="black"/>
<path d="M887.149 22.3654C887.149 26.9926 884.579 30.8487 879.694 30.8487C874.81 30.8487 872.239 26.9926 872.239 22.3654C872.239 17.7381 874.81 13.8821 879.694 13.8821C884.579 13.8821 887.149 17.7381 887.149 22.3654ZM874.039 22.3654C874.039 25.7073 875.838 29.0492 879.694 29.0492C883.55 29.0492 885.35 25.7073 885.35 22.3654C885.35 19.0235 883.55 15.6816 879.694 15.6816C875.838 15.6816 874.039 19.0235 874.039 22.3654Z" fill="black"/>
<path d="M889.976 14.3957H892.033V17.2235C892.804 15.424 894.86 14.1387 897.174 14.1387C901.544 14.1387 903.087 16.4523 903.087 20.3083V30.5911H901.03V20.5654C901.03 17.7376 900.259 15.6811 896.917 15.6811C893.832 15.6811 892.033 17.9947 892.033 21.0795V30.334H889.976V14.3957Z" fill="black"/>
<path d="M916.198 19.0232C916.198 16.7096 914.142 15.4242 912.085 15.4242C910.286 15.4242 908.229 16.1954 908.229 18.252C908.229 20.0515 910.286 20.5656 911.571 20.8227L914.142 21.3368C916.455 21.5939 918.769 22.8793 918.769 25.707C918.769 29.0489 915.427 30.5913 912.342 30.5913C908.743 30.5913 906.173 28.7918 905.916 24.9358H907.972C908.229 27.5065 910.029 28.7918 912.599 28.7918C914.399 28.7918 916.97 28.0206 916.97 25.707C916.97 23.9075 915.17 23.1363 913.371 22.8793L910.8 22.3651C908.229 21.5939 906.43 20.8227 906.43 17.9949C906.43 14.653 909.515 13.6248 912.342 13.6248C915.427 13.6248 917.998 15.1672 918.255 18.7661H916.198V19.0232Z" fill="black"/>
<path d="M929.823 19.2805C930.08 15.4245 932.651 13.8821 936.25 13.8821C939.077 13.8821 942.162 14.6533 942.162 19.0235V27.5068C942.162 28.278 942.419 28.7921 943.19 28.7921C943.447 28.7921 943.705 28.7921 943.705 28.7921V30.3345C943.19 30.3345 942.933 30.3345 942.419 30.3345C940.363 30.3345 940.106 29.3062 940.106 27.5068C938.82 29.5633 937.278 30.8487 934.193 30.8487C931.365 30.8487 928.794 29.3062 928.794 26.2214C928.794 21.8512 933.165 21.5942 937.278 21.08C938.82 20.823 939.848 20.5659 939.848 19.0235C939.848 16.4528 938.049 15.6816 935.735 15.6816C933.422 15.6816 931.622 16.7098 931.365 19.2805H929.823ZM940.106 21.5942C939.849 22.1083 938.82 22.1083 938.306 22.3654C934.964 22.8795 930.851 22.8795 930.851 25.9643C930.851 28.0209 932.651 29.0492 934.45 29.0492C937.535 29.0492 940.106 27.2497 940.106 24.1649V21.5942Z" fill="black"/>
<path d="M946.018 14.3957H948.074V17.2235C948.845 15.424 950.902 14.1387 953.216 14.1387C957.586 14.1387 959.128 16.4523 959.128 20.3083V30.5911H957.072V20.5654C957.072 17.7376 956.3 15.6811 952.958 15.6811C949.874 15.6811 948.074 17.9947 948.074 21.0795V30.334H946.018V14.3957Z" fill="black"/>
<path d="M976.609 30.3341H974.809V27.2492C974.038 29.3058 971.467 30.8482 969.153 30.8482C964.269 30.8482 961.956 26.9921 961.956 22.3649C961.956 17.7377 964.269 13.8816 969.153 13.8816C971.467 13.8816 973.781 15.167 974.552 17.4806V8.48315H976.609V30.3341ZM968.896 29.3058C973.01 29.3058 974.552 25.7068 974.552 22.622C974.552 19.5371 973.01 15.9382 968.896 15.9382C965.297 15.9382 963.755 19.5371 963.755 22.622C963.755 25.7068 965.297 29.3058 968.896 29.3058Z" fill="black"/>
<path d="M631.364 40.1028H641.389C644.988 40.1028 648.073 41.9023 648.073 45.7583C648.073 48.5861 646.531 50.8997 643.703 51.4138C646.531 51.6709 647.302 53.7275 647.559 56.2982C647.559 57.8406 647.559 60.9254 648.587 61.9537H646.274C645.76 61.1825 645.76 59.383 645.76 58.6118C645.503 55.5269 645.246 52.185 641.389 52.185H633.42V61.9537H631.364V40.1028ZM633.677 50.6426H641.389C643.96 50.6426 646.017 49.1002 646.017 46.2724C646.017 43.7018 644.474 41.9023 641.389 41.9023H633.677V50.6426Z" fill="black"/>
<path d="M652.701 54.7557C652.701 57.5835 654.243 60.9254 657.842 60.9254C660.67 60.9254 662.212 59.383 662.726 56.8123H664.783C664.012 60.4112 661.955 62.4678 657.842 62.4678C652.701 62.4678 650.644 58.6118 650.644 53.9845C650.644 49.8714 652.701 45.5012 657.842 45.5012C662.983 45.5012 665.04 49.8714 664.783 54.4986H652.701V54.7557ZM663.24 52.9562C663.24 50.1285 661.441 47.3007 658.099 47.3007C655.014 47.3007 653.215 50.1285 652.958 52.9562H663.24Z" fill="black"/>
<path d="M667.611 46.2724H669.41V49.3573C670.181 47.3007 672.495 45.7583 675.066 45.7583C679.95 45.7583 682.264 49.6143 682.264 54.2416C682.264 58.8688 679.95 62.7249 675.066 62.7249C672.752 62.7249 670.439 61.4395 669.667 59.1259V68.1233H667.611V46.2724ZM675.323 47.3007C670.953 47.3007 669.667 50.3856 669.667 53.9845C669.667 57.3264 671.21 60.6683 675.323 60.6683C678.922 60.6683 680.464 57.0694 680.464 53.9845C680.464 50.8997 678.922 47.3007 675.323 47.3007Z" fill="black"/>
<path d="M699.746 54.2416C699.746 58.8688 697.175 62.7249 692.29 62.7249C687.406 62.7249 684.835 58.8688 684.835 54.2416C684.835 49.6143 687.406 45.7583 692.29 45.7583C697.175 45.7583 699.746 49.6143 699.746 54.2416ZM686.635 54.2416C686.635 57.5835 688.434 60.9254 692.29 60.9254C696.147 60.9254 697.946 57.5835 697.946 54.2416C697.946 50.8997 696.147 47.5578 692.29 47.5578C688.434 47.5578 686.635 50.8997 686.635 54.2416Z" fill="black"/>
<path d="M702.572 46.2725H704.371V50.1285C705.4 47.5578 707.456 46.0154 710.284 46.2725V48.329C706.685 48.0719 704.371 50.6426 704.371 53.9845V62.4678H702.315V46.2725H702.572Z" fill="black"/>
<path d="M715.427 46.2725H718.769V47.8149H715.427V58.6118C715.427 59.8972 715.684 60.6684 716.969 60.6684C717.483 60.6684 717.998 60.6684 718.512 60.6684V62.2108C717.998 62.2108 717.483 62.2108 716.712 62.2108C714.141 62.2108 713.113 61.4396 713.37 58.6118V47.8149H710.542V46.2725H713.37V41.3882H715.427V46.2725Z" fill="black"/>
<path d="M730.851 50.8994C730.851 48.5858 728.794 47.3005 726.738 47.3005C724.938 47.3005 722.882 48.0717 722.882 50.1282C722.882 51.9277 724.938 52.4418 726.223 52.6989L728.794 53.2131C731.108 53.4701 733.421 54.7555 733.421 57.5832C733.421 60.9251 730.079 62.4676 726.995 62.4676C723.396 62.4676 720.825 60.6681 720.568 56.812H722.624C722.882 59.3827 724.681 60.6681 727.252 60.6681C729.051 60.6681 731.622 59.8969 731.622 57.5832C731.622 55.7837 729.822 55.0125 728.023 54.7555L725.452 54.2413C722.882 53.4701 721.082 52.6989 721.082 49.8712C721.082 46.5293 724.167 45.501 726.995 45.501C730.079 45.501 732.65 47.0434 732.907 50.6424H730.851V50.8994Z" fill="black"/>
<path d="M751.672 40.1028H753.986L762.727 62.2108H760.413L757.842 55.2699H747.816L745.246 62.2108H742.932L751.672 40.1028ZM748.331 53.4704H757.071L752.701 42.1593L748.331 53.4704Z" fill="black"/>
<path d="M764.27 46.2724H766.326V48.8431C767.097 47.0436 769.154 45.7583 771.468 45.7583C775.838 45.7583 777.38 48.0719 777.38 51.928V62.2107H775.324V52.185C775.324 49.3573 774.552 47.3007 771.21 47.3007C768.126 47.3007 766.326 49.6143 766.326 52.6992V61.9537H764.27V46.2724Z" fill="black"/>
<path d="M780.722 51.1568C780.979 47.3007 783.55 45.7583 787.149 45.7583C789.977 45.7583 793.062 46.5295 793.062 50.8997V59.383C793.062 60.1542 793.319 60.6683 794.09 60.6683C794.347 60.6683 794.604 60.6683 794.604 60.6683V62.2107C794.09 62.2107 793.833 62.2107 793.319 62.2107C791.262 62.2107 791.005 61.1825 791.005 59.383C789.72 61.4395 788.177 62.7249 785.092 62.7249C782.265 62.7249 779.694 61.1825 779.694 58.0976C779.694 53.7275 784.064 53.4704 788.177 52.9562C789.72 52.6992 790.748 52.4421 790.748 50.8997C790.748 48.329 788.948 47.5578 786.635 47.5578C784.321 47.5578 782.522 48.5861 782.265 51.1568H780.722ZM791.005 53.4704C790.748 53.9845 789.72 53.9845 789.205 54.2416C785.864 54.7557 781.75 54.7557 781.75 57.8406C781.75 59.8971 783.55 60.9254 785.349 60.9254C788.434 60.9254 791.005 59.1259 791.005 56.0411V53.4704Z" fill="black"/>
<path d="M796.917 40.1028H798.974V62.2108H796.917V40.1028Z" fill="black"/>
<path d="M800.773 46.2725H802.829L807.971 59.8971L812.855 46.2725H814.912L807.971 64.5244C806.943 67.0951 806.171 67.8663 803.858 67.8663C803.087 67.8663 802.572 67.8663 802.315 67.6092V66.0668C802.83 66.0668 803.087 66.3239 803.601 66.3239C805.4 66.3239 805.657 65.2956 806.429 63.7532L807.2 61.9537L800.773 46.2725Z" fill="black"/>
<path d="M826.224 50.8994C826.224 48.5858 824.167 47.3005 822.111 47.3005C820.311 47.3005 818.255 48.0717 818.255 50.1282C818.255 51.9277 820.311 52.4418 821.596 52.6989L824.167 53.2131C826.481 53.4701 828.794 54.7555 828.794 57.5832C828.794 60.9251 825.453 62.4676 822.368 62.4676C818.769 62.4676 816.198 60.6681 815.941 56.812H817.998C818.255 59.3827 820.054 60.6681 822.625 60.6681C824.424 60.6681 826.995 59.8969 826.995 57.5832C826.995 55.7837 825.195 55.0125 823.396 54.7555L820.825 54.2413C818.255 53.4701 816.455 52.6989 816.455 49.8712C816.455 46.5293 819.54 45.501 822.368 45.501C825.453 45.501 828.023 47.0434 828.28 50.6424H826.224V50.8994Z" fill="black"/>
<path d="M831.621 40.1028H833.678V43.1876H831.621V40.1028ZM831.621 46.2724H833.678V62.2108H831.621V46.2724Z" fill="black"/>
<path d="M846.789 50.8994C846.789 48.5858 844.733 47.3005 842.676 47.3005C840.877 47.3005 838.82 48.0717 838.82 50.1282C838.82 51.9277 840.877 52.4418 842.162 52.6989L844.733 53.2131C847.046 53.4701 849.36 54.7555 849.36 57.5832C849.36 60.9251 846.018 62.4676 842.933 62.4676C839.334 62.4676 836.763 60.6681 836.506 56.812H838.563C838.82 59.3827 840.619 60.6681 843.19 60.6681C844.99 60.6681 847.56 59.8969 847.56 57.5832C847.56 55.7837 845.761 55.0125 843.961 54.7555L841.391 54.2413C838.82 53.4701 837.021 52.6989 837.021 49.8712C837.021 46.5293 840.105 45.501 842.933 45.501C846.018 45.501 848.589 47.0434 848.846 50.6424H846.789V50.8994Z" fill="black"/>
<path d="M877.123 46.7866C876.351 43.4447 873.524 41.3881 870.439 41.3881C864.526 41.3881 862.213 46.2724 862.213 51.1567C862.213 56.0411 864.783 60.9254 870.439 60.9254C874.552 60.9254 877.123 57.8406 877.38 53.9845H879.436C878.922 59.383 875.323 62.7249 870.182 62.7249C863.241 62.7249 859.899 57.3264 859.899 51.1567C859.899 44.9871 863.241 39.5886 870.182 39.5886C874.295 39.5886 878.408 42.1593 878.922 46.7866H877.123Z" fill="black"/>
<path d="M883.55 54.7555C883.55 57.5832 885.093 60.9251 888.692 60.9251C891.519 60.9251 893.062 59.3827 893.576 56.812H895.633C894.861 60.411 892.805 62.4676 888.692 62.4676C883.55 62.4676 881.494 58.6115 881.494 53.9843C881.494 49.8712 883.55 45.501 888.692 45.501C893.833 45.501 895.89 49.8712 895.633 54.4984H883.55V54.7555ZM893.833 52.956C893.833 50.1282 892.034 47.3005 888.692 47.3005C885.607 47.3005 883.807 50.1282 883.55 52.956H893.833Z" fill="black"/>
<path d="M898.459 46.2724H900.516V48.8431C901.287 47.0436 903.344 45.7583 905.657 45.7583C910.028 45.7583 911.57 48.0719 911.57 51.928V62.2107H909.513V52.185C909.513 49.3573 908.742 47.3007 905.4 47.3007C902.316 47.3007 900.516 49.6143 900.516 52.6992V61.9537H898.459V46.2724Z" fill="black"/>
<path d="M918.255 46.2725H921.596V47.8149H918.255V58.6118C918.255 59.8972 918.512 60.6684 919.797 60.6684C920.311 60.6684 920.825 60.6684 921.339 60.6684V62.2108C920.825 62.2108 920.311 62.2108 919.54 62.2108C916.969 62.2108 915.941 61.4396 916.198 58.6118V47.8149H913.37V46.2725H916.198V41.3882H918.255V46.2725Z" fill="black"/>
<path d="M924.167 46.2725H925.967V50.1285C926.995 47.5578 929.052 46.0154 931.879 46.2725V48.329C928.28 48.0719 925.967 50.6426 925.967 53.9845V62.4678H923.91V46.2725H924.167Z" fill="black"/>
<path d="M934.449 54.7557C934.449 57.5835 935.992 60.9254 939.591 60.9254C942.418 60.9254 943.961 59.383 944.475 56.8123H946.531C945.76 60.4112 943.704 62.4678 939.591 62.4678C934.449 62.4678 932.393 58.6118 932.393 53.9845C932.393 49.8714 934.449 45.5012 939.591 45.5012C944.732 45.5012 946.788 49.8714 946.531 54.4986H934.449V54.7557ZM944.732 52.9562C944.732 50.1285 942.932 47.3007 939.591 47.3007C936.506 47.3007 934.706 50.1285 934.449 52.9562H944.732Z" fill="black"/>
<path d="M645.246 85.861C645.246 90.4882 642.675 94.3443 637.791 94.3443C632.906 94.3443 630.335 90.4882 630.335 85.861C630.335 81.2337 632.906 77.3777 637.791 77.3777C642.675 77.3777 645.246 81.2337 645.246 85.861ZM632.135 85.861C632.135 89.2029 633.934 92.5448 637.791 92.5448C641.647 92.5448 643.446 89.2029 643.446 85.861C643.446 82.5191 641.647 79.1772 637.791 79.1772C633.934 79.1772 632.135 82.5191 632.135 85.861Z" fill="black"/>
<path d="M654.5 79.6913H651.415V94.0872H649.359V79.6913H646.531V78.1489H649.359V76.6065C649.359 73.7787 650.13 71.9792 653.215 71.9792C653.729 71.9792 654.243 71.9792 654.757 71.9792V73.5217C654.243 73.5217 653.729 73.2646 653.215 73.2646C651.158 73.2646 651.158 74.5499 651.158 76.3494V77.6348H654.243V79.6913H654.5Z" fill="black"/>
<path d="M681.236 78.4059C680.465 75.064 677.637 73.0075 674.552 73.0075C668.639 73.0075 666.326 77.8918 666.326 82.7761C666.326 87.6604 668.897 92.5448 674.552 92.5448C678.665 92.5448 681.236 89.4599 681.493 85.6039H683.55C683.035 91.0023 679.436 94.3443 674.295 94.3443C667.354 94.3443 664.012 88.9458 664.012 82.7761C664.012 76.8635 667.354 71.208 674.295 71.208C678.408 71.208 682.521 73.7787 683.035 78.4059H681.236Z" fill="black"/>
<path d="M686.377 82.7761C686.634 78.9201 689.205 77.3777 692.804 77.3777C695.631 77.3777 698.716 78.1489 698.716 82.5191V91.0024C698.716 91.7736 698.973 92.2877 699.745 92.2877C700.002 92.2877 700.259 92.2877 700.259 92.2877V93.8301C699.745 93.8301 699.487 93.8301 698.973 93.8301C696.917 93.8301 696.66 92.8019 696.66 91.0024C695.374 93.0589 693.832 94.3443 690.747 94.3443C687.919 94.3443 685.349 92.8019 685.349 89.717C685.349 85.3468 689.719 85.0898 693.832 84.5756C695.374 84.3186 696.403 84.0615 696.403 82.5191C696.403 79.9484 694.603 79.1772 692.289 79.1772C689.976 79.1772 688.176 80.2054 687.919 82.7761H686.377ZM696.66 85.0898C696.403 85.6039 695.374 85.6039 694.86 85.861C691.518 86.3751 687.405 86.3751 687.405 89.4599C687.405 91.5165 689.205 92.5448 691.004 92.5448C694.089 92.5448 696.66 90.7453 696.66 87.6605V85.0898Z" fill="black"/>
<path d="M702.573 77.8918H704.629V80.7196C705.401 78.9201 707.457 77.6348 709.771 77.6348C714.141 77.6348 715.683 79.9484 715.683 83.8044V94.0872H713.627V84.0615C713.627 81.2337 712.856 79.1772 709.514 79.1772C706.429 79.1772 704.629 81.4908 704.629 84.5756V93.8301H702.573V77.8918Z" fill="black"/>
<path d="M719.025 82.7764C719.282 78.9203 721.853 77.3779 725.452 77.3779C728.28 77.3779 731.365 78.1491 731.365 82.5193V91.0026C731.365 91.7738 731.622 92.288 732.393 92.288C732.65 92.288 732.907 92.288 732.907 92.288V93.8304C732.393 93.8304 732.136 93.8304 731.622 93.8304C729.565 93.8304 729.308 92.8021 729.308 91.0026C728.023 93.0592 726.48 94.3445 723.396 94.3445C720.568 94.3445 717.997 92.8021 717.997 89.7173C717.997 85.3471 722.367 85.09 726.48 84.5759C728.023 84.3188 729.051 84.0617 729.051 82.5193C729.051 79.9486 727.252 79.1774 724.938 79.1774C722.624 79.1774 720.825 80.2057 720.568 82.7764H719.025ZM729.308 85.09C729.051 85.6041 728.023 85.6042 727.509 85.8612C724.167 86.3754 720.054 86.3754 720.054 89.4602C720.054 91.5167 721.853 92.545 723.653 92.545C726.737 92.545 729.308 90.7455 729.308 87.6607V85.09Z" fill="black"/>
<path d="M749.102 93.8301H747.302V90.7453C746.531 92.8019 743.96 94.3443 741.647 94.3443C736.762 94.3443 734.449 90.4882 734.449 85.861C734.449 81.2338 736.762 77.3777 741.647 77.3777C743.96 77.3777 746.274 78.6631 747.045 80.9767V71.9792H749.102V93.8301ZM741.647 92.8019C745.76 92.8019 747.302 89.2029 747.302 86.1181C747.302 83.0332 745.76 79.4343 741.647 79.4343C738.048 79.4343 736.505 83.0332 736.505 86.1181C736.505 89.2029 737.791 92.8019 741.647 92.8019Z" fill="black"/>
<path d="M752.702 82.7764C752.959 78.9203 755.529 77.3779 759.128 77.3779C761.956 77.3779 765.041 78.1491 765.041 82.5193V91.0026C765.041 91.7738 765.298 92.288 766.069 92.288C766.326 92.288 766.583 92.288 766.583 92.288V93.8304C766.069 93.8304 765.812 93.8304 765.298 93.8304C763.242 93.8304 762.984 92.8021 762.984 91.0026C761.699 93.0592 760.157 94.3445 757.072 94.3445C754.244 94.3445 751.673 92.8021 751.673 89.7173C751.673 85.3471 756.044 85.09 760.157 84.5759C761.699 84.3188 762.727 84.0617 762.727 82.5193C762.727 79.9486 760.928 79.1774 758.614 79.1774C756.301 79.1774 754.501 80.2057 754.244 82.7764H752.702ZM762.984 85.09C762.727 85.6041 761.699 85.6042 761.185 85.8612C757.843 86.3754 753.73 86.3754 753.73 89.4602C753.73 91.5167 755.529 92.545 757.329 92.545C760.414 92.545 762.984 90.7455 762.984 87.6607V85.09Z" fill="black"/>
</svg>
