<?xml version="1.0" encoding="UTF-8"?>
<svg id="Layer_1" data-name="Layer 1" xmlns="http://www.w3.org/2000/svg" viewBox="0 0 229.62 18.56">
  <defs>
    <style>
      .cls-1, .cls-2 {
        stroke-width: 0px;
      }

      .cls-2 {
        fill: #ed1c24;
        fill-rule: evenodd;
      }
    </style>
  </defs>
  <g>
    <path class="cls-2" d="m16.55,1.38s-1.02,1.97-1.16,2.18c-.14.27-.27.27-.48.14-.27-.14-1.1-.61-1.1-.61,0,0,.75,3.26.75,3.54.07.27-.21.48-.48.27-.07-.07-1.5-1.7-1.5-1.7,0,0-.34.75-.41.89-.07.14-.14.27-.34.2-.27-.07-1.57-.34-1.57-.34,0,0,.48,1.63.55,1.84.07.16.14.34-.14.48l-.48.2s2.8,2.45,2.87,2.52c.14.14.27.21.14.62-.14.41-.27.96-.27.96,0,0,2.6-.55,2.87-.62.24-.02.5.07.5.34s-.16,3.08-.16,3.08h.82s-.16-2.8-.16-3.08.26-.37.5-.34c.27.07,2.87.62,2.87.62,0,0-.14-.55-.27-.96-.14-.41,0-.48.14-.62.07-.07,2.87-2.52,2.87-2.52l-.48-.2c-.27-.14-.2-.31-.14-.48.07-.21.55-1.84.55-1.84,0,0-1.3.27-1.57.34-.2.07-.27-.07-.34-.2-.07-.14-.41-.89-.41-.89,0,0-1.44,1.63-1.5,1.7-.27.2-.55,0-.48-.27,0-.27.75-3.54.75-3.54,0,0-.82.47-1.09.61-.2.14-.34.14-.48-.14-.14-.2-1.16-2.18-1.16-2.18h0Z"/>
    <polygon class="cls-2" points="8.27 16.59 8.27 .16 0 .16 0 16.59 8.27 16.59 8.27 16.59"/>
    <polygon class="cls-2" points="33.09 16.59 33.09 .16 24.82 .16 24.82 16.59 33.09 16.59 33.09 16.59"/>
  </g>
  <g>
    <path class="cls-1" d="m52.62,2.19c-.19-.95-.95-1.43-1.88-1.43-1.6,0-2.28,1.32-2.28,2.72,0,1.54.68,2.82,2.29,2.82,1.18,0,1.86-.83,1.94-1.94h.89c-.17,1.68-1.22,2.69-2.91,2.69-2.09,0-3.11-1.54-3.11-3.5S48.67,0,50.75,0c1.4,0,2.56.75,2.77,2.18h-.89Z"/>
    <path class="cls-1" d="m56.66,1.9c1.54,0,2.36,1.12,2.36,2.55s-.82,2.54-2.36,2.54-2.36-1.12-2.36-2.54.82-2.55,2.36-2.55Zm0,4.39c.84,0,1.52-.66,1.52-1.84s-.68-1.85-1.52-1.85-1.52.66-1.52,1.85.68,1.84,1.52,1.84Z"/>
    <path class="cls-1" d="m59.97,2.02h.75v.72h.02c.36-.55.9-.83,1.57-.83.59,0,1.14.24,1.34.83.33-.52.9-.83,1.53-.83.97,0,1.62.41,1.62,1.41v3.57h-.8v-3.19c0-.6-.16-1.08-.94-1.08s-1.27.49-1.27,1.24v3.03h-.8v-3.19c0-.63-.2-1.08-.91-1.08-.95,0-1.3.88-1.3,1.24v3.03h-.8V2.02Z"/>
    <path class="cls-1" d="m68.01,2.02h.75v.72h.02c.36-.55.9-.83,1.57-.83.59,0,1.14.24,1.34.83.33-.52.9-.83,1.53-.83.97,0,1.62.41,1.62,1.41v3.57h-.8v-3.19c0-.6-.16-1.08-.94-1.08s-1.27.49-1.27,1.24v3.03h-.8v-3.19c0-.63-.2-1.08-.91-1.08-.95,0-1.3.88-1.3,1.24v3.03h-.8V2.02Z"/>
    <path class="cls-1" d="m76.9,1.14h-.8V.16h.8v.98Zm-.8.88h.8v4.87h-.8V2.02Z"/>
    <path class="cls-1" d="m78.63,5.35c.03.72.65.94,1.31.94.5,0,1.18-.11,1.18-.73s-.79-.73-1.59-.9c-.79-.18-1.59-.44-1.59-1.38,0-.98.97-1.38,1.82-1.38,1.07,0,1.93.34,2,1.53h-.8c-.06-.62-.6-.82-1.13-.82-.48,0-1.04.13-1.04.62,0,.57.85.67,1.59.85.8.18,1.59.44,1.59,1.38,0,1.16-1.08,1.54-2.07,1.54-1.09,0-2.02-.44-2.06-1.65h.8Z"/>
    <path class="cls-1" d="m83.34,5.35c.03.72.65.94,1.31.94.5,0,1.18-.11,1.18-.73s-.79-.73-1.59-.9c-.79-.18-1.59-.44-1.59-1.38,0-.98.97-1.38,1.82-1.38,1.07,0,1.93.34,2,1.53h-.8c-.06-.62-.6-.82-1.13-.82-.48,0-1.04.13-1.04.62,0,.57.85.67,1.59.85.8.18,1.59.44,1.59,1.38,0,1.16-1.08,1.54-2.07,1.54-1.09,0-2.02-.44-2.06-1.65h.8Z"/>
    <path class="cls-1" d="m88.41,1.14h-.8V.16h.8v.98Zm-.8.88h.8v4.87h-.8V2.02Z"/>
    <path class="cls-1" d="m91.76,1.9c1.54,0,2.36,1.12,2.36,2.55s-.82,2.54-2.36,2.54-2.36-1.12-2.36-2.54.82-2.55,2.36-2.55Zm0,4.39c.84,0,1.52-.66,1.52-1.84s-.68-1.85-1.52-1.85-1.52.66-1.52,1.85.68,1.84,1.52,1.84Z"/>
    <path class="cls-1" d="m95.07,2.02h.75v.77h.02c.34-.6.89-.89,1.58-.89,1.28,0,1.68.73,1.68,1.78v3.2h-.8v-3.3c0-.59-.38-.98-.99-.98-.97,0-1.44.65-1.44,1.53v2.75h-.8V2.02Z"/>
    <path class="cls-1" d="m106.23,3.58c-.12-.61-.55-.97-1.21-.97-1.16,0-1.52.91-1.52,1.9,0,.89.4,1.78,1.42,1.78.77,0,1.23-.45,1.34-1.19h.82c-.18,1.19-.92,1.89-2.15,1.89-1.49,0-2.28-1.04-2.28-2.49s.75-2.61,2.3-2.61c1.1,0,1.99.52,2.1,1.68h-.83Z"/>
    <path class="cls-1" d="m112.3,6.87c-.14.08-.32.13-.57.13-.41,0-.68-.23-.68-.75-.44.52-1.04.75-1.71.75-.89,0-1.61-.4-1.61-1.37,0-1.1.82-1.34,1.65-1.5.89-.17,1.64-.11,1.64-.72,0-.7-.58-.81-1.08-.81-.68,0-1.18.21-1.21.92h-.8c.05-1.21.98-1.63,2.06-1.63.88,0,1.83.2,1.83,1.34v2.51c0,.38,0,.55.25.55.07,0,.14,0,.24-.05v.62Zm-1.3-2.5c-.31.23-.91.24-1.45.33-.53.09-.98.28-.98.88,0,.53.45.72.94.72,1.05,0,1.49-.66,1.49-1.1v-.82Z"/>
    <path class="cls-1" d="m113.05,2.02h.75v.77h.02c.34-.6.89-.89,1.58-.89,1.28,0,1.68.73,1.68,1.78v3.2h-.8v-3.3c0-.59-.38-.98-.99-.98-.97,0-1.44.65-1.44,1.53v2.75h-.8V2.02Z"/>
    <path class="cls-1" d="m122.6,6.87c-.14.08-.32.13-.58.13-.41,0-.68-.23-.68-.75-.44.52-1.04.75-1.71.75-.89,0-1.61-.4-1.61-1.37,0-1.1.82-1.34,1.65-1.5.89-.17,1.64-.11,1.64-.72,0-.7-.57-.81-1.08-.81-.68,0-1.18.21-1.22.92h-.8c.05-1.21.98-1.63,2.06-1.63.88,0,1.83.2,1.83,1.34v2.51c0,.38,0,.55.25.55.07,0,.14,0,.25-.05v.62Zm-1.3-2.5c-.31.23-.91.24-1.45.33-.53.09-.98.28-.98.88,0,.53.45.72.94.72,1.06,0,1.49-.66,1.49-1.1v-.82Z"/>
    <path class="cls-1" d="m127.7,6.89h-.8v-.66h-.02c-.26.54-.89.77-1.55.77-1.5,0-2.24-1.19-2.24-2.56s.73-2.53,2.22-2.53c.5,0,1.21.19,1.57.76h.02V.16h.8v6.73Zm-2.26-.59c1.07,0,1.49-.92,1.49-1.84,0-.96-.43-1.85-1.54-1.85s-1.46.93-1.46,1.88.47,1.8,1.51,1.8Z"/>
    <path class="cls-1" d="m129.78,1.14h-.8V.16h.8v.98Zm-.8.88h.8v4.87h-.8V2.02Z"/>
    <path class="cls-1" d="m135.18,5.34c-.22,1.07-.99,1.66-2.08,1.66-1.55,0-2.29-1.07-2.34-2.56,0-1.46.96-2.53,2.29-2.53,1.72,0,2.25,1.61,2.2,2.79h-3.65c-.03.85.45,1.6,1.52,1.6.66,0,1.12-.32,1.26-.95h.79Zm-.77-1.36c-.04-.76-.61-1.38-1.4-1.38-.84,0-1.34.63-1.39,1.38h2.8Z"/>
    <path class="cls-1" d="m136.09,2.02h.75v.77h.02c.34-.6.89-.89,1.58-.89,1.28,0,1.68.73,1.68,1.78v3.2h-.8v-3.3c0-.59-.38-.98-.99-.98-.97,0-1.44.65-1.44,1.53v2.75h-.8V2.02Z"/>
    <path class="cls-1" d="m141.33,2.02h.75v.77h.02c.34-.6.89-.89,1.58-.89,1.28,0,1.68.73,1.68,1.78v3.2h-.8v-3.3c0-.59-.38-.98-.99-.98-.97,0-1.44.65-1.44,1.53v2.75h-.8V2.02Z"/>
    <path class="cls-1" d="m150.72,5.34c-.22,1.07-.99,1.66-2.08,1.66-1.55,0-2.29-1.07-2.34-2.56,0-1.46.96-2.53,2.29-2.53,1.72,0,2.25,1.61,2.2,2.79h-3.65c-.03.85.45,1.6,1.52,1.6.66,0,1.12-.32,1.26-.95h.79Zm-.77-1.36c-.04-.76-.61-1.38-1.4-1.38-.84,0-1.34.63-1.39,1.38h2.8Z"/>
    <path class="cls-1" d="m52.11,16.58h-.8v-.66h-.02c-.26.54-.89.77-1.55.77-1.5,0-2.24-1.19-2.24-2.56s.73-2.53,2.22-2.53c.5,0,1.22.19,1.57.76h.02v-2.51h.8v6.73Zm-2.26-.59c1.07,0,1.49-.92,1.49-1.84,0-.96-.43-1.85-1.54-1.85s-1.46.93-1.46,1.88.47,1.8,1.51,1.8Z"/>
    <path class="cls-1" d="m57.5,15.04c-.22,1.07-.99,1.66-2.08,1.66-1.55,0-2.29-1.07-2.34-2.56,0-1.46.96-2.53,2.29-2.53,1.72,0,2.25,1.61,2.2,2.79h-3.65c-.03.85.45,1.6,1.52,1.6.66,0,1.12-.32,1.26-.95h.79Zm-.77-1.36c-.04-.76-.61-1.38-1.4-1.38-.84,0-1.34.63-1.39,1.38h2.8Z"/>
    <path class="cls-1" d="m58.9,15.05c.03.72.65.94,1.31.94.5,0,1.18-.11,1.18-.73s-.79-.72-1.59-.9c-.79-.18-1.59-.44-1.59-1.38,0-.98.97-1.38,1.82-1.38,1.07,0,1.93.34,2,1.53h-.8c-.06-.62-.6-.82-1.13-.82-.48,0-1.04.13-1.04.62,0,.57.85.67,1.59.85.8.18,1.59.44,1.59,1.39,0,1.16-1.08,1.54-2.07,1.54-1.09,0-2.02-.44-2.06-1.65h.8Z"/>
    <path class="cls-1" d="m69.94,16.17c0,1.58-.73,2.39-2.26,2.39-.91,0-1.97-.37-2.02-1.43h.8c.04.58.73.79,1.26.79,1.05,0,1.46-.75,1.46-1.85v-.32h-.02c-.26.59-.9.89-1.52.89-1.45,0-2.18-1.14-2.18-2.47,0-1.15.57-2.57,2.25-2.57.61,0,1.16.27,1.45.81h0v-.7h.75v4.46Zm-.79-2.12c0-.86-.38-1.74-1.38-1.74s-1.44.84-1.44,1.77c0,.88.32,1.86,1.38,1.86s1.45-.97,1.45-1.88Z"/>
    <path class="cls-1" d="m71.12,11.71h.75v1.03h.02c.39-.78.92-1.17,1.79-1.14v.85c-1.29,0-1.76.73-1.76,1.97v2.17h-.8v-4.87Z"/>
    <path class="cls-1" d="m78.6,16.57c-.14.08-.32.13-.57.13-.41,0-.68-.23-.68-.75-.44.52-1.04.75-1.71.75-.89,0-1.61-.4-1.61-1.37,0-1.1.82-1.34,1.65-1.5.89-.17,1.64-.11,1.64-.72,0-.7-.57-.81-1.08-.81-.68,0-1.18.21-1.22.92h-.8c.05-1.21.98-1.63,2.06-1.63.88,0,1.83.2,1.83,1.34v2.51c0,.38,0,.55.25.55.07,0,.14,0,.25-.05v.62Zm-1.3-2.5c-.31.23-.91.24-1.45.33-.53.09-.98.28-.98.88,0,.53.45.72.94.72,1.05,0,1.49-.66,1.49-1.1v-.82Z"/>
    <path class="cls-1" d="m80.2,10.84h-.8v-.98h.8v.98Zm-.8.88h.8v4.87h-.8v-4.87Z"/>
    <path class="cls-1" d="m81.44,11.71h.75v.77h.02c.34-.6.89-.89,1.58-.89,1.28,0,1.68.73,1.68,1.78v3.2h-.8v-3.3c0-.59-.38-.98-.99-.98-.97,0-1.44.65-1.44,1.53v2.75h-.8v-4.87Z"/>
    <path class="cls-1" d="m87.17,15.05c.03.72.65.94,1.31.94.5,0,1.18-.11,1.18-.73s-.79-.72-1.59-.9c-.79-.18-1.59-.44-1.59-1.38,0-.98.97-1.38,1.82-1.38,1.07,0,1.93.34,2,1.53h-.8c-.06-.62-.6-.82-1.13-.82-.48,0-1.04.13-1.04.62,0,.57.85.67,1.59.85.8.18,1.59.44,1.59,1.39,0,1.16-1.08,1.54-2.07,1.54-1.09,0-2.02-.44-2.06-1.65h.8Z"/>
  </g>
  <g>
    <path class="cls-1" d="m170.24,2.19c-.19-.95-.95-1.43-1.88-1.43-1.6,0-2.28,1.32-2.28,2.72,0,1.54.68,2.82,2.29,2.82,1.18,0,1.86-.83,1.94-1.94h.9c-.17,1.68-1.22,2.69-2.91,2.69-2.09,0-3.11-1.54-3.11-3.5S166.3,0,168.37,0c1.4,0,2.56.75,2.77,2.18h-.9Z"/>
    <path class="cls-1" d="m176.5,6.87c-.14.08-.32.13-.57.13-.41,0-.68-.23-.68-.75-.44.52-1.04.75-1.71.75-.89,0-1.61-.4-1.61-1.37,0-1.1.82-1.34,1.65-1.5.89-.17,1.64-.11,1.64-.72,0-.7-.58-.81-1.08-.81-.68,0-1.18.21-1.22.92h-.8c.05-1.21.98-1.63,2.06-1.63.88,0,1.83.2,1.83,1.34v2.51c0,.38,0,.55.25.55.07,0,.14,0,.24-.05v.62Zm-1.3-2.5c-.31.23-.91.24-1.45.33-.53.09-.98.28-.98.88,0,.53.45.72.94.72,1.05,0,1.49-.66,1.49-1.1v-.82Z"/>
    <path class="cls-1" d="m177.25,2.02h.75v.77h.02c.34-.6.89-.89,1.58-.89,1.28,0,1.68.73,1.68,1.78v3.2h-.8v-3.3c0-.59-.38-.98-.99-.98-.97,0-1.44.65-1.44,1.53v2.75h-.8V2.02Z"/>
    <path class="cls-1" d="m186.8,6.87c-.14.08-.32.13-.57.13-.41,0-.68-.23-.68-.75-.44.52-1.04.75-1.71.75-.89,0-1.61-.4-1.61-1.37,0-1.1.82-1.34,1.65-1.5.89-.17,1.64-.11,1.64-.72,0-.7-.57-.81-1.08-.81-.68,0-1.18.21-1.21.92h-.8c.05-1.21.98-1.63,2.06-1.63.88,0,1.83.2,1.83,1.34v2.51c0,.38,0,.55.25.55.07,0,.14,0,.24-.05v.62Zm-1.3-2.5c-.31.23-.91.24-1.45.33-.53.09-.98.28-.98.88,0,.53.45.72.94.72,1.05,0,1.49-.66,1.49-1.1v-.82Z"/>
    <path class="cls-1" d="m191.9,6.89h-.8v-.66h-.02c-.26.54-.89.77-1.55.77-1.5,0-2.24-1.19-2.24-2.56s.73-2.53,2.22-2.53c.5,0,1.22.19,1.57.76h.02V.16h.8v6.73Zm-2.26-.59c1.07,0,1.49-.92,1.49-1.84,0-.96-.43-1.85-1.54-1.85s-1.46.93-1.46,1.88.47,1.8,1.51,1.8Z"/>
    <path class="cls-1" d="m193.98,1.14h-.8V.16h.8v.98Zm-.8.88h.8v4.87h-.8V2.02Z"/>
    <path class="cls-1" d="m199.54,6.87c-.14.08-.32.13-.58.13-.41,0-.68-.23-.68-.75-.44.52-1.04.75-1.71.75-.89,0-1.61-.4-1.61-1.37,0-1.1.82-1.34,1.65-1.5.89-.17,1.64-.11,1.64-.72,0-.7-.57-.81-1.08-.81-.68,0-1.18.21-1.21.92h-.8c.05-1.21.98-1.63,2.06-1.63.88,0,1.83.2,1.83,1.34v2.51c0,.38,0,.55.25.55.07,0,.14,0,.25-.05v.62Zm-1.3-2.5c-.31.23-.91.24-1.45.33-.53.09-.98.28-.98.88,0,.53.45.72.94.72,1.06,0,1.49-.66,1.49-1.1v-.82Z"/>
    <path class="cls-1" d="m200.29,2.02h.75v.77h.02c.34-.6.89-.89,1.58-.89,1.28,0,1.68.73,1.68,1.78v3.2h-.8v-3.3c0-.59-.38-.98-.99-.98-.97,0-1.44.65-1.44,1.53v2.75h-.8V2.02Z"/>
    <path class="cls-1" d="m213.31,6.05c-.52.71-1.37,1-2.16,1-2.01,0-3.2-1.64-3.2-3.39C207.95,1.7,209.02,0,211.15,0c1.47,0,2.64.66,2.89,2.23h-.89c-.18-1.02-1-1.48-2-1.48-1.63,0-2.31,1.41-2.31,2.85s.81,2.68,2.31,2.68c1.39,0,2.21-.97,2.16-2.19h-2.15v-.75h2.95v3.54h-.57l-.24-.84Z"/>
    <path class="cls-1" d="m215.27,2.02h.75v1.03h.02c.39-.78.92-1.17,1.79-1.14v.85c-1.29,0-1.76.73-1.76,1.97v2.17h-.8V2.02Z"/>
    <path class="cls-1" d="m222.75,6.87c-.14.08-.32.13-.57.13-.41,0-.68-.23-.68-.75-.44.52-1.04.75-1.71.75-.89,0-1.61-.4-1.61-1.37,0-1.1.82-1.34,1.65-1.5.89-.17,1.64-.11,1.64-.72,0-.7-.58-.81-1.08-.81-.68,0-1.18.21-1.22.92h-.8c.05-1.21.98-1.63,2.06-1.63.88,0,1.83.2,1.83,1.34v2.51c0,.38,0,.55.25.55.07,0,.14,0,.24-.05v.62Zm-1.3-2.5c-.31.23-.91.24-1.45.33-.53.09-.98.28-.98.88,0,.53.45.72.94.72,1.05,0,1.49-.66,1.49-1.1v-.82Z"/>
    <path class="cls-1" d="m224.35,1.14h-.8V.16h.8v.98Zm-.8.88h.8v4.87h-.8V2.02Z"/>
    <path class="cls-1" d="m225.59,2.02h.75v.77h.02c.34-.6.89-.89,1.58-.89,1.28,0,1.68.73,1.68,1.78v3.2h-.8v-3.3c0-.59-.38-.98-.99-.98-.97,0-1.44.65-1.44,1.53v2.75h-.8V2.02Z"/>
    <path class="cls-1" d="m170.24,11.88c-.19-.95-.95-1.43-1.88-1.43-1.6,0-2.28,1.32-2.28,2.72,0,1.54.68,2.82,2.29,2.82,1.18,0,1.86-.83,1.94-1.94h.9c-.17,1.68-1.22,2.69-2.91,2.69-2.09,0-3.11-1.55-3.11-3.5s1.11-3.54,3.18-3.54c1.4,0,2.56.75,2.77,2.19h-.9Z"/>
    <path class="cls-1" d="m174.29,11.6c1.54,0,2.36,1.12,2.36,2.55s-.82,2.54-2.36,2.54-2.36-1.12-2.36-2.54.82-2.55,2.36-2.55Zm0,4.39c.84,0,1.52-.66,1.52-1.84s-.68-1.85-1.52-1.85-1.52.66-1.52,1.85.68,1.84,1.52,1.84Z"/>
    <path class="cls-1" d="m177.6,11.71h.75v.72h.02c.36-.55.9-.83,1.57-.83.59,0,1.14.24,1.34.83.33-.52.9-.83,1.53-.83.97,0,1.62.41,1.62,1.41v3.57h-.8v-3.19c0-.6-.16-1.08-.94-1.08s-1.27.49-1.27,1.24v3.03h-.8v-3.19c0-.63-.2-1.08-.91-1.08-.95,0-1.3.88-1.3,1.24v3.03h-.8v-4.87Z"/>
    <path class="cls-1" d="m185.64,11.71h.75v.72h.02c.36-.55.9-.83,1.57-.83.59,0,1.14.24,1.34.83.33-.52.9-.83,1.53-.83.97,0,1.62.41,1.62,1.41v3.57h-.8v-3.19c0-.6-.16-1.08-.94-1.08s-1.27.49-1.27,1.24v3.03h-.8v-3.19c0-.63-.2-1.08-.91-1.08-.95,0-1.3.88-1.3,1.24v3.03h-.8v-4.87Z"/>
    <path class="cls-1" d="m194.52,10.84h-.8v-.98h.8v.98Zm-.8.88h.8v4.87h-.8v-4.87Z"/>
    <path class="cls-1" d="m196.26,15.05c.03.72.65.94,1.31.94.5,0,1.18-.11,1.18-.73s-.79-.72-1.59-.9c-.79-.18-1.59-.44-1.59-1.38,0-.98.97-1.38,1.82-1.38,1.07,0,1.93.34,2,1.53h-.8c-.06-.62-.6-.82-1.13-.82-.48,0-1.04.13-1.04.62,0,.57.85.67,1.59.85.8.18,1.59.44,1.59,1.39,0,1.16-1.08,1.54-2.07,1.54-1.09,0-2.02-.44-2.06-1.65h.8Z"/>
    <path class="cls-1" d="m200.97,15.05c.03.72.65.94,1.31.94.5,0,1.18-.11,1.18-.73s-.79-.72-1.59-.9c-.79-.18-1.59-.44-1.59-1.38,0-.98.97-1.38,1.82-1.38,1.07,0,1.93.34,2,1.53h-.8c-.06-.62-.6-.82-1.13-.82-.48,0-1.04.13-1.04.62,0,.57.85.67,1.59.85.8.18,1.59.44,1.59,1.39,0,1.16-1.08,1.54-2.07,1.54-1.09,0-2.02-.44-2.06-1.65h.8Z"/>
    <path class="cls-1" d="m206.04,10.84h-.8v-.98h.8v.98Zm-.8.88h.8v4.87h-.8v-4.87Z"/>
    <path class="cls-1" d="m209.38,11.6c1.54,0,2.36,1.12,2.36,2.55s-.82,2.54-2.36,2.54-2.36-1.12-2.36-2.54.82-2.55,2.36-2.55Zm0,4.39c.84,0,1.52-.66,1.52-1.84s-.68-1.85-1.52-1.85-1.52.66-1.52,1.85.68,1.84,1.52,1.84Z"/>
    <path class="cls-1" d="m212.69,11.71h.75v.77h.02c.34-.6.89-.89,1.58-.89,1.28,0,1.68.73,1.68,1.78v3.2h-.8v-3.3c0-.59-.38-.98-.99-.98-.97,0-1.44.65-1.44,1.53v2.75h-.8v-4.87Z"/>
  </g>
</svg>