<?xml version="1.0" encoding="utf-8"?>
<!-- Generator: Adobe Illustrator 28.0.0, SVG Export Plug-In . SVG Version: 6.00 Build 0)  -->
<svg version="1.1" id="Layer_1" xmlns="http://www.w3.org/2000/svg" xmlns:xlink="http://www.w3.org/1999/xlink" x="0px" y="0px"
	 viewBox="0 0 800 100" style="enable-background:new 0 0 800 100;" xml:space="preserve">
<style type="text/css">
	.st0{fill:#FFFFFF;}
	.st1{fill:#EF4135;}
</style>
<g>
	<g>
		<rect y="0.32" class="st1" width="49.19" height="99.8"/>
		<path class="st1" d="M100.29,92.46c0,0-0.67-16.82-0.67-18.49c0-1.67,1.39-2.25,3.04-1.88c1.66,0.37,17.14,3.56,17.14,3.56
			s-1.17-3.4-2-5.91c-0.83-2.51,0.26-2.98,0.83-3.49c0.57-0.53,17.3-15.21,17.3-15.21l-2.73-1.36c-1.66-0.77-1.4-2.2-1.13-3.15
			c0.26-0.94,3.01-10.74,3.01-10.74s-7.23,1.65-8.92,1.91c-1.35,0.2-1.8-0.42-2.22-1.36c-0.41-0.94-2.17-5.24-2.17-5.24
			s-8.85,9.93-9.03,10.12c-1.71,1.57-3.36,0.36-3.05-1.48c0.28-1.67,4.54-21.52,4.54-21.52s-4.69,2.82-6.24,3.77
			c-1.54,0.94-2.38,0.78-3.21-0.74c-0.83-1.52-6.62-13.3-6.62-13.3l0,0c0,0-5.79,11.77-6.62,13.3c-0.81,1.52-1.65,1.68-3.19,0.74
			c-1.55-0.94-6.25-3.77-6.25-3.77s4.25,19.85,4.55,21.52c0.31,1.83-1.34,3.04-3.04,1.48c-0.2-0.18-9.04-10.12-9.04-10.12
			s-1.76,4.29-2.17,5.24c-0.4,0.94-0.87,1.57-2.22,1.36c-1.69-0.26-9.19-1.91-9.19-1.91s3.05,9.81,3.3,10.74
			c0.26,0.94,0.52,2.37-1.13,3.15l-2.74,1.36c0,0,16.73,14.68,17.32,15.21c0.55,0.52,1.64,0.99,0.81,3.49
			c-0.81,2.52-2.01,5.91-2.01,5.91S92,72.46,93.67,72.09c1.65-0.36,3.04,0.21,3.04,1.88c0,1.67-0.67,18.49-0.67,18.49H100.29z"/>
		<rect x="147.47" y="0.32" class="st1" width="49.19" height="99.8"/>
	</g>
	<g>
		<g>
			<g>
				<g>
					<g>
						<g>
							<path d="M308.56,12.73c-0.29-6.44-5.62-8.46-10.31-8.46c-3.53,0-9.51,0.98-9.51,7.3c0,3.53,2.5,4.69,4.94,5.27l11.87,2.72
								c5.38,1.27,9.43,4.52,9.43,11.12c0,9.85-9.15,12.57-16.27,12.57c-7.7,0-10.72-2.32-12.57-3.99
								c-3.54-3.18-4.23-6.66-4.23-10.54h5.28c0,7.53,6.14,9.73,11.46,9.73c4.06,0,10.89-1.04,10.89-7.01
								c0-4.35-2.03-5.73-8.86-7.36l-8.51-1.97c-2.72-0.64-8.87-2.55-8.87-9.79c0-6.5,4.22-12.86,14.31-12.86
								c14.54,0,15.98,8.7,16.21,13.27H308.56z"/>
							<path d="M339.96,31.67c0,4.06-4.64,7.12-9.39,7.12c-3.83,0-5.5-1.98-5.5-5.28c0-3.81,3.99-4.57,6.49-4.92
								c6.31-0.8,7.59-1.27,8.4-1.91V31.67z M325.99,21.06c0.35-2.31,1.16-5.84,6.96-5.84c4.81,0,7.12,1.73,7.12,4.92
								c0,3.01-1.45,3.48-2.66,3.58l-8.4,1.05c-8.46,1.04-9.21,6.96-9.21,9.51c0,5.21,3.93,8.74,9.5,8.74
								c5.9,0,8.97-2.78,10.95-4.93c0.16,2.32,0.86,4.65,5.38,4.65c1.16,0,1.92-0.36,2.78-0.58v-3.71
								c-0.58,0.11-1.21,0.23-1.68,0.23c-1.04,0-1.68-0.52-1.68-1.8V19.44c0-7.75-8.8-8.45-11.23-8.45
								c-7.48,0-12.29,2.83-12.52,10.07H325.99z"/>
							<path d="M378.36,42.16h-5.1V23.5c0-5.27-1.51-7.93-6.49-7.93c-2.9,0-7.99,1.85-7.99,10.08v16.51h-5.1v-30.3h4.81v4.28h0.12
								c1.11-1.62,3.94-5.15,9.15-5.15c4.7,0,10.6,1.91,10.6,10.53V42.16z"/>
							<path d="M392.14,16.08v19.7c0,2.37,2.03,2.37,3.08,2.37h1.8v4c-1.86,0.16-3.3,0.4-3.82,0.4c-5.03,0-6.14-2.85-6.14-6.49
								V16.08h-4.12v-4.23h4.12V3.41h5.09v8.45h4.88v4.23H392.14z"/>
							<path d="M423.19-0.37h-6.25l-5.16,8.17h3.88L423.19-0.37z M422.61,32.65c-0.17,2.27-3.01,5.97-7.82,5.97
								c-5.85,0-8.8-3.65-8.8-9.96h22.13c0-10.72-4.28-17.67-13.03-17.67c-10.03,0-14.55,7.47-14.55,16.86
								c0,8.74,5.04,15.17,13.55,15.17c4.87,0,6.84-1.16,8.23-2.09c3.82-2.55,5.22-6.83,5.39-8.28H422.61z M405.99,24.6
								c0-4.69,3.7-9.03,8.4-9.03c6.2,0,8.17,4.35,8.46,9.03H405.99z"/>
							<path d="M312.67,71c-1.56-7.3-7.64-8.63-11.64-8.63c-7.52,0-13.6,5.57-13.6,16.5c0,9.79,3.48,17.33,13.78,17.33
								c3.65,0,9.95-1.74,11.87-11.41h5.44c-2.31,15.69-15.06,16.39-18.18,16.39c-9.43,0-18.7-6.14-18.7-22.12
								c0-12.81,7.3-21.67,19.4-21.67c10.72,0,16.28,6.67,17.09,13.62H312.67z"/>
							<path d="M343.15,89.58c0,4.06-4.64,7.13-9.39,7.13c-3.82,0-5.5-1.97-5.5-5.28c0-3.83,4-4.58,6.49-4.92
								c6.32-0.82,7.59-1.28,8.4-1.91V89.58z M329.18,78.99c0.35-2.33,1.17-5.85,6.96-5.85c4.81,0,7.12,1.73,7.12,4.92
								c0,3.01-1.45,3.47-2.66,3.59l-8.4,1.04c-8.46,1.05-9.21,6.95-9.21,9.51c0,5.21,3.94,8.74,9.5,8.74
								c5.9,0,8.97-2.77,10.94-4.92c0.18,2.32,0.87,4.64,5.39,4.64c1.17,0,1.92-0.35,2.78-0.58v-3.71
								c-0.59,0.11-1.22,0.23-1.68,0.23c-1.05,0-1.68-0.52-1.68-1.79V77.37c0-7.76-8.8-8.45-11.23-8.45
								c-7.47,0-12.28,2.84-12.52,10.08H329.18z"/>
							<path d="M381.54,100.08h-5.09V81.41c0-5.26-1.51-7.92-6.49-7.92c-2.9,0-8,1.85-8,10.07v16.51h-5.1v-30.3h4.82v4.29h0.12
								c1.09-1.62,3.93-5.15,9.14-5.15c4.7,0,10.6,1.91,10.6,10.54V100.08z"/>
							<path d="M407.55,89.58c0,4.06-4.63,7.13-9.38,7.13c-3.82,0-5.5-1.97-5.5-5.28c0-3.83,4-4.58,6.49-4.92
								c6.31-0.82,7.58-1.28,8.4-1.91V89.58z M393.59,78.99c0.35-2.33,1.17-5.85,6.95-5.85c4.81,0,7.13,1.73,7.13,4.92
								c0,3.01-1.45,3.47-2.66,3.59l-8.4,1.04c-8.45,1.05-9.21,6.95-9.21,9.51c0,5.21,3.93,8.74,9.5,8.74
								c5.9,0,8.97-2.77,10.94-4.92c0.18,2.32,0.87,4.64,5.39,4.64c1.17,0,1.91-0.35,2.78-0.58v-3.71
								c-0.58,0.11-1.22,0.23-1.67,0.23c-1.06,0-1.69-0.52-1.69-1.79V77.37c0-7.76-8.79-8.45-11.23-8.45
								c-7.47,0-12.27,2.84-12.51,10.08H393.59z"/>
							<path d="M424.82,84.84c0-3.88,0.4-11.35,8.28-11.35c7.35,0,8.17,7.92,8.17,12.85c0,8.05-5.04,10.19-8.29,10.19
								C427.42,96.54,424.82,91.5,424.82,84.84z M446.42,58.48h-5.09v15.18l-0.12,0.41c-1.21-1.74-3.53-5.15-9.04-5.15
								c-8.05,0-12.62,6.6-12.62,15.11c0,7.24,3.01,16.91,13.32,16.91c2.95,0,6.43-0.93,8.62-5.03h0.12v4.17h4.81V58.48z"/>
							<path d="M453.32,78.99c0.22-7.24,5.03-10.08,12.51-10.08c2.44,0,11.23,0.69,11.23,8.45V94.8c0,1.27,0.64,1.79,1.69,1.79
								c0.45,0,1.09-0.12,1.67-0.23v3.71c-0.87,0.22-1.63,0.58-2.78,0.58c-4.52,0-5.21-2.32-5.39-4.64
								c-1.97,2.15-5.03,4.92-10.94,4.92c-5.57,0-9.51-3.53-9.51-8.74c0-2.56,0.75-8.46,9.21-9.51l8.4-1.04
								c1.22-0.12,2.66-0.58,2.66-3.59c0-3.19-2.31-4.92-7.12-4.92c-5.79,0-6.6,3.52-6.95,5.85H453.32z M471.96,84.61
								c-0.8,0.63-2.08,1.09-8.39,1.91c-2.5,0.34-6.49,1.09-6.49,4.92c0,3.31,1.67,5.28,5.5,5.28c4.75,0,9.38-3.08,9.38-7.13V84.61z
								"/>
						</g>
					</g>
				</g>
			</g>
		</g>
		<g>
			<g>
				<g>
					<g>
						<g>
							<path d="M595.15,0.56h5.61v41.6h-5.61v-19.4h-21.72v19.4h-5.62V0.56h5.62v17.21h21.72V0.56z"/>
							<path d="M612.93,24.6c0-4.69,3.7-9.03,8.39-9.03c6.2,0,8.17,4.35,8.46,9.03H612.93z M629.55,32.65
								c-0.16,2.27-3.01,5.97-7.82,5.97c-5.85,0-8.8-3.65-8.8-9.96h22.12c0-10.72-4.29-17.67-13.02-17.67
								c-10.02,0-14.54,7.47-14.54,16.86c0,8.74,5.03,15.17,13.56,15.17c4.86,0,6.83-1.16,8.22-2.09c3.83-2.55,5.21-6.83,5.39-8.28
								H629.55z"/>
							<path d="M659.62,31.67c0,4.06-4.64,7.12-9.38,7.12c-3.82,0-5.5-1.98-5.5-5.28c0-3.81,3.99-4.57,6.48-4.92
								c6.31-0.8,7.59-1.27,8.4-1.91V31.67z M645.66,21.06c0.34-2.31,1.15-5.84,6.95-5.84c4.81,0,7.12,1.73,7.12,4.92
								c0,3.01-1.45,3.48-2.67,3.58l-8.4,1.05c-8.45,1.04-9.2,6.96-9.2,9.51c0,5.21,3.93,8.74,9.5,8.74c5.9,0,8.98-2.78,10.95-4.93
								c0.17,2.32,0.87,4.65,5.38,4.65c1.16,0,1.92-0.36,2.79-0.58v-3.71c-0.59,0.11-1.22,0.23-1.68,0.23
								c-1.05,0-1.67-0.52-1.67-1.8V19.44c0-7.75-8.8-8.45-11.24-8.45c-7.48,0-12.28,2.83-12.52,10.07H645.66z"/>
							<path d="M678.56,42.16h-5.1V0.56h5.1V42.16z"/>
							<path d="M692.45,16.08v19.7c0,2.37,2.04,2.37,3.07,2.37h1.81v4c-1.87,0.16-3.31,0.4-3.83,0.4c-5.04,0-6.14-2.85-6.14-6.49
								V16.08h-4.11v-4.23h4.11V3.41h5.09v8.45h4.88v4.23H692.45z"/>
							<path d="M726.98,42.16h-5.09V22.34c0-4.11-1.16-6.78-6.04-6.78c-4.17,0-8.46,2.43-8.46,10.08v16.51h-5.09V0.56h5.09v15.36
								h0.12c1.45-1.91,3.99-4.93,8.86-4.93c4.7,0,10.6,1.91,10.6,10.53V42.16z"/>
							<path d="M596.95,71c-1.56-7.3-7.66-8.63-11.64-8.63c-7.53,0-13.62,5.57-13.62,16.5c0,9.79,3.47,17.33,13.78,17.33
								c3.65,0,9.96-1.74,11.87-11.41h5.45c-2.31,15.69-15.06,16.39-18.19,16.39c-9.45,0-18.71-6.14-18.71-22.12
								c0-12.81,7.3-21.67,19.41-21.67c10.71,0,16.27,6.67,17.08,13.62H596.95z"/>
							<path d="M627.41,89.58c0,4.06-4.63,7.13-9.38,7.13c-3.82,0-5.51-1.97-5.51-5.28c0-3.83,4-4.58,6.5-4.92
								c6.31-0.82,7.59-1.28,8.4-1.91V89.58z M613.46,78.99c0.35-2.33,1.16-5.85,6.95-5.85c4.81,0,7.12,1.73,7.12,4.92
								c0,3.01-1.45,3.47-2.67,3.59l-8.39,1.04c-8.47,1.05-9.22,6.95-9.22,9.51c0,5.21,3.94,8.74,9.51,8.74
								c5.9,0,8.97-2.77,10.94-4.92c0.18,2.32,0.87,4.64,5.4,4.64c1.15,0,1.91-0.35,2.78-0.58v-3.71c-0.58,0.11-1.22,0.23-1.68,0.23
								c-1.05,0-1.68-0.52-1.68-1.79V77.37c0-7.76-8.8-8.45-11.23-8.45c-7.47,0-12.28,2.84-12.52,10.08H613.46z"/>
							<path d="M665.81,100.08h-5.09V81.41c0-5.26-1.51-7.92-6.49-7.92c-2.9,0-8,1.85-8,10.07v16.51h-5.1v-30.3h4.82v4.29h0.11
								c1.1-1.62,3.93-5.15,9.15-5.15c4.69,0,10.59,1.91,10.59,10.54V100.08z"/>
							<path d="M691.82,89.58c0,4.06-4.62,7.13-9.38,7.13c-3.82,0-5.51-1.97-5.51-5.28c0-3.83,3.99-4.58,6.49-4.92
								c6.31-0.82,7.59-1.28,8.4-1.91V89.58z M677.87,78.99c0.35-2.33,1.15-5.85,6.95-5.85c4.8,0,7.12,1.73,7.12,4.92
								c0,3.01-1.45,3.47-2.66,3.59l-8.41,1.04c-8.45,1.05-9.2,6.95-9.2,9.51c0,5.21,3.94,8.74,9.5,8.74
								c5.91,0,8.98-2.77,10.94-4.92c0.17,2.32,0.88,4.64,5.39,4.64c1.16,0,1.92-0.35,2.78-0.58v-3.71
								c-0.58,0.11-1.21,0.23-1.67,0.23c-1.05,0-1.68-0.52-1.68-1.79V77.37c0-7.76-8.8-8.45-11.24-8.45
								c-7.46,0-12.28,2.84-12.51,10.08H677.87z"/>
							<path d="M709.09,84.84c0-3.88,0.4-11.35,8.29-11.35c7.35,0,8.16,7.92,8.16,12.85c0,8.05-5.03,10.19-8.28,10.19
								C711.69,96.54,709.09,91.5,709.09,84.84z M730.69,58.48h-5.1v15.18l-0.11,0.41c-1.22-1.74-3.54-5.15-9.04-5.15
								c-8.05,0-12.63,6.6-12.63,15.11c0,7.24,3.02,16.91,13.32,16.91c2.96,0,6.45-0.93,8.64-5.03h0.11v4.17h4.81V58.48z"/>
							<path d="M756.24,89.58c0,4.06-4.64,7.13-9.39,7.13c-3.82,0-5.5-1.97-5.5-5.28c0-3.83,4-4.58,6.5-4.92
								c6.31-0.82,7.58-1.28,8.4-1.91V89.58z M742.27,78.99c0.36-2.33,1.16-5.85,6.95-5.85c4.82,0,7.13,1.73,7.13,4.92
								c0,3.01-1.45,3.47-2.67,3.59l-8.4,1.04c-8.46,1.05-9.21,6.95-9.21,9.51c0,5.21,3.93,8.74,9.5,8.74
								c5.9,0,8.96-2.77,10.93-4.92c0.18,2.32,0.88,4.64,5.4,4.64c1.16,0,1.91-0.35,2.78-0.58v-3.71c-0.58,0.11-1.21,0.23-1.68,0.23
								c-1.05,0-1.68-0.52-1.68-1.79V77.37c0-7.76-8.8-8.45-11.23-8.45c-7.47,0-12.29,2.84-12.52,10.08H742.27z"/>
						</g>
					</g>
				</g>
			</g>
		</g>
	</g>
</g>
</svg>
