<?xml version="1.0" encoding="utf-8"?>
<!-- Generator: Adobe Illustrator 28.0.0, SVG Export Plug-In . SVG Version: 6.00 Build 0)  -->
<svg version="1.1" id="Layer_1" xmlns="http://www.w3.org/2000/svg" xmlns:xlink="http://www.w3.org/1999/xlink" x="0px" y="0px"
	 viewBox="0 0 800 100" style="enable-background:new 0 0 800 100;" xml:space="preserve">
<style type="text/css">
	.st0{fill:#FFFFFF;}
	.st1{fill:#EF4135;}
</style>
<g>
	<g>
		<rect y="0.42" class="st1" width="49" height="99.42"/>
		<path class="st1" d="M99.91,92.22c0,0-0.66-16.76-0.66-18.42c0-1.67,1.39-2.24,3.03-1.88c1.65,0.37,17.08,3.54,17.08,3.54
			s-1.16-3.38-2-5.89c-0.82-2.5,0.26-2.96,0.83-3.48c0.57-0.53,17.23-15.16,17.23-15.16l-2.72-1.35c-1.65-0.77-1.4-2.19-1.13-3.13
			c0.26-0.94,3-10.71,3-10.71s-7.2,1.64-8.89,1.9c-1.34,0.2-1.79-0.42-2.21-1.36c-0.41-0.94-2.16-5.21-2.16-5.21s-8.82,9.89-9,10.08
			c-1.7,1.56-3.34,0.36-3.04-1.47c0.28-1.67,4.52-21.44,4.52-21.44s-4.67,2.81-6.22,3.76c-1.54,0.94-2.37,0.78-3.19-0.74
			C103.56,19.73,97.79,8,97.79,8l0,0c0,0-5.76,11.73-6.6,13.25c-0.81,1.51-1.64,1.67-3.18,0.74c-1.55-0.94-6.23-3.76-6.23-3.76
			s4.24,19.78,4.53,21.44c0.31,1.83-1.34,3.03-3.03,1.47c-0.2-0.19-9.01-10.08-9.01-10.08s-1.75,4.28-2.16,5.21
			c-0.4,0.94-0.86,1.56-2.21,1.36c-1.68-0.26-9.16-1.9-9.16-1.9s3.04,9.77,3.29,10.71c0.26,0.94,0.52,2.36-1.12,3.13l-2.73,1.35
			c0,0,16.67,14.62,17.25,15.16c0.55,0.52,1.63,0.98,0.81,3.48c-0.81,2.51-2,5.89-2,5.89s15.42-3.17,17.08-3.54
			c1.64-0.36,3.03,0.21,3.03,1.88c0,1.67-0.67,18.42-0.67,18.42H99.91z"/>
		<rect x="146.92" y="0.42" class="st1" width="49" height="99.42"/>
	</g>
	<polygon points="309.77,0.88 315.36,0.88 315.36,42.27 309.77,42.27 309.77,22.96 288.16,22.96 288.16,42.27 282.56,42.27 
		282.56,0.88 288.16,0.88 288.16,18 309.77,18 	"/>
	<path d="M344.01,32.82c-0.17,2.25-2.99,5.94-7.79,5.94c-5.82,0-8.75-3.64-8.75-9.92h22.01c0-10.66-4.27-17.57-12.96-17.57
		c-9.97,0-14.48,7.43-14.48,16.78c0,8.7,5.02,15.1,13.49,15.1c4.84,0,6.81-1.15,8.2-2.07c3.79-2.54,5.17-6.81,5.35-8.25H344.01z
		 M327.47,24.8c0-4.66,3.69-8.99,8.36-8.99c6.15,0,8.11,4.33,8.4,8.99H327.47z"/>
	<path d="M360.03,21.29c0.34-2.31,1.15-5.82,6.92-5.82c4.77,0,7.09,1.73,7.09,4.9c0,3-1.43,3.45-2.66,3.57l-8.36,1.04
		c-8.41,1.04-9.16,6.92-9.16,9.45c0,5.19,3.92,8.71,9.45,8.71c5.89,0,8.94-2.78,10.91-4.91c0.16,2.31,0.86,4.61,5.36,4.61
		c1.15,0,1.9-0.34,2.77-0.58v-3.68c-0.58,0.12-1.22,0.23-1.67,0.23c-1.05,0-1.67-0.51-1.67-1.79V19.68c0-7.72-8.77-8.42-11.19-8.42
		c-7.44,0-12.22,2.82-12.45,10.03H360.03z M373.93,31.84c0,4.03-4.62,7.09-9.34,7.09c-3.8,0-5.48-1.95-5.48-5.25
		c0-3.8,3.97-4.55,6.45-4.89c6.28-0.81,7.56-1.27,8.36-1.91V31.84z"/>
	<rect x="387.7" y="0.88" width="5.08" height="41.39"/>
	<path d="M406.6,16.34v19.59c0,2.37,2.02,2.37,3.06,2.37h1.79v3.97c-1.86,0.18-3.29,0.41-3.81,0.41c-5.01,0-6.11-2.82-6.11-6.45
		V16.34h-4.09v-4.21h4.09V3.7h5.07v8.42h4.85v4.21H406.6z"/>
	<path d="M440.97,42.27h-5.07V22.56c0-4.09-1.16-6.75-6-6.75c-4.15,0-8.42,2.43-8.42,10.04v16.42h-5.07V0.88h5.07v15.28h0.13
		c1.43-1.9,3.96-4.9,8.8-4.9c4.68,0,10.57,1.9,10.57,10.48V42.27z"/>
	<path d="M311.56,70.98c-1.56-7.27-7.61-8.59-11.59-8.59c-7.49,0-13.54,5.54-13.54,16.42c0,9.74,3.45,17.24,13.72,17.24
		c3.64,0,9.92-1.74,11.82-11.36h5.43c-2.31,15.63-15,16.32-18.12,16.32c-9.39,0-18.61-6.12-18.61-22.03
		c0-12.73,7.26-21.55,19.31-21.55c10.67,0,16.2,6.63,17.01,13.54H311.56z"/>
	<path d="M327.99,78.93c0.34-2.3,1.14-5.82,6.91-5.82c4.78,0,7.08,1.73,7.08,4.9c0,2.99-1.43,3.46-2.65,3.57l-8.35,1.04
		c-8.43,1.04-9.17,6.91-9.17,9.45c0,5.19,3.91,8.71,9.45,8.71c5.87,0,8.93-2.78,10.9-4.91c0.17,2.32,0.86,4.61,5.35,4.61
		c1.16,0,1.9-0.33,2.77-0.57v-3.68c-0.57,0.12-1.22,0.22-1.67,0.22c-1.03,0-1.68-0.52-1.68-1.78V77.32c0-7.72-8.76-8.41-11.17-8.41
		c-7.44,0-12.22,2.82-12.45,10.02H327.99z M341.88,89.48c0,4.04-4.62,7.09-9.35,7.09c-3.8,0-5.47-1.95-5.47-5.24
		c0-3.8,3.98-4.55,6.46-4.9c6.28-0.81,7.56-1.27,8.37-1.9V89.48z"/>
	<path d="M380.09,99.91h-5.07V81.35c0-5.25-1.5-7.9-6.46-7.9c-2.88,0-7.95,1.85-7.95,10.03v16.43h-5.07V69.76h4.78v4.27h0.11
		c1.1-1.62,3.93-5.13,9.11-5.13c4.67,0,10.54,1.9,10.54,10.49V99.91z"/>
	<path d="M392.08,78.93c0.36-2.3,1.16-5.82,6.93-5.82c4.79,0,7.09,1.73,7.09,4.9c0,2.99-1.45,3.46-2.67,3.57l-8.35,1.04
		c-8.41,1.04-9.16,6.91-9.16,9.45c0,5.19,3.92,8.71,9.45,8.71c5.88,0,8.93-2.78,10.9-4.91c0.17,2.32,0.85,4.61,5.35,4.61
		c1.16,0,1.92-0.33,2.77-0.57v-3.68c-0.57,0.12-1.21,0.22-1.68,0.22c-1.02,0-1.66-0.52-1.66-1.78V77.32c0-7.72-8.77-8.41-11.18-8.41
		c-7.43,0-12.21,2.82-12.45,10.02H392.08z M405.97,89.48c0,4.04-4.61,7.09-9.35,7.09c-3.8,0-5.46-1.95-5.46-5.24
		c0-3.8,3.96-4.55,6.44-4.9c6.3-0.81,7.56-1.27,8.37-1.9V89.48z"/>
	<path d="M444.67,58.53h-5.09v15.1l-0.11,0.41c-1.22-1.73-3.52-5.13-9-5.13c-8,0-12.56,6.56-12.56,15.05c0,7.2,3,16.83,13.26,16.83
		c2.93,0,6.41-0.93,8.59-5.01h0.11v4.15h4.8V58.53z M423.15,84.75c0-3.86,0.4-11.3,8.24-11.3c7.31,0,8.13,7.9,8.13,12.8
		c0,8.01-5.02,10.15-8.25,10.15C425.75,96.4,423.15,91.38,423.15,84.75z"/>
	<path d="M456.18,78.93c0.34-2.3,1.16-5.82,6.91-5.82c4.78,0,7.1,1.73,7.1,4.9c0,2.99-1.44,3.46-2.66,3.57l-8.35,1.04
		c-8.42,1.04-9.16,6.91-9.16,9.45c0,5.19,3.92,8.71,9.45,8.71c5.88,0,8.93-2.78,10.89-4.91c0.18,2.32,0.87,4.61,5.37,4.61
		c1.15,0,1.89-0.33,2.76-0.57v-3.68c-0.55,0.12-1.21,0.22-1.66,0.22c-1.04,0-1.68-0.52-1.68-1.78V77.32c0-7.72-8.77-8.41-11.18-8.41
		c-7.45,0-12.22,2.82-12.45,10.02H456.18z M470.08,89.48c0,4.04-4.6,7.09-9.33,7.09c-3.81,0-5.49-1.95-5.49-5.24
		c0-3.8,4-4.55,6.47-4.9c6.27-0.81,7.55-1.27,8.36-1.9V89.48z"/>
	<path d="M591.04,12.98c-0.28-6.39-5.58-8.4-10.26-8.4c-3.51,0-9.45,0.97-9.45,7.26c0,3.52,2.47,4.66,4.88,5.24l11.83,2.71
		c5.35,1.27,9.39,4.5,9.39,11.07c0,9.79-9.12,12.5-16.2,12.5c-7.67,0-10.67-2.29-12.51-3.97c-3.52-3.17-4.21-6.63-4.21-10.49h5.25
		c0,7.5,6.11,9.69,11.41,9.69c4.04,0,10.85-1.04,10.85-6.97c0-4.34-2.02-5.71-8.82-7.32l-8.48-1.96c-2.72-0.64-8.81-2.54-8.81-9.75
		c0-6.45,4.2-12.8,14.23-12.8c14.46,0,15.9,8.65,16.14,13.2H591.04z"/>
	<path d="M608.39,21.29c0.34-2.31,1.15-5.82,6.91-5.82c4.78,0,7.1,1.73,7.1,4.9c0,3-1.46,3.45-2.65,3.57l-8.37,1.04
		c-8.41,1.04-9.16,6.92-9.16,9.45c0,5.19,3.92,8.71,9.45,8.71c5.87,0,8.94-2.78,10.89-4.91c0.18,2.31,0.87,4.61,5.38,4.61
		c1.14,0,1.89-0.34,2.76-0.58v-3.68c-0.58,0.12-1.22,0.23-1.67,0.23c-1.04,0-1.68-0.51-1.68-1.79V19.68c0-7.72-8.76-8.42-11.18-8.42
		c-7.44,0-12.23,2.82-12.45,10.03H608.39z M622.28,31.84c0,4.03-4.61,7.09-9.33,7.09c-3.8,0-5.48-1.95-5.48-5.25
		c0-3.8,3.98-4.55,6.46-4.89c6.29-0.81,7.56-1.27,8.36-1.91V31.84z"/>
	<path d="M660.5,42.27h-5.09V23.71c0-5.24-1.49-7.9-6.45-7.9c-2.88,0-7.95,1.85-7.95,10.04v16.42h-5.09V12.13h4.79v4.26h0.12
		c1.08-1.61,3.91-5.13,9.1-5.13c4.67,0,10.55,1.9,10.55,10.48V42.27z"/>
	<path d="M674.2,16.34v19.59c0,2.37,2.03,2.37,3.06,2.37h1.8v3.97c-1.85,0.18-3.3,0.41-3.8,0.41c-5.03,0-6.12-2.82-6.12-6.45V16.34
		h-4.08v-4.21h4.08V3.7h5.06v8.42h4.86v4.21H674.2z"/>
	<path d="M688,24.8c0-4.66,3.69-8.99,8.35-8.99c6.16,0,8.13,4.33,8.42,8.99H688z M704.54,32.82c-0.18,2.25-3,5.94-7.77,5.94
		c-5.83,0-8.77-3.64-8.77-9.92h22c0-10.66-4.26-17.57-12.96-17.57c-9.97,0-14.47,7.43-14.47,16.78c0,8.7,5.01,15.1,13.5,15.1
		c4.84,0,6.79-1.15,8.17-2.07c3.8-2.54,5.19-6.81,5.36-8.25H704.54z M705.11-0.04h-6.22l-5.13,8.13h3.86L705.11-0.04z"/>
	<path d="M595.12,70.98c-1.56-7.27-7.6-8.59-11.58-8.59c-7.47,0-13.53,5.54-13.53,16.42c0,9.74,3.44,17.24,13.7,17.24
		c3.64,0,9.91-1.74,11.83-11.36h5.4c-2.3,15.63-14.98,16.32-18.09,16.32c-9.4,0-18.62-6.12-18.62-22.03
		c0-12.73,7.27-21.55,19.3-21.55c10.66,0,16.2,6.63,17.01,13.54H595.12z"/>
	<path d="M611.55,78.93c0.35-2.3,1.15-5.82,6.93-5.82c4.78,0,7.07,1.73,7.07,4.9c0,2.99-1.43,3.46-2.64,3.57l-8.37,1.04
		c-8.4,1.04-9.17,6.91-9.17,9.45c0,5.19,3.92,8.71,9.46,8.71c5.89,0,8.93-2.78,10.89-4.91c0.17,2.32,0.86,4.61,5.37,4.61
		c1.15,0,1.89-0.33,2.75-0.57v-3.68c-0.57,0.12-1.21,0.22-1.67,0.22c-1.03,0-1.66-0.52-1.66-1.78V77.32c0-7.72-8.76-8.41-11.17-8.41
		c-7.45,0-12.22,2.82-12.46,10.02H611.55z M625.44,89.48c0,4.04-4.6,7.09-9.34,7.09c-3.79,0-5.47-1.95-5.47-5.24
		c0-3.8,3.97-4.55,6.46-4.9c6.28-0.81,7.54-1.27,8.35-1.9V89.48z"/>
	<path d="M663.67,99.91h-5.08V81.35c0-5.25-1.5-7.9-6.45-7.9c-2.89,0-7.96,1.85-7.96,10.03v16.43h-5.08V69.76h4.79v4.27h0.12
		c1.09-1.62,3.91-5.13,9.09-5.13c4.67,0,10.56,1.9,10.56,10.49V99.91z"/>
	<path d="M675.66,78.93c0.34-2.3,1.14-5.82,6.91-5.82c4.78,0,7.09,1.73,7.09,4.9c0,2.99-1.44,3.46-2.65,3.57l-8.36,1.04
		c-8.42,1.04-9.17,6.91-9.17,9.45c0,5.19,3.92,8.71,9.46,8.71c5.88,0,8.92-2.78,10.89-4.91c0.18,2.32,0.86,4.61,5.37,4.61
		c1.14,0,1.9-0.33,2.75-0.57v-3.68c-0.57,0.12-1.19,0.22-1.67,0.22c-1.03,0-1.67-0.52-1.67-1.78V77.32c0-7.72-8.76-8.41-11.17-8.41
		c-7.44,0-12.24,2.82-12.46,10.02H675.66z M689.55,89.48c0,4.04-4.63,7.09-9.35,7.09c-3.8,0-5.47-1.95-5.47-5.24
		c0-3.8,3.97-4.55,6.46-4.9c6.29-0.81,7.56-1.27,8.37-1.9V89.48z"/>
	<path d="M728.23,58.53h-5.09v15.1l-0.11,0.41c-1.22-1.73-3.51-5.13-8.99-5.13c-8.01,0-12.56,6.56-12.56,15.05
		c0,7.2,2.99,16.83,13.25,16.83c2.93,0,6.4-0.93,8.59-5.01h0.11v4.15h4.8V58.53z M706.72,84.75c0-3.86,0.41-11.3,8.24-11.3
		c7.31,0,8.13,7.9,8.13,12.8c0,8.01-5.02,10.15-8.24,10.15C709.31,96.4,706.72,91.38,706.72,84.75z"/>
	<path d="M753.64,84.52c-0.8,0.63-2.08,1.09-8.37,1.9c-2.47,0.35-6.44,1.09-6.44,4.9c0,3.29,1.67,5.24,5.47,5.24
		c4.74,0,9.34-3.05,9.34-7.09V84.52z M735.08,78.93c0.23-7.2,5.01-10.02,12.45-10.02c2.42,0,11.18,0.69,11.18,8.41v17.35
		c0,1.27,0.65,1.78,1.68,1.78c0.45,0,1.09-0.11,1.66-0.22v3.68c-0.86,0.24-1.61,0.57-2.77,0.57c-4.47,0-5.18-2.3-5.36-4.61
		c-1.96,2.13-5.01,4.91-10.89,4.91c-5.53,0-9.45-3.52-9.45-8.71c0-2.54,0.75-8.41,9.16-9.45l8.36-1.04
		c1.21-0.11,2.64-0.57,2.64-3.57c0-3.17-2.3-4.9-7.08-4.9c-5.78,0-6.58,3.51-6.91,5.82H735.08z"/>
</g>
</svg>
