<?xml version="1.0" encoding="UTF-8"?>
<!DOCTYPE svg PUBLIC "-//W3C//DTD SVG 1.1//EN" "http://www.w3.org/Graphics/SVG/1.1/DTD/svg11.dtd">
<svg xmlns="http://www.w3.org/2000/svg" version="1.1" width="1364px" height="100px" style="shape-rendering:geometricPrecision; text-rendering:geometricPrecision; image-rendering:optimizeQuality; fill-rule:evenodd; clip-rule:evenodd" xmlns:xlink="http://www.w3.org/1999/xlink">
<g><path style="opacity:0.536" fill="#231f1f" d="M 347.5,-0.5 C 350.167,-0.5 352.833,-0.5 355.5,-0.5C 355.5,1.83333 355.5,4.16667 355.5,6.5C 352.833,6.5 350.167,6.5 347.5,6.5C 347.5,4.16667 347.5,1.83333 347.5,-0.5 Z"/></g>
<g><path style="opacity:0.006" fill="#000000" d="M 443.5,-0.5 C 443.833,-0.5 444.167,-0.5 444.5,-0.5C 444.167,7.5 443.833,7.5 443.5,-0.5 Z"/></g>
<g><path style="opacity:0.004" fill="#000000" d="M 568.5,-0.5 C 568.833,-0.5 569.167,-0.5 569.5,-0.5C 569.315,0.170143 568.981,0.170143 568.5,-0.5 Z"/></g>
<g><path style="opacity:0.815" fill="#211f1f" d="M 585.5,-0.5 C 588.5,-0.5 591.5,-0.5 594.5,-0.5C 592.562,2.44297 590.229,5.10964 587.5,7.5C 585.5,7.5 583.5,7.5 581.5,7.5C 582.5,4.66711 583.833,2.00044 585.5,-0.5 Z"/></g>
<g><path style="opacity:0.593" fill="#231f21" d="M 672.5,-0.5 C 674.833,-0.5 677.167,-0.5 679.5,-0.5C 679.5,1.83333 679.5,4.16667 679.5,6.5C 677.167,6.5 674.833,6.5 672.5,6.5C 672.5,4.16667 672.5,1.83333 672.5,-0.5 Z"/></g>
<g><path style="opacity:0.496" fill="#211d1d" d="M 928.5,-0.5 C 931.167,-0.5 933.833,-0.5 936.5,-0.5C 939.114,1.59021 939.114,3.75688 936.5,6C 933.854,6.49742 931.187,6.66409 928.5,6.5C 928.5,4.16667 928.5,1.83333 928.5,-0.5 Z"/></g>
<g><path style="opacity:0.592" fill="#221e1f" d="M 1026.5,-0.5 C 1029.17,-0.5 1031.83,-0.5 1034.5,-0.5C 1034.5,1.83333 1034.5,4.16667 1034.5,6.5C 1031.83,6.5 1029.17,6.5 1026.5,6.5C 1026.5,4.16667 1026.5,1.83333 1026.5,-0.5 Z"/></g>
<g><path style="opacity:0.718" fill="#221e20" d="M 1122.5,-0.5 C 1130.17,-0.5 1137.83,-0.5 1145.5,-0.5C 1152.66,2.36073 1155.16,7.69406 1153,15.5C 1152.67,15.1667 1152.33,14.8333 1152,14.5C 1151.56,16.0762 1150.73,17.4096 1149.5,18.5C 1150.65,19.7187 1151.65,21.0521 1152.5,22.5C 1153.33,26.4592 1153.83,30.4592 1154,34.5C 1155.69,35.3247 1155.85,36.3247 1154.5,37.5C 1151.57,38.4841 1148.57,38.8174 1145.5,38.5C 1144.2,34.4922 1143.37,29.1588 1143,22.5C 1139,23.8333 1135,23.8333 1131,22.5C 1130.5,27.8229 1130.33,33.1563 1130.5,38.5C 1127.83,38.5 1125.17,38.5 1122.5,38.5C 1122.5,25.5 1122.5,12.5 1122.5,-0.5 Z M 1130.5,5.5 C 1134.79,6.11107 1139.12,6.77774 1143.5,7.5C 1146.18,10.3109 1145.85,12.8109 1142.5,15C 1138.51,15.4988 1134.51,15.6655 1130.5,15.5C 1130.5,12.1667 1130.5,8.83333 1130.5,5.5 Z"/></g>
<g><path style="opacity:0.78" fill="#221e20" d="M 834.5,-0.5 C 836.833,-0.5 839.167,-0.5 841.5,-0.5C 841.5,12.5 841.5,25.5 841.5,38.5C 839.167,38.5 836.833,38.5 834.5,38.5C 834.5,25.5 834.5,12.5 834.5,-0.5 Z"/></g>
<g><path style="opacity:0.004" fill="#000000" d="M 570.5,1.5 C 571.833,2.16667 571.833,2.16667 570.5,1.5 Z"/></g>
<g><path style="opacity:0.758" fill="#231e20" d="M 1013.5,0.5 C 1015.86,0.336688 1018.19,0.503354 1020.5,1C 1021.83,3 1021.83,5 1020.5,7C 1021.56,8.18819 1022.9,8.68819 1024.5,8.5C 1024.5,10.8333 1024.5,13.1667 1024.5,15.5C 1023.13,15.3433 1021.79,15.51 1020.5,16C 1021.83,20.6667 1021.83,25.3333 1020.5,30C 1021.79,30.49 1023.13,30.6567 1024.5,30.5C 1024.5,33.1667 1024.5,35.8333 1024.5,38.5C 1021.5,38.5 1018.5,38.5 1015.5,38.5C 1013.72,30.9945 1013.05,23.3278 1013.5,15.5C 1012.17,15.5 1010.83,15.5 1009.5,15.5C 1009.5,13.1667 1009.5,10.8333 1009.5,8.5C 1010.83,8.5 1012.17,8.5 1013.5,8.5C 1013.5,5.83333 1013.5,3.16667 1013.5,0.5 Z"/></g>
<g><path style="opacity:0.861" fill="#231f1f" d="M 251.5,-0.5 C 254.5,-0.5 257.5,-0.5 260.5,-0.5C 260.5,12.5 260.5,25.5 260.5,38.5C 257.552,38.7771 254.719,38.4438 252,37.5C 251.5,24.8377 251.333,12.1711 251.5,-0.5 Z"/></g>
<g><path style="opacity:0.705" fill="#231e1f" d="M 606.5,-0.5 C 609.5,-0.5 612.5,-0.5 615.5,-0.5C 615.5,1.83333 615.5,4.16667 615.5,6.5C 614.417,6.46056 613.417,6.12723 612.5,5.5C 611.614,6.32496 611.281,7.32496 611.5,8.5C 612.833,8.5 614.167,8.5 615.5,8.5C 615.5,10.8333 615.5,13.1667 615.5,15.5C 614.167,15.5 612.833,15.5 611.5,15.5C 611.5,23.1667 611.5,30.8333 611.5,38.5C 609.167,38.5 606.833,38.5 604.5,38.5C 604.5,30.8333 604.5,23.1667 604.5,15.5C 603.167,15.5 601.833,15.5 600.5,15.5C 600.5,13.1667 600.5,10.8333 600.5,8.5C 601.833,8.5 603.167,8.5 604.5,8.5C 604.065,5.16248 604.732,2.16248 606.5,-0.5 Z"/></g>
<g><path style="opacity:0.004" fill="#000000" d="M 702.5,2.5 C 703.833,3.16667 703.833,3.16667 702.5,2.5 Z"/></g>
<g><path style="opacity:1" fill="#ed283d" d="M 0.5,-0.5 C 16.8333,-0.5 33.1667,-0.5 49.5,-0.5C 49.5,29.8333 49.5,60.1667 49.5,90.5C 33.2558,90.8248 17.0891,90.4914 1,89.5C 0.500021,59.5019 0.333354,29.5019 0.5,-0.5 Z"/></g>
<g><path style="opacity:1" fill="#ee293d" d="M 134.5,-0.5 C 150.167,-0.5 165.833,-0.5 181.5,-0.5C 181.5,29.8333 181.5,60.1667 181.5,90.5C 165.833,90.5 150.167,90.5 134.5,90.5C 134.5,60.1667 134.5,29.8333 134.5,-0.5 Z"/></g>
<g><path style="opacity:0.763" fill="#201d1e" d="M 432.5,0.5 C 434.833,0.5 437.167,0.5 439.5,0.5C 440.333,2.75221 440.333,4.91888 439.5,7C 440.563,8.18819 441.897,8.68819 443.5,8.5C 444.794,18.4975 444.794,28.4975 443.5,38.5C 439.889,38.9559 436.556,38.2892 433.5,36.5C 432.503,29.5316 432.17,22.5316 432.5,15.5C 431.167,15.5 429.833,15.5 428.5,15.5C 428.5,13.1667 428.5,10.8333 428.5,8.5C 429.833,8.5 431.167,8.5 432.5,8.5C 432.5,5.83333 432.5,3.16667 432.5,0.5 Z M 439.5,15.5 C 440.833,15.5 442.167,15.5 443.5,15.5C 443.5,20.5 443.5,25.5 443.5,30.5C 442.022,30.762 440.689,30.4287 439.5,29.5C 440.773,24.8347 440.773,20.1681 439.5,15.5 Z"/></g>
<g><path style="opacity:0.68" fill="#241d1f" d="M 445.5,-0.5 C 448.167,-0.5 450.833,-0.5 453.5,-0.5C 454.594,5.90488 451.927,8.23821 445.5,6.5C 445.5,4.16667 445.5,1.83333 445.5,-0.5 Z"/></g>
<g><path style="opacity:0.004" fill="#000000" d="M 700.5,4.5 C 701.833,5.16667 701.833,5.16667 700.5,4.5 Z"/></g>
<g><path style="opacity:0.724" fill="#211d1e" d="M 540.5,-0.5 C 548.5,-0.5 556.5,-0.5 564.5,-0.5C 566.456,0.491777 568.456,1.49178 570.5,2.5C 570.301,5.97316 570.967,8.47316 572.5,10C 572.333,11.1667 572.167,12.3333 572,13.5C 571.667,13.1667 571.333,12.8333 571,12.5C 570.788,14.7801 569.955,16.7801 568.5,18.5C 570.185,22.5975 571.018,26.9308 571,31.5C 571.333,31.1667 571.667,30.8333 572,30.5C 572.497,33.146 572.664,35.8127 572.5,38.5C 569.421,38.7399 566.421,38.4066 563.5,37.5C 562.507,32.8804 562.173,28.2137 562.5,23.5C 558.233,23.797 554.066,23.4637 550,22.5C 549.5,23 549,23.5 548.5,24C 549.8,28.4497 549.8,32.9497 548.5,37.5C 545.916,38.3928 543.249,38.7261 540.5,38.5C 540.5,25.5 540.5,12.5 540.5,-0.5 Z M 547.5,7.5 C 552.305,6.51283 557.305,6.17949 562.5,6.5C 562.664,9.1873 562.497,11.854 562,14.5C 561.667,14.1667 561.333,13.8333 561,13.5C 558.959,14.7522 556.625,15.4188 554,15.5C 551.833,15.3333 549.667,15.1667 547.5,15C 548.658,13.9914 549.325,12.6581 549.5,11C 549.392,9.31887 548.725,8.1522 547.5,7.5 Z"/></g>
<g><path style="opacity:0.004" fill="#000000" d="M 347.5,6.5 C 346.833,7.16667 346.833,7.16667 347.5,6.5 Z"/></g>
<g><path style="opacity:0.004" fill="#000000" d="M 355.5,6.5 C 356.833,7.16667 356.833,7.16667 355.5,6.5 Z"/></g>
<g><path style="opacity:0.004" fill="#000000" d="M 402.5,6.5 C 403.833,7.16667 403.833,7.16667 402.5,6.5 Z"/></g>
<g><path style="opacity:0.004" fill="#000000" d="M 615.5,6.5 C 616.239,6.36899 616.906,6.53566 617.5,7C 616.563,7.69169 615.897,7.52502 615.5,6.5 Z"/></g>
<g><path style="opacity:0.004" fill="#000000" d="M 679.5,6.5 C 680.833,7.16667 680.833,7.16667 679.5,6.5 Z"/></g>
<g><path style="opacity:0.004" fill="#000000" d="M 1026.5,6.5 C 1025.83,7.16667 1025.83,7.16667 1026.5,6.5 Z"/></g>
<g><path style="opacity:0.004" fill="#000000" d="M 1034.5,6.5 C 1035.83,7.16667 1035.83,7.16667 1034.5,6.5 Z"/></g>
<g><path style="opacity:0.004" fill="#000000" d="M 300.5,8.5 C 301.833,9.16667 301.833,9.16667 300.5,8.5 Z"/></g>
<g><path style="opacity:0.653" fill="#221d1f" d="M 347.5,8.5 C 350.167,8.5 352.833,8.5 355.5,8.5C 355.666,18.1724 355.5,27.8391 355,37.5C 352.619,38.435 350.119,38.7683 347.5,38.5C 347.5,28.5 347.5,18.5 347.5,8.5 Z"/></g>
<g><path style="opacity:0.004" fill="#000000" d="M 457.5,8.5 C 458.833,9.16667 458.833,9.16667 457.5,8.5 Z"/></g>
<g><path style="opacity:0.004" fill="#000000" d="M 506.5,8.5 C 507.833,9.16667 507.833,9.16667 506.5,8.5 Z"/></g>
<g><path style="opacity:0.004" fill="#000000" d="M 596.5,8.5 C 597.833,9.16667 597.833,9.16667 596.5,8.5 Z"/></g>
<g><path style="opacity:0.749" fill="#231f20" d="M 617.5,8.5 C 619.833,8.5 622.167,8.5 624.5,8.5C 624.5,15.8333 624.5,23.1667 624.5,30.5C 627.119,30.7683 629.619,30.435 632,29.5C 632.5,22.5079 632.666,15.5079 632.5,8.5C 635.167,8.5 637.833,8.5 640.5,8.5C 640.666,18.1724 640.5,27.8391 640,37.5C 637.606,38.951 635.439,38.6176 633.5,36.5C 629.71,38.669 625.71,39.0023 621.5,37.5C 620.5,36.5 619.5,35.5 618.5,34.5C 617.502,25.8589 617.169,17.1922 617.5,8.5 Z"/></g>
<g><path style="opacity:0.004" fill="#000000" d="M 646.5,8.5 C 647.833,9.16667 647.833,9.16667 646.5,8.5 Z"/></g>
<g><path style="opacity:0.73" fill="#231d1e" d="M 1026.5,38.5 C 1026.5,28.5 1026.5,18.5 1026.5,8.5C 1029.17,8.5 1031.83,8.5 1034.5,8.5C 1034.5,18.5 1034.5,28.5 1034.5,38.5C 1031.83,38.5 1029.17,38.5 1026.5,38.5 Z"/></g>
<g><path style="opacity:0.004" fill="#000000" d="M 1160.5,9.5 C 1159.83,8.16667 1159.83,8.16667 1160.5,9.5 Z"/></g>
<g><path style="opacity:0.004" fill="#000000" d="M 1311.5,9.5 C 1310.83,8.16667 1310.83,8.16667 1311.5,9.5 Z"/></g>
<g><path style="opacity:0.926" fill="#ee293c" d="M 115.5,26.5 C 115.34,28.1992 115.506,29.8659 116,31.5C 119.394,30.5442 122.894,30.2108 126.5,30.5C 126.137,33.5627 125.47,36.5627 124.5,39.5C 124.697,41.6822 125.364,43.6822 126.5,45.5C 122.487,50.5118 117.821,54.8451 112.5,58.5C 112.167,59.6667 111.833,60.8333 111.5,62C 112.091,64.239 112.758,66.4057 113.5,68.5C 106.31,68.618 99.9768,67.9513 94.5,66.5C 94.5,72.1667 94.5,77.8333 94.5,83.5C 91.9272,83.8515 89.5938,83.3515 87.5,82C 89.2914,77.0325 89.958,71.8659 89.5,66.5C 83.1835,67.2963 76.8502,67.963 70.5,68.5C 70.9153,66.2532 71.5819,64.0865 72.5,62C 68.2452,55.9088 62.9119,51.0754 56.5,47.5C 56.7811,45.0372 57.7811,42.8705 59.5,41C 58.0293,37.6791 57.3626,34.1791 57.5,30.5C 60.7107,30.012 63.544,30.6787 66,32.5C 67.5588,30.7834 68.3921,28.7834 68.5,26.5C 70.288,26.2148 71.9547,26.5481 73.5,27.5C 74.7477,30.579 76.5811,33.2457 79,35.5C 78.0124,28.1212 76.8457,21.4546 75.5,15.5C 77.5,15.5 79.5,15.5 81.5,15.5C 82.1834,17.1765 83.5168,17.8432 85.5,17.5C 86.8333,13.8333 88.1667,10.1667 89.5,6.5C 91.1667,6.5 92.8333,6.5 94.5,6.5C 95.1392,10.7862 96.6392,14.7862 99,18.5C 101.509,16.5626 104.343,15.5626 107.5,15.5C 107.226,20.9639 106.226,26.2972 104.5,31.5C 104.833,32.5 105.167,33.5 105.5,34.5C 107.167,32.1667 108.833,29.8333 110.5,27.5C 112.045,26.5481 113.712,26.2148 115.5,26.5 Z"/></g>
<g><path style="opacity:0.787" fill="#231e1f" d="M 409.5,19.5 C 407.5,19.5 405.5,19.5 403.5,19.5C 403.476,11.5244 407.476,7.5244 415.5,7.5C 419.705,7.68572 423.205,9.35239 426,12.5C 426.169,18.8594 426.669,25.1928 427.5,31.5C 429.87,30.5239 430.87,31.5239 430.5,34.5C 430.604,37.8908 428.938,39.2241 425.5,38.5C 423.392,38.1401 421.392,37.4734 419.5,36.5C 417.627,36.4823 417.294,36.9823 418.5,38C 405.997,40.6618 400.997,35.8285 403.5,23.5C 405.626,22.1707 407.626,20.8374 409.5,19.5 Z M 409.5,19.5 C 411.804,16.0694 415.137,14.736 419.5,15.5C 419.5,16.8333 419.5,18.1667 419.5,19.5C 416.167,19.5 412.833,19.5 409.5,19.5 Z M 417.5,24.5 C 418.649,24.7911 419.316,25.6244 419.5,27C 419.167,27.8333 418.833,28.6667 418.5,29.5C 415.579,30.4066 412.579,30.7399 409.5,30.5C 409.5,29.1667 409.5,27.8333 409.5,26.5C 411.857,26.6633 414.19,26.4966 416.5,26C 417.056,25.6174 417.389,25.1174 417.5,24.5 Z"/></g>
<g><path style="opacity:0.563" fill="#221e20" d="M 679.5,38.5 C 677.167,38.5 674.833,38.5 672.5,38.5C 672.5,28.5 672.5,18.5 672.5,8.5C 674.833,8.5 677.167,8.5 679.5,8.5C 679.5,18.5 679.5,28.5 679.5,38.5 Z"/></g>
<g><path style="opacity:0.791" fill="#211d1e" d="M 928.5,8.5 C 931.247,8.18665 933.914,8.51998 936.5,9.5C 937.642,11.1168 938.309,12.9501 938.5,15C 937.904,17.8499 937.237,20.6833 936.5,23.5C 938.16,27.2956 938.66,31.2956 938,35.5C 935.547,38.4851 932.547,39.1518 929,37.5C 928.5,27.8391 928.334,18.1724 928.5,8.5 Z"/></g>
<g><path style="opacity:0.85" fill="#231f1f" d="M 397.5,7.5 C 398.93,7.42082 400.264,7.75415 401.5,8.5C 402.474,10.7427 402.808,13.076 402.5,15.5C 399.856,15.1601 397.523,15.8267 395.5,17.5C 394.503,24.4684 394.17,31.4684 394.5,38.5C 392.167,38.5 389.833,38.5 387.5,38.5C 387.5,28.5 387.5,18.5 387.5,8.5C 389.92,8.29245 392.253,8.62578 394.5,9.5C 395.739,9.05758 396.739,8.39092 397.5,7.5 Z"/></g>
<g><path style="opacity:0.004" fill="#000000" d="M 455.5,10.5 C 456.833,11.1667 456.833,11.1667 455.5,10.5 Z"/></g>
<g><path style="opacity:0.004" fill="#000000" d="M 645.5,11.5 C 644.833,10.1667 644.833,10.1667 645.5,11.5 Z"/></g>
<g><path style="opacity:0.004" fill="#000000" d="M 684.5,10.5 C 685.833,11.1667 685.833,11.1667 684.5,10.5 Z"/></g>
<g><path style="opacity:0.754" fill="#221e1f" d="M 899.5,7.5 C 903.085,7.26905 906.252,8.26905 909,10.5C 916.863,5.4068 922.53,7.07347 926,15.5C 926.5,23.1594 926.666,30.8261 926.5,38.5C 923.881,38.7683 921.381,38.435 919,37.5C 918.667,30.8333 918.333,24.1667 918,17.5C 916.246,15.75 914.079,15.0833 911.5,15.5C 911.666,22.8409 911.5,30.1742 911,37.5C 908.333,38.8333 905.667,38.8333 903,37.5C 902.5,30.1742 902.334,22.8409 902.5,15.5C 900.5,15.5 898.5,15.5 896.5,15.5C 894.884,23.0532 894.217,30.7199 894.5,38.5C 892.167,38.5 889.833,38.5 887.5,38.5C 887.5,28.5 887.5,18.5 887.5,8.5C 890.394,8.04229 892.894,8.70896 895,10.5C 896.652,9.60064 898.152,8.60064 899.5,7.5 Z"/></g>
<g><path style="opacity:0.004" fill="#000000" d="M 1060.5,10.5 C 1061.83,11.1667 1061.83,11.1667 1060.5,10.5 Z"/></g>
<g><path style="opacity:0.004" fill="#000000" d="M 1158.5,11.5 C 1157.83,10.1667 1157.83,10.1667 1158.5,11.5 Z"/></g>
<g><path style="opacity:0.75" fill="#221e1f" d="M 1275.5,36.5 C 1274.45,36.3505 1273.45,36.5172 1272.5,37C 1272.83,37.3333 1273.17,37.6667 1273.5,38C 1257.03,40.1908 1250.53,33.0241 1254,16.5C 1260.08,6.31905 1267.75,4.98571 1277,12.5C 1280.52,20.7954 1280.02,28.7954 1275.5,36.5 Z M 1262.5,15.5 C 1266.59,14.8456 1269.92,16.0122 1272.5,19C 1268.46,19.8265 1264.46,19.6599 1260.5,18.5C 1261.61,17.7348 1262.28,16.7348 1262.5,15.5 Z M 1260.5,26.5 C 1264.55,26.1758 1268.55,26.5091 1272.5,27.5C 1271.27,29.9184 1269.27,30.9184 1266.5,30.5C 1263.42,30.5931 1261.42,29.2598 1260.5,26.5 Z"/></g>
<g><path style="opacity:0.004" fill="#000000" d="M 1277.5,10.5 C 1278.83,11.1667 1278.83,11.1667 1277.5,10.5 Z"/></g>
<g><path style="opacity:0.004" fill="#000000" d="M 1282.5,10.5 C 1283.83,11.1667 1283.83,11.1667 1282.5,10.5 Z"/></g>
<g><path style="opacity:0.004" fill="#000000" d="M 1309.5,11.5 C 1308.83,10.1667 1308.83,10.1667 1309.5,11.5 Z"/></g>
<g><path style="opacity:0.789" fill="#221e1f" d="M 317.5,7.5 C 321.426,7.04656 324.592,8.37989 327,11.5C 332.682,6.00152 338.015,6.33485 343,12.5C 343.5,21.1603 343.666,29.8269 343.5,38.5C 341.167,38.5 338.833,38.5 336.5,38.5C 336.5,30.8333 336.5,23.1667 336.5,15.5C 333.856,15.1601 331.523,15.8267 329.5,17.5C 328.503,24.4684 328.17,31.4684 328.5,38.5C 326.167,38.5 323.833,38.5 321.5,38.5C 321.5,30.8333 321.5,23.1667 321.5,15.5C 318.856,15.1601 316.523,15.8267 314.5,17.5C 313.503,24.4684 313.17,31.4684 313.5,38.5C 311.167,38.5 308.833,38.5 306.5,38.5C 306.5,28.5 306.5,18.5 306.5,8.5C 309.249,8.27391 311.916,8.60724 314.5,9.5C 315.739,9.05758 316.739,8.39092 317.5,7.5 Z"/></g>
<g><path style="opacity:1" fill="#241f20" d="M 445.5,8.5 C 448.167,8.5 450.833,8.5 453.5,8.5C 453.666,18.1724 453.5,27.8391 453,37.5C 450.619,38.435 448.119,38.7683 445.5,38.5C 445.5,28.5 445.5,18.5 445.5,8.5 Z"/></g>
<g><path style="opacity:0.739" fill="#221d1f" d="M 587.5,7.5 C 590.426,8.46078 593.426,9.12744 596.5,9.5C 596.948,12.1718 598.281,14.1718 600.5,15.5C 600.894,22.0029 600.228,28.3362 598.5,34.5C 597.167,34.5 596.5,35.1667 596.5,36.5C 595.448,36.3505 594.448,36.5172 593.5,37C 593.833,37.3333 594.167,37.6667 594.5,38C 592.167,38.1667 589.833,38.3333 587.5,38.5C 583.223,38.725 579.89,38.0583 577.5,36.5C 578.593,34.4327 578.093,33.766 576,34.5C 573.632,29.1083 572.965,23.4416 574,17.5C 576.728,11.585 581.228,8.25168 587.5,7.5 Z M 583.5,15.5 C 586.247,15.1866 588.914,15.52 591.5,16.5C 591.833,17.1667 592.167,17.8333 592.5,18.5C 588.878,19.6586 585.211,19.8253 581.5,19C 582.823,18.1841 583.489,17.0174 583.5,15.5 Z M 581.5,25.5 C 585.459,26.1061 589.459,26.7728 593.5,27.5C 592.271,29.9184 590.271,30.9184 587.5,30.5C 583.931,30.5903 581.931,28.9237 581.5,25.5 Z"/></g>
<g><path style="opacity:1" fill="#221e1f" d="M 692.5,-0.5 C 695.833,-0.5 699.167,-0.5 702.5,-0.5C 702.5,0.5 702.5,1.5 702.5,2.5C 701.883,2.38929 701.383,2.05596 701,1.5C 699.685,3.31585 698.185,4.98252 696.5,6.5C 700.163,7.94403 703.497,9.94403 706.5,12.5C 708.112,17.0491 709.112,21.7158 709.5,26.5C 707.766,28.3216 706.766,30.6549 706.5,33.5C 701.181,39.371 694.514,40.0377 686.5,35.5C 679.25,25.3425 680.583,16.5092 690.5,9C 697.134,8.17676 697.134,7.67676 690.5,7.5C 690.693,4.69151 691.36,2.02484 692.5,-0.5 Z M 692.5,15.5 C 694.857,15.3367 697.19,15.5034 699.5,16C 700.337,17.0113 700.67,18.1779 700.5,19.5C 697.102,19.8204 693.768,19.487 690.5,18.5C 691.193,17.4822 691.859,16.4822 692.5,15.5 Z M 690.5,26.5 C 694.182,26.3347 697.848,26.5014 701.5,27C 700.663,28.0113 700.33,29.1779 700.5,30.5C 697.482,30.6646 694.482,30.498 691.5,30C 690.663,28.9887 690.33,27.8221 690.5,26.5 Z"/></g>
<g><path style="opacity:0.787" fill="#221e1f" d="M 949.5,7.5 C 952.313,7.54807 954.979,8.21473 957.5,9.5C 959.747,8.62578 962.08,8.29245 964.5,8.5C 964.832,19.5202 964.499,30.5202 963.5,41.5C 962.833,42.8333 962.167,44.1667 961.5,45.5C 953.892,51.1109 946.892,50.4442 940.5,43.5C 939.548,41.9547 939.215,40.288 939.5,38.5C 941.924,38.8076 944.257,38.4742 946.5,37.5C 939.193,32.6957 936.86,26.029 939.5,17.5C 939.686,15.4205 940.686,13.9205 942.5,13C 942.167,12.6667 941.833,12.3333 941.5,12C 944.104,11.0132 946.771,9.51316 949.5,7.5 Z M 948.5,15.5 C 951.983,14.9159 954.983,15.7492 957.5,18C 956.167,21.3333 956.167,24.6667 957.5,28C 954.635,30.2863 951.302,31.1197 947.5,30.5C 947.221,25.4053 947.555,20.4053 948.5,15.5 Z M 955.5,36.5 C 956.239,36.369 956.906,36.5357 957.5,37C 956.167,37.6667 956.167,38.3333 957.5,39C 955.367,40.8986 952.867,42.0653 950,42.5C 948.294,41.6921 947.461,40.3588 947.5,38.5C 950.698,39.0356 953.365,38.369 955.5,36.5 Z"/></g>
<g><path style="opacity:0.742" fill="#221e1f" d="M 495.5,7.5 C 500.247,7.13568 504.081,8.80235 507,12.5C 507.5,21.1603 507.666,29.8269 507.5,38.5C 505.167,38.5 502.833,38.5 500.5,38.5C 500.5,30.8333 500.5,23.1667 500.5,15.5C 497.753,15.1866 495.086,15.52 492.5,16.5C 492,17.5 491.5,18.5 491,19.5C 490.5,25.8246 490.334,32.1579 490.5,38.5C 488.167,38.5 485.833,38.5 483.5,38.5C 483.5,28.5 483.5,18.5 483.5,8.5C 486.397,8.31872 489.23,8.65205 492,9.5C 493.459,9.19178 494.626,8.52511 495.5,7.5 Z"/></g>
<g><path style="opacity:0.004" fill="#000000" d="M 682.5,12.5 C 683.833,13.1667 683.833,13.1667 682.5,12.5 Z"/></g>
<g><path style="opacity:0.784" fill="#231e1f" d="M 985.5,13.5 C 983.484,15.0133 981.151,15.8466 978.5,16C 977.953,16.9246 977.287,17.7579 976.5,18.5C 975.503,25.1335 975.17,31.8002 975.5,38.5C 973.167,38.5 970.833,38.5 968.5,38.5C 968.5,28.5 968.5,18.5 968.5,8.5C 974.264,9.4029 979.931,9.4029 985.5,8.5C 985.5,10.1667 985.5,11.8333 985.5,13.5 Z"/></g>
<g><path style="opacity:0.842" fill="#221e1f" d="M 1011.5,38.5 C 1008.48,38.6646 1005.48,38.498 1002.5,38C 1003.71,36.9823 1003.37,36.4823 1001.5,36.5C 999.627,36.4823 999.294,36.9823 1000.5,38C 995.279,38.9237 990.279,38.4237 985.5,36.5C 981.791,28.8138 983.791,23.1471 991.5,19.5C 989.5,19.5 987.5,19.5 985.5,19.5C 985.5,17.5 985.5,15.5 985.5,13.5C 987.104,12.713 987.771,11.3797 987.5,9.5C 990.693,8.98882 993.859,8.32215 997,7.5C 1000.4,7.79898 1003.56,8.79898 1006.5,10.5C 1007.79,20.0821 1009.46,29.4154 1011.5,38.5 Z M 991.5,19.5 C 992.234,18.2921 992.567,16.9587 992.5,15.5C 995.167,15.5 997.833,15.5 1000.5,15.5C 1000.5,16.8333 1000.5,18.1667 1000.5,19.5C 997.5,19.5 994.5,19.5 991.5,19.5 Z M 999.5,24.5 C 1000.46,26.2646 1000.79,28.2646 1000.5,30.5C 987.606,30.4045 987.273,28.4045 999.5,24.5 Z"/></g>
<g><path style="opacity:0.713" fill="#231e1f" d="M 1076.5,7.5 C 1084.82,6.59711 1089.32,10.2638 1090,18.5C 1090.67,24.8333 1090.67,31.1667 1090,37.5C 1087.33,38.8333 1084.67,38.8333 1082,37.5C 1081.5,30.1742 1081.33,22.8409 1081.5,15.5C 1078.64,15.0548 1076.14,15.7215 1074,17.5C 1073.67,24.1667 1073.33,30.8333 1073,37.5C 1070.94,38.5914 1068.77,38.7581 1066.5,38C 1064.54,28.4282 1063.87,18.5949 1064.5,8.5C 1067.71,8.01202 1070.54,8.67869 1073,10.5C 1074.15,9.36362 1075.31,8.36362 1076.5,7.5 Z"/></g>
<g><path style="opacity:0.971" fill="#231e1f" d="M 857.5,7.5 C 861.077,7.20509 864.243,8.20509 867,10.5C 874.939,5.40565 880.606,7.07232 884,15.5C 884.333,15.1667 884.667,14.8333 885,14.5C 885.667,22.1667 885.667,29.8333 885,37.5C 876.011,39.5893 872.845,35.9227 875.5,26.5C 875.518,22.9159 875.852,19.4159 876.5,16C 874.527,15.5045 872.527,15.3379 870.5,15.5C 870.666,22.5079 870.5,29.5079 870,36.5C 867.24,38.703 864.24,39.0363 861,37.5C 860.5,30.1742 860.334,22.8409 860.5,15.5C 857.955,15.1505 855.955,15.9838 854.5,18C 854.833,18.3333 855.167,18.6667 855.5,19C 853.731,24.8837 852.898,31.0503 853,37.5C 850.936,38.5914 848.769,38.7581 846.5,38C 845.514,28.2496 845.181,18.4163 845.5,8.5C 848.711,8.01202 851.544,8.67869 854,10.5C 855.145,9.36362 856.312,8.36362 857.5,7.5 Z"/></g>
<g><path style="opacity:0.75" fill="#221e1f" d="M 1232.5,38.5 C 1230.92,36.6974 1228.92,35.3641 1226.5,34.5C 1223.67,27.1129 1223.84,19.7796 1227,12.5C 1227.33,12.8333 1227.67,13.1667 1228,13.5C 1231.85,7.88212 1236.85,6.54878 1243,9.5C 1245.77,8.65205 1248.6,8.31872 1251.5,8.5C 1251.83,18.8548 1251.5,29.1881 1250.5,39.5C 1244.87,49.4915 1237.2,51.4915 1227.5,45.5C 1226.87,42.2586 1225.87,39.9252 1224.5,38.5C 1227.17,38.5 1229.83,38.5 1232.5,38.5 Z M 1234.5,15.5 C 1236.83,15.5 1239.17,15.5 1241.5,15.5C 1242.37,17.8967 1243.03,20.3967 1243.5,23C 1243.12,25.8235 1242.45,28.3235 1241.5,30.5C 1238.81,30.6641 1236.15,30.4974 1233.5,30C 1233.83,29.6667 1234.17,29.3333 1234.5,29C 1233.28,27.4747 1232.61,25.6413 1232.5,23.5C 1232.92,20.7214 1233.59,18.0547 1234.5,15.5 Z M 1242.5,38.5 C 1241.54,37.6365 1241.54,36.9698 1242.5,36.5C 1243.77,37.2565 1243.77,37.9232 1242.5,38.5 Z M 1232.5,38.5 C 1235.83,38.5 1239.17,38.5 1242.5,38.5C 1241.89,40.2825 1240.72,41.6159 1239,42.5C 1236.39,41.7829 1234.22,40.4496 1232.5,38.5 Z"/></g>
<g><path style="opacity:0.004" fill="#000000" d="M 75.5,15.5 C 74.8333,14.1667 74.8333,14.1667 75.5,15.5 Z"/></g>
<g><path style="opacity:0.004" fill="#fe0000" d="M 81.5,14.5 C 82.8333,15.1667 82.8333,15.1667 81.5,14.5 Z"/></g>
<g><path style="opacity:0.675" fill="#221e1f" d="M 365.5,38.5 C 362.331,36.5218 359.831,33.8552 358,30.5C 357.241,25.2926 357.408,20.1259 358.5,15C 362.472,8.34252 367.972,6.50919 375,9.5C 377.77,8.65205 380.603,8.31872 383.5,8.5C 383.832,18.8548 383.499,29.1881 382.5,39.5C 380.272,45.226 376.105,48.5593 370,49.5C 366.085,48.265 362.251,46.9317 358.5,45.5C 358.682,43.4086 358.348,41.4086 357.5,39.5C 360.086,38.52 362.753,38.1866 365.5,38.5 Z M 366.5,15.5 C 369.187,15.3359 371.854,15.5026 374.5,16C 374.167,16.3333 373.833,16.6667 373.5,17C 376.136,21.1334 376.136,25.3 373.5,29.5C 367.677,31.6532 364.677,29.6532 364.5,23.5C 364.92,20.7214 365.587,18.0547 366.5,15.5 Z M 365.5,38.5 C 368.518,38.6646 371.518,38.498 374.5,38C 373.304,37.3457 373.304,36.8457 374.5,36.5C 375.497,40.0187 373.997,41.6853 370,41.5C 367.744,41.4534 366.244,40.4534 365.5,38.5 Z"/></g>
<g><path style="opacity:0.769" fill="#221e1f" d="M 1060.5,11.5 C 1063.12,19.2159 1063.12,26.8826 1060.5,34.5C 1058.92,35.0656 1057.59,36.0656 1056.5,37.5C 1043.68,41.3193 1037.01,36.6526 1036.5,23.5C 1035.7,13.9685 1040.03,8.63515 1049.5,7.5C 1053.5,8.00639 1057.17,9.33973 1060.5,11.5 Z M 1045.5,15.5 C 1052.48,13.5571 1055.81,16.0571 1055.5,23C 1056.2,27.7613 1054.2,30.2613 1049.5,30.5C 1045.02,30.3514 1043.02,28.0181 1043.5,23.5C 1043.92,20.7214 1044.59,18.0547 1045.5,15.5 Z"/></g>
<g><path style="opacity:0.708" fill="#221e20" d="M 1291.5,7.5 C 1301.46,7.29861 1306.8,12.1319 1307.5,22C 1307.37,23.9806 1306.7,25.6472 1305.5,27C 1306.19,31.4555 1304.53,34.9555 1300.5,37.5C 1293.27,39.81 1287.27,38.1433 1282.5,32.5C 1281.17,26.8333 1281.17,21.1667 1282.5,15.5C 1284.3,11.362 1287.3,8.69538 1291.5,7.5 Z M 1290.5,15.5 C 1293.17,15.5 1295.83,15.5 1298.5,15.5C 1298.33,16.8221 1298.66,17.9887 1299.5,19C 1295.79,19.8253 1292.12,19.6586 1288.5,18.5C 1289.61,17.7348 1290.28,16.7348 1290.5,15.5 Z M 1288.5,26.5 C 1292.51,26.3345 1296.51,26.5012 1300.5,27C 1297.91,30.151 1294.58,31.151 1290.5,30C 1289.18,29.1841 1288.51,28.0174 1288.5,26.5 Z"/></g>
<g><path style="opacity:0.805" fill="#221e1f" d="M 464.5,7.5 C 475.646,6.60936 481.313,11.776 481.5,23C 481.155,27.8395 479.822,32.3395 477.5,36.5C 476.127,36.3433 474.793,36.51 473.5,37C 473.833,37.3333 474.167,37.6667 474.5,38C 469.833,38.6667 465.167,38.6667 460.5,38C 460.833,37.6667 461.167,37.3333 461.5,37C 456.639,33.9845 454.306,29.4845 454.5,23.5C 454.22,15.8028 457.553,10.4695 464.5,7.5 Z M 464.5,15.5 C 467.167,15.5 469.833,15.5 472.5,15.5C 472.297,17.3904 472.963,18.8904 474.5,20C 473.604,23.4277 472.938,26.9277 472.5,30.5C 469.223,30.7839 466.057,30.4505 463,29.5C 461.966,24.5431 462.466,19.8764 464.5,15.5 Z"/></g>
<g><path style="opacity:0.776" fill="#221e1f" d="M 300.5,9.5 C 300.351,10.552 300.517,11.552 301,12.5C 301.333,12.1667 301.667,11.8333 302,11.5C 302.5,20.4938 302.666,29.4938 302.5,38.5C 299.881,38.7683 297.381,38.435 295,37.5C 294.5,30.1742 294.334,22.8409 294.5,15.5C 291.921,15.0833 289.754,15.75 288,17.5C 287.667,24.1667 287.333,30.8333 287,37.5C 284.619,38.435 282.119,38.7683 279.5,38.5C 279.5,30.8333 279.5,23.1667 279.5,15.5C 276.921,15.0833 274.754,15.75 273,17.5C 272.667,24.1667 272.333,30.8333 272,37.5C 269.619,38.435 267.119,38.7683 264.5,38.5C 264.5,28.5 264.5,18.5 264.5,8.5C 269.215,9.50701 273.715,9.17368 278,7.5C 280.923,7.7952 283.257,9.12853 285,11.5C 289.63,7.00954 294.797,6.34287 300.5,9.5 Z"/></g>
<g><path style="opacity:0.773" fill="#221e1f" d="M 727.5,19.5 C 729.207,21.0147 731.207,22.348 733.5,23.5C 734.489,27.1073 734.823,30.774 734.5,34.5C 732.797,33.3398 732.131,34.0065 732.5,36.5C 731.448,36.3505 730.448,36.5172 729.5,37C 729.833,37.3333 730.167,37.6667 730.5,38C 727.833,38.1667 725.167,38.3333 722.5,38.5C 717.9,38.7452 714.234,38.0785 711.5,36.5C 710.424,33.2655 709.757,29.9322 709.5,26.5C 712.167,26.5 714.833,26.5 717.5,26.5C 717.5,27.8333 717.5,29.1667 717.5,30.5C 718.873,30.3433 720.207,30.51 721.5,31C 720.294,32.0177 720.627,32.5177 722.5,32.5C 723.068,30.9579 724.735,30.1245 727.5,30C 726.833,29 726.167,28 725.5,27C 719.298,26.6693 714.298,24.1693 710.5,19.5C 709.697,12.5301 713.531,8.53011 722,7.5C 729.615,7.94878 733.782,11.9488 734.5,19.5C 732.167,19.5 729.833,19.5 727.5,19.5 Z M 727.5,19.5 C 723.966,19.9683 720.966,18.9683 718.5,16.5C 721.086,15.52 723.753,15.1866 726.5,15.5C 726.433,16.9587 726.766,18.2921 727.5,19.5 Z"/></g>
<g><path style="opacity:0.004" fill="#000000" d="M 985.5,19.5 C 984.833,20.1667 984.833,20.1667 985.5,19.5 Z"/></g>
<g><path style="opacity:0.004" fill="#000000" d="M 1332.5,19.5 C 1333.83,20.1667 1333.83,20.1667 1332.5,19.5 Z"/></g>
<g><path style="opacity:0.743" fill="#231e1f" d="M 666.5,45.5 C 665.167,45.5 664.5,46.1667 664.5,47.5C 656.964,50.6824 650.297,49.3491 644.5,43.5C 643.548,41.9547 643.215,40.288 643.5,38.5C 645.924,38.8076 648.257,38.4742 650.5,37.5C 647.783,36.2841 645.95,34.2841 645,31.5C 644.667,31.8333 644.333,32.1667 644,32.5C 643.333,26.5 643.333,20.5 644,14.5C 644.333,14.8333 644.667,15.1667 645,15.5C 645.49,14.2068 645.657,12.8734 645.5,11.5C 646.95,12.6576 647.95,12.1576 648.5,10C 652.753,7.01499 657.087,6.84832 661.5,9.5C 663.747,8.62578 666.08,8.29245 668.5,8.5C 668.667,20.1714 668.5,31.8381 668,43.5C 667.667,43.1667 667.333,42.8333 667,42.5C 666.517,43.448 666.351,44.448 666.5,45.5 Z M 652.5,15.5 C 655.119,15.2317 657.619,15.565 660,16.5C 660.799,21.0868 660.632,25.5868 659.5,30C 656.901,30.769 654.401,30.6023 652,29.5C 651.283,24.7804 651.45,20.1138 652.5,15.5 Z M 659.5,36.5 C 660.239,36.369 660.906,36.5357 661.5,37C 660.884,39.1785 659.717,41.0118 658,42.5C 656.667,41.1667 655.333,41.1667 654,42.5C 652.978,41.646 652.145,40.646 651.5,39.5C 654.616,39.0799 657.283,38.0799 659.5,36.5 Z"/></g>
<g><path style="opacity:0.004" fill="#fe0000" d="M 68.5,26.5 C 67.8333,25.1667 67.8333,25.1667 68.5,26.5 Z"/></g>
<g><path style="opacity:0.004" fill="#fe0000" d="M 115.5,25.5 C 116.833,26.1667 116.833,26.1667 115.5,25.5 Z"/></g>
<g><path style="opacity:0.764" fill="#221e20" d="M 1188.5,-0.5 C 1191.83,-0.5 1195.17,-0.5 1198.5,-0.5C 1198.66,1.5273 1198.5,3.5273 1198,5.5C 1197,6.83333 1196,6.83333 1195,5.5C 1194.08,6.04651 1193.24,6.71317 1192.5,7.5C 1196.57,9.14316 1200.9,9.47649 1205.5,8.5C 1205.33,15.175 1205.5,21.8417 1206,28.5C 1208.11,30.291 1210.61,30.9577 1213.5,30.5C 1215.19,23.3019 1215.85,15.9685 1215.5,8.5C 1217.83,8.5 1220.17,8.5 1222.5,8.5C 1222.5,18.5 1222.5,28.5 1222.5,38.5C 1219.53,38.8897 1216.87,38.223 1214.5,36.5C 1213.3,36.8457 1213.3,37.3457 1214.5,38C 1210.5,38.6667 1206.5,38.6667 1202.5,38C 1202.83,37.6667 1203.17,37.3333 1203.5,37C 1202.55,36.5172 1201.55,36.3505 1200.5,36.5C 1199.19,27.5646 1198.19,20.5646 1197.5,15.5C 1195.83,15.5 1194.17,15.5 1192.5,15.5C 1192.5,23.1667 1192.5,30.8333 1192.5,38.5C 1190.17,38.5 1187.83,38.5 1185.5,38.5C 1185.5,30.8333 1185.5,23.1667 1185.5,15.5C 1184.04,15.5674 1182.71,15.2341 1181.5,14.5C 1181.5,12.5 1181.5,10.5 1181.5,8.5C 1182.83,8.5 1184.17,8.5 1185.5,8.5C 1185.13,4.99661 1186.13,1.99661 1188.5,-0.5 Z"/></g>
<g><path style="opacity:0.004" fill="#000000" d="M 629.5,27.5 C 630.833,28.1667 630.833,28.1667 629.5,27.5 Z"/></g>
<g><path style="opacity:0.004" fill="#000000" d="M 1094.5,28.5 C 1093.83,27.1667 1093.83,27.1667 1094.5,28.5 Z"/></g>
<g><path style="opacity:0.004" fill="#000000" d="M 1102.5,27.5 C 1103.83,28.1667 1103.83,28.1667 1102.5,27.5 Z"/></g>
<g><path style="opacity:0.004" fill="#000000" d="M 1333.5,27.5 C 1334.53,27.8966 1334.69,28.5632 1334,29.5C 1333.54,28.9056 1333.37,28.2389 1333.5,27.5 Z"/></g>
<g><path style="opacity:0.004" fill="#fe0000" d="M 55.5,29.5 C 56.8333,30.1667 56.8333,30.1667 55.5,29.5 Z"/></g>
<g><path style="opacity:0.711" fill="#231e1f" d="M 1094.5,28.5 C 1097.17,28.5 1099.83,28.5 1102.5,28.5C 1102.83,32.8839 1102.49,37.2172 1101.5,41.5C 1099.49,43.5078 1097.16,44.8412 1094.5,45.5C 1094.16,42.8559 1094.83,40.5225 1096.5,38.5C 1094.71,35.4439 1094.04,32.1106 1094.5,28.5 Z"/></g>
<g><path style="opacity:0.759" fill="#221e1f" d="M 1332.5,19.5 C 1330.17,19.5 1327.83,19.5 1325.5,19.5C 1327.37,20.8374 1329.37,22.1707 1331.5,23.5C 1332.49,27.1073 1332.82,30.774 1332.5,34.5C 1331.17,34.5 1330.5,35.1667 1330.5,36.5C 1329.45,36.3505 1328.45,36.5172 1327.5,37C 1327.83,37.3333 1328.17,37.6667 1328.5,38C 1323.47,38.8289 1318.47,38.6623 1313.5,37.5C 1312.48,36.646 1311.64,35.646 1311,34.5C 1310.67,34.8333 1310.33,35.1667 1310,35.5C 1309.67,34.1667 1309.33,32.8333 1309,31.5C 1308.67,31.8333 1308.33,32.1667 1308,32.5C 1307.33,30.8333 1307.33,29.1667 1308,27.5C 1310.38,26.565 1312.88,26.2317 1315.5,26.5C 1315.5,27.8333 1315.5,29.1667 1315.5,30.5C 1317.57,30.4486 1319.4,31.1153 1321,32.5C 1322.37,31.4188 1323.87,30.5855 1325.5,30C 1323.8,27.0177 1321.14,25.6844 1317.5,26C 1315.1,24.9819 1312.77,23.8153 1310.5,22.5C 1309.51,18.8927 1309.18,15.226 1309.5,11.5C 1311.2,12.6602 1311.87,11.9935 1311.5,9.5C 1312.12,9.61071 1312.62,9.94404 1313,10.5C 1318.4,6.60172 1323.9,6.60172 1329.5,10.5C 1331.7,13.1088 1332.7,16.1088 1332.5,19.5 Z M 1325.5,19.5 C 1321.72,20.2114 1318.72,19.0447 1316.5,16C 1319.15,15.5026 1321.81,15.3359 1324.5,15.5C 1324.43,16.9587 1324.77,18.2921 1325.5,19.5 Z"/></g>
<g><path style="opacity:0.716" fill="#221d1f" d="M 1181.5,14.5 C 1181.34,16.8568 1181.5,19.1902 1182,21.5C 1182.33,21.1667 1182.67,20.8333 1183,20.5C 1183.13,24.6363 1182.3,28.6363 1180.5,32.5C 1179.65,33.5217 1178.65,34.3551 1177.5,35C 1177.83,35.3333 1178.17,35.6667 1178.5,36C 1165.03,42.2217 1157.36,38.055 1155.5,23.5C 1155.75,19.2618 1156.75,15.2618 1158.5,11.5C 1159.83,11.5 1160.5,10.8333 1160.5,9.5C 1168.88,5.72568 1175.88,7.39235 1181.5,14.5 Z M 1164.5,26.5 C 1168.18,26.3347 1171.85,26.5014 1175.5,27C 1172.57,30.0509 1168.9,31.2176 1164.5,30.5C 1164.5,29.1667 1164.5,27.8333 1164.5,26.5 Z M 1165.5,15.5 C 1168.25,15.1866 1170.91,15.52 1173.5,16.5C 1173.83,17.1667 1174.17,17.8333 1174.5,18.5C 1171.23,19.487 1167.9,19.8204 1164.5,19.5C 1164.43,18.0413 1164.77,16.7079 1165.5,15.5 Z"/></g>
<g><path style="opacity:0.004" fill="#000000" d="M 357.5,34.5 C 358.833,35.1667 358.833,35.1667 357.5,34.5 Z"/></g>
<g><path style="opacity:0.754" fill="#221f20" d="M 512.5,28.5 C 515.448,28.2229 518.281,28.5562 521,29.5C 521.167,31.1667 521.333,32.8333 521.5,34.5C 520.954,37.5656 520.288,40.5656 519.5,43.5C 516.833,44.1667 514.167,44.8333 511.5,45.5C 511.188,42.1116 512.521,39.6116 515.5,38C 514.175,38.1484 513.008,37.9817 512,37.5C 511.264,34.408 511.431,31.408 512.5,28.5 Z"/></g>
<g><path style="opacity:0.004" fill="#000000" d="M 598.5,34.5 C 599.833,35.1667 599.833,35.1667 598.5,34.5 Z"/></g>
<g><path style="opacity:0.004" fill="#000000" d="M 734.5,34.5 C 735.833,35.1667 735.833,35.1667 734.5,34.5 Z"/></g>
<g><path style="opacity:0.004" fill="#000000" d="M 1060.5,34.5 C 1061.83,35.1667 1061.83,35.1667 1060.5,34.5 Z"/></g>
<g><path style="opacity:0.004" fill="#000000" d="M 1226.5,34.5 C 1225.83,35.1667 1225.83,35.1667 1226.5,34.5 Z"/></g>
<g><path style="opacity:0.004" fill="#000000" d="M 1253.5,34.5 C 1254.83,35.1667 1254.83,35.1667 1253.5,34.5 Z"/></g>
<g><path style="opacity:0.004" fill="#000000" d="M 1277.5,34.5 C 1278.83,35.1667 1278.83,35.1667 1277.5,34.5 Z"/></g>
<g><path style="opacity:0.004" fill="#000000" d="M 1332.5,34.5 C 1333.83,35.1667 1333.83,35.1667 1332.5,34.5 Z"/></g>
<g><path style="opacity:0.004" fill="#000000" d="M 577.5,36.5 C 576.833,37.1667 576.833,37.1667 577.5,36.5 Z"/></g>
<g><path style="opacity:0.004" fill="#000000" d="M 596.5,36.5 C 597.833,37.1667 597.833,37.1667 596.5,36.5 Z"/></g>
<g><path style="opacity:0.004" fill="#000000" d="M 711.5,36.5 C 710.833,37.1667 710.833,37.1667 711.5,36.5 Z"/></g>
<g><path style="opacity:0.004" fill="#000000" d="M 732.5,36.5 C 733.833,37.1667 733.833,37.1667 732.5,36.5 Z"/></g>
<g><path style="opacity:0.004" fill="#000000" d="M 985.5,36.5 C 984.833,37.1667 984.833,37.1667 985.5,36.5 Z"/></g>
<g><path style="opacity:0.004" fill="#000000" d="M 1038.5,36.5 C 1039.83,37.1667 1039.83,37.1667 1038.5,36.5 Z"/></g>
<g><path style="opacity:0.004" fill="#000000" d="M 1200.5,36.5 C 1199.83,37.1667 1199.83,37.1667 1200.5,36.5 Z"/></g>
<g><path style="opacity:0.004" fill="#000000" d="M 1255.5,36.5 C 1256.83,37.1667 1256.83,37.1667 1255.5,36.5 Z"/></g>
<g><path style="opacity:0.004" fill="#000000" d="M 1275.5,36.5 C 1276.83,37.1667 1276.83,37.1667 1275.5,36.5 Z"/></g>
<g><path style="opacity:0.004" fill="#000000" d="M 1330.5,36.5 C 1331.83,37.1667 1331.83,37.1667 1330.5,36.5 Z"/></g>
<g><path style="opacity:0.004" fill="#000000" d="M 302.5,38.5 C 303.833,39.1667 303.833,39.1667 302.5,38.5 Z"/></g>
<g><path style="opacity:0.004" fill="#000000" d="M 419.5,38.5 C 420.833,39.1667 420.833,39.1667 419.5,38.5 Z"/></g>
<g><path style="opacity:0.004" fill="#000000" d="M 679.5,38.5 C 680.833,39.1667 680.833,39.1667 679.5,38.5 Z"/></g>
<g><path style="opacity:0.004" fill="#000000" d="M 853.5,38.5 C 854.833,39.1667 854.833,39.1667 853.5,38.5 Z"/></g>
<g><path style="opacity:0.004" fill="#000000" d="M 1011.5,38.5 C 1012.83,39.1667 1012.83,39.1667 1011.5,38.5 Z"/></g>
<g><path style="opacity:0.004" fill="#000000" d="M 1026.5,38.5 C 1025.83,39.1667 1025.83,39.1667 1026.5,38.5 Z"/></g>
<g><path style="opacity:0.004" fill="#000000" d="M 1145.5,38.5 C 1144.83,39.1667 1144.83,39.1667 1145.5,38.5 Z"/></g>
<g><path style="opacity:0.004" fill="#000000" d="M 666.5,45.5 C 667.833,46.1667 667.833,46.1667 666.5,45.5 Z"/></g>
<g><path style="opacity:0.004" fill="#000000" d="M 664.5,47.5 C 665.833,48.1667 665.833,48.1667 664.5,47.5 Z"/></g>
<g><path style="opacity:0.004" fill="#fe0000" d="M 125.5,49.5 C 126.833,50.1667 126.833,50.1667 125.5,49.5 Z"/></g>
<g><path style="opacity:0.004" fill="#000000" d="M 349.5,50.5 C 350.833,51.1667 350.833,51.1667 349.5,50.5 Z"/></g>
<g><path style="opacity:0.004" fill="#000000" d="M 721.5,50.5 C 722.833,51.1667 722.833,51.1667 721.5,50.5 Z"/></g>
<g><path style="opacity:0.004" fill="#000000" d="M 730.5,50.5 C 731.833,51.1667 731.833,51.1667 730.5,50.5 Z"/></g>
<g><path style="opacity:0.004" fill="#000000" d="M 911.5,50.5 C 912.833,51.1667 912.833,51.1667 911.5,50.5 Z"/></g>
<g><path style="opacity:0.004" fill="#000000" d="M 990.5,51.5 C 989.833,50.1667 989.833,50.1667 990.5,51.5 Z"/></g>
<g><path style="opacity:0.004" fill="#000000" d="M 998.5,50.5 C 999.833,51.1667 999.833,51.1667 998.5,50.5 Z"/></g>
<g><path style="opacity:0.004" fill="#000000" d="M 1107.5,51.5 C 1106.83,50.1667 1106.83,50.1667 1107.5,51.5 Z"/></g>
<g><path style="opacity:0.004" fill="#000000" d="M 1324.5,51.5 C 1323.83,50.1667 1323.83,50.1667 1324.5,51.5 Z"/></g>
<g><path style="opacity:0.004" fill="#fe0000" d="M 59.5,51.5 C 60.8333,52.1667 60.8333,52.1667 59.5,51.5 Z"/></g>
<g><path style="opacity:0.8" fill="#231e1f" d="M 944.5,49.5 C 949.437,50.3872 954.103,52.0538 958.5,54.5C 960.954,57.4042 962.287,60.7375 962.5,64.5C 957.538,65.2049 953.871,63.3716 951.5,59C 945.911,56.8987 941.244,58.232 937.5,63C 936.314,67.6386 936.314,72.9719 937.5,79C 941.37,83.1428 946.037,84.3095 951.5,82.5C 953.414,80.0683 954.748,77.4017 955.5,74.5C 957.833,74.5 960.167,74.5 962.5,74.5C 962.432,83.398 958.098,88.898 949.5,91C 944.674,91.6182 940.008,90.9515 935.5,89C 935.833,88.6667 936.167,88.3333 936.5,88C 928.482,82.0253 926.149,73.5253 929.5,62.5C 930.699,59.5344 932.366,56.8678 934.5,54.5C 938.129,52.9863 941.462,51.3196 944.5,49.5 Z"/></g>
<g><path style="opacity:0.004" fill="#000000" d="M 311.5,53.5 C 310.833,52.1667 310.833,52.1667 311.5,53.5 Z"/></g>
<g><path style="opacity:0.004" fill="#000000" d="M 532.5,53.5 C 531.833,52.1667 531.833,52.1667 532.5,53.5 Z"/></g>
<g><path style="opacity:0.004" fill="#000000" d="M 615.5,52.5 C 616.833,53.1667 616.833,53.1667 615.5,52.5 Z"/></g>
<g><path style="opacity:0.638" fill="#241f20" d="M 990.5,51.5 C 993.167,51.5 995.833,51.5 998.5,51.5C 998.5,53.8333 998.5,56.1667 998.5,58.5C 995.833,58.5 993.167,58.5 990.5,58.5C 990.5,56.1667 990.5,53.8333 990.5,51.5 Z"/></g>
<g><path style="opacity:0.503" fill="#241d1e" d="M 1134.5,51.5 C 1137.17,51.5 1139.83,51.5 1142.5,51.5C 1142.5,53.8333 1142.5,56.1667 1142.5,58.5C 1139.83,58.5 1137.17,58.5 1134.5,58.5C 1134.5,56.1667 1134.5,53.8333 1134.5,51.5 Z"/></g>
<g><path style="opacity:0.004" fill="#000000" d="M 1191.5,52.5 C 1192.83,53.1667 1192.83,53.1667 1191.5,52.5 Z"/></g>
<g><path style="opacity:0.004" fill="#fe0000" d="M 61.5,53.5 C 62.8333,54.1667 62.8333,54.1667 61.5,53.5 Z"/></g>
<g><path style="opacity:0.784" fill="#221e20" d="M 311.5,53.5 C 315.52,52.3497 319.52,51.0164 323.5,49.5C 331.969,50.6389 337.303,55.3055 339.5,63.5C 339.333,64.1667 339.167,64.8333 339,65.5C 336.281,64.5562 333.448,64.2229 330.5,64.5C 330.5,59.67 328,57.3367 323,57.5C 319.022,57.9035 316.189,59.9035 314.5,63.5C 313.167,68.5 313.167,73.5 314.5,78.5C 315.354,79.9479 316.354,81.2813 317.5,82.5C 325.157,85.6484 329.824,83.3151 331.5,75.5C 340.768,72.7664 342.768,75.4331 337.5,83.5C 331.786,90.8971 323.953,92.8971 314,89.5C 307.751,84.7864 304.585,78.4531 304.5,70.5C 305.865,67.3134 306.699,63.9801 307,60.5C 308.521,58.1101 310.021,55.7768 311.5,53.5 Z"/></g>
<g><path style="opacity:0.694" fill="#221e20" d="M 366.5,67.5 C 364.914,68.1481 363.247,68.6481 361.5,69C 362.833,73.6667 362.833,78.3333 361.5,83C 363.247,83.3519 364.914,83.8519 366.5,84.5C 366.5,86.5 366.5,88.5 366.5,90.5C 363.091,90.7507 359.758,90.4173 356.5,89.5C 353.384,82.9523 352.718,76.119 354.5,69C 353.552,68.5172 352.552,68.3505 351.5,68.5C 351.5,65.8333 351.5,63.1667 351.5,60.5C 352.552,60.6495 353.552,60.4828 354.5,60C 353.577,57.9592 353.244,55.7925 353.5,53.5C 356.5,53.5 359.5,53.5 362.5,53.5C 362.756,55.7925 362.423,57.9592 361.5,60C 363.134,60.4935 364.801,60.6602 366.5,60.5C 366.5,62.8333 366.5,65.1667 366.5,67.5 Z"/></g>
<g><path style="opacity:0.797" fill="#221e1f" d="M 730.5,51.5 C 730.5,64.5 730.5,77.5 730.5,90.5C 727.751,90.7261 725.084,90.3928 722.5,89.5C 714.435,92.7558 708.601,90.4225 705,82.5C 703.51,75.5891 704.677,69.2558 708.5,63.5C 713.014,60.1235 717.681,59.7902 722.5,62.5C 723.489,58.8927 723.823,55.226 723.5,51.5C 725.833,51.5 728.167,51.5 730.5,51.5 Z M 713.5,68.5 C 723.27,68.6825 725.937,73.3492 721.5,82.5C 718.914,83.48 716.247,83.8134 713.5,83.5C 712.373,81.0023 711.706,78.3356 711.5,75.5C 712.021,73.0759 712.688,70.7426 713.5,68.5 Z"/></g>
<g><path style="opacity:0.758" fill="#221e1f" d="M 1202.5,49.5 C 1210.27,49.8511 1216.27,53.1845 1220.5,59.5C 1221.45,61.0453 1221.79,62.712 1221.5,64.5C 1218.29,64.988 1215.46,64.3213 1213,62.5C 1212.67,62.8333 1212.33,63.1667 1212,63.5C 1211.22,59.5075 1208.72,57.5075 1204.5,57.5C 1197.94,59.3894 1194.61,63.8894 1194.5,71C 1194.75,81.1183 1199.75,84.9516 1209.5,82.5C 1210.86,81.1072 1211.7,79.4405 1212,77.5C 1212.33,77.8333 1212.67,78.1667 1213,78.5C 1213.49,77.2068 1213.66,75.8734 1213.5,74.5C 1216.17,74.5 1218.83,74.5 1221.5,74.5C 1220.49,84.8364 1214.82,90.5031 1204.5,91.5C 1198.45,91.3141 1193.95,89.3141 1191,85.5C 1187.59,78.2254 1186.59,70.5587 1188,62.5C 1190.68,55.5037 1195.51,51.1704 1202.5,49.5 Z"/></g>
<g><path style="opacity:0.732" fill="#221e1f" d="M 279.5,53.5 C 282.167,53.5 284.833,53.5 287.5,53.5C 287.756,55.7925 287.423,57.9592 286.5,60C 287.325,61.6883 288.325,61.8549 289.5,60.5C 290.48,63.0865 290.813,65.7531 290.5,68.5C 289.5,68.5 288.5,68.5 287.5,68.5C 287.803,73.43 287.469,78.2633 286.5,83C 287.793,83.49 289.127,83.6567 290.5,83.5C 290.5,85.8333 290.5,88.1667 290.5,90.5C 286.869,90.9677 283.535,90.301 280.5,88.5C 279.669,81.5236 279.169,74.5236 279,67.5C 276.355,68.7084 275.188,67.7084 275.5,64.5C 275.188,61.2916 276.355,60.2916 279,61.5C 279.497,58.854 279.664,56.1873 279.5,53.5 Z"/></g>
<g><path style="opacity:0.593" fill="#221e20" d="M 532.5,53.5 C 534.833,53.5 537.167,53.5 539.5,53.5C 539.5,55.8333 539.5,58.1667 539.5,60.5C 540.833,60.5 542.167,60.5 543.5,60.5C 543.5,63.1667 543.5,65.8333 543.5,68.5C 542.167,68.5 540.833,68.5 539.5,68.5C 539.5,73.5 539.5,78.5 539.5,83.5C 540.833,83.5 542.167,83.5 543.5,83.5C 543.5,85.8333 543.5,88.1667 543.5,90.5C 539.889,90.9559 536.556,90.2892 533.5,88.5C 532.669,81.5236 532.169,74.5236 532,67.5C 530.989,68.3366 529.822,68.67 528.5,68.5C 528.5,65.8333 528.5,63.1667 528.5,60.5C 529.822,60.33 530.989,60.6634 532,61.5C 532.497,58.854 532.664,56.1873 532.5,53.5 Z"/></g>
<g><path style="opacity:0.698" fill="#231f20" d="M 966.5,51.5 C 968.833,51.5 971.167,51.5 973.5,51.5C 973.5,53.8333 973.5,56.1667 973.5,58.5C 971.167,58.5 968.833,58.5 966.5,58.5C 966.5,56.1667 966.5,53.8333 966.5,51.5 Z"/></g>
<g><path style="opacity:0.004" fill="#fe0000" d="M 63.5,55.5 C 64.8333,56.1667 64.8333,56.1667 63.5,55.5 Z"/></g>
<g><path style="opacity:0.817" fill="#231e1f" d="M 349.5,51.5 C 349.5,53.8333 349.5,56.1667 349.5,58.5C 346.833,58.5 344.167,58.5 341.5,58.5C 341.5,56.1667 341.5,53.8333 341.5,51.5C 344.167,51.5 346.833,51.5 349.5,51.5 Z"/></g>
<g><path style="opacity:0.739" fill="#221e1f" d="M 966.5,60.5 C 970.223,60.7187 973.723,61.0521 977,61.5C 977.497,58.854 977.664,56.1873 977.5,53.5C 980.167,53.5 982.833,53.5 985.5,53.5C 985.336,56.1873 985.503,58.854 986,61.5C 988.29,60.59 989.456,61.59 989.5,64.5C 989.455,67.1895 988.121,68.5228 985.5,68.5C 985.5,73.5 985.5,78.5 985.5,83.5C 989.252,84.3057 990.252,86.4723 988.5,90C 984.882,90.966 981.549,90.466 978.5,88.5C 977.669,81.5236 977.169,74.5236 977,67.5C 975.605,68.8146 974.605,68.4812 974,66.5C 973.5,74.4931 973.334,82.4931 973.5,90.5C 971.167,90.5 968.833,90.5 966.5,90.5C 966.5,80.5 966.5,70.5 966.5,60.5 Z"/></g>
<g><path style="opacity:0.004" fill="#000000" d="M 274.5,59.5 C 275.833,60.1667 275.833,60.1667 274.5,59.5 Z"/></g>
<g><path style="opacity:0.004" fill="#000000" d="M 340.5,59.5 C 341.833,60.1667 341.833,60.1667 340.5,59.5 Z"/></g>
<g><path style="opacity:0.006" fill="#000000" d="M 349.5,60.5 C 350.167,59.1667 350.833,59.1667 351.5,60.5C 350.833,60.5 350.167,60.5 349.5,60.5 Z"/></g>
<g><path style="opacity:0.004" fill="#000000" d="M 391.5,59.5 C 392.833,60.1667 392.833,60.1667 391.5,59.5 Z"/></g>
<g><path style="opacity:0.004" fill="#000000" d="M 400.5,59.5 C 401.833,60.1667 401.833,60.1667 400.5,59.5 Z"/></g>
<g><path style="opacity:0.004" fill="#000000" d="M 411.5,60.5 C 410.833,59.1667 410.833,59.1667 411.5,60.5 Z"/></g>
<g><path style="opacity:0.004" fill="#000000" d="M 447.5,60.5 C 446.833,59.1667 446.833,59.1667 447.5,60.5 Z"/></g>
<g><path style="opacity:0.004" fill="#000000" d="M 468.5,59.5 C 469.833,60.1667 469.833,60.1667 468.5,59.5 Z"/></g>
<g><path style="opacity:0.004" fill="#000000" d="M 474.5,59.5 C 475.833,60.1667 475.833,60.1667 474.5,59.5 Z"/></g>
<g><path style="opacity:0.004" fill="#000000" d="M 528.5,60.5 C 527.833,59.1667 527.833,59.1667 528.5,60.5 Z"/></g>
<g><path style="opacity:0.004" fill="#000000" d="M 860.5,60.5 C 859.833,59.1667 859.833,59.1667 860.5,60.5 Z"/></g>
<g><path style="opacity:0.004" fill="#000000" d="M 966.5,60.5 C 965.833,59.1667 965.833,59.1667 966.5,60.5 Z"/></g>
<g><path style="opacity:0.008" fill="#000000" d="M 989.5,59.5 C 990.833,60.1667 990.833,60.1667 989.5,59.5 Z"/></g>
<g><path style="opacity:0.004" fill="#000000" d="M 998.5,59.5 C 999.833,60.1667 999.833,60.1667 998.5,59.5 Z"/></g>
<g><path style="opacity:0.004" fill="#000000" d="M 1053.5,59.5 C 1054.83,60.1667 1054.83,60.1667 1053.5,59.5 Z"/></g>
<g><path style="opacity:0.004" fill="#000000" d="M 272.5,61.5 C 273.833,62.1667 273.833,62.1667 272.5,61.5 Z"/></g>
<g><path style="opacity:0.595" fill="#241d22" d="M 349.5,60.5 C 349.5,70.5 349.5,80.5 349.5,90.5C 346.833,90.5 344.167,90.5 341.5,90.5C 341.334,80.8276 341.5,71.1609 342,61.5C 344.381,60.565 346.881,60.2317 349.5,60.5 Z"/></g>
<g><path style="opacity:0.72" fill="#221e1f" d="M 366.5,84.5 C 366.212,81.6034 365.545,78.7701 364.5,76C 366.121,74.135 366.788,71.3016 366.5,67.5C 368.452,65.548 370.452,63.548 372.5,61.5C 388.143,58.9779 394.643,65.6445 392,81.5C 387.71,90.5429 380.877,93.2096 371.5,89.5C 369.785,87.7853 368.119,86.1186 366.5,84.5 Z M 375.5,68.5 C 378.167,68.5 380.833,68.5 383.5,68.5C 384.242,70.5943 384.909,72.761 385.5,75C 384.582,77.7607 383.916,80.5941 383.5,83.5C 379.993,84.0065 376.826,83.3398 374,81.5C 372.978,76.8711 373.478,72.5377 375.5,68.5 Z"/></g>
<g><path style="opacity:0.004" fill="#000000" d="M 421.5,61.5 C 422.833,62.1667 422.833,62.1667 421.5,61.5 Z"/></g>
<g><path style="opacity:0.672" fill="#231e1f" d="M 447.5,60.5 C 450.466,60.1103 453.132,60.777 455.5,62.5C 457.454,61.3203 459.621,60.6537 462,60.5C 464.951,60.8825 467.785,61.5492 470.5,62.5C 472.327,71.6808 472.994,81.0141 472.5,90.5C 469.833,90.5 467.167,90.5 464.5,90.5C 464.5,83.1667 464.5,75.8333 464.5,68.5C 461.289,68.012 458.456,68.6787 456,70.5C 455.5,77.1583 455.334,83.825 455.5,90.5C 452.833,90.5 450.167,90.5 447.5,90.5C 447.5,80.5 447.5,70.5 447.5,60.5 Z"/></g>
<g><path style="opacity:0.004" fill="#000000" d="M 470.5,61.5 C 471.833,62.1667 471.833,62.1667 470.5,61.5 Z"/></g>
<g><path style="opacity:0.004" fill="#000000" d="M 498.5,61.5 C 499.833,62.1667 499.833,62.1667 498.5,61.5 Z"/></g>
<g><path style="opacity:0.004" fill="#000000" d="M 547.5,62.5 C 546.833,61.1667 546.833,61.1667 547.5,62.5 Z"/></g>
<g><path style="opacity:0.004" fill="#000000" d="M 566.5,61.5 C 567.833,62.1667 567.833,62.1667 566.5,61.5 Z"/></g>
<g><path style="opacity:0.004" fill="#000000" d="M 623.5,61.5 C 624.833,62.1667 624.833,62.1667 623.5,61.5 Z"/></g>
<g><path style="opacity:0.004" fill="#000000" d="M 700.5,61.5 C 701.833,62.1667 701.833,62.1667 700.5,61.5 Z"/></g>
<g><path style="opacity:0.004" fill="#000000" d="M 736.5,62.5 C 735.833,61.1667 735.833,61.1667 736.5,62.5 Z"/></g>
<g><path style="opacity:0.004" fill="#000000" d="M 834.5,62.5 C 833.833,61.1667 833.833,61.1667 834.5,62.5 Z"/></g>
<g><path style="opacity:0.673" fill="#221e1f" d="M 998.5,60.5 C 998.5,70.5 998.5,80.5 998.5,90.5C 995.833,90.5 993.167,90.5 990.5,90.5C 990.334,80.8276 990.5,71.1609 991,61.5C 993.381,60.565 995.881,60.2317 998.5,60.5 Z"/></g>
<g><path style="opacity:0.777" fill="#231f20" d="M 1055.5,60.5 C 1058.14,60.1601 1060.48,60.8267 1062.5,62.5C 1063.7,62.1543 1063.7,61.6543 1062.5,61C 1067.76,59.8485 1072.59,60.6818 1077,63.5C 1079.34,72.2479 1080.18,81.2479 1079.5,90.5C 1076.83,90.5 1074.17,90.5 1071.5,90.5C 1071.67,83.825 1071.5,77.1583 1071,70.5C 1068.62,68.2559 1065.96,67.9226 1063,69.5C 1062.5,76.4921 1062.33,83.4921 1062.5,90.5C 1060.17,90.5 1057.83,90.5 1055.5,90.5C 1055.5,80.5 1055.5,70.5 1055.5,60.5 Z"/></g>
<g><path style="opacity:0.004" fill="#000000" d="M 1083.5,62.5 C 1082.83,61.1667 1082.83,61.1667 1083.5,62.5 Z"/></g>
<g><path style="opacity:0.004" fill="#000000" d="M 1102.5,61.5 C 1103.83,62.1667 1103.83,62.1667 1102.5,61.5 Z"/></g>
<g><path style="opacity:0.594" fill="#221e1f" d="M 1107.5,51.5 C 1110.17,51.5 1112.83,51.5 1115.5,51.5C 1115.33,54.8499 1115.5,58.1832 1116,61.5C 1119.74,60.374 1123.58,60.2073 1127.5,61C 1127.17,61.3333 1126.83,61.6667 1126.5,62C 1129.38,63.1415 1131.04,65.3082 1131.5,68.5C 1132.5,75.8032 1132.83,83.1365 1132.5,90.5C 1129.75,90.8134 1127.09,90.48 1124.5,89.5C 1123.85,83.3022 1123.19,77.1355 1122.5,71C 1122.96,70.586 1123.29,70.086 1123.5,69.5C 1120.97,68.2234 1118.47,68.2234 1116,69.5C 1115.5,76.4921 1115.33,83.4921 1115.5,90.5C 1112.83,90.5 1110.17,90.5 1107.5,90.5C 1107.5,77.5 1107.5,64.5 1107.5,51.5 Z"/></g>
<g><path style="opacity:0.004" fill="#000000" d="M 1168.5,61.5 C 1169.83,62.1667 1169.83,62.1667 1168.5,61.5 Z"/></g>
<g><path style="opacity:0.739" fill="#221e1f" d="M 1245.5,62.5 C 1245.5,63.8333 1246.17,64.5 1247.5,64.5C 1247.33,71.175 1247.5,77.8417 1248,84.5C 1248.67,83.1667 1249.33,83.1667 1250,84.5C 1250.5,86.4727 1250.66,88.4727 1250.5,90.5C 1246.99,91.0065 1243.83,90.3398 1241,88.5C 1235.89,92.2176 1230.89,92.2176 1226,88.5C 1225.62,89.056 1225.12,89.3893 1224.5,89.5C 1223.59,86.9453 1222.92,84.2786 1222.5,81.5C 1222.69,77.035 1225.02,74.2017 1229.5,73C 1227.87,72.5065 1226.2,72.3398 1224.5,72.5C 1223.85,64.0257 1227.85,60.0257 1236.5,60.5C 1238.83,60.6667 1241.17,60.8333 1243.5,61C 1243.17,61.3333 1242.83,61.6667 1242.5,62C 1243.45,62.4828 1244.45,62.6495 1245.5,62.5 Z M 1231.5,69.5 C 1234.3,68.3622 1237.3,68.1955 1240.5,69C 1239.66,70.0113 1239.33,71.1779 1239.5,72.5C 1236.43,72.8174 1233.43,72.4841 1230.5,71.5C 1231.03,70.8076 1231.69,70.3076 1232.5,70C 1232.27,69.6012 1231.94,69.4346 1231.5,69.5 Z M 1236.5,77.5 C 1237.98,77.238 1239.31,77.5713 1240.5,78.5C 1239.36,79.4255 1239.36,80.2588 1240.5,81C 1237.64,83.2863 1234.3,84.1197 1230.5,83.5C 1230.5,82.1667 1230.5,80.8333 1230.5,79.5C 1233.01,79.9465 1235.01,79.2798 1236.5,77.5 Z"/></g>
<g><path style="opacity:0.004" fill="#000000" d="M 1245.5,61.5 C 1246.83,62.1667 1246.83,62.1667 1245.5,61.5 Z"/></g>
<g><path style="opacity:0.004" fill="#000000" d="M 1274.5,61.5 C 1275.83,62.1667 1275.83,62.1667 1274.5,61.5 Z"/></g>
<g><path style="opacity:0.004" fill="#000000" d="M 1281.5,62.5 C 1280.83,61.1667 1280.83,61.1667 1281.5,62.5 Z"/></g>
<g><path style="opacity:0.004" fill="#000000" d="M 1309.5,62.5 C 1308.83,61.1667 1308.83,61.1667 1309.5,62.5 Z"/></g>
<g><path style="opacity:0.785" fill="#221e1f" d="M 1340.5,60.5 C 1345.18,60.3342 1349.85,60.5008 1354.5,61C 1354.17,61.3333 1353.83,61.6667 1353.5,62C 1355.52,62.513 1357.02,63.6797 1358,65.5C 1358.5,71.4908 1358.67,77.4908 1358.5,83.5C 1362.47,84.0755 1363.47,86.2421 1361.5,90C 1358.22,90.9286 1355.22,90.4286 1352.5,88.5C 1339.39,94.4665 1333.72,90.4665 1335.5,76.5C 1336.82,74.8409 1338.48,73.6743 1340.5,73C 1338.83,72.6667 1337.17,72.3333 1335.5,72C 1334.98,71.4387 1334.64,70.772 1334.5,70C 1335.69,66.1943 1337.69,63.0276 1340.5,60.5 Z M 1342.5,68.5 C 1345.5,68.5 1348.5,68.5 1351.5,68.5C 1350.98,71.7749 1348.98,73.1083 1345.5,72.5C 1344.17,72.1667 1342.83,71.8333 1341.5,71.5C 1342.13,70.5832 1342.46,69.5832 1342.5,68.5 Z M 1347.5,77.5 C 1348.83,77.5 1350.17,77.5 1351.5,77.5C 1351.67,79.4918 1351,81.1585 1349.5,82.5C 1346.91,83.48 1344.25,83.8134 1341.5,83.5C 1341.5,82.1667 1341.5,80.8333 1341.5,79.5C 1344.01,79.9465 1346.01,79.2798 1347.5,77.5 Z"/></g>
<g><path style="opacity:0.004" fill="#000000" d="M 1357.5,61.5 C 1358.83,62.1667 1358.83,62.1667 1357.5,61.5 Z"/></g>
<g><path style="opacity:0.841" fill="#231e1e" d="M 437.5,79.5 C 439.857,79.3367 442.19,79.5034 444.5,80C 444.472,86.256 441.139,89.9226 434.5,91C 424.429,91.4561 419.095,86.6227 418.5,76.5C 417.762,69.6848 420.429,64.8514 426.5,62C 426.167,61.6667 425.833,61.3333 425.5,61C 438.908,57.9831 445.575,63.8164 445.5,78.5C 442.615,78.1936 439.948,78.5269 437.5,79.5 Z M 428.5,68.5 C 431.167,68.5 433.833,68.5 436.5,68.5C 436.33,69.8221 436.663,70.9887 437.5,72C 433.789,72.8253 430.122,72.6586 426.5,71.5C 427.193,70.4822 427.859,69.4822 428.5,68.5 Z M 437.5,79.5 C 436.766,80.7079 436.433,82.0413 436.5,83.5C 433.813,83.6641 431.146,83.4974 428.5,83C 426.579,81.7592 426.246,80.2592 427.5,78.5C 430.758,79.4173 434.091,79.7507 437.5,79.5 Z"/></g>
<g><path style="opacity:0.856" fill="#221e1f" d="M 1015.5,79.5 C 1013.73,80.4214 1012.06,81.5881 1010.5,83C 1015.15,83.4992 1019.82,83.6658 1024.5,83.5C 1024.5,85.8333 1024.5,88.1667 1024.5,90.5C 1016.5,90.5 1008.5,90.5 1000.5,90.5C 1000.19,87.7531 1000.52,85.0865 1001.5,82.5C 1003.86,79.8136 1006.19,77.147 1008.5,74.5C 1009.58,72.2457 1011.25,70.4124 1013.5,69C 1009.18,68.501 1004.85,68.3343 1000.5,68.5C 1000.5,65.8333 1000.5,63.1667 1000.5,60.5C 1008.5,60.5 1016.5,60.5 1024.5,60.5C 1024.66,62.8568 1024.5,65.1902 1024,67.5C 1021.59,69.912 1019.59,71.912 1018,73.5C 1016.88,75.4205 1016.04,77.4205 1015.5,79.5 Z"/></g>
<g><path style="opacity:0.808" fill="#221e1f" d="M 1168.5,62.5 C 1168.39,63.1174 1168.06,63.6174 1167.5,64C 1173.38,70.8956 1174.05,78.3956 1169.5,86.5C 1164.48,91.3435 1158.81,92.5102 1152.5,90C 1153.45,93.0567 1153.78,96.2234 1153.5,99.5C 1150.83,99.5 1148.17,99.5 1145.5,99.5C 1145.5,86.5 1145.5,73.5 1145.5,60.5C 1148.47,60.1103 1151.13,60.777 1153.5,62.5C 1154.7,62.1543 1154.7,61.6543 1153.5,61C 1158.67,60.1981 1163.67,60.6981 1168.5,62.5 Z M 1154.5,68.5 C 1157.17,68.5 1159.83,68.5 1162.5,68.5C 1163.37,70.8967 1164.03,73.3967 1164.5,76C 1164.03,78.6033 1163.37,81.1033 1162.5,83.5C 1159.75,83.8134 1157.09,83.48 1154.5,82.5C 1153.23,77.8347 1153.23,73.1681 1154.5,68.5 Z"/></g>
<g><path style="opacity:0.756" fill="#231e1f" d="M 1251.5,60.5 C 1254.47,60.1103 1257.13,60.777 1259.5,62.5C 1263.29,60.331 1267.29,59.9977 1271.5,61.5C 1272.85,62.6853 1274.02,64.0186 1275,65.5C 1275.5,73.8267 1275.67,82.16 1275.5,90.5C 1273.17,90.5 1270.83,90.5 1268.5,90.5C 1268.5,83.1667 1268.5,75.8333 1268.5,68.5C 1264.71,67.8992 1261.54,68.8992 1259,71.5C 1258.5,77.8246 1258.33,84.1579 1258.5,90.5C 1256.17,90.5 1253.83,90.5 1251.5,90.5C 1251.5,80.5 1251.5,70.5 1251.5,60.5 Z"/></g>
<g><path style="opacity:0.755" fill="#231e1f" d="M 498.5,62.5 C 500.2,71.7241 500.867,81.0575 500.5,90.5C 497.833,90.5 495.167,90.5 492.5,90.5C 492.666,83.4921 492.5,76.4921 492,69.5C 489.333,68.1667 486.667,68.1667 484,69.5C 483.5,76.4921 483.334,83.4921 483.5,90.5C 480.833,90.5 478.167,90.5 475.5,90.5C 475.334,80.8276 475.5,71.1609 476,61.5C 478.713,60.0109 481.213,60.3443 483.5,62.5C 484.696,62.1543 484.696,61.6543 483.5,61C 487.833,60.3333 492.167,60.3333 496.5,61C 496.167,61.3333 495.833,61.6667 495.5,62C 496.448,62.4828 497.448,62.6495 498.5,62.5 Z"/></g>
<g><path style="opacity:0.004" fill="#000000" d="M 568.5,63.5 C 569.833,64.1667 569.833,64.1667 568.5,63.5 Z"/></g>
<g><path style="opacity:0.796" fill="#221e1f" d="M 911.5,51.5 C 911.5,64.5 911.5,77.5 911.5,90.5C 909.08,90.7076 906.747,90.3742 904.5,89.5C 897.522,92.5621 892.022,90.8954 888,84.5C 887.64,82.3921 886.973,80.3921 886,78.5C 885.501,82.4862 885.334,86.4862 885.5,90.5C 882.833,90.5 880.167,90.5 877.5,90.5C 877.666,83.825 877.5,77.1583 877,70.5C 876.667,76.5 876.333,82.5 876,88.5C 875.19,81.9184 875.357,75.4184 876.5,69C 873.901,68.231 871.401,68.3977 869,69.5C 868.5,76.4921 868.334,83.4921 868.5,90.5C 865.833,90.5 863.167,90.5 860.5,90.5C 860.5,80.5 860.5,70.5 860.5,60.5C 862.857,60.3367 865.19,60.5034 867.5,61C 866.304,61.6543 866.304,62.1543 867.5,62.5C 871.592,60.4878 875.925,59.9878 880.5,61C 880.167,61.3333 879.833,61.6667 879.5,62C 882.499,63.0465 883.999,65.2132 884,68.5C 884.333,68.1667 884.667,67.8333 885,67.5C 885.425,76.6763 886.425,76.6763 888,67.5C 888.833,66 890,64.8333 891.5,64C 891.167,63.6667 890.833,63.3333 890.5,63C 892.972,61.6038 895.638,60.7704 898.5,60.5C 900.641,60.6132 902.475,61.2799 904,62.5C 904.499,58.8484 904.665,55.1817 904.5,51.5C 906.833,51.5 909.167,51.5 911.5,51.5 Z M 896.5,68.5 C 899.394,68.0423 901.894,68.709 904,70.5C 904.667,74.1667 904.667,77.8333 904,81.5C 897.506,85.3914 894.339,83.5581 894.5,76C 894.631,73.2228 895.298,70.7228 896.5,68.5 Z"/></g>
<g><path style="opacity:0.004" fill="#000000" d="M 1170.5,63.5 C 1171.83,64.1667 1171.83,64.1667 1170.5,63.5 Z"/></g>
<g><path style="opacity:0.004" fill="#000000" d="M 1247.5,63.5 C 1248.83,64.1667 1248.83,64.1667 1247.5,63.5 Z"/></g>
<g><path style="opacity:0.004" fill="#000000" d="M 1307.5,64.5 C 1306.83,63.1667 1306.83,63.1667 1307.5,64.5 Z"/></g>
<g><path style="opacity:0.829" fill="#231d1e" d="M 566.5,62.5 C 566.5,63.8333 567.167,64.5 568.5,64.5C 569.937,69.0275 570.604,73.6942 570.5,78.5C 567.615,78.1936 564.948,78.5269 562.5,79.5C 565.167,79.5 567.833,79.5 570.5,79.5C 569.212,87.049 564.712,91.049 557,91.5C 554.11,90.87 551.276,90.0367 548.5,89C 547.064,86.8176 545.397,84.9842 543.5,83.5C 543.5,78.5 543.5,73.5 543.5,68.5C 545.719,67.1718 547.052,65.1718 547.5,62.5C 548.873,62.6567 550.207,62.49 551.5,62C 550.766,58.2209 552.099,55.0542 555.5,52.5C 558.032,51.8811 560.365,50.8811 562.5,49.5C 563.5,49.8333 564.167,50.5 564.5,51.5C 562.344,54.8227 559.677,57.656 556.5,60C 560.759,60.1676 564.092,61.0009 566.5,62.5 Z M 552.5,69.5 C 555.304,68.3622 558.304,68.1955 561.5,69C 561.167,69.3333 560.833,69.6667 560.5,70C 561.308,70.3076 561.975,70.8076 562.5,71.5C 558.833,72.8333 555.167,72.8333 551.5,71.5C 552.025,70.8076 552.692,70.3076 553.5,70C 553.272,69.6012 552.938,69.4346 552.5,69.5 Z M 562.5,79.5 C 562.423,80.7498 561.756,81.5831 560.5,82C 560.833,82.3333 561.167,82.6667 561.5,83C 558.5,83.6667 555.5,83.6667 552.5,83C 552.833,82.6667 553.167,82.3333 553.5,82C 551.842,81.2747 551.342,80.108 552,78.5C 555.394,79.4558 558.894,79.7892 562.5,79.5 Z"/></g>
<g><path style="opacity:0.004" fill="#000000" d="M 611.5,64.5 C 610.833,65.1667 610.833,65.1667 611.5,64.5 Z"/></g>
<g><path style="opacity:0.982" fill="#231d1d" d="M 1134.5,60.5 C 1137.12,60.2317 1139.62,60.565 1142,61.5C 1142.5,71.1609 1142.67,80.8276 1142.5,90.5C 1139.83,90.5 1137.17,90.5 1134.5,90.5C 1134.5,80.5 1134.5,70.5 1134.5,60.5 Z"/></g>
<g><path style="opacity:0.798" fill="#231e20" d="M 628.5,72.5 C 626.833,72.5 625.167,72.5 623.5,72.5C 622.348,67.5008 624.015,64.0008 628.5,62C 628.167,61.6667 627.833,61.3333 627.5,61C 632.202,60.1717 636.869,60.3384 641.5,61.5C 642.934,62.2298 644.1,63.2298 645,64.5C 645.5,70.8246 645.666,77.1579 645.5,83.5C 646.822,83.33 647.989,83.6634 649,84.5C 649.183,76.5876 649.683,68.7543 650.5,61C 653.466,60.1048 656.133,60.6048 658.5,62.5C 668.102,58.0016 673.602,61.0016 675,71.5C 675.5,77.8246 675.666,84.1579 675.5,90.5C 672.5,90.5 669.5,90.5 666.5,90.5C 666.5,83.1667 666.5,75.8333 666.5,68.5C 663.881,68.2317 661.381,68.565 659,69.5C 658.5,76.4921 658.334,83.4921 658.5,90.5C 655.833,90.5 653.167,90.5 650.5,90.5C 650.167,83.8333 649.833,83.8333 649.5,90.5C 646.813,90.6641 644.146,90.4974 641.5,90C 640.874,89.2496 640.374,88.4162 640,87.5C 633.251,93.1419 627.251,92.4752 622,85.5C 620.881,79.4692 623.048,75.1359 628.5,72.5 Z M 628.5,72.5 C 629.806,71.5326 630.473,70.1993 630.5,68.5C 633.167,68.5 635.833,68.5 638.5,68.5C 638.67,69.8221 638.337,70.9887 637.5,72C 634.518,72.498 631.518,72.6646 628.5,72.5 Z M 635.5,77.5 C 636.5,77.5 637.5,77.5 638.5,77.5C 638.643,79.2624 638.309,80.9291 637.5,82.5C 634.572,83.4841 631.572,83.8174 628.5,83.5C 628.33,82.1779 628.663,81.0113 629.5,80C 631.974,79.9633 633.974,79.13 635.5,77.5 Z"/></g>
<g><path style="opacity:0.924" fill="#221e1f" d="M 1324.5,51.5 C 1327.17,51.5 1329.83,51.5 1332.5,51.5C 1332.5,64.5 1332.5,77.5 1332.5,90.5C 1327.35,89.2127 1322.35,89.546 1317.5,91.5C 1314.99,91.167 1312.82,90.167 1311,88.5C 1310.62,89.056 1310.12,89.3893 1309.5,89.5C 1309.65,88.448 1309.48,87.448 1309,86.5C 1308.67,86.8333 1308.33,87.1667 1308,87.5C 1304.84,79.9649 1304.68,72.2982 1307.5,64.5C 1308.83,64.5 1309.5,63.8333 1309.5,62.5C 1312.22,61.5492 1315.05,60.8825 1318,60.5C 1320.3,60.6004 1322.3,61.267 1324,62.5C 1324.5,58.8484 1324.67,55.1817 1324.5,51.5 Z M 1315.5,68.5 C 1318.68,68.0016 1321.35,68.8349 1323.5,71C 1323.17,71.3333 1322.83,71.6667 1322.5,72C 1323.62,72.8388 1324.29,74.0055 1324.5,75.5C 1323,77.8441 1322.33,80.1775 1322.5,82.5C 1316.34,84.7157 1313.34,82.549 1313.5,76C 1313.77,73.319 1314.44,70.819 1315.5,68.5 Z"/></g>
<g><path style="opacity:0.774" fill="#221e1f" d="M 1102.5,62.5 C 1104.21,65.2563 1104.71,68.2563 1104,71.5C 1102.3,72.4061 1100.47,72.7394 1098.5,72.5C 1104.79,74.8218 1106.79,79.3218 1104.5,86C 1098.65,91.9311 1091.99,92.9311 1084.5,89C 1082.11,86.3054 1081.11,83.1388 1081.5,79.5C 1083.83,79.5 1086.17,79.5 1088.5,79.5C 1088.5,80.8333 1088.5,82.1667 1088.5,83.5C 1091.83,83.5 1095.17,83.5 1098.5,83.5C 1098.72,82.325 1098.39,81.325 1097.5,80.5C 1091.69,79.5091 1086.52,77.1758 1082,73.5C 1081.83,72.1667 1081.67,70.8333 1081.5,69.5C 1082.02,67.0759 1082.69,64.7426 1083.5,62.5C 1084.55,62.6495 1085.55,62.4828 1086.5,62C 1086.17,61.6667 1085.83,61.3333 1085.5,61C 1091.33,60.1456 1097,60.6456 1102.5,62.5 Z M 1098.5,72.5 C 1094.68,72.9794 1091.35,71.9794 1088.5,69.5C 1092.81,67.7394 1096.15,68.7394 1098.5,72.5 Z"/></g>
<g><path style="opacity:0.767" fill="#221e1f" d="M 1279.5,72.5 C 1279.46,68.9913 1280.12,65.658 1281.5,62.5C 1283.89,60.9417 1287.22,60.275 1291.5,60.5C 1295.32,60.5399 1298.82,61.5399 1302,63.5C 1304.13,69.3395 1304.8,75.3395 1304,81.5C 1302.19,82.8514 1302.52,83.8514 1305,84.5C 1305.5,86.4727 1305.66,88.4727 1305.5,90.5C 1302.07,90.8935 1298.9,90.2268 1296,88.5C 1288.66,93.3698 1282.99,92.0365 1279,84.5C 1278.67,84.8333 1278.33,85.1667 1278,85.5C 1276.95,79.6647 1279.11,75.498 1284.5,73C 1282.87,72.5065 1281.2,72.3398 1279.5,72.5 Z M 1286.5,69.5 C 1289.3,68.3622 1292.3,68.1955 1295.5,69C 1294.66,70.0113 1294.33,71.1779 1294.5,72.5C 1291.48,72.6646 1288.48,72.498 1285.5,72C 1287,71.1618 1287.33,70.3285 1286.5,69.5 Z M 1291.5,77.5 C 1292.98,77.238 1294.31,77.5713 1295.5,78.5C 1294.69,80.0709 1294.36,81.7376 1294.5,83.5C 1291.55,83.7771 1288.72,83.4438 1286,82.5C 1285.38,81.5509 1285.55,80.7175 1286.5,80C 1288.65,79.9005 1290.32,79.0672 1291.5,77.5 Z"/></g>
<g><path style="opacity:0.892" fill="#231e1f" d="M 268.5,79.5 C 270.833,79.5 273.167,79.5 275.5,79.5C 274.372,87.1212 269.872,91.1212 262,91.5C 253.067,90.2293 248.9,85.0626 249.5,76C 249.554,66.0266 253.887,60.8599 262.5,60.5C 272.909,61.9303 277.242,67.9303 275.5,78.5C 272.941,78.1984 270.607,78.5318 268.5,79.5 Z M 258.5,68.5 C 262.357,67.9616 265.691,68.9616 268.5,71.5C 264.5,72.8333 260.5,72.8333 256.5,71.5C 257.612,70.7348 258.279,69.7348 258.5,68.5 Z M 268.5,79.5 C 267.575,82.2598 265.575,83.5931 262.5,83.5C 258.66,83.7845 257.16,82.1179 258,78.5C 261.394,79.4558 264.894,79.7892 268.5,79.5 Z"/></g>
<g><path style="opacity:0.004" fill="#000000" d="M 485.5,70.5 C 486.833,71.1667 486.833,71.1667 485.5,70.5 Z"/></g>
<g><path style="opacity:0.874" fill="#241e1f" d="M 528.5,68.5 C 528.5,71.8333 528.5,75.1667 528.5,78.5C 525.941,78.1984 523.607,78.5318 521.5,79.5C 523.833,79.5 526.167,79.5 528.5,79.5C 525.922,89.4371 519.589,92.9371 509.5,90C 504.062,86.8931 501.729,82.2265 502.5,76C 502.787,63.3072 509.12,58.4738 521.5,61.5C 524.254,63.5869 526.587,65.9203 528.5,68.5 Z M 511.5,68.5 C 515.357,67.9616 518.691,68.9616 521.5,71.5C 517.5,72.8333 513.5,72.8333 509.5,71.5C 510.612,70.7348 511.279,69.7348 511.5,68.5 Z M 521.5,79.5 C 520.575,82.2598 518.575,83.5931 515.5,83.5C 512.78,83.4956 510.78,82.3289 509.5,80C 509.833,79.5 510.167,79 510.5,78.5C 514.094,79.4259 517.76,79.7592 521.5,79.5 Z"/></g>
<g><path style="opacity:0.004" fill="#000000" d="M 870.5,70.5 C 871.833,71.1667 871.833,71.1667 870.5,70.5 Z"/></g>
<g><path style="opacity:0.004" fill="#000000" d="M 1064.5,70.5 C 1065.83,71.1667 1065.83,71.1667 1064.5,70.5 Z"/></g>
<g><path style="opacity:0.004" fill="#000000" d="M 621.5,72.5 C 622.833,73.1667 622.833,73.1667 621.5,72.5 Z"/></g>
<g><path style="opacity:0.004" fill="#000000" d="M 734.5,72.5 C 733.833,73.1667 733.833,73.1667 734.5,72.5 Z"/></g>
<g><path style="opacity:0.707" fill="#221e1f" d="M 734.5,72.5 C 734.155,68.8849 734.822,65.5516 736.5,62.5C 737.552,62.6495 738.552,62.4828 739.5,62C 739.167,61.6667 738.833,61.3333 738.5,61C 744.523,59.8364 750.19,60.6697 755.5,63.5C 756.296,70.1166 756.796,76.7833 757,83.5C 757.741,84.6405 758.575,84.6405 759.5,83.5C 760.474,85.7427 760.808,88.076 760.5,90.5C 757.5,90.5 754.5,90.5 751.5,90.5C 751.649,89.448 751.483,88.448 751,87.5C 745.927,92.2706 740.594,92.6039 735,88.5C 730.907,81.6588 732.407,76.4922 739.5,73C 737.866,72.5065 736.199,72.3398 734.5,72.5 Z M 741.5,68.5 C 744.167,68.5 746.833,68.5 749.5,68.5C 749.5,69.8333 749.5,71.1667 749.5,72.5C 746.482,72.6646 743.482,72.498 740.5,72C 741.337,70.9887 741.67,69.8221 741.5,68.5 Z M 746.5,77.5 C 747.5,77.5 748.5,77.5 749.5,77.5C 750.593,82.2393 748.76,84.2393 744,83.5C 742.5,83.1667 741,82.8333 739.5,82.5C 739.833,81.8333 740.167,81.1667 740.5,80.5C 742.884,79.9892 744.884,78.9892 746.5,77.5 Z"/></g>
<g><path style="opacity:0.004" fill="#000000" d="M 832.5,72.5 C 831.833,73.1667 831.833,73.1667 832.5,72.5 Z"/></g>
<g><path style="opacity:0.856" fill="#231e1f" d="M 1051.5,78.5 C 1048.94,78.1984 1046.61,78.5318 1044.5,79.5C 1046.83,79.5 1049.17,79.5 1051.5,79.5C 1050.75,87.2489 1046.41,91.2489 1038.5,91.5C 1032.1,90.933 1027.93,87.5997 1026,81.5C 1025.67,81.8333 1025.33,82.1667 1025,82.5C 1024.33,78.5 1024.33,74.5 1025,70.5C 1025.33,70.8333 1025.67,71.1667 1026,71.5C 1026.63,66.8693 1029.13,63.7026 1033.5,62C 1033.17,61.6667 1032.83,61.3333 1032.5,61C 1046.35,58.684 1052.68,64.5173 1051.5,78.5 Z M 1034.5,68.5 C 1037.5,68.5 1040.5,68.5 1043.5,68.5C 1043.5,69.8333 1043.5,71.1667 1043.5,72.5C 1040.1,72.8204 1036.77,72.487 1033.5,71.5C 1034.13,70.5832 1034.46,69.5832 1034.5,68.5 Z M 1044.5,79.5 C 1043.77,80.7079 1043.43,82.0413 1043.5,83.5C 1040.5,83.5 1037.5,83.5 1034.5,83.5C 1034.5,82.1667 1034.5,80.8333 1034.5,79.5C 1037.83,79.5 1041.17,79.5 1044.5,79.5 Z"/></g>
<g><path style="opacity:0.004" fill="#000000" d="M 1212.5,72.5 C 1213.83,73.1667 1213.83,73.1667 1212.5,72.5 Z"/></g>
<g><path style="opacity:0.004" fill="#000000" d="M 1221.5,72.5 C 1222.83,73.1667 1222.83,73.1667 1221.5,72.5 Z"/></g>
<g><path style="opacity:0.004" fill="#000000" d="M 1224.5,72.5 C 1223.83,73.1667 1223.83,73.1667 1224.5,72.5 Z"/></g>
<g><path style="opacity:0.004" fill="#000000" d="M 1279.5,72.5 C 1278.83,73.1667 1278.83,73.1667 1279.5,72.5 Z"/></g>
<g><path style="opacity:0.004" fill="#000000" d="M 1008.5,74.5 C 1007.83,73.1667 1007.83,73.1667 1008.5,74.5 Z"/></g>
<g><path style="opacity:0.734" fill="#221e1f" d="M 832.5,72.5 C 832.458,68.9913 833.124,65.658 834.5,62.5C 836.89,60.9417 840.223,60.275 844.5,60.5C 848.176,60.4956 851.51,61.4956 854.5,63.5C 856.077,72.4431 857.41,81.4431 858.5,90.5C 855.07,90.8935 851.904,90.2268 849,88.5C 839.985,93.5732 833.819,91.2398 830.5,81.5C 831.412,77.461 833.745,74.6277 837.5,73C 835.866,72.5065 834.199,72.3398 832.5,72.5 Z M 839.5,68.5 C 842.572,68.1826 845.572,68.5159 848.5,69.5C 847.372,71.5563 845.538,72.5563 843,72.5C 841.5,72.3333 840,72.1667 838.5,72C 839.337,70.9887 839.67,69.8221 839.5,68.5 Z M 844.5,77.5 C 845.978,77.238 847.311,77.5713 848.5,78.5C 847.691,80.0709 847.357,81.7376 847.5,83.5C 844.278,83.8919 841.278,83.3919 838.5,82C 840.392,80.2352 842.392,78.7352 844.5,77.5 Z"/></g>
<g><path style="opacity:0.836" fill="#221e1f" d="M 400.5,60.5 C 402.175,66.1161 404.008,72.4494 406,79.5C 407.341,72.9816 409.175,66.6482 411.5,60.5C 414.167,60.5 416.833,60.5 419.5,60.5C 415.999,73.4412 410.999,86.4412 404.5,99.5C 401.167,99.5 397.833,99.5 394.5,99.5C 394.338,97.4727 394.505,95.4727 395,93.5C 396.049,92.4829 397.216,92.3162 398.5,93C 397.353,94.2811 397.687,94.6144 399.5,94C 400.184,92.3066 401.184,90.8066 402.5,89.5C 400.14,85.8475 398.64,81.8475 398,77.5C 397.667,77.8333 397.333,78.1667 397,78.5C 396.667,76.5 396.333,74.5 396,72.5C 395.667,72.8333 395.333,73.1667 395,73.5C 394.667,71.5 394.333,69.5 394,67.5C 393.667,67.8333 393.333,68.1667 393,68.5C 390.827,61.5055 393.327,58.8389 400.5,60.5 Z"/></g>
<g><path style="opacity:0.004" fill="#000000" d="M 327.5,78.5 C 328.833,79.1667 328.833,79.1667 327.5,78.5 Z"/></g>
<g><path style="opacity:0.004" fill="#000000" d="M 1051.5,78.5 C 1052.83,79.1667 1052.83,79.1667 1051.5,78.5 Z"/></g>
<g><path style="opacity:0.004" fill="#000000" d="M 1198.5,78.5 C 1199.83,79.1667 1199.83,79.1667 1198.5,78.5 Z"/></g>
<g><path style="opacity:0.004" fill="#000000" d="M 1015.5,79.5 C 1016.83,80.1667 1016.83,80.1667 1015.5,79.5 Z"/></g>
<g><path style="opacity:0.004" fill="#000000" d="M 325.5,80.5 C 326.833,81.1667 326.833,81.1667 325.5,80.5 Z"/></g>
<g><path style="opacity:0.004" fill="#000000" d="M 1200.5,80.5 C 1201.83,81.1667 1201.83,81.1667 1200.5,80.5 Z"/></g>
<g><path style="opacity:0.762" fill="#231e1f" d="M 700.5,62.5 C 701.912,72.535 703.246,81.8683 704.5,90.5C 701.289,90.988 698.456,90.3213 696,88.5C 682.726,94.6234 676.893,90.6234 678.5,76.5C 679.817,74.8409 681.483,73.6743 683.5,73C 681.567,72.7489 679.734,72.2489 678,71.5C 678.012,63.4864 682.179,59.8198 690.5,60.5C 693.961,60.801 697.294,61.4676 700.5,62.5 Z M 690.5,77.5 C 691.833,77.5 693.167,77.5 694.5,77.5C 694.672,79.4918 694.005,81.1585 692.5,82.5C 690.257,83.4742 687.924,83.8076 685.5,83.5C 685.5,82.1667 685.5,80.8333 685.5,79.5C 687.698,79.8799 689.365,79.2132 690.5,77.5 Z M 685.5,68.5 C 688.5,68.5 691.5,68.5 694.5,68.5C 694.427,71.9496 692.594,73.283 689,72.5C 687.5,72.3333 686,72.1667 684.5,72C 685.337,70.9887 685.67,69.8221 685.5,68.5 Z"/></g>
<g><path style="opacity:0.771" fill="#221e1f" d="M 615.5,53.5 C 616.305,55.2128 617.305,56.8794 618.5,58.5C 619.466,60.396 619.799,62.396 619.5,64.5C 616.833,64.5 614.167,64.5 611.5,64.5C 610.833,62.5 610.167,60.5 609.5,58.5C 607.409,58.6816 605.409,58.3482 603.5,57.5C 599.9,57.7256 597.234,59.3923 595.5,62.5C 594.167,68.1667 594.167,73.8333 595.5,79.5C 600.066,84.1114 605.066,84.6114 610.5,81C 610.167,80.6667 609.833,80.3333 609.5,80C 611.192,78.5993 611.859,76.7659 611.5,74.5C 614.167,74.5 616.833,74.5 619.5,74.5C 619.619,78.347 618.953,82.0137 617.5,85.5C 608.228,92.8981 599.228,93.3981 590.5,87C 590.833,86.6667 591.167,86.3333 591.5,86C 590,85.1667 588.833,84 588,82.5C 584.679,74.7507 584.679,67.084 588,59.5C 591.776,53.733 597.109,50.3996 604,49.5C 607.843,50.9469 611.676,52.2802 615.5,53.5 Z"/></g>
<g><path style="opacity:0.004" fill="#52170a" d="M 94.5,83.5 C 95.2389,83.369 95.9056,83.5357 96.5,84C 95.5632,84.6917 94.8966,84.525 94.5,83.5 Z"/></g>
<g><path style="opacity:0.004" fill="#000000" d="M 617.5,85.5 C 618.833,86.1667 618.833,86.1667 617.5,85.5 Z"/></g>
<g><path style="opacity:0.004" fill="#000000" d="M 960.5,85.5 C 961.833,86.1667 961.833,86.1667 960.5,85.5 Z"/></g>
<g><path style="opacity:0.004" fill="#000000" d="M 1051.5,85.5 C 1052.83,86.1667 1052.83,86.1667 1051.5,85.5 Z"/></g>
<g><path style="opacity:0.004" fill="#000000" d="M 250.5,87.5 C 251.833,88.1667 251.833,88.1667 250.5,87.5 Z"/></g>
<g><path style="opacity:0.004" fill="#000000" d="M 308.5,87.5 C 309.833,88.1667 309.833,88.1667 308.5,87.5 Z"/></g>
<g><path style="opacity:0.004" fill="#000000" d="M 568.5,87.5 C 569.833,88.1667 569.833,88.1667 568.5,87.5 Z"/></g>
<g><path style="opacity:0.004" fill="#000000" d="M 958.5,87.5 C 959.833,88.1667 959.833,88.1667 958.5,87.5 Z"/></g>
<g><path style="opacity:0.004" fill="#000000" d="M 1217.5,87.5 C 1218.83,88.1667 1218.83,88.1667 1217.5,87.5 Z"/></g>
<g><path style="opacity:0.004" fill="#000000" d="M 278.5,89.5 C 279.833,90.1667 279.833,90.1667 278.5,89.5 Z"/></g>
<g><path style="opacity:0.004" fill="#000000" d="M 310.5,89.5 C 311.833,90.1667 311.833,90.1667 310.5,89.5 Z"/></g>
<g><path style="opacity:0.004" fill="#000000" d="M 531.5,89.5 C 532.833,90.1667 532.833,90.1667 531.5,89.5 Z"/></g>
<g><path style="opacity:0.004" fill="#000000" d="M 546.5,89.5 C 547.833,90.1667 547.833,90.1667 546.5,89.5 Z"/></g>
<g><path style="opacity:0.004" fill="#000000" d="M 566.5,89.5 C 567.833,90.1667 567.833,90.1667 566.5,89.5 Z"/></g>
<g><path style="opacity:0.004" fill="#000000" d="M 733.5,89.5 C 734.833,90.1667 734.833,90.1667 733.5,89.5 Z"/></g>
<g><path style="opacity:0.004" fill="#000000" d="M 1082.5,89.5 C 1083.83,90.1667 1083.83,90.1667 1082.5,89.5 Z"/></g>
<g><path style="opacity:0.004" fill="#000000" d="M 1224.5,89.5 C 1223.83,90.1667 1223.83,90.1667 1224.5,89.5 Z"/></g>
<g><path style="opacity:0.004" fill="#000000" d="M 1309.5,89.5 C 1308.83,90.1667 1308.83,90.1667 1309.5,89.5 Z"/></g>
<g><path style="opacity:0.004" fill="#000000" d="M 859.5,91.5 C 860.833,92.1667 860.833,92.1667 859.5,91.5 Z"/></g>
<g><path style="opacity:0.004" fill="#000000" d="M 989.5,91.5 C 990.833,92.1667 990.833,92.1667 989.5,91.5 Z"/></g>
</svg>
