<?xml version="1.0" encoding="UTF-8" standalone="no"?>
<svg
   xmlns:dc="http://purl.org/dc/elements/1.1/"
   xmlns:cc="http://creativecommons.org/ns#"
   xmlns:rdf="http://www.w3.org/1999/02/22-rdf-syntax-ns#"
   xmlns:svg="http://www.w3.org/2000/svg"
   xmlns="http://www.w3.org/2000/svg"
   viewBox="0 0 723.06665 53.279999"
   height="100px"
   width="1364px"
   xml:space="preserve"
   id="svg2"
   version="1.1"><metadata
     id="metadata8"><rdf:RDF><cc:Work
         rdf:about=""><dc:format>image/svg+xml</dc:format><dc:type
           rdf:resource="http://purl.org/dc/dcmitype/StillImage" /></cc:Work></rdf:RDF></metadata><defs
     id="defs6" /><g
     transform="matrix(1.3333333,0,0,-1.3333333,0,53.28)"
     id="g10"><g
       transform="scale(0.1)"
       id="g12"><path
         id="path14"
         style="fill:#ee293d;fill-opacity:1;fill-rule:nonzero;stroke:none"
         d="M 177.59,42.3711 V 396.68 H 0 V 42.3711 h 177.59" /><path
         id="path16"
         style="fill:#ee293d;fill-opacity:1;fill-rule:nonzero;stroke:none"
         d="m 361.855,69.1914 c 0,0 -1.679,58.6406 -1.679,64.4996 0,6.7 4.187,9.231 10.058,7.539 5.871,-0.839 62.825,-13.398 62.825,-13.398 0,0 -5.032,13.398 -7.539,22.609 -3.364,9.207 1.668,10.039 2.507,11.719 1.68,1.688 62.825,55.274 62.825,55.274 l -9.211,4.199 c -5.871,3.34 -5.871,7.539 -4.18,10.047 0,5.039 10.027,38.535 10.027,38.535 0,0 -25.125,-5.867 -32.652,-5.867 -4.191,-0.852 -5.871,1.679 -7.551,5.027 -0.82,2.512 -6.687,17.598 -6.687,17.598 0,0 -32.668,-34.356 -32.668,-36.035 -5.867,-5.848 -12.571,-0.84 -12.571,6.71 1.684,5.848 16.77,75.379 16.77,75.379 0,0 -16.77,-9.218 -22.637,-13.406 -5.871,-3.332 -8.379,-3.332 -11.719,2.527 -2.531,6.692 -23.457,47.747 -23.457,47.747 v 0 c 0,0 -20.949,-41.055 -23.449,-47.747 -3.347,-5.859 -6.707,-5.859 -12.566,-2.527 -4.192,4.188 -21.778,13.406 -21.778,13.406 0,0 15.911,-69.531 15.911,-75.379 1.675,-7.55 -4.192,-12.558 -10.051,-6.71 -1.66,1.679 -32.656,36.035 -32.656,36.035 0,0 -7.547,-15.086 -9.231,-17.598 -0.828,-3.348 -2.5,-5.879 -7.516,-5.027 -5.871,0 -32.675,5.867 -32.675,5.867 0,0 10.886,-33.496 12.566,-38.535 0,-2.508 0.84,-6.707 -5.027,-10.047 l -10.051,-4.199 c 0,0 61.145,-53.586 61.98,-55.274 3.34,-1.68 5.852,-2.512 3.34,-11.719 -3.34,-9.211 -5.867,-22.609 -5.867,-22.609 0,0 54.465,12.559 60.32,13.398 6.704,1.692 12.563,-0.839 12.563,-7.539 0,-5.859 -3.352,-64.4996 -3.352,-64.4996 h 15.078" /><path
         id="path18"
         style="fill:#ee293d;fill-opacity:1;fill-rule:nonzero;stroke:none"
         d="M 710.305,42.3711 V 396.68 H 531.895 V 42.3711 h 178.41" /><path
         id="path20"
         style="fill:#231f20;fill-opacity:1;fill-rule:nonzero;stroke:none"
         d="m 3339.65,58.5742 c 3.71,-2.9179 8.08,-4.375 13.16,-4.375 6.17,0 12.15,1.4258 17.93,4.2774 9.75,4.7382 14.62,12.4922 14.62,23.2617 v 14.1133 c -2.14,-1.3789 -4.89,-2.5118 -8.27,-3.4297 -3.36,-0.9063 -6.68,-1.5625 -9.92,-1.9531 l -10.6,-1.3555 c -6.36,-0.8516 -11.14,-2.1797 -14.34,-3.9961 -5.42,-3.0469 -8.13,-7.9102 -8.13,-14.5781 0,-5.0586 1.85,-9.043 5.55,-11.9649 z m 36.94,47.3948 c 4.04,0.515 6.73,2.207 8.1,5.058 0.77,1.563 1.16,3.817 1.16,6.758 0,5.996 -2.12,10.352 -6.38,13.055 -4.24,2.707 -10.32,4.062 -18.23,4.062 -9.14,0 -15.63,-2.488 -19.45,-7.449 -2.14,-2.734 -3.54,-6.816 -4.19,-12.246 h -16.37 c 0.32,12.91 4.49,21.883 12.51,26.934 8.02,5.058 17.31,7.578 27.89,7.578 12.27,0 22.23,-2.348 29.89,-7.012 7.59,-4.687 11.39,-11.965 11.39,-21.836 V 60.7227 c 0,-1.8164 0.37,-3.2813 1.11,-4.3829 0.76,-1.1054 2.33,-1.6523 4.73,-1.6523 0.78,0 1.66,0.0508 2.64,0.1484 0.97,0.0977 2.01,0.2344 3.12,0.4297 V 42.3047 c -2.73,-0.7813 -4.81,-1.2695 -6.25,-1.4649 -1.42,-0.1953 -3.38,-0.2929 -5.84,-0.2929 -6.04,0 -10.43,2.1484 -13.16,6.4375 -1.43,2.2734 -2.43,5.4883 -3.02,9.6484 -3.57,-4.6797 -8.7,-8.7422 -15.4,-12.1797 -6.7,-3.4453 -14.06,-5.164 -22.13,-5.164 -9.68,0 -17.59,2.9375 -23.73,8.8086 -6.13,5.8671 -9.21,13.2226 -9.21,22.0507 0,9.668 3.02,17.1563 9.06,22.4805 6.05,5.3203 13.98,8.6011 23.78,9.8321 l 27.98,3.508" /><path
         id="path22"
         style="fill:#231f20;fill-opacity:1;fill-rule:nonzero;stroke:none"
         d="m 3431.66,147.18 h 16.66 v -14.809 c 4.94,6.098 10.18,10.492 15.7,13.149 5.52,2.675 11.66,4.003 18.42,4.003 14.82,0 24.83,-5.168 30.02,-15.5 2.85,-5.652 4.29,-13.738 4.29,-24.265 V 42.793 h -17.84 v 65.793 c 0,6.367 -0.94,11.504 -2.82,15.398 -3.12,6.496 -8.78,9.746 -16.97,9.746 -4.16,0 -7.56,-0.417 -10.23,-1.257 -4.81,-1.438 -9.03,-4.297 -12.67,-8.586 -2.92,-3.446 -4.82,-7 -5.7,-10.672 -0.87,-3.676 -1.32,-8.918 -1.32,-15.7423 V 42.793 h -17.54 V 147.18" /><path
         id="path24"
         style="fill:#231f20;fill-opacity:1;fill-rule:nonzero;stroke:none"
         d="m 3560.86,65.6953 c 4.73,-7.5312 12.28,-11.3008 22.69,-11.3008 8.09,0 14.73,3.4883 19.94,10.4766 5.2,6.9844 7.8,17.0039 7.8,30.0703 0,13.1836 -2.68,22.9496 -8.05,29.2886 -5.37,6.329 -11.99,9.5 -19.88,9.5 -8.79,0 -15.92,-3.378 -21.38,-10.136 -5.46,-6.758 -8.19,-16.699 -8.19,-29.8245 0,-11.1797 2.36,-20.5351 7.07,-28.0742 z m 39.17,78.2697 c 3.1,-1.942 6.63,-5.36 10.58,-10.235 v 52.727 h 16.86 V 42.793 h -15.79 v 14.5234 c -4.08,-6.4375 -8.9,-11.0742 -14.46,-13.9375 -5.58,-2.8594 -11.95,-4.2851 -19.13,-4.2851 -11.59,0 -21.63,4.8828 -30.1,14.6679 -8.48,9.7735 -12.72,22.793 -12.72,39.0313 0,15.203 3.87,28.379 11.61,39.523 7.73,11.153 18.77,16.719 33.15,16.719 7.96,0 14.62,-1.691 20,-5.07" /><path
         id="path26"
         style="fill:#231f20;fill-opacity:1;fill-rule:nonzero;stroke:none"
         d="m 3812.75,175.547 c 9.9,-9.559 15.39,-20.399 16.49,-32.559 h -18.92 c -2.1,9.231 -6.3,16.535 -12.59,21.934 -6.28,5.391 -15.1,8.098 -26.46,8.098 -13.85,0 -25.04,-4.961 -33.56,-14.883 -8.51,-9.922 -12.77,-25.117 -12.77,-45.606 0,-16.7771 3.85,-30.3904 11.54,-40.8201 7.69,-10.4414 19.16,-15.664 34.42,-15.664 14.04,0 24.73,5.4961 32.07,16.4726 3.9,5.7813 6.8,13.3907 8.71,22.8125 h 18.92 c -1.67,-15.0781 -7.2,-27.7148 -16.58,-37.9179 -11.24,-12.2774 -26.4,-18.418 -45.47,-18.418 -16.44,0 -30.25,5.0391 -41.43,15.1172 -14.71,13.3281 -22.06,33.9062 -22.06,61.7387 0,21.132 5.52,38.457 16.56,51.98 11.95,14.699 28.42,22.039 49.42,22.039 17.92,0 31.83,-4.773 41.71,-14.324" /><path
         id="path28"
         style="fill:#231f20;fill-opacity:1;fill-rule:nonzero;stroke:none"
         d="m 3853.3,146.691 h 17.84 V 42.793 h -17.84 z m 0,39.286 h 17.84 v -19.891 h -17.84 v 19.891" /><path
         id="path30"
         style="fill:#231f20;fill-opacity:1;fill-rule:nonzero;stroke:none"
         d="m 3901.17,176.32 h 17.74 v -29.14 h 16.66 v -14.328 h -16.66 V 64.7266 c 0,-3.6407 1.23,-6.0821 3.7,-7.3125 1.36,-0.7149 3.64,-1.0743 6.82,-1.0743 0.84,0 1.76,0.0274 2.73,0.0665 0.97,0.039 2.12,0.1484 3.41,0.3242 V 42.793 c -2.02,-0.586 -4.11,-1.0039 -6.29,-1.2696 -2.17,-0.2539 -4.53,-0.3906 -7.06,-0.3906 -8.2,0 -13.74,2.1016 -16.67,6.2891 -2.92,4.1914 -4.38,9.6289 -4.38,16.3281 v 69.102 h -14.14 v 14.328 h 14.14 v 29.14" /><path
         id="path32"
         style="fill:#231f20;fill-opacity:1;fill-rule:nonzero;stroke:none"
         d="m 3953.12,146.691 h 17.84 V 42.793 h -17.84 z m 0,39.286 h 17.84 v -19.891 h -17.84 v 19.891" /><path
         id="path34"
         style="fill:#231f20;fill-opacity:1;fill-rule:nonzero;stroke:none"
         d="m 3989.67,56.6328 61.98,74.8632 h -57.41 v 15.684 h 80.99 v -14.328 l -61.58,-74.3637 h 63.44 V 42.793 h -87.42 v 13.8398" /><path
         id="path36"
         style="fill:#231f20;fill-opacity:1;fill-rule:nonzero;stroke:none"
         d="m 4168.03,103.32 c -0.71,7.61 -2.35,13.684 -4.92,18.235 -4.77,8.437 -12.74,12.664 -23.88,12.664 -7.99,0 -14.69,-2.91 -20.11,-8.723 -5.41,-5.816 -8.27,-13.199 -8.59,-22.176 z m -6.28,40.989 c 6.9,-3.477 12.18,-7.981 15.79,-13.496 3.49,-5.274 5.81,-11.407 6.97,-18.418 1.04,-4.817 1.55,-12.4809 1.55,-23.0083 h -75.92 c 0.32,-10.625 2.8,-19.1406 7.44,-25.5586 4.65,-6.4258 11.83,-9.6289 21.57,-9.6289 9.09,0 16.34,3.0391 21.76,9.1016 3.04,3.5273 5.17,7.6094 6.43,12.2461 h 17.26 c -0.46,-3.836 -1.96,-8.1133 -4.53,-12.8203 -2.57,-4.7071 -5.43,-8.5664 -8.59,-11.5547 -5.29,-5.1953 -11.83,-8.6992 -19.63,-10.5274 -4.19,-1.0351 -8.94,-1.5507 -14.23,-1.5507 -12.91,0 -23.85,4.7265 -32.83,14.1796 -8.98,9.4532 -13.46,22.6954 -13.46,39.7149 0,16.7697 4.51,30.3827 13.55,40.8397 9.05,10.461 20.86,15.695 35.46,15.695 7.36,0 14.5,-1.738 21.41,-5.214" /><path
         id="path38"
         style="fill:#231f20;fill-opacity:1;fill-rule:nonzero;stroke:none"
         d="m 4208.28,147.18 h 16.67 v -14.809 c 4.94,6.098 10.17,10.492 15.69,13.149 5.53,2.675 11.66,4.003 18.42,4.003 14.83,0 24.83,-5.168 30.02,-15.5 2.86,-5.652 4.3,-13.738 4.3,-24.265 V 42.793 h -17.84 v 65.793 c 0,6.367 -0.95,11.504 -2.83,15.398 -3.12,6.496 -8.76,9.746 -16.96,9.746 -4.16,0 -7.57,-0.417 -10.23,-1.257 -4.82,-1.438 -9.04,-4.297 -12.67,-8.586 -2.93,-3.446 -4.82,-7 -5.7,-10.672 -0.88,-3.676 -1.32,-8.918 -1.32,-15.7423 V 42.793 h -17.55 V 147.18" /><path
         id="path40"
         style="fill:#231f20;fill-opacity:1;fill-rule:nonzero;stroke:none"
         d="m 4329.73,75.5469 c 0.52,-5.8477 2.03,-10.3321 4.47,-13.4571 4.51,-5.6523 12.34,-8.4765 23.49,-8.4765 6.63,0 12.47,1.418 17.51,4.2383 5.03,2.8242 7.55,7.1992 7.55,13.1054 0,4.4922 -2.01,7.9024 -6.04,10.2344 -2.57,1.4375 -7.67,3.0859 -15.25,4.9727 l -14.17,3.5156 c -9.05,2.207 -15.71,4.6758 -20,7.4023 -7.66,4.746 -11.5,11.309 -11.5,19.688 0,9.882 3.6,17.871 10.81,23.984 7.22,6.101 16.92,9.16 29.1,9.16 15.94,0 27.43,-4.609 34.48,-13.848 4.4,-5.839 6.54,-12.152 6.41,-18.906 h -16.57 c -0.33,3.945 -1.76,7.528 -4.29,10.762 -4.12,4.59 -11.28,6.883 -21.45,6.883 -6.78,0 -11.92,-1.258 -15.41,-3.789 -3.5,-2.528 -5.24,-5.86 -5.24,-10.008 0,-4.531 2.29,-8.145 6.88,-10.871 2.65,-1.621 6.56,-3.047 11.72,-4.278 l 11.81,-2.832 c 12.85,-3.0543 21.46,-6.0036 25.82,-8.8668 6.83,-4.4805 10.24,-11.5313 10.24,-21.1524 0,-9.2969 -3.57,-17.3125 -10.71,-24.0703 -7.13,-6.7578 -18,-10.1367 -32.61,-10.1367 -15.73,0 -26.86,3.5234 -33.4,10.5742 -6.54,7.0508 -10.05,15.7734 -10.51,26.1719 h 16.86" /><path
         id="path42"
         style="fill:#231f20;fill-opacity:1;fill-rule:nonzero;stroke:none"
         d="m 4419.1,186.457 h 17.56 v -53.41 c 4.16,5.266 7.89,8.976 11.21,11.113 5.65,3.703 12.7,5.559 21.15,5.559 15.14,0 25.39,-5.293 30.8,-15.891 2.91,-5.781 4.38,-13.808 4.38,-24.07 V 42.793 h -18.03 v 65.793 c 0,7.664 -0.97,13.281 -2.93,16.855 -3.18,5.723 -9.16,8.582 -17.93,8.582 -7.28,0 -13.86,-2.5 -19.78,-7.507 -5.92,-5 -8.87,-14.453 -8.87,-28.3597 V 42.793 h -17.56 v 143.664" /><path
         id="path44"
         style="fill:#231f20;fill-opacity:1;fill-rule:nonzero;stroke:none"
         d="m 4530.12,146.691 h 17.85 V 42.793 h -17.85 z m 0,39.286 h 17.85 v -19.891 h -17.85 v 19.891" /><path
         id="path46"
         style="fill:#231f20;fill-opacity:1;fill-rule:nonzero;stroke:none"
         d="m 4639.02,64.8711 c 5.43,6.8594 8.17,17.1016 8.17,30.7539 0,8.313 -1.21,15.461 -3.62,21.438 -4.57,11.503 -12.91,17.253 -25.03,17.253 -12.21,0 -20.55,-6.082 -25.04,-18.23 -2.43,-6.496 -3.64,-14.746 -3.64,-24.7579 0,-8.0547 1.21,-14.9101 3.64,-20.5664 4.55,-10.7812 12.91,-16.1719 25.04,-16.1719 8.2,0 15.03,3.4297 20.48,10.2813 z m -66.01,81.8199 h 17.15 v -13.839 c 3.53,4.746 7.36,8.418 11.54,11.015 5.92,3.899 12.89,5.852 20.92,5.852 11.85,0 21.91,-4.531 30.19,-13.598 8.26,-9.058 12.4,-22.008 12.4,-38.8437 0,-22.746 -5.97,-38.9843 -17.91,-48.7304 -7.55,-6.1758 -16.36,-9.2578 -26.42,-9.2578 -7.89,0 -14.51,1.7187 -19.86,5.164 -3.13,1.9453 -6.63,5.293 -10.47,10.0391 V 1.17188 h -17.54 V 146.691" /><path
         id="path48"
         style="fill:#231f20;fill-opacity:1;fill-rule:nonzero;stroke:none"
         d="m 4844.55,175.547 c 9.9,-9.559 15.39,-20.399 16.49,-32.559 h -18.91 c -2.11,9.231 -6.31,16.535 -12.6,21.934 -6.29,5.391 -15.12,8.098 -26.46,8.098 -13.85,0 -25.04,-4.961 -33.56,-14.883 -8.51,-9.922 -12.77,-25.117 -12.77,-45.606 0,-16.7771 3.85,-30.3904 11.54,-40.8201 7.68,-10.4414 19.16,-15.664 34.42,-15.664 14.04,0 24.72,5.4961 32.07,16.4726 3.9,5.7813 6.79,13.3907 8.71,22.8125 h 18.92 c -1.68,-15.0781 -7.2,-27.7148 -16.58,-37.9179 -11.23,-12.2774 -26.41,-18.418 -45.47,-18.418 -16.44,0 -30.25,5.0391 -41.42,15.1172 -14.73,13.3281 -22.07,33.9062 -22.07,61.7387 0,21.132 5.52,38.457 16.56,51.98 11.95,14.699 28.42,22.039 49.43,22.039 17.91,0 31.82,-4.773 41.7,-14.324" /><path
         id="path50"
         style="fill:#231f20;fill-opacity:1;fill-rule:nonzero;stroke:none"
         d="m 4904.12,58.5742 c 3.69,-2.9179 8.09,-4.375 13.15,-4.375 6.17,0 12.14,1.4258 17.94,4.2774 9.75,4.7382 14.61,12.4922 14.61,23.2617 v 14.1133 c -2.14,-1.3789 -4.9,-2.5118 -8.26,-3.4297 -3.38,-0.9063 -6.68,-1.5625 -9.92,-1.9531 l -10.6,-1.3555 c -6.35,-0.8516 -11.14,-2.1797 -14.34,-3.9961 -5.43,-3.0469 -8.15,-7.9102 -8.15,-14.5781 0,-5.0586 1.86,-9.043 5.57,-11.9649 z m 36.93,47.3948 c 4.03,0.515 6.72,2.207 8.09,5.058 0.78,1.563 1.17,3.817 1.17,6.758 0,5.996 -2.13,10.352 -6.36,13.055 -4.26,2.707 -10.34,4.062 -18.25,4.062 -9.14,0 -15.62,-2.488 -19.45,-7.449 -2.15,-2.734 -3.54,-6.816 -4.18,-12.246 h -16.39 c 0.34,12.91 4.52,21.883 12.52,26.934 8.01,5.058 17.31,7.578 27.89,7.578 12.27,0 22.23,-2.348 29.89,-7.012 7.59,-4.687 11.38,-11.965 11.38,-21.836 V 60.7227 c 0,-1.8164 0.37,-3.2813 1.14,-4.3829 0.74,-1.1054 2.32,-1.6523 4.72,-1.6523 0.78,0 1.66,0.0508 2.64,0.1484 0.96,0.0977 2.01,0.2344 3.1,0.4297 V 42.3047 c -2.73,-0.7813 -4.8,-1.2695 -6.23,-1.4649 -1.42,-0.1953 -3.37,-0.2929 -5.85,-0.2929 -6.04,0 -10.43,2.1484 -13.15,6.4375 -1.44,2.2734 -2.44,5.4883 -3.03,9.6484 -3.57,-4.6797 -8.71,-8.7422 -15.39,-12.1797 -6.7,-3.4453 -14.08,-5.164 -22.13,-5.164 -9.68,0 -17.59,2.9375 -23.73,8.8086 -6.15,5.8671 -9.22,13.2226 -9.22,22.0507 0,9.668 3.03,17.1563 9.07,22.4805 6.03,5.3203 13.96,8.6011 23.79,9.8321 l 27.96,3.508" /><path
         id="path52"
         style="fill:#231f20;fill-opacity:1;fill-rule:nonzero;stroke:none"
         d="m 4996.11,147.18 h 16.68 v -14.809 c 4.94,6.098 10.16,10.492 15.69,13.149 5.52,2.675 11.66,4.003 18.41,4.003 14.83,0 24.83,-5.168 30.04,-15.5 2.86,-5.652 4.28,-13.738 4.28,-24.265 V 42.793 h -17.83 v 65.793 c 0,6.367 -0.94,11.504 -2.83,15.398 -3.13,6.496 -8.77,9.746 -16.96,9.746 -4.16,0 -7.57,-0.417 -10.23,-1.257 -4.81,-1.438 -9.04,-4.297 -12.68,-8.586 -2.93,-3.446 -4.82,-7 -5.7,-10.672 -0.88,-3.676 -1.31,-8.918 -1.31,-15.7423 V 42.793 h -17.56 V 147.18" /><path
         id="path54"
         style="fill:#231f20;fill-opacity:1;fill-rule:nonzero;stroke:none"
         d="m 5126.15,58.5742 c 3.69,-2.9179 8.09,-4.375 13.15,-4.375 6.17,0 12.15,1.4258 17.95,4.2774 9.74,4.7382 14.61,12.4922 14.61,23.2617 v 14.1133 c -2.15,-1.3789 -4.91,-2.5118 -8.27,-3.4297 -3.38,-0.9063 -6.68,-1.5625 -9.92,-1.9531 l -10.6,-1.3555 c -6.35,-0.8516 -11.14,-2.1797 -14.34,-3.9961 -5.43,-3.0469 -8.14,-7.9102 -8.14,-14.5781 0,-5.0586 1.85,-9.043 5.56,-11.9649 z m 36.94,47.3948 c 4.02,0.515 6.71,2.207 8.08,5.058 0.78,1.563 1.17,3.817 1.17,6.758 0,5.996 -2.13,10.352 -6.36,13.055 -4.26,2.707 -10.34,4.062 -18.25,4.062 -9.14,0 -15.62,-2.488 -19.45,-7.449 -2.15,-2.734 -3.53,-6.816 -4.18,-12.246 h -16.39 c 0.34,12.91 4.52,21.883 12.52,26.934 8.01,5.058 17.31,7.578 27.9,7.578 12.26,0 22.22,-2.348 29.88,-7.012 7.6,-4.687 11.38,-11.965 11.38,-21.836 V 60.7227 c 0,-1.8164 0.38,-3.2813 1.14,-4.3829 0.74,-1.1054 2.32,-1.6523 4.72,-1.6523 0.79,0 1.66,0.0508 2.64,0.1484 0.96,0.0977 2.01,0.2344 3.11,0.4297 V 42.3047 c -2.74,-0.7813 -4.81,-1.2695 -6.23,-1.4649 -1.43,-0.1953 -3.38,-0.2929 -5.86,-0.2929 -6.04,0 -10.43,2.1484 -13.15,6.4375 -1.44,2.2734 -2.44,5.4883 -3.03,9.6484 -3.57,-4.6797 -8.71,-8.7422 -15.39,-12.1797 -6.7,-3.4453 -14.08,-5.164 -22.13,-5.164 -9.68,0 -17.59,2.9375 -23.73,8.8086 -6.15,5.8671 -9.21,13.2226 -9.21,22.0507 0,9.668 3.02,17.1563 9.06,22.4805 6.03,5.3203 13.96,8.6011 23.79,9.8321 l 27.97,3.508" /><path
         id="path56"
         style="fill:#231f20;fill-opacity:1;fill-rule:nonzero;stroke:none"
         d="m 5236.35,65.6953 c 4.7,-7.5312 12.28,-11.3008 22.69,-11.3008 8.07,0 14.71,3.4883 19.92,10.4766 5.2,6.9844 7.82,17.0039 7.82,30.0703 0,13.1836 -2.7,22.9496 -8.05,29.2886 -5.37,6.329 -11.99,9.5 -19.88,9.5 -8.79,0 -15.92,-3.378 -21.39,-10.136 -5.47,-6.758 -8.2,-16.699 -8.2,-29.8245 0,-11.1797 2.36,-20.5351 7.09,-28.0742 z m 39.16,78.2697 c 3.1,-1.942 6.64,-5.36 10.58,-10.235 v 52.727 h 16.86 V 42.793 h -15.78 v 14.5234 c -4.08,-6.4375 -8.91,-11.0742 -14.47,-13.9375 -5.57,-2.8594 -11.96,-4.2851 -19.13,-4.2851 -11.6,0 -21.62,4.8828 -30.11,14.6679 -8.48,9.7735 -12.72,22.793 -12.72,39.0313 0,15.203 3.87,28.379 11.6,39.523 7.74,11.153 18.79,16.719 33.17,16.719 7.97,0 14.63,-1.691 20,-5.07" /><path
         id="path58"
         style="fill:#231f20;fill-opacity:1;fill-rule:nonzero;stroke:none"
         d="m 5348.18,58.5742 c 3.7,-2.9179 8.09,-4.375 13.15,-4.375 6.17,0 12.15,1.4258 17.95,4.2774 9.74,4.7382 14.61,12.4922 14.61,23.2617 v 14.1133 c -2.15,-1.3789 -4.91,-2.5118 -8.26,-3.4297 -3.38,-0.9063 -6.68,-1.5625 -9.93,-1.9531 l -10.6,-1.3555 c -6.35,-0.8516 -11.14,-2.1797 -14.34,-3.9961 -5.43,-3.0469 -8.14,-7.9102 -8.14,-14.5781 0,-5.0586 1.85,-9.043 5.56,-11.9649 z m 36.94,47.3948 c 4.02,0.515 6.72,2.207 8.08,5.058 0.78,1.563 1.18,3.817 1.18,6.758 0,5.996 -2.13,10.352 -6.37,13.055 -4.26,2.707 -10.33,4.062 -18.24,4.062 -9.14,0 -15.63,-2.488 -19.46,-7.449 -2.15,-2.734 -3.53,-6.816 -4.18,-12.246 h -16.38 c 0.33,12.91 4.51,21.883 12.52,26.934 8,5.058 17.3,7.578 27.89,7.578 12.26,0 22.22,-2.348 29.88,-7.012 7.6,-4.687 11.39,-11.965 11.39,-21.836 V 60.7227 c 0,-1.8164 0.37,-3.2813 1.13,-4.3829 0.74,-1.1054 2.32,-1.6523 4.73,-1.6523 0.78,0 1.66,0.0508 2.63,0.1484 0.96,0.0977 2.01,0.2344 3.11,0.4297 V 42.3047 c -2.74,-0.7813 -4.81,-1.2695 -6.23,-1.4649 -1.43,-0.1953 -3.38,-0.2929 -5.86,-0.2929 -6.04,0 -10.43,2.1484 -13.15,6.4375 -1.44,2.2734 -2.44,5.4883 -3.02,9.6484 -3.58,-4.6797 -8.72,-8.7422 -15.39,-12.1797 -6.7,-3.4453 -14.09,-5.164 -22.13,-5.164 -9.69,0 -17.6,2.9375 -23.73,8.8086 -6.16,5.8671 -9.22,13.2226 -9.22,22.0507 0,9.668 3.02,17.1563 9.06,22.4805 6.03,5.3203 13.96,8.6011 23.79,9.8321 l 27.97,3.508" /><path
         id="path60"
         style="fill:#231f20;fill-opacity:1;fill-rule:nonzero;stroke:none"
         d="m 3327.36,396.348 h 19.6 V 253.164 h -19.6 v 143.184" /><path
         id="path62"
         style="fill:#231f20;fill-opacity:1;fill-rule:nonzero;stroke:none"
         d="m 3376.1,357.555 h 17.36 v -14.817 c 4.16,5.133 7.93,8.867 11.31,11.207 5.78,3.965 12.34,5.95 19.68,5.95 8.31,0 15,-2.047 20.08,-6.145 2.85,-2.34 5.45,-5.781 7.79,-10.332 3.9,5.59 8.48,9.73 13.74,12.434 5.27,2.695 11.19,4.043 17.75,4.043 14.03,0 23.58,-5.071 28.65,-15.207 2.74,-5.458 4.1,-12.801 4.1,-22.028 v -69.496 h -18.23 v 72.516 c 0,6.953 -1.74,11.726 -5.21,14.332 -3.48,2.597 -7.73,3.894 -12.73,3.894 -6.88,0 -12.81,-2.304 -17.78,-6.918 -4.97,-4.613 -7.45,-12.316 -7.45,-23.101 v -60.723 h -17.85 v 68.129 c 0,7.082 -0.85,12.246 -2.52,15.5 -2.68,4.871 -7.64,7.309 -14.93,7.309 -6.62,0 -12.65,-2.567 -18.07,-7.7 -5.43,-5.132 -8.14,-14.425 -8.14,-27.875 v -55.363 h -17.55 v 104.391" /><path
         id="path64"
         style="fill:#231f20;fill-opacity:1;fill-rule:nonzero;stroke:none"
         d="m 3542.38,357.555 h 17.35 v -14.817 c 4.16,5.133 7.93,8.867 11.31,11.207 5.78,3.965 12.34,5.95 19.68,5.95 8.32,0 15.02,-2.047 20.08,-6.145 2.86,-2.34 5.47,-5.781 7.8,-10.332 3.9,5.59 8.49,9.73 13.74,12.434 5.27,2.695 11.18,4.043 17.74,4.043 14.04,0 23.59,-5.071 28.66,-15.207 2.72,-5.458 4.09,-12.801 4.09,-22.028 v -69.496 h -18.22 v 72.516 c 0,6.953 -1.74,11.726 -5.22,14.332 -3.47,2.597 -7.71,3.894 -12.71,3.894 -6.89,0 -12.82,-2.304 -17.79,-6.918 -4.97,-4.613 -7.46,-12.316 -7.46,-23.101 v -60.723 h -17.84 v 68.129 c 0,7.082 -0.84,12.246 -2.54,15.5 -2.65,4.871 -7.63,7.309 -14.9,7.309 -6.64,0 -12.65,-2.567 -18.08,-7.7 -5.43,-5.132 -8.15,-14.425 -8.15,-27.875 v -55.363 h -17.54 v 104.391" /><path
         id="path66"
         style="fill:#231f20;fill-opacity:1;fill-rule:nonzero;stroke:none"
         d="m 3708.66,357.066 h 17.84 V 253.164 h -17.84 z m 0,39.282 h 17.84 v -19.887 h -17.84 v 19.887" /><path
         id="path68"
         style="fill:#231f20;fill-opacity:1;fill-rule:nonzero;stroke:none"
         d="m 3813.18,334.551 c -5.29,6.234 -12.05,9.355 -20.26,9.355 -12.29,0 -20.69,-5.781 -25.21,-17.347 -2.4,-6.168 -3.59,-14.262 -3.59,-24.274 0,-11.758 2.37,-20.711 7.13,-26.844 4.75,-6.144 11.13,-9.218 19.15,-9.218 12.54,0 21.36,5.691 26.48,17.058 2.84,6.438 4.25,13.938 4.25,22.52 0,12.929 -2.64,22.512 -7.95,28.75 z m -2.14,18.808 c 3.3,-2.269 6.67,-5.586 10.09,-9.941 v 13.16 h 16.19 v -94.937 c 0,-13.25 -1.95,-23.711 -5.84,-31.375 -7.24,-14.172 -20.94,-21.25 -41.08,-21.25 -11.2,0 -20.63,2.519 -28.27,7.547 -7.64,5.039 -11.92,12.921 -12.83,23.644 h 17.84 c 0.84,-4.687 2.52,-8.293 5.05,-10.82 3.93,-3.907 10.13,-5.852 18.6,-5.852 13.38,0 22.14,4.746 26.27,14.231 2.46,5.586 3.58,15.566 3.39,29.922 -3.49,-5.333 -7.7,-9.29 -12.62,-11.899 -4.92,-2.594 -11.42,-3.894 -19.51,-3.894 -11.27,0 -21.11,4.015 -29.57,12.043 -8.44,8.027 -12.66,21.296 -12.66,39.812 0,17.48 4.25,31.125 12.76,40.938 8.51,9.808 18.79,14.718 30.83,14.718 8.15,0 15.28,-2.019 21.36,-6.047" /><path
         id="path70"
         style="fill:#231f20;fill-opacity:1;fill-rule:nonzero;stroke:none"
         d="m 3864.51,357.555 h 16.66 v -18.032 c 1.37,3.508 4.72,7.778 10.04,12.817 5.33,5.035 11.48,7.555 18.43,7.555 0.32,0 0.88,-0.036 1.65,-0.098 0.78,-0.067 2.12,-0.195 4,-0.391 v -18.523 c -1.03,0.195 -2,0.328 -2.87,0.39 -0.88,0.067 -1.83,0.098 -2.88,0.098 -8.84,0 -15.63,-2.84 -20.37,-8.523 -4.75,-5.688 -7.12,-12.243 -7.12,-19.645 v -60.039 h -17.54 v 104.391" /><path
         id="path72"
         style="fill:#231f20;fill-opacity:1;fill-rule:nonzero;stroke:none"
         d="m 3949.5,268.945 c 3.7,-2.918 8.1,-4.375 13.16,-4.375 6.17,0 12.15,1.426 17.94,4.278 9.74,4.738 14.61,12.492 14.61,23.261 v 14.114 c -2.13,-1.379 -4.89,-2.512 -8.26,-3.43 -3.38,-0.906 -6.68,-1.563 -9.92,-1.953 l -10.6,-1.356 c -6.36,-0.851 -11.14,-2.179 -14.34,-3.996 -5.43,-3.047 -8.14,-7.91 -8.14,-14.578 0,-5.058 1.85,-9.043 5.55,-11.965 z m 36.95,47.395 c 4.02,0.515 6.72,2.207 8.08,5.058 0.78,1.567 1.17,3.817 1.17,6.75 0,6.004 -2.13,10.36 -6.36,13.063 -4.26,2.707 -10.34,4.062 -18.25,4.062 -9.14,0 -15.62,-2.484 -19.45,-7.445 -2.15,-2.746 -3.53,-6.828 -4.18,-12.246 h -16.38 c 0.33,12.906 4.5,21.879 12.51,26.93 8.01,5.051 17.31,7.578 27.89,7.578 12.27,0 22.23,-2.34 29.89,-7.02 7.59,-4.679 11.38,-11.957 11.38,-21.836 v -60.14 c 0,-1.817 0.38,-3.281 1.14,-4.383 0.74,-1.106 2.32,-1.652 4.72,-1.652 0.78,0 1.66,0.05 2.63,0.148 0.98,0.098 2.01,0.234 3.12,0.43 v -12.961 c -2.73,-0.781 -4.81,-1.27 -6.23,-1.465 -1.44,-0.195 -3.38,-0.293 -5.85,-0.293 -6.05,0 -10.43,2.148 -13.16,6.437 -1.43,2.274 -2.44,5.489 -3.03,9.649 -3.57,-4.68 -8.71,-8.742 -15.4,-12.18 -6.69,-3.445 -14.07,-5.164 -22.12,-5.164 -9.68,0 -17.59,2.938 -23.74,8.809 -6.14,5.867 -9.2,13.222 -9.2,22.051 0,9.668 3.02,17.156 9.06,22.48 6.04,5.32 13.96,8.602 23.79,9.832 l 27.97,3.508" /><path
         id="path74"
         style="fill:#231f20;fill-opacity:1;fill-rule:nonzero;stroke:none"
         d="m 4045.02,386.695 h 17.74 v -29.14 h 16.67 v -14.332 h -16.67 v -68.125 c 0,-3.641 1.23,-6.082 3.7,-7.313 1.37,-0.715 3.64,-1.074 6.82,-1.074 0.85,0 1.76,0.027 2.74,0.066 0.97,0.039 2.11,0.149 3.41,0.325 v -13.938 c -2.02,-0.586 -4.12,-1.004 -6.29,-1.269 -2.18,-0.254 -4.53,-0.391 -7.07,-0.391 -8.18,0 -13.74,2.101 -16.66,6.289 -2.93,4.191 -4.39,9.629 -4.39,16.328 v 69.102 h -14.13 v 14.332 h 14.13 v 29.14" /><path
         id="path76"
         style="fill:#231f20;fill-opacity:1;fill-rule:nonzero;stroke:none"
         d="m 4096.97,357.066 h 17.83 V 253.164 h -17.83 z m 0,39.282 h 17.83 v -19.887 h -17.83 v 19.887" /><path
         id="path78"
         style="fill:#231f20;fill-opacity:1;fill-rule:nonzero;stroke:none"
         d="m 4206.05,277.754 c 4.28,8.801 6.42,18.586 6.42,29.355 0,9.739 -1.54,17.653 -4.63,23.754 -4.88,9.606 -13.3,14.41 -25.24,14.41 -10.61,0 -18.32,-4.089 -23.14,-12.269 -4.81,-8.18 -7.22,-18.043 -7.22,-29.594 0,-11.094 2.41,-20.344 7.22,-27.746 4.82,-7.391 12.46,-11.094 22.94,-11.094 11.51,0 19.39,4.395 23.65,13.184 z m 10.9,69.379 c 9.23,-8.957 13.85,-22.137 13.85,-39.535 0,-16.817 -4.07,-30.711 -12.21,-41.68 -8.12,-10.977 -20.74,-16.453 -37.83,-16.453 -14.27,0 -25.58,4.851 -33.98,14.551 -8.38,9.707 -12.58,22.742 -12.58,39.101 0,17.528 4.42,31.488 13.26,41.879 8.84,10.387 20.71,15.582 35.63,15.582 13.35,0 24.63,-4.484 33.86,-13.445" /><path
         id="path80"
         style="fill:#231f20;fill-opacity:1;fill-rule:nonzero;stroke:none"
         d="M 4252.33,357.555 H 4269 v -14.817 c 4.95,6.106 10.17,10.496 15.69,13.157 5.52,2.664 11.67,4 18.43,4 14.81,0 24.81,-5.168 30.01,-15.5 2.87,-5.653 4.29,-13.747 4.29,-24.266 v -66.965 h -17.83 v 65.793 c 0,6.367 -0.95,11.504 -2.83,15.398 -3.12,6.5 -8.77,9.747 -16.96,9.747 -4.16,0 -7.57,-0.426 -10.23,-1.266 -4.81,-1.43 -9.04,-4.289 -12.68,-8.578 -2.93,-3.442 -4.82,-7 -5.7,-10.672 -0.88,-3.672 -1.31,-8.918 -1.31,-15.742 v -54.68 h -17.55 v 104.391" /><path
         id="path82"
         style="fill:#231f20;fill-opacity:1;fill-rule:nonzero;stroke:none"
         d="m 4367.05,232.695 c 4.49,0.782 7.64,3.957 9.45,9.504 0.98,2.938 1.47,5.781 1.47,8.516 0,0.457 -0.02,0.867 -0.05,1.23 -0.03,0.352 -0.11,0.762 -0.24,1.219 h -10.63 v 21.25 h 20.86 v -19.687 c 0,-7.735 -1.56,-14.52 -4.68,-20.372 -3.11,-5.847 -8.5,-9.453 -16.18,-10.82 v 9.16" /><path
         id="path84"
         style="fill:#231f20;fill-opacity:1;fill-rule:nonzero;stroke:none"
         d="m 4541.95,330.746 c 8.83,0 15.84,1.824 20.98,5.461 5.16,3.637 7.73,10.199 7.73,19.688 0,10.203 -3.59,17.156 -10.8,20.859 -3.86,1.949 -9,2.926 -15.45,2.926 h -46.07 v -48.934 z m -63,65.602 h 65.07 c 10.73,0 19.57,-1.598 26.53,-4.782 13.2,-6.105 19.8,-17.382 19.8,-33.816 0,-8.578 -1.78,-15.598 -5.31,-21.055 -3.54,-5.461 -8.5,-9.843 -14.86,-13.16 5.58,-2.273 9.8,-5.262 12.61,-8.965 2.84,-3.699 4.42,-9.715 4.73,-18.035 l 0.68,-19.199 c 0.2,-5.461 0.65,-9.523 1.37,-12.18 1.17,-4.551 3.24,-7.48 6.23,-8.777 v -3.215 h -23.77 c -0.64,1.231 -1.17,2.824 -1.56,4.777 -0.39,1.954 -0.72,5.711 -0.98,11.305 l -1.17,23.879 c -0.43,9.355 -3.81,15.625 -10.14,18.809 -3.59,1.757 -9.23,2.636 -16.93,2.636 h -42.91 v -61.406 h -19.39 v 143.184" /><path
         id="path86"
         style="fill:#231f20;fill-opacity:1;fill-rule:nonzero;stroke:none"
         d="m 4689.2,313.691 c -0.72,7.602 -2.36,13.676 -4.94,18.227 -4.77,8.449 -12.72,12.672 -23.87,12.672 -7.99,0 -14.69,-2.91 -20.1,-8.727 -5.43,-5.812 -8.28,-13.203 -8.61,-22.172 z m -6.29,40.989 c 6.91,-3.477 12.17,-7.981 15.78,-13.504 3.5,-5.262 5.82,-11.399 6.97,-18.418 1.04,-4.809 1.57,-12.473 1.57,-23 h -75.94 c 0.33,-10.625 2.81,-19.141 7.46,-25.559 4.63,-6.426 11.82,-9.629 21.56,-9.629 9.08,0 16.33,3.039 21.76,9.102 3.03,3.527 5.18,7.609 6.45,12.246 h 17.24 c -0.45,-3.836 -1.97,-8.113 -4.53,-12.82 -2.58,-4.707 -5.43,-8.567 -8.59,-11.555 -5.3,-5.195 -11.84,-8.699 -19.63,-10.527 -4.2,-1.036 -8.95,-1.551 -14.22,-1.551 -12.93,0 -23.87,4.726 -32.85,14.18 -8.97,9.453 -13.46,22.695 -13.46,39.714 0,16.77 4.51,30.375 13.56,40.84 9.04,10.465 20.85,15.696 35.46,15.696 7.37,0 14.5,-1.739 21.41,-5.215" /><path
         id="path88"
         style="fill:#231f20;fill-opacity:1;fill-rule:nonzero;stroke:none"
         d="m 4737.64,389.426 c 4.08,5.976 11.97,8.969 23.67,8.969 1.11,0 2.24,-0.036 3.42,-0.098 1.17,-0.07 2.5,-0.168 4,-0.293 v -15.988 c -1.85,0.132 -3.18,0.211 -4,0.246 -0.82,0.035 -1.59,0.047 -2.31,0.047 -5.39,0 -8.61,-1.379 -9.67,-4.141 -1.05,-2.762 -1.58,-9.793 -1.58,-21.102 h 17.56 v -13.843 h -17.56 v -90.059 h -17.34 v 90.059 h -14.53 v 13.843 h 14.53 v 16.375 c 0.25,7.278 1.52,12.606 3.81,15.985" /><path
         id="path90"
         style="fill:#231f20;fill-opacity:1;fill-rule:nonzero;stroke:none"
         d="m 4802.44,357.555 v -69.301 c 0,-5.332 0.82,-9.68 2.48,-13.059 3.03,-6.238 8.69,-9.355 16.99,-9.355 11.9,0 19.98,5.449 24.3,16.367 2.34,5.852 3.52,13.879 3.52,24.082 v 51.266 h 17.54 V 253.164 h -16.59 l 0.2,15.402 c -2.23,-3.964 -5,-7.316 -8.32,-10.039 -6.56,-5.461 -14.53,-8.183 -23.91,-8.183 -14.59,0 -24.55,4.969 -29.84,14.91 -2.87,5.324 -4.3,12.441 -4.3,21.34 v 70.961 h 17.93" /><path
         id="path92"
         style="fill:#231f20;fill-opacity:1;fill-rule:nonzero;stroke:none"
         d="m 4956.09,334.551 c -5.29,6.234 -12.05,9.355 -20.27,9.355 -12.27,0 -20.68,-5.781 -25.19,-17.347 -2.41,-6.168 -3.6,-14.262 -3.6,-24.274 0,-11.758 2.38,-20.711 7.13,-26.844 4.75,-6.144 11.13,-9.218 19.14,-9.218 12.54,0 21.37,5.691 26.49,17.058 2.83,6.438 4.25,13.938 4.25,22.52 0,12.929 -2.63,22.512 -7.95,28.75 z m -2.14,18.808 c 3.3,-2.269 6.68,-5.586 10.09,-9.941 v 13.16 h 16.19 v -94.937 c 0,-13.25 -1.95,-23.711 -5.84,-31.375 -7.24,-14.172 -20.93,-21.25 -41.09,-21.25 -11.19,0 -20.62,2.519 -28.26,7.547 -7.64,5.039 -11.91,12.921 -12.83,23.644 h 17.85 c 0.84,-4.687 2.52,-8.293 5.04,-10.82 3.92,-3.907 10.13,-5.852 18.61,-5.852 13.38,0 22.13,4.746 26.27,14.231 2.44,5.586 3.57,15.566 3.38,29.922 -3.5,-5.333 -7.7,-9.29 -12.62,-11.899 -4.92,-2.594 -11.42,-3.894 -19.51,-3.894 -11.27,0 -21.11,4.015 -29.57,12.043 -8.44,8.027 -12.66,21.296 -12.66,39.812 0,17.48 4.26,31.125 12.76,40.938 8.51,9.808 18.79,14.718 30.84,14.718 8.14,0 15.27,-2.019 21.35,-6.047" /><path
         id="path94"
         style="fill:#231f20;fill-opacity:1;fill-rule:nonzero;stroke:none"
         d="m 5077.7,313.691 c -0.71,7.602 -2.35,13.676 -4.93,18.227 -4.78,8.449 -12.73,12.672 -23.88,12.672 -7.99,0 -14.69,-2.91 -20.1,-8.727 -5.41,-5.812 -8.28,-13.203 -8.59,-22.172 z m -6.29,40.989 c 6.91,-3.477 12.18,-7.981 15.8,-13.504 3.47,-5.262 5.8,-11.399 6.97,-18.418 1.03,-4.809 1.54,-12.473 1.54,-23 h -75.92 c 0.32,-10.625 2.8,-19.141 7.45,-25.559 4.64,-6.426 11.83,-9.629 21.56,-9.629 9.1,0 16.35,3.039 21.76,9.102 3.02,3.527 5.17,7.609 6.44,12.246 h 17.25 c -0.45,-3.836 -1.96,-8.113 -4.53,-12.82 -2.56,-4.707 -5.43,-8.567 -8.58,-11.555 -5.29,-5.195 -11.83,-8.699 -19.65,-10.527 -4.2,-1.036 -8.92,-1.551 -14.21,-1.551 -12.91,0 -23.87,4.726 -32.84,14.18 -8.98,9.453 -13.45,22.695 -13.45,39.714 0,16.77 4.51,30.375 13.55,40.84 9.04,10.465 20.86,15.696 35.45,15.696 7.36,0 14.49,-1.739 21.41,-5.215" /><path
         id="path96"
         style="fill:#231f20;fill-opacity:1;fill-rule:nonzero;stroke:none"
         d="m 5188.71,313.691 c -0.7,7.602 -2.34,13.676 -4.92,18.227 -4.79,8.449 -12.74,12.672 -23.89,12.672 -7.99,0 -14.69,-2.91 -20.1,-8.727 -5.41,-5.812 -8.28,-13.203 -8.59,-22.172 z m -6.29,40.989 c 6.92,-3.477 12.19,-7.981 15.8,-13.504 3.48,-5.262 5.8,-11.399 6.98,-18.418 1.03,-4.809 1.54,-12.473 1.54,-23 h -75.92 c 0.31,-10.625 2.79,-19.141 7.44,-25.559 4.65,-6.426 11.84,-9.629 21.56,-9.629 9.11,0 16.35,3.039 21.76,9.102 3.03,3.527 5.18,7.609 6.45,12.246 h 17.24 c -0.45,-3.836 -1.95,-8.113 -4.53,-12.82 -2.56,-4.707 -5.43,-8.567 -8.57,-11.555 -5.29,-5.195 -11.84,-8.699 -19.65,-10.527 -4.2,-1.036 -8.93,-1.551 -14.22,-1.551 -12.91,0 -23.87,4.726 -32.83,14.18 -8.99,9.453 -13.46,22.695 -13.46,39.714 0,16.77 4.51,30.375 13.56,40.84 9.04,10.465 20.86,15.696 35.45,15.696 7.36,0 14.49,-1.739 21.4,-5.215" /><path
         id="path98"
         style="fill:#231f20;fill-opacity:1;fill-rule:nonzero;stroke:none"
         d="m 5239.39,285.918 c 0.53,-5.848 2.02,-10.332 4.48,-13.457 4.51,-5.652 12.34,-8.477 23.47,-8.477 6.64,0 12.46,1.418 17.52,4.239 5.04,2.824 7.56,7.199 7.56,13.105 0,4.492 -2.01,7.902 -6.05,10.235 -2.58,1.433 -7.66,3.085 -15.26,4.972 l -14.16,3.516 c -9.04,2.207 -15.72,4.676 -20,7.402 -7.67,4.746 -11.5,11.309 -11.5,19.692 0,9.871 3.61,17.867 10.82,23.972 7.21,6.11 16.91,9.168 29.1,9.168 15.92,0 27.42,-4.617 34.45,-13.844 4.42,-5.843 6.57,-12.148 6.43,-18.906 h -16.56 c -0.33,3.942 -1.76,7.524 -4.3,10.758 -4.12,4.59 -11.27,6.883 -21.44,6.883 -6.78,0 -11.92,-1.266 -15.41,-3.789 -3.5,-2.524 -5.24,-5.86 -5.24,-10.004 0,-4.531 2.29,-8.156 6.88,-10.875 2.65,-1.621 6.56,-3.047 11.71,-4.278 l 11.82,-2.832 c 12.85,-3.054 21.45,-6.003 25.82,-8.867 6.82,-4.48 10.24,-11.535 10.24,-21.152 0,-9.297 -3.58,-17.313 -10.71,-24.07 -7.15,-6.758 -18.01,-10.137 -32.61,-10.137 -15.73,0 -26.86,3.523 -33.4,10.574 -6.55,7.051 -10.06,15.774 -10.51,26.172 h 16.85" /><path
         id="path100"
         style="fill:#231f20;fill-opacity:1;fill-rule:nonzero;stroke:none"
         d="m 1066.42,103.32 c -0.71,7.61 -2.36,13.684 -4.94,18.235 -4.76,8.437 -12.72,12.664 -23.87,12.664 -7.99,0 -14.69,-2.91 -20.1,-8.723 -5.41,-5.816 -8.28,-13.199 -8.6,-22.176 z m -6.29,40.989 c 6.91,-3.477 12.17,-7.981 15.79,-13.496 3.49,-5.274 5.81,-11.407 6.98,-18.418 1.03,-4.817 1.55,-12.4809 1.55,-23.0083 h -75.93 c 0.32,-10.625 2.8,-19.1406 7.45,-25.5586 4.64,-6.4258 11.83,-9.6289 21.56,-9.6289 9.09,0 16.35,3.0391 21.76,9.1016 3.03,3.5273 5.18,7.6094 6.44,12.2461 h 17.25 c -0.45,-3.836 -1.96,-8.1133 -4.53,-12.8203 -2.57,-4.7071 -5.43,-8.5664 -8.59,-11.5547 -5.28,-5.1953 -11.83,-8.6992 -19.63,-10.5274 -4.19,-1.0351 -8.94,-1.5507 -14.22,-1.5507 -12.92,0 -23.86,4.7265 -32.84,14.1796 -8.975,9.4532 -13.463,22.6954 -13.463,39.7149 0,16.7697 4.523,30.3827 13.563,40.8397 9.04,10.461 20.86,15.695 35.46,15.695 7.35,0 14.49,-1.738 21.4,-5.214" /><path
         id="path102"
         style="fill:#231f20;fill-opacity:1;fill-rule:nonzero;stroke:none"
         d="m 1110.18,176.32 h 17.74 v -29.14 h 16.66 v -14.328 h -16.66 V 64.7266 c 0,-3.6407 1.23,-6.0821 3.7,-7.3125 1.37,-0.7149 3.64,-1.0743 6.82,-1.0743 0.85,0 1.76,0.0274 2.73,0.0665 0.98,0.039 2.12,0.1484 3.41,0.3242 V 42.793 c -2.01,-0.586 -4.11,-1.0039 -6.28,-1.2696 -2.18,-0.2539 -4.54,-0.3906 -7.07,-0.3906 -8.19,0 -13.74,2.1016 -16.66,6.2891 -2.93,4.1914 -4.39,9.6289 -4.39,16.3281 v 69.102 h -14.14 v 14.328 h 14.14 v 29.14" /><path
         id="path104"
         style="fill:#231f20;fill-opacity:1;fill-rule:nonzero;stroke:none"
         d="m 1321.2,175.547 c 9.88,-9.559 15.38,-20.399 16.47,-32.559 h -18.91 c -2.1,9.231 -6.3,16.535 -12.59,21.934 -6.28,5.391 -15.11,8.098 -26.46,8.098 -13.85,0 -25.04,-4.961 -33.55,-14.883 -8.52,-9.922 -12.78,-25.117 -12.78,-45.606 0,-16.7771 3.84,-30.3904 11.54,-40.8201 7.69,-10.4414 19.16,-15.664 34.42,-15.664 14.04,0 24.73,5.4961 32.07,16.4726 3.89,5.7813 6.8,13.3907 8.71,22.8125 h 18.91 c -1.67,-15.0781 -7.19,-27.7148 -16.57,-37.9179 -11.24,-12.2774 -26.4,-18.418 -45.47,-18.418 -16.45,0 -30.26,5.0391 -41.43,15.1172 -14.71,13.3281 -22.06,33.9062 -22.06,61.7387 0,21.132 5.51,38.457 16.56,51.98 11.95,14.699 28.42,22.039 49.42,22.039 17.92,0 31.82,-4.773 41.72,-14.324" /><path
         id="path106"
         style="fill:#231f20;fill-opacity:1;fill-rule:nonzero;stroke:none"
         d="m 1361.74,146.691 h 17.84 V 42.793 h -17.84 z m 0,39.286 h 17.84 v -19.891 h -17.84 v 19.891" /><path
         id="path108"
         style="fill:#231f20;fill-opacity:1;fill-rule:nonzero;stroke:none"
         d="m 1409.6,176.32 h 17.74 v -29.14 h 16.67 v -14.328 h -16.67 V 64.7266 c 0,-3.6407 1.23,-6.0821 3.7,-7.3125 1.37,-0.7149 3.64,-1.0743 6.83,-1.0743 0.84,0 1.75,0.0274 2.73,0.0665 0.97,0.039 2.11,0.1484 3.41,0.3242 V 42.793 c -2.02,-0.586 -4.11,-1.0039 -6.29,-1.2696 -2.18,-0.2539 -4.53,-0.3906 -7.07,-0.3906 -8.18,0 -13.74,2.1016 -16.66,6.2891 -2.93,4.1914 -4.39,9.6289 -4.39,16.3281 v 69.102 h -14.13 v 14.328 h 14.13 v 29.14" /><path
         id="path110"
         style="fill:#231f20;fill-opacity:1;fill-rule:nonzero;stroke:none"
         d="m 1526.29,67.3828 c 4.28,8.8008 6.42,18.586 6.42,29.3555 0,9.7387 -1.55,17.6487 -4.63,23.7577 -4.89,9.602 -13.3,14.406 -25.25,14.406 -10.6,0 -18.31,-4.089 -23.13,-12.273 -4.82,-8.176 -7.23,-18.039 -7.23,-29.5899 0,-11.0938 2.41,-20.3438 7.23,-27.7461 4.82,-7.3907 12.46,-11.0938 22.94,-11.0938 11.5,0 19.38,4.3946 23.65,13.1836 z m 10.9,69.3872 c 9.23,-8.965 13.84,-22.149 13.84,-39.5434 0,-16.8164 -4.07,-30.711 -12.2,-41.6797 -8.13,-10.9766 -20.74,-16.4531 -37.84,-16.4531 -14.26,0 -25.58,4.8515 -33.97,14.5507 -8.39,9.7071 -12.58,22.7422 -12.58,39.1016 0,17.5269 4.42,31.4839 13.26,41.8749 8.83,10.391 20.71,15.586 35.62,15.586 13.35,0 24.64,-4.484 33.87,-13.437" /><path
         id="path112"
         style="fill:#231f20;fill-opacity:1;fill-rule:nonzero;stroke:none"
         d="m 1637.82,147.18 h 19.4 c -2.47,-6.7 -7.96,-21.973 -16.47,-45.832 -6.37,-17.9378 -11.7,-32.5667 -15.99,-43.8753 C 1614.63,30.8516 1607.5,14.6211 1603.34,8.76953 1599.18,2.92969 1592.04,0 1581.91,0 c -2.46,0 -4.36,0.0976563 -5.69,0.292969 -1.33,0.195312 -2.97,0.558594 -4.92,1.074221 V 17.3555 c 3.05,-0.8399 5.25,-1.3672 6.62,-1.5625 1.36,-0.1953 2.56,-0.2969 3.6,-0.2969 3.24,0 5.62,0.5391 7.15,1.6133 1.53,1.0664 2.8,2.3828 3.84,3.9375 0.33,0.5156 1.49,3.1836 3.51,7.9765 2.01,4.7969 3.47,8.3711 4.38,10.7032 L 1561.8,147.18 h 19.88 l 27.97,-85.0316 28.17,85.0316" /><path
         id="path114"
         style="fill:#231f20;fill-opacity:1;fill-rule:nonzero;stroke:none"
         d="m 1743.14,103.32 c -0.71,7.61 -2.35,13.684 -4.93,18.235 -4.77,8.437 -12.73,12.664 -23.87,12.664 -7.99,0 -14.69,-2.91 -20.11,-8.723 -5.41,-5.816 -8.27,-13.199 -8.6,-22.176 z m -6.28,40.989 c 6.9,-3.477 12.17,-7.981 15.79,-13.496 3.48,-5.274 5.81,-11.407 6.97,-18.418 1.03,-4.817 1.55,-12.4809 1.55,-23.0083 h -75.93 c 0.33,-10.625 2.81,-19.1406 7.45,-25.5586 4.64,-6.4258 11.83,-9.6289 21.57,-9.6289 9.08,0 16.34,3.0391 21.76,9.1016 3.03,3.5273 5.17,7.6094 6.44,12.2461 h 17.25 c -0.46,-3.836 -1.97,-8.1133 -4.53,-12.8203 -2.57,-4.7071 -5.43,-8.5664 -8.59,-11.5547 -5.29,-5.1953 -11.84,-8.6992 -19.64,-10.5274 -4.19,-1.0351 -8.93,-1.5507 -14.22,-1.5507 -12.92,0 -23.86,4.7265 -32.84,14.1796 -8.97,9.4532 -13.46,22.6954 -13.46,39.7149 0,16.7697 4.52,30.3827 13.57,40.8397 9.03,10.461 20.85,15.695 35.45,15.695 7.36,0 14.5,-1.738 21.41,-5.214" /><path
         id="path116"
         style="fill:#231f20;fill-opacity:1;fill-rule:nonzero;stroke:none"
         d="m 1783.39,147.18 h 16.67 v -14.809 c 4.94,6.098 10.17,10.492 15.69,13.149 5.52,2.675 11.67,4.003 18.42,4.003 14.82,0 24.82,-5.168 30.02,-15.5 2.86,-5.652 4.29,-13.738 4.29,-24.265 V 42.793 h -17.84 v 65.793 c 0,6.367 -0.94,11.504 -2.82,15.398 -3.12,6.496 -8.77,9.746 -16.96,9.746 -4.16,0 -7.57,-0.417 -10.23,-1.257 -4.81,-1.438 -9.04,-4.297 -12.68,-8.586 -2.92,-3.446 -4.82,-7 -5.7,-10.672 -0.87,-3.676 -1.31,-8.918 -1.31,-15.7423 V 42.793 h -17.55 V 147.18" /><path
         id="path118"
         style="fill:#231f20;fill-opacity:1;fill-rule:nonzero;stroke:none"
         d="m 1894.41,147.18 h 16.66 v -14.809 c 4.95,6.098 10.18,10.492 15.7,13.149 5.52,2.675 11.66,4.003 18.42,4.003 14.81,0 24.82,-5.168 30.02,-15.5 2.86,-5.652 4.29,-13.738 4.29,-24.265 V 42.793 h -17.84 v 65.793 c 0,6.367 -0.94,11.504 -2.82,15.398 -3.12,6.496 -8.78,9.746 -16.96,9.746 -4.17,0 -7.57,-0.417 -10.24,-1.257 -4.81,-1.438 -9.03,-4.297 -12.67,-8.586 -2.93,-3.446 -4.82,-7 -5.7,-10.672 -0.88,-3.676 -1.32,-8.918 -1.32,-15.7423 V 42.793 h -17.54 V 147.18" /><path
         id="path120"
         style="fill:#231f20;fill-opacity:1;fill-rule:nonzero;stroke:none"
         d="m 2076.19,103.32 c -0.71,7.61 -2.36,13.684 -4.94,18.235 -4.77,8.437 -12.71,12.664 -23.87,12.664 -7.99,0 -14.68,-2.91 -20.09,-8.723 -5.41,-5.816 -8.29,-13.199 -8.61,-22.176 z m -6.29,40.989 c 6.92,-3.477 12.17,-7.981 15.79,-13.496 3.49,-5.274 5.81,-11.407 6.99,-18.418 1.03,-4.817 1.54,-12.4809 1.54,-23.0083 h -75.93 c 0.32,-10.625 2.8,-19.1406 7.45,-25.5586 4.64,-6.4258 11.83,-9.6289 21.56,-9.6289 9.09,0 16.35,3.0391 21.76,9.1016 3.03,3.5273 5.18,7.6094 6.45,12.2461 h 17.24 c -0.45,-3.836 -1.95,-8.1133 -4.53,-12.8203 -2.57,-4.7071 -5.43,-8.5664 -8.59,-11.5547 -5.28,-5.1953 -11.84,-8.6992 -19.63,-10.5274 -4.2,-1.0351 -8.94,-1.5507 -14.22,-1.5507 -12.92,0 -23.87,4.7265 -32.84,14.1796 -8.98,9.4532 -13.46,22.6954 -13.46,39.7149 0,16.7697 4.52,30.3827 13.57,40.8397 9.03,10.461 20.86,15.695 35.45,15.695 7.36,0 14.49,-1.738 21.4,-5.214" /><path
         id="path122"
         style="fill:#231f20;fill-opacity:1;fill-rule:nonzero;stroke:none"
         d="m 2119.96,176.32 h 17.74 v -29.14 h 16.66 V 132.852 H 2137.7 V 64.7266 c 0,-3.6407 1.23,-6.0821 3.71,-7.3125 1.34,-0.7149 3.63,-1.0743 6.81,-1.0743 0.84,0 1.76,0.0274 2.74,0.0665 0.95,0.039 2.11,0.1484 3.4,0.3242 V 42.793 c -2.02,-0.586 -4.11,-1.0039 -6.29,-1.2696 -2.17,-0.2539 -4.53,-0.3906 -7.05,-0.3906 -8.21,0 -13.75,2.1016 -16.68,6.2891 -2.93,4.1914 -4.38,9.6289 -4.38,16.3281 v 69.102 h -14.14 v 14.328 h 14.14 v 29.14" /><path
         id="path124"
         style="fill:#231f20;fill-opacity:1;fill-rule:nonzero;stroke:none"
         d="m 2235.64,189.191 -26.01,-28.164 h -13.46 l 17.83,28.164 z m 7.04,-85.871 c -0.73,7.61 -2.37,13.684 -4.95,18.235 -4.76,8.437 -12.71,12.664 -23.86,12.664 -7.99,0 -14.69,-2.91 -20.1,-8.723 -5.43,-5.816 -8.28,-13.199 -8.61,-22.176 z m -6.29,40.989 c 6.91,-3.477 12.16,-7.981 15.78,-13.496 3.49,-5.274 5.82,-11.407 6.97,-18.418 1.04,-4.817 1.56,-12.4809 1.56,-23.0083 h -75.93 c 0.33,-10.625 2.81,-19.1406 7.46,-25.5586 4.63,-6.4258 11.81,-9.6289 21.56,-9.6289 9.08,0 16.33,3.0391 21.76,9.1016 3.02,3.5273 5.17,7.6094 6.44,12.2461 h 17.25 c -0.45,-3.836 -1.97,-8.1133 -4.53,-12.8203 -2.58,-4.7071 -5.43,-8.5664 -8.6,-11.5547 -5.29,-5.1953 -11.83,-8.6992 -19.63,-10.5274 -4.19,-1.0351 -8.94,-1.5507 -14.21,-1.5507 -12.93,0 -23.87,4.7265 -32.86,14.1796 -8.96,9.4532 -13.45,22.6954 -13.45,39.7149 0,16.7697 4.51,30.3827 13.55,40.8397 9.04,10.461 20.86,15.695 35.47,15.695 7.36,0 14.49,-1.738 21.41,-5.214" /><path
         id="path126"
         style="fill:#231f20;fill-opacity:1;fill-rule:nonzero;stroke:none"
         d="m 2441.99,175.547 c 9.89,-9.559 15.37,-20.399 16.47,-32.559 h -18.91 c -2.11,9.231 -6.31,16.535 -12.58,21.934 -6.29,5.391 -15.11,8.098 -26.48,8.098 -13.85,0 -25.02,-4.961 -33.54,-14.883 -8.53,-9.922 -12.79,-25.117 -12.79,-45.606 0,-16.7771 3.85,-30.3904 11.54,-40.8201 7.7,-10.4414 19.16,-15.664 34.42,-15.664 14.04,0 24.74,5.4961 32.09,16.4726 3.88,5.7813 6.79,13.3907 8.71,22.8125 h 18.9 c -1.68,-15.0781 -7.18,-27.7148 -16.56,-37.9179 -11.25,-12.2774 -26.4,-18.418 -45.49,-18.418 -16.44,0 -30.25,5.0391 -41.42,15.1172 -14.71,13.3281 -22.07,33.9062 -22.07,61.7387 0,21.132 5.52,38.457 16.58,51.98 11.93,14.699 28.42,22.039 49.41,22.039 17.91,0 31.82,-4.773 41.72,-14.324" /><path
         id="path128"
         style="fill:#231f20;fill-opacity:1;fill-rule:nonzero;stroke:none"
         d="m 2501.54,58.5742 c 3.71,-2.9179 8.09,-4.375 13.17,-4.375 6.17,0 12.15,1.4258 17.93,4.2774 9.74,4.7382 14.63,12.4922 14.63,23.2617 v 14.1133 c -2.15,-1.3789 -4.91,-2.5118 -8.29,-3.4297 -3.35,-0.9063 -6.68,-1.5625 -9.92,-1.9531 l -10.6,-1.3555 c -6.35,-0.8516 -11.14,-2.1797 -14.34,-3.9961 -5.41,-3.0469 -8.12,-7.9102 -8.12,-14.5781 0,-5.0586 1.83,-9.043 5.54,-11.9649 z m 36.96,47.3948 c 4.02,0.515 6.71,2.207 8.08,5.058 0.78,1.563 1.17,3.817 1.17,6.758 0,5.996 -2.12,10.352 -6.38,13.055 -4.24,2.707 -10.32,4.062 -18.23,4.062 -9.16,0 -15.64,-2.488 -19.47,-7.449 -2.13,-2.734 -3.51,-6.816 -4.18,-12.246 h -16.36 c 0.33,12.91 4.49,21.883 12.5,26.934 8.02,5.058 17.32,7.578 27.89,7.578 12.26,0 22.24,-2.348 29.9,-7.012 7.58,-4.687 11.38,-11.965 11.38,-21.836 V 60.7227 c 0,-1.8164 0.38,-3.2813 1.12,-4.3829 0.74,-1.1054 2.32,-1.6523 4.72,-1.6523 0.79,0 1.66,0.0508 2.64,0.1484 0.98,0.0977 2.01,0.2344 3.13,0.4297 V 42.3047 c -2.74,-0.7813 -4.83,-1.2695 -6.25,-1.4649 -1.43,-0.1953 -3.38,-0.2929 -5.84,-0.2929 -6.04,0 -10.43,2.1484 -13.17,6.4375 -1.42,2.2734 -2.44,5.4883 -3.01,9.6484 -3.57,-4.6797 -8.71,-8.7422 -15.41,-12.1797 -6.69,-3.4453 -14.06,-5.164 -22.12,-5.164 -9.69,0 -17.6,2.9375 -23.73,8.8086 -6.14,5.8671 -9.22,13.2226 -9.22,22.0507 0,9.668 3.02,17.1563 9.08,22.4805 6.03,5.3203 13.96,8.6011 23.77,9.8321 l 27.99,3.508" /><path
         id="path130"
         style="fill:#231f20;fill-opacity:1;fill-rule:nonzero;stroke:none"
         d="m 2593.55,147.18 h 16.66 v -14.809 c 4.95,6.098 10.18,10.492 15.71,13.149 5.53,2.675 11.66,4.003 18.42,4.003 14.82,0 24.82,-5.168 30.02,-15.5 2.85,-5.652 4.29,-13.738 4.29,-24.265 V 42.793 h -17.85 v 65.793 c 0,6.367 -0.94,11.504 -2.81,15.398 -3.13,6.496 -8.79,9.746 -16.97,9.746 -4.16,0 -7.56,-0.417 -10.24,-1.257 -4.8,-1.438 -9.02,-4.297 -12.65,-8.586 -2.93,-3.446 -4.83,-7 -5.71,-10.672 -0.88,-3.676 -1.33,-8.918 -1.33,-15.7423 V 42.793 h -17.54 V 147.18" /><path
         id="path132"
         style="fill:#231f20;fill-opacity:1;fill-rule:nonzero;stroke:none"
         d="m 2723.57,58.5742 c 3.72,-2.9179 8.09,-4.375 13.17,-4.375 6.17,0 12.15,1.4258 17.93,4.2774 9.74,4.7382 14.63,12.4922 14.63,23.2617 v 14.1133 c -2.15,-1.3789 -4.91,-2.5118 -8.28,-3.4297 -3.36,-0.9063 -6.68,-1.5625 -9.93,-1.9531 l -10.6,-1.3555 c -6.35,-0.8516 -11.13,-2.1797 -14.34,-3.9961 -5.41,-3.0469 -8.12,-7.9102 -8.12,-14.5781 0,-5.0586 1.83,-9.043 5.54,-11.9649 z m 36.96,47.3948 c 4.02,0.515 6.72,2.207 8.08,5.058 0.78,1.563 1.18,3.817 1.18,6.758 0,5.996 -2.13,10.352 -6.39,13.055 -4.24,2.707 -10.31,4.062 -18.22,4.062 -9.16,0 -15.65,-2.488 -19.48,-7.449 -2.13,-2.734 -3.51,-6.816 -4.18,-12.246 h -16.36 c 0.33,12.91 4.49,21.883 12.5,26.934 8.02,5.058 17.32,7.578 27.89,7.578 12.26,0 22.24,-2.348 29.9,-7.012 7.58,-4.687 11.39,-11.965 11.39,-21.836 V 60.7227 c 0,-1.8164 0.37,-3.2813 1.11,-4.3829 0.74,-1.1054 2.32,-1.6523 4.73,-1.6523 0.78,0 1.66,0.0508 2.63,0.1484 0.98,0.0977 2.01,0.2344 3.13,0.4297 V 42.3047 c -2.74,-0.7813 -4.83,-1.2695 -6.25,-1.4649 -1.43,-0.1953 -3.38,-0.2929 -5.84,-0.2929 -6.04,0 -10.43,2.1484 -13.17,6.4375 -1.42,2.2734 -2.44,5.4883 -3,9.6484 -3.58,-4.6797 -8.72,-8.7422 -15.41,-12.1797 -6.7,-3.4453 -14.07,-5.164 -22.13,-5.164 -9.69,0 -17.6,2.9375 -23.73,8.8086 -6.14,5.8671 -9.22,13.2226 -9.22,22.0507 0,9.668 3.02,17.1563 9.08,22.4805 6.03,5.3203 13.96,8.6011 23.77,9.8321 l 27.99,3.508" /><path
         id="path134"
         style="fill:#231f20;fill-opacity:1;fill-rule:nonzero;stroke:none"
         d="m 2833.77,65.6953 c 4.73,-7.5312 12.28,-11.3008 22.69,-11.3008 8.09,0 14.73,3.4883 19.95,10.4766 5.19,6.9844 7.79,17.0039 7.79,30.0703 0,13.1836 -2.68,22.9496 -8.05,29.2886 -5.37,6.329 -11.99,9.5 -19.88,9.5 -8.79,0 -15.92,-3.378 -21.39,-10.136 -5.45,-6.758 -8.18,-16.699 -8.18,-29.8245 0,-11.1797 2.36,-20.5351 7.07,-28.0742 z m 39.16,78.2697 c 3.12,-1.942 6.64,-5.36 10.59,-10.235 v 52.727 h 16.87 V 42.793 h -15.8 v 14.5234 c -4.08,-6.4375 -8.91,-11.0742 -14.47,-13.9375 -5.57,-2.8594 -11.94,-4.2851 -19.12,-4.2851 -11.59,0 -21.62,4.8828 -30.1,14.6679 -8.48,9.7735 -12.72,22.793 -12.72,39.0313 0,15.203 3.87,28.379 11.61,39.523 7.73,11.153 18.78,16.719 33.14,16.719 7.97,0 14.63,-1.691 20,-5.07" /><path
         id="path136"
         style="fill:#231f20;fill-opacity:1;fill-rule:nonzero;stroke:none"
         d="m 2945.61,58.5742 c 3.71,-2.9179 8.08,-4.375 13.16,-4.375 6.17,0 12.15,1.4258 17.93,4.2774 9.75,4.7382 14.63,12.4922 14.63,23.2617 v 14.1133 c -2.15,-1.3789 -4.9,-2.5118 -8.28,-3.4297 -3.36,-0.9063 -6.68,-1.5625 -9.92,-1.9531 l -10.61,-1.3555 c -6.35,-0.8516 -11.13,-2.1797 -14.34,-3.9961 -5.41,-3.0469 -8.12,-7.9102 -8.12,-14.5781 0,-5.0586 1.83,-9.043 5.55,-11.9649 z m 36.95,47.3948 c 4.02,0.515 6.72,2.207 8.08,5.058 0.79,1.563 1.18,3.817 1.18,6.758 0,5.996 -2.13,10.352 -6.39,13.055 -4.24,2.707 -10.31,4.062 -18.22,4.062 -9.16,0 -15.65,-2.488 -19.48,-7.449 -2.12,-2.734 -3.51,-6.816 -4.18,-12.246 h -16.36 c 0.33,12.91 4.49,21.883 12.5,26.934 8.02,5.058 17.32,7.578 27.89,7.578 12.26,0 22.24,-2.348 29.9,-7.012 7.58,-4.687 11.39,-11.965 11.39,-21.836 V 60.7227 c 0,-1.8164 0.37,-3.2813 1.11,-4.3829 0.74,-1.1054 2.32,-1.6523 4.73,-1.6523 0.78,0 1.66,0.0508 2.63,0.1484 0.98,0.0977 2.02,0.2344 3.13,0.4297 V 42.3047 c -2.74,-0.7813 -4.83,-1.2695 -6.25,-1.4649 -1.43,-0.1953 -3.38,-0.2929 -5.84,-0.2929 -6.04,0 -10.43,2.1484 -13.17,6.4375 -1.42,2.2734 -2.44,5.4883 -3,9.6484 -3.58,-4.6797 -8.71,-8.7422 -15.41,-12.1797 -6.7,-3.4453 -14.07,-5.164 -22.13,-5.164 -9.69,0 -17.6,2.9375 -23.73,8.8086 -6.14,5.8671 -9.22,13.2226 -9.22,22.0507 0,9.668 3.03,17.1563 9.08,22.4805 6.04,5.3203 13.97,8.6011 23.77,9.8321 l 27.99,3.508" /><path
         id="path138"
         style="fill:#231f20;fill-opacity:1;fill-rule:nonzero;stroke:none"
         d="m 1002.38,396.348 h 19.59 V 253.164 h -19.59 v 143.184" /><path
         id="path140"
         style="fill:#231f20;fill-opacity:1;fill-rule:nonzero;stroke:none"
         d="m 1051.11,357.555 h 17.35 v -14.817 c 4.16,5.133 7.93,8.867 11.31,11.207 5.78,3.965 12.34,5.95 19.69,5.95 8.31,0 15.01,-2.047 20.08,-6.145 2.85,-2.34 5.46,-5.781 7.79,-10.332 3.9,5.59 8.49,9.73 13.74,12.434 5.27,2.695 11.18,4.043 17.74,4.043 14.04,0 23.59,-5.071 28.66,-15.207 2.73,-5.458 4.1,-12.801 4.1,-22.028 v -69.496 h -18.23 v 72.516 c 0,6.953 -1.74,11.726 -5.21,14.332 -3.48,2.597 -7.72,3.894 -12.72,3.894 -6.89,0 -12.82,-2.304 -17.79,-6.918 -4.97,-4.613 -7.46,-12.316 -7.46,-23.101 v -60.723 h -17.84 v 68.129 c 0,7.082 -0.84,12.246 -2.53,15.5 -2.67,4.871 -7.64,7.309 -14.91,7.309 -6.63,0 -12.66,-2.567 -18.08,-7.7 -5.43,-5.132 -8.14,-14.425 -8.14,-27.875 v -55.363 h -17.55 v 104.391" /><path
         id="path142"
         style="fill:#231f20;fill-opacity:1;fill-rule:nonzero;stroke:none"
         d="m 1217.39,357.555 h 17.35 v -14.817 c 4.16,5.133 7.93,8.867 11.31,11.207 5.78,3.965 12.34,5.95 19.69,5.95 8.31,0 15.01,-2.047 20.08,-6.145 2.85,-2.34 5.45,-5.781 7.79,-10.332 3.9,5.59 8.48,9.73 13.74,12.434 5.27,2.695 11.18,4.043 17.74,4.043 14.04,0 23.59,-5.071 28.66,-15.207 2.73,-5.458 4.1,-12.801 4.1,-22.028 v -69.496 h -18.23 v 72.516 c 0,6.953 -1.74,11.726 -5.22,14.332 -3.47,2.597 -7.72,3.894 -12.72,3.894 -6.89,0 -12.81,-2.304 -17.78,-6.918 -4.97,-4.613 -7.46,-12.316 -7.46,-23.101 v -60.723 h -17.84 v 68.129 c 0,7.082 -0.84,12.246 -2.53,15.5 -2.67,4.871 -7.64,7.309 -14.91,7.309 -6.63,0 -12.66,-2.567 -18.08,-7.7 -5.43,-5.132 -8.14,-14.425 -8.14,-27.875 v -55.363 h -17.55 v 104.391" /><path
         id="path144"
         style="fill:#231f20;fill-opacity:1;fill-rule:nonzero;stroke:none"
         d="m 1383.67,357.066 h 17.84 V 253.164 h -17.84 z m 0,39.282 h 17.84 v -19.887 h -17.84 v 19.887" /><path
         id="path146"
         style="fill:#231f20;fill-opacity:1;fill-rule:nonzero;stroke:none"
         d="m 1488.2,334.551 c -5.3,6.234 -12.06,9.355 -20.27,9.355 -12.29,0 -20.69,-5.781 -25.22,-17.347 -2.39,-6.168 -3.58,-14.262 -3.58,-24.274 0,-11.758 2.37,-20.711 7.12,-26.844 4.76,-6.144 11.14,-9.218 19.16,-9.218 12.54,0 21.36,5.691 26.47,17.058 2.85,6.438 4.27,13.938 4.27,22.52 0,12.929 -2.65,22.512 -7.95,28.75 z m -2.15,18.808 c 3.3,-2.269 6.66,-5.586 10.1,-9.941 v 13.16 h 16.18 v -94.937 c 0,-13.25 -1.94,-23.711 -5.83,-31.375 -7.26,-14.172 -20.95,-21.25 -41.09,-21.25 -11.21,0 -20.63,2.519 -28.27,7.547 -7.64,5.039 -11.92,12.921 -12.83,23.644 h 17.84 c 0.84,-4.687 2.52,-8.293 5.04,-10.82 3.94,-3.907 10.15,-5.852 18.61,-5.852 13.38,0 22.13,4.746 26.27,14.231 2.46,5.586 3.59,15.566 3.39,29.922 -3.49,-5.333 -7.7,-9.29 -12.61,-11.899 -4.93,-2.594 -11.43,-3.894 -19.52,-3.894 -11.26,0 -21.12,4.015 -29.57,12.043 -8.44,8.027 -12.66,21.296 -12.66,39.812 0,17.48 4.25,31.125 12.76,40.938 8.52,9.808 18.79,14.718 30.83,14.718 8.16,0 15.28,-2.019 21.36,-6.047" /><path
         id="path148"
         style="fill:#231f20;fill-opacity:1;fill-rule:nonzero;stroke:none"
         d="m 1539.52,357.555 h 16.67 v -18.032 c 1.36,3.508 4.71,7.778 10.04,12.817 5.32,5.035 11.47,7.555 18.42,7.555 0.32,0 0.88,-0.036 1.65,-0.098 0.78,-0.067 2.12,-0.195 4,-0.391 v -18.523 c -1.04,0.195 -2,0.328 -2.87,0.39 -0.88,0.067 -1.84,0.098 -2.88,0.098 -8.84,0 -15.63,-2.84 -20.37,-8.523 -4.75,-5.688 -7.11,-12.243 -7.11,-19.645 v -60.039 h -17.55 v 104.391" /><path
         id="path150"
         style="fill:#231f20;fill-opacity:1;fill-rule:nonzero;stroke:none"
         d="m 1624.51,268.945 c 3.71,-2.918 8.09,-4.375 13.16,-4.375 6.17,0 12.15,1.426 17.94,4.278 9.74,4.738 14.61,12.492 14.61,23.261 v 14.114 c -2.13,-1.379 -4.89,-2.512 -8.26,-3.43 -3.37,-0.906 -6.68,-1.563 -9.92,-1.953 l -10.6,-1.356 c -6.36,-0.851 -11.14,-2.179 -14.35,-3.996 -5.42,-3.047 -8.13,-7.91 -8.13,-14.578 0,-5.058 1.85,-9.043 5.55,-11.965 z m 36.95,47.395 c 4.02,0.515 6.72,2.207 8.09,5.058 0.77,1.567 1.16,3.817 1.16,6.75 0,6.004 -2.12,10.36 -6.37,13.063 -4.25,2.707 -10.33,4.062 -18.24,4.062 -9.14,0 -15.63,-2.484 -19.45,-7.445 -2.14,-2.746 -3.53,-6.828 -4.18,-12.246 h -16.38 c 0.33,12.906 4.5,21.879 12.51,26.93 8.02,5.051 17.31,7.578 27.89,7.578 12.27,0 22.23,-2.34 29.89,-7.02 7.59,-4.679 11.39,-11.957 11.39,-21.836 v -60.14 c 0,-1.817 0.37,-3.281 1.12,-4.383 0.75,-1.106 2.33,-1.652 4.73,-1.652 0.78,0 1.66,0.05 2.63,0.148 0.98,0.098 2.01,0.234 3.12,0.43 v -12.961 c -2.73,-0.781 -4.81,-1.27 -6.24,-1.465 -1.43,-0.195 -3.38,-0.293 -5.84,-0.293 -6.05,0 -10.43,2.148 -13.16,6.437 -1.43,2.274 -2.44,5.489 -3.03,9.649 -3.57,-4.68 -8.7,-8.742 -15.4,-12.18 -6.69,-3.445 -14.06,-5.164 -22.12,-5.164 -9.68,0 -17.59,2.938 -23.74,8.809 -6.13,5.867 -9.21,13.222 -9.21,22.051 0,9.668 3.03,17.156 9.07,22.48 6.04,5.32 13.97,8.602 23.78,9.832 l 27.98,3.508" /><path
         id="path152"
         style="fill:#231f20;fill-opacity:1;fill-rule:nonzero;stroke:none"
         d="m 1720.03,386.695 h 17.74 v -29.14 h 16.67 v -14.332 h -16.67 v -68.125 c 0,-3.641 1.23,-6.082 3.7,-7.313 1.37,-0.715 3.64,-1.074 6.83,-1.074 0.84,0 1.75,0.027 2.73,0.066 0.97,0.039 2.11,0.149 3.41,0.325 v -13.938 c -2.02,-0.586 -4.11,-1.004 -6.29,-1.269 -2.18,-0.254 -4.53,-0.391 -7.07,-0.391 -8.18,0 -13.74,2.101 -16.66,6.289 -2.93,4.191 -4.39,9.629 -4.39,16.328 v 69.102 h -14.13 v 14.332 h 14.13 v 29.14" /><path
         id="path154"
         style="fill:#231f20;fill-opacity:1;fill-rule:nonzero;stroke:none"
         d="m 1771.98,357.066 h 17.84 V 253.164 h -17.84 z m 0,39.282 h 17.84 v -19.887 h -17.84 v 19.887" /><path
         id="path156"
         style="fill:#231f20;fill-opacity:1;fill-rule:nonzero;stroke:none"
         d="m 1881.07,277.754 c 4.27,8.801 6.41,18.586 6.41,29.355 0,9.739 -1.54,17.653 -4.63,23.754 -4.88,9.606 -13.3,14.41 -25.25,14.41 -10.6,0 -18.31,-4.089 -23.13,-12.269 -4.82,-8.18 -7.22,-18.043 -7.22,-29.594 0,-11.094 2.4,-20.344 7.22,-27.746 4.82,-7.391 12.46,-11.094 22.94,-11.094 11.5,0 19.39,4.395 23.66,13.184 z m 10.89,69.379 c 9.23,-8.957 13.85,-22.137 13.85,-39.535 0,-16.817 -4.07,-30.711 -12.2,-41.68 -8.13,-10.977 -20.74,-16.453 -37.84,-16.453 -14.27,0 -25.59,4.851 -33.98,14.551 -8.39,9.707 -12.58,22.742 -12.58,39.101 0,17.528 4.42,31.488 13.26,41.879 8.84,10.387 20.71,15.582 35.62,15.582 13.36,0 24.64,-4.484 33.87,-13.445" /><path
         id="path158"
         style="fill:#231f20;fill-opacity:1;fill-rule:nonzero;stroke:none"
         d="m 1927.34,357.555 h 16.67 v -14.817 c 4.94,6.106 10.17,10.496 15.69,13.157 5.52,2.664 11.67,4 18.43,4 14.81,0 24.81,-5.168 30.01,-15.5 2.86,-5.653 4.29,-13.747 4.29,-24.266 v -66.965 h -17.84 v 65.793 c 0,6.367 -0.94,11.504 -2.82,15.398 -3.12,6.5 -8.77,9.747 -16.96,9.747 -4.16,0 -7.57,-0.426 -10.23,-1.266 -4.81,-1.43 -9.04,-4.289 -12.68,-8.578 -2.92,-3.442 -4.82,-7 -5.7,-10.672 -0.87,-3.672 -1.31,-8.918 -1.31,-15.742 v -54.68 h -17.55 v 104.391" /><path
         id="path160"
         style="fill:#231f20;fill-opacity:1;fill-rule:nonzero;stroke:none"
         d="m 2042.06,232.695 c 4.48,0.782 7.64,3.957 9.46,9.504 0.97,2.938 1.46,5.781 1.46,8.516 0,0.457 -0.01,0.867 -0.05,1.23 -0.04,0.352 -0.12,0.762 -0.24,1.219 h -10.63 v 21.25 h 20.86 v -19.687 c 0,-7.735 -1.55,-14.52 -4.68,-20.372 -3.12,-5.847 -8.51,-9.453 -16.18,-10.82 v 9.16" /><path
         id="path162"
         style="fill:#231f20;fill-opacity:1;fill-rule:nonzero;stroke:none"
         d="m 2216.95,330.746 c 8.85,0 15.84,1.824 21,5.461 5.16,3.637 7.71,10.199 7.71,19.688 0,10.203 -3.59,17.156 -10.8,20.859 -3.84,1.949 -9,2.926 -15.45,2.926 h -46.05 v -48.934 z m -62.99,65.602 h 65.08 c 10.73,0 19.55,-1.598 26.51,-4.782 13.2,-6.105 19.82,-17.382 19.82,-33.816 0,-8.578 -1.78,-15.598 -5.31,-21.055 -3.56,-5.461 -8.5,-9.843 -14.86,-13.16 5.58,-2.273 9.78,-5.262 12.61,-8.965 2.83,-3.699 4.4,-9.715 4.73,-18.035 l 0.68,-19.199 c 0.2,-5.461 0.65,-9.523 1.37,-12.18 1.15,-4.551 3.24,-7.48 6.23,-8.777 v -3.215 h -23.79 c -0.64,1.231 -1.17,2.824 -1.56,4.777 -0.37,1.954 -0.7,5.711 -0.96,11.305 l -1.17,23.879 c -0.45,9.355 -3.83,15.625 -10.14,18.809 -3.59,1.757 -9.25,2.636 -16.95,2.636 h -42.89 v -61.406 h -19.4 v 143.184" /><path
         id="path164"
         style="fill:#231f20;fill-opacity:1;fill-rule:nonzero;stroke:none"
         d="m 2357.19,399.563 -26.04,-28.172 h -13.44 l 17.84,28.172 z m 7.01,-85.872 c -0.7,7.602 -2.34,13.676 -4.92,18.227 -4.79,8.449 -12.74,12.672 -23.89,12.672 -7.99,0 -14.69,-2.91 -20.1,-8.727 -5.41,-5.812 -8.28,-13.203 -8.59,-22.172 z m -6.29,40.989 c 6.91,-3.477 12.19,-7.981 15.8,-13.504 3.48,-5.262 5.8,-11.399 6.97,-18.418 1.04,-4.809 1.55,-12.473 1.55,-23 h -75.92 c 0.31,-10.625 2.79,-19.141 7.44,-25.559 4.65,-6.426 11.84,-9.629 21.56,-9.629 9.1,0 16.35,3.039 21.76,9.102 3.03,3.527 5.18,7.609 6.45,12.246 h 17.24 c -0.45,-3.836 -1.95,-8.113 -4.53,-12.82 -2.56,-4.707 -5.43,-8.567 -8.57,-11.555 -5.3,-5.195 -11.84,-8.699 -19.65,-10.527 -4.2,-1.036 -8.93,-1.551 -14.22,-1.551 -12.91,0 -23.87,4.726 -32.83,14.18 -8.99,9.453 -13.46,22.695 -13.46,39.714 0,16.77 4.51,30.375 13.55,40.84 9.05,10.465 20.86,15.696 35.45,15.696 7.37,0 14.5,-1.739 21.41,-5.215" /><path
         id="path166"
         style="fill:#231f20;fill-opacity:1;fill-rule:nonzero;stroke:none"
         d="m 2412.64,389.426 c 4.1,5.976 11.99,8.969 23.69,8.969 1.09,0 2.24,-0.036 3.42,-0.098 1.15,-0.07 2.5,-0.168 3.98,-0.293 v -15.988 c -1.84,0.132 -3.16,0.211 -3.98,0.246 -0.82,0.035 -1.61,0.047 -2.33,0.047 -5.39,0 -8.61,-1.379 -9.65,-4.141 -1.05,-2.762 -1.58,-9.793 -1.58,-21.102 h 17.54 v -13.843 h -17.54 v -90.059 h -17.34 v 90.059 h -14.53 v 13.843 h 14.53 v 16.375 c 0.25,7.278 1.52,12.606 3.79,15.985" /><path
         id="path168"
         style="fill:#231f20;fill-opacity:1;fill-rule:nonzero;stroke:none"
         d="m 2477.46,357.555 v -69.301 c 0,-5.332 0.82,-9.68 2.46,-13.059 3.05,-6.238 8.71,-9.355 16.99,-9.355 11.9,0 20,5.449 24.3,16.367 2.34,5.852 3.52,13.879 3.52,24.082 v 51.266 h 17.54 V 253.164 h -16.57 l 0.2,15.402 c -2.23,-3.964 -5,-7.316 -8.32,-10.039 -6.56,-5.461 -14.55,-8.183 -23.91,-8.183 -14.61,0 -24.55,4.969 -29.84,14.91 -2.87,5.324 -4.3,12.441 -4.3,21.34 v 70.961 h 17.93" /><path
         id="path170"
         style="fill:#231f20;fill-opacity:1;fill-rule:nonzero;stroke:none"
         d="m 2631.11,334.551 c -5.31,6.234 -12.07,9.355 -20.27,9.355 -12.29,0 -20.68,-5.781 -25.21,-17.347 -2.39,-6.168 -3.6,-14.262 -3.6,-24.274 0,-11.758 2.38,-20.711 7.13,-26.844 4.77,-6.144 11.13,-9.218 19.16,-9.218 12.54,0 21.37,5.691 26.47,17.058 2.85,6.438 4.27,13.938 4.27,22.52 0,12.929 -2.65,22.512 -7.95,28.75 z m -2.15,18.808 c 3.31,-2.269 6.67,-5.586 10.1,-9.941 v 13.16 h 16.17 v -94.937 c 0,-13.25 -1.93,-23.711 -5.82,-31.375 -7.26,-14.172 -20.95,-21.25 -41.09,-21.25 -11.21,0 -20.62,2.519 -28.26,7.547 -7.66,5.039 -11.93,12.921 -12.83,23.644 h 17.83 c 0.84,-4.687 2.52,-8.293 5.04,-10.82 3.94,-3.907 10.15,-5.852 18.61,-5.852 13.38,0 22.13,4.746 26.27,14.231 2.46,5.586 3.59,15.566 3.4,29.922 -3.5,-5.333 -7.7,-9.29 -12.62,-11.899 -4.92,-2.594 -11.42,-3.894 -19.53,-3.894 -11.25,0 -21.11,4.015 -29.55,12.043 -8.46,8.027 -12.68,21.296 -12.68,39.812 0,17.48 4.26,31.125 12.78,40.938 8.51,9.808 18.79,14.718 30.82,14.718 8.16,0 15.27,-2.019 21.36,-6.047" /><path
         id="path172"
         style="fill:#231f20;fill-opacity:1;fill-rule:nonzero;stroke:none"
         d="m 2681.93,357.066 h 17.86 V 253.164 h -17.86 z m 0,39.282 h 17.86 v -19.887 h -17.86 v 19.887" /><path
         id="path174"
         style="fill:#231f20;fill-opacity:1;fill-rule:nonzero;stroke:none"
         d="M 2790.04,399.563 2764,371.391 h -13.43 l 17.83,28.172 z m 7.01,-85.872 c -0.7,7.602 -2.34,13.676 -4.92,18.227 -4.79,8.449 -12.74,12.672 -23.89,12.672 -7.99,0 -14.69,-2.91 -20.1,-8.727 -5.41,-5.812 -8.28,-13.203 -8.59,-22.172 z m -6.29,40.989 c 6.92,-3.477 12.19,-7.981 15.8,-13.504 3.48,-5.262 5.8,-11.399 6.98,-18.418 1.03,-4.809 1.54,-12.473 1.54,-23 h -75.92 c 0.31,-10.625 2.79,-19.141 7.44,-25.559 4.65,-6.426 11.84,-9.629 21.56,-9.629 9.11,0 16.35,3.039 21.76,9.102 3.03,3.527 5.18,7.609 6.45,12.246 h 17.24 c -0.45,-3.836 -1.95,-8.113 -4.53,-12.82 -2.56,-4.707 -5.43,-8.567 -8.57,-11.555 -5.3,-5.195 -11.84,-8.699 -19.65,-10.527 -4.2,-1.036 -8.93,-1.551 -14.22,-1.551 -12.91,0 -23.87,4.726 -32.83,14.18 -8.99,9.453 -13.46,22.695 -13.46,39.714 0,16.77 4.51,30.375 13.56,40.84 9.04,10.465 20.86,15.696 35.45,15.696 7.36,0 14.49,-1.739 21.4,-5.215" /><path
         id="path176"
         style="fill:#231f20;fill-opacity:1;fill-rule:nonzero;stroke:none"
         d="m 2847.73,285.918 c 0.53,-5.848 2.02,-10.332 4.48,-13.457 4.51,-5.652 12.34,-8.477 23.47,-8.477 6.64,0 12.46,1.418 17.52,4.239 5.04,2.824 7.56,7.199 7.56,13.105 0,4.492 -2.01,7.902 -6.05,10.235 -2.58,1.433 -7.66,3.085 -15.26,4.972 l -14.16,3.516 c -9.04,2.207 -15.72,4.676 -20,7.402 -7.67,4.746 -11.5,11.309 -11.5,19.692 0,9.871 3.61,17.867 10.82,23.972 7.21,6.11 16.91,9.168 29.1,9.168 15.92,0 27.42,-4.617 34.45,-13.844 4.42,-5.843 6.57,-12.148 6.43,-18.906 h -16.56 c -0.33,3.942 -1.76,7.524 -4.3,10.758 -4.12,4.59 -11.27,6.883 -21.44,6.883 -6.78,0 -11.92,-1.266 -15.41,-3.789 -3.5,-2.524 -5.24,-5.86 -5.24,-10.004 0,-4.531 2.29,-8.156 6.88,-10.875 2.65,-1.621 6.56,-3.047 11.71,-4.278 l 11.82,-2.832 c 12.85,-3.054 21.45,-6.003 25.82,-8.867 6.82,-4.48 10.24,-11.535 10.24,-21.152 0,-9.297 -3.58,-17.313 -10.71,-24.07 -7.15,-6.758 -18.01,-10.137 -32.61,-10.137 -15.73,0 -26.86,3.523 -33.4,10.574 -6.55,7.051 -10.06,15.774 -10.51,26.172 h 16.85" /></g></g></svg>