<?xml version="1.0" encoding="UTF-8"?>
<!DOCTYPE svg PUBLIC "-//W3C//DTD SVG 1.1//EN" "http://www.w3.org/Graphics/SVG/1.1/DTD/svg11.dtd">
<svg xmlns="http://www.w3.org/2000/svg" version="1.1" width="1366px" height="100px" style="shape-rendering:geometricPrecision; text-rendering:geometricPrecision; image-rendering:optimizeQuality; fill-rule:evenodd; clip-rule:evenodd" xmlns:xlink="http://www.w3.org/1999/xlink">
<g><path style="opacity:0.957" fill="#ee293d" d="M 2.5,-0.5 C 18.1667,-0.5 33.8333,-0.5 49.5,-0.5C 49.5,29.8333 49.5,60.1667 49.5,90.5C 33.8333,90.5 18.1667,90.5 2.5,90.5C 2.5,60.1667 2.5,29.8333 2.5,-0.5 Z"/></g>
<g><path style="opacity:0.751" fill="#221d1e" d="M 543.5,-0.5 C 551.5,-0.5 559.5,-0.5 567.5,-0.5C 573.925,2.36917 576.091,7.36917 574,14.5C 573.365,15.9663 572.531,17.2997 571.5,18.5C 574.535,22.4417 575.202,26.7751 573.5,31.5C 575.171,33.5098 575.838,35.8431 575.5,38.5C 572.5,38.5 569.5,38.5 566.5,38.5C 566.666,33.8215 566.499,29.1548 566,24.5C 565.333,23.8333 564.667,23.1667 564,22.5C 560,23.8333 556,23.8333 552,22.5C 551.501,27.8229 551.334,33.1563 551.5,38.5C 548.881,38.7683 546.381,38.435 544,37.5C 543.5,24.8377 543.333,12.1711 543.5,-0.5 Z M 551.5,5.5 C 555.667,6.80315 559.834,6.80315 564,5.5C 566.203,7.66878 567.036,10.3354 566.5,13.5C 565.448,13.3505 564.448,13.5172 563.5,14C 563.833,14.3333 564.167,14.6667 564.5,15C 560.179,15.499 555.846,15.6657 551.5,15.5C 551.5,12.1667 551.5,8.83333 551.5,5.5 Z"/></g>
<g><path style="opacity:0.761" fill="#231e20" d="M 1143.5,-0.5 C 1151.17,-0.5 1158.83,-0.5 1166.5,-0.5C 1169.22,0.296347 1171.39,1.96301 1173,4.5C 1173.67,8.16667 1173.67,11.8333 1173,15.5C 1172.36,16.646 1171.52,17.646 1170.5,18.5C 1171.73,19.5904 1172.56,20.9238 1173,22.5C 1173.24,27.9688 1174.08,33.3021 1175.5,38.5C 1172.5,38.5 1169.5,38.5 1166.5,38.5C 1166.67,35.1501 1166.5,31.8168 1166,28.5C 1165.67,28.8333 1165.33,29.1667 1165,29.5C 1164.67,27.1667 1164.33,24.8333 1164,22.5C 1160,23.8333 1156,23.8333 1152,22.5C 1151.5,27.8229 1151.33,33.1563 1151.5,38.5C 1148.83,38.5 1146.17,38.5 1143.5,38.5C 1143.5,25.5 1143.5,12.5 1143.5,-0.5 Z M 1151.5,5.5 C 1156.24,5.81422 1160.74,6.81422 1165,8.5C 1165.33,8.16667 1165.67,7.83333 1166,7.5C 1166.5,9.4727 1166.66,11.4727 1166.5,13.5C 1161.68,15.1353 1156.68,15.802 1151.5,15.5C 1151.5,12.1667 1151.5,8.83333 1151.5,5.5 Z"/></g>
<g><path style="opacity:0.925" fill="#221f1f" d="M 1296.5,-0.5 C 1299.17,-0.5 1301.83,-0.5 1304.5,-0.5C 1303.28,2.72353 1301.28,5.39019 1298.5,7.5C 1296.5,7.5 1294.5,7.5 1292.5,7.5C 1292.34,6.12656 1292.51,4.79323 1293,3.5C 1293.33,3.83333 1293.67,4.16667 1294,4.5C 1294.33,2.4971 1295.17,0.830431 1296.5,-0.5 Z"/></g>
<g><path style="opacity:0.729" fill="#221e1f" d="M 949.5,-0.5 C 952.5,-0.5 955.5,-0.5 958.5,-0.5C 958.5,1.83333 958.5,4.16667 958.5,6.5C 955.5,6.5 952.5,6.5 949.5,6.5C 949.5,4.16667 949.5,1.83333 949.5,-0.5 Z"/></g>
<g><path style="opacity:0.693" fill="#231d20" d="M 1047.5,-0.5 C 1050.17,-0.5 1052.83,-0.5 1055.5,-0.5C 1055.5,1.83333 1055.5,4.16667 1055.5,6.5C 1052.83,6.5 1050.17,6.5 1047.5,6.5C 1047.5,4.16667 1047.5,1.83333 1047.5,-0.5 Z"/></g>
<g><path style="opacity:0.717" fill="#231f20" d="M 255.5,-0.5 C 258.5,-0.5 261.5,-0.5 264.5,-0.5C 264.667,12.1711 264.5,24.8377 264,37.5C 261.281,38.4438 258.448,38.7771 255.5,38.5C 255.5,25.5 255.5,12.5 255.5,-0.5 Z"/></g>
<g><path style="opacity:0.579" fill="#221e1f" d="M 447.5,-0.5 C 450.167,-0.5 452.833,-0.5 455.5,-0.5C 455.5,1.83333 455.5,4.16667 455.5,6.5C 452.833,6.5 450.167,6.5 447.5,6.5C 447.5,4.16667 447.5,1.83333 447.5,-0.5 Z"/></g>
<g><path style="opacity:0.829" fill="#221e1f" d="M 855.5,-0.5 C 857.833,-0.5 860.167,-0.5 862.5,-0.5C 862.5,12.5 862.5,25.5 862.5,38.5C 860.167,38.5 857.833,38.5 855.5,38.5C 855.5,25.5 855.5,12.5 855.5,-0.5 Z"/></g>
<g><path style="opacity:0.004" fill="#000000" d="M 1196.5,2.5 C 1197.83,3.16667 1197.83,3.16667 1196.5,2.5 Z"/></g>
<g><path style="opacity:1" fill="#ee293d" d="M 134.5,-0.5 C 150.833,-0.5 167.167,-0.5 183.5,-0.5C 183.5,29.8333 183.5,60.1667 183.5,90.5C 167.167,90.5 150.833,90.5 134.5,90.5C 134.5,60.1667 134.5,29.8333 134.5,-0.5 Z"/></g>
<g><path style="opacity:1" fill="#231f20" d="M 351.5,-0.5 C 353.833,-0.5 356.167,-0.5 358.5,-0.5C 358.5,1.83333 358.5,4.16667 358.5,6.5C 356.167,6.5 353.833,6.5 351.5,6.5C 351.5,4.16667 351.5,1.83333 351.5,-0.5 Z"/></g>
<g><path style="opacity:0.369" fill="#221e1e" d="M 1187.5,-0.5 C 1190.5,-0.5 1193.5,-0.5 1196.5,-0.5C 1194.91,2.43092 1192.91,5.09759 1190.5,7.5C 1188.4,7.7989 1186.4,7.46557 1184.5,6.5C 1185.71,4.20616 1186.71,1.87282 1187.5,-0.5 Z"/></g>
<g><path style="opacity:0.799" fill="#221e1f" d="M 434.5,0.5 C 437.187,0.33591 439.854,0.502577 442.5,1C 443.293,3.43243 443.626,5.76576 443.5,8C 447.486,8.49885 451.486,8.66551 455.5,8.5C 455.5,18.5 455.5,28.5 455.5,38.5C 449.57,37.9339 443.57,37.7672 437.5,38C 437.833,37.6667 438.167,37.3333 438.5,37C 436.981,35.7817 435.814,34.2817 435,32.5C 434.83,26.8042 434.33,21.1376 433.5,15.5C 431.792,13.7292 430.959,11.7292 431,9.5C 431.333,10.1667 431.667,10.8333 432,11.5C 433.935,8.09303 434.768,4.42637 434.5,0.5 Z M 446.5,13.5 C 447.653,19.6529 447.82,25.9863 447,32.5C 445.902,31.0325 444.402,30.1992 442.5,30C 443.833,25.3333 443.833,20.6667 442.5,16C 444.437,15.8784 445.77,15.045 446.5,13.5 Z"/></g>
<g><path style="opacity:0.004" fill="#000000" d="M 1194.5,4.5 C 1195.83,5.16667 1195.83,5.16667 1194.5,4.5 Z"/></g>
<g><path style="opacity:0.467" fill="#221e1f" d="M 1275.5,-0.5 C 1278.17,-0.5 1280.83,-0.5 1283.5,-0.5C 1283.5,1.83333 1283.5,4.16667 1283.5,6.5C 1280.83,6.5 1278.17,6.5 1275.5,6.5C 1275.5,4.16667 1275.5,1.83333 1275.5,-0.5 Z"/></g>
<g><path style="opacity:0.727" fill="#221e1f" d="M 1045.5,38.5 C 1042.5,38.5 1039.5,38.5 1036.5,38.5C 1034.65,31.0534 1033.98,23.3868 1034.5,15.5C 1033.17,15.5 1031.83,15.5 1030.5,15.5C 1030.5,13.1667 1030.5,10.8333 1030.5,8.5C 1031.83,8.5 1033.17,8.5 1034.5,8.5C 1034.5,5.83333 1034.5,3.16667 1034.5,0.5C 1036.83,0.5 1039.17,0.5 1041.5,0.5C 1041.5,3.16667 1041.5,5.83333 1041.5,8.5C 1042.83,8.5 1044.17,8.5 1045.5,8.5C 1045.5,10.8333 1045.5,13.1667 1045.5,15.5C 1044.17,15.5 1042.83,15.5 1041.5,15.5C 1041.5,20.5 1041.5,25.5 1041.5,30.5C 1042.83,30.5 1044.17,30.5 1045.5,30.5C 1045.5,33.1667 1045.5,35.8333 1045.5,38.5 Z"/></g>
<g><path style="opacity:0.004" fill="#000000" d="M 351.5,6.5 C 350.833,7.16667 350.833,7.16667 351.5,6.5 Z"/></g>
<g><path style="opacity:0.004" fill="#000000" d="M 619.5,6.5 C 620.833,7.16667 620.833,7.16667 619.5,6.5 Z"/></g>
<g><path style="opacity:0.004" fill="#000000" d="M 1047.5,6.5 C 1046.83,7.16667 1046.83,7.16667 1047.5,6.5 Z"/></g>
<g><path style="opacity:0.004" fill="#000000" d="M 1055.5,6.5 C 1056.83,7.16667 1056.83,7.16667 1055.5,6.5 Z"/></g>
<g><path style="opacity:0.004" fill="#000000" d="M 1275.5,6.5 C 1274.83,7.16667 1274.83,7.16667 1275.5,6.5 Z"/></g>
<g><path style="opacity:0.761" fill="#211d1e" d="M 610.5,-0.5 C 613.5,-0.5 616.5,-0.5 619.5,-0.5C 619.662,1.5273 619.495,3.5273 619,5.5C 618,6.83333 617,6.83333 616,5.5C 615.517,6.44802 615.351,7.44802 615.5,8.5C 616.833,8.5 618.167,8.5 619.5,8.5C 619.5,10.5 619.5,12.5 619.5,14.5C 618.292,15.2341 616.959,15.5674 615.5,15.5C 615.5,23.1667 615.5,30.8333 615.5,38.5C 612.606,38.9577 610.106,38.291 608,36.5C 607.205,29.7823 607.372,23.1157 608.5,16.5C 607.311,15.5713 605.978,15.238 604.5,15.5C 604.5,13.1667 604.5,10.8333 604.5,8.5C 606.103,8.68819 607.437,8.18819 608.5,7C 606.84,3.77734 607.506,1.27734 610.5,-0.5 Z"/></g>
<g><path style="opacity:0.004" fill="#000000" d="M 304.5,8.5 C 305.833,9.16667 305.833,9.16667 304.5,8.5 Z"/></g>
<g><path style="opacity:0.763" fill="#221e1f" d="M 320.5,7.5 C 324.077,7.20509 327.243,8.20509 330,10.5C 336.218,6.04865 341.718,6.71532 346.5,12.5C 347.498,21.1411 347.831,29.8078 347.5,38.5C 345.167,38.5 342.833,38.5 340.5,38.5C 340.5,30.8333 340.5,23.1667 340.5,15.5C 337.881,15.2317 335.381,15.565 333,16.5C 332.5,23.8258 332.334,31.1591 332.5,38.5C 329.881,38.7683 327.381,38.435 325,37.5C 324.5,30.1742 324.334,22.8409 324.5,15.5C 322.208,15.2436 320.041,15.5769 318,16.5C 317.667,23.5 317.333,30.5 317,37.5C 314.936,38.5914 312.769,38.7581 310.5,38C 309.514,28.2496 309.181,18.4163 309.5,8.5C 312.249,8.27391 314.916,8.60724 317.5,9.5C 318.739,9.05758 319.739,8.39092 320.5,7.5 Z"/></g>
<g><path style="opacity:0.004" fill="#000000" d="M 345.5,8.5 C 346.833,9.16667 346.833,9.16667 345.5,8.5 Z"/></g>
<g><path style="opacity:0.004" fill="#000000" d="M 363.5,8.5 C 364.833,9.16667 364.833,9.16667 363.5,8.5 Z"/></g>
<g><path style="opacity:0.755" fill="#231e20" d="M 619.5,14.5 C 620.461,12.7354 620.795,10.7354 620.5,8.5C 623.167,8.5 625.833,8.5 628.5,8.5C 628.5,15.8333 628.5,23.1667 628.5,30.5C 631.365,30.9452 633.865,30.2785 636,28.5C 636.5,21.8417 636.666,15.175 636.5,8.5C 638.833,8.5 641.167,8.5 643.5,8.5C 643.5,18.5 643.5,28.5 643.5,38.5C 640.856,38.8399 638.523,38.1733 636.5,36.5C 632.749,38.4971 628.749,38.9971 624.5,38C 624.833,37.6667 625.167,37.3333 625.5,37C 624.376,36.7508 623.376,36.2508 622.5,35.5C 619.85,28.8299 618.85,21.8299 619.5,14.5 Z"/></g>
<g><path style="opacity:0.786" fill="#221e1f" d="M 647.5,38.5 C 649.833,38.5 652.167,38.5 654.5,38.5C 653.77,36.955 652.437,36.1216 650.5,36C 650.833,35.6667 651.167,35.3333 651.5,35C 643.494,27.8753 643.494,19.7086 651.5,10.5C 655.616,7.05129 659.949,6.71795 664.5,9.5C 667.084,8.60724 669.751,8.27391 672.5,8.5C 672.998,20.9512 672.331,33.2845 670.5,45.5C 666.876,46.8145 663.21,48.1479 659.5,49.5C 655.198,48.5838 651.531,46.5838 648.5,43.5C 647.548,41.9547 647.215,40.288 647.5,38.5 Z M 656.5,15.5 C 662.819,14.216 665.486,16.716 664.5,23C 664.4,25.3023 663.733,27.3023 662.5,29C 662.833,29.3333 663.167,29.6667 663.5,30C 660.854,30.4974 658.187,30.6641 655.5,30.5C 655.221,25.4053 655.555,20.4053 656.5,15.5 Z M 654.5,38.5 C 658.03,39.0111 661.196,38.3444 664,36.5C 664.51,38.8293 663.844,40.8293 662,42.5C 660.667,41.1667 659.333,41.1667 658,42.5C 656.28,41.6159 655.114,40.2825 654.5,38.5 Z"/></g>
<g><path style="opacity:0.781" fill="#221e1f" d="M 753.5,11.5 C 753.5,14.1667 753.5,16.8333 753.5,19.5C 751.5,19.5 749.5,19.5 747.5,19.5C 748.574,21.2155 750.241,22.2155 752.5,22.5C 756.427,26.0149 756.427,30.3482 752.5,35.5C 746.866,38.3518 740.866,39.1851 734.5,38C 734.833,37.6667 735.167,37.3333 735.5,37C 734.552,36.5172 733.552,36.3505 732.5,36.5C 732.869,34.0065 732.203,33.3398 730.5,34.5C 730.5,31.8333 730.5,29.1667 730.5,26.5C 732.857,26.3367 735.19,26.5034 737.5,27C 738.833,28 738.833,29 737.5,30C 738.833,30.3333 740.167,30.6667 741.5,31C 741.167,31.3333 740.833,31.6667 740.5,32C 741.833,32.6667 743.167,32.6667 744.5,32C 744.167,31.6667 743.833,31.3333 743.5,31C 747.483,30.77 748.149,29.4366 745.5,27C 743.5,26.6667 741.5,26.3333 739.5,26C 736.518,25.0847 733.852,23.5847 731.5,21.5C 730.345,18.5541 730.179,15.5541 731,12.5C 731.333,12.8333 731.667,13.1667 732,13.5C 736.14,7.53011 741.64,6.03011 748.5,9C 750.081,10.9188 751.748,11.7521 753.5,11.5 Z M 747.5,19.5 C 743.769,19.8149 740.435,18.8149 737.5,16.5C 740.446,15.3452 743.446,15.1786 746.5,16C 746.167,16.3333 745.833,16.6667 745.5,17C 746.381,17.7083 747.047,18.5416 747.5,19.5 Z"/></g>
<g><path style="opacity:0.004" fill="#000000" d="M 751.5,8.5 C 752.833,9.16667 752.833,9.16667 751.5,8.5 Z"/></g>
<g><path style="opacity:0.664" fill="#211d1e" d="M 920.5,7.5 C 923.972,7.12617 926.972,8.12617 929.5,10.5C 936.904,5.55578 942.571,6.88911 946.5,14.5C 947.498,22.4723 947.831,30.4723 947.5,38.5C 944.881,38.7683 942.381,38.435 940,37.5C 939.667,30.5 939.333,23.5 939,16.5C 936.959,15.5769 934.792,15.2436 932.5,15.5C 932.666,22.8409 932.5,30.1742 932,37.5C 929.619,38.435 927.119,38.7683 924.5,38.5C 923.602,30.8756 923.269,23.2089 923.5,15.5C 921.5,15.5 919.5,15.5 917.5,15.5C 917.666,22.5079 917.5,29.5079 917,36.5C 916.667,31.5 916.333,26.5 916,21.5C 915.501,27.1569 915.334,32.8236 915.5,38.5C 913.167,38.5 910.833,38.5 908.5,38.5C 907.415,29.2011 907.248,19.8678 908,10.5C 910.667,7.83333 913.333,7.83333 916,10.5C 917.409,9.21886 918.909,8.21886 920.5,7.5 Z"/></g>
<g><path style="opacity:0.004" fill="#000000" d="M 964.5,9.5 C 963.833,8.16667 963.833,8.16667 964.5,9.5 Z"/></g>
<g><path style="opacity:0.004" fill="#000000" d="M 1181.5,9.5 C 1180.83,8.16667 1180.83,8.16667 1181.5,9.5 Z"/></g>
<g><path style="opacity:0.683" fill="#221d1f" d="M 1209.5,-0.5 C 1212.83,-0.5 1216.17,-0.5 1219.5,-0.5C 1219.66,1.5273 1219.5,3.5273 1219,5.5C 1213.23,6.01362 1213.23,7.34696 1219,9.5C 1221.38,8.565 1223.88,8.23166 1226.5,8.5C 1226.33,15.5079 1226.5,22.5079 1227,29.5C 1229.38,30.435 1231.88,30.7683 1234.5,30.5C 1236.34,23.3888 1237.01,16.0555 1236.5,8.5C 1238.83,8.5 1241.17,8.5 1243.5,8.5C 1243.5,18.5 1243.5,28.5 1243.5,38.5C 1240.53,38.8897 1237.87,38.223 1235.5,36.5C 1234.3,36.8457 1234.3,37.3457 1235.5,38C 1231.5,38.6667 1227.5,38.6667 1223.5,38C 1223.83,37.6667 1224.17,37.3333 1224.5,37C 1223.55,36.5172 1222.55,36.3505 1221.5,36.5C 1220.19,27.5646 1219.19,20.5646 1218.5,15.5C 1216.71,15.2148 1215.05,15.5481 1213.5,16.5C 1214.74,19.6382 1215.41,22.9716 1215.5,26.5C 1215.27,30.6313 1214.6,34.6313 1213.5,38.5C 1211.21,38.7564 1209.04,38.4231 1207,37.5C 1206.5,30.1742 1206.33,22.8409 1206.5,15.5C 1204.8,15.4729 1203.47,14.8062 1202.5,13.5C 1202.5,11.8333 1202.5,10.1667 1202.5,8.5C 1203.83,8.5 1205.17,8.5 1206.5,8.5C 1206.52,5.12089 1207.52,2.12089 1209.5,-0.5 Z"/></g>
<g><path style="opacity:0.625" fill="#221f20" d="M 1247.5,34.5 C 1245.56,28.6094 1245.23,22.6094 1246.5,16.5C 1250.3,8.73847 1256.13,6.40513 1264,9.5C 1266.45,8.50712 1268.95,8.34045 1271.5,9C 1272.82,19.1058 1272.82,29.2725 1271.5,39.5C 1265.87,49.4915 1258.2,51.4915 1248.5,45.5C 1247.87,42.2586 1246.87,39.9252 1245.5,38.5C 1254.66,38.8199 1255.32,37.4865 1247.5,34.5 Z M 1254.5,18.5 C 1256.39,15.9006 1259.05,14.9006 1262.5,15.5C 1263.37,17.8967 1264.03,20.3967 1264.5,23C 1264.03,25.6033 1263.37,28.1033 1262.5,30.5C 1259.81,30.6641 1257.15,30.4974 1254.5,30C 1253.44,26.3587 1253.44,22.5253 1254.5,18.5 Z M 1262.5,36.5 C 1263.5,36.4701 1264.16,36.9701 1264.5,38C 1261.67,43.4898 1258.33,43.8231 1254.5,39C 1257.68,39.0533 1260.34,38.22 1262.5,36.5 Z"/></g>
<g><path style="opacity:0.004" fill="#000000" d="M 1314.5,8.5 C 1315.83,9.16667 1315.83,9.16667 1314.5,8.5 Z"/></g>
<g><path style="opacity:0.004" fill="#000000" d="M 1334.5,8.5 C 1335.83,9.16667 1335.83,9.16667 1334.5,8.5 Z"/></g>
<g><path style="opacity:0.779" fill="#221e1f" d="M 498.5,7.5 C 503.927,6.87994 507.927,8.87994 510.5,13.5C 511.498,21.8068 511.831,30.1401 511.5,38.5C 509.167,38.5 506.833,38.5 504.5,38.5C 504.666,31.4921 504.5,24.4921 504,17.5C 501.197,14.8975 498.364,14.8975 495.5,17.5C 494.503,24.4684 494.17,31.4684 494.5,38.5C 492.167,38.5 489.833,38.5 487.5,38.5C 487.5,28.5 487.5,18.5 487.5,8.5C 490.249,8.27391 492.916,8.60724 495.5,9.5C 496.739,9.05758 497.739,8.39092 498.5,7.5 Z"/></g>
<g><path style="opacity:0.93" fill="#ee293d" d="M 115.5,26.5 C 115.498,28.8309 116.331,30.8309 118,32.5C 120.456,30.6787 123.289,30.012 126.5,30.5C 126.739,33.9145 126.072,37.0812 124.5,40C 124.933,41.928 125.6,43.7613 126.5,45.5C 122.176,50.6572 117.342,55.3238 112,59.5C 111.922,62.5696 112.422,65.5696 113.5,68.5C 107.15,67.963 100.817,67.2963 94.5,66.5C 94.313,72.2124 94.6463,77.8791 95.5,83.5C 93.5,83.5 91.5,83.5 89.5,83.5C 89.5,77.8333 89.5,72.1667 89.5,66.5C 83.9247,67.8203 77.5914,68.6536 70.5,69C 72.3933,66.0828 72.8933,62.9162 72,59.5C 66.6578,55.3238 61.8245,50.6572 57.5,45.5C 57.7189,44.062 58.2189,42.7287 59,41.5C 59.6543,42.6956 60.1543,42.6956 60.5,41.5C 58.3671,38.1819 57.3671,34.5152 57.5,30.5C 60.7107,30.012 63.544,30.6787 66,32.5C 67.669,30.8309 68.5023,28.8309 68.5,26.5C 73.1941,27.3327 76.6941,29.9993 79,34.5C 79.6667,32.5 79.6667,30.5 79,28.5C 78.6667,29.1667 78.3333,29.8333 78,30.5C 77.4828,25.4184 76.6494,20.4184 75.5,15.5C 78.3609,15.3416 81.0276,16.0083 83.5,17.5C 86.2528,15.9111 88.0862,13.5778 89,10.5C 89.49,9.20677 89.6567,7.87344 89.5,6.5C 91.1667,6.5 92.8333,6.5 94.5,6.5C 95.5536,10.2729 96.887,13.9395 98.5,17.5C 101.436,16.5942 104.436,15.9275 107.5,15.5C 107.062,22.2877 106.228,28.9544 105,35.5C 107.356,32.9783 109.523,30.3116 111.5,27.5C 112.689,26.5713 114.022,26.238 115.5,26.5 Z"/></g>
<g><path style="opacity:0.004" fill="#000000" d="M 361.5,10.5 C 362.833,11.1667 362.833,11.1667 361.5,10.5 Z"/></g>
<g><path style="opacity:0.814" fill="#231f20" d="M 400.5,7.5 C 402.5,7.83333 404.5,8.16667 406.5,8.5C 406.662,10.5273 406.495,12.5273 406,14.5C 403.43,15.009 401.097,16.009 399,17.5C 398.831,24.1915 398.331,30.8581 397.5,37.5C 394.966,38.7883 392.466,38.7883 390,37.5C 389.5,27.8391 389.334,18.1724 389.5,8.5C 392.466,8.11032 395.132,8.77699 397.5,10.5C 398.855,9.81181 399.855,8.81181 400.5,7.5 Z"/></g>
<g><path style="opacity:0.004" fill="#000000" d="M 677.5,11.5 C 676.833,10.1667 676.833,10.1667 677.5,11.5 Z"/></g>
<g><path style="opacity:0.729" fill="#221e20" d="M 677.5,11.5 C 682.946,7.39757 688.78,6.73091 695,9.5C 697.06,10.5901 698.393,12.2567 699,14.5C 699.333,14.1667 699.667,13.8333 700,13.5C 700.831,19.8595 700.664,26.1928 699.5,32.5C 694.73,38.1433 688.73,39.81 681.5,37.5C 676.527,34.221 674.194,29.5543 674.5,23.5C 674.586,18.5229 675.586,14.5229 677.5,11.5 Z M 684.5,15.5 C 686.857,15.3367 689.19,15.5034 691.5,16C 692.357,16.6891 693.023,17.5224 693.5,18.5C 690.232,19.487 686.898,19.8204 683.5,19.5C 683.433,18.0413 683.766,16.7079 684.5,15.5 Z M 683.5,26.5 C 686.898,26.1796 690.232,26.513 693.5,27.5C 693.167,28.1667 692.833,28.8333 692.5,29.5C 689.572,30.4841 686.572,30.8174 683.5,30.5C 683.5,29.1667 683.5,27.8333 683.5,26.5 Z"/></g>
<g><path style="opacity:0.734" fill="#221e1f" d="M 712.5,7.5 C 719.486,6.86994 724.653,9.53661 728,15.5C 732.026,32.4617 725.526,39.9617 708.5,38C 708.833,37.6667 709.167,37.3333 709.5,37C 706.666,35.6636 704.666,33.4969 703.5,30.5C 700.361,20.1735 703.361,12.5068 712.5,7.5 Z M 711.5,15.5 C 715.357,14.9616 718.691,15.9616 721.5,18.5C 717.541,19.6599 713.541,19.8265 709.5,19C 710.973,18.2904 711.64,17.1238 711.5,15.5 Z M 709.5,27.5 C 713.298,26.5166 717.298,26.1832 721.5,26.5C 720.981,29.7749 718.981,31.1083 715.5,30.5C 712.95,30.3826 710.95,29.3826 709.5,27.5 Z"/></g>
<g><path style="opacity:0.004" fill="#000000" d="M 753.5,10.5 C 754.833,11.1667 754.833,11.1667 753.5,10.5 Z"/></g>
<g><path style="opacity:0.004" fill="#000000" d="M 962.5,11.5 C 961.833,10.1667 961.833,10.1667 962.5,11.5 Z"/></g>
<g><path style="opacity:0.763" fill="#221e1f" d="M 1047.5,38.5 C 1047.5,28.5 1047.5,18.5 1047.5,8.5C 1050.17,8.5 1052.83,8.5 1055.5,8.5C 1055.67,18.1724 1055.5,27.8391 1055,37.5C 1052.62,38.435 1050.12,38.7683 1047.5,38.5 Z"/></g>
<g><path style="opacity:0.004" fill="#000000" d="M 1081.5,10.5 C 1082.83,11.1667 1082.83,11.1667 1081.5,10.5 Z"/></g>
<g><path style="opacity:0.004" fill="#000000" d="M 1179.5,11.5 C 1178.83,10.1667 1178.83,10.1667 1179.5,11.5 Z"/></g>
<g><path style="opacity:0.847" fill="#231e1f" d="M 351.5,38.5 C 351.5,28.5 351.5,18.5 351.5,8.5C 353.833,8.5 356.167,8.5 358.5,8.5C 358.5,18.5 358.5,28.5 358.5,38.5C 356.167,38.5 353.833,38.5 351.5,38.5 Z"/></g>
<g><path style="opacity:0.776" fill="#211d1e" d="M 878.5,7.5 C 882.077,7.20509 885.243,8.20509 888,10.5C 895.913,5.41123 901.579,7.07789 905,15.5C 905.333,15.1667 905.667,14.8333 906,14.5C 906.667,21.8333 906.667,29.1667 906,36.5C 903.894,38.291 901.394,38.9577 898.5,38.5C 898.666,31.4921 898.5,24.4921 898,17.5C 897.667,23.8333 897.333,30.1667 897,36.5C 896.189,29.5857 896.355,22.7524 897.5,16C 894.937,15.0819 892.77,15.5819 891,17.5C 890.667,24.1667 890.333,30.8333 890,37.5C 887.333,38.8333 884.667,38.8333 882,37.5C 881.5,30.1742 881.334,22.8409 881.5,15.5C 879.533,15.2606 877.699,15.5939 876,16.5C 874.781,23.4211 874.114,30.4211 874,37.5C 871.936,38.5914 869.769,38.7581 867.5,38C 866.514,28.2496 866.181,18.4163 866.5,8.5C 869.685,8.01964 872.519,8.68631 875,10.5C 876.145,9.36362 877.312,8.36362 878.5,7.5 Z"/></g>
<g><path style="opacity:0.004" fill="#000000" d="M 646.5,12.5 C 647.833,13.1667 647.833,13.1667 646.5,12.5 Z"/></g>
<g><path style="opacity:0.663" fill="#221e1f" d="M 949.5,8.5 C 952.5,8.5 955.5,8.5 958.5,8.5C 958.666,18.1724 958.5,27.8391 958,37.5C 955.333,38.8333 952.667,38.8333 950,37.5C 949.5,27.8391 949.334,18.1724 949.5,8.5 Z"/></g>
<g><path style="opacity:0.809" fill="#221f20" d="M 1030.5,15.5 C 1030.43,23.2478 1031.09,30.9145 1032.5,38.5C 1028.98,38.7854 1025.64,38.1187 1022.5,36.5C 1017.96,38.5887 1013.3,38.922 1008.5,37.5C 1002.48,29.8956 1003.81,23.8956 1012.5,19.5C 1010.5,19.5 1008.5,19.5 1006.5,19.5C 1006.5,17.5 1006.5,15.5 1006.5,13.5C 1011.78,7.32955 1018.28,5.99622 1026,9.5C 1027.49,11.6265 1028.99,13.6265 1030.5,15.5 Z M 1012.5,19.5 C 1013.23,18.2921 1013.57,16.9587 1013.5,15.5C 1016.17,15.5 1018.83,15.5 1021.5,15.5C 1021.5,16.8333 1021.5,18.1667 1021.5,19.5C 1018.5,19.5 1015.5,19.5 1012.5,19.5 Z M 1020.5,24.5 C 1021.29,24.7828 1021.96,25.2828 1022.5,26C 1021.62,27.3561 1021.29,28.8561 1021.5,30.5C 1008.61,30.4045 1008.27,28.4045 1020.5,24.5 Z"/></g>
<g><path style="opacity:0.839" fill="#241e1f" d="M 1097.5,7.5 C 1105.24,6.66271 1109.74,9.99605 1111,17.5C 1111.67,24.1667 1111.67,30.8333 1111,37.5C 1108.33,38.8333 1105.67,38.8333 1103,37.5C 1102.5,30.1742 1102.33,22.8409 1102.5,15.5C 1099.64,15.0548 1097.14,15.7215 1095,17.5C 1094.67,24.1667 1094.33,30.8333 1094,37.5C 1091.94,38.5914 1089.77,38.7581 1087.5,38C 1086.51,28.2496 1086.18,18.4163 1086.5,8.5C 1089.25,8.27391 1091.92,8.60724 1094.5,9.5C 1095.74,9.05758 1096.74,8.39092 1097.5,7.5 Z"/></g>
<g><path style="opacity:0.764" fill="#221e1f" d="M 432.5,38.5 C 429.306,38.7305 426.306,38.0638 423.5,36.5C 418.965,38.5887 414.298,38.922 409.5,37.5C 403.972,30.6323 404.972,24.799 412.5,20C 410.527,19.5045 408.527,19.3379 406.5,19.5C 406.593,11.3206 410.76,7.32063 419,7.5C 423.694,7.82536 427.36,9.82536 430,13.5C 430.36,21.903 431.193,30.2363 432.5,38.5 Z M 414.5,15.5 C 417.5,15.5 420.5,15.5 423.5,15.5C 423.67,16.8221 423.337,17.9887 422.5,19C 419.518,19.498 416.518,19.6646 413.5,19.5C 413.433,18.0413 413.766,16.7079 414.5,15.5 Z M 421.5,24.5 C 424.047,25.8789 424.047,27.5456 421.5,29.5C 418.914,30.48 416.247,30.8134 413.5,30.5C 413.5,29.1667 413.5,27.8333 413.5,26.5C 416.553,26.8893 419.22,26.2227 421.5,24.5 Z"/></g>
<g><path style="opacity:0.87" fill="#221e1f" d="M 283.5,38.5 C 283.5,30.8333 283.5,23.1667 283.5,15.5C 280.635,15.0548 278.135,15.7215 276,17.5C 275.5,24.4921 275.334,31.4921 275.5,38.5C 273.167,38.5 270.833,38.5 268.5,38.5C 268.5,28.5 268.5,18.5 268.5,8.5C 270.92,8.29245 273.253,8.62578 275.5,9.5C 279.955,6.66004 284.122,6.99338 288,10.5C 294.457,5.99409 300.291,6.66076 305.5,12.5C 306.665,20.8134 306.832,29.1467 306,37.5C 303.619,38.435 301.119,38.7683 298.5,38.5C 298.5,30.8333 298.5,23.1667 298.5,15.5C 295.635,15.0548 293.135,15.7215 291,17.5C 290.5,24.4921 290.334,31.4921 290.5,38.5C 288.167,38.5 285.833,38.5 283.5,38.5 Z"/></g>
<g><path style="opacity:0.852" fill="#221e1f" d="M 1006.5,13.5 C 1004.48,15.0133 1002.15,15.8466 999.5,16C 998.953,16.9246 998.287,17.7579 997.5,18.5C 996.503,25.1335 996.17,31.8002 996.5,38.5C 994.167,38.5 991.833,38.5 989.5,38.5C 989.5,28.5 989.5,18.5 989.5,8.5C 995.264,9.4029 1000.93,9.4029 1006.5,8.5C 1006.5,10.1667 1006.5,11.8333 1006.5,13.5 Z"/></g>
<g><path style="opacity:0.787" fill="#231f20" d="M 1081.5,11.5 C 1084.17,19.1667 1084.17,26.8333 1081.5,34.5C 1080.17,34.5 1079.5,35.1667 1079.5,36.5C 1078.45,36.3505 1077.45,36.5172 1076.5,37C 1076.83,37.3333 1077.17,37.6667 1077.5,38C 1071.67,38.8544 1066,38.3544 1060.5,36.5C 1060.61,35.8826 1060.94,35.3826 1061.5,35C 1058.08,32.0096 1056.75,28.1763 1057.5,23.5C 1056.75,17.3589 1058.42,12.8589 1062.5,10C 1069.16,6.45812 1075.5,6.95812 1081.5,11.5 Z M 1066.5,15.5 C 1070.3,14.8803 1073.64,15.7137 1076.5,18C 1075.7,21.7454 1075.2,25.5787 1075,29.5C 1072.28,30.4438 1069.45,30.7771 1066.5,30.5C 1064.93,29.1904 1064.26,26.8571 1064.5,23.5C 1064.92,20.7214 1065.59,18.0547 1066.5,15.5 Z"/></g>
<g><path style="opacity:0.74" fill="#221e20" d="M 1298.5,7.5 C 1304.73,7.72915 1308.9,10.7292 1311,16.5C 1313.61,33.712 1307.11,40.712 1291.5,37.5C 1285.73,31.7056 1283.89,24.7056 1286,16.5C 1288.22,10.7169 1292.38,7.71691 1298.5,7.5 Z M 1294.5,15.5 C 1298.59,14.8456 1301.92,16.0122 1304.5,19C 1300.5,19.6667 1296.5,19.6667 1292.5,19C 1293.82,18.1841 1294.49,17.0174 1294.5,15.5 Z M 1292.5,26.5 C 1296.55,26.1758 1300.55,26.5091 1304.5,27.5C 1303.27,29.9184 1301.27,30.9184 1298.5,30.5C 1295.42,30.5931 1293.42,29.2598 1292.5,26.5 Z"/></g>
<g><path style="opacity:0.757" fill="#221e1f" d="M 467.5,7.5 C 472.08,7.11343 476.414,7.94676 480.5,10C 480.167,10.3333 479.833,10.6667 479.5,11C 484.744,15.3669 486.411,20.8669 484.5,27.5C 482.884,31.9965 480.55,35.3298 477.5,37.5C 465.279,40.965 458.613,36.465 457.5,24C 457.837,20.4771 458.337,16.9771 459,13.5C 459.333,13.8333 459.667,14.1667 460,14.5C 460.684,12.641 461.684,10.9743 463,9.5C 463.333,9.83333 463.667,10.1667 464,10.5C 465.145,9.36362 466.312,8.36362 467.5,7.5 Z M 467.5,15.5 C 470.167,15.5 472.833,15.5 475.5,15.5C 475.338,17.5273 475.505,19.5273 476,21.5C 477.018,20.2941 477.518,20.6274 477.5,22.5C 477.518,24.3726 477.018,24.7059 476,23.5C 475.503,25.8098 475.337,28.1432 475.5,30.5C 472.5,30.5 469.5,30.5 466.5,30.5C 466.662,28.4727 466.495,26.4727 466,24.5C 464.982,25.7059 464.482,25.3726 464.5,23.5C 465.863,20.9281 466.863,18.2614 467.5,15.5 Z"/></g>
<g><path style="opacity:0.004" fill="#000000" d="M 319.5,17.5 C 320.833,18.1667 320.833,18.1667 319.5,17.5 Z"/></g>
<g><path style="opacity:0.004" fill="#000000" d="M 334.5,17.5 C 335.833,18.1667 335.833,18.1667 334.5,17.5 Z"/></g>
<g><path style="opacity:0.004" fill="#000000" d="M 400.5,17.5 C 401.833,18.1667 401.833,18.1667 400.5,17.5 Z"/></g>
<g><path style="opacity:0.004" fill="#000000" d="M 1096.5,17.5 C 1097.83,18.1667 1097.83,18.1667 1096.5,17.5 Z"/></g>
<g><path style="opacity:0.004" fill="#000000" d="M 753.5,19.5 C 754.833,20.1667 754.833,20.1667 753.5,19.5 Z"/></g>
<g><path style="opacity:0.004" fill="#000000" d="M 1004.5,19.5 C 1005.83,20.1667 1005.83,20.1667 1004.5,19.5 Z"/></g>
<g><path style="opacity:0.004" fill="#000000" d="M 1336.5,19.5 C 1337.83,20.1667 1337.83,20.1667 1336.5,19.5 Z"/></g>
<g><path style="opacity:0.808" fill="#221e1f" d="M 960.5,38.5 C 962.924,38.8076 965.257,38.4742 967.5,37.5C 961.854,34.5854 959.188,29.9188 959.5,23.5C 959.79,18.5662 960.79,14.5662 962.5,11.5C 963.833,11.5 964.5,10.8333 964.5,9.5C 967.203,9.04453 969.87,8.37787 972.5,7.5C 976.653,9.46964 980.987,9.80298 985.5,8.5C 985.667,19.8382 985.5,31.1716 985,42.5C 984.667,42.1667 984.333,41.8333 984,41.5C 983.707,43.9249 982.541,45.7582 980.5,47C 973.351,50.5677 967.017,49.401 961.5,43.5C 960.548,41.9547 960.215,40.288 960.5,38.5 Z M 969.5,15.5 C 976.239,13.7397 978.905,16.2397 977.5,23C 977.47,25.4241 977.137,27.7574 976.5,30C 973.854,30.4974 971.187,30.6641 968.5,30.5C 968.221,25.4053 968.555,20.4053 969.5,15.5 Z M 976.5,36.5 C 977.239,36.369 977.906,36.5357 978.5,37C 977.884,39.1785 976.717,41.0118 975,42.5C 973.667,41.1667 972.333,41.1667 971,42.5C 969.294,41.6921 968.461,40.3588 968.5,38.5C 971.698,39.0356 974.365,38.369 976.5,36.5 Z"/></g>
<g><path style="opacity:0.705" fill="#221e1f" d="M 1336.5,19.5 C 1334.17,19.5 1331.83,19.5 1329.5,19.5C 1331.31,20.7665 1333.14,22.0999 1335,23.5C 1335.33,23.1667 1335.67,22.8333 1336,22.5C 1339.53,28.4323 1338.37,33.4323 1332.5,37.5C 1327.5,38.8333 1322.5,38.8333 1317.5,37.5C 1314.15,34.6231 1312.48,30.9564 1312.5,26.5C 1315.86,26.1495 1318.86,26.9829 1321.5,29C 1321.17,29.3333 1320.83,29.6667 1320.5,30C 1322.13,30.5855 1323.63,31.4188 1325,32.5C 1326.76,31.3699 1328.59,30.3699 1330.5,29.5C 1329.83,28.8333 1329.17,28.1667 1328.5,27.5C 1323.86,25.8854 1319.19,24.2187 1314.5,22.5C 1312.1,11.0659 1316.77,6.23253 1328.5,8C 1334.55,9.53735 1337.21,13.3707 1336.5,19.5 Z M 1329.5,19.5 C 1326.11,19.7029 1323.11,18.7029 1320.5,16.5C 1323.09,15.52 1325.75,15.1866 1328.5,15.5C 1328.43,16.9587 1328.77,18.2921 1329.5,19.5 Z"/></g>
<g><path style="opacity:0.004" fill="#000000" d="M 68.5,26.5 C 67.8333,25.1667 67.8333,25.1667 68.5,26.5 Z"/></g>
<g><path style="opacity:0.004" fill="#fe0000" d="M 115.5,25.5 C 116.833,26.1667 116.833,26.1667 115.5,25.5 Z"/></g>
<g><path style="opacity:0.004" fill="#000000" d="M 730.5,26.5 C 729.833,25.1667 729.833,25.1667 730.5,26.5 Z"/></g>
<g><path style="opacity:0.004" fill="#000000" d="M 1115.5,28.5 C 1114.83,27.1667 1114.83,27.1667 1115.5,28.5 Z"/></g>
<g><path style="opacity:0.813" fill="#221d1f" d="M 1190.5,7.5 C 1195.21,8.19984 1199.21,10.1998 1202.5,13.5C 1202.34,15.8568 1202.5,18.1902 1203,20.5C 1203.33,20.1667 1203.67,19.8333 1204,19.5C 1204.1,23.9496 1203.26,28.283 1201.5,32.5C 1199,36.9372 1195.17,38.9372 1190,38.5C 1182.94,38.1108 1178.61,34.4442 1177,27.5C 1176.67,27.8333 1176.33,28.1667 1176,28.5C 1175.33,25.5 1175.33,22.5 1176,19.5C 1176.33,19.8333 1176.67,20.1667 1177,20.5C 1177.54,17.3754 1178.38,14.3754 1179.5,11.5C 1181.2,12.6602 1181.87,11.9935 1181.5,9.5C 1184.69,9.14166 1187.69,8.47499 1190.5,7.5 Z M 1185.5,26.5 C 1189.18,26.3347 1192.85,26.5014 1196.5,27C 1193.57,30.0509 1189.9,31.2176 1185.5,30.5C 1185.5,29.1667 1185.5,27.8333 1185.5,26.5 Z M 1186.5,15.5 C 1189.17,15.5 1191.83,15.5 1194.5,15.5C 1194.33,16.8221 1194.66,17.9887 1195.5,19C 1192.18,19.4983 1188.85,19.665 1185.5,19.5C 1185.43,18.0413 1185.77,16.7079 1186.5,15.5 Z"/></g>
<g><path style="opacity:0.676" fill="#221d1f" d="M 515.5,28.5 C 518.5,28.5 521.5,28.5 524.5,28.5C 524.622,33.2318 524.122,37.8984 523,42.5C 520.573,43.7814 518.073,44.7814 515.5,45.5C 515.331,43.088 515.997,40.9214 517.5,39C 515.773,35.7242 515.106,32.2242 515.5,28.5 Z"/></g>
<g><path style="opacity:0.769" fill="#221e1f" d="M 604.5,15.5 C 604.318,20.1686 604.318,24.6686 604.5,29C 602.638,31.2827 601.305,33.7827 600.5,36.5C 598.11,38.0583 594.777,38.725 590.5,38.5C 588.167,38.3333 585.833,38.1667 583.5,38C 583.833,37.6667 584.167,37.3333 584.5,37C 583.552,36.5172 582.552,36.3505 581.5,36.5C 581.5,35.1667 580.833,34.5 579.5,34.5C 577.437,28.3055 577.104,21.9722 578.5,15.5C 583.84,7.10721 590.84,5.44054 599.5,10.5C 601.424,12.0087 602.591,14.0087 603,16.5C 603.383,15.944 603.883,15.6107 604.5,15.5 Z M 586.5,29.5 C 585.596,28.791 585.263,27.791 585.5,26.5C 589.514,26.3345 593.514,26.5012 597.5,27C 596.672,27.9147 595.672,28.5814 594.5,29C 594.833,29.3333 595.167,29.6667 595.5,30C 592.304,30.8045 589.304,30.6378 586.5,29.5 Z M 587.5,15.5 C 591.034,15.0317 594.034,16.0317 596.5,18.5C 592.833,19.8333 589.167,19.8333 585.5,18.5C 586.612,17.7348 587.279,16.7348 587.5,15.5 Z"/></g>
<g><path style="opacity:0.741" fill="#231f20" d="M 383.5,45.5 C 382.167,45.5 381.5,46.1667 381.5,47.5C 377.879,48.3725 374.212,49.0392 370.5,49.5C 369.082,47.6921 367.082,47.0254 364.5,47.5C 364.5,46.1667 363.833,45.5 362.5,45.5C 360.896,44.1908 360.23,41.8574 360.5,38.5C 363.167,38.5 365.833,38.5 368.5,38.5C 366.919,36.6974 364.919,35.3641 362.5,34.5C 360.437,28.3055 360.104,21.9722 361.5,15.5C 363.723,10.583 367.557,7.9163 373,7.5C 375.406,7.70294 377.406,8.70294 379,10.5C 381.121,8.54263 383.621,8.04263 386.5,9C 387.651,18.4223 387.818,27.9223 387,37.5C 386.667,37.1667 386.333,36.8333 386,36.5C 385.722,39.7207 384.889,42.7207 383.5,45.5 Z M 370.5,15.5 C 372.833,15.5 375.167,15.5 377.5,15.5C 377.301,18.9732 377.967,21.4732 379.5,23C 377.967,24.5268 377.301,27.0268 377.5,30.5C 374.552,30.7771 371.719,30.4438 369,29.5C 368.097,24.6086 368.597,19.942 370.5,15.5 Z M 377.5,37.5 C 377.716,39.6807 376.883,41.3474 375,42.5C 373.667,41.1667 372.333,41.1667 371,42.5C 369.519,41.5291 368.685,40.1958 368.5,38.5C 371.609,38.7359 374.609,38.4025 377.5,37.5 Z"/></g>
<g><path style="opacity:0.259" fill="#231f1f" d="M 1275.5,8.5 C 1278.17,8.5 1280.83,8.5 1283.5,8.5C 1283.67,18.1724 1283.5,27.8391 1283,37.5C 1280.67,38.8333 1278.33,38.8333 1276,37.5C 1275.5,27.8391 1275.33,18.1724 1275.5,8.5 Z"/></g>
<g><path style="opacity:0.004" fill="#000000" d="M 362.5,34.5 C 361.833,35.1667 361.833,35.1667 362.5,34.5 Z"/></g>
<g><path style="opacity:0.004" fill="#000000" d="M 579.5,34.5 C 578.833,35.1667 578.833,35.1667 579.5,34.5 Z"/></g>
<g><path style="opacity:0.004" fill="#000000" d="M 730.5,34.5 C 729.833,35.1667 729.833,35.1667 730.5,34.5 Z"/></g>
<g><path style="opacity:0.004" fill="#000000" d="M 1057.5,34.5 C 1058.83,35.1667 1058.83,35.1667 1057.5,34.5 Z"/></g>
<g><path style="opacity:0.004" fill="#000000" d="M 1081.5,34.5 C 1082.83,35.1667 1082.83,35.1667 1081.5,34.5 Z"/></g>
<g><path style="opacity:0.004" fill="#000000" d="M 1247.5,34.5 C 1246.83,35.1667 1246.83,35.1667 1247.5,34.5 Z"/></g>
<g><path style="opacity:0.004" fill="#000000" d="M 581.5,36.5 C 580.833,37.1667 580.833,37.1667 581.5,36.5 Z"/></g>
<g><path style="opacity:0.004" fill="#000000" d="M 600.5,36.5 C 601.833,37.1667 601.833,37.1667 600.5,36.5 Z"/></g>
<g><path style="opacity:0.004" fill="#000000" d="M 647.5,38.5 C 646.475,38.1034 646.308,37.4368 647,36.5C 647.464,37.0944 647.631,37.7611 647.5,38.5 Z"/></g>
<g><path style="opacity:0.004" fill="#000000" d="M 725.5,36.5 C 726.833,37.1667 726.833,37.1667 725.5,36.5 Z"/></g>
<g><path style="opacity:0.004" fill="#000000" d="M 732.5,36.5 C 731.833,37.1667 731.833,37.1667 732.5,36.5 Z"/></g>
<g><path style="opacity:0.004" fill="#000000" d="M 1060.5,36.5 C 1059.83,37.1667 1059.83,37.1667 1060.5,36.5 Z"/></g>
<g><path style="opacity:0.004" fill="#000000" d="M 1079.5,36.5 C 1080.83,37.1667 1080.83,37.1667 1079.5,36.5 Z"/></g>
<g><path style="opacity:0.004" fill="#000000" d="M 1308.5,36.5 C 1309.83,37.1667 1309.83,37.1667 1308.5,36.5 Z"/></g>
<g><path style="opacity:0.004" fill="#000000" d="M 960.5,38.5 C 959.833,37.1667 959.833,37.1667 960.5,38.5 Z"/></g>
<g><path style="opacity:0.004" fill="#000000" d="M 268.5,38.5 C 267.833,39.1667 267.833,39.1667 268.5,38.5 Z"/></g>
<g><path style="opacity:0.004" fill="#000000" d="M 283.5,38.5 C 282.833,39.1667 282.833,39.1667 283.5,38.5 Z"/></g>
<g><path style="opacity:0.004" fill="#000000" d="M 351.5,38.5 C 350.833,39.1667 350.833,39.1667 351.5,38.5 Z"/></g>
<g><path style="opacity:0.004" fill="#000000" d="M 423.5,38.5 C 424.833,39.1667 424.833,39.1667 423.5,38.5 Z"/></g>
<g><path style="opacity:0.004" fill="#000000" d="M 432.5,38.5 C 433.833,39.1667 433.833,39.1667 432.5,38.5 Z"/></g>
<g><path style="opacity:0.004" fill="#000000" d="M 514.5,38.5 C 515.833,39.1667 515.833,39.1667 514.5,38.5 Z"/></g>
<g><path style="opacity:0.004" fill="#000000" d="M 551.5,38.5 C 552.833,39.1667 552.833,39.1667 551.5,38.5 Z"/></g>
<g><path style="opacity:0.004" fill="#000000" d="M 1032.5,38.5 C 1033.83,39.1667 1033.83,39.1667 1032.5,38.5 Z"/></g>
<g><path style="opacity:0.004" fill="#000000" d="M 1045.5,38.5 C 1046.17,38.5 1046.83,38.5 1047.5,38.5C 1046.83,39.8333 1046.17,39.8333 1045.5,38.5 Z"/></g>
<g><path style="opacity:0.004" fill="#000000" d="M 1274.5,38.5 C 1275.83,39.1667 1275.83,39.1667 1274.5,38.5 Z"/></g>
<g><path style="opacity:0.639" fill="#221d1e" d="M 1115.5,28.5 C 1121.92,26.7622 1124.58,29.0955 1123.5,35.5C 1123.78,41.2139 1121.12,44.5472 1115.5,45.5C 1115.16,42.8559 1115.83,40.5225 1117.5,38.5C 1115.71,35.4439 1115.04,32.1106 1115.5,28.5 Z"/></g>
<g><path style="opacity:0.004" fill="#000000" d="M 362.5,45.5 C 361.833,46.1667 361.833,46.1667 362.5,45.5 Z"/></g>
<g><path style="opacity:0.004" fill="#000000" d="M 383.5,45.5 C 384.833,46.1667 384.833,46.1667 383.5,45.5 Z"/></g>
<g><path style="opacity:0.004" fill="#fe0000" d="M 55.5,47.5 C 56.8333,48.1667 56.8333,48.1667 55.5,47.5 Z"/></g>
<g><path style="opacity:0.004" fill="#000000" d="M 364.5,47.5 C 363.833,48.1667 363.833,48.1667 364.5,47.5 Z"/></g>
<g><path style="opacity:0.004" fill="#000000" d="M 381.5,47.5 C 382.833,48.1667 382.833,48.1667 381.5,47.5 Z"/></g>
<g><path style="opacity:0.004" fill="#fe0000" d="M 57.5,49.5 C 58.8333,50.1667 58.8333,50.1667 57.5,49.5 Z"/></g>
<g><path style="opacity:0.004" fill="#000000" d="M 326.5,51.5 C 325.833,50.1667 325.833,50.1667 326.5,51.5 Z"/></g>
<g><path style="opacity:0.004" fill="#000000" d="M 394.5,50.5 C 395.833,51.1667 395.833,51.1667 394.5,50.5 Z"/></g>
<g><path style="opacity:0.004" fill="#000000" d="M 419.5,50.5 C 420.833,51.1667 420.833,51.1667 419.5,50.5 Z"/></g>
<g><path style="opacity:0.004" fill="#000000" d="M 528.5,51.5 C 527.833,50.1667 527.833,50.1667 528.5,51.5 Z"/></g>
<g><path style="opacity:0.004" fill="#000000" d="M 536.5,50.5 C 537.833,51.1667 537.833,51.1667 536.5,50.5 Z"/></g>
<g><path style="opacity:0.004" fill="#000000" d="M 555.5,50.5 C 556.833,51.1667 556.833,51.1667 555.5,50.5 Z"/></g>
<g><path style="opacity:0.004" fill="#000000" d="M 564.5,50.5 C 565.833,51.1667 565.833,51.1667 564.5,50.5 Z"/></g>
<g><path style="opacity:0.004" fill="#000000" d="M 745.5,51.5 C 744.833,50.1667 744.833,50.1667 745.5,51.5 Z"/></g>
<g><path style="opacity:0.004" fill="#000000" d="M 753.5,50.5 C 754.833,51.1667 754.833,51.1667 753.5,50.5 Z"/></g>
<g><path style="opacity:0.004" fill="#000000" d="M 1332.5,50.5 C 1333.83,51.1667 1333.83,51.1667 1332.5,50.5 Z"/></g>
<g><path style="opacity:0.004" fill="#fe0000" d="M 59.5,51.5 C 60.8333,52.1667 60.8333,52.1667 59.5,51.5 Z"/></g>
<g><path style="opacity:0.004" fill="#fe0000" d="M 123.5,51.5 C 124.833,52.1667 124.833,52.1667 123.5,51.5 Z"/></g>
<g><path style="opacity:0.601" fill="#221e20" d="M 564.5,51.5 C 564.5,53.8333 564.5,56.1667 564.5,58.5C 562.167,58.5 559.833,58.5 557.5,58.5C 557.5,56.1667 557.5,53.8333 557.5,51.5C 559.833,51.5 562.167,51.5 564.5,51.5 Z"/></g>
<g><path style="opacity:0.004" fill="#000000" d="M 638.5,52.5 C 639.833,53.1667 639.833,53.1667 638.5,52.5 Z"/></g>
<g><path style="opacity:0.718" fill="#221e1f" d="M 745.5,51.5 C 748.167,51.5 750.833,51.5 753.5,51.5C 753.5,64.5 753.5,77.5 753.5,90.5C 750.751,90.7261 748.084,90.3928 745.5,89.5C 737.389,92.6839 731.389,90.3506 727.5,82.5C 726.339,78.2047 726.172,73.8713 727,69.5C 727.333,69.8333 727.667,70.1667 728,70.5C 728.333,68.8333 728.667,67.1667 729,65.5C 729.333,65.8333 729.667,66.1667 730,66.5C 730.309,65.2341 730.809,64.0674 731.5,63C 733.972,61.6038 736.638,60.7704 739.5,60.5C 741.641,60.6132 743.475,61.2799 745,62.5C 745.499,58.8484 745.665,55.1817 745.5,51.5 Z M 736.5,68.5 C 739.187,68.3359 741.854,68.5026 744.5,69C 744.167,69.3333 743.833,69.6667 743.5,70C 744.733,71.6977 745.4,73.6977 745.5,76C 745.4,78.3023 744.733,80.3023 743.5,82C 743.833,82.3333 744.167,82.6667 744.5,83C 741.854,83.4974 739.187,83.6641 736.5,83.5C 735.858,80.865 735.191,78.1984 734.5,75.5C 735.182,73.1763 735.849,70.8429 736.5,68.5 Z"/></g>
<g><path style="opacity:0.004" fill="#000000" d="M 943.5,52.5 C 944.622,54.2884 944.789,56.2884 944,58.5C 943.505,56.5273 943.338,54.5273 943.5,52.5 Z"/></g>
<g><path style="opacity:0.004" fill="#000000" d="M 1193.5,52.5 C 1194.83,53.1667 1194.83,53.1667 1193.5,52.5 Z"/></g>
<g><path style="opacity:0.004" fill="#000000" d="M 61.5,53.5 C 62.8333,54.1667 62.8333,54.1667 61.5,53.5 Z"/></g>
<g><path style="opacity:0.004" fill="#fe0000" d="M 121.5,53.5 C 122.833,54.1667 122.833,54.1667 121.5,53.5 Z"/></g>
<g><path style="opacity:0.688" fill="#221e1f" d="M 877.5,66.5 C 877.34,64.8008 877.506,63.1341 878,61.5C 879,60.1667 880,60.1667 881,61.5C 881.497,58.854 881.664,56.1873 881.5,53.5C 884.167,53.5 886.833,53.5 889.5,53.5C 889.756,55.7925 889.423,57.9592 888.5,60C 889,60.5 889.5,61 890,61.5C 891.011,60.6634 892.178,60.33 893.5,60.5C 893.5,63.1667 893.5,65.8333 893.5,68.5C 891.801,68.3398 890.134,68.5065 888.5,69C 889.833,73.6667 889.833,78.3333 888.5,83C 890.433,83.2511 892.266,83.7511 894,84.5C 893.865,86.4247 893.698,88.4247 893.5,90.5C 890.421,90.7399 887.421,90.4066 884.5,89.5C 883.833,88.5 883.167,87.5 882.5,86.5C 881.833,80.5 881.167,74.5 880.5,68.5C 879.482,67.8075 878.482,67.1408 877.5,66.5 Z"/></g>
<g><path style="opacity:0.739" fill="#231f20" d="M 968.5,60.5 C 968.5,63.1667 968.5,65.8333 968.5,68.5C 967.167,68.5 965.833,68.5 964.5,68.5C 964.5,73.5 964.5,78.5 964.5,83.5C 965.833,83.5 967.167,83.5 968.5,83.5C 968.5,85.8333 968.5,88.1667 968.5,90.5C 965.482,90.6646 962.482,90.498 959.5,90C 959,89.5 958.5,89 958,88.5C 957.5,81.8417 957.334,75.175 957.5,68.5C 956.178,68.67 955.011,68.3366 954,67.5C 953.5,75.1594 953.334,82.8261 953.5,90.5C 950.833,90.5 948.167,90.5 945.5,90.5C 945.5,80.5 945.5,70.5 945.5,60.5C 947.833,60.5 950.167,60.5 952.5,60.5C 952.538,67.0414 953.204,67.0414 954.5,60.5C 955.425,61.6405 956.259,61.6405 957,60.5C 957.497,58.1902 957.663,55.8568 957.5,53.5C 959.833,53.5 962.167,53.5 964.5,53.5C 964.336,56.1873 964.503,58.854 965,61.5C 966.011,60.6634 967.178,60.33 968.5,60.5 Z"/></g>
<g><path style="opacity:0.784" fill="#221e1f" d="M 1204.5,49.5 C 1214.09,49.9501 1220.26,54.6168 1223,63.5C 1219.94,64.4505 1216.78,64.7839 1213.5,64.5C 1213.5,59.67 1211,57.3367 1206,57.5C 1199.31,59.3344 1196.15,63.8344 1196.5,71C 1196.1,81.1141 1200.77,85.1141 1210.5,83C 1212.52,80.7507 1214.19,78.2507 1215.5,75.5C 1218.09,74.52 1220.75,74.1866 1223.5,74.5C 1220.58,90.0188 1211.24,94.6855 1195.5,88.5C 1188.62,79.4528 1187.12,69.4528 1191,58.5C 1194.7,53.9058 1199.2,50.9058 1204.5,49.5 Z"/></g>
<g><path style="opacity:1" fill="#221f20" d="M 945.5,51.5 C 948.167,51.5 950.833,51.5 953.5,51.5C 953.5,53.8333 953.5,56.1667 953.5,58.5C 950.833,58.5 948.167,58.5 945.5,58.5C 945.5,56.1667 945.5,53.8333 945.5,51.5 Z"/></g>
<g><path style="opacity:0.697" fill="#221e20" d="M 1130.5,67.5 C 1130.5,65.1667 1130.5,62.8333 1130.5,60.5C 1131.82,60.33 1132.99,60.6634 1134,61.5C 1134.5,58.854 1134.66,56.1873 1134.5,53.5C 1136.83,53.5 1139.17,53.5 1141.5,53.5C 1141.34,55.8568 1141.5,58.1902 1142,60.5C 1142.74,61.6405 1143.57,61.6405 1144.5,60.5C 1145.48,63.0865 1145.81,65.7531 1145.5,68.5C 1144.17,68.5 1142.83,68.5 1141.5,68.5C 1141.5,73.5 1141.5,78.5 1141.5,83.5C 1142.83,83.5 1144.17,83.5 1145.5,83.5C 1145.5,85.8333 1145.5,88.1667 1145.5,90.5C 1142.81,90.6641 1140.15,90.4974 1137.5,90C 1136.95,89.0754 1136.29,88.2421 1135.5,87.5C 1134.5,81.2015 1134.17,74.8682 1134.5,68.5C 1133.04,68.5674 1131.71,68.2341 1130.5,67.5 Z"/></g>
<g><path style="opacity:0.453" fill="#221f1f" d="M 394.5,51.5 C 394.5,53.8333 394.5,56.1667 394.5,58.5C 392.167,58.5 389.833,58.5 387.5,58.5C 387.5,56.1667 387.5,53.8333 387.5,51.5C 389.833,51.5 392.167,51.5 394.5,51.5 Z"/></g>
<g><path style="opacity:0.835" fill="#231f1f" d="M 419.5,51.5 C 419.5,53.8333 419.5,56.1667 419.5,58.5C 416.833,58.5 414.167,58.5 411.5,58.5C 411.5,56.1667 411.5,53.8333 411.5,51.5C 414.167,51.5 416.833,51.5 419.5,51.5 Z"/></g>
<g><path style="opacity:0.004" fill="#000000" d="M 302.5,59.5 C 303.833,60.1667 303.833,60.1667 302.5,59.5 Z"/></g>
<g><path style="opacity:0.004" fill="#000000" d="M 387.5,60.5 C 386.761,60.631 386.094,60.4643 385.5,60C 386.437,59.3083 387.103,59.475 387.5,60.5 Z"/></g>
<g><path style="opacity:0.004" fill="#000000" d="M 394.5,59.5 C 395.833,60.1667 395.833,60.1667 394.5,59.5 Z"/></g>
<g><path style="opacity:0.008" fill="#000000" d="M 419.5,59.5 C 420.833,60.1667 420.833,60.1667 419.5,59.5 Z"/></g>
<g><path style="opacity:0.004" fill="#000000" d="M 445.5,59.5 C 446.833,60.1667 446.833,60.1667 445.5,59.5 Z"/></g>
<g><path style="opacity:0.004" fill="#000000" d="M 555.5,59.5 C 556.833,60.1667 556.833,60.1667 555.5,59.5 Z"/></g>
<g><path style="opacity:0.004" fill="#000000" d="M 564.5,59.5 C 565.833,60.1667 565.833,60.1667 564.5,59.5 Z"/></g>
<g><path style="opacity:0.004" fill="#000000" d="M 968.5,59.5 C 969.833,60.1667 969.833,60.1667 968.5,59.5 Z"/></g>
<g><path style="opacity:0.004" fill="#000000" d="M 1021.5,59.5 C 1022.83,60.1667 1022.83,60.1667 1021.5,59.5 Z"/></g>
<g><path style="opacity:0.004" fill="#000000" d="M 1057.5,59.5 C 1058.83,60.1667 1058.83,60.1667 1057.5,59.5 Z"/></g>
<g><path style="opacity:0.004" fill="#000000" d="M 276.5,61.5 C 277.833,62.1667 277.833,62.1667 276.5,61.5 Z"/></g>
<g><path style="opacity:0.004" fill="#000000" d="M 304.5,61.5 C 305.833,62.1667 305.833,62.1667 304.5,61.5 Z"/></g>
<g><path style="opacity:0.004" fill="#000000" d="M 311.5,62.5 C 310.833,61.1667 310.833,61.1667 311.5,62.5 Z"/></g>
<g><path style="opacity:0.773" fill="#221e1f" d="M 326.5,51.5 C 329.167,51.5 331.833,51.5 334.5,51.5C 334.5,64.5 334.5,77.5 334.5,90.5C 331.751,90.7261 329.084,90.3928 326.5,89.5C 317.635,93.1541 311.468,90.4875 308,81.5C 306.294,74.668 307.794,68.8346 312.5,64C 311.944,63.6174 311.611,63.1174 311.5,62.5C 313.371,60.9896 316.205,60.3229 320,60.5C 322.302,60.6004 324.302,61.267 326,62.5C 326.499,58.8484 326.665,55.1817 326.5,51.5 Z M 317.5,68.5 C 320.187,68.3359 322.854,68.5026 325.5,69C 325.167,69.3333 324.833,69.6667 324.5,70C 326.028,71.6477 326.695,73.6477 326.5,76C 326.695,78.3523 326.028,80.3523 324.5,82C 324.833,82.3333 325.167,82.6667 325.5,83C 322.854,83.4974 320.187,83.6641 317.5,83.5C 314.949,78.4545 314.949,73.4545 317.5,68.5 Z"/></g>
<g><path style="opacity:0.004" fill="#000000" d="M 451.5,62.5 C 450.833,61.1667 450.833,61.1667 451.5,62.5 Z"/></g>
<g><path style="opacity:0.818" fill="#231f20" d="M 498.5,62.5 C 500.327,71.6808 500.994,81.0141 500.5,90.5C 497.833,90.5 495.167,90.5 492.5,90.5C 492.5,83.1667 492.5,75.8333 492.5,68.5C 489.534,68.1103 486.868,68.777 484.5,70.5C 483.503,77.1335 483.17,83.8002 483.5,90.5C 480.833,90.5 478.167,90.5 475.5,90.5C 475.334,80.8276 475.5,71.1609 476,61.5C 478.957,59.9226 481.624,60.2559 484,62.5C 485.87,61.2565 488.036,60.5899 490.5,60.5C 493.349,60.7466 496.016,61.4132 498.5,62.5 Z"/></g>
<g><path style="opacity:0.004" fill="#000000" d="M 498.5,61.5 C 499.833,62.1667 499.833,62.1667 498.5,61.5 Z"/></g>
<g><path style="opacity:0.865" fill="#221e1f" d="M 520.5,72.5 C 522.187,73.9176 524.02,75.2509 526,76.5C 528.514,85.9898 524.848,90.9898 515,91.5C 511.731,91.0773 508.564,90.244 505.5,89C 503.396,86.1864 502.396,83.0197 502.5,79.5C 504.833,79.5 507.167,79.5 509.5,79.5C 509.5,80.8333 509.5,82.1667 509.5,83.5C 512.833,83.5 516.167,83.5 519.5,83.5C 519.67,82.1779 519.337,81.0113 518.5,80C 512.341,79.4458 507.175,76.9458 503,72.5C 502.665,69.2377 503.498,66.2377 505.5,63.5C 506.376,62.7492 507.376,62.2492 508.5,62C 508.167,61.6667 507.833,61.3333 507.5,61C 512.167,60.3333 516.833,60.3333 521.5,61C 521.167,61.3333 520.833,61.6667 520.5,62C 524.432,64.36 526.432,67.86 526.5,72.5C 524.5,72.5 522.5,72.5 520.5,72.5 Z M 520.5,72.5 C 516.574,72.9278 513.241,71.7611 510.5,69C 513.482,68.502 516.482,68.3354 519.5,68.5C 519.433,69.9587 519.766,71.2921 520.5,72.5 Z"/></g>
<g><path style="opacity:0.004" fill="#000000" d="M 551.5,61.5 C 552.833,62.1667 552.833,62.1667 551.5,61.5 Z"/></g>
<g><path style="opacity:0.773" fill="#231e1f" d="M 575.5,99.5 C 572.5,99.5 569.5,99.5 566.5,99.5C 566.333,86.8289 566.5,74.1623 567,61.5C 572.835,61.1701 579.335,61.1701 586.5,61.5C 589.017,62.8644 590.851,64.8644 592,67.5C 592.909,73.6123 592.576,79.6123 591,85.5C 587.022,90.8816 581.855,92.5483 575.5,90.5C 575.5,93.5 575.5,96.5 575.5,99.5 Z M 576.5,68.5 C 582.856,66.8229 585.856,69.1562 585.5,75.5C 585.768,82.5597 582.601,84.893 576,82.5C 574.186,77.7585 574.353,73.0918 576.5,68.5 Z"/></g>
<g><path style="opacity:0.004" fill="#000000" d="M 647.5,62.5 C 646.833,61.1667 646.833,61.1667 647.5,62.5 Z"/></g>
<g><path style="opacity:0.742" fill="#221e1f" d="M 645.5,72.5 C 645.458,68.9913 646.124,65.658 647.5,62.5C 649.89,60.9417 653.223,60.275 657.5,60.5C 661.037,60.645 664.371,61.4784 667.5,63C 668.479,69.7445 668.812,76.5778 668.5,83.5C 669.822,83.33 670.989,83.6634 672,84.5C 672.495,86.4727 672.662,88.4727 672.5,90.5C 668.743,90.9292 665.243,90.2625 662,88.5C 653.233,93.5273 647.066,91.3606 643.5,82C 644.237,77.7253 646.57,74.7253 650.5,73C 648.866,72.5065 647.199,72.3398 645.5,72.5 Z M 653.5,68.5 C 656.187,68.3359 658.854,68.5026 661.5,69C 660.663,70.0113 660.33,71.1779 660.5,72.5C 657.482,72.6646 654.482,72.498 651.5,72C 652.823,71.1841 653.489,70.0174 653.5,68.5 Z M 657.5,77.5 C 658.978,77.238 660.311,77.5713 661.5,78.5C 660.691,80.0709 660.357,81.7376 660.5,83.5C 657.5,83.5 654.5,83.5 651.5,83.5C 651.351,82.448 651.517,81.448 652,80.5C 654.326,80.12 656.159,79.12 657.5,77.5 Z"/></g>
<g><path style="opacity:0.748" fill="#231e20" d="M 673.5,60.5 C 676.244,60.2479 678.744,60.9145 681,62.5C 682.722,62.3893 682.888,61.8893 681.5,61C 685.5,60.3333 689.5,60.3333 693.5,61C 693.167,61.3333 692.833,61.6667 692.5,62C 693.624,62.2492 694.624,62.7492 695.5,63.5C 698.099,72.2844 699.099,81.2844 698.5,90.5C 695.5,90.5 692.5,90.5 689.5,90.5C 689.5,83.1667 689.5,75.8333 689.5,68.5C 686.881,68.2317 684.381,68.565 682,69.5C 681.5,76.4921 681.334,83.4921 681.5,90.5C 678.833,90.5 676.167,90.5 673.5,90.5C 673.5,80.5 673.5,70.5 673.5,60.5 Z"/></g>
<g><path style="opacity:0.004" fill="#000000" d="M 723.5,61.5 C 724.833,62.1667 724.833,62.1667 723.5,61.5 Z"/></g>
<g><path style="opacity:0.004" fill="#000000" d="M 757.5,61.5 C 758.833,62.1667 758.833,62.1667 757.5,61.5 Z"/></g>
<g><path style="opacity:0.824" fill="#231e1f" d="M 877.5,66.5 C 877.114,70.8764 877.781,75.0431 879.5,79C 878.32,82.5105 876.32,85.5105 873.5,88C 873.833,88.3333 874.167,88.6667 874.5,89C 858.353,94.3992 850.853,88.5659 852,71.5C 852.977,68.3808 854.811,65.8808 857.5,64C 857.167,63.6667 856.833,63.3333 856.5,63C 861.289,60.5362 866.289,60.0362 871.5,61.5C 873.731,63.0554 875.731,64.722 877.5,66.5 Z M 861.5,68.5 C 864.187,68.3359 866.854,68.5026 869.5,69C 870.337,70.0113 870.67,71.1779 870.5,72.5C 867.167,72.5 863.833,72.5 860.5,72.5C 860.433,71.0413 860.766,69.7079 861.5,68.5 Z M 870.5,79.5 C 870.67,80.8221 870.337,81.9887 869.5,83C 866.518,83.498 863.518,83.6646 860.5,83.5C 860.5,82.1667 860.5,80.8333 860.5,79.5C 863.833,79.5 867.167,79.5 870.5,79.5 Z"/></g>
<g><path style="opacity:0.774" fill="#221e1f" d="M 968.5,83.5 C 968.5,78.5 968.5,73.5 968.5,68.5C 970.413,65.9203 972.746,63.5869 975.5,61.5C 987.872,58.2227 994.206,62.8893 994.5,75.5C 994.406,88.4214 988.073,93.2548 975.5,90C 972.588,88.2483 970.255,86.0817 968.5,83.5 Z M 977.5,68.5 C 980.579,68.2601 983.579,68.5934 986.5,69.5C 988.016,74.039 987.683,78.3723 985.5,82.5C 979.002,84.9037 975.669,82.737 975.5,76C 975.965,73.3967 976.632,70.8967 977.5,68.5 Z"/></g>
<g><path style="opacity:0.742" fill="#231f1f" d="M 1050.5,60.5 C 1053.48,60.1044 1056.15,60.7711 1058.5,62.5C 1068.77,57.8058 1074.27,61.1391 1075,72.5C 1075.67,77.8333 1075.67,83.1667 1075,88.5C 1072.54,90.3213 1069.71,90.988 1066.5,90.5C 1066.5,83.1667 1066.5,75.8333 1066.5,68.5C 1063.61,68.0423 1061.11,68.709 1059,70.5C 1058.5,77.1583 1058.33,83.825 1058.5,90.5C 1055.5,90.5 1052.5,90.5 1049.5,90.5C 1049.19,80.4176 1049.53,70.4176 1050.5,60.5 Z"/></g>
<g><path style="opacity:0.004" fill="#000000" d="M 1100.5,61.5 C 1101.83,62.1667 1101.83,62.1667 1100.5,61.5 Z"/></g>
<g><path style="opacity:0.004" fill="#000000" d="M 1247.5,61.5 C 1248.83,62.1667 1248.83,62.1667 1247.5,61.5 Z"/></g>
<g><path style="opacity:0.813" fill="#221e1f" d="M 1253.5,60.5 C 1256.39,60.0423 1258.89,60.709 1261,62.5C 1262.87,61.2565 1265.04,60.5899 1267.5,60.5C 1272.37,59.8786 1275.54,61.8786 1277,66.5C 1277.5,74.4931 1277.67,82.4931 1277.5,90.5C 1275.17,90.5 1272.83,90.5 1270.5,90.5C 1270.67,83.4921 1270.5,76.4921 1270,69.5C 1266.97,67.9836 1264.13,68.3169 1261.5,70.5C 1260.5,77.1335 1260.17,83.8002 1260.5,90.5C 1258.17,90.5 1255.83,90.5 1253.5,90.5C 1253.5,80.5 1253.5,70.5 1253.5,60.5 Z"/></g>
<g><path style="opacity:0.004" fill="#000000" d="M 1283.5,62.5 C 1282.83,61.1667 1282.83,61.1667 1283.5,62.5 Z"/></g>
<g><path style="opacity:0.661" fill="#221e20" d="M 387.5,60.5 C 389.833,60.5 392.167,60.5 394.5,60.5C 394.5,70.5 394.5,80.5 394.5,90.5C 392.167,90.5 389.833,90.5 387.5,90.5C 387.5,80.5 387.5,70.5 387.5,60.5 Z"/></g>
<g><path style="opacity:0.004" fill="#000000" d="M 943.5,62.5 C 944.657,70.9901 944.824,79.6567 944,88.5C 943.5,79.8397 943.334,71.1731 943.5,62.5 Z"/></g>
<g><path style="opacity:0.832" fill="#231e1f" d="M 445.5,60.5 C 445.813,63.2469 445.48,65.9135 444.5,68.5C 440.874,73.4611 436.874,78.1278 432.5,82.5C 436.783,83.4922 441.116,83.8256 445.5,83.5C 445.5,85.8333 445.5,88.1667 445.5,90.5C 437.5,90.5 429.5,90.5 421.5,90.5C 420.891,86.4366 422.225,83.27 425.5,81C 425.167,80.6667 424.833,80.3333 424.5,80C 427.988,76.6778 431.321,73.1778 434.5,69.5C 430.893,68.5108 427.226,68.1774 423.5,68.5C 423.5,65.8333 423.5,63.1667 423.5,60.5C 430.833,60.5 438.167,60.5 445.5,60.5 Z"/></g>
<g><path style="opacity:0.004" fill="#000000" d="M 449.5,64.5 C 448.833,63.1667 448.833,63.1667 449.5,64.5 Z"/></g>
<g><path style="opacity:0.672" fill="#221f1f" d="M 564.5,60.5 C 564.5,70.5 564.5,80.5 564.5,90.5C 562.167,90.5 559.833,90.5 557.5,90.5C 557.5,80.5 557.5,70.5 557.5,60.5C 559.833,60.5 562.167,60.5 564.5,60.5 Z"/></g>
<g><path style="opacity:0.83" fill="#241e1f" d="M 1045.5,64.5 C 1047.1,68.9862 1047.77,73.6529 1047.5,78.5C 1044.94,78.1984 1042.61,78.5318 1040.5,79.5C 1042.83,79.5 1045.17,79.5 1047.5,79.5C 1046.44,86.8855 1042.11,90.8855 1034.5,91.5C 1028.23,91.2934 1024.07,88.2934 1022,82.5C 1019.8,66.0549 1026.3,58.8882 1041.5,61C 1041.17,61.3333 1040.83,61.6667 1040.5,62C 1042.25,62.7848 1043.92,63.6182 1045.5,64.5 Z M 1030.5,68.5 C 1033.19,68.3359 1035.85,68.5026 1038.5,69C 1039.36,69.6891 1040.02,70.5224 1040.5,71.5C 1036.54,72.6599 1032.54,72.8265 1028.5,72C 1029.82,71.1841 1030.49,70.0174 1030.5,68.5 Z M 1040.5,79.5 C 1040.49,81.0174 1039.82,82.1841 1038.5,83C 1035.85,83.4974 1033.19,83.6641 1030.5,83.5C 1030.52,81.857 1029.85,80.5237 1028.5,79.5C 1028.83,79.1667 1029.17,78.8333 1029.5,78.5C 1033.09,79.4259 1036.76,79.7592 1040.5,79.5 Z"/></g>
<g><path style="opacity:0.004" fill="#000000" d="M 1045.5,63.5 C 1046.83,64.1667 1046.83,64.1667 1045.5,63.5 Z"/></g>
<g><path style="opacity:0.004" fill="#000000" d="M 1281.5,64.5 C 1280.83,63.1667 1280.83,63.1667 1281.5,64.5 Z"/></g>
<g><path style="opacity:0.008" fill="#000000" d="M 383.5,64.5 C 384.833,65.1667 384.833,65.1667 383.5,64.5 Z"/></g>
<g><path style="opacity:0.803" fill="#231e1e" d="M 466.5,79.5 C 474.433,79.0368 475.6,81.7035 470,87.5C 467.133,89.8889 463.8,91.2222 460,91.5C 456.185,90.8362 452.685,89.5029 449.5,87.5C 448.414,83.7975 447.748,79.9642 447.5,76C 447.247,71.2385 447.914,67.4052 449.5,64.5C 450.833,64.5 451.5,63.8333 451.5,62.5C 465.37,57.418 472.87,62.0846 474,76.5C 471.666,78.02 469.166,79.02 466.5,79.5 Z M 456.5,68.5 C 460.586,67.8456 463.919,69.0122 466.5,72C 462.309,72.9216 458.309,72.5882 454.5,71C 455.381,70.2917 456.047,69.4584 456.5,68.5 Z M 466.5,79.5 C 465.194,80.4674 464.527,81.8007 464.5,83.5C 461.813,83.6641 459.146,83.4974 456.5,83C 455.446,81.6124 455.28,80.1124 456,78.5C 459.394,79.4558 462.894,79.7892 466.5,79.5 Z"/></g>
<g><path style="opacity:0.884" fill="#221e1f" d="M 528.5,51.5 C 531.167,51.5 533.833,51.5 536.5,51.5C 536.335,55.1817 536.501,58.8484 537,62.5C 538.87,61.2565 541.036,60.5899 543.5,60.5C 547.165,60.2332 549.832,60.8999 551.5,62.5C 553.327,71.6808 553.994,81.0141 553.5,90.5C 550.833,90.5 548.167,90.5 545.5,90.5C 545.5,83.1667 545.5,75.8333 545.5,68.5C 542.813,68.3359 540.146,68.5026 537.5,69C 537.833,69.3333 538.167,69.6667 538.5,70C 536.562,76.5485 535.895,83.3818 536.5,90.5C 533.833,90.5 531.167,90.5 528.5,90.5C 528.5,77.5 528.5,64.5 528.5,51.5 Z"/></g>
<g><path style="opacity:0.793" fill="#221e1f" d="M 1307.5,84.5 C 1307.5,86.5 1307.5,88.5 1307.5,90.5C 1304.5,90.5 1301.5,90.5 1298.5,90.5C 1298.65,89.448 1298.48,88.448 1298,87.5C 1291.94,93.0415 1286.11,92.7082 1280.5,86.5C 1278.26,79.9877 1280.26,75.4877 1286.5,73C 1284.87,72.5065 1283.2,72.3398 1281.5,72.5C 1281.5,69.8333 1281.5,67.1667 1281.5,64.5C 1282.83,64.5 1283.5,63.8333 1283.5,62.5C 1289,60.6456 1294.67,60.1456 1300.5,61C 1300.17,61.3333 1299.83,61.6667 1299.5,62C 1301.08,62.4396 1302.41,63.273 1303.5,64.5C 1304.33,71.1419 1304.83,77.8085 1305,84.5C 1305.77,83.4019 1306.6,83.4019 1307.5,84.5 Z M 1288.5,69.5 C 1290.95,68.5269 1293.61,68.1936 1296.5,68.5C 1296.5,69.8333 1296.5,71.1667 1296.5,72.5C 1293.48,72.6646 1290.48,72.498 1287.5,72C 1289,71.1618 1289.33,70.3285 1288.5,69.5 Z M 1293.5,77.5 C 1294.5,77.5 1295.5,77.5 1296.5,77.5C 1296.74,79.4672 1296.41,81.3005 1295.5,83C 1292.85,83.4974 1290.19,83.6641 1287.5,83.5C 1287.5,82.1667 1287.5,80.8333 1287.5,79.5C 1290.01,79.9465 1292.01,79.2798 1293.5,77.5 Z"/></g>
<g><path style="opacity:0.537" fill="#221e1f" d="M 419.5,60.5 C 419.5,70.5 419.5,80.5 419.5,90.5C 413.824,90.6661 408.157,90.4994 402.5,90C 401.23,89.1004 400.23,87.9337 399.5,86.5C 399.143,78.7277 397.809,71.2277 395.5,64C 397.702,60.9596 398.702,57.4596 398.5,53.5C 401.167,53.5 403.833,53.5 406.5,53.5C 406.336,56.1873 406.503,58.854 407,61.5C 410.969,61.0639 415.135,60.7305 419.5,60.5 Z M 410.5,66.5 C 411.653,72.6529 411.82,78.9863 411,85.5C 409.951,83.8934 408.451,83.2267 406.5,83.5C 406.5,78.5 406.5,73.5 406.5,68.5C 408.483,68.8432 409.817,68.1765 410.5,66.5 Z"/></g>
<g><path style="opacity:0.77" fill="#221e1f" d="M 706.5,60.5 C 711.179,60.3342 715.845,60.5008 720.5,61C 720.167,61.3333 719.833,61.6667 719.5,62C 721.521,62.513 723.021,63.6797 724,65.5C 724.333,71.5 724.667,77.5 725,83.5C 725.667,84.8333 726.333,84.8333 727,83.5C 727.497,85.8098 727.663,88.1432 727.5,90.5C 724.212,90.927 721.212,90.2603 718.5,88.5C 705.387,94.4665 699.721,90.4665 701.5,76.5C 702.817,74.8409 704.483,73.6743 706.5,73C 704.833,72.6667 703.167,72.3333 701.5,72C 700.941,71.2753 700.608,70.4419 700.5,69.5C 701.795,65.8751 703.795,62.8751 706.5,60.5 Z M 708.5,68.5 C 711.5,68.5 714.5,68.5 717.5,68.5C 716.981,71.7749 714.981,73.1083 711.5,72.5C 710.167,72.1667 708.833,71.8333 707.5,71.5C 708.127,70.5832 708.461,69.5832 708.5,68.5 Z M 713.5,77.5 C 714.833,77.5 716.167,77.5 717.5,77.5C 717.672,79.4918 717.005,81.1585 715.5,82.5C 712.914,83.48 710.247,83.8134 707.5,83.5C 707.5,82.1667 707.5,80.8333 707.5,79.5C 710.01,79.9465 712.01,79.2798 713.5,77.5 Z"/></g>
<g><path style="opacity:0.832" fill="#231e1f" d="M 1100.5,62.5 C 1100.35,63.552 1100.52,64.552 1101,65.5C 1101.33,65.1667 1101.67,64.8333 1102,64.5C 1102.5,73.1603 1102.67,81.8269 1102.5,90.5C 1099.83,90.5 1097.17,90.5 1094.5,90.5C 1094.5,83.1667 1094.5,75.8333 1094.5,68.5C 1091.03,67.9629 1088.19,68.9629 1086,71.5C 1085.5,77.8246 1085.33,84.1579 1085.5,90.5C 1082.83,90.5 1080.17,90.5 1077.5,90.5C 1077.33,80.8276 1077.5,71.1609 1078,61.5C 1081.03,59.9836 1083.87,60.3169 1086.5,62.5C 1087.7,62.1543 1087.7,61.6543 1086.5,61C 1091.39,60.0971 1096.06,60.5971 1100.5,62.5 Z"/></g>
<g><path style="opacity:0.877" fill="#231e1f" d="M 1163.5,49.5 C 1165.48,49.484 1166.48,50.484 1166.5,52.5C 1164.69,55.478 1162.36,57.978 1159.5,60C 1164.17,60.2364 1168.17,62.403 1171.5,66.5C 1173.16,72.8874 1173.33,79.2208 1172,85.5C 1171.67,85.1667 1171.33,84.8333 1171,84.5C 1166.36,91.3186 1160.19,92.9853 1152.5,89.5C 1143.17,80.5 1143.17,71.5 1152.5,62.5C 1153.73,58.9388 1155.4,55.6055 1157.5,52.5C 1159.97,52.0358 1161.97,51.0358 1163.5,49.5 Z M 1155.5,68.5 C 1158.5,68.5 1161.5,68.5 1164.5,68.5C 1164.5,69.8333 1164.5,71.1667 1164.5,72.5C 1161.1,72.8204 1157.77,72.487 1154.5,71.5C 1155.13,70.5832 1155.46,69.5832 1155.5,68.5 Z M 1155.5,78.5 C 1158.39,79.4025 1161.39,79.7359 1164.5,79.5C 1164.5,80.8333 1164.5,82.1667 1164.5,83.5C 1161.5,83.5 1158.5,83.5 1155.5,83.5C 1155.5,81.8333 1155.5,80.1667 1155.5,78.5 Z"/></g>
<g><path style="opacity:0.004" fill="#000000" d="M 421.5,68.5 C 422.833,69.1667 422.833,69.1667 421.5,68.5 Z"/></g>
<g><path style="opacity:0.007" fill="#000000" d="M 669.5,68.5 C 670.648,72.9811 670.815,77.6478 670,82.5C 669.501,77.8452 669.334,73.1785 669.5,68.5 Z"/></g>
<g><path style="opacity:0.782" fill="#221e1f" d="M 1247.5,62.5 C 1248.91,72.535 1250.25,81.8683 1251.5,90.5C 1248.31,90.9804 1245.48,90.3137 1243,88.5C 1237.49,92.4215 1231.99,92.4215 1226.5,88.5C 1222.86,81.2553 1224.52,75.922 1231.5,72.5C 1229.47,72.6621 1227.47,72.4955 1225.5,72C 1224.94,71.2753 1224.61,70.4419 1224.5,69.5C 1225.61,67.6096 1226.45,65.6096 1227,63.5C 1228.4,62.7734 1229.9,62.2734 1231.5,62C 1231.17,61.6667 1230.83,61.3333 1230.5,61C 1236.33,60.1456 1242,60.6456 1247.5,62.5 Z M 1231.5,72.5 C 1232.23,71.2921 1232.57,69.9587 1232.5,68.5C 1235.85,68.335 1239.18,68.5017 1242.5,69C 1241.83,70 1241.17,71 1240.5,72C 1237.52,72.498 1234.52,72.6646 1231.5,72.5 Z M 1237.5,77.5 C 1242.69,76.9355 1243.69,78.6021 1240.5,82.5C 1237.91,83.48 1235.25,83.8134 1232.5,83.5C 1232.5,82.1667 1232.5,80.8333 1232.5,79.5C 1234.7,79.8799 1236.36,79.2132 1237.5,77.5 Z"/></g>
<g><path style="opacity:0.786" fill="#221e1f" d="M 304.5,62.5 C 306.327,71.6808 306.994,81.0141 306.5,90.5C 303.833,90.5 301.167,90.5 298.5,90.5C 298.5,83.1667 298.5,75.8333 298.5,68.5C 295.289,68.012 292.456,68.6787 290,70.5C 289.5,77.1583 289.334,83.825 289.5,90.5C 286.833,90.5 284.167,90.5 281.5,90.5C 281.5,80.5 281.5,70.5 281.5,60.5C 284.466,60.1103 287.132,60.777 289.5,62.5C 291.454,61.3203 293.621,60.6537 296,60.5C 298.951,60.8825 301.785,61.5492 304.5,62.5 Z"/></g>
<g><path style="opacity:0.004" fill="#000000" d="M 683.5,70.5 C 684.833,71.1667 684.833,71.1667 683.5,70.5 Z"/></g>
<g><path style="opacity:0.004" fill="#000000" d="M 645.5,72.5 C 644.833,73.1667 644.833,73.1667 645.5,72.5 Z"/></g>
<g><path style="opacity:0.004" fill="#000000" d="M 755.5,72.5 C 756.833,73.1667 756.833,73.1667 755.5,72.5 Z"/></g>
<g><path style="opacity:0.004" fill="#000000" d="M 933.5,72.5 C 934.833,73.1667 934.833,73.1667 933.5,72.5 Z"/></g>
<g><path style="opacity:0.004" fill="#000000" d="M 1223.5,72.5 C 1224.83,73.1667 1224.83,73.1667 1223.5,72.5 Z"/></g>
<g><path style="opacity:0.004" fill="#000000" d="M 1281.5,72.5 C 1280.83,73.1667 1280.83,73.1667 1281.5,72.5 Z"/></g>
<g><path style="opacity:0.759" fill="#221e1f" d="M 1342.5,72.5 C 1340.5,72.5 1338.5,72.5 1336.5,72.5C 1336.76,69.0678 1337.42,65.7345 1338.5,62.5C 1340.89,60.9417 1344.22,60.275 1348.5,60.5C 1351.96,60.801 1355.29,61.4676 1358.5,62.5C 1360.06,71.7065 1361.39,81.0399 1362.5,90.5C 1359.31,90.9804 1356.48,90.3137 1354,88.5C 1344.98,93.4934 1338.48,91.3267 1334.5,82C 1335.58,77.4274 1338.24,74.2607 1342.5,72.5 Z M 1342.5,72.5 C 1343.23,71.2921 1343.57,69.9587 1343.5,68.5C 1346.9,68.1796 1350.23,68.513 1353.5,69.5C 1353.02,70.4776 1352.36,71.3109 1351.5,72C 1348.52,72.498 1345.52,72.6646 1342.5,72.5 Z M 1348.5,77.5 C 1350.17,77.5 1351.83,77.5 1353.5,77.5C 1352.83,79.5 1352.17,81.5 1351.5,83.5C 1348.83,83.5 1346.17,83.5 1343.5,83.5C 1343.5,82.1667 1343.5,80.8333 1343.5,79.5C 1345.78,79.9227 1347.45,79.256 1348.5,77.5 Z"/></g>
<g><path style="opacity:0.742" fill="#221e1f" d="M 1332.5,51.5 C 1332.5,64.5 1332.5,77.5 1332.5,90.5C 1330.08,90.7076 1327.75,90.3742 1325.5,89.5C 1318.23,92.2961 1312.23,90.6294 1307.5,84.5C 1305.69,77.3895 1306.69,70.7228 1310.5,64.5C 1311.59,63.273 1312.92,62.4396 1314.5,62C 1314.17,61.6667 1313.83,61.3333 1313.5,61C 1317.09,60.2114 1320.59,60.3781 1324,61.5C 1324.5,61 1325,60.5 1325.5,60C 1322.51,52.8432 1324.84,50.0099 1332.5,51.5 Z M 1316.5,68.5 C 1319.98,67.9159 1322.98,68.7492 1325.5,71C 1324.17,74.3333 1324.17,77.6667 1325.5,81C 1322.71,83.6377 1319.54,84.1377 1316,82.5C 1315.23,77.7481 1315.39,73.0815 1316.5,68.5 Z"/></g>
<g><path style="opacity:0.004" fill="#000000" d="M 445.5,75.5 C 446.833,76.1667 446.833,76.1667 445.5,75.5 Z"/></g>
<g><path style="opacity:0.73" fill="#221e1f" d="M 923.5,49.5 C 928.374,50.2912 933.041,51.7912 937.5,54C 940.506,56.8489 941.839,60.3489 941.5,64.5C 936.899,65.2418 933.566,63.5751 931.5,59.5C 926.602,56.7938 922.269,57.4605 918.5,61.5C 914.582,68.0183 914.582,74.5183 918.5,81C 922.211,83.5064 926.211,84.0064 930.5,82.5C 932.86,80.3017 934.193,77.635 934.5,74.5C 936.833,74.5 939.167,74.5 941.5,74.5C 942.083,81.7498 939.083,86.9165 932.5,90C 917.032,93.21 908.699,86.8766 907.5,71C 907.359,65.2866 909.026,60.12 912.5,55.5C 916.242,53.2841 919.909,51.2841 923.5,49.5 Z"/></g>
<g><path style="opacity:0.004" fill="#000000" d="M 919.5,78.5 C 920.833,79.1667 920.833,79.1667 919.5,78.5 Z"/></g>
<g><path style="opacity:0.794" fill="#221e1f" d="M 1021.5,60.5 C 1018.77,73.4025 1014.1,86.4025 1007.5,99.5C 1003.83,99.5 1000.17,99.5 996.5,99.5C 996.338,97.4727 996.505,95.4727 997,93.5C 998.751,92.1912 1000.25,92.5245 1001.5,94.5C 1003.17,93.0079 1004.17,91.1745 1004.5,89C 1001.47,81.2296 998.632,73.3962 996,65.5C 995.667,65.8333 995.333,66.1667 995,66.5C 993.516,62.4505 994.849,60.4505 999,60.5C 1000.72,60.7483 1002.22,61.415 1003.5,62.5C 1005.37,67.7892 1007.04,73.1226 1008.5,78.5C 1009.93,74.176 1011.1,69.8426 1012,65.5C 1012.33,65.8333 1012.67,66.1667 1013,66.5C 1013.5,64.5273 1013.66,62.5273 1013.5,60.5C 1016.17,60.5 1018.83,60.5 1021.5,60.5 Z"/></g>
<g><path style="opacity:0.004" fill="#000000" d="M 1130.5,78.5 C 1131.83,79.1667 1131.83,79.1667 1130.5,78.5 Z"/></g>
<g><path style="opacity:0.831" fill="#221e1f" d="M 370.5,49.5 C 372.372,51.0615 374.705,52.0615 377.5,52.5C 382.17,55.1927 384.17,59.1927 383.5,64.5C 380.833,64.5 378.167,64.5 375.5,64.5C 375.643,62.7376 375.309,61.0709 374.5,59.5C 363.544,55.7753 358.211,59.7753 358.5,71.5C 358.227,81.3956 362.893,85.2289 372.5,83C 375.125,80.8038 376.125,77.9705 375.5,74.5C 378.833,74.5 382.167,74.5 385.5,74.5C 382.407,89.6016 373.074,94.2682 357.5,88.5C 346.329,75.7392 346.995,63.7392 359.5,52.5C 363.179,51.4008 366.846,50.4008 370.5,49.5 Z"/></g>
<g><path style="opacity:0.735" fill="#231e20" d="M 762.5,72.5 C 760.833,72.5 759.167,72.5 757.5,72.5C 756.348,67.5008 758.015,64.0008 762.5,62C 762.167,61.6667 761.833,61.3333 761.5,61C 766.202,60.1717 770.869,60.3384 775.5,61.5C 776.934,62.2298 778.1,63.2298 779,64.5C 779.5,70.8246 779.666,77.1579 779.5,83.5C 780.833,83.5 782.167,83.5 783.5,83.5C 783.5,85.8333 783.5,88.1667 783.5,90.5C 780.813,90.6641 778.146,90.4974 775.5,90C 774.874,89.2496 774.374,88.4162 774,87.5C 767.153,93.324 761.153,92.6574 756,85.5C 754.476,79.2151 756.642,74.8817 762.5,72.5 Z M 768.5,77.5 C 769.833,77.5 771.167,77.5 772.5,77.5C 772.643,79.2624 772.309,80.9291 771.5,82.5C 768.572,83.4841 765.572,83.8174 762.5,83.5C 762.351,82.448 762.517,81.448 763,80.5C 765.326,80.12 767.159,79.12 768.5,77.5 Z M 762.5,72.5 C 763.806,71.5326 764.473,70.1993 764.5,68.5C 767.167,68.5 769.833,68.5 772.5,68.5C 772.67,69.8221 772.337,70.9887 771.5,72C 768.518,72.498 765.518,72.6646 762.5,72.5 Z"/></g>
<g><path style="opacity:0.766" fill="#221f1f" d="M 259.5,60.5 C 264.179,60.3342 268.845,60.5008 273.5,61C 273.167,61.3333 272.833,61.6667 272.5,62C 274.521,62.513 276.021,63.6797 277,65.5C 277.499,71.4908 277.666,77.4908 277.5,83.5C 278.5,83.5 279.5,83.5 280.5,83.5C 280.5,85.8333 280.5,88.1667 280.5,90.5C 277.212,90.927 274.212,90.2603 271.5,88.5C 258.36,94.4547 252.693,90.4547 254.5,76.5C 255.817,74.8409 257.483,73.6743 259.5,73C 257.833,72.6667 256.167,72.3333 254.5,72C 253.978,71.4387 253.645,70.772 253.5,70C 254.687,66.1943 256.687,63.0276 259.5,60.5 Z M 266.5,77.5 C 267.833,77.5 269.167,77.5 270.5,77.5C 270.672,79.4918 270.005,81.1585 268.5,82.5C 265.914,83.48 263.247,83.8134 260.5,83.5C 260.5,82.1667 260.5,80.8333 260.5,79.5C 263.01,79.9465 265.01,79.2798 266.5,77.5 Z M 262.5,68.5 C 265.167,68.5 267.833,68.5 270.5,68.5C 270.427,71.9496 268.594,73.283 265,72.5C 260.469,72.752 259.635,71.4186 262.5,68.5 Z"/></g>
<g><path style="opacity:0.769" fill="#221e1f" d="M 630.5,81.5 C 633.543,80.2562 634.876,77.9229 634.5,74.5C 637.572,74.1826 640.572,74.5159 643.5,75.5C 642.2,79.3123 640.533,82.979 638.5,86.5C 629.893,93.4497 620.893,93.1163 611.5,85.5C 609.899,80.7077 608.566,75.8744 607.5,71C 608.006,58.6618 614.339,51.4951 626.5,49.5C 631.745,50.5118 636.245,52.8451 640,56.5C 641.252,59.0135 641.752,61.6802 641.5,64.5C 639.167,64.5 636.833,64.5 634.5,64.5C 633.833,62.5 633.167,60.5 632.5,58.5C 621.95,55.8778 616.95,60.0444 617.5,71C 616.086,78.2284 618.919,82.3951 626,83.5C 627.986,83.4313 629.486,82.7647 630.5,81.5 Z"/></g>
<g><path style="opacity:0.004" fill="#000000" d="M 630.5,81.5 C 629.833,80.1667 629.833,80.1667 630.5,81.5 Z"/></g>
<g><path style="opacity:0.004" fill="#fe0000" d="M 89.5,83.5 C 89.1034,84.525 88.4368,84.6917 87.5,84C 88.0944,83.5357 88.7611,83.369 89.5,83.5 Z"/></g>
<g><path style="opacity:0.004" fill="#000000" d="M 352.5,85.5 C 353.833,86.1667 353.833,86.1667 352.5,85.5 Z"/></g>
<g><path style="opacity:0.004" fill="#000000" d="M 611.5,85.5 C 610.833,86.1667 610.833,86.1667 611.5,85.5 Z"/></g>
<g><path style="opacity:1" fill="#231e1f" d="M 1130.5,67.5 C 1130.5,71.1667 1130.5,74.8333 1130.5,78.5C 1127.94,78.1984 1125.61,78.5318 1123.5,79.5C 1125.83,79.5 1128.17,79.5 1130.5,79.5C 1127.9,90.0501 1121.4,93.3834 1111,89.5C 1104.76,84.5581 1102.93,78.2248 1105.5,70.5C 1108.35,61.6664 1114.69,58.6664 1124.5,61.5C 1126.55,63.548 1128.55,65.548 1130.5,67.5 Z M 1123.5,79.5 C 1123.46,80.5832 1123.13,81.5832 1122.5,82.5C 1119.57,83.4841 1116.57,83.8174 1113.5,83.5C 1113.5,82.1667 1113.5,80.8333 1113.5,79.5C 1116.83,79.5 1120.17,79.5 1123.5,79.5 Z M 1113.5,68.5 C 1116.57,68.1826 1119.57,68.5159 1122.5,69.5C 1122.83,70.1667 1123.17,70.8333 1123.5,71.5C 1120.23,72.487 1116.9,72.8204 1113.5,72.5C 1113.5,71.1667 1113.5,69.8333 1113.5,68.5 Z"/></g>
<g><path style="opacity:0.004" fill="#000000" d="M 1130.5,85.5 C 1131.83,86.1667 1131.83,86.1667 1130.5,85.5 Z"/></g>
<g><path style="opacity:0.004" fill="#000000" d="M 308.5,87.5 C 309.833,88.1667 309.833,88.1667 308.5,87.5 Z"/></g>
<g><path style="opacity:0.004" fill="#000000" d="M 449.5,87.5 C 448.833,88.1667 448.833,88.1667 449.5,87.5 Z"/></g>
<g><path style="opacity:0.004" fill="#000000" d="M 591.5,87.5 C 592.833,88.1667 592.833,88.1667 591.5,87.5 Z"/></g>
<g><path style="opacity:0.004" fill="#000000" d="M 938.5,87.5 C 939.833,88.1667 939.833,88.1667 938.5,87.5 Z"/></g>
<g><path style="opacity:0.004" fill="#000000" d="M 1045.5,87.5 C 1046.83,88.1667 1046.83,88.1667 1045.5,87.5 Z"/></g>
<g><path style="opacity:0.004" fill="#000000" d="M 1191.5,87.5 C 1192.83,88.1667 1192.83,88.1667 1191.5,87.5 Z"/></g>
<g><path style="opacity:0.004" fill="#000000" d="M 310.5,89.5 C 311.833,90.1667 311.833,90.1667 310.5,89.5 Z"/></g>
<g><path style="opacity:0.004" fill="#000000" d="M 589.5,89.5 C 590.833,90.1667 590.833,90.1667 589.5,89.5 Z"/></g>
<g><path style="opacity:0.004" fill="#000000" d="M 936.5,89.5 C 937.833,90.1667 937.833,90.1667 936.5,89.5 Z"/></g>
<g><path style="opacity:0.004" fill="#000000" d="M 991.5,89.5 C 992.833,90.1667 992.833,90.1667 991.5,89.5 Z"/></g>
<g><path style="opacity:0.004" fill="#000000" d="M 1280.5,89.5 C 1281.83,90.1667 1281.83,90.1667 1280.5,89.5 Z"/></g>
<g><path style="opacity:0.004" fill="#000000" d="M 1251.5,91.5 C 1252.83,92.1667 1252.83,92.1667 1251.5,91.5 Z"/></g>
</svg>
