<?xml version="1.0" encoding="UTF-8"?><svg id="a" xmlns="http://www.w3.org/2000/svg" viewBox="0 0 1227.64 100"><path d="M84.38,16.2s-5.03,9.69-5.7,10.68c-.67,1.34-1.34,1.34-2.35.67-1.34-.67-5.37-3-5.37-3,0,0,3.7,16.02,3.7,17.35.32,1.34-1.02,2.34-2.36,1.34-.33-.33-7.38-8.35-7.38-8.35,0,0-1.68,3.67-2.02,4.34-.34.67-.67,1.33-1.68,1-1.34-.33-7.72-1.67-7.72-1.67,0,0,2.36,8,2.69,9.01.33.79.67,1.66-.67,2.34l-2.34,1.01s13.75,12.04,14.09,12.37c.67.67,1.34,1.01.67,3.02-.67,2.01-1.34,4.71-1.34,4.71,0,0,12.75-2.69,14.09-3.03,1.18-.12,2.45.34,2.45,1.68s-.78,15.11-.78,15.11h4.03s-.78-13.75-.78-15.11,1.27-1.8,2.46-1.68c1.34.34,14.09,3.03,14.09,3.03,0,0-.67-2.69-1.34-4.71-.67-2.01,0-2.35.67-3.02.34-.33,14.09-12.37,14.09-12.37l-2.35-1.01c-1.34-.67-.99-1.54-.67-2.34.32-1.01,2.69-9.01,2.69-9.01,0,0-6.39,1.34-7.72,1.67-1,.33-1.34-.33-1.68-1-.33-.67-2.01-4.34-2.01-4.34,0,0-7.05,8.02-7.38,8.35-1.34,1-2.68,0-2.35-1.34,0-1.33,3.7-17.35,3.7-17.35,0,0-4.03,2.33-5.36,3-1,.67-1.69.67-2.35-.67-.67-.99-5.71-10.68-5.71-10.68" style="fill:#ed1c24; fill-rule:evenodd;"/><rect x="3.18" y="10.18" width="40.59" height="80.63" style="fill:#ed1c24;"/><rect x="124.98" y="10.18" width="40.6" height="80.63" style="fill:#ed1c24;"/><polygon points="237.15 10.2 243.16 10.2 253.56 37.93 264.01 10.2 270.01 10.2 270.01 43.2 265.86 43.2 265.86 15.75 265.76 15.75 255.46 43.2 251.71 43.2 241.41 15.75 241.32 15.75 241.32 43.2 237.15 43.2 237.15 10.2" style="fill:#231f20;"/><path d="M280.85,15.01h-3.93v-4.81h3.93v4.81ZM276.92,19.31h3.93v23.9h-3.93v-23.9Z" style="fill:#231f20;"/><path d="M286.96,19.31h3.7v3.79h.09c1.66-2.96,4.35-4.34,7.77-4.34,6.28,0,8.22,3.61,8.22,8.74v15.72h-3.93v-16.18c0-2.91-1.85-4.81-4.86-4.81-4.76,0-7.07,3.19-7.07,7.49v13.5h-3.93v-23.9Z" style="fill:#231f20;"/><path d="M316.83,15.01h-3.93v-4.81h3.93v4.81ZM312.9,19.31h3.93v23.9h-3.93v-23.9Z" style="fill:#231f20;"/><path d="M325.34,35.67c.14,3.51,3.19,4.62,6.42,4.62,2.45,0,5.78-.55,5.78-3.56s-3.88-3.56-7.81-4.44c-3.88-.88-7.81-2.17-7.81-6.75,0-4.81,4.76-6.8,8.92-6.8,5.27,0,9.48,1.66,9.8,7.49h-3.93c-.28-3.05-2.96-4.02-5.55-4.02-2.36,0-5.08.65-5.08,3.05,0,2.82,4.16,3.28,7.81,4.16,3.93.88,7.81,2.17,7.81,6.79,0,5.68-5.31,7.53-10.17,7.53-5.36,0-9.89-2.17-10.12-8.09h3.93Z" style="fill:#231f20;"/><path d="M351.51,19.31h4.76v3.46h-4.76v14.84c0,1.8.51,2.12,2.96,2.12h1.8v3.47h-3c-4.07,0-5.68-.83-5.68-5.23v-15.21h-4.07v-3.46h4.07v-7.16h3.93v7.16Z" style="fill:#231f20;"/><path d="M381.01,35.62c-1.06,5.27-4.86,8.14-10.22,8.14-7.63,0-11.23-5.27-11.46-12.57,0-7.16,4.72-12.44,11.23-12.44,8.46,0,11.04,7.91,10.82,13.68h-17.89c-.14,4.16,2.22,7.86,7.44,7.86,3.24,0,5.5-1.57,6.19-4.67h3.88ZM377.21,28.97c-.18-3.74-3.01-6.75-6.89-6.75-4.11,0-6.56,3.09-6.84,6.75h13.73ZM363.9,9.42h5.04l3.98,6.61h-2.96l-6.05-6.61Z" style="fill:#231f20;"/><path d="M385.32,19.31h3.7v5.04h.09c1.9-3.84,4.53-5.73,8.78-5.6v4.16c-6.33,0-8.64,3.6-8.64,9.66v10.63h-3.93v-23.9Z" style="fill:#231f20;"/><path d="M420.4,35.62c-1.06,5.27-4.85,8.14-10.21,8.14-7.63,0-11.23-5.27-11.46-12.57,0-7.16,4.72-12.44,11.23-12.44,8.46,0,11.04,7.9,10.82,13.68h-17.89c-.14,4.16,2.22,7.86,7.44,7.86,3.23,0,5.5-1.57,6.19-4.67h3.88ZM416.62,28.97c-.18-3.75-3.01-6.75-6.89-6.75-4.11,0-6.56,3.09-6.84,6.75h13.73Z" style="fill:#231f20;"/><path d="M459.06,43.2h-3.93v-3.23h-.09c-1.29,2.64-4.34,3.79-7.63,3.79-7.35,0-11-5.82-11-12.57s3.61-12.43,10.91-12.43c2.45,0,5.96.92,7.72,3.74h.09v-12.29h3.93v33ZM447.97,40.29c5.27,0,7.3-4.53,7.3-9.01,0-4.72-2.13-9.06-7.53-9.06s-7.16,4.57-7.16,9.24,2.31,8.83,7.4,8.83" style="fill:#231f20;"/><path d="M485.51,35.62c-1.06,5.27-4.85,8.14-10.21,8.14-7.63,0-11.23-5.27-11.46-12.57,0-7.16,4.72-12.44,11.23-12.44,8.46,0,11.05,7.9,10.82,13.68h-17.89c-.14,4.16,2.22,7.86,7.44,7.86,3.24,0,5.5-1.57,6.2-4.67h3.88ZM481.73,28.97c-.18-3.75-3.01-6.75-6.89-6.75-4.11,0-6.56,3.09-6.84,6.75h13.73Z" style="fill:#231f20;"/><rect x="503.05" y="10.2" width="3.93" height="33" style="fill:#231f20;"/><path d="M534.25,43.11c-.69.42-1.57.65-2.82.65-2.03,0-3.33-1.11-3.33-3.7-2.18,2.54-5.09,3.7-8.42,3.7-4.34,0-7.9-1.94-7.9-6.7,0-5.41,4.02-6.56,8.09-7.35,4.34-.83,8.04-.55,8.04-3.51,0-3.42-2.82-3.98-5.31-3.98-3.33,0-5.78,1.02-5.96,4.53h-3.93c.23-5.92,4.81-8,10.12-8,4.3,0,8.97.97,8.97,6.57v12.29c0,1.85,0,2.68,1.25,2.68.32,0,.69-.05,1.2-.23v3.05ZM527.88,30.86c-1.53,1.11-4.49,1.16-7.12,1.61-2.59.47-4.8,1.39-4.8,4.3,0,2.59,2.22,3.51,4.62,3.51,5.18,0,7.3-3.24,7.3-5.41v-4.02Z" style="fill:#231f20;"/><path d="M568.2,34.98c0,4.48-2.35,9.01-9.75,9.01-6.15,0-9.61-3.42-9.61-9.61v-2.03h4.39v1.39c0,3.83,1.02,6.56,5.31,6.56,4.02,0,5.27-2.31,5.27-5.96V10.2h4.39v24.78Z" style="fill:#231f20;"/><path d="M594.56,43.2h-3.7v-3.79h-.09c-1.67,2.96-4.35,4.34-7.77,4.34-6.29,0-8.23-3.61-8.23-8.74v-15.72h3.93v16.18c0,2.91,1.85,4.81,4.85,4.81,4.76,0,7.07-3.19,7.07-7.49v-13.5h3.93v23.9Z" style="fill:#231f20;"/><path d="M602.89,35.67c.14,3.51,3.19,4.62,6.43,4.62,2.45,0,5.78-.55,5.78-3.56s-3.88-3.56-7.81-4.44c-3.88-.88-7.82-2.17-7.82-6.75,0-4.81,4.76-6.8,8.92-6.8,5.27,0,9.48,1.66,9.8,7.49h-3.93c-.28-3.05-2.96-4.02-5.55-4.02-2.36,0-5.09.65-5.09,3.05,0,2.82,4.16,3.28,7.81,4.16,3.93.88,7.81,2.17,7.81,6.79,0,5.68-5.31,7.53-10.17,7.53-5.36,0-9.89-2.17-10.12-8.09h3.93Z" style="fill:#231f20;"/><path d="M629.06,19.31h4.76v3.46h-4.76v14.84c0,1.8.51,2.12,2.96,2.12h1.8v3.47h-3c-4.07,0-5.68-.83-5.68-5.23v-15.21h-4.07v-3.46h4.07v-7.16h3.93v7.16Z" style="fill:#231f20;"/><path d="M642.34,15.01h-3.93v-4.81h3.93v4.81ZM638.41,19.31h3.93v23.9h-3.93v-23.9Z" style="fill:#231f20;"/><path d="M664.66,26.98c-.6-3.01-2.68-4.76-5.92-4.76-5.69,0-7.45,4.48-7.45,9.33,0,4.39,1.99,8.74,6.98,8.74,3.79,0,6.05-2.22,6.56-5.82h4.02c-.88,5.82-4.53,9.29-10.54,9.29-7.3,0-11.18-5.09-11.18-12.2s3.7-12.8,11.28-12.8c5.41,0,9.75,2.54,10.3,8.23h-4.07Z" style="fill:#231f20;"/><path d="M693.66,35.62c-1.06,5.27-4.85,8.14-10.21,8.14-7.63,0-11.23-5.27-11.46-12.57,0-7.16,4.72-12.44,11.23-12.44,8.46,0,11.05,7.9,10.82,13.68h-17.89c-.13,4.16,2.22,7.86,7.45,7.86,3.23,0,5.5-1.57,6.19-4.67h3.88ZM689.87,28.97c-.18-3.75-3-6.75-6.89-6.75-4.11,0-6.56,3.09-6.84,6.75h13.73Z" style="fill:#231f20;"/><path d="M260.26,67.73c-.92-4.67-4.67-7.02-9.24-7.02-7.86,0-11.19,6.47-11.19,13.35,0,7.53,3.33,13.82,11.23,13.82,5.78,0,9.11-4.07,9.52-9.52h4.39c-.83,8.23-5.97,13.22-14.28,13.22-10.26,0-15.25-7.58-15.25-17.2s5.45-17.38,15.62-17.38c6.89,0,12.57,3.7,13.59,10.72h-4.39Z" style="fill:#231f20;"/><path d="M290.97,90.71c-.69.41-1.57.65-2.82.65-2.03,0-3.33-1.11-3.33-3.7-2.17,2.54-5.08,3.7-8.41,3.7-4.34,0-7.9-1.94-7.9-6.71,0-5.41,4.02-6.56,8.09-7.35,4.35-.83,8.04-.55,8.04-3.51,0-3.42-2.82-3.97-5.31-3.97-3.33,0-5.78,1.02-5.97,4.53h-3.93c.23-5.92,4.81-8,10.12-8,4.3,0,8.97.97,8.97,6.57v12.29c0,1.85,0,2.68,1.24,2.68.32,0,.69-.05,1.2-.23v3.05ZM284.59,78.46c-1.53,1.11-4.49,1.15-7.12,1.62-2.59.46-4.81,1.38-4.81,4.3,0,2.59,2.22,3.51,4.62,3.51,5.18,0,7.3-3.24,7.3-5.41v-4.02Z" style="fill:#231f20;"/><path d="M294.64,66.9h3.7v3.79h.09c1.66-2.96,4.35-4.34,7.77-4.34,6.28,0,8.22,3.61,8.22,8.74v15.71h-3.93v-16.17c0-2.91-1.85-4.81-4.86-4.81-4.76,0-7.07,3.19-7.07,7.48v13.5h-3.93v-23.89Z" style="fill:#231f20;"/><path d="M341.51,90.71c-.69.41-1.57.65-2.82.65-2.03,0-3.33-1.11-3.33-3.7-2.17,2.54-5.08,3.7-8.41,3.7-4.34,0-7.9-1.94-7.9-6.71,0-5.41,4.02-6.56,8.09-7.35,4.35-.83,8.04-.55,8.04-3.51,0-3.42-2.82-3.97-5.31-3.97-3.33,0-5.78,1.02-5.97,4.53h-3.93c.23-5.92,4.81-8,10.12-8,4.3,0,8.97.97,8.97,6.57v12.29c0,1.85,0,2.68,1.24,2.68.32,0,.69-.05,1.2-.23v3.05ZM335.14,78.46c-1.53,1.11-4.49,1.15-7.12,1.62-2.59.46-4.81,1.38-4.81,4.3,0,2.59,2.22,3.51,4.62,3.51,5.18,0,7.3-3.24,7.3-5.41v-4.02Z" style="fill:#231f20;"/><path d="M366.53,90.8h-3.93v-3.23h-.09c-1.29,2.64-4.34,3.79-7.63,3.79-7.35,0-11-5.82-11-12.57s3.61-12.44,10.91-12.44c2.45,0,5.96.92,7.72,3.74h.09v-12.29h3.93v33ZM355.44,87.89c5.27,0,7.3-4.53,7.3-9.01,0-4.71-2.13-9.06-7.53-9.06s-7.16,4.57-7.16,9.24,2.31,8.83,7.4,8.83" style="fill:#231f20;"/><path d="M393.77,90.71c-.69.41-1.57.65-2.82.65-2.03,0-3.33-1.11-3.33-3.7-2.17,2.54-5.08,3.7-8.41,3.7-4.34,0-7.9-1.94-7.9-6.71,0-5.41,4.02-6.56,8.09-7.35,4.35-.83,8.04-.55,8.04-3.51,0-3.42-2.82-3.97-5.31-3.97-3.33,0-5.78,1.02-5.97,4.53h-3.93c.23-5.92,4.81-8,10.12-8,4.3,0,8.97.97,8.97,6.57v12.29c0,1.85,0,2.68,1.24,2.68.32,0,.69-.05,1.2-.23v3.05ZM387.39,78.46c-1.53,1.11-4.49,1.15-7.12,1.62-2.59.46-4.81,1.38-4.81,4.3,0,2.59,2.22,3.51,4.62,3.51,5.18,0,7.3-3.24,7.3-5.41v-4.02Z" style="fill:#231f20;"/><path d="M765.29,10.2h11.33c10.17,0,15.85,5.08,15.85,15.72s-4.86,17.28-15.85,17.28h-11.33V10.2ZM769.68,39.5h7.31c3.01,0,11.09-.83,11.09-12.99,0-7.86-2.91-12.62-10.99-12.62h-7.4v25.61Z" style="fill:#231f20;"/><path d="M817.58,35.62c-1.06,5.27-4.85,8.14-10.21,8.14-7.62,0-11.23-5.27-11.46-12.57,0-7.16,4.72-12.44,11.23-12.44,8.46,0,11.05,7.9,10.82,13.68h-17.89c-.14,4.16,2.22,7.86,7.44,7.86,3.24,0,5.5-1.57,6.2-4.67h3.88ZM813.8,28.97c-.19-3.75-3.01-6.75-6.89-6.75-4.12,0-6.56,3.09-6.84,6.75h13.73Z" style="fill:#231f20;"/><path d="M822.17,19.3h3.93v3.24h.09c1.29-2.64,4.34-3.79,7.63-3.79,7.35,0,11,5.82,11,12.57s-3.6,12.44-10.91,12.44c-2.45,0-5.97-.92-7.72-3.75h-.09v12.34h-3.93V19.3ZM833.27,22.22c-5.27,0-7.31,4.53-7.31,9.01,0,4.72,2.13,9.06,7.53,9.06s7.16-4.57,7.16-9.24-2.31-8.83-7.39-8.83" style="fill:#231f20;"/><path d="M870.62,43.11c-.69.42-1.57.65-2.82.65-2.03,0-3.33-1.11-3.33-3.7-2.17,2.54-5.09,3.7-8.41,3.7-4.34,0-7.9-1.94-7.9-6.7,0-5.41,4.02-6.56,8.09-7.35,4.35-.83,8.04-.55,8.04-3.51,0-3.42-2.82-3.98-5.31-3.98-3.33,0-5.78,1.02-5.97,4.53h-3.93c.23-5.92,4.8-8,10.12-8,4.3,0,8.97.97,8.97,6.57v12.29c0,1.85,0,2.68,1.24,2.68.32,0,.69-.05,1.2-.23v3.05ZM864.25,30.86c-1.53,1.11-4.49,1.16-7.12,1.61-2.59.47-4.81,1.39-4.81,4.3,0,2.59,2.22,3.51,4.62,3.51,5.18,0,7.31-3.24,7.31-5.41v-4.02Z" style="fill:#231f20;"/><path d="M874.15,19.31h3.7v5.04h.09c1.9-3.84,4.53-5.73,8.79-5.6v4.16c-6.34,0-8.64,3.6-8.64,9.66v10.63h-3.93v-23.9Z" style="fill:#231f20;"/><path d="M895.14,19.31h4.76v3.46h-4.76v14.84c0,1.8.51,2.12,2.96,2.12h1.8v3.47h-3c-4.07,0-5.68-.83-5.68-5.23v-15.21h-4.07v-3.46h4.07v-7.16h3.93v7.16Z" style="fill:#231f20;"/><path d="M904.25,19.31h3.7v3.51h.09c1.75-2.68,4.44-4.07,7.72-4.07,2.91,0,5.6,1.16,6.56,4.07,1.62-2.54,4.44-4.07,7.49-4.07,4.76,0,7.95,1.99,7.95,6.93v17.52h-3.93v-15.67c0-2.96-.78-5.31-4.62-5.31s-6.24,2.4-6.24,6.1v14.88h-3.93v-15.67c0-3.09-.97-5.31-4.48-5.31-4.67,0-6.38,4.3-6.38,6.1v14.88h-3.93v-23.9Z" style="fill:#231f20;"/><path d="M964.08,35.62c-1.06,5.27-4.85,8.14-10.21,8.14-7.63,0-11.23-5.27-11.46-12.57,0-7.16,4.72-12.44,11.23-12.44,8.46,0,11.05,7.9,10.82,13.68h-17.88c-.14,4.16,2.22,7.86,7.44,7.86,3.24,0,5.5-1.57,6.2-4.67h3.88ZM960.29,28.97c-.18-3.75-3.01-6.75-6.89-6.75-4.11,0-6.56,3.09-6.84,6.75h13.73Z" style="fill:#231f20;"/><path d="M968.53,19.31h3.7v3.79h.09c1.66-2.96,4.34-4.34,7.77-4.34,6.29,0,8.23,3.61,8.23,8.74v15.72h-3.93v-16.18c0-2.91-1.85-4.81-4.85-4.81-4.76,0-7.07,3.19-7.07,7.49v13.5h-3.93v-23.9Z" style="fill:#231f20;"/><path d="M999.7,19.31h4.76v3.46h-4.76v14.84c0,1.8.51,2.12,2.96,2.12h1.8v3.47h-3c-4.07,0-5.68-.83-5.68-5.23v-15.21h-4.07v-3.46h4.07v-7.16h3.93v7.16Z" style="fill:#231f20;"/><path d="M1031.97,18.75c7.58,0,11.6,5.5,11.6,12.52s-4.02,12.48-11.6,12.48-11.6-5.5-11.6-12.48,4.02-12.52,11.6-12.52M1031.97,40.29c4.11,0,7.44-3.24,7.44-9.01s-3.33-9.06-7.44-9.06-7.45,3.23-7.45,9.06,3.33,9.01,7.45,9.01" style="fill:#231f20;"/><path d="M1049.83,22.77h-4.02v-3.46h4.02v-3.56c0-3.88,2.31-5.92,6.61-5.92.74,0,1.8.14,2.54.37v3.42c-.69-.23-1.53-.32-2.22-.32-1.9,0-3,.6-3,2.68v3.33h4.62v3.46h-4.62v20.43h-3.93v-20.43Z" style="fill:#231f20;"/><path d="M1092.18,34.97c0,4.48-2.36,9.01-9.75,9.01-6.15,0-9.61-3.42-9.61-9.61v-2.03h4.39v1.39c0,3.83,1.02,6.56,5.31,6.56,4.02,0,5.27-2.31,5.27-5.96V10.2h4.39v24.78Z" style="fill:#231f20;"/><path d="M1118.54,43.2h-3.7v-3.79h-.09c-1.66,2.96-4.34,4.34-7.77,4.34-6.29,0-8.23-3.61-8.23-8.74v-15.72h3.93v16.18c0,2.91,1.85,4.81,4.86,4.81,4.76,0,7.07-3.19,7.07-7.49v-13.5h3.93v23.9Z" style="fill:#231f20;"/><path d="M1126.87,35.67c.14,3.51,3.19,4.62,6.42,4.62,2.45,0,5.78-.55,5.78-3.56s-3.88-3.56-7.81-4.44c-3.88-.88-7.82-2.17-7.82-6.75,0-4.81,4.77-6.8,8.92-6.8,5.27,0,9.48,1.66,9.8,7.49h-3.93c-.28-3.05-2.96-4.02-5.55-4.02-2.36,0-5.08.65-5.08,3.05,0,2.82,4.16,3.28,7.81,4.16,3.93.88,7.81,2.17,7.81,6.79,0,5.68-5.31,7.53-10.17,7.53-5.36,0-9.89-2.17-10.12-8.09h3.93Z" style="fill:#231f20;"/><path d="M1153.04,19.31h4.76v3.46h-4.76v14.84c0,1.8.51,2.12,2.96,2.12h1.8v3.47h-3c-4.07,0-5.68-.83-5.68-5.23v-15.21h-4.07v-3.46h4.07v-7.16h3.93v7.16Z" style="fill:#231f20;"/><path d="M1166.31,15.01h-3.93v-4.81h3.93v4.81ZM1162.38,19.3h3.93v23.9h-3.93v-23.9Z" style="fill:#231f20;"/><path d="M1188.64,26.98c-.6-3.01-2.68-4.76-5.92-4.76-5.69,0-7.44,4.48-7.44,9.33,0,4.39,1.99,8.74,6.98,8.74,3.79,0,6.06-2.22,6.56-5.82h4.02c-.88,5.82-4.53,9.29-10.54,9.29-7.3,0-11.18-5.09-11.18-12.2s3.7-12.8,11.28-12.8c5.4,0,9.75,2.54,10.3,8.23h-4.07Z" style="fill:#231f20;"/><path d="M1217.63,35.62c-1.06,5.27-4.85,8.14-10.21,8.14-7.63,0-11.23-5.27-11.46-12.57,0-7.16,4.72-12.44,11.23-12.44,8.46,0,11.04,7.9,10.82,13.68h-17.89c-.13,4.16,2.22,7.86,7.45,7.86,3.24,0,5.5-1.57,6.2-4.67h3.88ZM1213.84,28.97c-.18-3.75-3-6.75-6.89-6.75-4.11,0-6.56,3.09-6.84,6.75h13.73Z" style="fill:#231f20;"/><path d="M788.49,67.73c-.92-4.67-4.67-7.03-9.24-7.03-7.86,0-11.19,6.47-11.19,13.36,0,7.53,3.33,13.82,11.23,13.82,5.78,0,9.11-4.07,9.52-9.52h4.39c-.84,8.23-5.96,13.22-14.28,13.22-10.27,0-15.25-7.58-15.25-17.19s5.46-17.38,15.62-17.38c6.89,0,12.57,3.7,13.59,10.72h-4.39Z" style="fill:#231f20;"/><path d="M819.2,90.71c-.69.41-1.57.65-2.82.65-2.03,0-3.33-1.11-3.33-3.7-2.17,2.54-5.09,3.7-8.41,3.7-4.34,0-7.9-1.94-7.9-6.71,0-5.4,4.02-6.56,8.09-7.35,4.35-.83,8.04-.55,8.04-3.51,0-3.42-2.82-3.97-5.31-3.97-3.33,0-5.78,1.02-5.97,4.53h-3.93c.23-5.92,4.8-8,10.12-8,4.3,0,8.97.97,8.97,6.57v12.29c0,1.85,0,2.68,1.24,2.68.32,0,.69-.04,1.2-.23v3.05ZM812.82,78.45c-1.53,1.11-4.49,1.16-7.12,1.62-2.59.46-4.81,1.38-4.81,4.3,0,2.59,2.22,3.51,4.62,3.51,5.18,0,7.31-3.24,7.31-5.4v-4.02Z" style="fill:#231f20;"/><path d="M822.87,66.9h3.7v3.79h.09c1.66-2.96,4.35-4.35,7.77-4.35,6.29,0,8.23,3.61,8.23,8.74v15.72h-3.93v-16.17c0-2.91-1.85-4.81-4.85-4.81-4.76,0-7.07,3.19-7.07,7.49v13.5h-3.93v-23.9Z" style="fill:#231f20;"/><path d="M869.74,90.71c-.69.41-1.57.65-2.82.65-2.03,0-3.33-1.11-3.33-3.7-2.18,2.54-5.09,3.7-8.42,3.7-4.34,0-7.9-1.94-7.9-6.71,0-5.4,4.02-6.56,8.09-7.35,4.34-.83,8.04-.55,8.04-3.51,0-3.42-2.82-3.97-5.31-3.97-3.33,0-5.78,1.02-5.96,4.53h-3.93c.23-5.92,4.81-8,10.12-8,4.3,0,8.97.97,8.97,6.57v12.29c0,1.85,0,2.68,1.25,2.68.32,0,.69-.04,1.2-.23v3.05ZM863.37,78.45c-1.53,1.11-4.49,1.16-7.12,1.62-2.59.46-4.8,1.38-4.8,4.3,0,2.59,2.22,3.51,4.62,3.51,5.18,0,7.3-3.24,7.3-5.4v-4.02Z" style="fill:#231f20;"/><path d="M894.76,90.8h-3.93v-3.24h-.09c-1.29,2.64-4.34,3.79-7.63,3.79-7.35,0-11-5.82-11-12.57s3.61-12.44,10.91-12.44c2.45,0,5.97.92,7.72,3.75h.09v-12.3h3.93v33ZM883.67,87.88c5.27,0,7.31-4.53,7.31-9.01,0-4.72-2.13-9.06-7.54-9.06s-7.16,4.57-7.16,9.24,2.31,8.83,7.4,8.83" style="fill:#231f20;"/><path d="M922,90.71c-.69.41-1.57.65-2.82.65-2.03,0-3.33-1.11-3.33-3.7-2.17,2.54-5.08,3.7-8.41,3.7-4.34,0-7.9-1.94-7.9-6.71,0-5.4,4.02-6.56,8.09-7.35,4.35-.83,8.05-.55,8.05-3.51,0-3.42-2.82-3.97-5.32-3.97-3.33,0-5.78,1.02-5.97,4.53h-3.93c.24-5.92,4.81-8,10.12-8,4.3,0,8.97.97,8.97,6.57v12.29c0,1.85,0,2.68,1.24,2.68.32,0,.69-.04,1.2-.23v3.05ZM915.62,78.45c-1.53,1.11-4.48,1.16-7.12,1.62-2.59.46-4.81,1.38-4.81,4.3,0,2.59,2.22,3.51,4.62,3.51,5.18,0,7.31-3.24,7.31-5.4v-4.02Z" style="fill:#231f20;"/></svg>