<?xml version="1.0" encoding="utf-8"?>
<!-- Generator: Adobe Illustrator 28.0.0, SVG Export Plug-In . SVG Version: 6.00 Build 0)  -->
<svg version="1.1" id="Layer_1" xmlns="http://www.w3.org/2000/svg" xmlns:xlink="http://www.w3.org/1999/xlink" x="0px" y="0px"
	 viewBox="0 0 337.6 27.5" style="enable-background:new 0 0 337.6 27.5;" xml:space="preserve">
<style type="text/css">
	.st0{fill-rule:evenodd;clip-rule:evenodd;fill:#ED1C24;}
</style>
<g>
	<path class="st0" d="M21.07,4.81c0,0-1.3,2.51-1.48,2.77c-0.17,0.35-0.35,0.35-0.61,0.17c-0.35-0.17-1.39-0.78-1.39-0.78
		s0.96,4.16,0.96,4.5c0.09,0.35-0.26,0.61-0.61,0.35c-0.09-0.09-1.91-2.17-1.91-2.17s-0.43,0.95-0.52,1.13
		c-0.09,0.17-0.17,0.34-0.43,0.26c-0.35-0.09-2-0.43-2-0.43s0.61,2.08,0.7,2.34c0.08,0.21,0.17,0.43-0.17,0.61l-0.61,0.26
		c0,0,3.57,3.12,3.65,3.21c0.18,0.17,0.35,0.26,0.18,0.78c-0.18,0.52-0.35,1.22-0.35,1.22s3.31-0.7,3.66-0.79
		c0.3-0.03,0.64,0.09,0.64,0.44c0,0.35-0.2,3.92-0.2,3.92h1.05c0,0-0.2-3.57-0.2-3.92c0-0.35,0.33-0.47,0.64-0.44
		c0.35,0.09,3.66,0.79,3.66,0.79s-0.17-0.7-0.35-1.22c-0.17-0.52,0-0.61,0.18-0.78c0.09-0.09,3.66-3.21,3.66-3.21l-0.61-0.26
		c-0.35-0.17-0.26-0.4-0.17-0.61c0.08-0.26,0.7-2.34,0.7-2.34s-1.66,0.35-2,0.43c-0.26,0.09-0.35-0.09-0.43-0.26
		c-0.09-0.17-0.52-1.13-0.52-1.13s-1.83,2.08-1.91,2.17c-0.35,0.26-0.7,0-0.61-0.35c0-0.35,0.96-4.5,0.96-4.5s-1.05,0.6-1.39,0.78
		c-0.26,0.17-0.44,0.17-0.61-0.17C22.38,7.33,21.07,4.81,21.07,4.81"/>
	<rect y="3.25" class="st0" width="10.53" height="20.92"/>
	<rect x="31.6" y="3.25" class="st0" width="10.53" height="20.92"/>
	<polygon points="196.67,3.25 198.23,3.25 200.93,10.45 203.64,3.25 205.2,3.25 205.2,11.82 204.12,11.82 204.12,4.69 204.1,4.69 
		201.42,11.82 200.45,11.82 197.78,4.69 197.75,4.69 197.75,11.82 196.67,11.82 	"/>
	<path d="M208.01,4.5h-1.02V3.25h1.02V4.5z M206.99,5.62h1.02v6.2h-1.02V5.62z"/>
	<path d="M209.6,5.62h0.96V6.6h0.02c0.43-0.77,1.13-1.13,2.02-1.13c1.63,0,2.13,0.94,2.13,2.27v4.08h-1.02v-4.2
		c0-0.76-0.48-1.25-1.26-1.25c-1.24,0-1.83,0.83-1.83,1.94v3.5h-1.02V5.62z"/>
	<path d="M217.35,4.5h-1.02V3.25h1.02V4.5z M216.33,5.62h1.02v6.2h-1.02V5.62z"/>
	<path d="M219.56,9.86c0.04,0.91,0.83,1.2,1.67,1.2c0.64,0,1.5-0.14,1.5-0.92c0-0.79-1.01-0.92-2.03-1.15
		c-1.01-0.23-2.03-0.56-2.03-1.75c0-1.25,1.24-1.76,2.31-1.76c1.37,0,2.46,0.43,2.54,1.94h-1.02c-0.07-0.79-0.77-1.04-1.44-1.04
		c-0.61,0-1.32,0.17-1.32,0.79c0,0.73,1.08,0.85,2.03,1.08c1.02,0.23,2.03,0.56,2.03,1.76c0,1.48-1.38,1.96-2.64,1.96
		c-1.39,0-2.57-0.56-2.63-2.1H219.56z"/>
	<path d="M226.35,5.62h1.24v0.9h-1.24v3.85c0,0.47,0.13,0.55,0.77,0.55h0.47v0.9h-0.78c-1.06,0-1.48-0.22-1.48-1.36V6.52h-1.06v-0.9
		h1.06V3.76h1.02V5.62z"/>
	<path d="M234,9.85c-0.28,1.37-1.26,2.11-2.65,2.11c-1.98,0-2.91-1.37-2.98-3.26c0-1.86,1.22-3.23,2.92-3.23
		c2.19,0,2.87,2.05,2.81,3.55h-4.64c-0.04,1.08,0.57,2.04,1.93,2.04c0.84,0,1.43-0.41,1.61-1.21H234z M233.02,8.12
		c-0.05-0.97-0.78-1.75-1.79-1.75c-1.07,0-1.7,0.8-1.77,1.75H233.02z M229.56,3.05h1.31l1.03,1.72h-0.77L229.56,3.05z"/>
	<path d="M235.12,5.62h0.96v1.31h0.02c0.49-1,1.18-1.49,2.28-1.45v1.08c-1.64,0-2.24,0.93-2.24,2.51v2.76h-1.02V5.62z"/>
	<path d="M244.23,9.85c-0.28,1.37-1.26,2.11-2.65,2.11c-1.98,0-2.91-1.37-2.98-3.26c0-1.86,1.22-3.23,2.91-3.23
		c2.2,0,2.87,2.05,2.81,3.55h-4.64c-0.04,1.08,0.58,2.04,1.93,2.04c0.84,0,1.43-0.41,1.61-1.21H244.23z M243.24,8.12
		c-0.05-0.97-0.78-1.75-1.79-1.75c-1.07,0-1.7,0.8-1.77,1.75H243.24z"/>
	<path d="M254.26,11.82h-1.02v-0.84h-0.02c-0.34,0.68-1.13,0.98-1.98,0.98c-1.91,0-2.85-1.51-2.85-3.26c0-1.75,0.93-3.23,2.83-3.23
		c0.64,0,1.55,0.24,2,0.97h0.02V3.25h1.02V11.82z M251.38,11.06c1.37,0,1.9-1.18,1.9-2.34c0-1.22-0.55-2.35-1.96-2.35
		c-1.39,0-1.86,1.19-1.86,2.4C249.46,9.94,250.06,11.06,251.38,11.06"/>
	<path d="M261.12,9.85c-0.27,1.37-1.26,2.11-2.65,2.11c-1.98,0-2.91-1.37-2.98-3.26c0-1.86,1.23-3.23,2.92-3.23
		c2.2,0,2.87,2.05,2.81,3.55h-4.64c-0.04,1.08,0.58,2.04,1.93,2.04c0.84,0,1.43-0.41,1.61-1.21H261.12z M260.14,8.12
		c-0.05-0.97-0.78-1.75-1.79-1.75c-1.07,0-1.7,0.8-1.78,1.75H260.14z"/>
	<rect x="265.67" y="3.25" width="1.02" height="8.56"/>
	<path d="M273.77,11.79c-0.18,0.11-0.41,0.17-0.73,0.17c-0.53,0-0.86-0.29-0.86-0.96c-0.57,0.66-1.32,0.96-2.18,0.96
		c-1.13,0-2.05-0.5-2.05-1.74c0-1.4,1.04-1.7,2.1-1.91c1.13-0.22,2.09-0.14,2.09-0.91c0-0.89-0.73-1.03-1.38-1.03
		c-0.86,0-1.5,0.26-1.55,1.18h-1.02c0.06-1.54,1.25-2.08,2.63-2.08c1.12,0,2.33,0.25,2.33,1.7v3.19c0,0.48,0,0.7,0.32,0.7
		c0.08,0,0.18-0.01,0.31-0.06V11.79z M272.11,8.62c-0.4,0.29-1.16,0.3-1.85,0.42c-0.67,0.12-1.25,0.36-1.25,1.12
		c0,0.67,0.58,0.91,1.2,0.91c1.34,0,1.89-0.84,1.89-1.4V8.62z"/>
	<path d="M282.58,9.68c0,1.16-0.61,2.34-2.53,2.34c-1.6,0-2.49-0.89-2.49-2.49V9h1.14v0.36c0,0.99,0.26,1.7,1.38,1.7
		c1.04,0,1.37-0.6,1.37-1.55V3.25h1.14V9.68z"/>
	<path d="M289.42,11.82h-0.96v-0.98h-0.02c-0.43,0.77-1.13,1.13-2.02,1.13c-1.63,0-2.14-0.94-2.14-2.27V5.62h1.02v4.2
		c0,0.75,0.48,1.25,1.26,1.25c1.24,0,1.83-0.83,1.83-1.94v-3.5h1.02V11.82z"/>
	<path d="M291.58,9.86c0.04,0.91,0.83,1.2,1.67,1.2c0.64,0,1.5-0.14,1.5-0.92c0-0.79-1.01-0.92-2.03-1.15
		c-1.01-0.23-2.03-0.56-2.03-1.75c0-1.25,1.24-1.76,2.32-1.76c1.37,0,2.46,0.43,2.54,1.94h-1.02c-0.07-0.79-0.77-1.04-1.44-1.04
		c-0.61,0-1.32,0.17-1.32,0.79c0,0.73,1.08,0.85,2.03,1.08c1.02,0.23,2.03,0.56,2.03,1.76c0,1.48-1.38,1.96-2.64,1.96
		c-1.39,0-2.57-0.56-2.63-2.1H291.58z"/>
	<path d="M298.37,5.62h1.23v0.9h-1.23v3.85c0,0.47,0.13,0.55,0.77,0.55h0.47v0.9h-0.78c-1.05,0-1.47-0.22-1.47-1.36V6.52h-1.06v-0.9
		h1.06V3.76h1.02V5.62z"/>
	<path d="M301.82,4.5h-1.02V3.25h1.02V4.5z M300.8,5.62h1.02v6.2h-1.02V5.62z"/>
	<path d="M307.61,7.61c-0.16-0.78-0.7-1.24-1.54-1.24c-1.48,0-1.93,1.16-1.93,2.42c0,1.14,0.52,2.27,1.81,2.27
		c0.98,0,1.57-0.58,1.7-1.51h1.04c-0.23,1.51-1.17,2.41-2.73,2.41c-1.89,0-2.9-1.32-2.9-3.17c0-1.86,0.96-3.32,2.93-3.32
		c1.4,0,2.53,0.66,2.67,2.14H307.61z"/>
	<path d="M315.13,9.85c-0.27,1.37-1.26,2.11-2.65,2.11c-1.98,0-2.91-1.37-2.98-3.26c0-1.86,1.22-3.23,2.91-3.23
		c2.2,0,2.87,2.05,2.81,3.55h-4.64c-0.04,1.08,0.58,2.04,1.93,2.04c0.84,0,1.43-0.41,1.61-1.21H315.13z M314.15,8.12
		c-0.05-0.97-0.78-1.75-1.79-1.75c-1.07,0-1.7,0.8-1.78,1.75H314.15z"/>
	<path d="M202.67,18.18c-0.24-1.21-1.21-1.82-2.4-1.82c-2.04,0-2.9,1.68-2.9,3.47c0,1.95,0.86,3.59,2.91,3.59
		c1.5,0,2.36-1.06,2.47-2.47h1.14c-0.22,2.14-1.55,3.43-3.71,3.43c-2.66,0-3.96-1.97-3.96-4.46c0-2.48,1.41-4.51,4.05-4.51
		c1.79,0,3.26,0.96,3.53,2.78H202.67z"/>
	<path d="M210.64,24.14c-0.18,0.11-0.41,0.17-0.73,0.17c-0.53,0-0.86-0.29-0.86-0.96c-0.56,0.66-1.32,0.96-2.18,0.96
		c-1.13,0-2.05-0.5-2.05-1.74c0-1.4,1.04-1.7,2.1-1.91c1.13-0.22,2.09-0.14,2.09-0.91c0-0.89-0.73-1.03-1.38-1.03
		c-0.86,0-1.5,0.26-1.55,1.17h-1.02c0.06-1.54,1.25-2.08,2.63-2.08c1.12,0,2.33,0.25,2.33,1.7v3.19c0,0.48,0,0.7,0.32,0.7
		c0.08,0,0.18-0.01,0.31-0.06V24.14z M208.98,20.97c-0.4,0.29-1.16,0.3-1.85,0.42c-0.67,0.12-1.25,0.36-1.25,1.11
		c0,0.67,0.57,0.91,1.2,0.91c1.34,0,1.9-0.84,1.9-1.4V20.97z"/>
	<path d="M211.59,17.97h0.96v0.98h0.02c0.43-0.77,1.13-1.13,2.01-1.13c1.63,0,2.13,0.94,2.13,2.27v4.08h-1.02v-4.2
		c0-0.76-0.48-1.25-1.26-1.25c-1.24,0-1.83,0.83-1.83,1.94v3.5h-1.02V17.97z"/>
	<path d="M223.76,24.14c-0.18,0.11-0.41,0.17-0.73,0.17c-0.53,0-0.86-0.29-0.86-0.96c-0.57,0.66-1.32,0.96-2.18,0.96
		c-1.13,0-2.05-0.5-2.05-1.74c0-1.4,1.04-1.7,2.1-1.91c1.13-0.22,2.09-0.14,2.09-0.91c0-0.89-0.73-1.03-1.38-1.03
		c-0.86,0-1.5,0.26-1.55,1.17h-1.02c0.06-1.54,1.25-2.08,2.63-2.08c1.12,0,2.33,0.25,2.33,1.7v3.19c0,0.48,0,0.7,0.32,0.7
		c0.08,0,0.18-0.01,0.31-0.06V24.14z M222.1,20.97c-0.4,0.29-1.16,0.3-1.85,0.42c-0.67,0.12-1.25,0.36-1.25,1.11
		c0,0.67,0.57,0.91,1.2,0.91c1.34,0,1.9-0.84,1.9-1.4V20.97z"/>
	<path d="M230.25,24.17h-1.02v-0.84h-0.02c-0.34,0.68-1.13,0.98-1.98,0.98c-1.91,0-2.85-1.51-2.85-3.26c0-1.75,0.94-3.23,2.83-3.23
		c0.64,0,1.55,0.24,2,0.97h0.02v-3.19h1.02V24.17z M227.37,23.41c1.37,0,1.9-1.18,1.9-2.34c0-1.22-0.55-2.35-1.96-2.35
		c-1.39,0-1.86,1.19-1.86,2.4C225.45,22.29,226.05,23.41,227.37,23.41"/>
	<path d="M237.31,24.14c-0.18,0.11-0.41,0.17-0.73,0.17c-0.53,0-0.86-0.29-0.86-0.96c-0.56,0.66-1.32,0.96-2.18,0.96
		c-1.13,0-2.05-0.5-2.05-1.74c0-1.4,1.04-1.7,2.1-1.91c1.13-0.22,2.09-0.14,2.09-0.91c0-0.89-0.73-1.03-1.38-1.03
		c-0.86,0-1.5,0.26-1.55,1.17h-1.02c0.06-1.54,1.25-2.08,2.63-2.08c1.12,0,2.33,0.25,2.33,1.7v3.19c0,0.48,0,0.7,0.32,0.7
		c0.08,0,0.18-0.01,0.31-0.06V24.14z M235.66,20.97c-0.4,0.29-1.16,0.3-1.85,0.42c-0.67,0.12-1.25,0.36-1.25,1.11
		c0,0.67,0.58,0.91,1.2,0.91c1.34,0,1.9-0.84,1.9-1.4V20.97z"/>
	<path d="M60.72,3.25h2.94c2.64,0,4.11,1.32,4.11,4.08c0,2.87-1.26,4.48-4.11,4.48h-2.94V3.25z M61.85,10.86h1.9
		c0.78,0,2.88-0.22,2.88-3.37c0-2.04-0.75-3.27-2.85-3.27h-1.92V10.86z"/>
	<path d="M74.28,9.85c-0.28,1.37-1.26,2.11-2.65,2.11c-1.98,0-2.92-1.37-2.97-3.26c0-1.86,1.22-3.23,2.92-3.23
		c2.19,0,2.87,2.05,2.81,3.55h-4.64c-0.04,1.08,0.58,2.04,1.93,2.04c0.84,0,1.43-0.41,1.61-1.21H74.28z M73.3,8.12
		c-0.05-0.97-0.78-1.75-1.79-1.75c-1.07,0-1.7,0.8-1.77,1.75H73.3z"/>
	<path d="M75.47,5.62h1.02v0.84h0.02c0.33-0.68,1.13-0.98,1.98-0.98c1.91,0,2.85,1.51,2.85,3.26c0,1.75-0.93,3.23-2.83,3.23
		c-0.64,0-1.55-0.24-2-0.97h-0.02v3.2h-1.02V5.62z M78.35,6.37c-1.37,0-1.89,1.17-1.89,2.34c0,1.22,0.55,2.35,1.95,2.35
		c1.39,0,1.86-1.19,1.86-2.4C80.27,7.5,79.67,6.37,78.35,6.37"/>
	<path d="M88.05,11.79c-0.18,0.11-0.41,0.17-0.73,0.17c-0.53,0-0.86-0.29-0.86-0.96c-0.56,0.66-1.32,0.96-2.18,0.96
		c-1.13,0-2.05-0.5-2.05-1.74c0-1.4,1.04-1.7,2.1-1.91C85.45,8.1,86.4,8.17,86.4,7.4c0-0.89-0.73-1.03-1.38-1.03
		c-0.86,0-1.5,0.26-1.55,1.18h-1.02c0.06-1.54,1.25-2.08,2.63-2.08c1.11,0,2.33,0.25,2.33,1.7v3.19c0,0.48,0,0.7,0.32,0.7
		c0.08,0,0.18-0.01,0.31-0.06V11.79z M86.39,8.62c-0.4,0.29-1.16,0.3-1.85,0.42c-0.67,0.12-1.25,0.36-1.25,1.12
		c0,0.67,0.58,0.91,1.2,0.91c1.34,0,1.89-0.84,1.89-1.4V8.62z"/>
	<path d="M88.96,5.62h0.96v1.31h0.02c0.49-1,1.18-1.49,2.28-1.45v1.08c-1.64,0-2.24,0.93-2.24,2.51v2.76h-1.02V5.62z"/>
	<path d="M94.41,5.62h1.24v0.9h-1.24v3.85c0,0.47,0.13,0.55,0.77,0.55h0.47v0.9h-0.78c-1.06,0-1.47-0.22-1.47-1.36V6.52h-1.06v-0.9
		h1.06V3.76h1.02V5.62z"/>
	<path d="M96.77,5.62h0.96v0.91h0.02c0.46-0.7,1.15-1.06,2-1.06c0.76,0,1.45,0.3,1.7,1.06c0.42-0.66,1.15-1.06,1.94-1.06
		c1.24,0,2.06,0.52,2.06,1.8v4.55h-1.02V7.75c0-0.77-0.2-1.38-1.2-1.38c-0.98,0-1.62,0.62-1.62,1.58v3.86h-1.02V7.75
		c0-0.8-0.25-1.38-1.16-1.38c-1.21,0-1.65,1.11-1.65,1.58v3.86h-1.02V5.62z"/>
	<path d="M112.3,9.85c-0.28,1.37-1.26,2.11-2.65,2.11c-1.98,0-2.92-1.37-2.97-3.26c0-1.86,1.22-3.23,2.92-3.23
		c2.19,0,2.87,2.05,2.81,3.55h-4.64c-0.04,1.08,0.58,2.04,1.93,2.04c0.84,0,1.43-0.41,1.61-1.21H112.3z M111.32,8.12
		c-0.05-0.97-0.78-1.75-1.79-1.75c-1.07,0-1.7,0.8-1.77,1.75H111.32z"/>
	<path d="M113.45,5.62h0.96V6.6h0.02c0.43-0.77,1.13-1.13,2.02-1.13c1.63,0,2.13,0.94,2.13,2.27v4.08h-1.02v-4.2
		c0-0.76-0.48-1.25-1.26-1.25c-1.24,0-1.83,0.83-1.83,1.94v3.5h-1.02V5.62z"/>
	<path d="M121.54,5.62h1.24v0.9h-1.24v3.85c0,0.47,0.13,0.55,0.77,0.55h0.47v0.9H122c-1.06,0-1.47-0.22-1.47-1.36V6.52h-1.06v-0.9
		h1.06V3.76h1.02V5.62z"/>
	<path d="M129.92,5.47c1.97,0,3.01,1.43,3.01,3.25c0,1.81-1.04,3.24-3.01,3.24c-1.97,0-3.01-1.43-3.01-3.24
		C126.9,6.9,127.95,5.47,129.92,5.47 M129.92,11.06c1.07,0,1.93-0.84,1.93-2.34c0-1.51-0.86-2.35-1.93-2.35s-1.93,0.84-1.93,2.35
		C127.98,10.22,128.85,11.06,129.92,11.06"/>
	<path d="M134.55,6.52h-1.04v-0.9h1.04V4.69c0-1.01,0.6-1.53,1.71-1.53c0.19,0,0.47,0.04,0.66,0.1v0.89
		c-0.18-0.06-0.39-0.08-0.57-0.08c-0.49,0-0.78,0.16-0.78,0.69v0.86h1.2v0.9h-1.2v5.3h-1.02V6.52z"/>
	<path d="M145.54,9.68c0,1.16-0.61,2.34-2.53,2.34c-1.6,0-2.49-0.89-2.49-2.49V9h1.14v0.36c0,0.99,0.26,1.7,1.38,1.7
		c1.04,0,1.37-0.6,1.37-1.55V3.25h1.14V9.68z"/>
	<path d="M152.38,11.82h-0.96v-0.98h-0.02c-0.43,0.77-1.13,1.13-2.02,1.13c-1.63,0-2.13-0.94-2.13-2.27V5.62h1.02v4.2
		c0,0.76,0.48,1.25,1.26,1.25c1.24,0,1.83-0.83,1.83-1.94v-3.5h1.02V11.82z"/>
	<path d="M154.54,9.86c0.04,0.91,0.83,1.2,1.67,1.2c0.63,0,1.5-0.14,1.5-0.92c0-0.79-1.01-0.92-2.03-1.15
		c-1.01-0.23-2.03-0.56-2.03-1.75c0-1.25,1.24-1.76,2.31-1.76c1.37,0,2.46,0.43,2.54,1.94h-1.02c-0.07-0.79-0.77-1.04-1.44-1.04
		c-0.61,0-1.32,0.17-1.32,0.79c0,0.73,1.08,0.85,2.03,1.08c1.02,0.23,2.03,0.56,2.03,1.76c0,1.48-1.38,1.96-2.64,1.96
		c-1.39,0-2.57-0.56-2.63-2.1H154.54z"/>
	<path d="M161.33,5.62h1.24v0.9h-1.24v3.85c0,0.47,0.13,0.55,0.77,0.55h0.47v0.9h-0.78c-1.06,0-1.47-0.22-1.47-1.36V6.52h-1.06v-0.9
		h1.06V3.76h1.02V5.62z"/>
	<path d="M164.78,4.5h-1.02V3.25h1.02V4.5z M163.76,5.62h1.02v6.2h-1.02V5.62z"/>
	<path d="M170.57,7.61c-0.16-0.78-0.7-1.24-1.54-1.24c-1.48,0-1.93,1.16-1.93,2.42c0,1.14,0.52,2.27,1.81,2.27
		c0.98,0,1.57-0.58,1.7-1.51h1.04c-0.23,1.51-1.18,2.41-2.74,2.41c-1.89,0-2.9-1.32-2.9-3.17c0-1.86,0.96-3.32,2.93-3.32
		c1.4,0,2.53,0.66,2.67,2.14H170.57z"/>
	<path d="M178.09,9.85c-0.28,1.37-1.26,2.11-2.65,2.11c-1.98,0-2.91-1.37-2.97-3.26c0-1.86,1.22-3.23,2.91-3.23
		c2.2,0,2.87,2.05,2.81,3.55h-4.64c-0.04,1.08,0.58,2.04,1.93,2.04c0.84,0,1.43-0.41,1.61-1.21H178.09z M177.11,8.12
		c-0.05-0.97-0.78-1.75-1.79-1.75c-1.07,0-1.7,0.8-1.78,1.75H177.11z"/>
	<path d="M66.74,18.18c-0.24-1.21-1.21-1.82-2.4-1.82c-2.04,0-2.9,1.68-2.9,3.47c0,1.95,0.86,3.59,2.91,3.59
		c1.5,0,2.36-1.06,2.47-2.47h1.14c-0.22,2.14-1.55,3.43-3.71,3.43c-2.66,0-3.96-1.97-3.96-4.46c0-2.48,1.41-4.51,4.05-4.51
		c1.79,0,3.26,0.96,3.53,2.78H66.74z"/>
	<path d="M74.7,24.14c-0.18,0.11-0.41,0.17-0.73,0.17c-0.53,0-0.86-0.29-0.86-0.96c-0.56,0.66-1.32,0.96-2.18,0.96
		c-1.13,0-2.05-0.5-2.05-1.74c0-1.4,1.04-1.7,2.1-1.91c1.13-0.22,2.09-0.14,2.09-0.91c0-0.89-0.73-1.03-1.38-1.03
		c-0.86,0-1.5,0.26-1.55,1.18h-1.02c0.06-1.54,1.25-2.08,2.63-2.08c1.11,0,2.33,0.25,2.33,1.7v3.19c0,0.48,0,0.69,0.32,0.69
		c0.08,0,0.18-0.01,0.31-0.06V24.14z M73.05,20.97c-0.4,0.29-1.16,0.3-1.85,0.42c-0.67,0.12-1.25,0.36-1.25,1.11
		c0,0.67,0.58,0.91,1.2,0.91c1.34,0,1.89-0.84,1.89-1.4V20.97z"/>
	<path d="M75.65,17.97h0.96v0.98h0.02c0.43-0.77,1.13-1.13,2.02-1.13c1.63,0,2.13,0.94,2.13,2.27v4.08h-1.02v-4.2
		c0-0.76-0.48-1.25-1.26-1.25c-1.24,0-1.83,0.83-1.83,1.94v3.5h-1.02V17.97z"/>
	<path d="M87.82,24.14c-0.18,0.11-0.41,0.17-0.73,0.17c-0.53,0-0.86-0.29-0.86-0.96c-0.56,0.66-1.32,0.96-2.18,0.96
		c-1.13,0-2.05-0.5-2.05-1.74c0-1.4,1.04-1.7,2.1-1.91c1.13-0.22,2.09-0.14,2.09-0.91c0-0.89-0.73-1.03-1.38-1.03
		c-0.86,0-1.5,0.26-1.55,1.18h-1.02c0.06-1.54,1.25-2.08,2.63-2.08c1.11,0,2.33,0.25,2.33,1.7v3.19c0,0.48,0,0.69,0.32,0.69
		c0.08,0,0.18-0.01,0.31-0.06V24.14z M86.16,20.97c-0.4,0.29-1.16,0.3-1.85,0.42c-0.67,0.12-1.25,0.36-1.25,1.11
		c0,0.67,0.58,0.91,1.2,0.91c1.34,0,1.89-0.84,1.89-1.4V20.97z"/>
	<path d="M94.31,24.17h-1.02v-0.84h-0.02c-0.34,0.68-1.13,0.98-1.98,0.98c-1.91,0-2.86-1.51-2.86-3.26c0-1.75,0.94-3.23,2.83-3.23
		c0.64,0,1.55,0.24,2,0.97h0.02V15.6h1.02V24.17z M91.43,23.41c1.37,0,1.89-1.18,1.89-2.34c0-1.22-0.55-2.35-1.95-2.35
		c-1.39,0-1.86,1.19-1.86,2.4C89.51,22.29,90.11,23.41,91.43,23.41"/>
	<path d="M101.38,24.14c-0.18,0.11-0.41,0.17-0.73,0.17c-0.53,0-0.86-0.29-0.86-0.96c-0.56,0.66-1.32,0.96-2.18,0.96
		c-1.13,0-2.05-0.5-2.05-1.74c0-1.4,1.04-1.7,2.1-1.91c1.13-0.22,2.09-0.14,2.09-0.91c0-0.89-0.73-1.03-1.38-1.03
		c-0.86,0-1.5,0.26-1.55,1.18h-1.02c0.06-1.54,1.25-2.08,2.63-2.08c1.11,0,2.33,0.25,2.33,1.7v3.19c0,0.48,0,0.69,0.32,0.69
		c0.08,0,0.18-0.01,0.31-0.06V24.14z M99.72,20.97c-0.4,0.29-1.16,0.3-1.85,0.42c-0.67,0.12-1.25,0.36-1.25,1.11
		c0,0.67,0.58,0.91,1.2,0.91c1.34,0,1.89-0.84,1.89-1.4V20.97z"/>
</g>
</svg>
