<?xml version="1.0" encoding="utf-8"?>
<!-- Generator: Adobe Illustrator 28.2.0, SVG Export Plug-In . SVG Version: 6.00 Build 0)  -->
<svg version="1.1" id="Layer_1" xmlns="http://www.w3.org/2000/svg" xmlns:xlink="http://www.w3.org/1999/xlink" x="0px" y="0px"
	 viewBox="0 0 400 100" style="enable-background:new 0 0 400 100;" xml:space="preserve">
<style type="text/css">
	.st0{fill-rule:evenodd;clip-rule:evenodd;fill:#EF4135;}
</style>
<g>
	<g>
		<g>
			<g>
				<g>
					<rect x="15.14" y="39.31" class="st0" width="12.02" height="24.47"/>
				</g>
				<g>
					<rect x="53.81" y="39.31" class="st0" width="12.01" height="24.47"/>
				</g>
				<g>
					<path class="st0" d="M38.81,44.39l1.72-3.49l1.7,3.37c0.21,0.36,0.38,0.33,0.72,0.16l1.46-0.73l-0.95,4.7
						c-0.2,0.92,0.33,1.19,0.9,0.57l2.09-2.23L47.01,48c0.19,0.38,0.47,0.33,0.84,0.25L50,47.8l-0.72,2.73l-0.01,0.06
						c-0.08,0.36-0.25,0.65,0.14,0.82l0.77,0.39l-4.44,3.76c-0.45,0.47-0.3,0.61-0.13,1.14l0.41,1.26l-4.15-0.75
						c-0.51-0.13-0.87-0.13-0.88,0.28l0.17,4.76h-1.25l0.17-4.74c0-0.47-0.36-0.45-1.19-0.28l-3.83,0.74l0.5-1.26
						c0.17-0.48,0.21-0.81-0.17-1.14l-4.54-3.71l0.84-0.51c0.24-0.19,0.25-0.39,0.13-0.8l-0.85-2.77l2.19,0.47
						c0.61,0.14,0.78,0,0.94-0.34l0.61-1.25l2.16,2.44c0.38,0.45,0.92,0.16,0.75-0.5l-1.04-5.1l1.6,0.92
						c0.26,0.16,0.53,0.2,0.68-0.1"/>
				</g>
			</g>
		</g>
	</g>
	<g>
		<path d="M86.96,39.62h3.64c0.88,0,2.05,0,2.65,0.37c0.66,0.39,1.18,1.11,1.18,2.09c0,1.07-0.56,1.87-1.49,2.25v0.03
			c1.24,0.25,1.91,1.18,1.91,2.41c0,1.47-1.05,2.88-3.05,2.88h-4.84V39.62z M88.29,43.94h2.67c1.52,0,2.13-0.55,2.13-1.6
			c0-1.39-0.98-1.59-2.13-1.59h-2.67V43.94z M88.29,48.53h3.34c1.15,0,1.88-0.7,1.88-1.8c0-1.31-1.05-1.67-2.18-1.67h-3.05V48.53z"
			/>
		<path d="M97.65,41.09h-1.19v-1.46h1.19V41.09z M96.45,42.39h1.19v7.26h-1.19V42.39z"/>
		<path d="M99.54,39.62h1.19v3.75h0.03c0.39-0.8,1.32-1.15,2.32-1.15c2.23,0,3.34,1.77,3.34,3.82c0,2.05-1.09,3.78-3.31,3.78
			c-0.74,0-1.81-0.28-2.34-1.14h-0.03v0.97h-1.19V39.62z M102.91,43.28c-1.6,0-2.22,1.38-2.22,2.74c0,1.43,0.65,2.75,2.29,2.75
			c1.63,0,2.18-1.39,2.18-2.81C105.16,44.6,104.46,43.28,102.91,43.28z"/>
		<path d="M107.9,39.62h1.19v10.03h-1.19V39.62z"/>
		<path d="M112.21,41.09h-1.19v-1.46h1.19V41.09z M111.02,42.39h1.19v7.26h-1.19V42.39z"/>
		<path d="M117.2,42.22c2.3,0,3.52,1.67,3.52,3.81c0,2.12-1.22,3.79-3.52,3.79c-2.3,0-3.52-1.67-3.52-3.79
			C113.67,43.89,114.9,42.22,117.2,42.22z M117.2,48.77c1.25,0,2.26-0.98,2.26-2.74c0-1.77-1.01-2.75-2.26-2.75
			c-1.25,0-2.26,0.98-2.26,2.75C114.94,47.78,115.95,48.77,117.2,48.77z"/>
		<path d="M123.79,42.39h1.45v1.05h-1.45v4.51c0,0.55,0.16,0.65,0.9,0.65h0.55v1.05h-0.91c-1.23,0-1.73-0.25-1.73-1.59v-4.62h-1.24
			v-1.05h1.24v-2.18h1.19V42.39z"/>
		<path d="M126.55,39.62h1.19v3.83h0.03c0.39-0.87,1.42-1.24,2.29-1.24c1.91,0,2.5,1.1,2.5,2.65v4.77h-1.19v-4.91
			c0-0.88-0.56-1.46-1.47-1.46c-1.45,0-2.15,0.97-2.15,2.27v4.1h-1.19V39.62z"/>
		<path d="M140.56,47.35c-0.32,1.6-1.48,2.47-3.1,2.47c-2.32,0-3.41-1.6-3.48-3.82c0-2.18,1.43-3.78,3.41-3.78
			c2.57,0,3.36,2.4,3.29,4.16h-5.43c-0.04,1.26,0.67,2.39,2.26,2.39c0.98,0,1.67-0.48,1.88-1.42H140.56z M139.4,45.33
			c-0.06-1.14-0.91-2.05-2.09-2.05c-1.25,0-1.99,0.94-2.08,2.05H139.4z M135.36,39.39h1.53l1.21,2.01h-0.9L135.36,39.39z"/>
		<path d="M148.39,52.43h-1.19v-3.76h-0.03c-0.39,0.8-1.32,1.15-2.32,1.15c-2.23,0-3.34-1.77-3.34-3.82c0-2.05,1.09-3.78,3.31-3.78
			c0.74,0,1.81,0.28,2.35,1.14h0.03v-0.97h1.19V52.43z M145.02,48.77c1.6,0,2.22-1.38,2.22-2.74c0-1.43-0.65-2.75-2.29-2.75
			c-1.63,0-2.18,1.39-2.18,2.81C142.77,47.45,143.48,48.77,145.02,48.77z"/>
		<path d="M156.24,49.65h-1.12V48.5h-0.03c-0.51,0.9-1.32,1.32-2.36,1.32c-1.91,0-2.5-1.1-2.5-2.65v-4.77h1.19v4.91
			c0,0.88,0.56,1.46,1.47,1.46c1.45,0,2.15-0.97,2.15-2.27v-4.1h1.19V49.65z"/>
		<path d="M164.24,47.35c-0.32,1.6-1.48,2.47-3.1,2.47c-2.32,0-3.41-1.6-3.48-3.82c0-2.18,1.43-3.78,3.41-3.78
			c2.57,0,3.36,2.4,3.29,4.16h-5.43c-0.04,1.26,0.67,2.39,2.26,2.39c0.98,0,1.67-0.48,1.88-1.42H164.24z M163.08,45.33
			c-0.06-1.14-0.91-2.05-2.09-2.05c-1.25,0-1.99,0.94-2.08,2.05H163.08z"/>
		<path d="M175.68,47.35c-0.32,1.6-1.47,2.47-3.1,2.47c-2.32,0-3.41-1.6-3.48-3.82c0-2.18,1.43-3.78,3.41-3.78
			c2.57,0,3.36,2.4,3.28,4.16h-5.43c-0.04,1.26,0.67,2.39,2.26,2.39c0.98,0,1.67-0.48,1.88-1.42H175.68z M174.53,45.33
			c-0.06-1.14-0.91-2.05-2.09-2.05c-1.25,0-1.99,0.94-2.08,2.05H174.53z"/>
		<path d="M178.69,42.39h1.45v1.05h-1.45v4.51c0,0.55,0.15,0.65,0.9,0.65h0.55v1.05h-0.91c-1.24,0-1.73-0.25-1.73-1.59v-4.62h-1.24
			v-1.05h1.24v-2.18h1.19V42.39z"/>
		<path d="M188.28,39.62h1.47l3.92,10.03h-1.47l-1.09-3.02h-4.24l-1.12,3.02h-1.38L188.28,39.62z M187.28,45.51h3.4l-1.67-4.68
			h-0.03L187.28,45.51z"/>
		<path d="M194.42,42.39h1.12v1.53h0.03c0.57-1.16,1.38-1.74,2.67-1.7v1.26c-1.92,0-2.63,1.09-2.63,2.93v3.23h-1.19V42.39z"/>
		<path d="M203.81,44.72c-0.18-0.91-0.81-1.45-1.8-1.45c-1.73,0-2.26,1.36-2.26,2.84c0,1.33,0.6,2.65,2.12,2.65
			c1.15,0,1.84-0.67,1.99-1.77h1.22c-0.27,1.77-1.38,2.82-3.2,2.82c-2.22,0-3.4-1.54-3.4-3.71c0-2.18,1.12-3.89,3.43-3.89
			c1.64,0,2.96,0.77,3.13,2.5H203.81z"/>
		<path d="M206.43,39.62h1.19v3.83h0.03c0.39-0.87,1.42-1.24,2.29-1.24c1.91,0,2.5,1.1,2.5,2.65v4.77h-1.19v-4.91
			c0-0.88-0.56-1.46-1.47-1.46c-1.45,0-2.15,0.97-2.15,2.27v4.1h-1.19V39.62z"/>
		<path d="M215.5,41.09h-1.19v-1.46h1.19V41.09z M214.31,42.39h1.19v7.26h-1.19V42.39z"/>
		<path d="M220.63,49.65h-1.28l-2.69-7.26h1.33l2.04,6.05h0.03l1.98-6.05h1.25L220.63,49.65z"/>
		<path d="M230.57,47.35c-0.32,1.6-1.47,2.47-3.1,2.47c-2.32,0-3.41-1.6-3.48-3.82c0-2.18,1.43-3.78,3.41-3.78
			c2.57,0,3.36,2.4,3.28,4.16h-5.43c-0.04,1.26,0.67,2.39,2.26,2.39c0.98,0,1.67-0.48,1.88-1.42H230.57z M229.42,45.33
			c-0.06-1.14-0.91-2.05-2.09-2.05c-1.25,0-1.99,0.94-2.08,2.05H229.42z"/>
		<path d="M232.65,47.36c0.04,1.07,0.97,1.4,1.95,1.4c0.74,0,1.75-0.17,1.75-1.08c0-0.93-1.18-1.08-2.37-1.35
			c-1.18-0.27-2.37-0.66-2.37-2.05c0-1.46,1.45-2.06,2.71-2.06c1.6,0,2.88,0.51,2.98,2.27h-1.19c-0.08-0.93-0.9-1.22-1.69-1.22
			c-0.72,0-1.54,0.2-1.54,0.93c0,0.86,1.26,1,2.37,1.26c1.19,0.27,2.37,0.66,2.37,2.06c0,1.73-1.61,2.29-3.09,2.29
			c-1.63,0-3-0.66-3.07-2.46H232.65z"/>
		<path d="M94.01,56.69c-0.28-1.42-1.42-2.13-2.81-2.13c-2.39,0-3.4,1.96-3.4,4.06c0,2.29,1.01,4.2,3.41,4.2
			c1.75,0,2.77-1.24,2.89-2.89h1.33c-0.25,2.5-1.81,4.02-4.34,4.02c-3.12,0-4.63-2.3-4.63-5.22c0-2.91,1.66-5.28,4.75-5.28
			c2.09,0,3.82,1.12,4.13,3.26H94.01z"/>
		<path d="M103.34,63.67c-0.21,0.13-0.48,0.2-0.86,0.2c-0.62,0-1.01-0.34-1.01-1.12c-0.66,0.77-1.54,1.12-2.56,1.12
			c-1.32,0-2.4-0.59-2.4-2.04c0-1.64,1.22-1.99,2.46-2.23c1.32-0.25,2.44-0.17,2.44-1.07c0-1.04-0.86-1.21-1.61-1.21
			c-1.01,0-1.76,0.31-1.81,1.38h-1.19c0.07-1.8,1.46-2.43,3.08-2.43c1.31,0,2.72,0.29,2.72,1.99V62c0,0.56,0,0.81,0.38,0.81
			c0.1,0,0.21-0.01,0.36-0.07V63.67z M101.4,59.95c-0.46,0.34-1.36,0.35-2.16,0.49c-0.79,0.14-1.46,0.42-1.46,1.31
			c0,0.79,0.67,1.07,1.4,1.07c1.57,0,2.22-0.98,2.22-1.64V59.95z"/>
		<path d="M104.45,56.44h1.12v1.15h0.03c0.51-0.9,1.32-1.32,2.36-1.32c1.91,0,2.5,1.09,2.5,2.65v4.77h-1.19v-4.91
			c0-0.88-0.56-1.46-1.47-1.46c-1.45,0-2.15,0.97-2.15,2.27v4.1h-1.19V56.44z"/>
		<path d="M118.69,63.67c-0.21,0.13-0.48,0.2-0.86,0.2c-0.62,0-1.01-0.34-1.01-1.12c-0.66,0.77-1.54,1.12-2.56,1.12
			c-1.32,0-2.4-0.59-2.4-2.04c0-1.64,1.22-1.99,2.46-2.23c1.32-0.25,2.44-0.17,2.44-1.07c0-1.04-0.86-1.21-1.61-1.21
			c-1.01,0-1.76,0.31-1.81,1.38h-1.19c0.07-1.8,1.46-2.43,3.07-2.43c1.3,0,2.72,0.29,2.72,1.99V62c0,0.56,0,0.81,0.38,0.81
			c0.1,0,0.21-0.01,0.37-0.07V63.67z M116.75,59.95c-0.46,0.34-1.36,0.35-2.16,0.49c-0.79,0.14-1.46,0.42-1.46,1.31
			c0,0.79,0.67,1.07,1.4,1.07c1.57,0,2.22-0.98,2.22-1.64V59.95z"/>
		<path d="M126.29,63.7h-1.19v-0.98h-0.03c-0.39,0.8-1.32,1.15-2.32,1.15c-2.23,0-3.34-1.77-3.34-3.82c0-2.05,1.09-3.78,3.31-3.78
			c0.74,0,1.81,0.28,2.34,1.14h0.03v-3.74h1.19V63.7z M122.91,62.81c1.6,0,2.22-1.38,2.22-2.74c0-1.43-0.65-2.75-2.29-2.75
			c-1.63,0-2.18,1.39-2.18,2.81C120.67,61.49,121.37,62.81,122.91,62.81z"/>
		<path d="M134.56,63.67c-0.21,0.13-0.48,0.2-0.86,0.2c-0.62,0-1.01-0.34-1.01-1.12c-0.66,0.77-1.54,1.12-2.56,1.12
			c-1.32,0-2.4-0.59-2.4-2.04c0-1.64,1.22-1.99,2.46-2.23c1.32-0.25,2.44-0.17,2.44-1.07c0-1.04-0.86-1.21-1.61-1.21
			c-1.01,0-1.76,0.31-1.81,1.38h-1.19c0.07-1.8,1.46-2.43,3.07-2.43c1.31,0,2.72,0.29,2.72,1.99V62c0,0.56,0,0.81,0.38,0.81
			c0.1,0,0.21-0.01,0.37-0.07V63.67z M132.62,59.95c-0.46,0.34-1.36,0.35-2.16,0.49c-0.79,0.14-1.46,0.42-1.46,1.31
			c0,0.79,0.67,1.07,1.4,1.07c1.57,0,2.22-0.98,2.22-1.64V59.95z"/>
	</g>
	<g>
		<path d="M258.77,39.62h1.33v8.9h5.31v1.12h-6.64V39.62z"/>
		<path d="M267.65,41.09h-1.19v-1.46h1.19V41.09z M266.46,42.39h1.19v7.26h-1.19V42.39z"/>
		<path d="M269.55,39.62h1.19v3.75h0.03c0.39-0.8,1.32-1.15,2.32-1.15c2.23,0,3.34,1.77,3.34,3.82c0,2.05-1.09,3.78-3.31,3.78
			c-0.74,0-1.81-0.28-2.35-1.14h-0.03v0.97h-1.19V39.62z M272.92,43.28c-1.6,0-2.22,1.38-2.22,2.74c0,1.43,0.65,2.75,2.29,2.75
			c1.63,0,2.18-1.39,2.18-2.81C275.16,44.6,274.46,43.28,272.92,43.28z"/>
		<path d="M277.79,42.39h1.12v1.53h0.03c0.58-1.16,1.38-1.74,2.67-1.7v1.26c-1.92,0-2.63,1.09-2.63,2.93v3.23h-1.19V42.39z"/>
		<path d="M288.94,49.62c-0.21,0.13-0.48,0.2-0.86,0.2c-0.62,0-1.01-0.34-1.01-1.12c-0.66,0.77-1.54,1.12-2.56,1.12
			c-1.32,0-2.4-0.59-2.4-2.04c0-1.64,1.22-1.99,2.46-2.23c1.32-0.25,2.44-0.17,2.44-1.07c0-1.04-0.86-1.21-1.61-1.21
			c-1.01,0-1.76,0.31-1.81,1.38h-1.19c0.07-1.8,1.46-2.43,3.07-2.43c1.31,0,2.72,0.3,2.72,1.99v3.73c0,0.56,0,0.81,0.38,0.81
			c0.1,0,0.21-0.01,0.36-0.07V49.62z M287,45.9c-0.46,0.34-1.36,0.35-2.16,0.49c-0.79,0.14-1.46,0.42-1.46,1.31
			c0,0.79,0.67,1.07,1.4,1.07c1.57,0,2.22-0.98,2.22-1.64V45.9z"/>
		<path d="M290.01,42.39h1.12v1.53h0.03c0.58-1.16,1.38-1.74,2.67-1.7v1.26c-1.92,0-2.63,1.09-2.63,2.93v3.23h-1.19V42.39z"/>
		<path d="M297.58,50.62c-0.55,1.42-1.04,1.94-2.1,1.94c-0.28,0-0.56-0.03-0.83-0.13v-1.1c0.22,0.07,0.46,0.17,0.7,0.17
			c0.49,0,0.76-0.24,0.98-0.66l0.49-1.24l-2.88-7.22h1.35l2.12,5.94h0.03l2.04-5.94h1.26L297.58,50.62z"/>
		<path d="M312.09,49.62c-0.21,0.13-0.48,0.2-0.86,0.2c-0.62,0-1.01-0.34-1.01-1.12c-0.66,0.77-1.54,1.12-2.56,1.12
			c-1.32,0-2.4-0.59-2.4-2.04c0-1.64,1.22-1.99,2.46-2.23c1.32-0.25,2.44-0.17,2.44-1.07c0-1.04-0.86-1.21-1.61-1.21
			c-1.01,0-1.76,0.31-1.81,1.38h-1.19c0.07-1.8,1.46-2.43,3.07-2.43c1.3,0,2.72,0.3,2.72,1.99v3.73c0,0.56,0,0.81,0.38,0.81
			c0.1,0,0.21-0.01,0.37-0.07V49.62z M310.15,45.9c-0.46,0.34-1.36,0.35-2.16,0.49c-0.79,0.14-1.46,0.42-1.46,1.31
			c0,0.79,0.67,1.07,1.4,1.07c1.57,0,2.22-0.98,2.22-1.64V45.9z"/>
		<path d="M313.2,42.39h1.12v1.15h0.03c0.51-0.9,1.32-1.32,2.36-1.32c1.91,0,2.5,1.1,2.5,2.65v4.77h-1.19v-4.91
			c0-0.88-0.56-1.46-1.47-1.46c-1.45,0-2.15,0.97-2.15,2.27v4.1h-1.19V42.39z"/>
		<path d="M327.5,49.65h-1.19v-0.98h-0.03c-0.39,0.8-1.32,1.15-2.32,1.15c-2.23,0-3.34-1.77-3.34-3.82c0-2.05,1.1-3.78,3.31-3.78
			c0.74,0,1.81,0.28,2.34,1.14h0.03v-3.74h1.19V49.65z M324.13,48.77c1.6,0,2.22-1.38,2.22-2.74c0-1.43-0.64-2.75-2.29-2.75
			c-1.63,0-2.18,1.39-2.18,2.81C321.88,47.45,322.58,48.77,324.13,48.77z"/>
		<path d="M336.16,39.62h1.47l3.92,10.03h-1.47l-1.09-3.02h-4.24l-1.12,3.02h-1.38L336.16,39.62z M335.17,45.51h3.4l-1.67-4.68
			h-0.03L335.17,45.51z"/>
		<path d="M342.3,42.39h1.12v1.53h0.03c0.57-1.16,1.38-1.74,2.67-1.7v1.26c-1.92,0-2.63,1.09-2.63,2.93v3.23h-1.19V42.39z"/>
		<path d="M351.7,44.72c-0.18-0.91-0.81-1.45-1.8-1.45c-1.73,0-2.26,1.36-2.26,2.84c0,1.33,0.6,2.65,2.12,2.65
			c1.15,0,1.84-0.67,1.99-1.77h1.22c-0.27,1.77-1.38,2.82-3.2,2.82c-2.22,0-3.4-1.54-3.4-3.71c0-2.18,1.12-3.89,3.42-3.89
			c1.64,0,2.96,0.77,3.13,2.5H351.7z"/>
		<path d="M354.31,39.62h1.19v3.83h0.03c0.39-0.87,1.42-1.24,2.29-1.24c1.91,0,2.5,1.1,2.5,2.65v4.77h-1.19v-4.91
			c0-0.88-0.56-1.46-1.47-1.46c-1.45,0-2.15,0.97-2.15,2.27v4.1h-1.19V39.62z"/>
		<path d="M363.38,41.09h-1.19v-1.46h1.19V41.09z M362.19,42.39h1.19v7.26h-1.19V42.39z"/>
		<path d="M368.51,49.65h-1.28l-2.7-7.26h1.33l2.04,6.05h0.03l1.98-6.05h1.25L368.51,49.65z"/>
		<path d="M378.45,47.35c-0.32,1.6-1.48,2.47-3.1,2.47c-2.32,0-3.41-1.6-3.48-3.82c0-2.18,1.43-3.78,3.41-3.78
			c2.57,0,3.36,2.4,3.29,4.16h-5.43c-0.04,1.26,0.67,2.39,2.26,2.39c0.98,0,1.67-0.48,1.88-1.42H378.45z M377.3,45.33
			c-0.06-1.14-0.91-2.05-2.09-2.05c-1.25,0-1.99,0.94-2.08,2.05H377.3z"/>
		<path d="M380.53,47.36c0.04,1.07,0.97,1.4,1.95,1.4c0.74,0,1.76-0.17,1.76-1.08c0-0.93-1.18-1.08-2.37-1.35
			c-1.18-0.27-2.37-0.66-2.37-2.05c0-1.46,1.45-2.06,2.71-2.06c1.6,0,2.88,0.51,2.98,2.27h-1.19c-0.08-0.93-0.9-1.22-1.69-1.22
			c-0.72,0-1.54,0.2-1.54,0.93c0,0.86,1.26,1,2.37,1.26c1.19,0.27,2.37,0.66,2.37,2.06c0,1.73-1.61,2.29-3.09,2.29
			c-1.63,0-3-0.66-3.07-2.46H380.53z"/>
		<path d="M265.82,56.69c-0.28-1.42-1.42-2.13-2.81-2.13c-2.39,0-3.4,1.96-3.4,4.06c0,2.29,1.01,4.2,3.41,4.2
			c1.75,0,2.77-1.24,2.89-2.89h1.33c-0.25,2.5-1.81,4.02-4.34,4.02c-3.12,0-4.63-2.3-4.63-5.22c0-2.91,1.66-5.28,4.75-5.28
			c2.09,0,3.82,1.12,4.13,3.26H265.82z"/>
		<path d="M275.15,63.67c-0.21,0.13-0.48,0.2-0.86,0.2c-0.62,0-1.01-0.34-1.01-1.12c-0.66,0.77-1.54,1.12-2.55,1.12
			c-1.32,0-2.4-0.59-2.4-2.04c0-1.64,1.22-1.99,2.46-2.23c1.32-0.25,2.44-0.17,2.44-1.07c0-1.04-0.86-1.21-1.61-1.21
			c-1.01,0-1.75,0.31-1.81,1.38h-1.19c0.07-1.8,1.46-2.43,3.08-2.43c1.31,0,2.72,0.29,2.72,1.99V62c0,0.56,0,0.81,0.38,0.81
			c0.1,0,0.21-0.01,0.36-0.07V63.67z M273.21,59.95c-0.46,0.34-1.36,0.35-2.16,0.49c-0.79,0.14-1.46,0.42-1.46,1.31
			c0,0.79,0.67,1.07,1.4,1.07c1.57,0,2.22-0.98,2.22-1.64V59.95z"/>
		<path d="M276.26,56.44h1.12v1.15h0.03c0.51-0.9,1.32-1.32,2.36-1.32c1.91,0,2.5,1.09,2.5,2.65v4.77h-1.19v-4.91
			c0-0.88-0.56-1.46-1.47-1.46c-1.45,0-2.15,0.97-2.15,2.27v4.1h-1.19V56.44z"/>
		<path d="M290.5,63.67c-0.21,0.13-0.48,0.2-0.86,0.2c-0.62,0-1.01-0.34-1.01-1.12c-0.66,0.77-1.54,1.12-2.56,1.12
			c-1.32,0-2.4-0.59-2.4-2.04c0-1.64,1.22-1.99,2.46-2.23c1.32-0.25,2.44-0.17,2.44-1.07c0-1.04-0.86-1.21-1.61-1.21
			c-1.01,0-1.76,0.31-1.81,1.38h-1.19c0.07-1.8,1.46-2.43,3.07-2.43c1.3,0,2.72,0.29,2.72,1.99V62c0,0.56,0,0.81,0.38,0.81
			c0.1,0,0.21-0.01,0.37-0.07V63.67z M288.56,59.95c-0.46,0.34-1.36,0.35-2.16,0.49c-0.79,0.14-1.46,0.42-1.46,1.31
			c0,0.79,0.67,1.07,1.4,1.07c1.57,0,2.22-0.98,2.22-1.64V59.95z"/>
		<path d="M298.1,63.7h-1.19v-0.98h-0.03c-0.39,0.8-1.32,1.15-2.32,1.15c-2.23,0-3.34-1.77-3.34-3.82c0-2.05,1.09-3.78,3.31-3.78
			c0.74,0,1.81,0.28,2.34,1.14h0.03v-3.74h1.19V63.7z M294.73,62.81c1.6,0,2.22-1.38,2.22-2.74c0-1.43-0.65-2.75-2.29-2.75
			c-1.63,0-2.18,1.39-2.18,2.81C292.48,61.49,293.18,62.81,294.73,62.81z"/>
		<path d="M306.37,63.67c-0.21,0.13-0.48,0.2-0.86,0.2c-0.62,0-1.01-0.34-1.01-1.12c-0.66,0.77-1.54,1.12-2.56,1.12
			c-1.32,0-2.4-0.59-2.4-2.04c0-1.64,1.22-1.99,2.46-2.23c1.32-0.25,2.44-0.17,2.44-1.07c0-1.04-0.86-1.21-1.61-1.21
			c-1.01,0-1.76,0.31-1.81,1.38h-1.19c0.07-1.8,1.46-2.43,3.07-2.43c1.31,0,2.72,0.29,2.72,1.99V62c0,0.56,0,0.81,0.38,0.81
			c0.1,0,0.21-0.01,0.37-0.07V63.67z M304.43,59.95c-0.46,0.34-1.36,0.35-2.16,0.49c-0.79,0.14-1.46,0.42-1.46,1.31
			c0,0.79,0.67,1.07,1.4,1.07c1.57,0,2.22-0.98,2.22-1.64V59.95z"/>
	</g>
</g>
</svg>
