<svg width="1504" height="101" viewBox="0 0 1504 101" fill="none" xmlns="http://www.w3.org/2000/svg">
<path d="M48.8925 0.309998H0.109985V99.6201H48.8925V0.309998Z" fill="#EF4135"/>
<path d="M205.751 0.309998H157.009V99.6201H205.751V0.309998Z" fill="#EF4135"/>
<path fill-rule="evenodd" clip-rule="evenodd" d="M96.1732 20.9269L103.154 6.76291L110.053 20.4399C110.905 21.9009 111.595 21.7791 112.975 21.0892L118.901 18.1671L115.045 37.2418C114.233 40.9756 116.384 42.0713 118.698 39.5551L127.18 30.5048L129.412 35.5778C130.183 37.12 131.319 36.9171 132.821 36.5924L141.587 34.7661L138.665 45.8457L138.625 46.0892C138.3 47.5502 137.61 48.7272 139.193 49.4171L142.318 50.9593L124.298 66.2191C122.472 68.1265 123.081 68.6947 123.771 70.8457L125.435 75.9593L108.592 72.9155C106.522 72.3879 105.061 72.3879 105.021 74.0519L105.711 93.3701H100.638L101.327 74.133C101.327 72.2256 99.8664 72.3067 96.4979 72.9967L80.9541 75.9999L82.9833 70.8863C83.6732 68.9382 83.8356 67.5989 82.2934 66.2597L63.868 51.2028L67.2771 49.133C68.2512 48.3619 68.2917 47.5908 67.8047 45.8863L64.3551 34.6444L73.243 36.5519C75.7187 37.1201 76.4086 36.5519 77.058 35.172L79.5336 30.0989L88.2999 40.0015C89.8421 41.8278 92.0336 40.6509 91.3437 37.9723L87.1229 17.2743L93.6164 21.008C94.6716 21.6574 95.7674 21.8197 96.3762 20.6022" fill="#EF4135"/>
<path d="M892.034 1.60873H906.807C910.378 1.60873 915.126 1.60873 917.561 3.11035C920.24 4.69315 922.35 7.61522 922.35 11.5925C922.35 15.935 920.078 19.1818 916.303 20.724V20.8457C921.336 21.8603 924.055 25.6347 924.055 30.6672C924.055 36.6331 919.794 42.3555 911.677 42.3555H892.034V1.60873ZM897.432 19.1006H908.268C914.436 19.1006 916.912 16.8685 916.912 12.6071C916.912 6.96587 912.935 6.15418 908.268 6.15418H897.432V19.1006ZM897.432 37.7289H910.987C915.654 37.7289 918.617 34.8879 918.617 30.4237C918.617 25.1071 914.355 23.6461 909.769 23.6461H897.391V37.7289H897.432Z" fill="black"/>
<path d="M935.378 7.53406H930.548V1.60873H935.378V7.53406ZM930.548 12.81H935.378V42.2743H930.548V12.81Z" fill="black"/>
<path d="M943.089 1.60873H947.919V16.8279H948.04C949.623 13.5811 953.398 12.1607 957.456 12.1607C966.506 12.1607 971.011 19.3441 971.011 27.6639C971.011 35.9837 966.587 43.0048 957.578 43.0048C954.574 43.0048 950.232 41.8685 948.081 38.3782H947.959V42.3149H943.13V1.60873H943.089ZM956.766 16.422C950.273 16.422 947.756 22.0227 947.756 27.5422C947.756 33.3457 950.394 38.7029 957.05 38.7029C963.665 38.7029 965.898 33.0616 965.898 27.2987C965.898 21.7792 963.057 16.422 956.766 16.422Z" fill="black"/>
<path d="M977.018 1.60873H981.847V42.3149H977.018V1.60873Z" fill="black"/>
<path d="M994.509 7.53406H989.68V1.60873H994.509V7.53406ZM989.639 12.81H994.469V42.2743H989.639V12.81Z" fill="black"/>
<path d="M1014.72 12.1201C1024.05 12.1201 1029.01 18.8977 1029.01 27.5827C1029.01 36.1866 1024.05 42.9642 1014.72 42.9642C1005.39 42.9642 1000.43 36.1866 1000.43 27.5827C1000.43 18.8977 1005.39 12.1201 1014.72 12.1201ZM1014.72 38.7029C1019.79 38.7029 1023.89 34.7256 1023.89 27.5827C1023.89 20.3993 1019.79 16.422 1014.72 16.422C1009.65 16.422 1005.55 20.3993 1005.55 27.5827C1005.55 34.685 1009.69 38.7029 1014.72 38.7029Z" fill="black"/>
<path d="M1041.47 12.81H1047.35V17.0714H1041.47V35.3749C1041.47 37.6071 1042.07 38.0129 1045.12 38.0129H1047.35V42.2743H1043.66C1038.67 42.2743 1036.64 41.2597 1036.64 35.8214V17.0714H1031.6V12.81H1036.64V3.96259H1041.47V12.81Z" fill="black"/>
<path d="M1052.71 1.60873H1057.54V17.1526H1057.66C1059.24 13.6217 1063.42 12.1201 1066.95 12.1201C1074.7 12.1201 1077.1 16.5844 1077.1 22.875V42.2337H1072.27V22.3068C1072.27 18.7354 1070 16.3815 1066.3 16.3815C1060.42 16.3815 1057.58 20.3181 1057.58 25.5941V42.2337H1052.75V1.60873H1052.71Z" fill="black"/>
<path d="M1109.53 32.9399C1108.23 39.4334 1103.56 42.9642 1096.94 42.9642C1087.53 42.9642 1083.11 36.4707 1082.82 27.461C1082.82 18.6136 1088.62 12.1201 1096.66 12.1201C1107.09 12.1201 1110.3 21.8603 1110.01 29.0032H1087.98C1087.81 34.1168 1090.69 38.7029 1097.15 38.7029C1101.12 38.7029 1103.92 36.7548 1104.78 32.9399H1109.53ZM1104.86 24.7418C1104.61 20.1152 1101.17 16.422 1096.38 16.422C1091.3 16.422 1088.3 20.237 1087.93 24.7418H1104.86ZM1088.42 0.634674H1094.63L1099.54 8.79215H1095.89L1088.42 0.634674Z" fill="black"/>
<path d="M1141.34 53.5568H1136.51V38.297H1136.39C1134.81 41.5438 1131.04 42.9642 1126.98 42.9642C1117.93 42.9642 1113.42 35.7808 1113.42 27.461C1113.42 19.1412 1117.89 12.1201 1126.86 12.1201C1129.86 12.1201 1134.2 13.2564 1136.35 16.7467H1136.47V12.81H1141.3V53.5568H1141.34ZM1127.67 38.7029C1134.16 38.7029 1136.68 33.1022 1136.68 27.5827C1136.68 21.7792 1134.04 16.422 1127.38 16.422C1120.77 16.422 1118.54 22.0633 1118.54 27.8263C1118.54 33.3457 1121.38 38.7029 1127.67 38.7029Z" fill="black"/>
<path d="M1173.2 42.2743H1168.66V37.607H1168.54C1166.47 41.2596 1163.18 42.9642 1158.96 42.9642C1151.21 42.9642 1148.81 38.4999 1148.81 32.2093V12.8506H1153.64V32.7775C1153.64 36.3489 1155.91 38.7028 1159.61 38.7028C1165.49 38.7028 1168.33 34.7661 1168.33 29.4902V12.8506H1173.16V42.2743H1173.2Z" fill="black"/>
<path d="M1205.63 32.9399C1204.33 39.4334 1199.66 42.9642 1193.05 42.9642C1183.63 42.9642 1179.21 36.4707 1178.93 27.461C1178.93 18.6136 1184.73 12.1201 1192.76 12.1201C1203.19 12.1201 1206.4 21.8603 1206.12 29.0032H1184.08C1183.92 34.1168 1186.8 38.7029 1193.25 38.7029C1197.23 38.7029 1200.03 36.7548 1200.88 32.9399H1205.63ZM1200.96 24.7418C1200.72 20.1152 1197.27 16.422 1192.48 16.422C1187.41 16.422 1184.4 20.237 1184.04 24.7418H1200.96Z" fill="black"/>
<path d="M1252.1 32.9399C1250.8 39.4334 1246.13 42.9642 1239.52 42.9642C1230.1 42.9642 1225.68 36.4707 1225.39 27.461C1225.39 18.6136 1231.2 12.1201 1239.23 12.1201C1249.66 12.1201 1252.87 21.8603 1252.55 29.0032H1230.51C1230.35 34.1168 1233.23 38.7029 1239.68 38.7029C1243.66 38.7029 1246.46 36.7548 1247.31 32.9399H1252.1ZM1247.43 24.7418C1247.19 20.1152 1243.74 16.422 1238.95 16.422C1233.88 16.422 1230.87 20.237 1230.51 24.7418H1247.43Z" fill="black"/>
<path d="M1264.27 12.81H1270.16V17.0714H1264.27V35.3749C1264.27 37.6071 1264.88 38.0129 1267.93 38.0129H1270.16V42.2743H1266.47C1261.43 42.2743 1259.44 41.2597 1259.44 35.8214V17.0714H1254.45V12.81H1259.44V3.96259H1264.27V12.81Z" fill="black"/>
<path d="M1303.24 1.60873H1309.2L1325.11 42.3149H1319.14L1314.68 30.0584H1297.47L1292.93 42.3149H1287.33L1303.24 1.60873ZM1299.18 25.4724H1312.98L1306.2 6.47887H1306.08L1299.18 25.4724Z" fill="black"/>
<path d="M1328.11 12.8099H1332.66V19.0194H1332.78C1335.13 14.271 1338.34 11.9577 1343.62 12.12V17.2336C1335.82 17.2336 1332.94 21.6979 1332.94 29.1249V42.2336H1328.11V12.8099Z" fill="black"/>
<path d="M1366.26 22.2662C1365.53 18.573 1362.98 16.3814 1358.96 16.3814C1351.94 16.3814 1349.79 21.9009 1349.79 27.9074C1349.79 33.3051 1352.22 38.6623 1358.39 38.6623C1363.06 38.6623 1365.86 35.9431 1366.47 31.4788H1371.42C1370.32 38.6623 1365.82 42.9236 1358.43 42.9236C1349.42 42.9236 1344.63 36.6736 1344.63 27.8668C1344.63 19.0194 1349.18 12.0795 1358.51 12.0795C1365.17 12.0795 1370.52 15.2045 1371.21 22.2256H1366.26V22.2662Z" fill="black"/>
<path d="M1376.86 1.60873H1381.68V17.1526H1381.81C1383.39 13.6217 1387.57 12.1201 1391.1 12.1201C1398.85 12.1201 1401.25 16.5844 1401.25 22.875V42.2337H1396.42V22.3068C1396.42 18.7354 1394.14 16.3815 1390.45 16.3815C1384.57 16.3815 1381.73 20.3181 1381.73 25.5941V42.2337H1376.9V1.60873H1376.86Z" fill="black"/>
<path d="M1413.71 7.53406H1408.88V1.60873H1413.71V7.53406ZM1408.84 12.81H1413.67V42.2743H1408.84V12.81Z" fill="black"/>
<path d="M1434.49 42.2744H1429.29L1418.33 12.8101H1423.73L1432.01 37.3636H1432.13L1440.17 12.8101H1445.24L1434.49 42.2744Z" fill="black"/>
<path d="M1474.87 32.9399C1473.57 39.4334 1468.9 42.9642 1462.29 42.9642C1452.87 42.9642 1448.45 36.4707 1448.16 27.461C1448.16 18.6136 1453.97 12.1201 1462 12.1201C1472.43 12.1201 1475.64 21.8603 1475.35 29.0032H1453.32C1453.15 34.1168 1456.04 38.7029 1462.49 38.7029C1466.47 38.7029 1469.27 36.7548 1470.12 32.9399H1474.87ZM1470.16 24.7418C1469.92 20.1152 1466.47 16.422 1461.68 16.422C1456.6 16.422 1453.6 20.237 1453.24 24.7418H1470.16Z" fill="black"/>
<path d="M1483.27 32.9805C1483.43 37.323 1487.2 38.6623 1491.18 38.6623C1494.18 38.6623 1498.32 37.9724 1498.32 34.2792C1498.32 30.5048 1493.54 29.8961 1488.71 28.8003C1483.92 27.7045 1479.09 26.1217 1479.09 20.4805C1479.09 14.5551 1484.97 12.1201 1490.09 12.1201C1496.58 12.1201 1501.77 14.1899 1502.18 21.3328H1497.35C1497.03 17.5584 1493.7 16.3814 1490.49 16.3814C1487.57 16.3814 1484.24 17.1931 1484.24 20.1558C1484.24 23.6461 1489.36 24.2142 1493.86 25.2694C1498.69 26.3652 1503.48 27.948 1503.48 33.6298C1503.48 40.6509 1496.94 42.9237 1490.94 42.9237C1484.32 42.9237 1478.76 40.2451 1478.48 32.9399H1483.27V32.9805Z" fill="black"/>
<path d="M920.646 70.8458C919.509 65.0828 914.883 62.2013 909.241 62.2013C899.542 62.2013 895.443 70.1964 895.443 78.6785C895.443 87.9724 899.542 95.724 909.282 95.724C916.384 95.724 920.524 90.6915 921.011 83.9951H926.409C925.394 94.1412 919.063 100.31 908.795 100.31C896.133 100.31 890.005 90.9756 890.005 79.125C890.005 67.3149 896.742 57.6964 909.282 57.6964C917.764 57.6964 924.785 62.2419 926.043 70.9269H920.646V70.8458Z" fill="black"/>
<path d="M958.47 99.1736C957.618 99.7012 956.522 99.9853 954.98 99.9853C952.464 99.9853 950.881 98.6054 950.881 95.4398C948.203 98.5648 944.631 99.9853 940.532 99.9853C935.175 99.9853 930.792 97.5908 930.792 91.7061C930.792 85.0502 935.743 83.6298 940.776 82.6557C946.133 81.6411 950.678 81.9658 950.678 78.3132C950.678 74.0924 947.188 73.4025 944.144 73.4025C940.045 73.4025 937.042 74.6606 936.798 79.0032H931.969C932.253 71.698 937.894 69.1411 944.469 69.1411C949.785 69.1411 955.508 70.3181 955.508 77.2174V92.396C955.508 94.6687 955.508 95.6834 957.05 95.6834C957.456 95.6834 957.902 95.6428 958.552 95.3993V99.1736H958.47ZM950.597 84.0762C948.73 85.4561 945.078 85.4967 941.831 86.0648C938.625 86.633 935.906 87.7694 935.906 91.3814C935.906 94.5876 938.625 95.7239 941.587 95.7239C947.959 95.7239 950.597 91.7467 950.597 89.0681V84.0762Z" fill="black"/>
<path d="M962.975 69.8311H967.521V74.4983H967.643C969.712 70.8457 973 69.1411 977.22 69.1411C984.972 69.1411 987.367 73.6054 987.367 79.896V99.2548H982.537V79.3278C982.537 75.7564 980.264 73.4025 976.571 73.4025C970.686 73.4025 967.845 77.3392 967.845 82.6152V99.2548H963.016V69.8311H962.975Z" fill="black"/>
<path d="M1020.77 99.1736C1019.92 99.7012 1018.82 99.9853 1017.28 99.9853C1014.76 99.9853 1013.18 98.6054 1013.18 95.4398C1010.5 98.5648 1006.93 99.9853 1002.83 99.9853C997.472 99.9853 993.089 97.5908 993.089 91.7061C993.089 85.0502 998.04 83.6298 1003.07 82.6557C1008.43 81.6411 1012.98 81.9658 1012.98 78.3132C1012.98 74.0924 1009.49 73.4025 1006.44 73.4025C1002.34 73.4025 999.339 74.6606 999.096 79.0032H994.266C994.55 71.698 1000.19 69.1411 1006.77 69.1411C1012.08 69.1411 1017.81 70.3181 1017.81 77.2174V92.396C1017.81 94.6687 1017.81 95.6834 1019.35 95.6834C1019.75 95.6834 1020.2 95.6428 1020.85 95.3993V99.1736H1020.77ZM1012.93 84.0762C1011.07 85.4561 1007.42 85.4967 1004.17 86.0648C1000.96 86.633 998.243 87.7694 998.243 91.3814C998.243 94.5876 1000.96 95.7239 1003.93 95.7239C1010.3 95.7239 1012.93 91.7467 1012.93 89.0681V84.0762Z" fill="black"/>
<path d="M1051.61 99.2954H1046.78V95.3181H1046.66C1045.08 98.5648 1041.3 99.9853 1037.24 99.9853C1028.19 99.9853 1023.69 92.8018 1023.69 84.482C1023.69 76.1622 1028.11 69.1411 1037.12 69.1411C1040.13 69.1411 1044.47 70.2775 1046.62 73.7678H1046.74V58.5892H1051.57V99.2954H1051.61ZM1037.93 95.6833C1044.43 95.6833 1046.94 90.0827 1046.94 84.5632C1046.94 78.7596 1044.31 73.4025 1037.65 73.4025C1031.04 73.4025 1028.8 79.0437 1028.8 84.8067C1028.8 90.3262 1031.68 95.6833 1037.93 95.6833Z" fill="black"/>
<path d="M1085.18 99.1736C1084.32 99.7012 1083.23 99.9853 1081.68 99.9853C1079.17 99.9853 1077.59 98.6054 1077.59 95.4398C1074.91 98.5648 1071.34 99.9853 1067.2 99.9853C1061.84 99.9853 1057.46 97.5908 1057.46 91.7061C1057.46 85.0502 1062.41 83.6298 1067.44 82.6557C1072.8 81.6411 1077.34 81.9658 1077.34 78.3132C1077.34 74.0924 1073.85 73.4025 1070.81 73.4025C1066.71 73.4025 1063.67 74.6606 1063.46 79.0032H1058.63C1058.92 71.698 1064.56 69.1411 1071.09 69.1411C1076.41 69.1411 1082.13 70.3181 1082.13 77.2174V92.396C1082.13 94.6687 1082.13 95.6834 1083.67 95.6834C1084.08 95.6834 1084.53 95.6428 1085.13 95.3993V99.1736H1085.18ZM1077.3 84.0762C1075.43 85.4561 1071.78 85.4967 1068.54 86.0648C1065.33 86.633 1062.61 87.7694 1062.61 91.3814C1062.61 94.5876 1065.33 95.7239 1068.29 95.7239C1074.66 95.7239 1077.3 91.7467 1077.3 89.0681V84.0762Z" fill="black"/>
<path d="M291.709 1.60873H297.107V37.7289H318.657V42.2743H291.709V1.60873Z" fill="black"/>
<path d="M327.748 7.53406H322.918V1.60873H327.748V7.53406ZM322.918 12.81H327.748V42.2743H322.918V12.81Z" fill="black"/>
<path d="M335.418 1.60873H340.248V16.8279H340.37C341.952 13.5811 345.727 12.1607 349.785 12.1607C358.836 12.1607 363.34 19.3441 363.34 27.6639C363.34 35.9837 358.876 43.0048 349.907 43.0048C346.904 43.0048 342.561 41.8685 340.41 38.3782H340.289V42.3149H335.459V1.60873H335.418ZM349.136 16.422C342.642 16.422 340.126 22.0227 340.126 27.5422C340.126 33.3457 342.764 38.7029 349.42 38.7029C356.035 38.7029 358.267 33.0616 358.267 27.2987C358.227 21.7792 355.386 16.422 349.136 16.422Z" fill="black"/>
<path d="M368.901 12.8099H373.446V19.0194H373.568C375.922 14.271 379.168 11.9577 384.404 12.12V17.2336C376.612 17.2336 373.73 21.6979 373.73 29.1249V42.2336H368.901V12.8099Z" fill="black"/>
<path d="M414.152 42.1525C413.3 42.6801 412.204 42.9642 410.662 42.9642C408.146 42.9642 406.563 41.5844 406.563 38.4188C403.884 41.5438 400.313 42.9642 396.173 42.9642C390.816 42.9642 386.433 40.5698 386.433 34.685C386.433 28.0292 391.384 26.6087 396.417 25.6347C401.774 24.6201 406.319 24.9448 406.319 21.2922C406.319 17.0714 402.829 16.3814 399.785 16.3814C395.686 16.3814 392.642 17.6396 392.44 21.9821H387.61C387.894 14.6769 393.535 12.1201 400.11 12.1201C405.427 12.1201 411.149 13.297 411.149 20.1964V35.3344C411.149 37.6071 411.149 38.6217 412.691 38.6217C413.097 38.6217 413.543 38.5811 414.152 38.3376V42.1525ZM406.279 27.0552C404.412 28.435 400.759 28.4756 397.513 29.0438C394.306 29.612 391.587 30.7483 391.587 34.3603C391.587 37.5665 394.306 38.7029 397.269 38.7029C403.641 38.7029 406.279 34.7256 406.279 32.047V27.0552Z" fill="black"/>
<path d="M418.495 12.8099H423.04V19.0194H423.162C425.516 14.271 428.762 11.9577 433.998 12.12V17.2336C426.206 17.2336 423.324 21.6979 423.324 29.1249V42.2336H418.495V12.8099Z" fill="black"/>
<path d="M449.217 46.211C446.985 51.974 444.996 54.0844 440.654 54.0844C439.518 54.0844 438.381 53.9626 437.285 53.5568V49.0925C438.178 49.3766 439.152 49.7824 440.126 49.7824C442.115 49.7824 443.211 48.8084 444.104 47.1039L446.092 42.0714L434.404 12.7694H439.883L448.487 36.8766H448.608L456.888 12.7694H462.001L449.217 46.211Z" fill="black"/>
<path d="M508.105 42.1525C507.253 42.6801 506.157 42.9642 504.615 42.9642C502.099 42.9642 500.516 41.5844 500.516 38.4188C497.837 41.5438 494.266 42.9642 490.126 42.9642C484.769 42.9642 480.386 40.5698 480.386 34.685C480.386 28.0292 485.337 26.6087 490.37 25.6347C495.727 24.6201 500.272 24.9448 500.272 21.2922C500.272 17.0714 496.782 16.3814 493.738 16.3814C489.639 16.3814 486.595 17.6396 486.392 21.9821H481.563C481.847 14.6769 487.488 12.1201 494.063 12.1201C499.379 12.1201 505.102 13.297 505.102 20.1964V35.3344C505.102 37.6071 505.102 38.6217 506.644 38.6217C507.05 38.6217 507.496 38.5811 508.146 38.3376V42.1525H508.105ZM500.232 27.0552C498.365 28.435 494.712 28.4756 491.465 29.0438C488.259 29.612 485.54 30.7483 485.54 34.3603C485.54 37.5665 488.259 38.7029 491.222 38.7029C497.594 38.7029 500.232 34.7256 500.232 32.047V27.0552Z" fill="black"/>
<path d="M512.61 12.81H517.155V17.4772H517.277C519.347 13.8246 522.634 12.1201 526.855 12.1201C534.607 12.1201 537.001 16.5844 537.001 22.8749V42.2337H532.172V22.3068C532.172 18.7353 529.899 16.3814 526.206 16.3814C520.321 16.3814 517.48 20.3181 517.48 25.5941V42.2337H512.65V12.81H512.61Z" fill="black"/>
<path d="M570.605 42.2743H565.776V38.297H565.654C564.071 41.5437 560.297 42.9642 556.238 42.9642C547.188 42.9642 542.683 35.7808 542.683 27.461C542.683 19.1412 547.107 12.1201 556.117 12.1201C559.12 12.1201 563.462 13.2564 565.654 16.7467H565.776V1.5681H570.605V42.2743ZM556.928 38.7028C563.422 38.7028 565.938 33.1022 565.938 27.5827C565.938 21.7791 563.3 16.422 556.644 16.422C550.029 16.422 547.797 22.0632 547.797 27.8262C547.837 33.3457 550.678 38.7028 556.928 38.7028Z" fill="black"/>
<path d="M605.792 1.60873H611.758L627.667 42.3149H621.701L617.236 30.0584H600.029L595.483 42.3149H589.883L605.792 1.60873ZM601.733 25.4724H615.532L608.754 6.47887H608.633L601.733 25.4724Z" fill="black"/>
<path d="M630.711 12.8099H635.256V19.0194H635.378C637.732 14.271 640.979 11.9577 646.214 12.12V17.2336C638.422 17.2336 635.54 21.6979 635.54 29.1249V42.2336H630.711V12.8099Z" fill="black"/>
<path d="M668.819 22.2662C668.089 18.573 665.532 16.3814 661.514 16.3814C654.493 16.3814 652.342 21.9009 652.342 27.9074C652.342 33.3051 654.777 38.6623 660.946 38.6623C665.613 38.6623 668.414 35.9431 669.022 31.4788H673.974C672.878 38.6623 668.373 42.9236 660.987 42.9236C651.977 42.9236 647.188 36.6736 647.188 27.8668C647.188 19.0194 651.733 12.0795 661.108 12.0795C667.764 12.0795 673.121 15.2045 673.811 22.2256H668.819V22.2662Z" fill="black"/>
<path d="M679.452 1.60873H684.282V17.1526H684.404C685.986 13.6217 690.167 12.1201 693.698 12.1201C701.449 12.1201 703.844 16.5844 703.844 22.875V42.2337H699.014V22.3068C699.014 18.7354 696.741 16.3815 693.048 16.3815C687.163 16.3815 684.323 20.3181 684.323 25.5941V42.2337H679.493V1.60873H679.452Z" fill="black"/>
<path d="M716.262 7.53406H711.433V1.60873H716.262V7.53406ZM711.433 12.81H716.262V42.2743H711.433V12.81Z" fill="black"/>
<path d="M737.082 42.2742H731.887L720.93 12.8099H726.327L734.607 37.3635H734.728L742.764 12.8099H747.837L737.082 42.2742Z" fill="black"/>
<path d="M777.423 32.9399C776.124 39.4334 771.417 42.9642 764.842 42.9642C755.426 42.9642 751.003 36.4707 750.719 27.461C750.719 18.6136 756.522 12.1201 764.558 12.1201C774.988 12.1201 778.194 21.8603 777.91 29.0032H755.873C755.71 34.1168 758.592 38.7029 765.045 38.7029C769.022 38.7029 771.822 36.7548 772.675 32.9399H777.423ZM772.756 24.7418C772.512 20.1152 769.063 16.422 764.274 16.422C759.201 16.422 756.197 20.237 755.832 24.7418H772.756Z" fill="black"/>
<path d="M785.865 32.9805C786.027 37.323 789.802 38.6623 793.779 38.6623C796.782 38.6623 800.922 37.9724 800.922 34.2792C800.922 30.5048 796.133 29.8961 791.303 28.8003C786.514 27.7045 781.685 26.1217 781.685 20.4805C781.685 14.5551 787.569 12.1201 792.683 12.1201C799.177 12.1201 804.371 14.1899 804.777 21.3328H799.948C799.623 17.5584 796.295 16.3814 793.089 16.3814C790.167 16.3814 786.839 17.1931 786.839 20.1558C786.839 23.6461 791.953 24.2142 796.457 25.2694C801.287 26.3652 806.076 27.948 806.076 33.6298C806.076 40.6509 799.542 42.9237 793.535 42.9237C786.92 42.9237 781.36 40.2451 781.076 32.9399H785.865V32.9805Z" fill="black"/>
<path d="M320.321 70.8458C319.185 65.0828 314.558 62.2013 308.917 62.2013C299.217 62.2013 295.118 70.1964 295.118 78.6785C295.118 87.9724 299.217 95.724 308.957 95.724C316.06 95.724 320.199 90.6915 320.686 83.9951H326.084C325.069 94.1412 318.738 100.31 308.47 100.31C295.808 100.31 289.68 90.9756 289.68 79.125C289.68 67.3149 296.417 57.6964 308.957 57.6964C317.439 57.6964 324.461 62.2419 325.719 70.9269H320.321V70.8458Z" fill="black"/>
<path d="M358.186 99.1736C357.334 99.7012 356.238 99.9853 354.696 99.9853C352.18 99.9853 350.597 98.6054 350.597 95.4398C347.918 98.5648 344.347 99.9853 340.207 99.9853C334.85 99.9853 330.467 97.5908 330.467 91.7061C330.467 85.0502 335.418 83.6298 340.451 82.6557C345.808 81.6411 350.353 81.9658 350.353 78.3132C350.353 74.0924 346.863 73.4025 343.819 73.4025C339.72 73.4025 336.676 74.6606 336.473 79.0032H331.644C331.928 71.698 337.569 69.1411 344.144 69.1411C349.46 69.1411 355.183 70.3181 355.183 77.2174V92.396C355.183 94.6687 355.183 95.6834 356.725 95.6834C357.131 95.6834 357.577 95.6428 358.227 95.3993V99.1736H358.186ZM350.313 84.0762C348.446 85.4561 344.793 85.4967 341.547 86.0648C338.34 86.633 335.621 87.7694 335.621 91.3814C335.621 94.5876 338.34 95.7239 341.303 95.7239C347.675 95.7239 350.313 91.7467 350.313 89.0681V84.0762Z" fill="black"/>
<path d="M362.691 69.8311H367.237V74.4983H367.358C369.428 70.8457 372.715 69.1411 376.936 69.1411C384.688 69.1411 387.082 73.6054 387.082 79.896V99.2548H382.253V79.3278C382.253 75.7564 379.98 73.4025 376.287 73.4025C370.402 73.4025 367.561 77.3392 367.561 82.6152V99.2548H362.732V69.8311H362.691Z" fill="black"/>
<path d="M420.483 99.1736C419.631 99.7012 418.535 99.9853 416.993 99.9853C414.477 99.9853 412.894 98.6054 412.894 95.4398C410.216 98.5648 406.644 99.9853 402.504 99.9853C397.147 99.9853 392.764 97.5908 392.764 91.7061C392.764 85.0502 397.716 83.6298 402.748 82.6557C408.105 81.6411 412.651 81.9658 412.651 78.3132C412.651 74.0924 409.16 73.4025 406.116 73.4025C402.017 73.4025 398.974 74.6606 398.771 79.0032H393.941C394.225 71.698 399.867 69.1411 406.441 69.1411C411.758 69.1411 417.48 70.3181 417.48 77.2174V92.396C417.48 94.6687 417.48 95.6834 419.022 95.6834C419.428 95.6834 419.875 95.6428 420.524 95.3993V99.1736H420.483ZM412.61 84.0762C410.743 85.4561 407.091 85.4967 403.844 86.0648C400.638 86.633 397.918 87.7694 397.918 91.3814C397.918 94.5876 400.638 95.7239 403.6 95.7239C409.972 95.7239 412.61 91.7467 412.61 89.0681V84.0762Z" fill="black"/>
<path d="M451.327 99.2954H446.498V95.3181H446.376C444.793 98.5648 441.019 99.9853 436.961 99.9853C427.91 99.9853 423.405 92.8018 423.405 84.482C423.405 76.1622 427.87 69.1411 436.839 69.1411C439.842 69.1411 444.185 70.2775 446.336 73.7678H446.457V58.5892H451.287V99.2954H451.327ZM437.651 95.6833C444.144 95.6833 446.66 90.0827 446.66 84.5632C446.66 78.7596 444.022 73.4025 437.366 73.4025C430.751 73.4025 428.519 79.0437 428.519 84.8067C428.519 90.3262 431.36 95.6833 437.651 95.6833Z" fill="black"/>
<path d="M484.891 99.1736C484.039 99.7012 482.943 99.9853 481.401 99.9853C478.884 99.9853 477.302 98.6054 477.302 95.4398C474.623 98.5648 471.052 99.9853 466.912 99.9853C461.555 99.9853 457.172 97.5908 457.172 91.7061C457.172 85.0502 462.123 83.6298 467.155 82.6557C472.513 81.6411 477.058 81.9658 477.058 78.3132C477.058 74.0924 473.568 73.4025 470.524 73.4025C466.425 73.4025 463.381 74.6606 463.178 79.0032H458.349C458.633 71.698 464.274 69.1411 470.849 69.1411C476.165 69.1411 481.888 70.3181 481.888 77.2174V92.396C481.888 94.6687 481.888 95.6834 483.43 95.6834C483.836 95.6834 484.282 95.6428 484.891 95.3993V99.1736ZM477.017 84.0762C475.151 85.4561 471.498 85.4967 468.251 86.0648C465.045 86.633 462.326 87.7694 462.326 91.3814C462.326 94.5876 465.045 95.7239 468.008 95.7239C474.379 95.7239 477.017 91.7467 477.017 89.0681V84.0762Z" fill="black"/>
</svg>
