<svg width="1504" height="101" viewBox="0 0 1504 101" fill="none" xmlns="http://www.w3.org/2000/svg">
<path d="M48.9225 0.309998H0.139999V99.6201H48.9225V0.309998Z" fill="#EF4135"/>
<path d="M205.822 0.309998H157.08V99.6201H205.822V0.309998Z" fill="#EF4135"/>
<path fill-rule="evenodd" clip-rule="evenodd" d="M96.2033 20.9269L103.184 6.76291L110.083 20.4399C110.935 21.9009 111.625 21.7791 113.005 21.0892L118.931 18.1265L115.075 37.2012C114.263 40.935 116.414 42.0308 118.728 39.5145L127.21 30.4642L129.483 35.5778C130.254 37.12 131.39 36.9171 132.892 36.5924L141.617 34.7661L138.695 45.8457L138.655 46.0892C138.33 47.5502 137.64 48.7272 139.223 49.4171L142.348 50.9999L124.328 66.2597C122.502 68.1671 123.111 68.7353 123.801 70.8863L125.465 75.9999L108.622 72.9561C106.552 72.4285 105.091 72.4285 105.051 74.0925L105.741 93.4106H100.668L101.358 74.1736C101.358 72.2661 99.8965 72.3473 96.528 73.0373L80.9842 76.0405L83.0134 70.9269C83.7033 68.9788 83.8657 67.6395 82.3235 66.3002L63.8981 51.2434L67.3072 49.1736C68.2813 48.4025 68.3218 47.5908 67.8348 45.9269L64.3852 34.685L73.2731 36.5924C75.7488 37.1606 76.4387 36.5924 77.0881 35.2126L79.5637 30.1395L88.33 40.0421C89.8722 41.8684 92.0637 40.6915 91.3738 38.0129L87.153 17.3149L93.6465 21.0486C94.7017 21.698 95.7975 21.8603 96.4063 20.6428" fill="#EF4135"/>
<path d="M291.617 1.56811H306.39C309.961 1.56811 314.71 1.56812 317.145 3.06974C319.823 4.65253 321.934 7.57461 321.934 11.5519C321.934 15.8944 319.661 19.1412 315.887 20.6834V20.8051C320.919 21.8197 323.638 25.5941 323.638 30.586C323.638 36.5519 319.377 42.2743 311.26 42.2743H291.617V1.56811ZM297.015 19.1006H307.851C314.02 19.1006 316.495 16.8684 316.495 12.6071C316.495 6.96584 312.518 6.15415 307.851 6.15415H297.015V19.1006ZM297.015 37.7288H310.57C315.237 37.7288 318.2 34.8879 318.2 30.4236C318.2 25.1071 313.939 23.646 309.353 23.646H296.974V37.7288H297.015Z" fill="black"/>
<path d="M335.002 7.53405H330.172V1.60873H335.002V7.53405ZM330.132 12.81H334.961V42.2743H330.132V12.81Z" fill="black"/>
<path d="M342.672 1.56811H347.502V16.7873H347.624C349.207 13.5405 352.981 12.1201 357.039 12.1201C366.09 12.1201 370.595 19.3035 370.595 27.6233C370.595 35.9431 366.171 42.9642 357.161 42.9642C354.158 42.9642 349.815 41.8279 347.664 38.3376H347.543V42.2743H342.713V1.56811H342.672ZM356.349 16.422C349.856 16.422 347.34 22.0227 347.34 27.5421C347.34 33.3457 349.978 38.7029 356.633 38.7029C363.249 38.7029 365.481 33.0616 365.481 27.2986C365.481 21.7791 362.64 16.422 356.349 16.422Z" fill="black"/>
<path d="M376.601 1.56811H381.431V42.2743H376.601V1.56811Z" fill="black"/>
<path d="M394.093 7.53405H389.263V1.60873H394.093V7.53405ZM389.263 12.81H394.093V42.2743H389.263V12.81Z" fill="black"/>
<path d="M414.345 12.1201C423.679 12.1201 428.63 18.8977 428.63 27.5827C428.63 36.1866 423.679 42.9642 414.345 42.9642C405.01 42.9642 400.059 36.1866 400.059 27.5827C400.018 18.8977 405.01 12.1201 414.345 12.1201ZM414.345 38.7029C419.418 38.7029 423.517 34.7256 423.517 27.5827C423.517 20.3993 419.418 16.422 414.345 16.422C409.271 16.422 405.172 20.3993 405.172 27.5827C405.172 34.685 409.271 38.7029 414.345 38.7029Z" fill="black"/>
<path d="M441.09 12.81H446.974V17.0714H441.09V35.3749C441.09 37.6071 441.739 38.0129 444.742 38.0129H446.974V42.2743H443.281C438.289 42.2743 436.26 41.2597 436.26 35.8214V17.0714H431.228V12.81H436.26V3.9626H441.09V12.81Z" fill="black"/>
<path d="M452.291 1.56811H457.12V17.1119H457.242C458.825 13.5811 463.005 12.0795 466.536 12.0795C474.288 12.0795 476.682 16.5438 476.682 22.8343V42.1931H471.853V22.2662C471.853 18.6947 469.58 16.3408 465.887 16.3408C460.002 16.3408 457.161 20.2775 457.161 25.5535V42.1931H452.332V1.56811H452.291Z" fill="black"/>
<path d="M509.15 32.9399C507.851 39.4334 503.143 42.9642 496.569 42.9642C487.153 42.9642 482.729 36.4707 482.445 27.461C482.445 18.6136 488.249 12.1201 496.284 12.1201C506.715 12.1201 509.921 21.8603 509.637 29.0032H487.599C487.437 34.1168 490.319 38.7029 496.771 38.7029C500.749 38.7029 503.549 36.7548 504.401 32.9399H509.15ZM504.442 24.7418C504.198 20.1152 500.749 16.422 495.96 16.422C490.887 16.422 487.883 20.237 487.518 24.7418H504.442ZM488.046 0.634682H494.255L499.166 8.79216H495.513L488.046 0.634682Z" fill="black"/>
<path d="M540.927 53.5568H536.098V38.297H535.976C534.393 41.5438 530.619 42.9642 526.56 42.9642C517.51 42.9642 513.005 35.7808 513.005 27.461C513.005 19.1412 517.429 12.1201 526.439 12.1201C529.442 12.1201 533.784 13.2564 535.976 16.7467H536.098V12.81H540.927V53.5568ZM527.25 38.7029C533.744 38.7029 536.26 33.1022 536.26 27.5827C536.26 21.7792 533.622 16.422 526.966 16.422C520.351 16.422 518.119 22.0633 518.119 27.8262C518.119 33.3457 521 38.7029 527.25 38.7029Z" fill="black"/>
<path d="M572.786 42.2743H568.241V37.6071H568.119C566.049 41.2597 562.762 42.9642 558.541 42.9642C550.789 42.9642 548.395 38.4999 548.395 32.2094V12.8506H553.224V32.7775C553.224 36.349 555.497 38.7029 559.19 38.7029C565.075 38.7029 567.916 34.7662 567.916 29.4902V12.8506H572.745V42.2743H572.786Z" fill="black"/>
<path d="M605.254 32.9399C603.955 39.4334 599.247 42.9642 592.672 42.9642C583.257 42.9642 578.833 36.4707 578.549 27.461C578.549 18.6136 584.353 12.1201 592.388 12.1201C602.819 12.1201 606.025 21.8603 605.741 29.0032H583.703C583.541 34.1168 586.422 38.7029 592.875 38.7029C596.853 38.7029 599.653 36.7548 600.505 32.9399H605.254ZM600.546 24.7418C600.302 20.1152 596.853 16.422 592.064 16.422C586.991 16.422 583.987 20.237 583.622 24.7418H600.546Z" fill="black"/>
<path d="M651.682 32.9399C650.383 39.4334 645.716 42.9642 639.101 42.9642C629.685 42.9642 625.262 36.4707 624.978 27.461C624.978 18.6136 630.781 12.1201 638.817 12.1201C649.247 12.1201 652.453 21.8603 652.129 29.0032H630.091C629.929 34.1168 632.81 38.7029 639.263 38.7029C643.241 38.7029 646.041 36.7548 646.893 32.9399H651.682ZM647.015 24.7418C646.771 20.1152 643.322 16.422 638.533 16.422C633.46 16.422 630.457 20.237 630.091 24.7418H647.015Z" fill="black"/>
<path d="M663.898 12.81H669.783V17.0714H663.898V35.3749C663.898 37.6071 664.507 38.0129 667.551 38.0129H669.783V42.2743H666.09C661.057 42.2743 659.069 41.2597 659.069 35.8214V17.0714H654.036V12.81H659.069V3.9626H663.898V12.81Z" fill="black"/>
<path d="M702.819 1.56811H708.784L724.694 42.2743H718.728L714.304 30.0178H697.096L692.551 42.2743H686.95L702.819 1.56811ZM698.76 25.4723H712.559L705.781 6.47883H705.659L698.76 25.4723Z" fill="black"/>
<path d="M727.737 12.81H732.283V19.0194H732.405C734.718 14.3116 738.005 11.9577 743.241 12.1201V17.2337C735.448 17.2337 732.567 21.6574 732.567 29.1249V42.2337H727.737V12.81Z" fill="black"/>
<path d="M765.846 22.2662C765.116 18.573 762.559 16.3814 758.541 16.3814C751.52 16.3814 749.369 21.9009 749.369 27.9074C749.369 33.3051 751.804 38.6623 757.973 38.6623C762.64 38.6623 765.44 35.9431 766.049 31.4788H771C769.905 38.6623 765.4 42.9236 758.013 42.9236C749.004 42.9236 744.215 36.6736 744.215 27.8668C744.215 19.0194 748.76 12.0795 758.135 12.0795C764.791 12.0795 770.148 15.2045 770.838 22.2256H765.846V22.2662Z" fill="black"/>
<path d="M776.479 1.56811H781.309V17.1119H781.431C783.013 13.5811 787.194 12.0795 790.724 12.0795C798.476 12.0795 800.871 16.5438 800.871 22.8343V42.1931H796.041V22.2662C796.041 18.6947 793.768 16.3408 790.075 16.3408C784.19 16.3408 781.349 20.2775 781.349 25.5535V42.1931H776.52V1.56811H776.479Z" fill="black"/>
<path d="M813.289 7.53405H808.46V1.60873H813.289V7.53405ZM808.46 12.81H813.289V42.2743H808.46V12.81Z" fill="black"/>
<path d="M834.109 42.2743H828.914L817.997 12.81H823.395L831.674 37.3636H831.796L839.832 12.81H844.905L834.109 42.2743Z" fill="black"/>
<path d="M874.45 32.9399C873.151 39.4334 868.484 42.9642 861.869 42.9642C852.453 42.9642 848.03 36.4707 847.745 27.461C847.745 18.6136 853.549 12.1201 861.585 12.1201C872.015 12.1201 875.221 21.8603 874.896 29.0032H852.859C852.697 34.1168 855.578 38.7029 862.031 38.7029C866.008 38.7029 868.809 36.7548 869.661 32.9399H874.45ZM869.783 24.7418C869.539 20.1152 866.09 16.422 861.301 16.422C856.228 16.422 853.224 20.237 852.859 24.7418H869.783Z" fill="black"/>
<path d="M882.892 32.9805C883.054 37.323 886.828 38.6623 890.806 38.6623C893.809 38.6623 897.908 37.9723 897.908 34.2792C897.908 30.5048 893.119 29.8961 888.289 28.8003C883.5 27.7045 878.671 26.1217 878.671 20.4805C878.671 14.5551 884.556 12.1201 889.669 12.1201C896.163 12.1201 901.357 14.1899 901.763 21.3327H896.934C896.609 17.5584 893.281 16.3814 890.075 16.3814C887.153 16.3814 883.825 17.1931 883.825 20.1558C883.825 23.6461 888.939 24.2142 893.443 25.2694C898.273 26.3652 903.062 27.948 903.062 33.6298C903.062 40.6509 896.528 42.9237 890.521 42.9237C883.906 42.9237 878.346 40.2451 878.062 32.9399H882.892V32.9805Z" fill="black"/>
<path d="M320.229 70.8457C319.093 65.0827 314.466 62.2012 308.825 62.2012C299.125 62.2012 295.026 70.1558 295.026 78.6785C295.026 87.9723 299.125 95.724 308.866 95.724C315.968 95.724 320.108 90.6915 320.595 83.9951H325.992C324.978 94.1412 318.646 100.31 308.379 100.31C295.716 100.31 289.588 90.9756 289.588 79.1249C289.588 67.3149 296.325 57.6964 308.866 57.6964C317.348 57.6964 324.369 62.2418 325.627 70.9269H320.229V70.8457Z" fill="black"/>
<path d="M358.095 99.1737C357.242 99.7013 356.146 99.9853 354.604 99.9853C352.088 99.9853 350.505 98.6055 350.505 95.4399C347.827 98.5649 344.255 99.9853 340.116 99.9853C334.758 99.9853 330.375 97.5909 330.375 91.7061C330.375 85.0503 335.327 83.6298 340.359 82.6558C345.716 81.6412 350.262 81.9659 350.262 78.3133C350.262 74.0925 346.771 73.4026 343.728 73.4026C339.629 73.4026 336.585 74.6607 336.382 79.0032H331.552C331.836 71.698 337.478 69.1412 344.052 69.1412C349.369 69.1412 355.091 70.3181 355.091 77.2175V92.3961C355.091 94.6688 355.091 95.6834 356.633 95.6834C357.039 95.6834 357.486 95.6428 358.095 95.3993V99.1737ZM350.221 84.0763C348.354 85.4561 344.702 85.4967 341.455 86.0649C338.249 86.6331 335.53 87.7694 335.53 91.3815C335.53 94.5876 338.249 95.724 341.211 95.724C347.583 95.724 350.221 91.7467 350.221 89.0681V84.0763Z" fill="black"/>
<path d="M362.599 69.8311H367.145V74.4983H367.267C369.336 70.8457 372.624 69.1412 376.844 69.1412C384.596 69.1412 386.991 73.5649 386.991 79.8961V99.2548H382.161V79.3279C382.161 75.7565 379.888 73.4026 376.195 73.4026C370.31 73.4026 367.469 77.3392 367.469 82.6152V99.2548H362.64V69.8311H362.599Z" fill="black"/>
<path d="M420.392 99.1737C419.539 99.7013 418.444 99.9853 416.901 99.9853C414.385 99.9853 412.802 98.6055 412.802 95.4399C410.124 98.5649 406.552 99.9853 402.413 99.9853C397.056 99.9853 392.672 97.5909 392.672 91.7061C392.672 85.0503 397.624 83.6298 402.656 82.6558C408.013 81.6412 412.559 81.9659 412.559 78.3133C412.559 74.0925 409.069 73.4026 406.025 73.4026C401.926 73.4026 398.882 74.6607 398.679 79.0032H393.849C394.133 71.698 399.775 69.1412 406.309 69.1412C411.585 69.1412 417.348 70.3181 417.348 77.2175V92.3961C417.348 94.6688 417.348 95.6834 418.89 95.6834C419.296 95.6834 419.742 95.6428 420.392 95.3993V99.1737ZM412.518 84.0763C410.651 85.4561 406.999 85.4967 403.752 86.0649C400.546 86.6331 397.827 87.7694 397.827 91.3815C397.827 94.5876 400.546 95.724 403.508 95.724C409.88 95.724 412.518 91.7467 412.518 89.0681V84.0763Z" fill="black"/>
<path d="M451.236 99.2954H446.406V95.3181H446.284C444.702 98.5649 440.927 99.9853 436.869 99.9853C427.819 99.9853 423.314 92.8019 423.314 84.4821C423.314 76.1623 427.737 69.1412 436.747 69.1412C439.75 69.1412 444.093 70.2775 446.244 73.7678H446.366V58.5892H451.195V99.2954H451.236ZM437.518 95.6834C444.012 95.6834 446.528 90.0827 446.528 84.5633C446.528 78.7597 443.89 73.4025 437.234 73.4025C430.619 73.4025 428.387 79.0438 428.387 84.8068C428.427 90.3262 431.268 95.6834 437.518 95.6834Z" fill="black"/>
<path d="M484.799 99.1737C483.947 99.7013 482.851 99.9853 481.309 99.9853C478.793 99.9853 477.21 98.6055 477.21 95.4399C474.531 98.5649 470.96 99.9853 466.82 99.9853C461.463 99.9853 457.08 97.5909 457.08 91.7061C457.08 85.0503 462.031 83.6298 467.064 82.6558C472.421 81.6412 476.966 81.9659 476.966 78.3133C476.966 74.0925 473.476 73.4026 470.432 73.4026C466.333 73.4026 463.289 74.6607 463.086 79.0032H458.257C458.541 71.698 464.182 69.1412 470.716 69.1412C476.033 69.1412 481.755 70.3181 481.755 77.2175V92.3961C481.755 94.6688 481.755 95.6834 483.297 95.6834C483.703 95.6834 484.15 95.6428 484.799 95.3993V99.1737ZM476.926 84.0763C475.059 85.4561 471.406 85.4967 468.159 86.0649C464.953 86.6331 462.234 87.7694 462.234 91.3815C462.234 94.5876 464.953 95.724 467.916 95.724C474.288 95.724 476.926 91.7467 476.926 89.0681V84.0763Z" fill="black"/>
<path d="M988.898 1.56811H994.296V37.6882H1015.85V42.2337H988.898V1.56811Z" fill="black"/>
<path d="M1024.94 7.53402H1020.11V1.6087H1024.94V7.53402ZM1020.11 12.81H1024.94V42.2743H1020.11V12.81Z" fill="black"/>
<path d="M1032.65 1.56811H1037.48V16.7873H1037.6C1039.18 13.5405 1042.96 12.1201 1047.01 12.1201C1056.07 12.1201 1060.57 19.3035 1060.57 27.6233C1060.57 35.9431 1056.15 42.9642 1047.14 42.9642C1044.13 42.9642 1039.79 41.8279 1037.6 38.3376H1037.48V42.2743H1032.65V1.56811ZM1046.33 16.422C1039.83 16.422 1037.32 22.0227 1037.32 27.5421C1037.32 33.3457 1039.95 38.7029 1046.61 38.7029C1053.22 38.7029 1055.46 33.0616 1055.46 27.2986C1055.42 21.7791 1052.58 16.422 1046.33 16.422Z" fill="black"/>
<path d="M1066.09 12.81H1070.64V19.0194H1070.76C1073.11 14.3116 1076.36 11.9577 1081.59 12.1201V17.2337C1073.8 17.2337 1070.92 21.6574 1070.92 29.1249V42.2337H1066.09V12.81Z" fill="black"/>
<path d="M1111.34 42.1525C1110.49 42.6801 1109.39 42.9642 1107.85 42.9642C1105.33 42.9642 1103.75 41.5844 1103.75 38.4188C1101.07 41.5438 1097.5 42.9642 1093.36 42.9642C1088.01 42.9642 1083.62 40.5697 1083.62 34.685C1083.62 28.0292 1088.57 26.6087 1093.61 25.6347C1098.96 24.6201 1103.51 24.9447 1103.51 21.2922C1103.51 17.0714 1100.02 16.3814 1096.97 16.3814C1092.88 16.3814 1089.83 17.6396 1089.63 21.9821H1084.8C1085.08 14.6769 1090.72 12.1201 1097.26 12.1201C1102.58 12.1201 1108.3 13.3376 1108.3 20.1964V35.3344C1108.3 37.6071 1108.3 38.6217 1109.84 38.6217C1110.25 38.6217 1110.69 38.5811 1111.3 38.3376V42.1525H1111.34ZM1103.47 27.0551C1101.6 28.435 1097.95 28.4756 1094.7 29.0438C1091.5 29.612 1088.78 30.7483 1088.78 34.3603C1088.78 37.5665 1091.5 38.7029 1094.46 38.7029C1100.83 38.7029 1103.47 34.7256 1103.47 32.047V27.0551Z" fill="black"/>
<path d="M1115.68 12.81H1120.23V19.0194H1120.35C1122.7 14.3116 1125.95 11.9577 1131.19 12.1201V17.2337C1123.39 17.2337 1120.51 21.6574 1120.51 29.1249V42.2337H1115.68V12.81Z" fill="black"/>
<path d="M1146.41 46.211C1144.17 51.9739 1142.19 54.0843 1137.88 54.0843C1136.75 54.0843 1135.61 53.9626 1134.52 53.5567V49.0925C1135.41 49.3766 1136.38 49.7824 1137.36 49.7824C1139.34 49.7824 1140.44 48.8084 1141.33 47.1038L1143.32 42.0713L1131.63 12.7694H1137.11L1145.72 36.8765H1145.84L1154.12 12.7694H1159.23L1146.41 46.211Z" fill="black"/>
<path d="M1205.29 42.1525C1204.44 42.6801 1203.35 42.9642 1201.8 42.9642C1199.29 42.9642 1197.7 41.5844 1197.7 38.4188C1195.03 41.5438 1191.45 42.9642 1187.32 42.9642C1181.96 42.9642 1177.58 40.5697 1177.58 34.685C1177.58 28.0292 1182.53 26.6087 1187.56 25.6347C1192.92 24.6201 1197.46 24.9447 1197.46 21.2922C1197.46 17.0714 1193.97 16.3814 1190.93 16.3814C1186.83 16.3814 1183.78 17.6396 1183.58 21.9821H1178.75C1179.04 14.6769 1184.68 12.1201 1191.21 12.1201C1196.49 12.1201 1202.25 13.3376 1202.25 20.1964V35.3344C1202.25 37.6071 1202.25 38.6217 1203.79 38.6217C1204.2 38.6217 1204.64 38.5811 1205.29 38.3376V42.1525ZM1197.42 27.0551C1195.55 28.435 1191.9 28.4756 1188.65 29.0438C1185.45 29.612 1182.73 30.7483 1182.73 34.3603C1182.73 37.5665 1185.45 38.7029 1188.41 38.7029C1194.78 38.7029 1197.42 34.7256 1197.42 32.047V27.0551Z" fill="black"/>
<path d="M1209.8 12.81H1214.34V17.4772H1214.47C1216.54 13.8246 1219.82 12.1201 1224.04 12.1201C1231.8 12.1201 1234.19 16.5844 1234.19 22.8749V42.2337H1229.36V22.3068C1229.36 18.7353 1227.09 16.3814 1223.39 16.3814C1217.51 16.3814 1214.67 20.3181 1214.67 25.5941V42.2337H1209.84V12.81H1209.8Z" fill="black"/>
<path d="M1267.83 42.2743H1263.01V38.297H1262.88C1261.3 41.5438 1257.53 42.9642 1253.47 42.9642C1244.42 42.9642 1239.91 35.7808 1239.91 27.461C1239.91 19.1412 1244.38 12.1201 1253.35 12.1201C1256.35 12.1201 1260.69 13.2564 1262.84 16.7467H1262.96V1.56811H1267.79V42.2743H1267.83ZM1254.16 38.7029C1260.65 38.7029 1263.17 33.1022 1263.17 27.5827C1263.17 21.7791 1260.57 16.422 1253.87 16.422C1247.26 16.422 1245.03 22.0632 1245.03 27.8262C1245.03 33.3457 1247.87 38.7029 1254.16 38.7029Z" fill="black"/>
<path d="M1302.98 1.56811H1308.95L1324.86 42.2743H1318.89L1314.47 30.0178H1297.26L1292.71 42.2743H1287.11L1302.98 1.56811ZM1298.96 25.4723H1312.76L1305.98 6.47883H1305.86L1298.96 25.4723Z" fill="black"/>
<path d="M1327.9 12.81H1332.45V19.0194H1332.57C1334.88 14.3116 1338.17 11.9577 1343.4 12.1201V17.2337C1335.61 17.2337 1332.73 21.6574 1332.73 29.1249V42.2337H1327.9V12.81Z" fill="black"/>
<path d="M1366.05 22.2661C1365.32 18.573 1362.76 16.3814 1358.74 16.3814C1351.72 16.3814 1349.57 21.9009 1349.57 27.9074C1349.57 33.3051 1352.01 38.6622 1358.18 38.6622C1362.84 38.6622 1365.64 35.9431 1366.25 31.4788H1371.2C1370.11 38.6623 1365.6 42.9236 1358.22 42.9236C1349.21 42.9236 1344.42 36.6736 1344.42 27.8668C1344.42 19.0194 1348.96 12.0795 1358.3 12.0795C1364.95 12.0795 1370.31 15.2045 1371 22.2256H1366.05V22.2661Z" fill="black"/>
<path d="M1376.64 1.56811H1381.47V17.1119H1381.59C1383.18 13.5811 1387.36 12.0795 1390.89 12.0795C1398.64 12.0795 1401.03 16.5438 1401.03 22.8343V42.1931H1396.2V22.2662C1396.2 18.6947 1393.93 16.3408 1390.24 16.3408C1384.35 16.3408 1381.51 20.2775 1381.51 25.5535V42.1931H1376.68V1.56811H1376.64Z" fill="black"/>
<path d="M1413.45 7.53402H1408.62V1.6087H1413.45V7.53402ZM1408.62 12.81H1413.45V42.2743H1408.62V12.81Z" fill="black"/>
<path d="M1434.27 42.2743H1429.08L1418.12 12.81H1423.52L1431.8 37.3636H1431.92L1439.95 12.81H1445.03L1434.27 42.2743Z" fill="black"/>
<path d="M1474.61 32.9399C1473.31 39.4334 1468.61 42.9642 1462.03 42.9642C1452.62 42.9642 1448.19 36.4707 1447.91 27.461C1447.91 18.6136 1453.71 12.1201 1461.75 12.1201C1472.18 12.1201 1475.38 21.8603 1475.1 29.0032H1453.06C1452.9 34.1168 1455.78 38.7029 1462.23 38.7029C1466.21 38.7029 1469.01 36.7548 1469.86 32.9399H1474.61ZM1469.95 24.7418C1469.7 20.1152 1466.25 16.422 1461.46 16.422C1456.39 16.422 1453.39 20.237 1453.02 24.7418H1469.95Z" fill="black"/>
<path d="M1483.05 32.9805C1483.22 37.323 1486.99 38.6623 1490.97 38.6623C1493.97 38.6623 1498.11 37.9723 1498.11 34.2792C1498.11 30.5048 1493.32 29.8961 1488.49 28.8003C1483.7 27.7045 1478.87 26.1217 1478.87 20.4805C1478.87 14.5551 1484.76 12.1201 1489.87 12.1201C1496.37 12.1201 1501.56 14.1899 1501.97 21.3327H1497.14C1496.81 17.5584 1493.48 16.3814 1490.28 16.3814C1487.36 16.3814 1484.03 17.1931 1484.03 20.1558C1484.03 23.6461 1489.14 24.2142 1493.65 25.2694C1498.48 26.3652 1503.27 27.948 1503.27 33.6298C1503.27 40.6509 1496.73 42.9237 1490.72 42.9237C1484.11 42.9237 1478.55 40.2451 1478.27 32.9399H1483.05V32.9805Z" fill="black"/>
<path d="M1017.51 70.8457C1016.37 65.0827 1011.75 62.2012 1006.11 62.2012C996.406 62.2012 992.307 70.1558 992.307 78.6785C992.307 87.9723 996.406 95.724 1006.15 95.724C1013.25 95.724 1017.39 90.6915 1017.88 83.9951H1023.27C1022.26 94.1412 1015.93 100.31 1005.66 100.31C992.997 100.31 986.869 90.9756 986.869 79.1249C986.869 67.3149 993.606 57.6964 1006.15 57.6964C1014.63 57.6964 1021.65 62.2418 1022.91 70.9269H1017.51V70.8457Z" fill="black"/>
<path d="M1055.38 99.1736C1054.52 99.7012 1053.43 99.9853 1051.89 99.9853C1049.37 99.9853 1047.79 98.6055 1047.79 95.4399C1045.11 98.5649 1041.54 99.9853 1037.44 99.9853C1032.08 99.9853 1027.7 97.5908 1027.7 91.7061C1027.7 85.0503 1032.65 83.6298 1037.68 82.6558C1043.04 81.6412 1047.58 81.9658 1047.58 78.3132C1047.58 74.0925 1044.09 73.4025 1041.05 73.4025C1036.95 73.4025 1033.95 74.6606 1033.7 79.0032H1028.87C1029.16 71.698 1034.8 69.1412 1041.37 69.1412C1046.69 69.1412 1052.41 70.3181 1052.41 77.2175V92.396C1052.41 94.6688 1052.41 95.6834 1053.95 95.6834C1054.36 95.6834 1054.81 95.6428 1055.42 95.3993V99.1736H1055.38ZM1047.5 84.0762C1045.64 85.4561 1041.98 85.4967 1038.74 86.0649C1035.53 86.633 1032.81 87.7694 1032.81 91.3814C1032.81 94.5876 1035.53 95.724 1038.49 95.724C1044.86 95.724 1047.5 91.7467 1047.5 89.0681V84.0762Z" fill="black"/>
<path d="M1059.88 69.8311H1064.43V74.4983H1064.55C1066.62 70.8457 1069.9 69.1412 1074.13 69.1412C1081.88 69.1412 1084.27 73.5649 1084.27 79.896V99.2548H1079.44V79.3278C1079.44 75.7564 1077.17 73.4025 1073.48 73.4025C1067.59 73.4025 1064.75 77.3392 1064.75 82.6152V99.2548H1059.92V69.8311H1059.88Z" fill="black"/>
<path d="M1117.67 99.1736C1116.82 99.7012 1115.72 99.9853 1114.18 99.9853C1111.67 99.9853 1110.08 98.6055 1110.08 95.4399C1107.4 98.5649 1103.83 99.9853 1099.69 99.9853C1094.34 99.9853 1089.95 97.5908 1089.95 91.7061C1089.95 85.0503 1094.9 83.6298 1099.94 82.6558C1105.29 81.6412 1109.84 81.9658 1109.84 78.3132C1109.84 74.0925 1106.35 73.4025 1103.31 73.4025C1099.21 73.4025 1096.16 74.6606 1095.96 79.0032H1091.13C1091.41 71.698 1097.06 69.1412 1103.59 69.1412C1108.87 69.1412 1114.63 70.3181 1114.63 77.2175V92.396C1114.63 94.6688 1114.63 95.6834 1116.17 95.6834C1116.58 95.6834 1117.02 95.6428 1117.67 95.3993V99.1736ZM1109.8 84.0762C1107.93 85.4561 1104.28 85.4967 1101.03 86.0649C1097.83 86.633 1095.11 87.7694 1095.11 91.3814C1095.11 94.5876 1097.83 95.724 1100.79 95.724C1107.16 95.724 1109.8 91.7467 1109.8 89.0681V84.0762Z" fill="black"/>
<path d="M1148.52 99.2954H1143.69V95.3181H1143.57C1141.98 98.5649 1138.21 99.9853 1134.15 99.9853C1125.1 99.9853 1120.59 92.8019 1120.59 84.4821C1120.59 76.1623 1125.02 69.1412 1134.03 69.1412C1137.03 69.1412 1141.37 70.2775 1143.52 73.7678H1143.65V58.5892H1148.48V99.2954H1148.52ZM1134.84 95.6834C1141.33 95.6834 1143.85 90.0827 1143.85 84.5633C1143.85 78.7597 1141.21 73.4025 1134.56 73.4025C1127.94 73.4025 1125.71 79.0438 1125.71 84.8068C1125.71 90.3262 1128.55 95.6834 1134.84 95.6834Z" fill="black"/>
<path d="M1182.08 99.1736C1181.23 99.7012 1180.13 99.9853 1178.59 99.9853C1176.07 99.9853 1174.49 98.6055 1174.49 95.4399C1171.81 98.5649 1168.24 99.9853 1164.1 99.9853C1158.74 99.9853 1154.36 97.5908 1154.36 91.7061C1154.36 85.0503 1159.31 83.6298 1164.34 82.6558C1169.7 81.6412 1174.25 81.9658 1174.25 78.3132C1174.25 74.0925 1170.76 73.4025 1167.71 73.4025C1163.61 73.4025 1160.57 74.6606 1160.37 79.0032H1155.54C1155.82 71.698 1161.46 69.1412 1168 69.1412C1173.31 69.1412 1179.04 70.3181 1179.04 77.2175V92.396C1179.04 94.6688 1179.04 95.6834 1180.58 95.6834C1180.98 95.6834 1181.43 95.6428 1182.08 95.3993V99.1736ZM1174.21 84.0762C1172.34 85.4561 1168.69 85.4967 1165.44 86.0649C1162.23 86.633 1159.52 87.7694 1159.52 91.3814C1159.52 94.5876 1162.23 95.724 1165.2 95.724C1171.57 95.724 1174.21 91.7467 1174.21 89.0681V84.0762Z" fill="black"/>
</svg>
