<?xml version="1.0" encoding="utf-8"?>
<!-- Generator: Adobe Illustrator 27.4.0, SVG Export Plug-In . SVG Version: 6.00 Build 0)  -->
<svg version="1.1" id="French" xmlns="http://www.w3.org/2000/svg" xmlns:xlink="http://www.w3.org/1999/xlink" x="0px" y="0px"
	 viewBox="0 0 1661.11 100" style="enable-background:new 0 0 1661.11 100;" xml:space="preserve">
<style type="text/css">
	.Arched_x0020_Green{fill:url(#SVGID_1_);stroke:#FFFFFF;stroke-width:0.25;stroke-miterlimit:1;}
	.st0{fill-rule:evenodd;clip-rule:evenodd;fill:#E30613;}
</style>
<linearGradient id="SVGID_1_" gradientUnits="userSpaceOnUse" x1="12.1297" y1="43.3192" x2="12.8368" y2="42.6121">
	<stop  offset="0" style="stop-color:#1DA238"/>
	<stop  offset="0.9831" style="stop-color:#24391D"/>
</linearGradient>
<g id="_x36_5_Medium_1_">
	<g>
		<g>
			<path class="st0" d="M98.82,8.2c0,0-6.12,11.79-6.93,13c-0.82,1.63-1.63,1.63-2.86,0.82c-1.64-0.82-6.54-3.65-6.54-3.65
				s4.5,19.49,4.5,21.11c0.4,1.63-1.23,2.85-2.87,1.63c-0.41-0.4-8.98-10.16-8.98-10.16s-2.04,4.47-2.45,5.29
				c-0.41,0.82-0.81,1.62-2.04,1.22c-1.63-0.4-9.4-2.03-9.4-2.03s2.87,9.74,3.27,10.97c0.4,0.97,0.82,2.03-0.82,2.84l-2.85,1.22
				c0,0,16.73,14.66,17.14,15.06c0.82,0.82,1.64,1.23,0.82,3.67c-0.82,2.45-1.64,5.73-1.64,5.73s15.52-3.27,17.15-3.69
				c1.42-0.15,2.98,0.41,2.98,2.04c0,1.64-0.95,18.38-0.95,18.38h4.9c0,0-0.95-16.74-0.95-18.38c0-1.63,1.55-2.19,2.99-2.04
				c1.64,0.41,17.14,3.69,17.14,3.69s-0.82-3.27-1.63-5.73c-0.82-2.45,0-2.86,0.82-3.67c0.41-0.4,17.15-15.06,17.15-15.06
				l-2.85-1.22c-1.63-0.82-1.21-1.88-0.82-2.84c0.39-1.23,3.27-10.97,3.27-10.97s-7.77,1.63-9.4,2.03c-1.22,0.4-1.63-0.4-2.04-1.22
				c-0.41-0.82-2.45-5.29-2.45-5.29s-8.58,9.76-8.98,10.16c-1.63,1.22-3.27,0-2.86-1.63c0-1.62,4.5-21.11,4.5-21.11
				s-4.9,2.84-6.53,3.65c-1.22,0.81-2.05,0.81-2.86-0.82C104.95,19.99,98.82,8.2,98.82,8.2L98.82,8.2z"/>
			<polygon class="st0" points="49.41,99 49.41,0.87 0,0.87 0,99 49.41,99 			"/>
			<polygon class="st0" points="197.63,99 197.63,0.87 148.22,0.87 148.22,99 197.63,99 			"/>
		</g>
		<g>
			<path d="M313.52,13.72c-1.18-4.61-4.16-7.99-10.01-7.99c-8.61,0-12.21,7.59-12.21,15.3s3.6,15.3,12.21,15.3
				c6.24,0,9.68-4.67,10.24-10.52h6.86c-0.56,9.62-7.37,16.26-17.1,16.26c-12.04,0-19.24-9.56-19.24-21.04S291.46,0,303.5,0
				c9.06,0.05,16.2,5.06,17.04,13.72H313.52z"/>
			<path d="M324.79,26.55c0-8.89,5.35-15.3,14.68-15.3c9.34,0,14.68,6.41,14.68,15.3c0,8.95-5.35,15.36-14.68,15.36
				C330.13,41.91,324.79,35.49,324.79,26.55z M347.74,26.55c0-5.01-2.53-10.24-8.27-10.24c-5.74,0-8.27,5.23-8.27,10.24
				c0,5.06,2.53,10.29,8.27,10.29C345.2,36.84,347.74,31.61,347.74,26.55z"/>
			<path d="M359.51,12.04h6.08v4.05h0.17c1.91-2.87,4.33-4.84,8.95-4.84c3.54,0,6.86,1.52,8.16,4.84c2.14-2.98,4.89-4.84,9.11-4.84
				c6.13,0,9.73,2.7,9.73,9.79v20.08h-6.41V24.13c0-4.61-0.28-7.82-5.29-7.82c-4.33,0-6.19,2.87-6.19,7.76v17.04h-6.41V22.44
				c0-3.99-1.24-6.13-5.12-6.13c-3.32,0-6.36,2.7-6.36,7.54v17.27h-6.41V12.04z"/>
			<path d="M408.48,12.04h6.07v4.05h0.17c1.91-2.87,4.33-4.84,8.95-4.84c3.54,0,6.86,1.52,8.16,4.84c2.14-2.98,4.89-4.84,9.11-4.84
				c6.13,0,9.73,2.7,9.73,9.79v20.08h-6.41V24.13c0-4.61-0.28-7.82-5.29-7.82c-4.33,0-6.19,2.87-6.19,7.76v17.04h-6.41V22.44
				c0-3.99-1.24-6.13-5.12-6.13c-3.32,0-6.36,2.7-6.36,7.54v17.27h-6.41V12.04z"/>
			<path d="M457.61,0.95h6.41v6.08h-6.41V0.95z M457.61,12.04h6.41v29.08h-6.41V12.04z"/>
			<path d="M475.84,31.78c0.34,3.71,3.15,5.06,6.58,5.06c2.42,0,6.64-0.51,6.47-3.82c-0.17-3.38-4.84-3.77-9.51-4.84
				c-4.73-1.01-9.34-2.7-9.34-8.61c0-6.36,6.86-8.33,12.15-8.33c5.96,0,11.36,2.48,12.15,8.95h-6.69c-0.56-3.04-3.09-3.88-5.91-3.88
				c-1.86,0-5.29,0.45-5.29,2.98c0,3.15,4.73,3.6,9.45,4.67c4.67,1.07,9.39,2.76,9.39,8.49c0,6.92-6.98,9.45-12.99,9.45
				c-7.31,0-12.77-3.26-12.88-10.12H475.84z"/>
			<path d="M505.05,31.78c0.34,3.71,3.15,5.06,6.58,5.06c2.42,0,6.64-0.51,6.47-3.82c-0.17-3.38-4.84-3.77-9.51-4.84
				c-4.73-1.01-9.34-2.7-9.34-8.61c0-6.36,6.86-8.33,12.15-8.33c5.96,0,11.36,2.48,12.15,8.95h-6.69c-0.56-3.04-3.09-3.88-5.91-3.88
				c-1.85,0-5.29,0.45-5.29,2.98c0,3.15,4.73,3.6,9.45,4.67c4.67,1.07,9.39,2.76,9.39,8.49c0,6.92-6.98,9.45-12.99,9.45
				c-7.31,0-12.77-3.26-12.88-10.12H505.05z"/>
			<path d="M529.59,0.95h6.41v6.08h-6.41V0.95z M529.59,12.04h6.41v29.08h-6.41V12.04z"/>
			<path d="M541.64,26.55c0-8.89,5.35-15.3,14.68-15.3c9.34,0,14.68,6.41,14.68,15.3c0,8.95-5.35,15.36-14.68,15.36
				C546.98,41.91,541.64,35.49,541.64,26.55z M564.59,26.55c0-5.01-2.53-10.24-8.27-10.24c-5.74,0-8.27,5.23-8.27,10.24
				c0,5.06,2.53,10.29,8.27,10.29C562.06,36.84,564.59,31.61,564.59,26.55z"/>
			<path d="M576.36,12.04h6.07v4.28l0.11,0.11c1.91-3.21,5.23-5.18,9.06-5.18c6.3,0,10.3,3.38,10.3,9.9v19.97h-6.41V22.84
				c-0.11-4.56-1.91-6.52-5.68-6.52c-4.27,0-7.03,3.38-7.03,7.65v17.16h-6.41V12.04z"/>
			<path d="M651.71,41.12h-6.07v-3.94h-0.11c-1.69,3.32-5.35,4.72-9,4.72c-9.17,0-13.61-6.81-13.61-15.52
				c0-10.52,6.24-15.13,12.6-15.13c3.66,0,7.71,1.35,9.67,4.56h0.11V0.95h6.41V41.12z M637.36,36.84c5.74,0,8.16-5.23,8.16-10.29
				c0-6.41-3.09-10.24-8.04-10.24c-6.02,0-8.16,5.34-8.16,10.58C629.32,31.89,631.8,36.84,637.36,36.84z"/>
			<path d="M663.71,28.24c0,4.56,2.48,8.61,7.82,8.61c3.71,0,5.96-1.63,7.09-4.84h6.07c-1.41,6.36-6.81,9.9-13.16,9.9
				c-9.11,0-14.23-6.36-14.23-15.3c0-8.27,5.4-15.36,14.06-15.36c9.17,0,14.79,8.27,13.73,16.99H663.71z M678.67,24.02
				c-0.22-4.05-2.98-7.71-7.31-7.71c-4.44,0-7.48,3.38-7.65,7.71H678.67z"/>
			<path d="M694.83,31.78c0.34,3.71,3.15,5.06,6.58,5.06c2.42,0,6.64-0.51,6.47-3.82c-0.17-3.38-4.84-3.77-9.51-4.84
				c-4.73-1.01-9.34-2.7-9.34-8.61c0-6.36,6.87-8.33,12.15-8.33c5.96,0,11.36,2.48,12.15,8.95h-6.7c-0.56-3.04-3.09-3.88-5.9-3.88
				c-1.85,0-5.29,0.45-5.29,2.98c0,3.15,4.73,3.6,9.45,4.67c4.67,1.07,9.39,2.76,9.39,8.49c0,6.92-6.98,9.45-12.99,9.45
				c-7.31,0-12.77-3.26-12.88-10.12H694.83z"/>
			<path d="M754.48,21.77c-0.51-3.54-3.1-5.46-6.64-5.46c-3.32,0-7.99,1.74-7.99,10.58c0,4.84,2.13,9.96,7.7,9.96
				c3.71,0,6.3-2.48,6.92-6.64h6.41c-1.18,7.54-5.85,11.7-13.33,11.7c-9.11,0-14.12-6.47-14.12-15.02c0-8.78,4.78-15.64,14.34-15.64
				c6.75,0,12.49,3.38,13.11,10.52H754.48z"/>
			<path d="M766.15,0.95h6.41v14.91h0.11c1.58-2.64,4.9-4.61,8.72-4.61c6.3,0,10.29,3.38,10.29,9.9v19.97h-6.41V22.84
				c-0.11-4.56-1.91-6.52-5.68-6.52c-4.28,0-7.03,3.38-7.03,7.65v17.16h-6.41V0.95z"/>
			<path d="M822.8,34.65c0,1.58,0.34,2.19,1.52,2.19c0.39,0,0.9,0,1.58-0.11v4.45c-0.96,0.34-2.98,0.73-4.05,0.73
				c-2.59,0-4.45-0.9-4.95-3.55c-2.53,2.48-6.64,3.55-10.07,3.55c-5.24,0-9.96-2.81-9.96-8.49c0-7.26,5.79-8.44,11.19-9.06
				c4.61-0.84,8.72-0.34,8.72-4.11c0-3.32-3.43-3.94-6.02-3.94c-3.6,0-6.13,1.46-6.41,4.61h-6.41c0.45-7.48,6.81-9.68,13.22-9.68
				c5.68,0,11.64,2.31,11.64,8.44V34.65z M816.39,26.55c-1.97,1.29-5.06,1.24-7.87,1.75c-2.76,0.45-5.23,1.46-5.23,4.84
				c0,2.87,3.66,3.71,5.9,3.71c2.81,0,7.2-1.46,7.2-5.51V26.55z"/>
			<path d="M829.74,12.04h6.07v4.05h0.17c1.91-2.87,4.33-4.84,8.95-4.84c3.54,0,6.86,1.52,8.15,4.84c2.14-2.98,4.9-4.84,9.11-4.84
				c6.13,0,9.73,2.7,9.73,9.79v20.08h-6.42V24.13c0-4.61-0.28-7.82-5.29-7.82c-4.33,0-6.19,2.87-6.19,7.76v17.04h-6.41V22.44
				c0-3.99-1.24-6.13-5.12-6.13c-3.32,0-6.35,2.7-6.35,7.54v17.27h-6.41V12.04z"/>
			<path d="M878.87,12.04h6.07v3.94h0.11c1.8-3.32,5.29-4.73,9-4.73c9.17,0,13.61,6.98,13.61,15.47c0,7.82-3.94,15.19-12.55,15.19
				c-3.71,0-7.7-1.35-9.73-4.56h-0.11v14.51h-6.41V12.04z M893.22,16.31c-5.4,0-8.16,4.11-8.16,10.29c0,5.85,2.98,10.24,8.16,10.24
				c5.85,0,8.04-5.17,8.04-10.24C901.26,21.32,898.5,16.31,893.22,16.31z"/>
			<path d="M917.93,31.78c0.34,3.71,3.15,5.06,6.58,5.06c2.42,0,6.64-0.51,6.47-3.82c-0.17-3.38-4.84-3.77-9.51-4.84
				c-4.73-1.01-9.34-2.7-9.34-8.61c0-6.36,6.87-8.33,12.15-8.33c5.96,0,11.36,2.48,12.15,8.95h-6.7c-0.56-3.04-3.09-3.88-5.9-3.88
				c-1.85,0-5.29,0.45-5.29,2.98c0,3.15,4.73,3.6,9.45,4.67c4.67,1.07,9.39,2.76,9.39,8.49c0,6.92-6.98,9.45-12.99,9.45
				c-7.31,0-12.77-3.26-12.88-10.12H917.93z"/>
			<path d="M312.9,99.04h-6.08v-3.93h-0.11c-1.69,3.32-5.35,4.72-9,4.72c-9.17,0-13.61-6.81-13.61-15.52
				c0-10.52,6.24-15.13,12.6-15.13c3.66,0,7.71,1.35,9.67,4.56h0.11V58.88h6.41V99.04z M298.55,94.77c5.74,0,8.16-5.23,8.16-10.3
				c0-6.41-3.09-10.24-8.05-10.24c-6.02,0-8.16,5.35-8.16,10.58C290.51,89.82,292.99,94.77,298.55,94.77z"/>
			<path d="M324.9,86.16c0,4.56,2.48,8.61,7.82,8.61c3.71,0,5.96-1.63,7.09-4.84h6.08c-1.41,6.35-6.81,9.9-13.16,9.9
				c-9.11,0-14.23-6.36-14.23-15.3c0-8.27,5.4-15.36,14.06-15.36c9.17,0,14.79,8.27,13.73,16.99H324.9z M339.86,81.94
				c-0.22-4.05-2.98-7.71-7.31-7.71c-4.44,0-7.48,3.38-7.65,7.71H339.86z"/>
			<path d="M367,58.88h6.41v14.85h0.11c1.74-2.81,5.4-4.56,8.66-4.56c9.17,0,13.61,6.98,13.61,15.47c0,7.82-3.94,15.19-12.54,15.19
				c-3.94,0-8.16-0.96-10.07-4.78h-0.11v3.99H367V58.88z M381.34,74.24c-5.4,0-8.16,4.11-8.16,10.3c0,5.85,2.98,10.24,8.16,10.24
				c5.85,0,8.04-5.18,8.04-10.24C389.39,79.24,386.63,74.24,381.34,74.24z"/>
			<path d="M425.57,92.58c0,1.58,0.34,2.19,1.52,2.19c0.39,0,0.9,0,1.57-0.11v4.45c-0.95,0.33-2.98,0.73-4.05,0.73
				c-2.59,0-4.45-0.9-4.95-3.55c-2.53,2.48-6.64,3.55-10.07,3.55c-5.23,0-9.96-2.81-9.96-8.49c0-7.26,5.79-8.44,11.19-9.06
				c4.61-0.84,8.72-0.33,8.72-4.1c0-3.32-3.43-3.94-6.02-3.94c-3.6,0-6.13,1.47-6.41,4.61h-6.41c0.45-7.48,6.81-9.67,13.22-9.67
				c5.68,0,11.64,2.3,11.64,8.44V92.58z M419.16,84.47c-1.97,1.3-5.06,1.24-7.88,1.75c-2.76,0.45-5.23,1.46-5.23,4.84
				c0,2.87,3.66,3.71,5.91,3.71c2.81,0,7.2-1.46,7.2-5.51V84.47z"/>
			<path d="M429.59,69.96h4.84v-8.72h6.41v8.72h5.79v4.78h-5.79v15.52c0,2.65,0.22,3.99,3.09,3.99c0.9,0,1.8,0,2.7-0.22v4.95
				c-1.41,0.11-2.76,0.34-4.16,0.34c-6.69,0-7.93-2.59-8.04-7.42V74.74h-4.84V69.96z"/>
			<path d="M475.61,92.58c0,1.58,0.34,2.19,1.52,2.19c0.39,0,0.9,0,1.57-0.11v4.45c-0.95,0.33-2.98,0.73-4.05,0.73
				c-2.59,0-4.45-0.9-4.95-3.55c-2.53,2.48-6.64,3.55-10.07,3.55c-5.23,0-9.96-2.81-9.96-8.49c0-7.26,5.79-8.44,11.19-9.06
				c4.61-0.84,8.72-0.33,8.72-4.1c0-3.32-3.43-3.94-6.02-3.94c-3.6,0-6.13,1.47-6.41,4.61h-6.41c0.45-7.48,6.81-9.67,13.22-9.67
				c5.68,0,11.64,2.3,11.64,8.44V92.58z M469.2,84.47c-1.97,1.3-5.06,1.24-7.88,1.75c-2.76,0.45-5.23,1.46-5.23,4.84
				c0,2.87,3.66,3.71,5.91,3.71c2.81,0,7.2-1.46,7.2-5.51V84.47z"/>
			<path d="M482.71,58.88h6.41v6.08h-6.41V58.88z M482.71,69.96h6.41v29.08h-6.41V69.96z"/>
			<path d="M496.28,58.88h6.41v40.16h-6.41V58.88z"/>
			<path d="M509.84,58.88h6.41v40.16h-6.41V58.88z"/>
			<path d="M528.24,86.16c0,4.56,2.48,8.61,7.82,8.61c3.71,0,5.96-1.63,7.09-4.84h6.08c-1.41,6.35-6.81,9.9-13.16,9.9
				c-9.11,0-14.23-6.36-14.23-15.3c0-8.27,5.4-15.36,14.06-15.36c9.17,0,14.79,8.27,13.73,16.99H528.24z M543.21,81.94
				c-0.22-4.05-2.98-7.71-7.31-7.71c-4.44,0-7.48,3.38-7.65,7.71H543.21z"/>
			<path d="M570.18,69.96h6.07v4.27l0.11,0.11c1.91-3.21,5.23-5.18,9.06-5.18c6.3,0,10.3,3.38,10.3,9.9v19.97h-6.41V80.76
				c-0.11-4.56-1.91-6.53-5.68-6.53c-4.27,0-7.03,3.38-7.03,7.65v17.16h-6.41V69.96z"/>
			<path d="M626.84,92.58c0,1.58,0.34,2.19,1.52,2.19c0.39,0,0.9,0,1.58-0.11v4.45c-0.95,0.33-2.98,0.73-4.05,0.73
				c-2.59,0-4.44-0.9-4.95-3.55c-2.53,2.48-6.64,3.55-10.07,3.55c-5.23,0-9.96-2.81-9.96-8.49c0-7.26,5.79-8.44,11.19-9.06
				c4.61-0.84,8.72-0.33,8.72-4.1c0-3.32-3.43-3.94-6.02-3.94c-3.6,0-6.13,1.47-6.41,4.61h-6.41c0.45-7.48,6.81-9.67,13.22-9.67
				c5.68,0,11.64,2.3,11.64,8.44V92.58z M620.43,84.47c-1.97,1.3-5.06,1.24-7.88,1.75c-2.75,0.45-5.23,1.46-5.23,4.84
				c0,2.87,3.66,3.71,5.91,3.71c2.81,0,7.2-1.46,7.2-5.51V84.47z"/>
			<path d="M630.85,69.96h4.84v-8.72h6.41v8.72h5.79v4.78h-5.79v15.52c0,2.65,0.22,3.99,3.09,3.99c0.9,0,1.8,0,2.7-0.22v4.95
				c-1.41,0.11-2.76,0.34-4.16,0.34c-6.7,0-7.93-2.59-8.04-7.42V74.74h-4.84V69.96z"/>
			<path d="M652.68,58.88h6.41v6.08h-6.41V58.88z M652.68,69.96h6.41v29.08h-6.41V69.96z"/>
			<path d="M664.73,84.47c0-8.89,5.35-15.3,14.68-15.3c9.34,0,14.68,6.41,14.68,15.3c0,8.95-5.35,15.36-14.68,15.36
				C670.08,99.83,664.73,93.42,664.73,84.47z M687.68,84.47c0-5.01-2.53-10.24-8.27-10.24c-5.73,0-8.27,5.23-8.27,10.24
				c0,5.07,2.53,10.3,8.27,10.3C685.15,94.77,687.68,89.54,687.68,84.47z"/>
			<path d="M699.45,69.96h6.07v4.27l0.11,0.11c1.91-3.21,5.23-5.18,9.06-5.18c6.3,0,10.3,3.38,10.3,9.9v19.97h-6.41V80.76
				c-0.11-4.56-1.91-6.53-5.68-6.53c-4.27,0-7.03,3.38-7.03,7.65v17.16h-6.41V69.96z"/>
			<path d="M756.11,92.58c0,1.58,0.34,2.19,1.52,2.19c0.39,0,0.9,0,1.58-0.11v4.45c-0.95,0.33-2.98,0.73-4.05,0.73
				c-2.59,0-4.44-0.9-4.95-3.55c-2.53,2.48-6.64,3.55-10.07,3.55c-5.23,0-9.96-2.81-9.96-8.49c0-7.26,5.79-8.44,11.19-9.06
				c4.61-0.84,8.72-0.33,8.72-4.1c0-3.32-3.43-3.94-6.02-3.94c-3.6,0-6.13,1.47-6.41,4.61h-6.41c0.45-7.48,6.81-9.67,13.22-9.67
				c5.68,0,11.64,2.3,11.64,8.44V92.58z M749.7,84.47c-1.97,1.3-5.06,1.24-7.88,1.75c-2.75,0.45-5.23,1.46-5.23,4.84
				c0,2.87,3.66,3.71,5.91,3.71c2.81,0,7.2-1.46,7.2-5.51V84.47z"/>
			<path d="M788.59,99.04h-6.3v-4.05h-0.11c-1.58,2.93-5.07,4.84-8.27,4.84c-7.59,0-10.86-3.82-10.86-11.42V69.96h6.41v17.83
				c0,5.12,2.08,6.98,5.57,6.98c5.35,0,7.15-3.43,7.15-7.93V69.96h6.41V99.04z"/>
			<path d="M803.17,83.74L793.1,69.96h7.76l6.07,8.95l6.36-8.95h7.42l-9.9,13.44l11.14,15.64h-7.7l-7.37-10.74l-7.15,10.74h-7.54
				L803.17,83.74z"/>
		</g>
		<g>
			<path d="M1025.38,0.95h32.52v6.08h-12.77v34.09h-7.03V7.03h-12.71V0.95z"/>
			<path d="M1061.68,0.95h6.41v14.91h0.11c1.58-2.64,4.9-4.61,8.72-4.61c6.3,0,10.3,3.38,10.3,9.9v19.97h-6.41V22.84
				c-0.11-4.56-1.91-6.52-5.68-6.52c-4.27,0-7.03,3.38-7.03,7.65v17.16h-6.41V0.95z"/>
			<path d="M1098.99,28.24c0,4.56,2.47,8.61,7.82,8.61c3.71,0,5.96-1.63,7.09-4.84h6.08c-1.41,6.36-6.81,9.9-13.16,9.9
				c-9.11,0-14.23-6.36-14.23-15.3c0-8.27,5.4-15.36,14.06-15.36c9.17,0,14.79,8.27,13.73,16.99H1098.99z M1113.96,24.02
				c-0.22-4.05-2.98-7.71-7.31-7.71c-4.44,0-7.48,3.38-7.65,7.71H1113.96z"/>
			<path d="M1141.54,0.95h7.42l18.34,29.59h0.11V0.95h6.7v40.16h-7.42l-18.28-29.53h-0.17v29.53h-6.69V0.95z"/>
			<path d="M1205.92,34.65c0,1.58,0.33,2.19,1.52,2.19c0.39,0,0.9,0,1.58-0.11v4.45c-0.96,0.34-2.98,0.73-4.05,0.73
				c-2.59,0-4.44-0.9-4.95-3.55c-2.53,2.48-6.64,3.55-10.07,3.55c-5.23,0-9.96-2.81-9.96-8.49c0-7.26,5.79-8.44,11.19-9.06
				c4.61-0.84,8.72-0.34,8.72-4.11c0-3.32-3.44-3.94-6.02-3.94c-3.6,0-6.13,1.46-6.41,4.61h-6.41c0.45-7.48,6.81-9.68,13.22-9.68
				c5.68,0,11.65,2.31,11.65,8.44V34.65z M1199.51,26.55c-1.97,1.29-5.07,1.24-7.88,1.75c-2.76,0.45-5.23,1.46-5.23,4.84
				c0,2.87,3.66,3.71,5.91,3.71c2.81,0,7.2-1.46,7.2-5.51V26.55z"/>
			<path d="M1209.93,12.04h4.84V3.32h6.41v8.72h5.79v4.78h-5.79v15.52c0,2.65,0.23,3.99,3.1,3.99c0.9,0,1.8,0,2.7-0.22v4.95
				c-1.41,0.11-2.75,0.34-4.16,0.34c-6.7,0-7.93-2.59-8.05-7.42V16.82h-4.84V12.04z"/>
			<path d="M1231.77,0.95h6.41v6.08h-6.41V0.95z M1231.77,12.04h6.41v29.08h-6.41V12.04z"/>
			<path d="M1243.81,26.55c0-8.89,5.35-15.3,14.68-15.3c9.33,0,14.68,6.41,14.68,15.3c0,8.95-5.35,15.36-14.68,15.36
				C1249.15,41.91,1243.81,35.49,1243.81,26.55z M1266.76,26.55c0-5.01-2.53-10.24-8.27-10.24c-5.74,0-8.27,5.23-8.27,10.24
				c0,5.06,2.53,10.29,8.27,10.29C1264.23,36.84,1266.76,31.61,1266.76,26.55z"/>
			<path d="M1278.53,12.04h6.07v4.28l0.11,0.11c1.91-3.21,5.23-5.18,9.06-5.18c6.3,0,10.3,3.38,10.3,9.9v19.97h-6.42V22.84
				c-0.11-4.56-1.91-6.52-5.68-6.52c-4.27,0-7.03,3.38-7.03,7.65v17.16h-6.41V12.04z"/>
			<path d="M1335.2,34.65c0,1.58,0.33,2.19,1.52,2.19c0.39,0,0.9,0,1.58-0.11v4.45c-0.96,0.34-2.98,0.73-4.05,0.73
				c-2.59,0-4.44-0.9-4.95-3.55c-2.53,2.48-6.64,3.55-10.07,3.55c-5.23,0-9.96-2.81-9.96-8.49c0-7.26,5.79-8.44,11.19-9.06
				c4.61-0.84,8.72-0.34,8.72-4.11c0-3.32-3.44-3.94-6.02-3.94c-3.6,0-6.13,1.46-6.41,4.61h-6.41c0.45-7.48,6.81-9.68,13.22-9.68
				c5.68,0,11.65,2.31,11.65,8.44V34.65z M1328.78,26.55c-1.97,1.29-5.07,1.24-7.88,1.75c-2.76,0.45-5.23,1.46-5.23,4.84
				c0,2.87,3.66,3.71,5.91,3.71c2.81,0,7.2-1.46,7.2-5.51V26.55z"/>
			<path d="M1342.3,0.95h6.41v40.16h-6.41V0.95z"/>
			<path d="M1372.24,0.95h19.52c7.2,0,11.93,3.26,11.93,9.96c0,4.05-2.08,6.98-5.74,8.55v0.11c4.89,1.07,7.54,4.89,7.54,10.35
				c0,6.3-4.39,11.19-14.79,11.19h-18.45V0.95z M1379.27,17.78h11.47c3.38,0,5.9-1.97,5.9-5.57c0-4.05-2.08-5.51-5.9-5.51h-11.47
				V17.78z M1379.27,35.38h12.43c4.27,0,6.75-2.31,6.75-6.36c0-3.94-2.47-6.19-6.75-6.19h-12.43V35.38z"/>
			<path d="M1435.32,34.65c0,1.58,0.33,2.19,1.52,2.19c0.39,0,0.9,0,1.58-0.11v4.45c-0.96,0.34-2.98,0.73-4.05,0.73
				c-2.59,0-4.44-0.9-4.95-3.55c-2.53,2.48-6.64,3.55-10.07,3.55c-5.23,0-9.96-2.81-9.96-8.49c0-7.26,5.79-8.44,11.19-9.06
				c4.61-0.84,8.72-0.34,8.72-4.11c0-3.32-3.44-3.94-6.02-3.94c-3.6,0-6.13,1.46-6.41,4.61h-6.41c0.45-7.48,6.81-9.68,13.22-9.68
				c5.68,0,11.65,2.31,11.65,8.44V34.65z M1428.91,26.55c-1.97,1.29-5.07,1.24-7.88,1.75c-2.76,0.45-5.23,1.46-5.23,4.84
				c0,2.87,3.66,3.71,5.91,3.71c2.81,0,7.2-1.46,7.2-5.51V26.55z"/>
			<path d="M1439.33,12.04h4.84V3.32h6.42v8.72h5.79v4.78h-5.79v15.52c0,2.65,0.22,3.99,3.09,3.99c0.9,0,1.8,0,2.7-0.22v4.95
				c-1.41,0.11-2.75,0.34-4.16,0.34c-6.7,0-7.93-2.59-8.05-7.42V16.82h-4.84V12.04z"/>
			<path d="M1458.07,12.04h4.84V3.32h6.42v8.72h5.79v4.78h-5.79v15.52c0,2.65,0.22,3.99,3.09,3.99c0.9,0,1.8,0,2.7-0.22v4.95
				c-1.41,0.11-2.75,0.34-4.16,0.34c-6.7,0-7.93-2.59-8.05-7.42V16.82h-4.84V12.04z"/>
			<path d="M1479.91,0.95h6.41v40.16h-6.41V0.95z"/>
			<path d="M1498.31,28.24c0,4.56,2.47,8.61,7.82,8.61c3.71,0,5.96-1.63,7.09-4.84h6.08c-1.41,6.36-6.81,9.9-13.16,9.9
				c-9.11,0-14.23-6.36-14.23-15.3c0-8.27,5.4-15.36,14.06-15.36c9.17,0,14.79,8.27,13.73,16.99H1498.31z M1513.27,24.02
				c-0.22-4.05-2.98-7.71-7.31-7.71c-4.44,0-7.48,3.38-7.65,7.71H1513.27z"/>
			<path d="M1521.73,12.04h4.78V9.62c0-7.42,3.88-8.66,8.05-8.66c2.02,0,3.49,0.11,4.5,0.39v5.01c-0.84-0.22-1.69-0.34-2.98-0.34
				c-1.74,0-3.15,0.62-3.15,3.04v2.98h5.46v4.78h-5.46v24.3h-6.41v-24.3h-4.78V12.04z M1542.48,0.95h6.41v6.08h-6.41V0.95z
				 M1542.48,12.04h6.41v29.08h-6.41V12.04z"/>
			<path d="M1560.89,28.24c0,4.56,2.47,8.61,7.82,8.61c3.71,0,5.96-1.63,7.09-4.84h6.08c-1.41,6.36-6.81,9.9-13.16,9.9
				c-9.11,0-14.23-6.36-14.23-15.3c0-8.27,5.4-15.36,14.06-15.36c9.17,0,14.79,8.27,13.73,16.99H1560.89z M1575.86,24.02
				c-0.22-4.05-2.98-7.71-7.31-7.71c-4.44,0-7.48,3.38-7.65,7.71H1575.86z"/>
			<path d="M1587.35,0.95h6.41v40.16h-6.41V0.95z"/>
			<path d="M1628.13,41.12h-6.08v-3.94h-0.11c-1.69,3.32-5.35,4.72-9,4.72c-9.17,0-13.61-6.81-13.61-15.52
				c0-10.52,6.24-15.13,12.6-15.13c3.66,0,7.7,1.35,9.67,4.56h0.11V0.95h6.41V41.12z M1613.79,36.84c5.74,0,8.16-5.23,8.16-10.29
				c0-6.41-3.1-10.24-8.04-10.24c-6.02,0-8.16,5.34-8.16,10.58C1605.75,31.89,1608.22,36.84,1613.79,36.84z"/>
			<path d="M1639.96,31.78c0.34,3.71,3.15,5.06,6.58,5.06c2.42,0,6.64-0.51,6.47-3.82c-0.17-3.38-4.84-3.77-9.5-4.84
				c-4.73-1.01-9.34-2.7-9.34-8.61c0-6.36,6.86-8.33,12.15-8.33c5.96,0,11.36,2.48,12.15,8.95h-6.7c-0.56-3.04-3.09-3.88-5.9-3.88
				c-1.86,0-5.29,0.45-5.29,2.98c0,3.15,4.73,3.6,9.45,4.67c4.67,1.07,9.39,2.76,9.39,8.49c0,6.92-6.98,9.45-12.99,9.45
				c-7.31,0-12.77-3.26-12.88-10.12H1639.96z"/>
			<path d="M1056.32,71.65c-1.18-4.61-4.16-7.99-10.01-7.99c-8.61,0-12.21,7.59-12.21,15.3c0,7.7,3.6,15.3,12.21,15.3
				c6.24,0,9.67-4.67,10.24-10.52h6.86c-0.56,9.62-7.36,16.26-17.1,16.26c-12.04,0-19.24-9.56-19.24-21.04
				c0-11.48,7.2-21.04,19.24-21.04c9.06,0.05,16.2,5.06,17.04,13.72H1056.32z"/>
			<path d="M1067.59,84.47c0-8.89,5.35-15.3,14.68-15.3c9.33,0,14.68,6.41,14.68,15.3c0,8.95-5.35,15.36-14.68,15.36
				C1072.94,99.83,1067.59,93.42,1067.59,84.47z M1090.54,84.47c0-5.01-2.53-10.24-8.27-10.24c-5.74,0-8.27,5.23-8.27,10.24
				c0,5.07,2.53,10.3,8.27,10.3C1088.01,94.77,1090.54,89.54,1090.54,84.47z"/>
			<path d="M1102.32,69.96h6.07v4.05h0.17c1.91-2.87,4.33-4.84,8.95-4.84c3.55,0,6.86,1.52,8.16,4.84c2.13-2.98,4.89-4.84,9.11-4.84
				c6.13,0,9.73,2.7,9.73,9.79v20.08h-6.41V82.05c0-4.61-0.28-7.82-5.29-7.82c-4.33,0-6.19,2.87-6.19,7.76v17.04h-6.41V80.37
				c0-3.99-1.24-6.13-5.12-6.13c-3.32,0-6.36,2.7-6.36,7.54v17.27h-6.41V69.96z"/>
			<path d="M1151.29,69.96h6.07v4.05h0.17c1.91-2.87,4.33-4.84,8.95-4.84c3.55,0,6.86,1.52,8.16,4.84c2.13-2.98,4.89-4.84,9.11-4.84
				c6.13,0,9.73,2.7,9.73,9.79v20.08h-6.41V82.05c0-4.61-0.28-7.82-5.29-7.82c-4.33,0-6.19,2.87-6.19,7.76v17.04h-6.41V80.37
				c0-3.99-1.24-6.13-5.12-6.13c-3.32,0-6.36,2.7-6.36,7.54v17.27h-6.41V69.96z"/>
			<path d="M1200.42,58.88h6.41v6.08h-6.41V58.88z M1200.42,69.96h6.41v29.08h-6.41V69.96z"/>
			<path d="M1218.65,89.71c0.34,3.71,3.15,5.06,6.58,5.06c2.42,0,6.64-0.51,6.47-3.82c-0.17-3.38-4.84-3.77-9.5-4.84
				c-4.73-1.02-9.34-2.7-9.34-8.61c0-6.36,6.86-8.33,12.15-8.33c5.96,0,11.36,2.47,12.15,8.95h-6.7c-0.56-3.04-3.09-3.88-5.9-3.88
				c-1.86,0-5.29,0.45-5.29,2.98c0,3.15,4.73,3.6,9.45,4.67c4.67,1.07,9.39,2.76,9.39,8.5c0,6.92-6.98,9.45-12.99,9.45
				c-7.31,0-12.77-3.26-12.88-10.12H1218.65z"/>
			<path d="M1247.86,89.71c0.34,3.71,3.15,5.06,6.58,5.06c2.42,0,6.64-0.51,6.47-3.82c-0.17-3.38-4.84-3.77-9.5-4.84
				c-4.73-1.02-9.34-2.7-9.34-8.61c0-6.36,6.86-8.33,12.15-8.33c5.96,0,11.36,2.47,12.15,8.95h-6.7c-0.56-3.04-3.09-3.88-5.9-3.88
				c-1.86,0-5.29,0.45-5.29,2.98c0,3.15,4.73,3.6,9.45,4.67c4.67,1.07,9.39,2.76,9.39,8.5c0,6.92-6.97,9.45-12.99,9.45
				c-7.31,0-12.77-3.26-12.88-10.12H1247.86z"/>
			<path d="M1272.4,58.88h6.41v6.08h-6.41V58.88z M1272.4,69.96h6.41v29.08h-6.41V69.96z"/>
			<path d="M1284.44,84.47c0-8.89,5.35-15.3,14.68-15.3c9.33,0,14.68,6.41,14.68,15.3c0,8.95-5.35,15.36-14.68,15.36
				C1289.78,99.83,1284.44,93.42,1284.44,84.47z M1307.39,84.47c0-5.01-2.53-10.24-8.27-10.24c-5.74,0-8.27,5.23-8.27,10.24
				c0,5.07,2.53,10.3,8.27,10.3C1304.86,94.77,1307.39,89.54,1307.39,84.47z"/>
			<path d="M1319.17,69.96h6.07v4.27l0.11,0.11c1.91-3.21,5.23-5.18,9.06-5.18c6.3,0,10.3,3.38,10.3,9.9v19.97h-6.41V80.76
				c-0.11-4.56-1.91-6.53-5.68-6.53c-4.27,0-7.03,3.38-7.03,7.65v17.16h-6.41V69.96z"/>
		</g>
	</g>
</g>
<g id="_x35_5_Normal_1_">
</g>
<g id="_x34_5_Light_1_">
</g>
</svg>
