<svg xmlns="http://www.w3.org/2000/svg" width="632" height="38" fill="none"><g clip-path="url(#a)"><path fill="#E30613" fill-rule="evenodd" d="M37.17 3.084s-2.301 4.435-2.606 4.89c-.308.613-.613.613-1.075.309-.617-.309-2.46-1.373-2.46-1.373s1.692 7.331 1.692 7.94c.15.614-.463 1.072-1.08.614-.154-.151-3.377-3.822-3.377-3.822s-.768 1.681-.922 1.99c-.154.308-.304.609-.767.459-.613-.15-3.536-.764-3.536-.764s1.08 3.664 1.23 4.126c.15.365.309.764-.308 1.069l-1.072.458s6.293 5.515 6.447 5.665c.308.309.617.463.308 1.38-.308.922-.617 2.156-.617 2.156s5.838-1.23 6.451-1.388c.534-.056 1.121.154 1.121.767 0 .614-.357 6.914-.357 6.914h1.843s-.357-6.297-.357-6.914c0-.616.583-.823 1.124-.767.617.154 6.448 1.388 6.448 1.388s-.309-1.23-.614-2.155c-.308-.922 0-1.076.309-1.38.154-.151 6.45-5.666 6.45-5.666l-1.071-.459c-.613-.308-.455-.707-.309-1.068.147-.462 1.23-4.126 1.23-4.126s-2.922.613-3.535.764c-.46.15-.614-.15-.768-.46a151.99 151.99 0 0 1-.921-1.99s-3.228 3.672-3.378 3.822c-.613.46-1.23 0-1.076-.613 0-.609 1.693-7.94 1.693-7.94s-1.843 1.068-2.457 1.373c-.459.304-.77.304-1.075-.309-.301-.455-2.607-4.89-2.607-4.89ZM18.585 37.239V.327H0V37.24h18.585ZM74.338 37.239V.327H55.753V37.24h18.585Z" clip-rule="evenodd"/><path fill="#000" d="M397.329 5.16c-.444-1.733-1.565-3.005-3.765-3.005-3.239 0-4.593 2.855-4.593 5.755s1.354 5.755 4.593 5.755c2.347 0 3.641-1.756 3.851-3.957H400c-.211 3.619-2.773 6.117-6.433 6.117-4.528 0-7.237-3.596-7.237-7.915 0-4.318 2.705-7.91 7.234-7.91 3.408.019 6.093 1.903 6.409 5.16h-2.644ZM401.568 9.987c0-3.344 2.012-5.755 5.522-5.755 3.509 0 5.522 2.41 5.522 5.755 0 3.344-2.013 5.777-5.522 5.777-3.51 0-5.522-2.414-5.522-5.777Zm8.633 0c0-1.885-.952-3.852-3.111-3.852-2.159 0-3.111 1.967-3.111 3.852 0 1.884.952 3.87 3.111 3.87 2.159 0 3.111-1.967 3.111-3.87ZM414.632 4.529h2.287v1.523h.06c.718-1.08 1.629-1.82 3.366-1.82 1.336 0 2.581.571 3.07 1.82.805-1.12 1.839-1.82 3.426-1.82 2.306 0 3.66 1.015 3.66 3.682v7.553h-2.411v-6.39c0-1.735-.105-2.942-1.99-2.942-1.628 0-2.328 1.08-2.328 2.919v6.41h-2.411V8.44c0-1.501-.467-2.306-1.926-2.306-1.249 0-2.392 1.016-2.392 2.836v6.496h-2.411V4.53ZM433.048 4.529h2.283v1.523h.064c.718-1.08 1.629-1.82 3.367-1.82 1.331 0 2.58.571 3.065 1.82.805-1.12 1.843-1.82 3.427-1.82 2.306 0 3.66 1.015 3.66 3.682v7.553h-2.411v-6.39c0-1.735-.106-2.942-1.99-2.942-1.629 0-2.329 1.08-2.329 2.919v6.41h-2.411V8.44c0-1.501-.466-2.306-1.925-2.306-1.249 0-2.389 1.016-2.389 2.836v6.496h-2.411V4.53ZM451.532.357h2.411v2.287h-2.411V.357Zm0 4.172h2.411v10.938h-2.411V4.53ZM458.389 11.954c.128 1.396 1.185 1.903 2.475 1.903.91 0 2.498-.191 2.434-1.437-.064-1.271-1.821-1.418-3.574-1.82-1.779-.38-3.513-1.016-3.513-3.239 0-2.392 2.58-3.133 4.57-3.133 2.242 0 4.273.933 4.57 3.366h-2.516c-.211-1.143-1.166-1.459-2.223-1.459-.696 0-1.99.17-1.99 1.12 0 1.186 1.779 1.355 3.555 1.758 1.756.402 3.532 1.038 3.532 3.193 0 2.603-2.626 3.555-4.886 3.555-2.75 0-4.804-1.227-4.845-3.807h2.411ZM469.376 11.954c.128 1.396 1.185 1.903 2.475 1.903.911 0 2.498-.191 2.434-1.437-.064-1.271-1.821-1.418-3.577-1.82-1.779-.38-3.513-1.016-3.513-3.239 0-2.392 2.584-3.133 4.57-3.133 2.242 0 4.273.933 4.57 3.366h-2.52c-.211-1.143-1.163-1.459-2.22-1.459-.695 0-1.989.17-1.989 1.12 0 1.186 1.779 1.355 3.554 1.758 1.757.402 3.532 1.038 3.532 3.193 0 2.603-2.625 3.555-4.886 3.555-2.749 0-4.803-1.227-4.845-3.807h2.415ZM478.607.357h2.415v2.287h-2.415V.357Zm0 4.172h2.415v10.938h-2.415V4.53ZM483.136 9.987c0-3.344 2.012-5.755 5.522-5.755 3.509 0 5.521 2.41 5.521 5.755 0 3.344-2.012 5.777-5.521 5.777-3.51 0-5.522-2.414-5.522-5.777Zm8.636 0c0-1.885-.952-3.852-3.111-3.852-2.159 0-3.11 1.967-3.11 3.852 0 1.884.951 3.87 3.11 3.87s3.111-1.967 3.111-3.87ZM496.199 4.529h2.284v1.61l.041.041c.718-1.207 1.967-1.948 3.408-1.948 2.37 0 3.87 1.271 3.87 3.724v7.511h-2.411V8.591c-.041-1.715-.718-2.452-2.136-2.452-1.61 0-2.645 1.271-2.645 2.877v6.455h-2.411V4.529ZM524.542 15.467h-2.287v-1.482h-.041c-.636 1.249-2.013 1.776-3.386 1.776-3.449 0-5.119-2.562-5.119-5.838 0-3.957 2.347-5.691 4.739-5.691 1.377 0 2.897.507 3.638 1.715h.041V.357h2.411v15.11h.004Zm-5.398-1.61c2.159 0 3.07-1.967 3.07-3.87 0-2.411-1.166-3.852-3.028-3.852-2.265 0-3.066 2.009-3.066 3.98 0 1.97.929 3.742 3.024 3.742ZM529.056 10.622c0 1.716.929 3.239 2.941 3.239 1.396 0 2.242-.613 2.667-1.82h2.287c-.53 2.392-2.561 3.723-4.95 3.723-3.427 0-5.353-2.392-5.353-5.755 0-3.11 2.032-5.777 5.289-5.777 3.449 0 5.563 3.11 5.165 6.39h-8.046Zm5.627-1.587c-.083-1.523-1.121-2.9-2.75-2.9-1.628 0-2.813 1.271-2.877 2.9h5.627ZM540.762 11.954c.127 1.396 1.184 1.903 2.475 1.903.91 0 2.497-.191 2.433-1.437-.064-1.271-1.82-1.418-3.573-1.82-1.779-.38-3.513-1.016-3.513-3.239 0-2.392 2.58-3.133 4.57-3.133 2.242 0 4.273.933 4.57 3.366h-2.516c-.211-1.143-1.166-1.459-2.223-1.459-.696 0-1.99.17-1.99 1.12 0 1.186 1.779 1.355 3.554 1.758 1.757.402 3.532 1.038 3.532 3.193 0 2.603-2.625 3.555-4.886 3.555-2.749 0-4.803-1.227-4.845-3.807h2.412ZM563.199 8.189c-.188-1.332-1.162-2.054-2.498-2.054-1.249 0-3.005.654-3.005 3.98 0 1.82.805 3.746 2.9 3.746 1.395 0 2.37-.933 2.603-2.498h2.411c-.444 2.837-2.201 4.401-5.014 4.401-3.427 0-5.311-2.433-5.311-5.65 0-3.215 1.798-5.882 5.397-5.882 2.539 0 4.698 1.271 4.928 3.957h-2.411ZM567.585.357h2.411v5.609h.041c.594-.993 1.84-1.734 3.28-1.734 2.37 0 3.874 1.271 3.874 3.724v7.511h-2.411V8.591c-.041-1.715-.718-2.452-2.136-2.452-1.606 0-2.644 1.271-2.644 2.877v6.455h-2.412V.357h-.003ZM588.897 13.034c0 .594.128.823.572.823.147 0 .338 0 .59-.041v1.674c-.357.128-1.12.274-1.523.274-.974 0-1.67-.338-1.862-1.335-.951.933-2.497 1.335-3.788 1.335-1.967 0-3.746-1.057-3.746-3.193 0-2.731 2.178-3.175 4.209-3.408 1.734-.316 3.28-.128 3.28-1.546 0-1.249-1.29-1.482-2.264-1.482-1.354 0-2.306.55-2.411 1.734h-2.412c.17-2.814 2.562-3.641 4.973-3.641 2.137 0 4.378.869 4.378 3.175v5.63h.004Zm-2.411-3.047c-.741.485-1.903.466-2.964.658-1.034.17-1.967.55-1.967 1.82 0 1.08 1.377 1.396 2.223 1.396 1.057 0 2.708-.55 2.708-2.072V9.987ZM591.504 4.529h2.287v1.523h.06c.719-1.08 1.629-1.82 3.367-1.82 1.335 0 2.58.571 3.069 1.82.805-1.12 1.839-1.82 3.427-1.82 2.306 0 3.66 1.015 3.66 3.682v7.553h-2.411v-6.39c0-1.735-.106-2.942-1.99-2.942-1.629 0-2.329 1.08-2.329 2.919v6.41h-2.411V8.44c0-1.501-.466-2.306-1.926-2.306-1.248 0-2.392 1.016-2.392 2.836v6.496h-2.411V4.53ZM609.988 4.529h2.287V6.01h.041c.677-1.249 1.99-1.78 3.386-1.78 3.449 0 5.119 2.626 5.119 5.82 0 2.941-1.478 5.713-4.717 5.713-1.395 0-2.9-.507-3.66-1.715h-.041v5.458h-2.415V4.529Zm5.394 1.606c-2.031 0-3.07 1.546-3.07 3.87 0 2.201 1.121 3.852 3.07 3.852 2.2 0 3.024-1.944 3.024-3.851 0-1.908-1.034-3.871-3.024-3.871ZM624.68 11.954c.128 1.396 1.185 1.903 2.475 1.903.911 0 2.498-.191 2.434-1.437-.064-1.271-1.821-1.418-3.573-1.82-1.78-.38-3.514-1.016-3.514-3.239 0-2.392 2.581-3.133 4.57-3.133 2.242 0 4.274.933 4.571 3.366h-2.517c-.21-1.143-1.166-1.459-2.223-1.459-.696 0-1.99.17-1.99 1.12 0 1.186 1.78 1.355 3.555 1.758 1.757.402 3.532 1.038 3.532 3.193 0 2.603-2.626 3.555-4.886 3.555-2.75 0-4.804-1.227-4.845-3.807h2.411ZM397.096 37.254h-2.284v-1.479h-.041c-.636 1.25-2.012 1.776-3.385 1.776-3.45 0-5.12-2.562-5.12-5.838 0-3.957 2.347-5.691 4.74-5.691 1.376 0 2.9.508 3.637 1.715h.042v-5.59h2.411v15.107Zm-5.394-1.606c2.159 0 3.069-1.968 3.069-3.875 0-2.41-1.162-3.851-3.024-3.851-2.265 0-3.07 2.012-3.07 3.98 0 1.884.93 3.745 3.025 3.745ZM401.609 32.409c0 1.715.933 3.239 2.942 3.239 1.395 0 2.242-.614 2.667-1.821h2.283c-.53 2.389-2.562 3.724-4.95 3.724-3.427 0-5.353-2.392-5.353-5.755 0-3.111 2.031-5.778 5.289-5.778 3.449 0 5.563 3.11 5.164 6.39h-8.042Zm5.631-1.587c-.082-1.524-1.121-2.9-2.749-2.9-1.629 0-2.814 1.27-2.878 2.9h5.627ZM417.445 22.148h2.411v5.585h.042c.654-1.057 2.031-1.715 3.257-1.715 3.449 0 5.12 2.626 5.12 5.82 0 2.94-1.482 5.713-4.721 5.713-1.478 0-3.07-.361-3.788-1.798h-.041v1.5h-2.284V22.149h.004Zm5.398 5.777c-2.031 0-3.069 1.546-3.069 3.875 0 2.2 1.121 3.851 3.069 3.851 2.2 0 3.024-1.948 3.024-3.851 0-1.904-1.034-3.875-3.024-3.875ZM439.48 34.824c0 .594.128.824.572.824.146 0 .338 0 .59-.042v1.674c-.357.124-1.121.275-1.523.275-.974 0-1.67-.339-1.862-1.336-.952.933-2.498 1.336-3.788 1.336-1.967 0-3.746-1.057-3.746-3.194 0-2.73 2.178-3.175 4.209-3.408 1.734-.316 3.28-.124 3.28-1.542 0-1.249-1.29-1.482-2.265-1.482-1.354 0-2.305.553-2.411 1.734h-2.411c.169-2.814 2.562-3.637 4.973-3.637 2.136 0 4.378.865 4.378 3.174v5.624h.004Zm-2.411-3.05c-.741.488-1.903.466-2.964.657-1.035.17-1.967.55-1.967 1.821 0 1.08 1.376 1.395 2.223 1.395 1.057 0 2.708-.549 2.708-2.072v-1.802ZM440.988 26.315h1.821v-3.28h2.411v3.28h2.178v1.798h-2.178v5.838c0 .997.083 1.501 1.162 1.501.339 0 .677 0 1.016-.083v1.862c-.53.041-1.038.128-1.565.128-2.52 0-2.983-.974-3.024-2.791v-6.455h-1.821v-1.798ZM458.302 34.824c0 .594.128.824.572.824.147 0 .339 0 .591-.042v1.674c-.358.124-1.121.275-1.524.275-.974 0-1.67-.339-1.862-1.336-.951.933-2.497 1.336-3.787 1.336-1.968 0-3.747-1.057-3.747-3.194 0-2.73 2.178-3.175 4.209-3.408 1.734-.316 3.28-.124 3.28-1.542 0-1.249-1.29-1.482-2.264-1.482-1.354 0-2.306.553-2.411 1.734h-2.411c.169-2.814 2.561-3.637 4.972-3.637 2.137 0 4.379.865 4.379 3.174v5.624h.003Zm-2.414-3.05c-.741.488-1.904.466-2.964.657-1.035.17-1.968.55-1.968 1.821 0 1.08 1.377 1.395 2.223 1.395 1.057 0 2.709-.549 2.709-2.072v-1.802ZM460.973 22.148h2.411v2.287h-2.411v-2.287Zm0 4.167h2.411v10.939h-2.411V26.315ZM466.074 22.148h2.414v15.106h-2.414V22.148ZM471.178 22.148h2.411v15.106h-2.411V22.148ZM478.099 32.409c0 1.715.929 3.239 2.942 3.239 1.395 0 2.241-.614 2.666-1.821h2.287c-.53 2.389-2.561 3.724-4.95 3.724-3.426 0-5.352-2.392-5.352-5.755 0-3.111 2.031-5.778 5.288-5.778 3.45 0 5.564 3.11 5.165 6.39h-8.046Zm5.627-1.587c-.082-1.524-1.121-2.9-2.749-2.9-1.629 0-2.814 1.27-2.878 2.9h5.627ZM493.871 26.315h2.283v1.607l.042.04c.718-1.207 1.967-1.948 3.407-1.948 2.37 0 3.871 1.272 3.871 3.724v7.512h-2.411v-6.872c-.041-1.715-.718-2.456-2.137-2.456-1.609 0-2.644 1.27-2.644 2.877v6.455h-2.411V26.315ZM515.184 34.824c0 .594.127.824.571.824.147 0 .339 0 .595-.042v1.674c-.362.124-1.121.275-1.524.275-.974 0-1.674-.339-1.862-1.336-.951.933-2.497 1.336-3.788 1.336-1.971 0-3.746-1.057-3.746-3.194 0-2.73 2.178-3.175 4.209-3.408 1.734-.316 3.28-.124 3.28-1.542 0-1.249-1.29-1.482-2.264-1.482-1.354 0-2.306.553-2.411 1.734h-2.412c.17-2.814 2.562-3.637 4.973-3.637 2.137 0 4.379.865 4.379 3.174v5.624Zm-2.412-3.05c-.737.488-1.903.466-2.96.657-1.038.17-1.967.55-1.967 1.821 0 1.08 1.377 1.395 2.219 1.395 1.057 0 2.708-.549 2.708-2.072v-1.802ZM516.692 26.315h1.82v-3.28h2.412v3.28h2.177v1.798h-2.177v5.838c0 .997.082 1.501 1.166 1.501.338 0 .677 0 1.015-.083v1.862c-.53.041-1.038.128-1.565.128-2.516 0-2.982-.974-3.024-2.791v-6.455h-1.82v-1.798h-.004ZM524.907 22.148h2.415v2.287h-2.415v-2.287Zm0 4.167h2.415v10.939h-2.415V26.315ZM529.436 31.773c0-3.344 2.012-5.755 5.522-5.755 3.509 0 5.521 2.411 5.521 5.755s-2.012 5.778-5.521 5.778c-3.51 0-5.522-2.411-5.522-5.778Zm8.632 0c0-1.884-.951-3.851-3.11-3.851s-3.111 1.967-3.111 3.851c0 1.885.952 3.875 3.111 3.875 2.159 0 3.11-1.968 3.11-3.875ZM542.499 26.315h2.284v1.607l.041.04c.718-1.207 1.967-1.948 3.408-1.948 2.37 0 3.87 1.272 3.87 3.724v7.512h-2.411v-6.872c-.041-1.715-.718-2.456-2.136-2.456-1.61 0-2.644 1.27-2.644 2.877v6.455h-2.412V26.315ZM563.812 34.824c0 .594.128.824.572.824.146 0 .338 0 .594-.042v1.674c-.361.124-1.121.275-1.523.275-.975 0-1.674-.339-1.862-1.336-.952.933-2.498 1.336-3.788 1.336-1.971 0-3.747-1.057-3.747-3.194 0-2.73 2.178-3.175 4.21-3.408 1.734-.316 3.28-.124 3.28-1.542 0-1.249-1.291-1.482-2.265-1.482-1.354 0-2.306.553-2.411 1.734h-2.411c.169-2.814 2.561-3.637 4.973-3.637 2.136 0 4.378.865 4.378 3.174v5.624Zm-2.411-3.05c-.737.488-1.903.466-2.96.657-1.039.17-1.968.55-1.968 1.821 0 1.08 1.377 1.395 2.22 1.395 1.057 0 2.708-.549 2.708-2.072v-1.802ZM576.025 37.254h-2.369V35.73h-.042c-.594 1.102-1.903 1.82-3.11 1.82-2.855 0-4.085-1.436-4.085-4.295v-6.94h2.411v6.707c0 1.926.782 2.626 2.095 2.626 2.008 0 2.686-1.29 2.686-2.983v-6.35h2.411v10.939h.003ZM581.513 31.499l-3.787-5.184h2.919l2.287 3.367 2.388-3.367h2.791l-3.724 5.056 4.19 5.883h-2.9l-2.772-4.04-2.686 4.04h-2.832l4.126-5.755ZM106.296.357h12.232v2.287h-4.803v12.823h-2.649V2.644h-4.78V.357ZM119.954.357h2.411v5.609h.041c.594-.993 1.843-1.734 3.28-1.734 2.37 0 3.874 1.271 3.874 3.724v7.511h-2.411V8.591c-.041-1.715-.718-2.452-2.136-2.452-1.61 0-2.648 1.271-2.648 2.877v6.455h-2.411V.357ZM133.988 10.622c0 1.716.929 3.24 2.941 3.24 1.396 0 2.242-.614 2.663-1.822h2.287c-.53 2.393-2.561 3.724-4.95 3.724-3.427 0-5.356-2.392-5.356-5.755 0-3.11 2.031-5.777 5.288-5.777 3.45 0 5.564 3.11 5.165 6.39h-8.038Zm5.627-1.587c-.087-1.523-1.125-2.9-2.754-2.9-1.628 0-2.809 1.271-2.877 2.9h5.631ZM149.993.357h2.795l6.898 11.13h.041V.358h2.521v15.106h-2.795l-6.876-11.107h-.06v11.107h-2.52V.357h-.004ZM174.209 13.034c0 .594.124.823.568.823.147 0 .342 0 .594-.041v1.674c-.357.128-1.12.274-1.523.274-.97 0-1.67-.338-1.862-1.335-.955.933-2.497 1.335-3.788 1.335-1.967 0-3.746-1.057-3.746-3.193 0-2.731 2.178-3.175 4.209-3.408 1.734-.316 3.28-.128 3.28-1.546 0-1.249-1.294-1.482-2.268-1.482-1.354 0-2.306.55-2.411 1.734h-2.411c.173-2.814 2.561-3.641 4.972-3.641 2.141 0 4.382.869 4.382 3.175v5.63h.004Zm-2.415-3.047c-.741.485-1.907.466-2.964.658-1.038.17-1.967.55-1.967 1.82 0 1.08 1.373 1.396 2.223 1.396 1.057 0 2.708-.55 2.708-2.072V9.987ZM175.714 4.529h1.82v-3.28h2.411v3.28h2.182v1.798h-2.182v5.838c0 .996.087 1.5 1.166 1.5.339 0 .678 0 1.016-.082v1.862c-.53.041-1.038.127-1.565.127-2.52 0-2.983-.974-3.028-2.79V6.326h-1.82V4.529ZM183.929.357h2.411v2.287h-2.411V.357Zm0 4.172h2.411v10.938h-2.411V4.53ZM188.458 9.987c0-3.344 2.008-5.755 5.522-5.755 3.513 0 5.521 2.41 5.521 5.755 0 3.344-2.008 5.777-5.521 5.777-3.514 0-5.522-2.414-5.522-5.777Zm8.632 0c0-1.885-.951-3.852-3.107-3.852-2.155 0-3.11 1.967-3.11 3.852 0 1.884.951 3.87 3.11 3.87s3.107-1.967 3.107-3.87ZM201.521 4.529h2.283v1.61l.042.041c.718-1.207 1.967-1.948 3.408-1.948 2.369 0 3.874 1.271 3.874 3.724v7.511h-2.415V8.591c-.041-1.715-.718-2.452-2.136-2.452-1.606 0-2.645 1.271-2.645 2.877v6.455h-2.411V4.529ZM222.834 13.034c0 .594.128.823.572.823.146 0 .338 0 .594-.041v1.674c-.361.128-1.125.274-1.524.274-.974 0-1.67-.338-1.865-1.335-.952.933-2.494 1.335-3.788 1.335-1.967 0-3.746-1.057-3.746-3.193 0-2.731 2.181-3.175 4.209-3.408 1.737-.316 3.28-.128 3.28-1.546 0-1.249-1.294-1.482-2.265-1.482-1.354 0-2.306.55-2.411 1.734h-2.411c.169-2.814 2.562-3.641 4.973-3.641 2.136 0 4.378.869 4.378 3.175v5.63h.004Zm-2.411-3.047c-.741.485-1.907.466-2.964.658-1.039.17-1.968.55-1.968 1.82 0 1.08 1.373 1.396 2.223 1.396 1.057 0 2.709-.55 2.709-2.072V9.987ZM225.508.357h2.411v15.106h-2.411V.357ZM236.766.357h7.343c2.708 0 4.487 1.227 4.487 3.747 0 1.523-.786 2.625-2.159 3.216v.041c1.839.403 2.836 1.84 2.836 3.893 0 2.37-1.651 4.21-5.563 4.21h-6.94V.356h-.004Zm2.648 6.33h4.315c1.271 0 2.223-.74 2.223-2.094 0-1.524-.783-2.073-2.223-2.073h-4.315v4.168Zm0 6.621h4.676c1.606 0 2.535-.869 2.535-2.392 0-1.524-.929-2.329-2.535-2.329h-4.676v4.721ZM260.494 13.034c0 .594.128.823.571.823.147 0 .339 0 .595-.041v1.674c-.361.128-1.125.274-1.524.274-.974 0-1.67-.338-1.865-1.335-.952.933-2.494 1.335-3.788 1.335-1.967 0-3.747-1.057-3.747-3.193 0-2.731 2.182-3.175 4.21-3.408 1.737-.316 3.28-.128 3.28-1.546 0-1.249-1.294-1.482-2.265-1.482-1.354 0-2.306.55-2.411 1.734h-2.411c.169-2.814 2.562-3.641 4.973-3.641 2.136 0 4.378.869 4.378 3.175v5.63h.004Zm-2.411-3.047c-.741.485-1.907.466-2.964.658-1.039.17-1.968.55-1.968 1.82 0 1.08 1.377 1.396 2.223 1.396 1.057 0 2.709-.55 2.709-2.072V9.987ZM262.002 4.529h1.821v-3.28h2.411v3.28h2.178v1.798h-2.178v5.838c0 .996.086 1.5 1.166 1.5.338 0 .677 0 1.012-.082v1.862c-.527.041-1.035.127-1.565.127-2.52 0-2.983-.974-3.024-2.79V6.326h-1.821V4.529ZM269.055 4.529h1.82v-3.28h2.412v3.28h2.177v1.798h-2.177v5.838c0 .996.086 1.5 1.166 1.5.338 0 .677 0 1.011-.082v1.862c-.526.041-1.034.127-1.564.127-2.521 0-2.983-.974-3.025-2.79V6.326h-1.82V4.529ZM277.266.357h2.411v15.106h-2.411V.357ZM284.187 10.622c0 1.716.929 3.24 2.942 3.24 1.395 0 2.242-.614 2.663-1.822h2.287c-.53 2.393-2.562 3.724-4.95 3.724-3.427 0-5.357-2.392-5.357-5.755 0-3.11 2.032-5.777 5.289-5.777 3.449 0 5.563 3.11 5.165 6.39h-8.039Zm5.631-1.587c-.086-1.523-1.124-2.9-2.753-2.9s-2.81 1.271-2.878 2.9h5.631ZM292.997 4.529h1.794v-.91c0-2.791 1.459-3.258 3.028-3.258.76 0 1.309.041 1.693.147v1.884a4.17 4.17 0 0 0-1.125-.128c-.655 0-1.185.234-1.185 1.144v1.12h2.054v1.799h-2.054v9.14h-2.411v-9.14h-1.794V4.529Zm7.805-4.172h2.411v2.287h-2.411V.357Zm0 4.172h2.411v10.938h-2.411V4.53ZM307.727 10.622c0 1.716.929 3.24 2.941 3.24 1.396 0 2.242-.614 2.663-1.822h2.287c-.53 2.393-2.561 3.724-4.95 3.724-3.427 0-5.356-2.392-5.356-5.755 0-3.11 2.031-5.777 5.288-5.777 3.45 0 5.564 3.11 5.165 6.39h-8.038Zm5.631-1.587c-.087-1.523-1.125-2.9-2.754-2.9s-2.81 1.271-2.877 2.9h5.631ZM317.68.357h2.411v15.106h-2.411V.357ZM333.023 15.467h-2.287v-1.482h-.042c-.635 1.249-2.008 1.776-3.385 1.776-3.449 0-5.119-2.562-5.119-5.838 0-3.957 2.347-5.691 4.739-5.691 1.377 0 2.896.507 3.637 1.715h.045V.357h2.412v15.11Zm-5.398-1.61c2.155 0 3.065-1.967 3.065-3.87 0-2.411-1.166-3.852-3.024-3.852-2.264 0-3.065 2.009-3.065 3.98 0 1.97.932 3.742 3.024 3.742ZM337.472 11.954c.128 1.396 1.185 1.903 2.479 1.903.911 0 2.494-.191 2.434-1.437-.064-1.271-1.821-1.418-3.577-1.82-1.779-.38-3.51-1.016-3.51-3.239 0-2.392 2.581-3.133 4.57-3.133 2.242 0 4.277.933 4.574 3.366h-2.52c-.214-1.143-1.166-1.459-2.223-1.459-.699 0-1.99.17-1.99 1.12 0 1.186 1.78 1.355 3.551 1.758 1.757.402 3.536 1.038 3.536 3.193 0 2.603-2.625 3.555-4.89 3.555-2.75 0-4.8-1.227-4.845-3.807h2.411ZM117.937 26.951c-.443-1.734-1.568-3.005-3.765-3.005-3.238 0-4.593 2.855-4.593 5.755s1.355 5.755 4.593 5.755c2.347 0 3.638-1.757 3.848-3.957h2.581c-.211 3.618-2.769 6.116-6.429 6.116-4.529 0-7.237-3.596-7.237-7.914 0-4.319 2.708-7.915 7.237-7.915 3.404.02 6.094 1.904 6.41 5.161h-2.645v.004ZM122.173 31.773c0-3.344 2.012-5.755 5.522-5.755 3.509 0 5.522 2.411 5.522 5.755s-2.013 5.778-5.522 5.778c-3.51 0-5.522-2.411-5.522-5.778Zm8.636 0c0-1.884-.955-3.851-3.111-3.851-2.155 0-3.11 1.967-3.11 3.851 0 1.885.955 3.875 3.11 3.875 2.156 0 3.111-1.968 3.111-3.875ZM135.236 26.315h2.284v1.524h.064c.718-1.08 1.628-1.82 3.362-1.82 1.336 0 2.581.57 3.07 1.82.801-1.121 1.839-1.82 3.426-1.82 2.31 0 3.664 1.015 3.664 3.682v7.553h-2.411v-6.391c0-1.734-.105-2.941-1.99-2.941-1.625 0-2.324 1.079-2.324 2.918v6.41h-2.411V30.23c0-1.5-.467-2.306-1.926-2.306-1.249 0-2.393 1.016-2.393 2.836v6.497h-2.411V26.315h-.004ZM153.656 26.315h2.284v1.524h.06c.718-1.08 1.629-1.82 3.366-1.82 1.336 0 2.581.57 3.066 1.82.801-1.121 1.839-1.82 3.427-1.82 2.305 0 3.66 1.015 3.66 3.682v7.553h-2.412v-6.391c0-1.734-.105-2.941-1.989-2.941-1.629 0-2.329 1.079-2.329 2.918v6.41h-2.411V30.23c0-1.5-.466-2.306-1.922-2.306-1.252 0-2.392 1.016-2.392 2.836v6.497h-2.411V26.315h.003ZM172.137 22.148h2.411v2.287h-2.411v-2.287Zm0 4.167h2.411v10.939h-2.411V26.315ZM178.994 33.744c.128 1.396 1.185 1.904 2.479 1.904.91 0 2.493-.192 2.433-1.437-.064-1.272-1.82-1.418-3.577-1.82-1.779-.385-3.509-1.016-3.509-3.24 0-2.392 2.58-3.133 4.57-3.133 2.242 0 4.277.93 4.574 3.367h-2.52c-.215-1.144-1.166-1.46-2.223-1.46-.7 0-1.99.17-1.99 1.121 0 1.185 1.779 1.354 3.551 1.757 1.756.402 3.535 1.038 3.535 3.197 0 2.603-2.625 3.555-4.89 3.555-2.749 0-4.799-1.227-4.844-3.807h2.411v-.004ZM189.981 33.744c.128 1.396 1.185 1.904 2.475 1.904.91 0 2.498-.192 2.434-1.437-.06-1.272-1.821-1.418-3.574-1.82-1.779-.385-3.513-1.016-3.513-3.24 0-2.392 2.581-3.133 4.574-3.133 2.242 0 4.273.93 4.57 3.367h-2.52c-.211-1.144-1.162-1.46-2.219-1.46-.7 0-1.99.17-1.99 1.121 0 1.185 1.779 1.354 3.555 1.757 1.756.402 3.532 1.038 3.532 3.197 0 2.603-2.622 3.555-4.887 3.555-2.749 0-4.803-1.227-4.844-3.807h2.407v-.004ZM199.212 22.148h2.411v2.287h-2.411v-2.287Zm0 4.167h2.411v10.939h-2.411V26.315ZM203.741 31.773c0-3.344 2.012-5.755 5.521-5.755 3.51 0 5.522 2.411 5.522 5.755s-2.012 5.778-5.522 5.778c-3.509 0-5.521-2.411-5.521-5.778Zm8.636 0c0-1.884-.956-3.851-3.111-3.851-2.155 0-3.111 1.967-3.111 3.851 0 1.885.956 3.875 3.111 3.875 2.155 0 3.111-1.968 3.111-3.875ZM216.804 26.315h2.283v1.607l.046.04c.718-1.207 1.967-1.948 3.404-1.948 2.369 0 3.874 1.272 3.874 3.724v7.512H224v-6.872c-.042-1.715-.719-2.456-2.137-2.456-1.61 0-2.648 1.27-2.648 2.877v6.455h-2.411V26.315Z"/></g><defs><clipPath id="a"><path fill="#fff" d="M0 0h632v37.615H0z"/></clipPath></defs></svg>