<svg xmlns="http://www.w3.org/2000/svg" width="632" height="39" fill="none"><g clip-path="url(#a)"><path fill="#E30613" fill-rule="evenodd" d="M37.598 3.12s-2.329 4.486-2.637 4.946c-.312.62-.62.62-1.088.312-.624-.312-2.488-1.389-2.488-1.389s1.712 7.416 1.712 8.032c.152.62-.468 1.084-1.092.62-.156-.152-3.417-3.866-3.417-3.866s-.776 1.701-.932 2.013c-.156.312-.308.617-.776.464-.62-.152-3.576-.772-3.576-.772s1.092 3.706 1.244 4.174c.152.369.312.772-.312 1.08l-1.085.464s6.366 5.578 6.522 5.73c.312.312.624.468.312 1.397-.312.932-.624 2.18-.624 2.18s5.905-1.244 6.525-1.404c.54-.057 1.134.156 1.134.776 0 .624-.362 6.993-.362 6.993h1.864s-.361-6.37-.361-6.993c0-.62.59-.833 1.138-.776.624.156 6.52 1.404 6.52 1.404s-.311-1.244-.62-2.18c-.311-.933 0-1.088.313-1.397.156-.152 6.525-5.73 6.525-5.73l-1.085-.464c-.62-.312-.46-.715-.312-1.08.149-.468 1.245-4.174 1.245-4.174s-2.957.62-3.577.772c-.464.152-.62-.152-.776-.464-.156-.312-.932-2.013-.932-2.013s-3.265 3.714-3.417 3.866c-.62.464-1.244 0-1.088-.62 0-.617 1.712-8.032 1.712-8.032s-1.864 1.08-2.484 1.389c-.465.308-.78.308-1.089-.312-.304-.46-2.636-4.946-2.636-4.946ZM18.799 37.666V.331H0v37.335h18.799ZM75.192 37.666V.331H56.393v37.335h18.799Z" clip-rule="evenodd"/><path fill="#000" d="M119.284 5.22c-.448-1.754-1.582-3.04-3.808-3.04-3.276 0-4.646 2.888-4.646 5.821 0 2.934 1.37 5.821 4.646 5.821 2.374 0 3.683-1.776 3.896-4.002h2.61c-.213 3.66-2.804 6.186-6.506 6.186-4.581 0-7.32-3.637-7.32-8.005S110.891 0 115.472 0c3.447.019 6.164 1.925 6.483 5.22h-2.671ZM123.572 10.101c0-3.382 2.036-5.82 5.586-5.82 3.553 0 5.585 2.438 5.585 5.82 0 3.406-2.036 5.844-5.585 5.844-3.554 0-5.586-2.442-5.586-5.844Zm8.732 0c0-1.906-.962-3.896-3.146-3.896s-3.147 1.99-3.147 3.896c0 1.926.963 3.915 3.147 3.915 2.18 0 3.146-1.99 3.146-3.915ZM136.782 4.58h2.313v1.542h.065c.727-1.092 1.648-1.842 3.405-1.842 1.347 0 2.61.579 3.105 1.842.814-1.134 1.86-1.842 3.466-1.842 2.332 0 3.702 1.028 3.702 3.725v7.64h-2.439V9.18c0-1.754-.106-2.976-2.012-2.976-1.648 0-2.356 1.092-2.356 2.953v6.483h-2.438V8.538c0-1.518-.472-2.333-1.948-2.333-1.264 0-2.42 1.028-2.42 2.87v6.57h-2.439V4.58h-.004ZM155.414 4.58h2.309v1.542h.065c.727-1.092 1.647-1.842 3.405-1.842 1.347 0 2.61.579 3.105 1.842.814-1.134 1.86-1.842 3.466-1.842 2.332 0 3.702 1.028 3.702 3.725v7.64h-2.439V9.18c0-1.754-.107-2.976-2.013-2.976-1.647 0-2.355 1.092-2.355 2.953v6.483h-2.439V8.538c0-1.518-.471-2.333-1.948-2.333-1.263 0-2.419 1.028-2.419 2.87v6.57h-2.439V4.58ZM174.106.361h2.439v2.314h-2.439V.36Zm0 4.22h2.439v11.064h-2.439V4.58ZM181.042 12.091c.129 1.412 1.199 1.926 2.504 1.926.92 0 2.526-.195 2.461-1.454-.064-1.286-1.841-1.434-3.618-1.841-1.8-.385-3.554-1.028-3.554-3.276 0-2.42 2.61-3.17 4.623-3.17 2.268 0 4.322.944 4.623 3.406h-2.546c-.213-1.157-1.175-1.477-2.248-1.477-.708 0-2.013.172-2.013 1.134 0 1.199 1.8 1.37 3.596 1.777 1.776.407 3.572 1.05 3.572 3.23 0 2.633-2.655 3.596-4.942 3.596-2.781 0-4.859-1.24-4.9-3.85h2.442ZM192.156 12.091c.129 1.412 1.198 1.926 2.503 1.926.921 0 2.526-.195 2.462-1.454-.065-1.286-1.842-1.434-3.619-1.841-1.799-.385-3.553-1.028-3.553-3.276 0-2.42 2.61-3.17 4.623-3.17 2.267 0 4.322.944 4.622 3.406h-2.545c-.213-1.157-1.176-1.477-2.249-1.477-.703 0-2.012.172-2.012 1.134 0 1.199 1.799 1.37 3.595 1.777 1.777.407 3.573 1.05 3.573 3.23 0 2.633-2.656 3.596-4.943 3.596-2.781 0-4.858-1.24-4.9-3.85h2.443ZM201.492.361h2.439v2.314h-2.439V.36Zm0 4.22h2.439v11.064h-2.439V4.58ZM206.077 10.101c0-3.382 2.035-5.82 5.585-5.82 3.554 0 5.586 2.438 5.586 5.82 0 3.406-2.036 5.844-5.586 5.844-3.553 0-5.585-2.442-5.585-5.844Zm8.732 0c0-1.906-.963-3.896-3.147-3.896-2.184 0-3.146 1.99-3.146 3.896 0 1.926.962 3.915 3.146 3.915s3.147-1.99 3.147-3.915ZM219.287 4.58h2.309v1.63l.042.041c.727-1.221 1.99-1.97 3.447-1.97 2.397 0 3.919 1.285 3.919 3.766v7.598h-2.439V8.69c-.042-1.735-.727-2.48-2.161-2.48-1.624 0-2.675 1.285-2.675 2.91v6.529h-2.438V4.58h-.004ZM247.955 15.645h-2.309v-1.5h-.042c-.643 1.264-2.036 1.797-3.424 1.797-3.489 0-5.179-2.591-5.179-5.905 0-4.003 2.375-5.757 4.794-5.757 1.393 0 2.934.514 3.679 1.735h.042V.361h2.439v15.284Zm-5.46-1.628c2.184 0 3.105-1.99 3.105-3.916 0-2.438-1.176-3.896-3.059-3.896-2.29 0-3.105 2.032-3.105 4.026 0 1.902.944 3.786 3.059 3.786ZM252.521 10.744c0 1.735.943 3.276 2.975 3.276 1.412 0 2.268-.62 2.698-1.841h2.309c-.536 2.42-2.591 3.766-5.007 3.766-3.466 0-5.414-2.42-5.414-5.82 0-3.147 2.054-5.845 5.349-5.845 3.489 0 5.627 3.147 5.224 6.464h-8.134Zm5.692-1.605c-.084-1.541-1.134-2.934-2.782-2.934-1.689 0-2.846 1.286-2.91 2.934h5.692ZM264.361 12.091c.129 1.412 1.198 1.926 2.503 1.926.921 0 2.527-.195 2.462-1.454-.065-1.286-1.841-1.434-3.618-1.841-1.8-.385-3.554-1.028-3.554-3.276 0-2.42 2.614-3.17 4.623-3.17 2.267 0 4.322.944 4.623 3.406h-2.55c-.213-1.157-1.175-1.477-2.244-1.477-.704 0-2.013.172-2.013 1.134 0 1.199 1.8 1.37 3.595 1.777 1.777.407 3.573 1.05 3.573 3.23 0 2.633-2.656 3.596-4.942 3.596-2.781 0-4.859-1.24-4.901-3.85h2.443ZM287.056 8.283c-.194-1.347-1.18-2.078-2.526-2.078-1.264 0-3.04.662-3.04 4.026 0 1.841.81 3.79 2.929 3.79 1.412 0 2.397-.944 2.633-2.527h2.439c-.449 2.869-2.226 4.451-5.072 4.451-3.466 0-5.372-2.461-5.372-5.714 0-3.34 1.819-5.95 5.456-5.95 2.568 0 4.752 1.285 4.988 4.002h-2.435ZM291.496.361h2.439v5.673h.042c.601-1.004 1.864-1.754 3.317-1.754 2.397 0 3.915 1.286 3.915 3.767v7.598h-2.439V8.69c-.041-1.735-.726-2.48-2.161-2.48-1.628 0-2.674 1.285-2.674 2.91v6.529h-2.439V.36ZM313.049 13.183c0 .601.13.834.579.834.148 0 .342 0 .601-.042v1.693c-.365.13-1.134.277-1.541.277-.985 0-1.693-.342-1.883-1.35-.963.943-2.527 1.35-3.832 1.35-1.993 0-3.789-1.069-3.789-3.23 0-2.762 2.203-3.21 4.257-3.447 1.754-.32 3.318-.13 3.318-1.564 0-1.263-1.305-1.499-2.29-1.499-1.37 0-2.333.556-2.439 1.754h-2.439c.171-2.845 2.591-3.683 5.03-3.683 2.161 0 4.428.88 4.428 3.212v5.695Zm-2.438-3.082c-.75.491-1.925.472-2.995.666-1.05.171-1.989.556-1.989 1.842 0 1.092 1.392 1.411 2.244 1.411 1.069 0 2.74-.555 2.74-2.096V10.1ZM315.69 4.58h2.309v1.542h.065c.727-1.092 1.647-1.842 3.405-1.842 1.347 0 2.61.579 3.101 1.842.814-1.134 1.864-1.842 3.466-1.842 2.332 0 3.702 1.028 3.702 3.725v7.64h-2.443V9.18c0-1.754-.106-2.976-2.012-2.976-1.648 0-2.355 1.092-2.355 2.953v6.483h-2.439V8.538c0-1.518-.472-2.333-1.948-2.333-1.263 0-2.416 1.028-2.416 2.87v6.57h-2.439V4.58h.004ZM334.382 4.58h2.31v1.5h.042c.684-1.263 2.012-1.8 3.424-1.8 3.489 0 5.178 2.656 5.178 5.886 0 2.975-1.499 5.78-4.775 5.78-1.411 0-2.929-.514-3.702-1.736h-.042v5.521h-2.438V4.581h.003Zm5.46 1.625c-2.054 0-3.105 1.564-3.105 3.915 0 2.226 1.134 3.897 3.105 3.897 2.226 0 3.059-1.968 3.059-3.896 0-2.01-1.05-3.916-3.059-3.916ZM349.243 12.091c.13 1.412 1.199 1.926 2.504 1.926.921 0 2.526-.195 2.462-1.454-.065-1.286-1.842-1.434-3.619-1.841-1.799-.385-3.553-1.028-3.553-3.276 0-2.42 2.614-3.17 4.622-3.17 2.268 0 4.323.944 4.623 3.406h-2.549c-.213-1.157-1.176-1.477-2.245-1.477-.704 0-2.012.172-2.012 1.134 0 1.199 1.799 1.37 3.595 1.777 1.777.407 3.573 1.05 3.573 3.23 0 2.633-2.656 3.596-4.943 3.596-2.781 0-4.858-1.24-4.9-3.85h2.442ZM119.049 37.682h-2.314v-1.496h-.042c-.643 1.264-2.035 1.796-3.424 1.796-3.489 0-5.178-2.59-5.178-5.905 0-4.002 2.374-5.756 4.794-5.756 1.393 0 2.933.513 3.679 1.735h.042v-5.654h2.439v15.28h.004Zm-5.46-1.625c2.184 0 3.104-1.99 3.104-3.919 0-2.439-1.175-3.896-3.062-3.896-2.291 0-3.105 2.036-3.105 4.025.004 1.907.947 3.79 3.063 3.79ZM123.614 32.781c0 1.735.944 3.276 2.975 3.276 1.412 0 2.268-.62 2.698-1.842h2.313c-.536 2.416-2.591 3.767-5.007 3.767-3.466 0-5.414-2.42-5.414-5.821 0-3.146 2.055-5.844 5.35-5.844 3.488 0 5.627 3.146 5.223 6.464h-8.138Zm5.692-1.605c-.084-1.541-1.134-2.934-2.781-2.934-1.689 0-2.846 1.286-2.911 2.934h5.692ZM139.632 22.402h2.439v5.65h.042c.662-1.07 2.054-1.735 3.294-1.735 3.489 0 5.179 2.656 5.179 5.886 0 2.975-1.499 5.78-4.771 5.78-1.5 0-3.105-.366-3.832-1.82h-.042v1.519h-2.309v-15.28Zm5.456 5.844c-2.055 0-3.105 1.564-3.105 3.919 0 2.226 1.134 3.896 3.105 3.896 2.226 0 3.059-1.971 3.059-3.896.004-2.017-1.046-3.919-3.059-3.919ZM161.916 35.224c0 .6.129.833.578.833.149 0 .343 0 .598-.042v1.693c-.362.126-1.134.278-1.541.278-.986 0-1.693-.342-1.884-1.35-.962.943-2.526 1.35-3.831 1.35-1.99 0-3.789-1.07-3.789-3.23 0-2.762 2.203-3.211 4.257-3.447 1.754-.32 3.318-.126 3.318-1.56 0-1.263-1.305-1.5-2.291-1.5-1.369 0-2.332.56-2.438 1.755h-2.439c.171-2.846 2.591-3.68 5.03-3.68 2.161 0 4.428.876 4.428 3.212v5.688h.004Zm-2.439-3.086c-.749.495-1.925.472-2.998.666-1.05.171-1.99.555-1.99 1.841 0 1.092 1.393 1.412 2.249 1.412 1.069 0 2.739-.556 2.739-2.096v-1.823ZM163.445 26.618h1.842V23.3h2.439v3.318h2.203v1.818h-2.203v5.905c0 1.008.083 1.518 1.175 1.518.343 0 .685 0 1.028-.084v1.884c-.537.042-1.05.13-1.583.13-2.545 0-3.017-.986-3.059-2.824v-6.529h-1.842v-1.818ZM180.955 35.224c0 .6.129.833.578.833.148 0 .342 0 .597-.042v1.693c-.361.126-1.134.278-1.541.278-.985 0-1.693-.342-1.883-1.35-.963.943-2.526 1.35-3.831 1.35-1.99 0-3.79-1.07-3.79-3.23 0-2.762 2.203-3.211 4.258-3.447 1.754-.32 3.317-.126 3.317-1.56 0-1.263-1.305-1.5-2.29-1.5-1.37 0-2.332.56-2.439 1.755h-2.439c.172-2.846 2.591-3.68 5.03-3.68 2.161 0 4.429.876 4.429 3.212v5.688h.004Zm-2.439-3.086c-.75.495-1.925.472-2.998.666-1.05.171-1.99.555-1.99 1.841 0 1.092 1.392 1.412 2.248 1.412 1.07 0 2.74-.556 2.74-2.096v-1.823ZM183.656 22.402h2.439v2.313h-2.439v-2.313Zm0 4.216h2.439v11.064h-2.439V26.618ZM188.819 22.402h2.439v15.28h-2.439v-15.28ZM193.978 22.402h2.439v15.28h-2.439v-15.28ZM200.979 32.781c0 1.735.943 3.276 2.975 3.276 1.411 0 2.268-.62 2.697-1.842h2.314c-.537 2.416-2.591 3.767-5.007 3.767-3.466 0-5.414-2.42-5.414-5.821 0-3.146 2.054-5.844 5.349-5.844 3.489 0 5.627 3.146 5.224 6.464h-8.138Zm5.695-1.605c-.083-1.541-1.133-2.934-2.781-2.934-1.689 0-2.846 1.286-2.911 2.934h5.692ZM216.936 26.618h2.309v1.624l.042.042c.727-1.221 1.99-1.97 3.447-1.97 2.397 0 3.919 1.285 3.919 3.766v7.598h-2.439v-6.951c-.042-1.735-.727-2.485-2.161-2.485-1.625 0-2.675 1.286-2.675 2.91v6.53h-2.439V26.618h-.003ZM238.493 35.224c0 .6.129.833.578.833.149 0 .343 0 .601-.042v1.693c-.361.126-1.133.278-1.541.278-.985 0-1.689-.342-1.883-1.35-.962.943-2.526 1.35-3.831 1.35-1.99 0-3.79-1.07-3.79-3.23 0-2.762 2.203-3.211 4.258-3.447 1.754-.32 3.317-.126 3.317-1.56 0-1.263-1.305-1.5-2.29-1.5-1.37 0-2.332.56-2.439 1.755h-2.439c.172-2.846 2.591-3.68 5.03-3.68 2.161 0 4.429.876 4.429 3.212v5.688Zm-2.439-3.086c-.749.495-1.925.472-2.998.666-1.046.171-1.99.555-1.99 1.841 0 1.092 1.393 1.412 2.249 1.412 1.069 0 2.739-.556 2.739-2.096v-1.823ZM240.019 26.618h1.841V23.3h2.439v3.318h2.203v1.818h-2.203v5.905c0 1.008.084 1.518 1.175 1.518.343 0 .685 0 1.028-.084v1.884c-.537.042-1.05.13-1.583.13-2.549 0-3.017-.986-3.059-2.824v-6.529h-1.841v-1.818ZM248.324 22.402h2.439v2.313h-2.439v-2.313Zm0 4.216h2.439v11.064h-2.439V26.618ZM252.909 32.138c0-3.382 2.035-5.821 5.585-5.821 3.554 0 5.585 2.439 5.585 5.821 0 3.405-2.035 5.844-5.585 5.844s-5.585-2.439-5.585-5.844Zm8.732 0c0-1.906-.963-3.896-3.147-3.896-2.18 0-3.146 1.99-3.146 3.896 0 1.93.962 3.919 3.146 3.919s3.147-1.99 3.147-3.919ZM266.119 26.618h2.309v1.624l.042.042c.727-1.221 1.99-1.97 3.447-1.97 2.397 0 3.919 1.285 3.919 3.766v7.598h-2.439v-6.951c-.042-1.735-.727-2.485-2.161-2.485-1.625 0-2.675 1.286-2.675 2.91v6.53h-2.439V26.618h-.003ZM287.676 35.224c0 .6.129.833.578.833.149 0 .343 0 .601-.042v1.693c-.361.126-1.133.278-1.54.278-.986 0-1.69-.342-1.884-1.35-.962.943-2.526 1.35-3.831 1.35-1.99 0-3.79-1.07-3.79-3.23 0-2.762 2.203-3.211 4.258-3.447 1.754-.32 3.318-.126 3.318-1.56 0-1.263-1.305-1.5-2.291-1.5-1.369 0-2.332.56-2.439 1.755h-2.438c.171-2.846 2.591-3.68 5.029-3.68 2.161 0 4.429.876 4.429 3.212v5.688Zm-2.439-3.086c-.749.495-1.925.472-2.998.666-1.046.171-1.99.555-1.99 1.841 0 1.092 1.393 1.412 2.249 1.412 1.069 0 2.739-.556 2.739-2.096v-1.823ZM300.034 37.682h-2.397V36.14h-.042c-.601 1.114-1.929 1.841-3.147 1.841-2.887 0-4.132-1.453-4.132-4.345v-7.02h2.439v6.784c0 1.948.792 2.656 2.119 2.656 2.036 0 2.721-1.305 2.721-3.017v-6.422h2.439v11.064ZM305.581 31.86l-3.831-5.242h2.952l2.309 3.405 2.42-3.405h2.823l-3.766 5.113 4.238 5.95h-2.93l-2.804-4.086-2.72 4.087h-2.869l4.178-5.822ZM390.125.361h12.373v2.314h-4.859v12.97h-2.675V2.675h-4.835V.36h-.004ZM403.936.361h2.439v5.673h.041c.602-1.004 1.865-1.754 3.318-1.754 2.397 0 3.919 1.286 3.919 3.767v7.598h-2.439V8.69c-.042-1.735-.727-2.48-2.161-2.48-1.625 0-2.675 1.285-2.675 2.91v6.529h-2.438V.36h-.004ZM418.131 10.744c0 1.735.94 3.276 2.975 3.276 1.412 0 2.268-.62 2.698-1.841h2.313c-.536 2.42-2.591 3.766-5.007 3.766-3.466 0-5.414-2.42-5.414-5.82 0-3.147 2.055-5.845 5.349-5.845 3.489 0 5.628 3.147 5.224 6.464h-8.138Zm5.696-1.605c-.084-1.541-1.134-2.934-2.782-2.934-1.689 0-2.845 1.286-2.91 2.934h5.692ZM434.32.361h2.823l6.978 11.258h.042V.362h2.549v15.28h-2.823l-6.955-11.235h-.065V15.64h-2.545V.361h-.004ZM458.815 13.183c0 .601.125.834.578.834.148 0 .342 0 .601-.042v1.693c-.365.13-1.134.277-1.541.277-.985 0-1.689-.342-1.883-1.35-.963.943-2.527 1.35-3.832 1.35-1.989 0-3.789-1.069-3.789-3.23 0-2.762 2.203-3.21 4.257-3.447 1.754-.32 3.318-.13 3.318-1.564 0-1.263-1.309-1.499-2.29-1.499-1.37 0-2.333.556-2.439 1.754h-2.439c.171-2.845 2.591-3.683 5.03-3.683 2.161 0 4.432.88 4.432 3.212v5.695h-.003Zm-2.439-3.082c-.75.491-1.929.472-2.998.666-1.05.171-1.99.556-1.99 1.842 0 1.092 1.392 1.411 2.248 1.411 1.07 0 2.74-.555 2.74-2.096V10.1ZM460.34 4.58h1.842V1.264h2.439v3.318h2.202v1.818h-2.202v5.905c0 1.009.087 1.518 1.179 1.518.342 0 .685 0 1.027-.083v1.883c-.536.042-1.046.13-1.583.13-2.549 0-3.017-.986-3.062-2.824V6.4h-1.842V4.581ZM468.65.361h2.438v2.314h-2.438V.36Zm0 4.22h2.438v11.064h-2.438V4.58ZM473.231 10.101c0-3.382 2.035-5.82 5.585-5.82s5.585 2.438 5.585 5.82c0 3.406-2.035 5.844-5.585 5.844-3.554 0-5.585-2.442-5.585-5.844Zm8.731 0c0-1.906-.962-3.896-3.146-3.896s-3.147 1.99-3.147 3.896c0 1.926.963 3.915 3.147 3.915 2.184 0 3.146-1.99 3.146-3.915ZM486.44 4.58h2.31v1.63l.042.041c.726-1.221 1.99-1.97 3.447-1.97 2.397 0 3.919 1.285 3.919 3.766v7.598h-2.443V8.69c-.042-1.735-.727-2.48-2.161-2.48-1.625 0-2.675 1.285-2.675 2.91v6.529h-2.439V4.58ZM508.002 13.183c0 .601.125.834.578.834.148 0 .342 0 .601-.042v1.693c-.365.13-1.134.277-1.541.277-.985 0-1.689-.342-1.883-1.35-.963.943-2.527 1.35-3.832 1.35-1.989 0-3.789-1.069-3.789-3.23 0-2.762 2.203-3.21 4.257-3.447 1.754-.32 3.318-.13 3.318-1.564 0-1.263-1.309-1.499-2.29-1.499-1.37 0-2.333.556-2.439 1.754h-2.439c.171-2.845 2.591-3.683 5.03-3.683 2.161 0 4.432.88 4.432 3.212v5.695h-.003Zm-2.443-3.082c-.75.491-1.929.472-2.998.666-1.05.171-1.99.556-1.99 1.842 0 1.092 1.392 1.411 2.249 1.411 1.069 0 2.739-.555 2.739-2.096V10.1ZM510.703.361h2.439v15.28h-2.439V.361ZM522.094.361h7.427c2.739 0 4.539 1.24 4.539 3.79 0 1.54-.792 2.656-2.184 3.253v.042c1.86.407 2.869 1.86 2.869 3.938 0 2.397-1.671 4.257-5.628 4.257h-7.019V.361h-.004Zm2.675 6.404h4.364c1.286 0 2.244-.75 2.244-2.12 0-1.54-.791-2.096-2.244-2.096h-4.364v4.216Zm0 6.696h4.729c1.625 0 2.568-.879 2.568-2.42 0-1.499-.94-2.355-2.568-2.355h-4.729v4.775ZM546.094 13.183c0 .601.126.834.578.834.149 0 .343 0 .601-.042v1.693c-.365.13-1.133.277-1.54.277-.986 0-1.69-.342-1.884-1.35-.962.943-2.526 1.35-3.831 1.35-1.99 0-3.79-1.069-3.79-3.23 0-2.762 2.203-3.21 4.258-3.447 1.754-.32 3.318-.13 3.318-1.564 0-1.263-1.309-1.499-2.291-1.499-1.369 0-2.332.556-2.439 1.754h-2.438c.171-2.845 2.591-3.683 5.029-3.683 2.161 0 4.433.88 4.433 3.212v5.695h-.004Zm-2.439-3.082c-.749.491-1.929.472-2.998.666-1.05.171-1.99.556-1.99 1.842 0 1.092 1.393 1.411 2.249 1.411 1.069 0 2.739-.555 2.739-2.096V10.1ZM547.62 4.58h1.841V1.264h2.443v3.318h2.203v1.818h-2.203v5.905c0 1.009.084 1.518 1.175 1.518.343 0 .685 0 1.028-.083v1.883c-.537.042-1.047.13-1.583.13-2.549 0-3.017-.986-3.063-2.824V6.4h-1.841V4.581ZM554.75 4.58h1.841V1.264h2.443v3.318h2.203v1.818h-2.203v5.905c0 1.009.083 1.518 1.175 1.518.343 0 .685 0 1.028-.083v1.883c-.537.042-1.047.13-1.583.13-2.549 0-3.017-.986-3.063-2.824V6.4h-1.841V4.581ZM563.059.361h2.439v15.28h-2.439V.361ZM570.06 10.744c0 1.735.939 3.276 2.975 3.276 1.412 0 2.268-.62 2.698-1.841h2.313c-.537 2.42-2.591 3.766-5.007 3.766-3.466 0-5.414-2.42-5.414-5.82 0-3.147 2.054-5.845 5.349-5.845 3.489 0 5.627 3.147 5.224 6.464h-8.138Zm5.692-1.605c-.084-1.541-1.134-2.934-2.782-2.934-1.689 0-2.846 1.286-2.91 2.934h5.692ZM578.97 4.58h1.819v-.92c0-2.823 1.476-3.295 3.063-3.295.768 0 1.328.042 1.712.149V2.42a4.207 4.207 0 0 0-1.134-.13c-.662 0-1.198.236-1.198 1.157v1.134h2.077v1.818h-2.077v9.246h-2.439V6.399h-1.819V4.581h-.004Zm7.895-4.219h2.439v2.314h-2.439V.36Zm0 4.22h2.439v11.064h-2.439V4.58ZM593.869 10.744c0 1.735.94 3.276 2.976 3.276 1.411 0 2.267-.62 2.697-1.841h2.313c-.536 2.42-2.591 3.766-5.006 3.766-3.467 0-5.415-2.42-5.415-5.82 0-3.147 2.055-5.845 5.35-5.845 3.489 0 5.627 3.147 5.224 6.464h-8.139Zm5.696-1.605c-.084-1.541-1.134-2.934-2.781-2.934-1.689 0-2.846 1.286-2.911 2.934h5.692ZM603.937.361h2.438v15.28h-2.438V.361ZM619.452 15.645h-2.313v-1.5h-.042c-.643 1.264-2.035 1.797-3.424 1.797-3.489 0-5.178-2.591-5.178-5.905 0-4.003 2.374-5.757 4.794-5.757 1.392 0 2.929.514 3.679 1.735h.042V.361h2.438v15.284h.004Zm-5.456-1.628c2.184 0 3.105-1.99 3.105-3.916 0-2.438-1.18-3.896-3.059-3.896-2.291 0-3.105 2.032-3.105 4.026 0 1.902.94 3.786 3.059 3.786ZM623.953 12.091c.129 1.412 1.199 1.926 2.504 1.926.92 0 2.526-.195 2.461-1.454-.064-1.286-1.841-1.434-3.614-1.841-1.8-.385-3.554-1.028-3.554-3.276 0-2.42 2.61-3.17 4.623-3.17 2.267 0 4.322.944 4.623 3.406h-2.55c-.213-1.157-1.175-1.477-2.244-1.477-.708 0-2.013.172-2.013 1.134 0 1.199 1.8 1.37 3.595 1.777 1.777.407 3.573 1.05 3.573 3.23 0 2.633-2.656 3.596-4.942 3.596-2.781 0-4.859-1.24-4.901-3.85h2.439ZM401.896 27.26c-.448-1.753-1.582-3.04-3.808-3.04-3.276 0-4.646 2.888-4.646 5.822 0 2.93 1.37 5.821 4.646 5.821 2.374 0 3.679-1.777 3.896-4.003h2.61c-.213 3.66-2.8 6.187-6.506 6.187-4.581 0-7.32-3.637-7.32-8.005s2.739-8.005 7.32-8.005c3.447.019 6.164 1.925 6.483 5.22h-2.675v.004ZM406.184 32.138c0-3.382 2.036-5.821 5.586-5.821 3.549 0 5.585 2.439 5.585 5.821 0 3.405-2.036 5.844-5.585 5.844-3.55 0-5.586-2.439-5.586-5.844Zm8.732 0c0-1.906-.962-3.896-3.146-3.896s-3.147 1.99-3.147 3.896c0 1.93.963 3.919 3.147 3.919 2.184 0 3.146-1.99 3.146-3.919ZM419.398 26.618h2.309v1.54h.065c.727-1.091 1.648-1.841 3.405-1.841 1.351 0 2.61.578 3.105 1.841.81-1.133 1.86-1.841 3.466-1.841 2.332 0 3.702 1.027 3.702 3.725v7.64h-2.439v-6.465c0-1.753-.106-2.975-2.012-2.975-1.648 0-2.356 1.092-2.356 2.953v6.483h-2.438v-7.1c0-1.518-.472-2.332-1.948-2.332-1.264 0-2.42 1.027-2.42 2.869v6.57h-2.439V26.618ZM438.03 26.618h2.309v1.54h.065c.726-1.091 1.647-1.841 3.405-1.841 1.351 0 2.61.578 3.105 1.841.81-1.133 1.86-1.841 3.466-1.841 2.332 0 3.702 1.027 3.702 3.725v7.64h-2.439v-6.465c0-1.753-.107-2.975-2.013-2.975-1.647 0-2.355 1.092-2.355 2.953v6.483h-2.439v-7.1c0-1.518-.472-2.332-1.948-2.332-1.263 0-2.42 1.027-2.42 2.869v6.57h-2.438V26.618ZM456.722 22.402h2.439v2.313h-2.439v-2.313Zm0 4.216h2.439v11.064h-2.439V26.618ZM463.658 34.132c.129 1.411 1.198 1.925 2.503 1.925.921 0 2.527-.194 2.462-1.453-.065-1.286-1.841-1.435-3.614-1.842-1.8-.388-3.554-1.027-3.554-3.276 0-2.42 2.61-3.169 4.623-3.169 2.267 0 4.322.94 4.622 3.405h-2.549c-.213-1.156-1.175-1.476-2.244-1.476-.708 0-2.013.171-2.013 1.134 0 1.198 1.799 1.37 3.595 1.777 1.777.407 3.573 1.05 3.573 3.234 0 2.632-2.656 3.595-4.942 3.595-2.782 0-4.859-1.24-4.901-3.85h2.439v-.004ZM474.771 34.132c.13 1.411 1.199 1.925 2.504 1.925.921 0 2.526-.194 2.462-1.453-.065-1.286-1.842-1.435-3.615-1.842-1.8-.388-3.554-1.027-3.554-3.276 0-2.42 2.61-3.169 4.623-3.169 2.268 0 4.322.94 4.623 3.405h-2.549c-.213-1.156-1.176-1.476-2.245-1.476-.708 0-2.013.171-2.013 1.134 0 1.198 1.8 1.37 3.596 1.777 1.777.407 3.572 1.05 3.572 3.234 0 2.632-2.652 3.595-4.942 3.595-2.781 0-4.859-1.24-4.9-3.85h2.438v-.004ZM484.108 22.402h2.439v2.313h-2.439v-2.313Zm0 4.216h2.439v11.064h-2.439V26.618ZM488.689 32.138c0-3.382 2.035-5.821 5.585-5.821s5.585 2.439 5.585 5.821c0 3.405-2.035 5.844-5.585 5.844-3.553 0-5.585-2.439-5.585-5.844Zm8.732 0c0-1.906-.963-3.896-3.147-3.896-2.184 0-3.146 1.99-3.146 3.896 0 1.93.962 3.919 3.146 3.919s3.147-1.99 3.147-3.919ZM501.903 26.618h2.309v1.624l.042.042c.727-1.221 1.99-1.97 3.447-1.97 2.397 0 3.919 1.285 3.919 3.766v7.598h-2.439v-6.951c-.042-1.735-.727-2.485-2.161-2.485-1.625 0-2.675 1.286-2.675 2.91v6.53h-2.439V26.618h-.003Z"/></g><defs><clipPath id="a"><path fill="#fff" d="M0 0h632v38.047H0z"/></clipPath></defs></svg>