<?xml version="1.0" encoding="UTF-8"?>
<svg id="French" xmlns="http://www.w3.org/2000/svg" viewBox="0 0 1680.19 100">
  <defs>
    <style>
      .cls-1 {
        fill: #e30613;
        fill-rule: evenodd;
      }
    </style>
  </defs>
  <g id="_65_Medium" data-name="65 Medium">
    <g>
      <g>
        <path class="cls-1" d="m98.82,8.2s-6.12,11.79-6.93,13c-.82,1.63-1.63,1.63-2.86.82-1.64-.82-6.54-3.65-6.54-3.65,0,0,4.5,19.49,4.5,21.11.4,1.63-1.23,2.85-2.87,1.63-.41-.4-8.98-10.16-8.98-10.16,0,0-2.04,4.47-2.45,5.29-.41.82-.81,1.62-2.04,1.22-1.63-.4-9.4-2.03-9.4-2.03,0,0,2.87,9.74,3.27,10.97.4.97.82,2.03-.82,2.84l-2.85,1.22s16.73,14.66,17.14,15.06c.82.82,1.64,1.23.82,3.67-.82,2.45-1.64,5.73-1.64,5.73,0,0,15.52-3.27,17.15-3.69,1.42-.15,2.98.41,2.98,2.04s-.95,18.38-.95,18.38h4.9s-.95-16.74-.95-18.38,1.55-2.19,2.99-2.04c1.64.41,17.14,3.69,17.14,3.69,0,0-.82-3.27-1.63-5.73-.82-2.45,0-2.86.82-3.67.41-.4,17.15-15.06,17.15-15.06l-2.85-1.22c-1.63-.82-1.21-1.88-.82-2.84.39-1.23,3.27-10.97,3.27-10.97,0,0-7.77,1.63-9.4,2.03-1.22.4-1.63-.4-2.04-1.22s-2.45-5.29-2.45-5.29c0,0-8.58,9.76-8.98,10.16-1.63,1.22-3.27,0-2.86-1.63,0-1.62,4.5-21.11,4.5-21.11,0,0-4.9,2.84-6.53,3.65-1.22.81-2.05.81-2.86-.82-.8-1.21-6.93-13-6.93-13h0Z"/>
        <polygon class="cls-1" points="49.41 99 49.41 .87 0 .87 0 99 49.41 99"/>
        <polygon class="cls-1" points="197.63 99 197.63 .87 148.22 .87 148.22 99 197.63 99"/>
      </g>
      <g>
        <path d="m1056.31,13.72c-1.18-4.61-4.16-7.99-10.01-7.99-8.61,0-12.21,7.59-12.21,15.3s3.6,15.3,12.21,15.3c6.24,0,9.68-4.67,10.24-10.52h6.87c-.56,9.62-7.37,16.26-17.1,16.26-12.04,0-19.24-9.56-19.24-21.04s7.19-21.03,19.23-21.03c9.06.05,16.2,5.06,17.04,13.72h-7.03Z"/>
        <path d="m1067.58,26.55c0-8.89,5.35-15.3,14.68-15.3s14.68,6.41,14.68,15.3-5.35,15.36-14.68,15.36-14.68-6.42-14.68-15.36Zm22.95,0c0-5.01-2.53-10.24-8.27-10.24s-8.27,5.23-8.27,10.24,2.53,10.29,8.27,10.29,8.27-5.23,8.27-10.29Z"/>
        <path d="m1102.31,12.04h6.08v4.05h.16c1.91-2.87,4.33-4.84,8.95-4.84,3.55,0,6.86,1.52,8.16,4.84,2.14-2.98,4.89-4.84,9.11-4.84,6.13,0,9.73,2.7,9.73,9.79v20.08h-6.41v-16.99c0-4.61-.28-7.82-5.29-7.82-4.33,0-6.19,2.87-6.19,7.76v17.04h-6.41v-18.67c0-3.99-1.24-6.13-5.12-6.13-3.32,0-6.36,2.7-6.36,7.54v17.27h-6.41V12.04h0Z"/>
        <path d="m1151.27,12.04h6.07v4.05h.17c1.91-2.87,4.33-4.84,8.95-4.84,3.54,0,6.86,1.52,8.15,4.84,2.14-2.98,4.9-4.84,9.11-4.84,6.13,0,9.73,2.7,9.73,9.79v20.08h-6.41v-16.99c0-4.61-.28-7.82-5.29-7.82-4.33,0-6.19,2.87-6.19,7.76v17.04h-6.41v-18.67c0-3.99-1.24-6.13-5.12-6.13-3.32,0-6.35,2.7-6.35,7.54v17.27h-6.41V12.04h0Z"/>
        <path d="m1200.41.95h6.41v6.08h-6.41V.95Zm0,11.09h6.41v29.08h-6.41V12.04Z"/>
        <path d="m1218.64,31.78c.34,3.71,3.15,5.06,6.58,5.06,2.42,0,6.64-.51,6.47-3.82-.17-3.38-4.84-3.77-9.5-4.84-4.73-1.01-9.34-2.7-9.34-8.61,0-6.36,6.86-8.33,12.15-8.33,5.96,0,11.36,2.48,12.15,8.95h-6.69c-.56-3.04-3.1-3.88-5.91-3.88-1.85,0-5.29.45-5.29,2.98,0,3.15,4.73,3.6,9.45,4.67,4.67,1.07,9.39,2.76,9.39,8.49,0,6.92-6.98,9.45-12.99,9.45-7.31,0-12.77-3.26-12.88-10.12,0,0,6.41,0,6.41,0Z"/>
        <path d="m1247.85,31.78c.34,3.71,3.15,5.06,6.58,5.06,2.42,0,6.64-.51,6.47-3.82-.17-3.38-4.84-3.77-9.51-4.84-4.73-1.01-9.34-2.7-9.34-8.61,0-6.36,6.87-8.33,12.15-8.33,5.96,0,11.36,2.48,12.15,8.95h-6.7c-.56-3.04-3.09-3.88-5.9-3.88-1.85,0-5.29.45-5.29,2.98,0,3.15,4.73,3.6,9.45,4.67,4.67,1.07,9.39,2.76,9.39,8.49,0,6.92-6.98,9.45-12.99,9.45-7.31,0-12.77-3.26-12.88-10.12,0,0,6.42,0,6.42,0Z"/>
        <path d="m1272.39.95h6.42v6.08h-6.42V.95Zm0,11.09h6.42v29.08h-6.42V12.04Z"/>
        <path d="m1284.43,26.55c0-8.89,5.35-15.3,14.68-15.3s14.68,6.41,14.68,15.3-5.35,15.36-14.68,15.36-14.68-6.42-14.68-15.36Zm22.96,0c0-5.01-2.53-10.24-8.27-10.24s-8.27,5.23-8.27,10.24,2.53,10.29,8.27,10.29,8.27-5.23,8.27-10.29Z"/>
        <path d="m1319.16,12.04h6.07v4.28l.11.11c1.91-3.21,5.23-5.18,9.06-5.18,6.3,0,10.29,3.38,10.29,9.9v19.97h-6.41v-18.28c-.11-4.56-1.91-6.52-5.68-6.52-4.28,0-7.03,3.38-7.03,7.65v17.16h-6.41V12.04h0Z"/>
        <path d="m1394.51,41.12h-6.08v-3.94h-.11c-1.69,3.32-5.35,4.72-9,4.72-9.17,0-13.61-6.81-13.61-15.52,0-10.52,6.24-15.13,12.6-15.13,3.66,0,7.7,1.35,9.67,4.56h.11V.95h6.41v40.17h0Zm-14.35-4.28c5.74,0,8.16-5.23,8.16-10.29,0-6.41-3.1-10.24-8.05-10.24-6.02,0-8.15,5.34-8.15,10.58s2.47,9.95,8.04,9.95Z"/>
        <path d="m1406.51,28.24c0,4.56,2.47,8.61,7.82,8.61,3.71,0,5.96-1.63,7.09-4.84h6.08c-1.41,6.36-6.81,9.9-13.16,9.9-9.11,0-14.23-6.36-14.23-15.3,0-8.27,5.4-15.36,14.06-15.36,9.17,0,14.79,8.27,13.73,16.99,0,0-21.39,0-21.39,0Zm14.96-4.22c-.22-4.05-2.98-7.71-7.31-7.71s-7.48,3.38-7.65,7.71h14.96Z"/>
        <path d="m1437.63,31.78c.34,3.71,3.15,5.06,6.58,5.06,2.42,0,6.64-.51,6.47-3.82-.17-3.38-4.84-3.77-9.5-4.84-4.73-1.01-9.34-2.7-9.34-8.61,0-6.36,6.86-8.33,12.15-8.33,5.96,0,11.36,2.48,12.15,8.95h-6.69c-.56-3.04-3.1-3.88-5.91-3.88-1.85,0-5.29.45-5.29,2.98,0,3.15,4.73,3.6,9.45,4.67,4.67,1.07,9.39,2.76,9.39,8.49,0,6.92-6.98,9.45-12.99,9.45-7.31,0-12.77-3.26-12.88-10.12,0,0,6.41,0,6.41,0Z"/>
        <path d="m1497.28,21.77c-.5-3.54-3.09-5.46-6.64-5.46-3.32,0-7.99,1.74-7.99,10.58,0,4.84,2.14,9.96,7.71,9.96,3.71,0,6.3-2.48,6.92-6.64h6.41c-1.18,7.54-5.85,11.7-13.33,11.7-9.11,0-14.12-6.47-14.12-15.02s4.78-15.64,14.35-15.64c6.75,0,12.49,3.38,13.1,10.52,0,0-6.41,0-6.41,0Z"/>
        <path d="m1508.94.95h6.41v14.91h.11c1.58-2.64,4.89-4.61,8.72-4.61,6.3,0,10.3,3.38,10.3,9.9v19.97h-6.41v-18.28c-.11-4.56-1.91-6.52-5.68-6.52-4.27,0-7.03,3.38-7.03,7.65v17.16h-6.41V.95h0Z"/>
        <path d="m1565.6,34.65c0,1.58.34,2.19,1.52,2.19.39,0,.9,0,1.57-.11v4.45c-.95.34-2.98.73-4.05.73-2.59,0-4.44-.9-4.95-3.55-2.53,2.48-6.64,3.55-10.07,3.55-5.23,0-9.96-2.81-9.96-8.49,0-7.26,5.79-8.44,11.19-9.06,4.61-.84,8.72-.34,8.72-4.11,0-3.32-3.43-3.94-6.02-3.94-3.6,0-6.13,1.46-6.41,4.61h-6.41c.45-7.48,6.81-9.68,13.22-9.68,5.68,0,11.64,2.31,11.64,8.44v14.97h.01Zm-6.41-8.1c-1.97,1.29-5.06,1.24-7.88,1.75-2.75.45-5.23,1.46-5.23,4.84,0,2.87,3.66,3.71,5.91,3.71,2.81,0,7.2-1.46,7.2-5.51v-4.79Z"/>
        <path d="m1572.53,12.04h6.08v4.05h.16c1.91-2.87,4.33-4.84,8.95-4.84,3.55,0,6.86,1.52,8.16,4.84,2.14-2.98,4.89-4.84,9.11-4.84,6.13,0,9.73,2.7,9.73,9.79v20.08h-6.41v-16.99c0-4.61-.28-7.82-5.29-7.82-4.33,0-6.19,2.87-6.19,7.76v17.04h-6.41v-18.67c0-3.99-1.24-6.13-5.12-6.13-3.32,0-6.36,2.7-6.36,7.54v17.27h-6.41V12.04h0Z"/>
        <path d="m1621.67,12.04h6.08v3.94h.11c1.8-3.32,5.29-4.73,9-4.73,9.17,0,13.61,6.98,13.61,15.47,0,7.82-3.93,15.19-12.54,15.19-3.71,0-7.71-1.35-9.73-4.56h-.11v14.51h-6.42V12.04h0Zm14.34,4.27c-5.4,0-8.16,4.11-8.16,10.29,0,5.85,2.98,10.24,8.16,10.24,5.85,0,8.04-5.17,8.04-10.24s-2.75-10.29-8.04-10.29Z"/>
        <path d="m1660.73,31.78c.34,3.71,3.15,5.06,6.58,5.06,2.42,0,6.64-.51,6.47-3.82-.17-3.38-4.84-3.77-9.5-4.84-4.73-1.01-9.34-2.7-9.34-8.61,0-6.36,6.86-8.33,12.15-8.33,5.96,0,11.36,2.48,12.15,8.95h-6.69c-.56-3.04-3.1-3.88-5.91-3.88-1.85,0-5.29.45-5.29,2.98,0,3.15,4.73,3.6,9.45,4.67,4.67,1.07,9.39,2.76,9.39,8.49,0,6.92-6.98,9.45-12.99,9.45-7.31,0-12.77-3.26-12.88-10.12,0,0,6.41,0,6.41,0Z"/>
        <path d="m1055.69,99.04h-6.07v-3.93h-.11c-1.69,3.32-5.35,4.72-9,4.72-9.17,0-13.61-6.81-13.61-15.52,0-10.52,6.24-15.13,12.6-15.13,3.66,0,7.71,1.35,9.67,4.56h.11v-14.86h6.41v40.16h0Zm-14.34-4.27c5.74,0,8.16-5.23,8.16-10.3,0-6.41-3.09-10.24-8.04-10.24-6.02,0-8.16,5.35-8.16,10.58,0,5.01,2.47,9.96,8.04,9.96Z"/>
        <path d="m1067.69,86.16c0,4.56,2.48,8.61,7.82,8.61,3.71,0,5.96-1.63,7.09-4.84h6.07c-1.41,6.35-6.81,9.9-13.16,9.9-9.11,0-14.23-6.36-14.23-15.3,0-8.27,5.4-15.36,14.06-15.36,9.17,0,14.79,8.27,13.73,16.99h-21.38Zm14.97-4.22c-.22-4.05-2.98-7.71-7.31-7.71s-7.48,3.38-7.65,7.71h14.96Z"/>
        <path d="m1109.79,58.88h6.41v14.85h.11c1.74-2.81,5.4-4.56,8.66-4.56,9.17,0,13.61,6.98,13.61,15.47,0,7.82-3.94,15.19-12.55,15.19-3.93,0-8.16-.96-10.07-4.78h-.11v3.99h-6.07v-40.16h0Zm14.35,15.36c-5.4,0-8.16,4.11-8.16,10.3,0,5.85,2.98,10.24,8.16,10.24,5.85,0,8.04-5.18,8.04-10.24s-2.75-10.3-8.04-10.3Z"/>
        <path d="m1168.37,92.58c0,1.58.34,2.19,1.52,2.19.39,0,.9,0,1.57-.11v4.45c-.95.33-2.98.73-4.05.73-2.59,0-4.44-.9-4.95-3.55-2.53,2.48-6.64,3.55-10.07,3.55-5.23,0-9.96-2.81-9.96-8.49,0-7.26,5.79-8.44,11.19-9.06,4.61-.84,8.72-.33,8.72-4.1,0-3.32-3.43-3.94-6.02-3.94-3.6,0-6.13,1.47-6.41,4.61h-6.41c.45-7.48,6.81-9.67,13.22-9.67,5.68,0,11.64,2.3,11.64,8.44v14.95h.01Zm-6.41-8.11c-1.97,1.3-5.06,1.24-7.88,1.75-2.75.45-5.23,1.46-5.23,4.84,0,2.87,3.66,3.71,5.91,3.71,2.81,0,7.2-1.46,7.2-5.51v-4.79Z"/>
        <path d="m1172.38,69.96h4.84v-8.72h6.41v8.72h5.79v4.78h-5.79v15.52c0,2.65.22,3.99,3.09,3.99.9,0,1.8,0,2.7-.22v4.95c-1.41.11-2.76.34-4.16.34-6.7,0-7.93-2.59-8.04-7.42v-17.16h-4.84v-4.78h0Z"/>
        <path d="m1218.41,92.58c0,1.58.34,2.19,1.52,2.19.39,0,.9,0,1.57-.11v4.45c-.95.33-2.98.73-4.05.73-2.59,0-4.44-.9-4.95-3.55-2.53,2.48-6.64,3.55-10.07,3.55-5.23,0-9.96-2.81-9.96-8.49,0-7.26,5.79-8.44,11.19-9.06,4.61-.84,8.72-.33,8.72-4.1,0-3.32-3.43-3.94-6.02-3.94-3.6,0-6.13,1.47-6.41,4.61h-6.41c.45-7.48,6.81-9.67,13.22-9.67,5.68,0,11.64,2.3,11.64,8.44v14.95h.01Zm-6.42-8.11c-1.97,1.3-5.06,1.24-7.88,1.75-2.75.45-5.23,1.46-5.23,4.84,0,2.87,3.66,3.71,5.91,3.71,2.81,0,7.2-1.46,7.2-5.51v-4.79Z"/>
        <path d="m1225.51,58.88h6.41v6.08h-6.41v-6.08Zm0,11.08h6.41v29.08h-6.41v-29.08Z"/>
        <path d="m1239.07,58.88h6.42v40.16h-6.42v-40.16Z"/>
        <path d="m1252.64,58.88h6.41v40.16h-6.41v-40.16Z"/>
        <path d="m1271.04,86.16c0,4.56,2.47,8.61,7.82,8.61,3.71,0,5.96-1.63,7.09-4.84h6.08c-1.41,6.35-6.81,9.9-13.16,9.9-9.11,0-14.23-6.36-14.23-15.3,0-8.27,5.4-15.36,14.06-15.36,9.17,0,14.79,8.27,13.73,16.99h-21.39Zm14.96-4.22c-.22-4.05-2.98-7.71-7.31-7.71s-7.48,3.38-7.65,7.71h14.96Z"/>
        <path d="m1312.97,69.96h6.07v4.27l.11.11c1.91-3.21,5.23-5.18,9.06-5.18,6.3,0,10.29,3.38,10.29,9.9v19.97h-6.41v-18.27c-.11-4.56-1.91-6.53-5.68-6.53-4.28,0-7.03,3.38-7.03,7.65v17.16h-6.41v-29.08h0Z"/>
        <path d="m1369.63,92.58c0,1.58.34,2.19,1.52,2.19.39,0,.9,0,1.58-.11v4.45c-.96.33-2.98.73-4.05.73-2.59,0-4.45-.9-4.95-3.55-2.53,2.48-6.64,3.55-10.07,3.55-5.24,0-9.96-2.81-9.96-8.49,0-7.26,5.79-8.44,11.19-9.06,4.61-.84,8.72-.33,8.72-4.1,0-3.32-3.43-3.94-6.02-3.94-3.6,0-6.13,1.47-6.41,4.61h-6.41c.45-7.48,6.81-9.67,13.22-9.67,5.68,0,11.64,2.3,11.64,8.44v14.95h0Zm-6.41-8.11c-1.96,1.3-5.06,1.24-7.87,1.75-2.76.45-5.23,1.46-5.23,4.84,0,2.87,3.66,3.71,5.9,3.71,2.81,0,7.2-1.46,7.2-5.51v-4.79Z"/>
        <path d="m1373.64,69.96h4.84v-8.72h6.41v8.72h5.79v4.78h-5.79v15.52c0,2.65.22,3.99,3.1,3.99.9,0,1.8,0,2.7-.22v4.95c-1.41.11-2.76.34-4.16.34-6.69,0-7.93-2.59-8.04-7.42v-17.16h-4.84v-4.78h0Z"/>
        <path d="m1395.48,58.88h6.42v6.08h-6.42v-6.08Zm0,11.08h6.42v29.08h-6.42v-29.08Z"/>
        <path d="m1407.52,84.47c0-8.89,5.35-15.3,14.68-15.3s14.68,6.41,14.68,15.3-5.35,15.36-14.68,15.36-14.68-6.41-14.68-15.36Zm22.95,0c0-5.01-2.53-10.24-8.27-10.24s-8.27,5.23-8.27,10.24,2.53,10.3,8.27,10.3c5.74,0,8.27-5.23,8.27-10.3Z"/>
        <path d="m1442.25,69.96h6.07v4.27l.11.11c1.91-3.21,5.23-5.18,9.06-5.18,6.3,0,10.29,3.38,10.29,9.9v19.97h-6.41v-18.27c-.11-4.56-1.91-6.53-5.68-6.53-4.28,0-7.03,3.38-7.03,7.65v17.16h-6.41v-29.08h0Z"/>
        <path d="m1498.91,92.58c0,1.58.34,2.19,1.52,2.19.39,0,.9,0,1.58-.11v4.45c-.96.33-2.98.73-4.05.73-2.59,0-4.45-.9-4.95-3.55-2.53,2.48-6.64,3.55-10.07,3.55-5.24,0-9.96-2.81-9.96-8.49,0-7.26,5.79-8.44,11.19-9.06,4.61-.84,8.72-.33,8.72-4.1,0-3.32-3.43-3.94-6.02-3.94-3.6,0-6.13,1.47-6.41,4.61h-6.41c.45-7.48,6.81-9.67,13.22-9.67,5.68,0,11.64,2.3,11.64,8.44v14.95h0Zm-6.41-8.11c-1.96,1.3-5.06,1.24-7.87,1.75-2.76.45-5.23,1.46-5.23,4.84,0,2.87,3.66,3.71,5.9,3.71,2.81,0,7.2-1.46,7.2-5.51v-4.79Z"/>
        <path d="m1531.38,99.04h-6.3v-4.05h-.11c-1.58,2.93-5.06,4.84-8.27,4.84-7.59,0-10.86-3.82-10.86-11.42v-18.45h6.41v17.83c0,5.12,2.08,6.98,5.57,6.98,5.34,0,7.14-3.43,7.14-7.93v-16.88h6.41v29.08h.01Z"/>
        <path d="m1545.97,83.74l-10.07-13.78h7.76l6.08,8.95,6.35-8.95h7.42l-9.9,13.44,11.14,15.64h-7.71l-7.37-10.74-7.14,10.74h-7.53l10.97-15.3Z"/>
      </g>
      <g>
        <path d="m282.59.95h32.52v6.08h-12.77v34.09h-7.04V7.03h-12.71V.95Z"/>
        <path d="m318.9.95h6.41v14.91h.11c1.58-2.64,4.9-4.61,8.72-4.61,6.3,0,10.3,3.38,10.3,9.9v19.97h-6.41v-18.28c-.11-4.56-1.91-6.52-5.68-6.52-4.28,0-7.04,3.38-7.04,7.65v17.16h-6.41V.95h0Z"/>
        <path d="m356.21,28.24c0,4.56,2.47,8.61,7.82,8.61,3.71,0,5.96-1.63,7.08-4.84h6.08c-1.41,6.36-6.81,9.9-13.16,9.9-9.11,0-14.24-6.36-14.24-15.3,0-8.27,5.4-15.36,14.06-15.36,9.17,0,14.79,8.27,13.73,16.99,0,0-21.37,0-21.37,0Zm14.96-4.22c-.23-4.05-2.99-7.71-7.32-7.71s-7.47,3.38-7.65,7.71h14.97Z"/>
        <path d="m398.76.95h7.43l18.34,29.59h.11V.95h6.7v40.16h-7.43l-18.28-29.53h-.16v29.53h-6.7V.95h0Z"/>
        <path d="m463.14,34.65c0,1.58.33,2.19,1.51,2.19.39,0,.91,0,1.58-.11v4.45c-.95.34-2.98.73-4.05.73-2.58,0-4.44-.9-4.95-3.55-2.54,2.48-6.64,3.55-10.07,3.55-5.23,0-9.96-2.81-9.96-8.49,0-7.26,5.79-8.44,11.19-9.06,4.61-.84,8.72-.34,8.72-4.11,0-3.32-3.44-3.94-6.03-3.94-3.6,0-6.13,1.46-6.41,4.61h-6.41c.46-7.48,6.81-9.68,13.22-9.68,5.69,0,11.65,2.31,11.65,8.44v14.97h.01Zm-6.42-8.1c-1.97,1.29-5.07,1.24-7.88,1.75-2.76.45-5.23,1.46-5.23,4.84,0,2.87,3.65,3.71,5.91,3.71,2.81,0,7.2-1.46,7.2-5.51v-4.79Z"/>
        <path d="m467.14,12.04h4.84V3.32h6.41v8.72h5.8v4.78h-5.8v15.52c0,2.65.23,3.99,3.1,3.99.9,0,1.8,0,2.7-.22v4.95c-1.41.11-2.76.34-4.16.34-6.7,0-7.93-2.59-8.05-7.42v-17.16h-4.84v-4.78h0Z"/>
        <path d="m488.98.95h6.41v6.08h-6.41V.95Zm0,11.09h6.41v29.08h-6.41V12.04Z"/>
        <path d="m501.02,26.55c0-8.89,5.34-15.3,14.68-15.3s14.68,6.41,14.68,15.3-5.34,15.36-14.68,15.36-14.68-6.42-14.68-15.36Zm22.95,0c0-5.01-2.53-10.24-8.26-10.24s-8.27,5.23-8.27,10.24,2.53,10.29,8.27,10.29,8.26-5.23,8.26-10.29Z"/>
        <path d="m535.75,12.04h6.07v4.28l.11.11c1.91-3.21,5.23-5.18,9.06-5.18,6.3,0,10.3,3.38,10.3,9.9v19.97h-6.42v-18.28c-.11-4.56-1.91-6.52-5.68-6.52-4.27,0-7.03,3.38-7.03,7.65v17.16h-6.41V12.04Z"/>
        <path d="m592.41,34.65c0,1.58.34,2.19,1.52,2.19.39,0,.9,0,1.58-.11v4.45c-.96.34-2.99.73-4.05.73-2.59,0-4.44-.9-4.96-3.55-2.53,2.48-6.63,3.55-10.07,3.55-5.23,0-9.96-2.81-9.96-8.49,0-7.26,5.8-8.44,11.19-9.06,4.62-.84,8.72-.34,8.72-4.11,0-3.32-3.44-3.94-6.02-3.94-3.6,0-6.13,1.46-6.41,4.61h-6.41c.45-7.48,6.81-9.68,13.22-9.68,5.68,0,11.64,2.31,11.64,8.44v14.97h.01Zm-6.41-8.1c-1.97,1.29-5.07,1.24-7.88,1.75-2.76.45-5.23,1.46-5.23,4.84,0,2.87,3.65,3.71,5.91,3.71,2.81,0,7.2-1.46,7.2-5.51v-4.79Z"/>
        <path d="m599.52.95h6.41v40.16h-6.41V.95Z"/>
        <path d="m629.45.95h19.52c7.2,0,11.93,3.26,11.93,9.96,0,4.05-2.09,6.98-5.74,8.55v.11c4.89,1.07,7.54,4.89,7.54,10.35,0,6.3-4.39,11.19-14.79,11.19h-18.45V.95h-.01Zm7.04,16.83h11.47c3.38,0,5.91-1.97,5.91-5.57,0-4.05-2.08-5.51-5.91-5.51h-11.47v11.08Zm0,17.6h12.43c4.27,0,6.74-2.31,6.74-6.36s-2.47-6.19-6.74-6.19h-12.43v12.55Z"/>
        <path d="m692.53,34.65c0,1.58.34,2.19,1.52,2.19.39,0,.9,0,1.58-.11v4.45c-.96.34-2.99.73-4.05.73-2.59,0-4.44-.9-4.96-3.55-2.53,2.48-6.63,3.55-10.07,3.55-5.23,0-9.96-2.81-9.96-8.49,0-7.26,5.8-8.44,11.19-9.06,4.62-.84,8.72-.34,8.72-4.11,0-3.32-3.44-3.94-6.02-3.94-3.6,0-6.13,1.46-6.41,4.61h-6.41c.45-7.48,6.81-9.68,13.22-9.68,5.68,0,11.64,2.31,11.64,8.44v14.97h.01Zm-6.41-8.1c-1.97,1.29-5.07,1.24-7.88,1.75-2.76.45-5.23,1.46-5.23,4.84,0,2.87,3.66,3.71,5.91,3.71,2.81,0,7.2-1.46,7.2-5.51v-4.79Z"/>
        <path d="m696.54,12.04h4.84V3.32h6.41v8.72h5.79v4.78h-5.79v15.52c0,2.65.23,3.99,3.1,3.99.9,0,1.8,0,2.69-.22v4.95c-1.4.11-2.75.34-4.16.34-6.7,0-7.93-2.59-8.04-7.42v-17.16h-4.84v-4.78Z"/>
        <path d="m715.29,12.04h4.84V3.32h6.41v8.72h5.79v4.78h-5.79v15.52c0,2.65.23,3.99,3.1,3.99.9,0,1.8,0,2.69-.22v4.95c-1.4.11-2.75.34-4.16.34-6.7,0-7.93-2.59-8.04-7.42v-17.16h-4.84v-4.78Z"/>
        <path d="m737.12.95h6.41v40.16h-6.41V.95Z"/>
        <path d="m755.52,28.24c0,4.56,2.47,8.61,7.82,8.61,3.71,0,5.96-1.63,7.08-4.84h6.08c-1.41,6.36-6.81,9.9-13.16,9.9-9.11,0-14.24-6.36-14.24-15.3,0-8.27,5.4-15.36,14.06-15.36,9.17,0,14.79,8.27,13.73,16.99,0,0-21.37,0-21.37,0Zm14.97-4.22c-.23-4.05-2.99-7.71-7.32-7.71s-7.47,3.38-7.65,7.71h14.97Z"/>
        <path d="m778.94,12.04h4.77v-2.42c0-7.42,3.88-8.66,8.05-8.66,2.02,0,3.48.11,4.5.39v5.01c-.84-.22-1.69-.34-2.99-.34-1.74,0-3.15.62-3.15,3.04v2.98h5.46v4.78h-5.46v24.3h-6.41v-24.3h-4.77v-4.78Zm20.75-11.09h6.41v6.08h-6.41V.95Zm0,11.09h6.41v29.08h-6.41V12.04Z"/>
        <path d="m818.1,28.24c0,4.56,2.47,8.61,7.82,8.61,3.71,0,5.96-1.63,7.08-4.84h6.08c-1.41,6.36-6.81,9.9-13.16,9.9-9.11,0-14.24-6.36-14.24-15.3,0-8.27,5.4-15.36,14.06-15.36,9.17,0,14.79,8.27,13.73,16.99,0,0-21.37,0-21.37,0Zm14.97-4.22c-.23-4.05-2.99-7.71-7.32-7.71s-7.47,3.38-7.65,7.71h14.97Z"/>
        <path d="m844.56.95h6.41v40.16h-6.41V.95Z"/>
        <path d="m885.35,41.12h-6.08v-3.94h-.11c-1.69,3.32-5.34,4.72-9,4.72-9.17,0-13.61-6.81-13.61-15.52,0-10.52,6.24-15.13,12.6-15.13,3.66,0,7.7,1.35,9.67,4.56h.12V.95h6.41v40.17h0Zm-14.35-4.28c5.73,0,8.15-5.23,8.15-10.29,0-6.41-3.1-10.24-8.04-10.24-6.02,0-8.15,5.34-8.15,10.58s2.48,9.95,8.04,9.95Z"/>
        <path d="m897.18,31.78c.34,3.71,3.15,5.06,6.59,5.06,2.42,0,6.63-.51,6.47-3.82-.17-3.38-4.84-3.77-9.51-4.84-4.73-1.01-9.33-2.7-9.33-8.61,0-6.36,6.86-8.33,12.15-8.33,5.96,0,11.37,2.48,12.16,8.95h-6.7c-.57-3.04-3.1-3.88-5.91-3.88-1.86,0-5.29.45-5.29,2.98,0,3.15,4.73,3.6,9.44,4.67,4.67,1.07,9.4,2.76,9.4,8.49,0,6.92-6.98,9.45-13,9.45-7.31,0-12.76-3.26-12.88-10.12,0,0,6.41,0,6.41,0Z"/>
        <path d="m313.54,71.65c-1.18-4.61-4.17-7.99-10.01-7.99-8.61,0-12.21,7.59-12.21,15.3s3.6,15.3,12.21,15.3c6.24,0,9.67-4.67,10.23-10.52h6.86c-.56,9.62-7.36,16.26-17.09,16.26-12.04,0-19.24-9.56-19.24-21.04s7.2-21.04,19.24-21.04c9.05.05,16.2,5.06,17.04,13.72h-7.03Z"/>
        <path d="m324.8,84.47c0-8.89,5.35-15.3,14.68-15.3s14.68,6.41,14.68,15.3-5.35,15.36-14.68,15.36-14.68-6.41-14.68-15.36Zm22.96,0c0-5.01-2.54-10.24-8.27-10.24s-8.27,5.23-8.27,10.24,2.54,10.3,8.27,10.3c5.73,0,8.27-5.23,8.27-10.3Z"/>
        <path d="m359.53,69.96h6.07v4.05h.17c1.91-2.87,4.33-4.84,8.94-4.84,3.55,0,6.86,1.52,8.16,4.84,2.13-2.98,4.89-4.84,9.11-4.84,6.14,0,9.74,2.7,9.74,9.79v20.08h-6.41v-16.99c0-4.61-.28-7.82-5.29-7.82-4.32,0-6.18,2.87-6.18,7.76v17.04h-6.41v-18.66c0-3.99-1.24-6.13-5.12-6.13-3.32,0-6.36,2.7-6.36,7.54v17.27h-6.41v-29.09h-.01Z"/>
        <path d="m408.5,69.96h6.07v4.05h.16c1.91-2.87,4.33-4.84,8.95-4.84,3.55,0,6.86,1.52,8.15,4.84,2.13-2.98,4.89-4.84,9.11-4.84,6.13,0,9.73,2.7,9.73,9.79v20.08h-6.41v-16.99c0-4.61-.28-7.82-5.29-7.82-4.33,0-6.19,2.87-6.19,7.76v17.04h-6.41v-18.66c0-3.99-1.24-6.13-5.11-6.13-3.33,0-6.36,2.7-6.36,7.54v17.27h-6.41v-29.09h0Z"/>
        <path d="m457.63,58.88h6.41v6.08h-6.41v-6.08Zm0,11.08h6.41v29.08h-6.41v-29.08Z"/>
        <path d="m475.86,89.71c.34,3.71,3.15,5.06,6.59,5.06,2.42,0,6.63-.51,6.47-3.82-.17-3.38-4.84-3.77-9.51-4.84-4.73-1.02-9.33-2.7-9.33-8.61,0-6.36,6.86-8.33,12.15-8.33,5.96,0,11.37,2.47,12.16,8.95h-6.7c-.57-3.04-3.1-3.88-5.91-3.88-1.86,0-5.29.45-5.29,2.98,0,3.15,4.73,3.6,9.44,4.67,4.67,1.07,9.4,2.76,9.4,8.5,0,6.92-6.98,9.45-13,9.45-7.31,0-12.76-3.26-12.88-10.12h6.41Z"/>
        <path d="m505.07,89.71c.34,3.71,3.15,5.06,6.58,5.06,2.42,0,6.64-.51,6.47-3.82-.16-3.38-4.84-3.77-9.5-4.84-4.73-1.02-9.34-2.7-9.34-8.61,0-6.36,6.86-8.33,12.16-8.33,5.96,0,11.36,2.47,12.15,8.95h-6.7c-.56-3.04-3.09-3.88-5.9-3.88-1.86,0-5.29.45-5.29,2.98,0,3.15,4.73,3.6,9.45,4.67,4.67,1.07,9.39,2.76,9.39,8.5,0,6.92-6.97,9.45-12.99,9.45-7.31,0-12.77-3.26-12.88-10.12h6.4Z"/>
        <path d="m529.61,58.88h6.41v6.08h-6.41v-6.08Zm0,11.08h6.41v29.08h-6.41v-29.08Z"/>
        <path d="m541.65,84.47c0-8.89,5.35-15.3,14.68-15.3s14.68,6.41,14.68,15.3-5.35,15.36-14.68,15.36-14.68-6.41-14.68-15.36Zm22.96,0c0-5.01-2.54-10.24-8.27-10.24s-8.27,5.23-8.27,10.24,2.54,10.3,8.27,10.3,8.27-5.23,8.27-10.3Z"/>
        <path d="m576.38,69.96h6.07v4.27l.12.11c1.91-3.21,5.23-5.18,9.05-5.18,6.3,0,10.3,3.38,10.3,9.9v19.97h-6.41v-18.27c-.11-4.56-1.91-6.53-5.68-6.53-4.28,0-7.04,3.38-7.04,7.65v17.16h-6.41v-29.08h0Z"/>
      </g>
    </g>
  </g>
</svg>