<?xml version="1.0" encoding="UTF-8"?><svg id="Layer_2" xmlns="http://www.w3.org/2000/svg" viewBox="0 0 270.16 14.82"><defs><style>.cls-1{fill:#231f20;}.cls-1,.cls-2{stroke-width:0px;}.cls-2{fill:#ef3829;}</style></defs><g id="Layer_1-2"><path class="cls-2" d="M12.99,9.63c.09,0,.16.07.16.16v.1s-.09,2.18-.09,2.18h.43l-.09-2.18v-.09c0-.09.07-.16.16-.16h.05s2.38.3,2.38.3l-.11-.55c-.11-.56.17-.73.17-.73l2.23-1.72s-.23-.19-.38-.31c-.15-.12-.08-.28-.08-.28l.4-1.42s-.82.15-1.12.22c-.3.07-.42-.1-.42-.1l-.3-.63-1.25,1.16s-.12.07-.18.05c-.1-.03-.16-.13-.13-.23h0s.38-2.58.38-2.58l-.98.43-.96-1.66-.96,1.66-.98-.43.38,2.58h0c.03.1-.03.2-.13.23-.07.02-.14,0-.18-.05l-1.25-1.16-.3.63s-.12.17-.42.1c-.3-.07-1.12-.22-1.12-.22l.39,1.42s.07.16-.08.28c-.15.12-.38.31-.38.31l2.23,1.72s.28.17.17.73l-.11.55,2.4-.31h.06Z"/><rect class="cls-2" x="20.12" y=".3" width="6.42" height="12.94"/><path class="cls-1" d="M38.79.14h.83l2.57,4.17V.14h.67v5.16h-.79l-2.61-4.17v4.17h-.67V.14Z"/><path class="cls-1" d="M45.92,3.02c.15-.02.24-.08.29-.18.03-.06.04-.14.04-.24,0-.22-.08-.37-.23-.47-.15-.1-.37-.15-.66-.15-.33,0-.56.09-.7.27-.08.1-.13.25-.15.44h-.59c.01-.46.16-.79.45-.97.29-.18.62-.27,1.01-.27.44,0,.8.08,1.08.25.27.17.41.43.41.79v2.17c0,.07.01.12.04.16.03.04.08.06.17.06.03,0,.06,0,.09,0,.04,0,.07,0,.11-.02v.47c-.1.03-.17.05-.23.05-.05,0-.12.01-.21.01-.22,0-.38-.08-.47-.23-.05-.08-.09-.2-.11-.35-.13.17-.31.32-.56.44-.24.12-.51.19-.8.19-.35,0-.63-.11-.86-.32-.22-.21-.33-.48-.33-.8,0-.35.11-.62.33-.81.22-.19.5-.31.86-.36l1.01-.13ZM44.6,4.73c.13.11.29.16.47.16.22,0,.44-.05.65-.15.35-.17.53-.45.53-.84v-.51c-.08.05-.18.1-.3.13-.12.03-.24.06-.36.07l-.38.05c-.23.03-.4.08-.52.14-.19.11-.29.29-.29.53,0,.18.07.33.2.43Z"/><path class="cls-1" d="M48.04.49h.64v1.05h.6v.52h-.6v2.45c0,.13.04.22.13.26.05.03.13.04.25.04.03,0,.06,0,.1,0,.04,0,.08,0,.12-.01v.51c-.07.02-.15.04-.23.05-.08,0-.16.01-.25.01-.29,0-.49-.08-.6-.23-.11-.15-.16-.35-.16-.59v-2.49h-.51v-.52h.51V.49Z"/><path class="cls-1" d="M50.55,1.54v2.5c0,.19.03.35.09.47.11.23.31.34.61.34.43,0,.72-.2.88-.59.08-.21.13-.5.13-.87v-1.85h.64v3.77h-.6v-.55c-.07.14-.17.26-.29.36-.24.2-.52.29-.86.29-.53,0-.89-.18-1.08-.54-.1-.19-.16-.45-.16-.77V1.54h.65Z"/><path class="cls-1" d="M53.94,1.54h.6v.66c.05-.13.17-.28.36-.46.19-.18.41-.27.66-.27.01,0,.03,0,.06,0,.03,0,.08,0,.14.01v.67s-.07-.01-.1-.01c-.03,0-.07,0-.1,0-.32,0-.56.1-.73.31-.17.21-.26.44-.26.71v2.16h-.64V1.54Z"/><path class="cls-1" d="M58.33,3.02c.15-.02.24-.08.29-.18.03-.06.04-.14.04-.24,0-.22-.08-.37-.23-.47-.15-.1-.37-.15-.66-.15-.33,0-.56.09-.7.27-.08.1-.13.25-.15.44h-.59c.01-.46.16-.79.45-.97.29-.18.62-.27,1.01-.27.44,0,.8.08,1.08.25.27.17.41.43.41.79v2.17c0,.07.01.12.04.16.03.04.08.06.17.06.03,0,.06,0,.09,0,.04,0,.07,0,.11-.02v.47c-.1.03-.17.05-.23.05-.05,0-.12.01-.21.01-.22,0-.38-.08-.47-.23-.05-.08-.09-.2-.11-.35-.13.17-.31.32-.56.44-.24.12-.51.19-.8.19-.35,0-.63-.11-.86-.32-.22-.21-.33-.48-.33-.8,0-.35.11-.62.33-.81.22-.19.5-.31.86-.36l1.01-.13ZM57,4.73c.13.11.29.16.47.16.22,0,.44-.05.65-.15.35-.17.53-.45.53-.84v-.51c-.08.05-.18.1-.3.13-.12.03-.24.06-.36.07l-.38.05c-.23.03-.4.08-.52.14-.19.11-.29.29-.29.53,0,.18.07.33.2.43Z"/><path class="cls-1" d="M60.34.14h.64v5.16h-.64V.14Z"/><path class="cls-1" d="M64.47,3.64c.02.29.08.53.2.71.22.34.62.51,1.18.51.25,0,.48-.04.69-.11.4-.14.6-.4.6-.78,0-.28-.09-.48-.26-.6-.17-.12-.44-.22-.81-.31l-.68-.16c-.44-.1-.76-.22-.94-.34-.32-.22-.48-.54-.48-.97,0-.47.16-.85.47-1.14.31-.3.75-.45,1.33-.45.53,0,.97.13,1.34.39.37.26.55.68.55,1.26h-.66c-.03-.28-.11-.49-.22-.64-.2-.27-.55-.4-1.04-.4-.4,0-.68.09-.85.26-.17.17-.26.37-.26.6,0,.25.1.44.31.55.13.08.44.17.91.28l.7.17c.34.08.6.19.78.33.32.24.48.59.48,1.05,0,.57-.2.98-.61,1.23-.41.25-.88.37-1.42.37-.63,0-1.12-.16-1.47-.49-.35-.33-.53-.77-.52-1.33h.66Z"/><path class="cls-1" d="M71.21,1.74c.27.21.43.56.48,1.06h-.61c-.04-.23-.12-.42-.26-.58-.13-.15-.35-.23-.64-.23-.4,0-.69.2-.87.59-.11.25-.17.57-.17.94s.08.69.24.95c.16.26.41.39.75.39.26,0,.47-.08.62-.24.15-.16.26-.38.32-.66h.61c-.07.5-.25.86-.53,1.09-.28.23-.64.35-1.08.35-.49,0-.88-.18-1.18-.54-.29-.36-.44-.81-.44-1.35,0-.66.16-1.18.48-1.54.32-.37.73-.55,1.23-.55.42,0,.77.1,1.04.31Z"/><path class="cls-1" d="M72.32.14h.64v.72h-.64V.14ZM72.32,1.56h.64v3.75h-.64V1.56Z"/><path class="cls-1" d="M76.25,1.65c.25.13.44.29.57.49.13.19.21.41.25.67.04.17.06.45.06.83h-2.74c.01.38.1.69.27.92.17.23.43.35.78.35.33,0,.59-.11.79-.33.11-.13.19-.27.23-.44h.62c-.02.14-.07.29-.16.46-.09.17-.2.31-.31.41-.19.19-.43.31-.71.38-.15.04-.32.06-.51.06-.47,0-.86-.17-1.19-.51-.32-.34-.49-.82-.49-1.43s.16-1.1.49-1.47c.33-.38.75-.57,1.28-.57.27,0,.52.06.77.19ZM76.48,3.13c-.03-.28-.08-.5-.18-.66-.17-.31-.46-.46-.86-.46-.29,0-.53.11-.72.32-.19.21-.3.48-.31.81h2.07Z"/><path class="cls-1" d="M77.93,1.54h.6v.54c.18-.22.37-.38.57-.47.2-.1.42-.14.67-.14.53,0,.9.19,1.08.56.1.2.15.5.15.88v2.41h-.64v-2.37c0-.23-.03-.41-.1-.56-.11-.23-.32-.35-.61-.35-.15,0-.27.02-.37.05-.17.05-.33.15-.46.31-.11.12-.17.25-.21.38-.03.13-.05.32-.05.57v1.97h-.64V1.54Z"/><path class="cls-1" d="M84.42,1.74c.27.21.43.56.48,1.06h-.61c-.04-.23-.12-.42-.26-.58-.13-.15-.35-.23-.64-.23-.4,0-.69.2-.87.59-.11.25-.17.57-.17.94s.08.69.24.95c.16.26.41.39.75.39.26,0,.47-.08.62-.24.15-.16.26-.38.32-.66h.61c-.07.5-.25.86-.53,1.09-.28.23-.64.35-1.08.35-.49,0-.88-.18-1.18-.54-.29-.36-.44-.81-.44-1.35,0-.66.16-1.18.48-1.54.32-.37.73-.55,1.23-.55.42,0,.77.1,1.04.31Z"/><path class="cls-1" d="M87.86,1.65c.25.13.44.29.57.49.13.19.21.41.25.67.04.17.06.45.06.83h-2.74c.01.38.1.69.27.92.17.23.43.35.78.35.33,0,.59-.11.79-.33.11-.13.19-.27.23-.44h.62c-.02.14-.07.29-.16.46-.09.17-.2.31-.31.41-.19.19-.43.31-.71.38-.15.04-.32.06-.51.06-.47,0-.86-.17-1.19-.51-.32-.34-.49-.82-.49-1.43s.16-1.1.49-1.47c.33-.38.75-.57,1.28-.57.27,0,.52.06.77.19ZM88.09,3.13c-.03-.28-.08-.5-.18-.66-.17-.31-.46-.46-.86-.46-.29,0-.53.11-.72.32-.19.21-.3.48-.31.81h2.07Z"/><path class="cls-1" d="M89.92,4.12c.02.21.07.37.16.49.16.2.45.31.85.31.24,0,.45-.05.63-.15.18-.1.27-.26.27-.47,0-.16-.07-.29-.22-.37-.09-.05-.28-.11-.55-.18l-.51-.13c-.33-.08-.57-.17-.72-.27-.28-.17-.42-.41-.42-.71,0-.36.13-.65.39-.87.26-.22.61-.33,1.05-.33.57,0,.99.17,1.24.5.16.21.24.44.23.68h-.6c-.01-.14-.06-.27-.15-.39-.15-.16-.41-.25-.77-.25-.25,0-.43.05-.56.14-.13.09-.19.21-.19.36,0,.16.08.29.25.39.1.06.24.11.42.15l.43.1c.46.11.78.22.93.32.25.16.37.42.37.76s-.13.63-.39.87c-.26.24-.65.37-1.18.37-.57,0-.97-.13-1.21-.38-.24-.25-.36-.57-.38-.95h.61Z"/><path class="cls-1" d="M97.16,3.02c.15-.02.24-.08.29-.18.03-.06.04-.14.04-.24,0-.22-.08-.37-.23-.47-.15-.1-.37-.15-.66-.15-.33,0-.56.09-.7.27-.08.1-.13.25-.15.44h-.59c.01-.46.16-.79.45-.97.29-.18.62-.27,1.01-.27.44,0,.8.08,1.08.25.27.17.41.43.41.79v2.17c0,.07.01.12.04.16.03.04.08.06.17.06.03,0,.06,0,.09,0,.04,0,.07,0,.11-.02v.47c-.1.03-.17.05-.23.05-.05,0-.12.01-.21.01-.22,0-.38-.08-.47-.23-.05-.08-.09-.2-.11-.35-.13.17-.31.32-.56.44-.24.12-.51.19-.8.19-.35,0-.63-.11-.86-.32-.22-.21-.33-.48-.33-.8,0-.35.11-.62.33-.81.22-.19.5-.31.86-.36l1.01-.13ZM95.83,4.73c.13.11.29.16.47.16.22,0,.44-.05.65-.15.35-.17.53-.45.53-.84v-.51c-.08.05-.18.1-.3.13-.12.03-.24.06-.36.07l-.38.05c-.23.03-.4.08-.52.14-.19.11-.29.29-.29.53,0,.18.07.33.2.43Z"/><path class="cls-1" d="M99.15,1.54h.6v.54c.18-.22.37-.38.57-.47.2-.1.42-.14.67-.14.54,0,.9.19,1.08.56.1.2.15.5.15.88v2.41h-.64v-2.37c0-.23-.03-.41-.1-.56-.11-.23-.32-.35-.61-.35-.15,0-.27.02-.37.05-.17.05-.33.15-.46.31-.11.12-.17.25-.21.38-.03.13-.05.32-.05.57v1.97h-.64V1.54Z"/><path class="cls-1" d="M105.22,1.65c.11.07.24.19.38.36V.13h.61v5.18h-.57v-.52c-.15.23-.32.4-.52.5-.2.1-.43.15-.69.15-.42,0-.78-.18-1.09-.53-.31-.35-.46-.82-.46-1.41,0-.55.14-1.02.42-1.43.28-.4.68-.6,1.2-.6.29,0,.53.06.72.18ZM103.81,4.48c.17.27.44.41.82.41.29,0,.53-.13.72-.38.19-.25.28-.62.28-1.09s-.1-.83-.29-1.06c-.19-.23-.43-.34-.72-.34-.32,0-.57.12-.77.37-.2.24-.29.61-.29,1.08,0,.41.09.74.25,1.02Z"/><path class="cls-1" d="M109.31.14h3.75v.64h-3.07v1.56h2.84v.6h-2.84v1.76h3.12v.61h-3.8V.14Z"/><path class="cls-1" d="M113.96,1.54h.6v.54c.18-.22.37-.38.57-.47.2-.1.42-.14.66-.14.54,0,.9.19,1.08.56.1.2.15.5.15.88v2.41h-.64v-2.37c0-.23-.03-.41-.1-.56-.11-.23-.32-.35-.61-.35-.15,0-.27.02-.37.05-.17.05-.33.15-.46.31-.11.12-.17.25-.21.38-.03.13-.05.32-.05.57v1.97h-.64V1.54Z"/><path class="cls-1" d="M120.06,1.69c.12.08.24.2.36.36v-.47h.58v3.42c0,.48-.07.86-.21,1.13-.26.51-.76.77-1.48.77-.4,0-.74-.09-1.02-.27-.28-.18-.43-.47-.46-.85h.64c.03.17.09.3.18.39.14.14.37.21.67.21.48,0,.8-.17.95-.51.09-.2.13-.56.12-1.08-.13.19-.28.34-.46.43-.18.09-.41.14-.71.14-.41,0-.76-.14-1.07-.43-.31-.29-.46-.77-.46-1.44,0-.63.15-1.12.46-1.48.31-.35.68-.53,1.11-.53.29,0,.55.07.77.22ZM120.14,2.37c-.19-.23-.44-.34-.73-.34-.44,0-.75.21-.91.63-.09.22-.13.51-.13.88,0,.42.09.75.26.97.17.22.4.33.69.33.45,0,.77-.21.96-.62.1-.23.15-.5.15-.81,0-.47-.1-.81-.29-1.04Z"/><path class="cls-1" d="M121.97.14h.64v.72h-.64V.14ZM121.97,1.56h.64v3.75h-.64V1.56Z"/><path class="cls-1" d="M123.57,1.54h.6v.54c.18-.22.37-.38.57-.47.2-.1.42-.14.67-.14.53,0,.9.19,1.08.56.1.2.15.5.15.88v2.41h-.64v-2.37c0-.23-.03-.41-.1-.56-.11-.23-.32-.35-.61-.35-.15,0-.27.02-.37.05-.17.05-.33.15-.46.31-.11.12-.17.25-.21.38-.03.13-.05.32-.05.57v1.97h-.64V1.54Z"/><path class="cls-1" d="M129.9,1.65c.25.13.44.29.57.49.13.19.21.41.25.67.04.17.06.45.06.83h-2.74c.01.38.1.69.27.92.17.23.43.35.78.35.33,0,.59-.11.79-.33.11-.13.19-.27.23-.44h.62c-.02.14-.07.29-.16.46-.09.17-.2.31-.31.41-.19.19-.43.31-.71.38-.15.04-.32.06-.51.06-.47,0-.86-.17-1.19-.51-.32-.34-.49-.82-.49-1.43s.16-1.1.49-1.47c.33-.38.75-.57,1.28-.57.27,0,.52.06.77.19ZM130.13,3.13c-.03-.28-.08-.5-.18-.66-.17-.31-.46-.46-.86-.46-.29,0-.53.11-.72.32-.19.21-.3.48-.31.81h2.07Z"/><path class="cls-1" d="M133.91,1.65c.25.13.44.29.57.49.13.19.21.41.25.67.04.17.06.45.06.83h-2.74c.01.38.1.69.27.92.17.23.43.35.78.35.33,0,.59-.11.79-.33.11-.13.19-.27.23-.44h.62c-.02.14-.07.29-.16.46-.09.17-.2.31-.31.41-.19.19-.43.31-.71.38-.15.04-.32.06-.51.06-.47,0-.86-.17-1.19-.51-.32-.34-.49-.82-.49-1.43s.16-1.1.49-1.47c.33-.38.75-.57,1.28-.57.27,0,.52.06.77.19ZM134.13,3.13c-.03-.28-.08-.5-.18-.66-.17-.31-.46-.46-.86-.46-.29,0-.53.11-.72.32-.19.21-.3.48-.31.81h2.07Z"/><path class="cls-1" d="M135.61,1.54h.6v.66c.05-.13.17-.28.36-.46.19-.18.41-.27.66-.27.01,0,.03,0,.06,0,.03,0,.08,0,.14.01v.67s-.07-.01-.1-.01c-.03,0-.07,0-.1,0-.32,0-.56.1-.73.31-.17.21-.25.44-.25.71v2.16h-.64V1.54Z"/><path class="cls-1" d="M137.98.14h.64v.72h-.64V.14ZM137.98,1.56h.64v3.75h-.64V1.56Z"/><path class="cls-1" d="M139.58,1.54h.6v.54c.18-.22.37-.38.57-.47.2-.1.42-.14.67-.14.53,0,.9.19,1.08.56.1.2.15.5.15.88v2.41h-.64v-2.37c0-.23-.03-.41-.1-.56-.11-.23-.32-.35-.61-.35-.15,0-.27.02-.37.05-.17.05-.33.15-.46.31-.11.12-.17.25-.21.38-.03.13-.05.32-.05.57v1.97h-.64V1.54Z"/><path class="cls-1" d="M145.68,1.69c.12.08.24.2.36.36v-.47h.59v3.42c0,.48-.07.86-.21,1.13-.26.51-.76.77-1.48.77-.41,0-.75-.09-1.02-.27-.28-.18-.43-.47-.46-.85h.64c.03.17.09.3.18.39.14.14.37.21.67.21.48,0,.8-.17.95-.51.09-.2.13-.56.12-1.08-.13.19-.28.34-.46.43-.18.09-.41.14-.71.14-.41,0-.76-.14-1.07-.43-.31-.29-.46-.77-.46-1.44,0-.63.15-1.12.46-1.48.31-.35.68-.53,1.11-.53.29,0,.55.07.77.22ZM145.76,2.37c-.19-.23-.44-.34-.73-.34-.44,0-.75.21-.91.63-.09.22-.13.51-.13.88,0,.42.09.75.26.97.17.22.4.33.69.33.45,0,.77-.21.96-.62.1-.23.15-.5.15-.81,0-.47-.1-.81-.29-1.04Z"/><path class="cls-1" d="M38.88,8.06h2.34c.39,0,.7.06.95.17.48.22.71.63.71,1.22,0,.31-.06.56-.19.76-.13.2-.31.35-.54.47.2.08.35.19.46.32.1.13.16.35.17.65l.02.69c0,.2.02.34.05.44.04.16.12.27.23.32v.12h-.86s-.04-.1-.06-.17c-.01-.07-.03-.21-.04-.41l-.04-.86c-.02-.34-.14-.56-.36-.68-.13-.06-.33-.09-.61-.09h-1.54v2.21h-.7v-5.17ZM41.14,10.43c.32,0,.57-.07.75-.2.19-.13.28-.37.28-.71,0-.37-.13-.62-.39-.75-.14-.07-.32-.11-.55-.11h-1.66v1.77h1.57Z"/><path class="cls-1" d="M46.23,9.57c.25.13.44.29.57.49.13.19.21.41.25.67.04.17.06.45.06.83h-2.74c.01.38.1.69.27.92.17.23.43.35.78.35.33,0,.59-.11.79-.33.11-.13.19-.27.23-.44h.62c-.02.14-.07.29-.16.46-.09.17-.2.31-.31.42-.19.19-.43.31-.71.38-.15.04-.32.06-.51.06-.47,0-.86-.17-1.19-.51-.32-.34-.49-.82-.49-1.43s.16-1.1.49-1.47c.33-.38.75-.57,1.28-.57.27,0,.52.06.77.19ZM46.46,11.05c-.03-.28-.09-.5-.18-.66-.17-.31-.46-.46-.86-.46-.29,0-.53.11-.72.32-.19.21-.3.48-.31.81h2.07Z"/><path class="cls-1" d="M48.29,12.04c.02.21.07.37.16.49.16.2.45.31.85.31.24,0,.45-.05.63-.15.18-.1.27-.26.27-.47,0-.16-.07-.29-.22-.37-.09-.05-.28-.11-.55-.18l-.51-.13c-.33-.08-.57-.17-.72-.27-.28-.17-.42-.41-.42-.71,0-.36.13-.64.39-.87.26-.22.61-.33,1.05-.33.57,0,.99.17,1.24.5.16.21.24.44.23.68h-.6c-.01-.14-.06-.27-.15-.39-.15-.16-.41-.25-.77-.25-.25,0-.43.05-.56.14-.13.09-.19.21-.19.36,0,.16.08.29.25.39.1.06.24.11.42.15l.43.1c.46.11.78.22.93.32.25.16.37.42.37.76s-.13.62-.39.87c-.26.24-.65.37-1.18.37-.57,0-.97-.13-1.21-.38-.24-.25-.36-.57-.38-.95h.61Z"/><path class="cls-1" d="M53.84,9.57c.25.13.44.29.57.49.13.19.21.41.25.67.04.17.06.45.06.83h-2.74c.01.38.1.69.27.92.17.23.43.35.78.35.33,0,.59-.11.79-.33.11-.13.19-.27.23-.44h.62c-.02.14-.07.29-.16.46-.09.17-.2.31-.31.42-.19.19-.43.31-.71.38-.15.04-.32.06-.51.06-.47,0-.86-.17-1.19-.51-.32-.34-.49-.82-.49-1.43s.16-1.1.49-1.47c.33-.38.75-.57,1.28-.57.27,0,.52.06.77.19ZM54.07,11.05c-.03-.28-.09-.5-.18-.66-.17-.31-.46-.46-.86-.46-.29,0-.53.11-.72.32-.19.21-.3.48-.31.81h2.07Z"/><path class="cls-1" d="M57.53,10.94c.15-.02.24-.08.29-.18.03-.06.04-.14.04-.24,0-.22-.08-.37-.23-.47-.15-.1-.37-.15-.66-.15-.33,0-.56.09-.7.27-.08.1-.13.25-.15.44h-.59c.01-.46.16-.79.45-.97.29-.18.62-.27,1.01-.27.44,0,.8.08,1.08.25.27.17.41.43.41.79v2.17c0,.07.01.12.04.16.03.04.08.06.17.06.03,0,.06,0,.09,0,.04,0,.07,0,.11-.01v.47c-.1.03-.17.04-.23.05-.05,0-.12,0-.21,0-.22,0-.38-.08-.47-.23-.05-.08-.09-.2-.11-.35-.13.17-.31.32-.56.44-.24.13-.51.19-.8.19-.35,0-.63-.11-.86-.32s-.33-.48-.33-.8c0-.35.11-.62.33-.81.22-.19.5-.31.86-.36l1.01-.13ZM56.21,12.65c.13.11.29.16.47.16.22,0,.44-.05.65-.15.35-.17.53-.45.53-.84v-.51c-.08.05-.18.09-.3.13-.12.03-.24.06-.36.07l-.38.05c-.23.03-.4.08-.52.14-.19.11-.29.28-.29.53,0,.18.07.33.2.43Z"/><path class="cls-1" d="M59.54,9.46h.6v.66c.05-.13.17-.28.36-.46.19-.18.41-.27.66-.27.01,0,.03,0,.06,0,.03,0,.08,0,.14.01v.67s-.07-.01-.1-.01c-.03,0-.07,0-.1,0-.32,0-.56.1-.73.31-.17.21-.26.44-.26.71v2.16h-.64v-3.77Z"/><path class="cls-1" d="M64.41,9.66c.27.21.43.56.48,1.06h-.61c-.04-.23-.12-.42-.26-.58-.13-.15-.35-.23-.64-.23-.4,0-.69.2-.87.59-.11.25-.17.57-.17.94s.08.69.24.95c.16.26.41.38.75.38.26,0,.47-.08.62-.24.15-.16.26-.38.32-.66h.61c-.07.5-.25.86-.53,1.09-.28.23-.64.35-1.08.35-.49,0-.88-.18-1.18-.54-.29-.36-.44-.81-.44-1.35,0-.66.16-1.18.48-1.54.32-.37.73-.55,1.23-.55.42,0,.77.1,1.04.31Z"/><path class="cls-1" d="M65.52,8.05h.64v1.92c.15-.19.29-.33.4-.4.2-.13.46-.2.76-.2.55,0,.92.19,1.11.57.11.21.16.5.16.87v2.42h-.65v-2.37c0-.28-.04-.48-.11-.61-.12-.21-.33-.31-.65-.31-.26,0-.5.09-.71.27-.21.18-.32.52-.32,1.02v2h-.64v-5.18Z"/><path class="cls-1" d="M75.27,8.44c.36.34.56.74.59,1.18h-.68c-.08-.33-.23-.6-.45-.79-.23-.19-.55-.29-.96-.29-.5,0-.9.18-1.21.54-.31.36-.46.91-.46,1.64,0,.61.14,1.1.42,1.47.28.38.69.56,1.24.56.51,0,.89-.2,1.16-.59.14-.21.25-.48.31-.82h.68c-.06.54-.26,1-.6,1.37-.41.44-.95.66-1.64.66-.59,0-1.09-.18-1.49-.54-.53-.48-.8-1.22-.8-2.23,0-.76.2-1.39.6-1.88.43-.53,1.03-.79,1.79-.79.65,0,1.15.17,1.51.52Z"/><path class="cls-1" d="M79.46,9.84c.33.32.5.8.5,1.43s-.15,1.11-.44,1.5c-.29.4-.75.59-1.36.59-.51,0-.92-.17-1.22-.53-.3-.35-.45-.82-.45-1.41,0-.63.16-1.14.48-1.51.32-.38.75-.56,1.28-.56.48,0,.89.16,1.22.48ZM79.06,12.34c.15-.32.23-.67.23-1.06,0-.35-.06-.64-.17-.86-.18-.35-.48-.52-.91-.52-.38,0-.66.15-.83.44s-.26.65-.26,1.07.09.74.26,1c.17.27.45.4.82.4.41,0,.7-.16.85-.48Z"/><path class="cls-1" d="M81.37,9.46v2.5c0,.19.03.35.09.47.11.22.31.34.61.34.43,0,.72-.2.88-.59.08-.21.13-.5.13-.87v-1.85h.64v3.77h-.6v-.55c-.07.14-.17.26-.29.36-.24.2-.52.29-.86.29-.53,0-.88-.18-1.08-.54-.1-.19-.15-.45-.15-.77v-2.56h.65Z"/><path class="cls-1" d="M84.74,9.46h.6v.54c.18-.22.37-.38.57-.47.2-.1.42-.14.67-.14.53,0,.9.19,1.08.56.1.2.15.5.15.88v2.41h-.64v-2.37c0-.23-.03-.42-.1-.56-.11-.23-.32-.35-.61-.35-.15,0-.27.02-.37.05-.17.05-.33.15-.46.31-.11.12-.17.25-.21.38-.03.13-.05.32-.05.57v1.97h-.64v-3.77Z"/><path class="cls-1" d="M91.23,9.66c.27.21.43.56.48,1.06h-.61c-.04-.23-.12-.42-.26-.58-.13-.15-.35-.23-.64-.23-.4,0-.69.2-.87.59-.11.25-.17.57-.17.94s.08.69.24.95c.16.26.41.38.75.38.26,0,.47-.08.62-.24.15-.16.26-.38.32-.66h.61c-.07.5-.25.86-.53,1.09-.28.23-.64.35-1.08.35-.49,0-.88-.18-1.18-.54-.29-.36-.44-.81-.44-1.35,0-.66.16-1.18.48-1.54.32-.37.73-.55,1.23-.55.42,0,.77.1,1.04.31Z"/><path class="cls-1" d="M92.34,8.06h.64v.72h-.64v-.72ZM92.34,9.48h.64v3.75h-.64v-3.75Z"/><path class="cls-1" d="M93.96,8.06h.64v5.17h-.64v-5.17Z"/><path class="cls-1" d="M100.27,9.84c.33.32.5.8.5,1.43s-.15,1.11-.44,1.5c-.29.4-.75.59-1.36.59-.51,0-.92-.17-1.22-.53-.3-.35-.45-.82-.45-1.41,0-.63.16-1.14.48-1.51.32-.38.75-.56,1.28-.56.48,0,.89.16,1.22.48ZM99.88,12.34c.15-.32.23-.67.23-1.06,0-.35-.06-.64-.17-.86-.18-.35-.48-.52-.91-.52-.38,0-.66.15-.83.44-.17.3-.26.65-.26,1.07s.09.74.26,1c.17.27.45.4.82.4.41,0,.7-.16.85-.48Z"/><path class="cls-1" d="M101.85,8.32c.15-.21.43-.32.85-.32.04,0,.08,0,.12,0,.04,0,.09,0,.14.01v.58c-.07,0-.11-.01-.14-.01-.03,0-.06,0-.08,0-.19,0-.31.05-.34.15-.04.1-.06.35-.06.76h.62v.5h-.62v3.25h-.64v-3.25h-.52v-.5h.52v-.59c0-.26.06-.45.14-.57Z"/><path class="cls-1" d="M109.29,8.44c.36.34.56.74.59,1.18h-.68c-.08-.33-.23-.6-.45-.79-.23-.19-.55-.29-.96-.29-.5,0-.9.18-1.21.54-.31.36-.46.91-.46,1.64,0,.61.14,1.1.42,1.47.28.38.69.56,1.24.56.51,0,.89-.2,1.16-.59.14-.21.24-.48.31-.82h.68c-.06.54-.26,1-.6,1.37-.41.44-.95.66-1.64.66-.59,0-1.09-.18-1.49-.54-.53-.48-.8-1.22-.8-2.23,0-.76.2-1.39.6-1.88.43-.53,1.03-.79,1.79-.79.65,0,1.15.17,1.51.52Z"/><path class="cls-1" d="M112.77,10.94c.14-.02.24-.08.29-.18.03-.06.04-.14.04-.24,0-.22-.08-.37-.23-.47-.15-.1-.37-.15-.66-.15-.33,0-.56.09-.7.27-.08.1-.13.25-.15.44h-.59c.01-.46.16-.79.45-.97.29-.18.62-.27,1.01-.27.44,0,.8.08,1.08.25.27.17.41.43.41.79v2.17c0,.07.01.12.04.16.03.04.08.06.17.06.03,0,.06,0,.09,0,.04,0,.07,0,.11-.01v.47c-.1.03-.17.04-.23.05-.05,0-.12,0-.21,0-.22,0-.38-.08-.47-.23-.05-.08-.09-.2-.11-.35-.13.17-.31.32-.56.44-.24.13-.51.19-.8.19-.35,0-.63-.11-.86-.32-.22-.21-.33-.48-.33-.8,0-.35.11-.62.33-.81.22-.19.5-.31.86-.36l1.01-.13ZM111.44,12.65c.13.11.29.16.47.16.22,0,.44-.05.65-.15.35-.17.53-.45.53-.84v-.51c-.08.05-.18.09-.3.13-.12.03-.24.06-.36.07l-.38.05c-.23.03-.4.08-.52.14-.19.11-.29.28-.29.53,0,.18.07.33.2.43Z"/><path class="cls-1" d="M114.75,9.46h.6v.54c.18-.22.37-.38.57-.47.2-.1.42-.14.66-.14.54,0,.9.19,1.08.56.1.2.15.5.15.88v2.41h-.64v-2.37c0-.23-.03-.42-.1-.56-.11-.23-.32-.35-.61-.35-.15,0-.27.02-.37.05-.17.05-.33.15-.46.31-.11.12-.17.25-.21.38-.03.13-.05.32-.05.57v1.97h-.64v-3.77Z"/><path class="cls-1" d="M120.78,10.94c.15-.02.24-.08.29-.18.03-.06.04-.14.04-.24,0-.22-.08-.37-.23-.47-.15-.1-.37-.15-.66-.15-.33,0-.56.09-.7.27-.08.1-.13.25-.15.44h-.59c.01-.46.16-.79.45-.97.29-.18.62-.27,1.01-.27.44,0,.8.08,1.08.25.27.17.41.43.41.79v2.17c0,.07.01.12.04.16.03.04.08.06.17.06.03,0,.06,0,.09,0,.04,0,.07,0,.11-.01v.47c-.1.03-.17.04-.23.05-.05,0-.12,0-.21,0-.22,0-.38-.08-.47-.23-.05-.08-.09-.2-.11-.35-.13.17-.31.32-.56.44-.24.13-.51.19-.8.19-.35,0-.63-.11-.86-.32-.22-.21-.33-.48-.33-.8,0-.35.11-.62.33-.81.22-.19.5-.31.86-.36l1.01-.13ZM119.45,12.65c.13.11.29.16.47.16.22,0,.44-.05.65-.15.35-.17.53-.45.53-.84v-.51c-.08.05-.18.09-.3.13-.12.03-.24.06-.36.07l-.38.05c-.23.03-.4.08-.52.14-.19.11-.29.28-.29.53,0,.18.07.33.2.43Z"/><path class="cls-1" d="M124.83,9.58c.11.07.24.19.38.36v-1.89h.61v5.18h-.57v-.52c-.15.23-.32.4-.52.5-.2.1-.43.15-.69.15-.42,0-.78-.18-1.09-.53-.31-.35-.46-.82-.46-1.41,0-.55.14-1.02.42-1.43.28-.4.68-.6,1.2-.6.29,0,.53.06.72.18ZM123.42,12.41c.17.27.44.41.82.41.29,0,.53-.13.72-.38.19-.25.28-.62.28-1.09s-.1-.83-.29-1.06c-.19-.23-.43-.34-.72-.34-.32,0-.57.12-.77.37-.2.25-.29.61-.29,1.08,0,.41.08.74.25,1.02Z"/><path class="cls-1" d="M128.79,10.94c.15-.02.24-.08.29-.18.03-.06.04-.14.04-.24,0-.22-.08-.37-.23-.47-.15-.1-.37-.15-.66-.15-.33,0-.56.09-.7.27-.08.1-.13.25-.15.44h-.59c.01-.46.16-.79.45-.97.29-.18.63-.27,1.01-.27.44,0,.8.08,1.08.25.27.17.41.43.41.79v2.17c0,.07.01.12.04.16.03.04.08.06.17.06.03,0,.06,0,.09,0,.04,0,.07,0,.11-.01v.47c-.1.03-.17.04-.23.05-.05,0-.12,0-.21,0-.22,0-.38-.08-.47-.23-.05-.08-.09-.2-.11-.35-.13.17-.31.32-.56.44-.24.13-.51.19-.8.19-.35,0-.63-.11-.86-.32-.22-.21-.33-.48-.33-.8,0-.35.11-.62.33-.81.22-.19.5-.31.86-.36l1.01-.13ZM127.46,12.65c.13.11.29.16.47.16.22,0,.44-.05.65-.15.35-.17.53-.45.53-.84v-.51c-.08.05-.18.09-.3.13-.12.03-.24.06-.36.07l-.38.05c-.23.03-.4.08-.52.14-.19.11-.29.28-.29.53,0,.18.07.33.2.43Z"/><path class="cls-1" d="M162.91.52c.36.34.56.74.59,1.18h-.68c-.08-.33-.23-.6-.45-.79-.23-.19-.55-.29-.96-.29-.5,0-.9.18-1.21.54-.31.36-.46.91-.46,1.64,0,.6.14,1.09.42,1.47.28.38.69.56,1.24.56.51,0,.89-.2,1.16-.59.14-.21.25-.48.31-.82h.68c-.06.54-.26,1-.6,1.37-.41.44-.95.66-1.64.66-.59,0-1.09-.18-1.49-.54-.53-.48-.8-1.22-.8-2.23,0-.76.2-1.39.6-1.88.43-.53,1.03-.79,1.78-.79.65,0,1.15.17,1.51.52Z"/><path class="cls-1" d="M167.09,1.91c.33.32.5.8.5,1.43s-.15,1.11-.44,1.5c-.29.4-.75.59-1.36.59-.51,0-.92-.17-1.23-.53-.3-.35-.45-.82-.45-1.41,0-.63.16-1.14.48-1.51.32-.38.75-.56,1.28-.56.48,0,.89.16,1.22.49ZM166.7,4.42c.15-.32.23-.67.23-1.06,0-.35-.06-.64-.17-.86-.17-.35-.48-.52-.91-.52-.38,0-.66.15-.83.44-.17.3-.26.65-.26,1.07s.09.74.26,1c.17.27.45.4.82.4.41,0,.7-.16.85-.48Z"/><path class="cls-1" d="M168.37,1.54h.6v.54c.18-.22.37-.38.57-.47.2-.1.42-.14.67-.14.53,0,.9.19,1.08.56.1.2.15.5.15.88v2.41h-.64v-2.37c0-.23-.03-.41-.1-.56-.11-.23-.32-.35-.61-.35-.15,0-.27.02-.37.05-.17.05-.33.15-.46.31-.11.12-.17.25-.21.38-.03.13-.05.32-.05.57v1.97h-.64V1.54Z"/><path class="cls-1" d="M172.75,4.12c.02.21.07.37.16.49.16.2.45.31.85.31.24,0,.45-.05.63-.15.18-.1.27-.26.27-.47,0-.16-.07-.29-.22-.37-.09-.05-.28-.11-.55-.18l-.51-.13c-.33-.08-.57-.17-.72-.27-.28-.17-.42-.41-.42-.71,0-.36.13-.65.39-.87.26-.22.61-.33,1.05-.33.58,0,.99.17,1.24.5.16.21.24.44.23.68h-.6c-.01-.14-.06-.27-.16-.39-.15-.16-.41-.25-.77-.25-.24,0-.43.05-.56.14-.12.09-.19.21-.19.36,0,.16.08.29.25.39.1.06.24.11.42.15l.43.1c.46.11.77.22.93.32.25.16.37.42.37.76s-.13.63-.39.87c-.26.24-.65.37-1.18.37-.57,0-.97-.13-1.2-.38-.24-.25-.36-.57-.38-.95h.61Z"/><path class="cls-1" d="M178.3,1.65c.25.13.44.29.57.49.12.19.21.41.25.67.04.17.06.45.06.83h-2.74c.01.38.1.69.27.92.17.23.43.35.78.35.33,0,.59-.11.78-.33.11-.13.19-.27.23-.44h.62c-.02.14-.07.29-.16.46-.09.17-.2.31-.31.41-.19.19-.43.31-.71.38-.15.04-.32.06-.51.06-.47,0-.86-.17-1.19-.51-.32-.34-.49-.82-.49-1.43s.16-1.1.49-1.47c.33-.38.75-.57,1.28-.57.27,0,.52.06.77.19ZM178.53,3.13c-.03-.28-.08-.5-.18-.66-.17-.31-.46-.46-.86-.46-.29,0-.53.11-.72.32-.2.21-.3.48-.31.81h2.07Z"/><path class="cls-1" d="M179.98.14h.64v.72h-.64V.14ZM179.98,1.56h.64v3.75h-.64V1.56Z"/><path class="cls-1" d="M181.6.14h.64v5.16h-.64V.14Z"/><path class="cls-1" d="M187.25,1.65c.11.07.24.19.38.36V.13h.61v5.18h-.57v-.52c-.15.23-.32.4-.52.5-.2.1-.43.15-.69.15-.42,0-.78-.18-1.08-.53-.31-.35-.46-.82-.46-1.41,0-.55.14-1.02.42-1.43.28-.4.68-.6,1.2-.6.29,0,.53.06.72.18ZM185.84,4.48c.17.27.44.41.82.41.29,0,.53-.13.72-.38.19-.25.28-.62.28-1.09s-.1-.83-.29-1.06c-.19-.23-.43-.34-.72-.34-.32,0-.57.12-.77.37s-.29.61-.29,1.08c0,.41.08.74.25,1.02Z"/><path class="cls-1" d="M191.51,1.65c.25.13.44.29.57.49.13.19.21.41.25.67.04.17.06.45.06.83h-2.74c.01.38.1.69.27.92.17.23.43.35.78.35.33,0,.59-.11.79-.33.11-.13.19-.27.23-.44h.62c-.02.14-.07.29-.16.46-.09.17-.2.31-.31.41-.19.19-.43.31-.71.38-.15.04-.32.06-.51.06-.47,0-.86-.17-1.19-.51-.33-.34-.49-.82-.49-1.43s.16-1.1.49-1.47c.33-.38.75-.57,1.28-.57.27,0,.53.06.77.19ZM191.74,3.13c-.03-.28-.08-.5-.18-.66-.17-.31-.46-.46-.86-.46-.29,0-.53.11-.72.32-.19.21-.3.48-.31.81h2.07Z"/><path class="cls-1" d="M195.21,1.54h.6v.66c.05-.13.17-.28.36-.46.19-.18.41-.27.66-.27.01,0,.03,0,.06,0,.03,0,.08,0,.14.01v.67s-.07-.01-.1-.01c-.03,0-.07,0-.1,0-.32,0-.56.1-.73.31-.17.21-.26.44-.26.71v2.16h-.64V1.54Z"/><path class="cls-1" d="M199.92,1.65c.25.13.44.29.57.49.13.19.21.41.25.67.04.17.06.45.06.83h-2.74c.01.38.1.69.27.92.17.23.43.35.78.35.33,0,.59-.11.79-.33.11-.13.19-.27.23-.44h.62c-.02.14-.07.29-.16.46-.09.17-.2.31-.31.41-.19.19-.43.31-.71.38-.15.04-.32.06-.51.06-.47,0-.86-.17-1.19-.51-.32-.34-.49-.82-.49-1.43s.16-1.1.49-1.47c.33-.38.75-.57,1.28-.57.27,0,.52.06.77.19ZM200.14,3.13c-.03-.28-.08-.5-.18-.66-.17-.31-.46-.46-.86-.46-.29,0-.53.11-.72.32-.19.21-.3.48-.31.81h2.07Z"/><path class="cls-1" d="M204.09,1.74c.27.21.42.56.48,1.06h-.61c-.04-.23-.12-.42-.26-.58-.13-.15-.35-.23-.64-.23-.4,0-.69.2-.87.59-.11.25-.17.57-.17.94s.08.69.24.95c.16.26.41.39.75.39.26,0,.47-.08.62-.24.15-.16.26-.38.32-.66h.61c-.07.5-.25.86-.53,1.09-.28.23-.64.35-1.08.35-.49,0-.89-.18-1.18-.54-.29-.36-.44-.81-.44-1.35,0-.66.16-1.18.48-1.54.32-.37.73-.55,1.23-.55.42,0,.77.1,1.04.31Z"/><path class="cls-1" d="M205.2.13h.63v1.92c.15-.19.29-.32.4-.4.2-.13.46-.2.76-.2.55,0,.92.19,1.11.57.11.21.16.5.16.87v2.42h-.65v-2.37c0-.28-.04-.48-.11-.61-.12-.21-.33-.31-.65-.31-.26,0-.5.09-.71.27-.21.18-.32.52-.32,1.02v2h-.63V.13Z"/><path class="cls-1" d="M211.53,1.65c.25.13.44.29.57.49.13.19.21.41.25.67.04.17.06.45.06.83h-2.74c.01.38.1.69.27.92.17.23.43.35.78.35.33,0,.59-.11.79-.33.11-.13.19-.27.23-.44h.62c-.02.14-.07.29-.16.46-.09.17-.2.31-.31.41-.19.19-.43.31-.71.38-.15.04-.32.06-.51.06-.47,0-.86-.17-1.19-.51-.33-.34-.49-.82-.49-1.43s.16-1.1.49-1.47c.33-.38.75-.57,1.28-.57.27,0,.52.06.77.19ZM211.75,3.13c-.03-.28-.08-.5-.18-.66-.17-.31-.46-.46-.86-.46-.29,0-.53.11-.72.32-.19.21-.3.48-.31.81h2.07Z"/><path class="cls-1" d="M213.23,1.54h.6v.66c.05-.13.17-.28.36-.46.19-.18.41-.27.66-.27.01,0,.03,0,.06,0,.03,0,.08,0,.14.01v.67s-.07-.01-.1-.01c-.03,0-.07,0-.1,0-.32,0-.56.1-.73.31-.17.21-.25.44-.25.71v2.16h-.64V1.54Z"/><path class="cls-1" d="M218.09,1.74c.27.21.42.56.48,1.06h-.61c-.04-.23-.12-.42-.26-.58-.13-.15-.35-.23-.64-.23-.4,0-.69.2-.87.59-.11.25-.17.57-.17.94s.08.69.24.95c.16.26.41.39.75.39.26,0,.47-.08.62-.24.16-.16.26-.38.32-.66h.61c-.07.5-.25.86-.53,1.09-.28.23-.64.35-1.08.35-.49,0-.89-.18-1.18-.54-.29-.36-.44-.81-.44-1.35,0-.66.16-1.18.48-1.54.32-.37.73-.55,1.23-.55.42,0,.77.1,1.04.31Z"/><path class="cls-1" d="M219.2.13h.64v1.92c.15-.19.28-.32.4-.4.2-.13.46-.2.76-.2.55,0,.92.19,1.11.57.11.21.16.5.16.87v2.42h-.65v-2.37c0-.28-.04-.48-.11-.61-.12-.21-.33-.31-.65-.31-.26,0-.5.09-.71.27-.21.18-.32.52-.32,1.02v2h-.64V.13Z"/><path class="cls-1" d="M225.54,1.65c.25.13.44.29.57.49.13.19.21.41.25.67.04.17.06.45.06.83h-2.74c.01.38.1.69.27.92.17.23.43.35.78.35.33,0,.59-.11.79-.33.11-.13.19-.27.23-.44h.62c-.02.14-.07.29-.16.46-.09.17-.2.31-.31.41-.19.19-.43.31-.71.38-.15.04-.32.06-.51.06-.47,0-.86-.17-1.19-.51-.32-.34-.49-.82-.49-1.43s.16-1.1.49-1.47c.33-.38.75-.57,1.28-.57.27,0,.52.06.77.19ZM225.76,3.13c-.03-.28-.08-.5-.18-.66-.17-.31-.46-.46-.86-.46-.29,0-.53.11-.72.32-.19.21-.3.48-.31.81h2.07Z"/><path class="cls-1" d="M227.59,4.12c.02.21.07.37.16.49.16.2.45.31.85.31.24,0,.45-.05.63-.15.18-.1.27-.26.27-.47,0-.16-.07-.29-.22-.37-.09-.05-.28-.11-.55-.18l-.51-.13c-.33-.08-.57-.17-.72-.27-.28-.17-.41-.41-.41-.71,0-.36.13-.65.39-.87.26-.22.61-.33,1.05-.33.58,0,.99.17,1.24.5.16.21.24.44.23.68h-.6c-.01-.14-.06-.27-.16-.39-.15-.16-.41-.25-.78-.25-.25,0-.43.05-.56.14-.12.09-.19.21-.19.36,0,.16.08.29.25.39.1.06.24.11.42.15l.43.1c.46.11.77.22.93.32.25.16.37.42.37.76s-.13.63-.39.87c-.26.24-.65.37-1.18.37-.57,0-.97-.13-1.21-.38-.24-.25-.36-.57-.38-.95h.61Z"/><path class="cls-1" d="M235.14,1.65c.25.13.44.29.57.49.13.19.21.41.25.67.04.17.06.45.06.83h-2.74c.01.38.1.69.27.92.17.23.43.35.78.35.33,0,.59-.11.79-.33.11-.13.19-.27.23-.44h.62c-.02.14-.07.29-.16.46-.09.17-.2.31-.31.41-.19.19-.43.31-.71.38-.15.04-.32.06-.51.06-.47,0-.86-.17-1.19-.51-.33-.34-.49-.82-.49-1.43s.16-1.1.49-1.47c.33-.38.75-.57,1.28-.57.27,0,.52.06.77.19ZM235.37,3.13c-.03-.28-.08-.5-.18-.66-.17-.31-.46-.46-.86-.46-.29,0-.53.11-.72.32-.19.21-.3.48-.31.81h2.07Z"/><path class="cls-1" d="M236.82,1.54h.6v.54c.18-.22.37-.38.57-.47.2-.1.42-.14.67-.14.53,0,.9.19,1.08.56.1.2.15.5.15.88v2.41h-.64v-2.37c0-.23-.03-.41-.1-.56-.11-.23-.32-.35-.61-.35-.15,0-.27.02-.37.05-.17.05-.33.15-.46.31-.11.12-.17.25-.21.38-.03.13-.05.32-.05.57v1.97h-.64V1.54Z"/><path class="cls-1" d="M243.2,4.12c.02.21.07.37.16.49.16.2.45.31.85.31.24,0,.45-.05.63-.15.18-.1.27-.26.27-.47,0-.16-.07-.29-.22-.37-.09-.05-.28-.11-.55-.18l-.51-.13c-.33-.08-.57-.17-.72-.27-.28-.17-.41-.41-.41-.71,0-.36.13-.65.39-.87.26-.22.61-.33,1.05-.33.58,0,.99.17,1.24.5.16.21.24.44.23.68h-.6c-.01-.14-.06-.27-.16-.39-.15-.16-.41-.25-.77-.25-.25,0-.43.05-.56.14-.12.09-.19.21-.19.36,0,.16.08.29.25.39.1.06.24.11.42.15l.43.1c.46.11.77.22.93.32.25.16.37.42.37.76s-.13.63-.39.87c-.26.24-.65.37-1.18.37-.57,0-.97-.13-1.2-.38-.24-.25-.36-.57-.38-.95h.61Z"/><path class="cls-1" d="M248.92,1.74c.27.21.42.56.48,1.06h-.61c-.04-.23-.12-.42-.26-.58-.13-.15-.35-.23-.64-.23-.4,0-.69.2-.87.59-.11.25-.17.57-.17.94s.08.69.24.95c.16.26.41.39.75.39.26,0,.47-.08.62-.24.16-.16.26-.38.32-.66h.61c-.07.5-.25.86-.53,1.09-.28.23-.64.35-1.08.35-.49,0-.89-.18-1.18-.54-.29-.36-.44-.81-.44-1.35,0-.66.16-1.18.48-1.54.32-.37.73-.55,1.23-.55.42,0,.77.1,1.04.31Z"/><path class="cls-1" d="M250.03.14h.64v.72h-.64V.14ZM250.03,1.56h.64v3.75h-.64V1.56Z"/><path class="cls-1" d="M253.96,1.65c.25.13.44.29.57.49.13.19.21.41.25.67.04.17.06.45.06.83h-2.74c.01.38.1.69.27.92.17.23.43.35.78.35.33,0,.59-.11.79-.33.11-.13.19-.27.23-.44h.62c-.02.14-.07.29-.16.46-.09.17-.2.31-.31.41-.19.19-.43.31-.71.38-.15.04-.32.06-.51.06-.47,0-.86-.17-1.19-.51-.32-.34-.49-.82-.49-1.43s.16-1.1.49-1.47c.33-.38.75-.57,1.28-.57.27,0,.52.06.77.19ZM254.18,3.13c-.03-.28-.08-.5-.18-.66-.17-.31-.46-.46-.86-.46-.29,0-.53.11-.72.32-.19.21-.3.48-.31.81h2.07Z"/><path class="cls-1" d="M255.63,1.54h.6v.54c.18-.22.37-.38.57-.47.2-.1.42-.14.66-.14.54,0,.9.19,1.08.56.1.2.15.5.15.88v2.41h-.64v-2.37c0-.23-.03-.41-.1-.56-.11-.23-.32-.35-.61-.35-.15,0-.27.02-.37.05-.17.05-.33.15-.46.31-.11.12-.17.25-.21.38-.03.13-.05.32-.05.57v1.97h-.64V1.54Z"/><path class="cls-1" d="M262.13,1.74c.27.21.43.56.48,1.06h-.61c-.04-.23-.12-.42-.26-.58-.13-.15-.35-.23-.64-.23-.4,0-.69.2-.87.59-.11.25-.17.57-.17.94s.08.69.24.95c.16.26.41.39.75.39.26,0,.47-.08.62-.24.15-.16.26-.38.32-.66h.61c-.07.5-.25.86-.53,1.09-.28.23-.64.35-1.08.35-.49,0-.88-.18-1.18-.54-.29-.36-.44-.81-.44-1.35,0-.66.16-1.18.48-1.54.32-.37.73-.55,1.23-.55.42,0,.77.1,1.04.31Z"/><path class="cls-1" d="M265.57,1.65c.25.13.44.29.57.49.13.19.21.41.25.67.04.17.06.45.06.83h-2.74c.01.38.1.69.27.92.17.23.43.35.78.35.33,0,.59-.11.79-.33.11-.13.19-.27.23-.44h.62c-.02.14-.07.29-.16.46-.09.17-.2.31-.31.41-.19.19-.43.31-.71.38-.15.04-.32.06-.51.06-.47,0-.86-.17-1.19-.51-.33-.34-.49-.82-.49-1.43s.16-1.1.49-1.47c.33-.38.75-.57,1.28-.57.27,0,.52.06.77.19ZM265.79,3.13c-.03-.28-.08-.5-.18-.66-.17-.31-.46-.46-.86-.46-.29,0-.53.11-.72.32-.19.21-.3.48-.31.81h2.07Z"/><path class="cls-1" d="M267.62,4.12c.02.21.07.37.16.49.16.2.45.31.85.31.24,0,.45-.05.63-.15.18-.1.27-.26.27-.47,0-.16-.07-.29-.22-.37-.09-.05-.28-.11-.55-.18l-.51-.13c-.33-.08-.57-.17-.72-.27-.28-.17-.41-.41-.41-.71,0-.36.13-.65.39-.87.26-.22.61-.33,1.05-.33.58,0,.99.17,1.24.5.16.21.24.44.23.68h-.6c-.01-.14-.07-.27-.16-.39-.15-.16-.41-.25-.78-.25-.24,0-.43.05-.56.14-.12.09-.19.21-.19.36,0,.16.08.29.25.39.1.06.24.11.42.15l.43.1c.46.11.78.22.93.32.25.16.37.42.37.76s-.13.63-.39.87c-.26.24-.65.37-1.18.37-.57,0-.97-.13-1.21-.38-.24-.25-.36-.57-.38-.95h.61Z"/><path class="cls-1" d="M159.16,9.46h.6v.54c.18-.22.37-.38.57-.47.2-.1.42-.14.66-.14.53,0,.9.19,1.08.56.1.2.15.5.15.88v2.41h-.64v-2.37c0-.23-.03-.42-.1-.56-.11-.23-.32-.35-.61-.35-.15,0-.27.02-.37.05-.17.05-.33.15-.46.31-.11.12-.17.25-.21.38-.03.13-.05.32-.05.57v1.97h-.64v-3.77Z"/><path class="cls-1" d="M165.19,10.94c.15-.02.24-.08.29-.18.03-.06.04-.14.04-.24,0-.22-.08-.37-.23-.47-.15-.1-.37-.15-.66-.15-.33,0-.56.09-.7.27-.08.1-.13.25-.15.44h-.59c.01-.46.16-.79.45-.97.29-.18.62-.27,1.01-.27.44,0,.8.08,1.08.25.27.17.41.43.41.79v2.17c0,.07.01.12.04.16.03.04.08.06.17.06.03,0,.06,0,.09,0,.04,0,.07,0,.11-.01v.47c-.1.03-.17.04-.23.05-.05,0-.12,0-.21,0-.22,0-.38-.08-.48-.23-.05-.08-.09-.2-.11-.35-.13.17-.31.32-.55.44-.24.13-.51.19-.8.19-.35,0-.63-.11-.86-.32-.22-.21-.33-.48-.33-.8,0-.35.11-.62.33-.81.22-.19.5-.31.86-.36l1.01-.13ZM163.86,12.65c.13.11.29.16.47.16.22,0,.44-.05.65-.15.35-.17.53-.45.53-.84v-.51c-.08.05-.18.09-.3.13-.12.03-.24.06-.36.07l-.38.05c-.23.03-.4.08-.52.14-.19.11-.29.28-.29.53,0,.18.07.33.2.43Z"/><path class="cls-1" d="M167.3,8.41h.64v1.05h.6v.52h-.6v2.45c0,.13.04.22.13.26.05.03.13.04.25.04.03,0,.06,0,.1,0,.04,0,.08,0,.12-.01v.51c-.07.02-.15.04-.23.05-.08,0-.16.01-.25.01-.3,0-.5-.08-.6-.23-.1-.15-.16-.35-.16-.59v-2.49h-.51v-.52h.51v-1.05Z"/><path class="cls-1" d="M169.81,9.46v2.5c0,.19.03.35.09.47.11.22.31.34.61.34.43,0,.72-.2.88-.59.08-.21.13-.5.13-.87v-1.85h.64v3.77h-.6v-.55c-.07.14-.17.26-.29.36-.24.2-.52.29-.86.29-.53,0-.88-.18-1.08-.54-.1-.19-.15-.45-.15-.77v-2.56h.65Z"/><path class="cls-1" d="M173.2,9.46h.6v.66c.05-.13.17-.28.36-.46.19-.18.41-.27.66-.27.01,0,.03,0,.06,0,.03,0,.08,0,.14.01v.67s-.07-.01-.1-.01c-.03,0-.07,0-.1,0-.32,0-.56.1-.73.31-.17.21-.26.44-.26.71v2.16h-.64v-3.77Z"/><path class="cls-1" d="M177.91,9.57c.25.13.44.29.57.49.13.19.21.41.25.67.04.17.06.45.06.83h-2.74c.01.38.1.69.27.92.17.23.43.35.78.35.33,0,.59-.11.79-.33.11-.13.19-.27.23-.44h.62c-.02.14-.07.29-.16.46-.09.17-.2.31-.31.42-.19.19-.43.31-.71.38-.15.04-.32.06-.51.06-.47,0-.86-.17-1.19-.51-.32-.34-.49-.82-.49-1.43s.16-1.1.49-1.47c.33-.38.75-.57,1.28-.57.27,0,.52.06.77.19ZM178.13,11.05c-.03-.28-.08-.5-.18-.66-.17-.31-.46-.46-.86-.46-.29,0-.53.11-.72.32-.19.21-.3.48-.31.81h2.07Z"/><path class="cls-1" d="M179.61,8.06h.64v5.17h-.64v-5.17Z"/><path class="cls-1" d="M181.2,8.06h.64v5.17h-.64v-5.17Z"/><path class="cls-1" d="M185.11,9.57c.25.13.44.29.57.49.12.19.21.41.25.67.04.17.06.45.06.83h-2.74c.01.38.1.69.27.92.17.23.43.35.78.35.33,0,.59-.11.78-.33.11-.13.19-.27.23-.44h.62c-.02.14-.07.29-.16.46-.09.17-.2.31-.31.42-.19.19-.43.31-.71.38-.15.04-.32.06-.51.06-.47,0-.86-.17-1.19-.51-.33-.34-.49-.82-.49-1.43s.16-1.1.49-1.47c.33-.38.75-.57,1.28-.57.27,0,.52.06.77.19ZM185.34,11.05c-.03-.28-.08-.5-.18-.66-.17-.31-.46-.46-.86-.46-.29,0-.53.11-.72.32-.2.21-.3.48-.31.81h2.07Z"/><path class="cls-1" d="M187.16,12.04c.02.21.07.37.16.49.16.2.45.31.85.31.24,0,.45-.05.63-.15.18-.1.27-.26.27-.47,0-.16-.07-.29-.22-.37-.09-.05-.28-.11-.55-.18l-.51-.13c-.33-.08-.57-.17-.72-.27-.28-.17-.42-.41-.42-.71,0-.36.13-.64.39-.87.26-.22.61-.33,1.05-.33.57,0,.99.17,1.24.5.16.21.24.44.23.68h-.6c-.01-.14-.06-.27-.15-.39-.15-.16-.41-.25-.78-.25-.25,0-.43.05-.56.14-.13.09-.19.21-.19.36,0,.16.08.29.25.39.1.06.24.11.42.15l.43.1c.47.11.78.22.93.32.25.16.37.42.37.76s-.13.62-.39.87c-.26.24-.65.37-1.18.37-.57,0-.97-.13-1.21-.38s-.36-.57-.38-.95h.61Z"/><path class="cls-1" d="M194.72,9.57c.25.13.44.29.57.49.13.19.21.41.25.67.04.17.06.45.06.83h-2.74c.01.38.1.69.27.92.17.23.43.35.78.35.33,0,.59-.11.78-.33.11-.13.19-.27.23-.44h.62c-.02.14-.07.29-.16.46-.09.17-.2.31-.31.42-.19.19-.43.31-.71.38-.15.04-.32.06-.51.06-.47,0-.86-.17-1.19-.51-.33-.34-.49-.82-.49-1.43s.16-1.1.49-1.47c.33-.38.75-.57,1.28-.57.27,0,.52.06.77.19ZM194.94,11.05c-.03-.28-.08-.5-.18-.66-.17-.31-.46-.46-.86-.46-.29,0-.53.11-.72.32-.2.21-.3.48-.31.81h2.07Z"/><path class="cls-1" d="M196.52,8.41h.64v1.05h.6v.52h-.6v2.45c0,.13.04.22.13.26.05.03.13.04.25.04.03,0,.06,0,.1,0,.04,0,.08,0,.12-.01v.51c-.07.02-.15.04-.23.05-.08,0-.16.01-.25.01-.3,0-.5-.08-.6-.23-.1-.15-.16-.35-.16-.59v-2.49h-.51v-.52h.51v-1.05Z"/><path class="cls-1" d="M202.72,9.57c.25.13.44.29.57.49.13.19.21.41.25.67.04.17.06.45.06.83h-2.74c.01.38.1.69.27.92.17.23.43.35.78.35.33,0,.59-.11.79-.33.11-.13.19-.27.23-.44h.62c-.02.14-.07.29-.16.46-.09.17-.2.31-.31.42-.19.19-.43.31-.71.38-.15.04-.32.06-.51.06-.47,0-.86-.17-1.19-.51-.33-.34-.49-.82-.49-1.43s.16-1.1.49-1.47c.33-.38.75-.57,1.28-.57.27,0,.52.06.77.19ZM202.95,11.05c-.03-.28-.08-.5-.18-.66-.17-.31-.46-.46-.86-.46-.29,0-.53.11-.72.32-.19.21-.3.48-.31.81h2.07Z"/><path class="cls-1" d="M204.4,9.46h.6v.54c.18-.22.37-.38.57-.47.2-.1.42-.14.66-.14.54,0,.9.19,1.08.56.1.2.16.5.16.88v2.41h-.64v-2.37c0-.23-.03-.42-.1-.56-.11-.23-.32-.35-.61-.35-.15,0-.27.02-.37.05-.17.05-.33.15-.46.31-.11.12-.17.25-.21.38-.03.13-.05.32-.05.57v1.97h-.64v-3.77Z"/><path class="cls-1" d="M212.5,9.61c.12.08.24.2.37.36v-.47h.58v3.42c0,.48-.07.85-.21,1.13-.26.51-.76.77-1.48.77-.41,0-.75-.09-1.02-.27-.28-.18-.43-.47-.46-.85h.64c.03.17.09.3.18.39.14.14.37.21.67.21.49,0,.8-.17.95-.51.09-.2.13-.56.12-1.08-.13.19-.28.33-.46.43-.18.09-.41.14-.71.14-.41,0-.76-.14-1.07-.43-.3-.29-.46-.77-.46-1.44,0-.63.15-1.12.46-1.48.31-.35.68-.53,1.11-.53.29,0,.55.07.77.22ZM212.58,10.29c-.19-.23-.44-.34-.73-.34-.44,0-.75.21-.91.63-.09.22-.13.51-.13.88,0,.42.08.75.26.97.17.22.4.33.69.33.45,0,.77-.21.96-.61.1-.23.16-.5.16-.81,0-.47-.1-.81-.29-1.04Z"/><path class="cls-1" d="M216.74,9.57c.25.13.44.29.57.49.13.19.21.41.25.67.04.17.06.45.06.83h-2.74c.01.38.1.69.27.92.17.23.43.35.78.35.33,0,.59-.11.79-.33.11-.13.19-.27.23-.44h.62c-.02.14-.07.29-.16.46-.09.17-.2.31-.31.42-.19.19-.43.31-.71.38-.15.04-.32.06-.51.06-.47,0-.86-.17-1.19-.51-.33-.34-.49-.82-.49-1.43s.16-1.1.49-1.47c.33-.38.75-.57,1.28-.57.27,0,.52.06.77.19ZM216.96,11.05c-.03-.28-.08-.5-.18-.66-.17-.31-.46-.46-.86-.46-.29,0-.53.11-.72.32-.19.21-.3.48-.31.81h2.07ZM216.85,7.93l-.94,1.02h-.49l.64-1.02h.78Z"/><path class="cls-1" d="M218.42,9.46h.6v.54c.18-.22.37-.38.57-.47.2-.1.42-.14.66-.14.54,0,.9.19,1.08.56.1.2.16.5.16.88v2.41h-.64v-2.37c0-.23-.03-.42-.1-.56-.11-.23-.32-.35-.61-.35-.15,0-.27.02-.37.05-.17.05-.33.15-.46.31-.11.12-.17.25-.21.38-.03.13-.05.32-.05.57v1.97h-.64v-3.77Z"/><path class="cls-1" d="M222.42,8.06h.64v.72h-.64v-.72ZM222.42,9.48h.64v3.75h-.64v-3.75Z"/><path class="cls-1" d="M226.35,9.57c.25.13.44.29.57.49.13.19.21.41.25.67.04.17.06.45.06.83h-2.74c.01.38.1.69.27.92.17.23.43.35.78.35.33,0,.59-.11.79-.33.11-.13.19-.27.23-.44h.62c-.02.14-.07.29-.17.46-.09.17-.2.31-.31.42-.19.19-.43.31-.71.38-.15.04-.32.06-.51.06-.47,0-.86-.17-1.19-.51-.32-.34-.49-.82-.49-1.43s.16-1.1.49-1.47c.33-.38.75-.57,1.28-.57.27,0,.52.06.77.19ZM226.58,11.05c-.03-.28-.08-.5-.18-.66-.17-.31-.46-.46-.86-.46-.29,0-.53.11-.72.32-.2.21-.3.48-.31.81h2.07Z"/><path class="cls-1" d="M232.1,9.58c.11.07.24.19.38.36v-1.89h.61v5.18h-.57v-.52c-.15.23-.32.4-.52.5-.2.1-.43.15-.69.15-.42,0-.78-.18-1.09-.53-.31-.35-.46-.82-.46-1.41,0-.55.14-1.02.42-1.43.28-.4.68-.6,1.2-.6.29,0,.53.06.72.18ZM230.69,12.41c.17.27.44.41.82.41.29,0,.53-.13.72-.38.19-.25.28-.62.28-1.09s-.1-.83-.29-1.06c-.19-.23-.43-.34-.72-.34-.32,0-.57.12-.77.37-.2.25-.29.61-.29,1.08,0,.41.08.74.25,1.02Z"/><path class="cls-1" d="M234.67,9.46v2.5c0,.19.03.35.09.47.11.22.32.34.61.34.43,0,.72-.2.88-.59.08-.21.13-.5.13-.87v-1.85h.64v3.77h-.6v-.55c-.07.14-.17.26-.29.36-.24.2-.52.29-.86.29-.53,0-.88-.18-1.07-.54-.1-.19-.16-.45-.16-.77v-2.56h.65Z"/><path class="cls-1" d="M243.78,8.44c.36.34.56.74.59,1.18h-.68c-.08-.33-.23-.6-.45-.79-.23-.19-.55-.29-.96-.29-.5,0-.9.18-1.21.54-.31.36-.46.91-.46,1.64,0,.61.14,1.1.42,1.47.28.38.69.56,1.24.56.51,0,.89-.2,1.16-.59.14-.21.24-.48.31-.82h.68c-.06.54-.26,1-.6,1.37-.41.44-.95.66-1.64.66-.59,0-1.09-.18-1.5-.54-.53-.48-.8-1.22-.8-2.23,0-.76.2-1.39.6-1.88.43-.53,1.03-.79,1.78-.79.65,0,1.15.17,1.51.52Z"/><path class="cls-1" d="M247.26,10.94c.14-.02.24-.08.29-.18.03-.06.04-.14.04-.24,0-.22-.08-.37-.23-.47-.15-.1-.37-.15-.66-.15-.33,0-.56.09-.7.27-.08.1-.13.25-.15.44h-.59c.01-.46.16-.79.45-.97.29-.18.62-.27,1-.27.44,0,.8.08,1.08.25.27.17.41.43.41.79v2.17c0,.07.01.12.04.16.03.04.08.06.17.06.03,0,.06,0,.09,0,.04,0,.07,0,.11-.01v.47c-.1.03-.17.04-.22.05-.05,0-.12,0-.21,0-.22,0-.38-.08-.48-.23-.05-.08-.09-.2-.11-.35-.13.17-.31.32-.55.44-.24.13-.51.19-.8.19-.35,0-.63-.11-.85-.32-.22-.21-.33-.48-.33-.8,0-.35.11-.62.33-.81.22-.19.5-.31.86-.36l1.01-.13ZM245.93,12.65c.13.11.29.16.47.16.22,0,.44-.05.65-.15.35-.17.53-.45.53-.84v-.51c-.08.05-.18.09-.3.13-.12.03-.24.06-.36.07l-.38.05c-.23.03-.4.08-.52.14-.19.11-.29.28-.29.53,0,.18.07.33.2.43Z"/><path class="cls-1" d="M249.24,9.46h.6v.54c.18-.22.37-.38.57-.47.2-.1.42-.14.66-.14.53,0,.9.19,1.08.56.1.2.15.5.15.88v2.41h-.64v-2.37c0-.23-.03-.42-.1-.56-.11-.23-.32-.35-.61-.35-.15,0-.27.02-.37.05-.17.05-.33.15-.46.31-.11.12-.17.25-.21.38-.03.13-.05.32-.05.57v1.97h-.64v-3.77Z"/><path class="cls-1" d="M255.27,10.94c.15-.02.24-.08.29-.18.03-.06.04-.14.04-.24,0-.22-.08-.37-.23-.47-.15-.1-.37-.15-.66-.15-.33,0-.56.09-.7.27-.08.1-.13.25-.15.44h-.59c.01-.46.16-.79.45-.97.29-.18.62-.27,1.01-.27.44,0,.8.08,1.08.25.27.17.41.43.41.79v2.17c0,.07.01.12.04.16.03.04.08.06.17.06.03,0,.06,0,.09,0,.04,0,.07,0,.11-.01v.47c-.1.03-.17.04-.23.05-.05,0-.12,0-.21,0-.22,0-.38-.08-.48-.23-.05-.08-.09-.2-.11-.35-.13.17-.31.32-.55.44-.24.13-.51.19-.8.19-.35,0-.63-.11-.85-.32-.22-.21-.33-.48-.33-.8,0-.35.11-.62.33-.81.22-.19.5-.31.86-.36l1.01-.13ZM253.94,12.65c.13.11.29.16.47.16.22,0,.44-.05.65-.15.35-.17.53-.45.53-.84v-.51c-.08.05-.18.09-.3.13-.12.03-.24.06-.36.07l-.38.05c-.23.03-.4.08-.52.14-.19.11-.29.28-.29.53,0,.18.07.33.2.43Z"/><path class="cls-1" d="M259.32,9.58c.11.07.24.19.38.36v-1.89h.61v5.18h-.57v-.52c-.15.23-.32.4-.52.5-.2.1-.43.15-.69.15-.42,0-.78-.18-1.09-.53-.31-.35-.46-.82-.46-1.41,0-.55.14-1.02.42-1.43.28-.4.68-.6,1.2-.6.29,0,.53.06.72.18ZM257.91,12.41c.17.27.44.41.82.41.29,0,.53-.13.72-.38.19-.25.28-.62.28-1.09s-.1-.83-.29-1.06c-.19-.23-.43-.34-.72-.34-.32,0-.57.12-.77.37-.2.25-.29.61-.29,1.08,0,.41.09.74.25,1.02Z"/><path class="cls-1" d="M263.28,10.94c.15-.02.24-.08.29-.18.03-.06.04-.14.04-.24,0-.22-.08-.37-.23-.47-.15-.1-.37-.15-.66-.15-.33,0-.56.09-.7.27-.08.1-.13.25-.15.44h-.59c.01-.46.16-.79.45-.97.29-.18.62-.27,1.01-.27.44,0,.8.08,1.08.25.27.17.41.43.41.79v2.17c0,.07.01.12.04.16.03.04.08.06.17.06.03,0,.06,0,.09,0,.04,0,.07,0,.11-.01v.47c-.1.03-.17.04-.23.05-.05,0-.12,0-.21,0-.22,0-.38-.08-.48-.23-.05-.08-.09-.2-.11-.35-.13.17-.31.32-.55.44-.24.13-.51.19-.8.19-.35,0-.63-.11-.86-.32-.22-.21-.33-.48-.33-.8,0-.35.11-.62.33-.81.22-.19.5-.31.86-.36l1.01-.13ZM261.95,12.65c.13.11.29.16.47.16.22,0,.44-.05.65-.15.35-.17.53-.45.53-.84v-.51c-.08.05-.18.09-.3.13-.12.03-.24.06-.36.07l-.38.05c-.23.03-.4.08-.52.14-.19.11-.29.28-.29.53,0,.18.07.33.2.43Z"/><rect class="cls-2" y=".3" width="6.42" height="12.94"/></g></svg>