<?xml version="1.0" encoding="UTF-8"?>
<svg id="a" xmlns="http://www.w3.org/2000/svg" viewBox="0 0 773.2887039 100.9930797">
  <path d="M575.6106943.0219345h18.2508695c8.2845059,0,12.7712684,4.6115455,12.7712684,12.3101138s-4.4867625,12.3643673-12.7712684,12.3046885h-12.7115896v17.0301663h-5.53928V.0219345ZM581.1499743,19.9709378h10.84527c6.2391498.0596788,9.098308-2.6855471,9.098308-7.6388895,0-4.9587678-2.8591582-7.6443148-9.098308-7.6443148h-10.84527v15.2832043Z"/>
  <path d="M636.9714187,41.5475455c-.8789063.5262587-1.9856772.8192275-3.5590281.8192275-2.5661894,0-4.1992191-1.3997397-4.1992191-4.665799-2.7452259,3.2063805-6.4181863,4.665799-10.6174054,4.665799-5.4796011,0-9.971789-2.4468318-9.971789-8.458117,0-6.8250874,5.0727001-8.2790805,10.2050789-9.2719191,5.4850265-1.0470921,10.1508255-.6998698,10.1508255-4.432509,0-4.3185767-3.5590281-5.0130212-6.7111551-5.0130212-4.1992191,0-7.2862419,1.280382-7.5195319,5.7128911h-4.9587678c.2929688-7.4652784,6.0655387-10.0911466,12.7712684-10.0911466,5.4253477,0,11.3172752,1.2261286,11.3172752,8.2845059v15.5110689c0,2.3328995,0,3.3854169,1.5733508,3.3854169.4069011,0,.873481-.0596788,1.5190973-.2929688v3.8465715ZM628.9202028,26.0961553c-1.9259984,1.3997397-5.6586376,1.4539932-8.9843757,2.0399307-3.2660593.5859375-6.0655387,1.7469619-6.0655387,5.4253477,0,3.2660593,2.7994794,4.432509,5.8376741,4.432509,6.5321186,0,9.2122403-4.0852868,9.2122403-6.8250874v-5.0727001Z"/>
  <path d="M641.4093531,11.5128208h4.665799v6.3585075h.1139323c2.3925783-4.8394101,5.7183164-7.2319884,11.0839853-7.0583773v5.2517365c-7.9915371,0-10.9049488,4.5464413-10.9049488,12.1907562v13.4114594h-4.9587678V11.5128208Z"/>
  <path d="M661.2986776.0219345h4.9587678v24.6744811l13.7586817-13.1835948h6.6514762l-11.9574662,10.9646276,12.8309472,19.1894547h-6.2988286l-10.3190112-15.7443589-4.665799,4.3131514v11.4312075h-4.9587678V.0219345Z"/>
  <path d="M694.3119181,32.161694c.1736111,4.432509,4.025608,5.8322487,8.1054694,5.8322487,3.0924482,0,7.2915825-.6998698,7.2915825-4.4921879,0-3.8465715-4.8990042-4.4921879-9.8577719-5.5989588-4.8990889-1.1067709-9.8524313-2.7398006-9.8524313-8.5123705,0-6.0655387,6.0058599-8.5774746,11.252171-8.5774746,6.6514762,0,11.9574662,2.0996095,12.3643673,9.4509556h-4.9533424c-.3526476-3.8519968-3.7326392-5.0727001-6.9986985-5.0727001-2.9785159,0-6.4181863.8138021-6.4181863,3.8465715,0,3.5590281,5.2463112,4.1395403,9.8578567,5.2463112,4.9587678,1.1121963,9.8524313,2.7452259,9.8524313,8.5774746,0,7.1723096-6.7057297,9.5052091-12.8255219,9.5052091-6.7708339,0-12.483725-2.7398006-12.7766937-10.2050789h4.9587678Z"/>
  <path d="M604.8858703,70.8986763c-1.1664497-5.8919276-5.8919276-8.8650181-11.6644975-8.8650181-9.9175355,0-14.1167546,8.1651482-14.1167546,16.8511298,0,9.5106344,4.1992191,17.4424927,14.1764334,17.4424927,7.2862419,0,11.485461-5.1323789,12.0117197-12.0171451h5.53928c-1.0470921,10.3841154-7.5195319,16.682944-18.0175796,16.682944-12.9503049,0-19.2491335-9.5648879-19.2491335-21.6959653,0-12.0768239,6.8847662-21.9292552,19.7157134-21.9292552,8.6859816,0,15.8637165,4.665799,17.1440986,13.5308171h-5.53928Z"/>
  <path d="M643.6228949,99.8808835c-.8789063.5262587-1.9856772.8192275-3.5590281.8192275-2.5661894,0-4.1992191-1.3997397-4.1992191-4.665799-2.7452259,3.2063805-6.4181863,4.665799-10.6174054,4.665799-5.4796011,0-9.971789-2.4468318-9.971789-8.458117,0-6.8250874,5.0727001-8.2790805,10.2050789-9.2719191,5.4850265-1.0470921,10.1508255-.6998698,10.1508255-4.432509,0-4.3185767-3.5590281-5.0130212-6.7111551-5.0130212-4.1992191,0-7.2862419,1.280382-7.5195319,5.7128911h-4.9587678c.2929688-7.4652784,6.0655387-10.0911466,12.7712684-10.0911466,5.4253477,0,11.3172752,1.2261286,11.3172752,8.2845059v15.5110689c0,2.3328995,0,3.3854169,1.5733508,3.3854169.4069011,0,.873481-.0596788,1.5190973-.2929688v3.8465715ZM635.571679,84.4294933c-1.9259984,1.3997397-5.6586376,1.4539932-8.9843757,2.0399307-3.2660593.5859375-6.0655387,1.7469619-6.0655387,5.4253477,0,3.2660593,2.7994794,4.432509,5.8376741,4.432509,6.5321186,0,9.2122403-4.0852868,9.2122403-6.8250874v-5.0727001Z"/>
  <path d="M648.2290151,69.8461588h4.665799v4.7851566h.1139323c2.1050349-3.7326392,5.4850265-5.4850265,9.7981779-5.4850265,7.9318583,0,10.3841154,4.5518667,10.3841154,11.0243064v19.8296457h-4.9587678v-20.4101579c0-3.6783857-2.3328995-6.0655387-6.1197922-6.0655387-6.0112852,0-8.9246969,4.0201826-8.9246969,9.4455303v17.0301663h-4.9587678v-30.1540823Z"/>
  <path d="M707.3815806,99.8808835c-.8789063.5262587-1.9856772.8192275-3.5590281.8192275-2.5661894,0-4.1992191-1.3997397-4.1992191-4.665799-2.7452259,3.2063805-6.4181863,4.665799-10.6174054,4.665799-5.4796011,0-9.971789-2.4468318-9.971789-8.458117,0-6.8250874,5.0727001-8.2790805,10.2050789-9.2719191,5.4850265-1.0470921,10.1508255-.6998698,10.1508255-4.432509,0-4.3185767-3.5590281-5.0130212-6.7111551-5.0130212-4.1992191,0-7.2862419,1.280382-7.5195319,5.7128911h-4.9587678c.2929688-7.4652784,6.0655387-10.0911466,12.7712684-10.0911466,5.4253477,0,11.3172752,1.2261286,11.3172752,8.2845059v15.5110689c0,2.3328995,0,3.3854169,1.5733508,3.3854169.4069011,0,.873481-.0596788,1.5190973-.2929688v3.8465715ZM699.3303646,84.4294933c-1.9259984,1.3997397-5.6586376,1.4539932-8.9843757,2.0399307-3.2660593.5859375-6.0655387,1.7469619-6.0655387,5.4253477,0,3.2660593,2.7994794,4.432509,5.8376741,4.432509,6.5321186,0,9.2122403-4.0852868,9.2122403-6.8250874v-5.0727001Z"/>
  <path d="M738.9354025,100.0002411h-4.9587678v-4.0798614h-.1193576c-1.6330296,3.3203128-5.4796011,4.7797313-9.6245667,4.7797313-9.2719191,0-13.8780393-7.3513461-13.8780393-15.8637165s4.5464413-15.6901054,13.764107-15.6901054c3.0924482,0,7.5249572,1.1664497,9.738499,4.7254778h.1193576v-15.5164943h4.9587678v41.6449686ZM724.9380056,96.3272808c6.6460509,0,9.2122403-5.7183164,9.2122403-11.376954,0-5.946181-2.6801217-11.4257822-9.5052091-11.4257822-6.7654085,0-9.0386292,5.7725699-9.0386292,11.6644975,0,5.6532123,2.9134117,11.1382387,9.331598,11.1382387Z"/>
  <path d="M773.2887039,99.8808835c-.873481.5262587-1.9802519.8192275-3.5536027.8192275-2.5661894,0-4.1992191-1.3997397-4.1992191-4.665799-2.7398006,3.2063805-6.4181863,4.665799-10.6174054,4.665799-5.4796011,0-9.971789-2.4468318-9.971789-8.458117,0-6.8250874,5.0727001-8.2790805,10.2050789-9.2719191,5.4850265-1.0470921,10.1508255-.6998698,10.1508255-4.432509,0-4.3185767-3.5590281-5.0130212-6.7057297-5.0130212-4.1992191,0-7.2916672,1.280382-7.5249572,5.7128911h-4.9587678c.2929688-7.4652784,6.0655387-10.0911466,12.7712684-10.0911466,5.4253477,0,11.3172752,1.2261286,11.3172752,8.2845059v15.5110689c0,2.3328995,0,3.3854169,1.5733508,3.3854169.4069011,0,.873481-.0596788,1.513672-.2929688v3.8465715ZM765.2429133,84.4294933c-1.9259984,1.3997397-5.6586376,1.4539932-8.9789504,2.0399307-3.2660593.5859375-6.0655387,1.7469619-6.0655387,5.4253477,0,3.2660593,2.7994794,4.432509,5.8268234,4.432509,6.5321186,0,9.2176657-4.0852868,9.2176657-6.8250874v-5.0727001Z"/>
  <path d="M290.5059623.0300725h18.2508695c8.2845059,0,12.7712684,4.6061202,12.7712684,12.3046885s-4.4867625,12.3643673-12.7712684,12.3046885h-12.7115896v17.0301663h-5.53928V.0300725ZM296.0452423,19.9736505h10.84527c6.2391498.0596788,9.098308-2.6801217,9.098308-7.6388895s-2.8591582-7.6388895-9.098308-7.6388895h-10.84527v15.277779Z"/>
  <path d="M351.8666443,41.5556835c-.8789063.5208334-1.9856772.8138021-3.5590281.8138021-2.5661894,0-4.1992191-1.3997397-4.1992191-4.665799-2.7452259,3.2063805-6.4181863,4.665799-10.6174054,4.665799-5.4796011,0-9.971789-2.4522571-9.971789-8.458117,0-6.819662,5.0727001-8.2790805,10.2050789-9.2719191,5.4850265-1.0525174,10.1508255-.6998698,10.1508255-4.432509,0-4.3131514-3.5590281-5.0184466-6.7111551-5.0184466-4.1992191,0-7.2862419,1.2858074-7.5195319,5.7183164h-4.9587678c.2929688-7.4652784,6.0655387-10.0911466,12.7712684-10.0911466,5.4253477,0,11.3172752,1.2261286,11.3172752,8.2845059v15.5110689c0,2.3328995,0,3.3854169,1.5733508,3.3854169.4069011,0,.873481-.0596788,1.5190973-.2929688v3.8519968ZM343.8154284,26.098868c-1.9259984,1.3997397-5.6586376,1.4594185-8.9843757,2.0399307-3.2660593.5805122-6.0655387,1.7523873-6.0655387,5.4253477,0,3.2660593,2.7994794,4.432509,5.8376741,4.432509,6.5321186,0,9.2122403-4.0852868,9.2122403-6.8250874v-5.0727001Z"/>
  <path d="M356.3045787,11.5155335h4.665799v6.3585075h.1139323c2.3925783-4.8394101,5.7183164-7.2319884,11.0839853-7.0583773v5.2517365c-7.9915371,0-10.9049488,4.5464413-10.9049488,12.1853308v13.4168848h-4.9587678V11.5155335Z"/>
  <path d="M395.323679,21.1997791c-.7595487-3.792318-3.3799916-6.0112852-7.4652784-6.0112852-7.1723096,0-9.3858514,5.6586376-9.3858514,11.7838551,0,5.53928,2.5065106,11.0243064,8.8053392,11.0243064,4.7797313,0,7.6388895-2.7994794,8.2790805-7.3513461h5.0727001c-1.1067709,7.3513461-5.7128911,11.7241763-13.2921018,11.7241763-9.2176657,0-14.1167546-6.4127609-14.1167546-15.3971366,0-9.0386292,4.665799-16.1566853,14.2306869-16.1566853,6.8250874,0,12.3046885,3.2118058,13.0045583,10.3841154h-5.1323789Z"/>
  <path d="M409.2071437,32.1644067c.1763238,4.432509,4.0283206,5.8322487,8.1081821,5.8322487,3.0924482,0,7.2916672-.6998698,7.2916672-4.4921879,0-3.8519968-4.9045143-4.4921879-9.863282-5.5989588-4.8936636-1.1067709-9.8497187-2.7398006-9.8497187-8.5177958,0-6.0655387,6.0085725-8.5720493,11.2494584-8.5720493,6.6514762,0,11.9574662,2.0996095,12.3697927,9.4509556h-4.9587678c-.3472222-3.8519968-3.7326392-5.0781254-6.9986985-5.0781254-2.9730905,0-6.4127609.8192275-6.4127609,3.8519968,0,3.5590281,5.2408858,4.1395403,9.8524313,5.2517365,4.9587678,1.1067709,9.852389,2.7398006,9.852389,8.5720493,0,7.1723096-6.7056873,9.5052091-12.8254795,9.5052091-6.7708339,0-12.4810123-2.7398006-12.7739811-10.2050789h4.9587678Z"/>
  <path d="M319.7811383,70.8986763c-1.1664497-5.8919276-5.8919276-8.8650181-11.6644975-8.8650181-9.9175355,0-14.1167546,8.1651482-14.1167546,16.8565552,0,9.5052091,4.1992191,17.4370674,14.1764334,17.4370674,7.2862419,0,11.485461-5.1323789,12.0117197-12.0171451h5.53928c-1.0470921,10.3841154-7.5195319,16.682944-18.0175796,16.682944-12.9503049,0-19.2491335-9.5648879-19.2491335-21.6959653,0-12.0713985,6.8847662-21.9265426,19.7157134-21.9265426,8.6859816,0,15.8637165,4.6630863,17.1440986,13.5281044h-5.53928Z"/>
  <path d="M358.5181205,99.8863088c-.8789063.5208334-1.9856772.8138021-3.5590281.8138021-2.5661894,0-4.1992191-1.3997397-4.1992191-4.665799-2.7452259,3.2063805-6.4181863,4.665799-10.6174054,4.665799-5.4796011,0-9.971789-2.4522571-9.971789-8.458117,0-6.819662,5.0727001-8.2790805,10.2050789-9.2719191,5.4850265-1.0525174,10.1508255-.6998698,10.1508255-4.432509,0-4.3131514-3.5590281-5.0184466-6.7111551-5.0184466-4.1992191,0-7.2862419,1.2858074-7.5195319,5.7183164h-4.9587678c.2929688-7.4652784,6.0655387-10.0911466,12.7712684-10.0911466,5.4253477,0,11.3172752,1.2261286,11.3172752,8.2845059v15.5110689c0,2.3328995,0,3.3854169,1.5733508,3.3854169.4069011,0,.873481-.0596788,1.5190973-.2929688v3.8519968ZM350.4669046,84.4294933c-1.9259984,1.3997397-5.6586376,1.4594185-8.9843757,2.0399307-3.2660593.5805122-6.0655387,1.7523873-6.0655387,5.4253477,0,3.2660593,2.7994794,4.432509,5.8376741,4.432509,6.5321186,0,9.2122403-4.0852868,9.2122403-6.8250874v-5.0727001Z"/>
  <path d="M363.1242407,69.8461588h4.665799v4.7851566h.1139323c2.1050349-3.7326392,5.4850265-5.4850265,9.7981779-5.4850265,7.9318583,0,10.3841154,4.5518667,10.3841154,11.0243064v19.8296457h-4.9587678v-20.4155832c0-3.6729604-2.3328995-6.0655387-6.1197922-6.0655387-6.0112852,0-8.9246969,4.025608-8.9246969,9.4509556v17.0301663h-4.9587678v-30.1540823Z"/>
  <path d="M422.2740935,99.8863088c-.8789063.5208334-1.9856772.8138021-3.5590281.8138021-2.5607641,0-4.1992191-1.3997397-4.1992191-4.665799-2.7452259,3.2063805-6.4154736,4.665799-10.6146927,4.665799-5.4796011,0-9.971789-2.4522571-9.971789-8.458117,0-6.819662,5.0727001-8.2790805,10.2050789-9.2719191,5.4877392-1.0525174,10.1535381-.6998698,10.1535381-4.432509,0-4.3131514-3.5590281-5.0184466-6.7138677-5.0184466-4.1992191,0-7.2862419,1.2858074-7.5195319,5.7183164h-4.9587678c.2929688-7.4652784,6.0655387-10.0911466,12.7712684-10.0911466,5.422635,0,11.3145625,1.2261286,11.3145625,8.2845059v15.5110689c0,2.3328995,0,3.3854169,1.5733508,3.3854169.4123264,0,.8789063-.0596788,1.5190973-.2929688v3.8519968ZM414.2228776,84.4294933c-1.9205731,1.3997397-5.6559249,1.4594185-8.981663,2.0399307-3.2660593.5805122-6.0655387,1.7523873-6.0655387,5.4253477,0,3.2660593,2.7994794,4.432509,5.8376741,4.432509,6.5294059,0,9.2095276-4.0852868,9.2095276-6.8250874v-5.0727001Z"/>
  <path d="M453.8279155,100.0002411h-4.9587678v-4.0852868h-.1193576c-1.6276043,3.3257381-5.4796011,4.7851566-9.6245667,4.7851566-9.2664938,0-13.8780393-7.3459207-13.8780393-15.8637165s4.5464413-15.6901054,13.7695324-15.6901054c3.0924482,0,7.5195319,1.1664497,9.7330737,4.7254778h.1193576v-15.5110689h4.9587678v41.6395433ZM439.8305185,96.3272808c6.6514762,0,9.2122403-5.7183164,9.2122403-11.3715287,0-5.9516064-2.6801217-11.4366329-9.5052091-11.4366329-6.7599832,0-9.0386292,5.7779953-9.0386292,11.6644975,0,5.6586376,2.918837,11.1436641,9.331598,11.1436641Z"/>
  <path d="M488.1811744,99.8863088c-.8680132.5208334-1.9747842.8138021-3.548135.8138021-2.5716148,0-4.1992191-1.3997397-4.1992191-4.665799-2.7452259,3.2063805-6.4236116,4.665799-10.6228307,4.665799-5.4796011,0-9.971789-2.4522571-9.971789-8.458117,0-6.819662,5.0781254-8.2790805,10.2105043-9.2719191,5.4796011-1.0525174,10.1454001-.6998698,10.1454001-4.432509,0-4.3131514-3.5590281-5.0184466-6.7057297-5.0184466-4.1992191,0-7.2916672,1.2858074-7.5195319,5.7183164h-4.9587678c.2929688-7.4652784,6.0655387-10.0911466,12.7712684-10.0911466,5.4253477,0,11.3172752,1.2261286,11.3172752,8.2845059v15.5110689c0,2.3328995,0,3.3854169,1.5733508,3.3854169.4014757,0,.8680556-.0596788,1.5082043-.2929688v3.8519968ZM480.1408516,84.4294933c-1.9314238,1.3997397-5.664063,1.4594185-8.9843757,2.0399307-3.2660593.5805122-6.0655387,1.7523873-6.0655387,5.4253477,0,3.2660593,2.7994794,4.432509,5.8268234,4.432509,6.5321186,0,9.223091-4.0852868,9.223091-6.8250874v-5.0727001Z"/>
  <rect x="150.000012" width="50.000004" height="100.000008" fill="#eb2d37"/>
  <path d="M97.8405713,92.3583422s.6838905-16.8511086.6838905-18.5299994c0-1.6794418-1.4161217-2.2599964-3.0977675-1.8911151-1.6822181.3688919-17.4266617,3.5699953-17.4266617,3.5699953,0,0,1.1450027-3.4316701,2.0399943-5.9300004.7977804-2.2105537-.2494388-2.991666-.8355459-3.5099986-.6127676-.5400022-17.5994463-15.2344504-17.5994463-15.2344504l2.788332-1.3616669c1.6766655-.7866648,1.4105586-2.2055522,1.1505552-3.1494461-.2605544-.9466702-3.0655545-10.7722185-3.0655545-10.7722185,0,0,7.340559,1.6438909,9.0605531,1.9099979,1.3616669.2088865,1.8388856-.417773,2.2622216-1.3644431.4122205-.9466702,2.2027759-5.2494477,2.2027759-5.2494477,0,0,8.9894514,9.9555553,9.1794445,10.129442,1.7361113,1.5761165,3.4833275.355551,3.1033412-1.4705553-.3527748-1.6899958-4.6222267-21.573895-4.6222267-21.573895,0,0,4.7738821,2.8349985,6.3527854,3.7788924,1.5788821.9466702,2.4144492.7866648,3.2555477-.7322206.8405474-1.5244485,6.7272192-13.3355575,6.7272192-13.3355575,0,0,5.8866717,11.811109,6.7272192,13.3355575.8411196,1.5188854,1.6766655,1.6788908,3.2555477.7322206,1.5788821-.9438939,6.3527854-3.7788924,6.3527854-3.7788924,0,0-4.2694519,19.8838886-4.6222267,21.573895-.3800075,1.8261063,1.36723,3.0466718,3.1033412,1.4705553.1899931-.1738866,9.1794551-10.129442,9.1794551-10.129442,0,0,1.7905555,4.3027775,2.2027759,5.2494477.4233255.9466702.9005653,1.5733296,2.2622216,1.3644431,1.7200047-.2661069,9.0605637-1.9099979,9.0605637-1.9099979,0,0-2.8049895,9.8255589-3.0655545,10.7722185-.2599928.9438939-.5261104,2.3627813,1.1505552,3.1494461l2.788332,1.3616669s-16.9866575,14.6944482-17.5994463,15.2344398c-.5861071.5183326-1.6277738,1.2994449-.8355459,3.5099986.8949916,2.4983302,2.0399943,5.9300004,2.0399943,5.9300004,0,0-15.7444437-3.2011141-17.4266617-3.5699953-1.681667-.3688919-3.0977675.2116627-3.0977675,1.8911151,0,1.6788908.6838905,18.53001.6838905,18.53001h-4.318937Z" fill="#eb2d37"/>
  <rect width="50.000004" height="100.000008" fill="#eb2d37"/>
</svg>