<svg width="459" height="60" viewBox="0 0 459 60" fill="none" xmlns="http://www.w3.org/2000/svg">
<g clip-path="url(#clip0_1_28)">
<path d="M341.665 0.013031H352.498C357.415 0.013031 360.078 2.75275 360.078 7.32647C360.078 11.9002 357.415 14.6721 352.498 14.6367H344.952V24.7543H341.665V0.013031ZM344.952 11.8647H351.39C355.093 11.9002 356.79 10.2693 356.79 7.32647C356.79 4.38047 355.093 2.78498 351.39 2.78498H344.952V11.8647Z" fill="black"/>
<path d="M378.086 24.6834C377.565 24.9961 376.908 25.1701 375.974 25.1701C374.451 25.1701 373.481 24.3385 373.481 22.3982C371.852 24.3031 369.672 25.1701 367.179 25.1701C363.927 25.1701 361.26 23.7164 361.26 20.1451C361.26 16.0904 364.271 15.2265 367.318 14.6367C370.573 14.0146 373.343 14.2209 373.343 12.0033C373.343 9.43767 371.23 9.0251 369.359 9.0251C366.867 9.0251 365.034 9.78577 364.896 12.4191H361.953C362.126 7.984 365.553 6.42397 369.533 6.42397C372.753 6.42397 376.251 7.15242 376.251 11.3458V20.5609C376.251 21.9469 376.251 22.5722 377.185 22.5722C377.426 22.5722 377.703 22.5367 378.086 22.3982V24.6834ZM373.307 15.5037C372.164 16.3353 369.949 16.3675 367.975 16.7157C366.036 17.0638 364.374 17.7535 364.374 19.9388C364.374 21.8792 366.036 22.5722 367.839 22.5722C371.717 22.5722 373.307 20.1451 373.307 18.5174V15.5037Z" fill="black"/>
<path d="M380.721 6.83977H383.49V10.6174H383.558C384.978 7.74226 386.952 6.32083 390.137 6.42398V9.54403C385.393 9.54403 383.664 12.2451 383.664 16.7866V24.7543H380.721V6.83977Z" fill="black"/>
<path d="M392.526 0.013031H395.47V14.6721L403.636 6.83977H407.584L400.487 13.3539L408.103 24.7543H404.364L398.239 15.4006L395.47 17.963V24.7543H392.526V0.013031Z" fill="black"/>
<path d="M412.122 19.1073C412.225 21.7406 414.511 22.5722 416.933 22.5722C418.769 22.5722 421.261 22.1564 421.261 19.9034C421.261 17.6181 418.353 17.2346 415.41 16.5771C412.502 15.9195 409.562 14.9493 409.562 11.5199C409.562 7.91632 413.127 6.42397 416.241 6.42397C420.189 6.42397 423.338 7.67135 423.58 12.0388H420.64C420.43 9.75032 418.424 9.0251 416.485 9.0251C414.717 9.0251 412.676 9.50858 412.676 11.3103C412.676 13.4248 415.79 13.7696 418.527 14.4272C421.47 15.0879 424.375 16.0581 424.375 19.5231C424.375 23.7841 420.395 25.1701 416.762 25.1701C412.743 25.1701 409.352 23.5424 409.178 19.1073H412.122Z" fill="black"/>
<path d="M359.041 42.1209C358.349 38.6205 355.544 36.8542 352.118 36.8542C346.231 36.8542 343.738 41.7051 343.738 46.8655C343.738 52.5157 346.231 57.228 352.153 57.228C356.478 57.228 358.971 54.1789 359.283 50.0887H362.571C361.949 56.2579 358.107 60 351.876 60C344.189 60 340.45 54.3175 340.45 47.1104C340.45 39.9356 344.537 34.0823 352.153 34.0823C357.309 34.0823 361.569 36.8542 362.329 42.1209H359.041Z" fill="black"/>
<path d="M382.034 59.3392C381.513 59.6519 380.856 59.826 379.922 59.826C378.399 59.826 377.429 58.9944 377.429 57.054C375.8 58.9589 373.62 59.826 371.127 59.826C367.875 59.826 365.208 58.3723 365.208 54.801C365.208 50.7462 368.219 49.8824 371.266 49.2925C374.521 48.6705 377.291 48.8767 377.291 46.6592C377.291 44.0935 375.178 43.6809 373.307 43.6809C370.815 43.6809 368.983 44.4416 368.844 47.075H365.901C366.075 42.6398 369.501 41.0798 373.481 41.0798C376.702 41.0798 380.199 41.8083 380.199 46.0016V55.2168C380.199 56.6028 380.199 57.228 381.133 57.228C381.374 57.228 381.651 57.1926 382.034 57.054V59.3392ZM377.255 50.1596C376.112 50.9912 373.897 51.0234 371.923 51.3715C369.984 51.7196 368.322 52.4094 368.322 54.5947C368.322 56.5351 369.984 57.228 371.787 57.228C375.665 57.228 377.255 54.801 377.255 53.1733V50.1596Z" fill="black"/>
<path d="M384.768 41.4956H387.538V44.3385H387.606C388.855 42.1209 390.861 41.0798 393.421 41.0798C398.13 41.0798 399.585 43.7841 399.585 47.6294V59.4102H396.642V47.2845C396.642 45.0991 395.257 43.6809 393.009 43.6809C389.441 43.6809 387.712 46.0693 387.712 49.2925V59.4102H384.768V41.4956Z" fill="black"/>
<path d="M419.88 59.3392C419.358 59.6519 418.701 59.826 417.767 59.826C416.244 59.826 415.275 58.9944 415.275 57.054C413.645 58.9589 411.465 59.826 408.972 59.826C405.72 59.826 403.053 58.3723 403.053 54.801C403.053 50.7462 406.064 49.8824 409.111 49.2925C412.367 48.6705 415.136 48.8767 415.136 46.6592C415.136 44.0935 413.024 43.6809 411.153 43.6809C408.66 43.6809 406.828 44.4416 406.689 47.075H403.746C403.92 42.6398 407.346 41.0798 411.326 41.0798C414.547 41.0798 418.044 41.8083 418.044 46.0016V55.2168C418.044 56.6028 418.044 57.228 418.978 57.228C419.219 57.228 419.496 57.1926 419.88 57.054V59.3392ZM415.101 50.1596C413.957 50.9912 411.742 51.0234 409.768 51.3715C407.829 51.7196 406.167 52.4094 406.167 54.5947C406.167 56.5351 407.829 57.228 409.633 57.228C413.51 57.228 415.101 54.801 415.101 53.1733V50.1596Z" fill="black"/>
<path d="M438.609 59.4102H435.666V56.9863H435.595C434.625 58.9589 432.342 59.8259 429.882 59.8259C424.378 59.8259 421.644 55.4585 421.644 50.4013C421.644 45.3441 424.343 41.0798 429.814 41.0798C431.65 41.0798 434.281 41.7728 435.595 43.8872H435.666V34.6689H438.609V59.4102ZM430.301 57.228C434.245 57.228 435.769 53.8308 435.769 50.469C435.769 46.9364 434.178 43.6809 430.127 43.6809C426.111 43.6809 424.762 47.1104 424.762 50.6108C424.762 53.9694 426.491 57.228 430.301 57.228Z" fill="black"/>
<path d="M459 59.3392C458.482 59.6519 457.825 59.826 456.891 59.826C455.367 59.826 454.398 58.9944 454.398 57.054C452.772 58.9589 450.589 59.826 448.096 59.826C444.843 59.826 442.177 58.3723 442.177 54.801C442.177 50.7462 445.188 49.8824 448.235 49.2925C451.49 48.6705 454.26 48.8767 454.26 46.6592C454.26 44.0935 452.147 43.6809 450.279 43.6809C447.787 43.6809 445.951 44.4416 445.813 47.075H442.869C443.043 42.6398 446.47 41.0798 450.45 41.0798C453.67 41.0798 457.168 41.8083 457.168 46.0016V55.2168C457.168 56.6028 457.168 57.228 458.102 57.228C458.343 57.228 458.62 57.1926 459 57.054V59.3392ZM454.224 50.1596C453.081 50.9912 450.865 51.0234 448.895 51.3715C446.956 51.7196 445.294 52.4094 445.294 54.5947C445.294 56.5351 446.956 57.228 448.753 57.228C452.63 57.228 454.224 54.801 454.224 53.1733V50.1596Z" fill="black"/>
<path d="M172.435 0.0178661H183.268C188.186 0.0178661 190.849 2.75436 190.849 7.32808C190.849 11.9018 188.186 14.6738 183.268 14.6383H175.723V24.7559H172.435V0.0178661ZM175.723 11.8663H182.161C185.864 11.9018 187.561 10.2741 187.561 7.32808C187.561 4.38208 185.864 2.78982 182.161 2.78982H175.723V11.8663Z" fill="black"/>
<path d="M208.857 24.6882C208.335 24.9977 207.678 25.1717 206.745 25.1717C205.221 25.1717 204.252 24.3401 204.252 22.3998C202.623 24.3047 200.442 25.1717 197.95 25.1717C194.697 25.1717 192.031 23.7148 192.031 20.1467C192.031 16.0952 195.042 15.2281 198.088 14.6383C201.344 14.013 204.114 14.2225 204.114 12.0049C204.114 9.4425 202.001 9.02349 200.13 9.02349C197.637 9.02349 195.805 9.78738 195.667 12.4207H192.723C192.897 7.98562 196.324 6.42559 200.304 6.42559C203.524 6.42559 207.021 7.15403 207.021 11.3474V20.5625C207.021 21.9485 207.021 22.5738 207.955 22.5738C208.197 22.5738 208.474 22.5384 208.857 22.3998V24.6882ZM204.078 15.5053C202.935 16.3369 200.719 16.3724 198.745 16.7173C196.807 17.0621 195.145 17.7584 195.145 19.9405C195.145 21.8808 196.807 22.5738 198.61 22.5738C202.487 22.5738 204.078 20.1467 204.078 18.519V15.5053Z" fill="black"/>
<path d="M211.491 6.84138H214.261V10.619H214.328C215.749 7.74388 217.723 6.32244 220.907 6.42559V9.54564C216.164 9.54564 214.435 12.2467 214.435 16.785V24.7559H211.491V6.84138Z" fill="black"/>
<path d="M234.652 12.5948C234.201 10.3418 232.646 9.02349 230.221 9.02349C225.963 9.02349 224.649 12.3853 224.649 16.0243C224.649 19.3152 226.137 22.5738 229.876 22.5738C232.713 22.5738 234.41 20.9106 234.79 18.2064H237.801C237.144 22.5738 234.41 25.1717 229.911 25.1717C224.44 25.1717 221.532 21.3619 221.532 16.0243C221.532 10.6544 224.302 6.42559 229.979 6.42559C234.03 6.42559 237.283 8.33372 237.698 12.5948H234.652Z" fill="black"/>
<path d="M242.893 19.1089C242.997 21.7422 245.284 22.5738 247.705 22.5738C249.541 22.5738 252.033 22.158 252.033 19.905C252.033 17.6165 249.122 17.2362 246.179 16.5787C243.274 15.9211 240.332 14.9509 240.332 11.5182C240.332 7.9147 243.899 6.42559 247.01 6.42559C250.958 6.42559 254.107 7.67296 254.352 12.0404H251.409C251.203 9.75193 249.193 9.02349 247.254 9.02349C245.49 9.02349 243.448 9.51019 243.448 11.312C243.448 13.4264 246.559 13.7713 249.296 14.432C252.24 15.0895 255.144 16.0597 255.144 19.5247C255.144 23.7857 251.164 25.1717 247.531 25.1717C243.512 25.1717 240.123 23.544 239.949 19.1089H242.893Z" fill="black"/>
<path d="M189.812 42.1209C189.12 38.6205 186.315 36.8542 182.888 36.8542C177.002 36.8542 174.509 41.7051 174.509 46.8687C174.509 52.5157 177.002 57.228 182.924 57.228C187.249 57.228 189.741 54.1789 190.054 50.0887H193.342C192.72 56.2579 188.878 60 182.647 60C174.96 60 171.221 54.3175 171.221 47.1104C171.221 39.9388 175.308 34.0839 182.924 34.0839C188.08 34.0839 192.34 36.8542 193.1 42.1209H189.812Z" fill="black"/>
<path d="M212.805 59.3425C212.283 59.6519 211.627 59.826 210.693 59.826C209.169 59.826 208.2 58.9944 208.2 57.054C206.571 58.9589 204.39 59.826 201.898 59.826C198.645 59.826 195.979 58.3691 195.979 54.801C195.979 50.7494 198.99 49.8824 202.036 49.2925C205.292 48.6672 208.062 48.8767 208.062 46.6592C208.062 44.0967 205.949 43.6777 204.078 43.6777C201.586 43.6777 199.753 44.4416 199.615 47.075H196.671C196.845 42.6398 200.272 41.0798 204.252 41.0798C207.472 41.0798 210.97 41.8083 210.97 46.0016V55.2168C210.97 56.6028 210.97 57.228 211.903 57.228C212.145 57.228 212.422 57.1926 212.805 57.054V59.3425ZM208.026 50.1596C206.883 50.9912 204.667 51.0266 202.693 51.3715C200.755 51.7164 199.093 52.4126 199.093 54.5947C199.093 56.5351 200.755 57.228 202.558 57.228C206.435 57.228 208.026 54.801 208.026 53.1733V50.1596Z" fill="black"/>
<path d="M215.539 41.4956H218.309V44.3385H218.376C219.626 42.1209 221.632 41.0798 224.192 41.0798C228.9 41.0798 230.356 43.7841 230.356 47.6294V59.4102H227.412V47.2813C227.412 45.0991 226.028 43.6777 223.78 43.6777C220.212 43.6777 218.483 46.0693 218.483 49.2925V59.4102H215.539V41.4956Z" fill="black"/>
<path d="M250.649 59.3425C250.127 59.6519 249.47 59.826 248.536 59.826C247.016 59.826 246.044 58.9944 246.044 57.054C244.414 58.9589 242.236 59.826 239.743 59.826C236.491 59.826 233.824 58.3691 233.824 54.801C233.824 50.7494 236.835 49.8824 239.882 49.2925C243.139 48.6672 245.908 48.8767 245.908 46.6592C245.908 44.0967 243.796 43.6777 241.923 43.6777C239.431 43.6777 237.598 44.4416 237.46 47.075H234.517C234.69 42.6398 238.117 41.0798 242.097 41.0798C245.316 41.0798 248.813 41.8083 248.813 46.0016V55.2168C248.813 56.6028 248.813 57.228 249.747 57.228C249.992 57.228 250.269 57.1926 250.649 57.054V59.3425ZM245.87 50.1596C244.73 50.9912 242.513 51.0266 240.539 51.3715C238.6 51.7164 236.938 52.4126 236.938 54.5947C236.938 56.5351 238.6 57.228 240.403 57.228C244.279 57.228 245.87 54.801 245.87 53.1733V50.1596Z" fill="black"/>
<path d="M269.378 59.4102H266.435V56.9831H266.364C265.398 58.9589 263.111 59.8259 260.651 59.8259C255.151 59.8259 252.413 55.4617 252.413 50.4013C252.413 45.3409 255.112 41.0798 260.587 41.0798C262.422 41.0798 265.05 41.7728 266.364 43.8872H266.435V34.6721H269.378V59.4102ZM261.07 57.228C265.018 57.228 266.538 53.8308 266.538 50.4722C266.538 46.9364 264.947 43.6777 260.896 43.6777C256.883 43.6777 255.531 47.1104 255.531 50.6076C255.531 53.9694 257.263 57.228 261.07 57.228Z" fill="black"/>
<path d="M289.769 59.3425C289.254 59.6519 288.597 59.826 287.663 59.826C286.137 59.826 285.17 58.9944 285.17 57.054C283.541 58.9589 281.358 59.826 278.865 59.826C275.613 59.826 272.946 58.3691 272.946 54.801C272.946 50.7494 275.96 49.8824 279.007 49.2925C282.259 48.6672 285.029 48.8767 285.029 46.6592C285.029 44.0967 282.916 43.6777 281.048 43.6777C278.556 43.6777 276.72 44.4416 276.585 47.075H273.642C273.816 42.6398 277.242 41.0798 281.222 41.0798C284.443 41.0798 287.94 41.8083 287.94 46.0016V55.2168C287.94 56.6028 287.94 57.228 288.874 57.228C289.112 57.228 289.389 57.1926 289.769 57.054V59.3425ZM284.997 50.1596C283.85 50.9912 281.635 51.0266 279.664 51.3715C277.725 51.7164 276.063 52.4126 276.063 54.5947C276.063 56.5351 277.725 57.228 279.522 57.228C283.399 57.228 284.997 54.801 284.997 53.1733V50.1596Z" fill="black"/>
<path d="M118.714 0H89.0353V59.41H118.714V0Z" fill="#EB2D37"/>
<path d="M58.0751 54.8701C58.0751 54.8701 58.4811 44.8589 58.4811 43.8614C58.4811 42.8637 57.6405 42.5188 56.6423 42.7379C55.6438 42.9571 46.2984 44.8589 46.2984 44.8589C46.2984 44.8589 46.978 42.8201 47.5093 41.3358C47.9828 40.0225 47.3612 39.5585 47.0133 39.2505C46.6496 38.9297 36.5668 30.1998 36.5668 30.1998L38.2219 29.3908C39.2171 28.9234 39.0592 28.0805 38.9048 27.5197C38.7502 26.9573 37.0852 21.1199 37.0852 21.1199C37.0852 21.1199 41.4423 22.0966 42.4633 22.2547C43.2715 22.3788 43.5548 22.0065 43.8061 21.444C44.0507 20.8816 45.1136 18.3253 45.1136 18.3253C45.1136 18.3253 50.4494 24.2399 50.5622 24.3432C51.5927 25.2796 52.6298 24.5545 52.4042 23.4696C52.1948 22.4656 49.6606 10.6525 49.6606 10.6525C49.6606 10.6525 52.4943 12.3368 53.4314 12.8976C54.3686 13.46 54.8646 13.3649 55.3638 12.4626C55.8628 11.5569 59.3569 4.53991 59.3569 4.53991C59.3569 4.53991 62.851 11.5569 63.35 12.4626C63.8492 13.3649 64.3452 13.46 65.2824 12.8976C66.2195 12.3368 69.0532 10.6525 69.0532 10.6525C69.0532 10.6525 66.519 22.4656 66.3096 23.4696C66.084 24.5545 67.1211 25.2796 68.1516 24.3432C68.2644 24.2399 73.6003 18.3253 73.6003 18.3253C73.6003 18.3253 74.6631 20.8816 74.9078 21.444C75.159 22.0065 75.4423 22.3788 76.2505 22.2547C77.2715 22.0966 81.6286 21.1199 81.6286 21.1199C81.6286 21.1199 79.9636 26.9573 79.809 27.5197C79.6547 28.0805 79.4967 28.9234 80.4919 29.3908L82.147 30.1998C82.147 30.1998 72.0642 38.9297 71.7005 39.2505C71.3526 39.5585 70.7343 40.0225 71.2045 41.3358C71.7358 42.8201 72.4154 44.8588 72.4154 44.8588C72.4154 44.8588 63.07 42.9571 62.0715 42.7379C61.0733 42.5188 60.2328 42.8637 60.2328 43.8614C60.2328 44.8588 60.6387 54.8701 60.6387 54.8701H58.0751Z" fill="#EB2D37"/>
<path d="M29.6784 0H0V59.41H29.6784V0Z" fill="#EB2D37"/>
</g>
<defs>
<clipPath id="clip0_1_28">
<rect width="459" height="60" fill="white"/>
</clipPath>
</defs>
</svg>
