<svg width="100" height="13" viewBox="0 0 100 13" fill="none" xmlns="http://www.w3.org/2000/svg">
<g clip-path="url(#clip0_13010_183)">
<mask id="mask0_13010_183" style="mask-type:luminance" maskUnits="userSpaceOnUse" x="0" y="0" width="100" height="13">
<path d="M100 0H0V13H100V0Z" fill="white"/>
</mask>
<g mask="url(#mask0_13010_183)">
<path d="M74.4375 0.00195312H76.7976C77.8689 0.00195312 78.449 0.595559 78.449 1.58653C78.449 2.57751 77.8689 3.17808 76.7976 3.17041H75.1536V5.36256H74.4375V0.00195312ZM75.1536 2.56981H76.5562C77.363 2.57751 77.7327 2.22414 77.7327 1.58653C77.7327 0.948232 77.363 0.602542 76.5562 0.602542H75.1536V2.56981Z" fill="black"/>
<path d="M82.3709 5.34879C82.2574 5.41654 82.1142 5.45424 81.9107 5.45424C81.5789 5.45424 81.3676 5.27406 81.3676 4.85366C81.0127 5.26639 80.5378 5.45424 79.9946 5.45424C79.2861 5.45424 78.7051 5.13927 78.7051 4.36549C78.7051 3.48697 79.3611 3.29979 80.0249 3.172C80.7341 3.03721 81.3375 3.08191 81.3375 2.60143C81.3375 2.04555 80.8772 1.95616 80.4696 1.95616C79.9266 1.95616 79.5273 2.12097 79.4972 2.69152H78.8561C78.8937 1.73058 79.6404 1.39258 80.5075 1.39258C81.209 1.39258 81.9711 1.55041 81.9711 2.45897V4.45558C81.9711 4.75588 81.9711 4.89136 82.1746 4.89136C82.2271 4.89136 82.2874 4.88367 82.3709 4.85366V5.34879ZM81.3297 3.35985C81.0807 3.54003 80.5981 3.54701 80.168 3.62245C79.7456 3.69787 79.3835 3.84731 79.3835 4.32079C79.3835 4.74121 79.7456 4.89136 80.1384 4.89136C80.9833 4.89136 81.3297 4.36549 81.3297 4.01282V3.35985Z" fill="black"/>
<path d="M82.9453 1.48185H83.5486V2.30033H83.5634C83.8728 1.67739 84.3028 1.36941 84.9967 1.39176V2.06777C83.9632 2.06777 83.5865 2.653 83.5865 3.63699V5.36333H82.9453V1.48185Z" fill="black"/>
<path d="M85.5176 0.00195312H86.159V3.17808L87.9381 1.48108H88.7982L87.252 2.89247L88.9113 5.36256H88.0967L86.7622 3.33593L86.159 3.89111V5.36256H85.5176V0.00195312Z" fill="black"/>
<path d="M89.7879 4.14063C89.8103 4.71118 90.3084 4.89136 90.836 4.89136C91.236 4.89136 91.7789 4.80127 91.7789 4.31312C91.7789 3.81797 91.1454 3.73488 90.5042 3.59242C89.8707 3.44994 89.2301 3.23973 89.2301 2.4967C89.2301 1.71592 90.0068 1.39258 90.6853 1.39258C91.5454 1.39258 92.2314 1.66284 92.2842 2.60912H91.6437C91.5979 2.11329 91.1609 1.95616 90.7384 1.95616C90.3532 1.95616 89.9086 2.06091 89.9086 2.45128C89.9086 2.90942 90.587 2.98413 91.1833 3.12661C91.8245 3.26976 92.4574 3.47997 92.4574 4.23072C92.4574 5.15394 91.5903 5.45424 90.7988 5.45424C89.9232 5.45424 89.1844 5.10157 89.1465 4.14063H89.7879Z" fill="black"/>
<path d="M78.2222 9.12646C78.0714 8.36804 77.4603 7.98534 76.7139 7.98534C75.4314 7.98534 74.8882 9.03637 74.8882 10.1545C74.8882 11.3787 75.4314 12.3997 76.7215 12.3997C77.6638 12.3997 78.2069 11.739 78.2749 10.8528H78.9913C78.8558 12.1895 78.0187 13.0003 76.6612 13.0003C74.9865 13.0003 74.1719 11.7691 74.1719 10.2075C74.1719 8.65298 75.0623 7.38477 76.7215 7.38477C77.8449 7.38477 78.773 7.98534 78.9385 9.12646H78.2222Z" fill="black"/>
<path d="M83.2322 12.8566C83.1187 12.9243 82.9756 12.9621 82.7721 12.9621C82.4403 12.9621 82.2289 12.7819 82.2289 12.3615C81.874 12.7742 81.3991 12.9621 80.856 12.9621C80.1475 12.9621 79.5664 12.6471 79.5664 11.8733C79.5664 10.9948 80.2224 10.8076 80.8862 10.6798C81.5954 10.545 82.1989 10.5897 82.1989 10.1093C82.1989 9.55336 81.7385 9.46396 81.3309 9.46396C80.788 9.46396 80.3888 9.62878 80.3586 10.1994H79.7174C79.7553 9.23839 80.5017 8.90039 81.3688 8.90039C82.0705 8.90039 82.8324 9.05823 82.8324 9.96678V11.9634C82.8324 12.2637 82.8324 12.3992 83.0359 12.3992C83.0884 12.3992 83.1488 12.3915 83.2322 12.3615V12.8566ZM82.191 10.8677C81.942 11.0479 81.4594 11.0548 81.0294 11.1303C80.6069 11.2057 80.2448 11.3551 80.2448 11.8286C80.2448 12.249 80.6069 12.3992 80.9997 12.3992C81.8446 12.3992 82.191 11.8733 82.191 11.5206V10.8677Z" fill="black"/>
<path d="M83.8281 8.99048H84.4316V9.60644H84.4464C84.7185 9.12596 85.1556 8.90039 85.7133 8.90039C86.7392 8.90039 87.0562 9.48632 87.0562 10.3195V12.872H86.4151V10.2447C86.4151 9.77124 86.1133 9.46396 85.6235 9.46396C84.8462 9.46396 84.4695 9.98145 84.4695 10.6798V12.872H83.8281V8.99048Z" fill="black"/>
<path d="M91.4766 12.8566C91.3628 12.9243 91.2197 12.9621 91.0162 12.9621C90.6844 12.9621 90.4733 12.7819 90.4733 12.3615C90.1182 12.7742 89.6432 12.9621 89.1001 12.9621C88.3916 12.9621 87.8105 12.6471 87.8105 11.8733C87.8105 10.9948 88.4665 10.8076 89.1304 10.6798C89.8397 10.545 90.443 10.5897 90.443 10.1093C90.443 9.55336 89.9829 9.46396 89.5753 9.46396C89.0321 9.46396 88.633 9.62878 88.6027 10.1994H87.9615C87.9994 9.23839 88.7458 8.90039 89.6129 8.90039C90.3147 8.90039 91.0766 9.05823 91.0766 9.96678V11.9634C91.0766 12.2637 91.0766 12.3992 91.28 12.3992C91.3325 12.3992 91.3929 12.3915 91.4766 12.3615V12.8566ZM90.4354 10.8677C90.1861 11.0479 89.7036 11.0548 89.2735 11.1303C88.8511 11.2057 88.489 11.3551 88.489 11.8286C88.489 12.249 88.8511 12.3992 89.2441 12.3992C90.0888 12.3992 90.4354 11.8733 90.4354 11.5206V10.8677Z" fill="black"/>
<path d="M95.5574 12.8723H94.9162V12.3472H94.9008C94.6894 12.7746 94.192 12.9624 93.6561 12.9624C92.457 12.9624 91.8613 12.0161 91.8613 10.9204C91.8613 9.82468 92.4493 8.90075 93.6413 8.90075C94.0413 8.90075 94.6145 9.0509 94.9008 9.50902H94.9162V7.51172H95.5574V12.8723ZM93.7474 12.3995C94.6066 12.3995 94.9387 11.6635 94.9387 10.9351C94.9387 10.1697 94.592 9.46432 93.7095 9.46432C92.8345 9.46432 92.5406 10.2074 92.5406 10.9658C92.5406 11.6935 92.9173 12.3995 93.7474 12.3995Z" fill="black"/>
<path d="M99.9991 12.8566C99.8863 12.9243 99.7431 12.9621 99.5396 12.9621C99.2076 12.9621 98.9965 12.7819 98.9965 12.3615C98.6423 12.7742 98.1667 12.9621 97.6235 12.9621C96.9148 12.9621 96.334 12.6471 96.334 11.8733C96.334 10.9948 96.99 10.8076 97.6538 10.6798C98.363 10.545 98.9664 10.5897 98.9664 10.1093C98.9664 9.55336 98.5061 9.46396 98.0991 9.46396C97.5562 9.46396 97.1562 9.62878 97.1261 10.1994H96.4847C96.5227 9.23839 97.2693 8.90039 98.1364 8.90039C98.8379 8.90039 99.6 9.05823 99.6 9.96678V11.9634C99.6 12.2637 99.6 12.3992 99.8035 12.3992C99.856 12.3992 99.9163 12.3915 99.9991 12.3615V12.8566ZM98.9586 10.8677C98.7096 11.0479 98.2268 11.0548 97.7976 11.1303C97.3752 11.2057 97.0131 11.3551 97.0131 11.8286C97.0131 12.249 97.3752 12.3992 97.7667 12.3992C98.6113 12.3992 98.9586 11.8733 98.9586 11.5206V10.8677Z" fill="black"/>
<path d="M37.5684 0.00390625H39.9285C41 0.00390625 41.5801 0.596813 41.5801 1.58779C41.5801 2.57876 41 3.17936 39.9285 3.17167H38.2847V5.36381H37.5684V0.00390625ZM38.2847 2.57107H39.6873C40.4941 2.57876 40.8638 2.22609 40.8638 1.58779C40.8638 0.949486 40.4941 0.604496 39.6873 0.604496H38.2847V2.57107Z" fill="black"/>
<path d="M45.5017 5.34948C45.388 5.41654 45.2449 5.45424 45.0416 5.45424C44.7096 5.45424 44.4985 5.27406 44.4985 4.85366C44.1436 5.26639 43.6684 5.45424 43.1255 5.45424C42.4168 5.45424 41.8359 5.13857 41.8359 4.36549C41.8359 3.48766 42.4919 3.29979 43.1555 3.172C43.8649 3.03652 44.4684 3.08191 44.4684 2.60143C44.4684 2.04624 44.0081 1.95546 43.6004 1.95546C43.0573 1.95546 42.6582 2.12097 42.6281 2.69152H41.9867C42.0246 1.73058 42.7712 1.39258 43.6383 1.39258C44.3399 1.39258 45.1017 1.55041 45.1017 2.45897V4.45558C45.1017 4.75588 45.1017 4.89136 45.3052 4.89136C45.3579 4.89136 45.4183 4.88369 45.5017 4.85366V5.34948ZM44.4606 3.35985C44.2115 3.54003 43.7287 3.54772 43.2987 3.62245C42.8765 3.69716 42.5144 3.84802 42.5144 4.32081C42.5144 4.74121 42.8765 4.89136 43.2693 4.89136C44.1139 4.89136 44.4606 4.36549 44.4606 4.01282V3.35985Z" fill="black"/>
<path d="M46.0762 1.48185H46.6797V2.30033H46.6943C47.0038 1.67739 47.4339 1.36941 48.1276 1.39176V2.06777C47.0943 2.06777 46.7176 2.653 46.7176 3.6363V5.36333H46.0762V1.48185Z" fill="black"/>
<path d="M51.1221 2.72924C51.0238 2.24109 50.685 1.95546 50.1567 1.95546C49.229 1.95546 48.9428 2.68385 48.9428 3.4723C48.9428 4.18533 49.2669 4.89136 50.0815 4.89136C50.6996 4.89136 51.0693 4.531 51.1521 3.94509H51.8081C51.665 4.89136 51.0693 5.45424 50.0892 5.45424C48.8972 5.45424 48.2637 4.62878 48.2637 3.4723C48.2637 2.30882 48.8672 1.39258 50.104 1.39258C50.9865 1.39258 51.6953 1.80601 51.7857 2.72924H51.1221Z" fill="black"/>
<path d="M52.9187 4.14063C52.9414 4.71118 53.4397 4.89136 53.9671 4.89136C54.3671 4.89136 54.91 4.80127 54.91 4.31312C54.91 3.81728 54.2758 3.73488 53.6346 3.59242C53.0017 3.44994 52.3608 3.23973 52.3608 2.49598C52.3608 1.71522 53.1379 1.39258 53.8157 1.39258C54.6758 1.39258 55.3619 1.66284 55.4153 2.60912H54.7741C54.7292 2.11329 54.2913 1.95546 53.8688 1.95546C53.4845 1.95546 53.0397 2.06091 53.0397 2.4513C53.0397 2.90942 53.7174 2.98415 54.3137 3.1273C54.9551 3.26976 55.5878 3.47997 55.5878 4.23072C55.5878 5.15394 54.7207 5.45424 53.9292 5.45424C53.0536 5.45424 52.3153 5.10157 52.2773 4.14063H52.9187Z" fill="black"/>
<path d="M41.3531 9.12612C41.2023 8.3677 40.5912 7.985 39.8446 7.985C38.5622 7.985 38.0191 9.03603 38.0191 10.1548C38.0191 11.3783 38.5622 12.3993 39.8524 12.3993C40.7947 12.3993 41.3376 11.7387 41.4058 10.8525H42.1221C41.9866 12.1891 41.1496 12.9999 39.7921 12.9999C38.1173 12.9999 37.3027 11.7687 37.3027 10.2072C37.3027 8.65333 38.1931 7.38477 39.8524 7.38477C40.9757 7.38477 41.9038 7.985 42.0694 9.12612H41.3531Z" fill="black"/>
<path d="M46.3631 12.8573C46.2493 12.9243 46.1064 12.9621 45.9029 12.9621C45.5709 12.9621 45.3598 12.7819 45.3598 12.3615C45.0049 12.7742 44.5297 12.9621 43.9868 12.9621C43.2781 12.9621 42.6973 12.6464 42.6973 11.8733C42.6973 10.9955 43.3533 10.8076 44.0169 10.6798C44.7262 10.5443 45.3297 10.5897 45.3297 10.1093C45.3297 9.55405 44.8694 9.46327 44.4618 9.46327C43.9188 9.46327 43.5195 9.62878 43.4894 10.1994H42.848C42.8859 9.23839 43.6326 8.90039 44.4997 8.90039C45.2012 8.90039 45.9633 9.05823 45.9633 9.96678V11.9634C45.9633 12.2637 45.9633 12.3992 46.1665 12.3992C46.2193 12.3992 46.2796 12.3915 46.3631 12.3615V12.8573ZM45.3219 10.8677C45.0729 11.0479 44.5901 11.0555 44.16 11.1303C43.7378 11.205 43.3757 11.3558 43.3757 11.8286C43.3757 12.249 43.7378 12.3992 44.1306 12.3992C44.9753 12.3992 45.3219 11.8733 45.3219 11.5206V10.8677Z" fill="black"/>
<path d="M46.959 8.99048H47.5625V9.60644H47.5771C47.8494 9.12596 48.2864 8.90039 48.8442 8.90039C49.8699 8.90039 50.1871 9.48632 50.1871 10.3195V12.872H49.5457V10.244C49.5457 9.77124 49.2442 9.46327 48.7544 9.46327C47.9771 9.46327 47.6004 9.98145 47.6004 10.6798V12.872H46.959V8.99048Z" fill="black"/>
<path d="M54.607 12.8573C54.4933 12.9243 54.3501 12.9621 54.1466 12.9621C53.8155 12.9621 53.6037 12.7819 53.6037 12.3615C53.2486 12.7742 52.7741 12.9621 52.2309 12.9621C51.5225 12.9621 50.9414 12.6464 50.9414 11.8733C50.9414 10.9955 51.5974 10.8076 52.2612 10.6798C52.9708 10.5443 53.5741 10.5897 53.5741 10.1093C53.5741 9.55405 53.114 9.46327 52.7059 9.46327C52.163 9.46327 51.7636 9.62878 51.7336 10.1994H51.0924C51.1301 9.23839 51.8767 8.90039 52.7438 8.90039C53.4451 8.90039 54.207 9.05823 54.207 9.96678V11.9634C54.207 12.2637 54.207 12.3992 54.4105 12.3992C54.4638 12.3992 54.5242 12.3915 54.607 12.3615V12.8573ZM53.5658 10.8677C53.3174 11.0479 52.8344 11.0555 52.4044 11.1303C51.9819 11.205 51.6198 11.3558 51.6198 11.8286C51.6198 12.249 51.9819 12.3992 52.3747 12.3992C53.2192 12.3992 53.5658 11.8733 53.5658 11.5206V10.8677Z" fill="black"/>
<path d="M58.6883 12.8716H58.0471V12.3458H58.0316C57.8212 12.7739 57.3229 12.9617 56.787 12.9617C55.5887 12.9617 54.9922 12.0161 54.9922 10.9197C54.9922 9.82329 55.5802 8.90005 56.773 8.90005C57.1728 8.90005 57.7454 9.0502 58.0316 9.50832H58.0471V7.51172H58.6883V12.8716ZM56.8782 12.3988C57.7384 12.3988 58.0695 11.6628 58.0695 10.9351C58.0695 10.169 57.7229 9.46293 56.8403 9.46293C55.966 9.46293 55.6715 10.2067 55.6715 10.9644C55.6715 11.6928 56.0488 12.3988 56.8782 12.3988Z" fill="black"/>
<path d="M63.13 12.8573C63.0178 12.9243 62.8746 12.9621 62.6712 12.9621C62.3387 12.9621 62.128 12.7819 62.128 12.3615C61.7731 12.7742 61.2975 12.9621 60.7544 12.9621C60.0459 12.9621 59.4648 12.6464 59.4648 11.8733C59.4648 10.9955 60.1215 10.8076 60.7853 10.6798C61.4938 10.5443 62.0973 10.5897 62.0973 10.1093C62.0973 9.55405 61.637 9.46327 61.23 9.46327C60.6871 9.46327 60.2871 9.62878 60.2576 10.1994H59.6165C59.6544 9.23839 60.4008 8.90039 61.2679 8.90039C61.9696 8.90039 62.7315 9.05823 62.7315 9.96678V11.9634C62.7315 12.2637 62.7315 12.3992 62.935 12.3992C62.9868 12.3992 63.0472 12.3915 63.13 12.3615V12.8573ZM62.0903 10.8677C61.8404 11.0479 61.3579 11.0555 60.9285 11.1303C60.506 11.205 60.1439 11.3558 60.1439 11.8286C60.1439 12.249 60.506 12.3992 60.8975 12.3992C61.7422 12.3992 62.0903 11.8733 62.0903 11.5206V10.8677Z" fill="black"/>
<path d="M25.8644 0H19.3984V12.8722H25.8644V0Z" fill="#EB2D37"/>
<path d="M12.6527 11.8892C12.6527 11.8892 12.7412 9.72016 12.7412 9.50403C12.7412 9.28786 12.558 9.21313 12.3405 9.26061C12.123 9.3081 10.087 9.72016 10.087 9.72016C10.087 9.72016 10.235 9.27842 10.3508 8.95682C10.4539 8.67227 10.3185 8.57174 10.2427 8.505C10.1635 8.4355 7.9668 6.54402 7.9668 6.54402L8.32739 6.36873C8.5442 6.26746 8.5098 6.08484 8.47617 5.96333C8.44248 5.84148 8.07974 4.57671 8.07974 4.57671C8.07974 4.57671 9.029 4.78832 9.25144 4.82258C9.42752 4.84947 9.48924 4.7688 9.54399 4.64693C9.59728 4.52507 9.82885 3.97121 9.82885 3.97121C9.82885 3.97121 10.9913 5.25271 11.0159 5.27509C11.2404 5.47797 11.4664 5.32087 11.4172 5.08581C11.3716 4.86827 10.8195 2.30877 10.8195 2.30877C10.8195 2.30877 11.4368 2.6737 11.641 2.79521C11.8452 2.91706 11.9532 2.89646 12.062 2.70096C12.1707 2.50472 12.932 0.984375 12.932 0.984375C12.932 0.984375 13.6932 2.50472 13.8019 2.70096C13.9107 2.89646 14.0187 2.91706 14.2229 2.79521C14.4271 2.6737 15.0444 2.30877 15.0444 2.30877C15.0444 2.30877 14.4923 4.86827 14.4467 5.08581C14.3976 5.32087 14.6235 5.47797 14.848 5.27509C14.8726 5.25271 16.0351 3.97121 16.0351 3.97121C16.0351 3.97121 16.2666 4.52507 16.32 4.64693C16.3747 4.7688 16.4364 4.84947 16.6125 4.82258C16.8349 4.78832 17.7842 4.57671 17.7842 4.57671C17.7842 4.57671 17.4214 5.84148 17.3878 5.96333C17.3541 6.08484 17.3197 6.26746 17.5365 6.36873L17.8971 6.54402C17.8971 6.54402 15.7004 8.4355 15.6212 8.505C15.5454 8.57174 15.4107 8.67227 15.5131 8.95682C15.6289 9.27842 15.7769 9.72013 15.7769 9.72013C15.7769 9.72013 13.7409 9.3081 13.5234 9.26061C13.3059 9.21313 13.1228 9.28786 13.1228 9.50403C13.1228 9.72013 13.2112 11.8892 13.2112 11.8892H12.6527Z" fill="#EB2D37"/>
<path d="M6.46588 0H0V12.8722H6.46588V0Z" fill="#EB2D37"/>
</g>
</g>
<defs>
<clipPath id="clip0_13010_183">
<rect width="100" height="13" fill="white"/>
</clipPath>
</defs>
</svg>
