<?xml version="1.0" encoding="UTF-8"?>
<svg id="a" xmlns="http://www.w3.org/2000/svg" viewBox="0 0 773.288642 100.9930929">
  <path d="M290.5086517.0219345h18.2508681c8.2845052,0,12.7712674,4.6115451,12.7712674,12.3101128s-4.4867622,12.3643663-12.7712674,12.3046875h-12.7115885v17.0301649h-5.5392795V.0219345ZM296.0479312,19.9709362h10.8452691c6.2391493.0596788,9.0983073-2.6855469,9.0983073-7.6388889,0-4.9587674-2.859158-7.6443142-9.0983073-7.6443142h-10.8452691v15.2832031Z"/>
  <path d="M351.8693288,41.5475421c-.8789062.5262587-1.9856771.8192274-3.5590278.8192274-2.5661892,0-4.1992188-1.3997396-4.1992188-4.6657986-2.7452257,3.2063802-6.4181858,4.6657986-10.6174045,4.6657986-5.4796007,0-9.9717882-2.4468316-9.9717882-8.4581163,0-6.8250868,5.0726997-8.2790799,10.2050781-9.2719184,5.485026-1.047092,10.1508247-.6998698,10.1508247-4.4325087,0-4.3185764-3.5590278-5.0130208-6.7111545-5.0130208-4.1992188,0-7.2862413,1.2803819-7.5195312,5.7128906h-4.9587674c.2929688-7.4652778,6.0655382-10.0911458,12.7712674-10.0911458,5.4253472,0,11.3172743,1.2261285,11.3172743,8.2845052v15.5110677c0,2.3328993,0,3.3854167,1.5733507,3.3854167.406901,0,.8734809-.0596788,1.5190972-.2929688v3.8465712ZM343.8181135,26.0961533c-1.9259983,1.3997396-5.6586372,1.4539931-8.984375,2.0399306-3.266059.5859375-6.0655382,1.7469618-6.0655382,5.4253472,0,3.266059,2.7994792,4.4325087,5.8376736,4.4325087,6.5321181,0,9.2122396-4.0852865,9.2122396-6.8250868v-5.0726997Z"/>
  <path d="M356.3072628,11.5128199h4.6657986v6.3585069h.1139323c2.3925781-4.8394097,5.718316-7.2319878,11.0839844-7.0583767v5.2517361c-7.9915365,0-10.9049479,4.546441-10.9049479,12.1907552v13.4114583h-4.9587674V11.5128199Z"/>
  <path d="M376.1965858.0219345h4.9587674v24.6744792l13.7586806-13.1835938h6.6514757l-11.9574653,10.9646267,12.8309462,19.1894531h-6.2988281l-10.3190104-15.7443576-4.6657986,4.313151v11.4312066h-4.9587674V.0219345Z"/>
  <path d="M409.2098236,32.1616915c.1736111,4.4325087,4.0256076,5.8322483,8.1054688,5.8322483,3.0924479,0,7.2916667-.6998698,7.2916667-4.4921875,0-3.8465712-4.8990885-4.4921875-9.8578559-5.5989583-4.8990885-1.1067708-9.8524306-2.7398003-9.8524306-8.5123698,0-6.0655382,6.0058594-8.577474,11.2521701-8.577474,6.6514757,0,11.9574653,2.0996094,12.3643663,9.4509549h-4.953342c-.3526476-3.8519965-3.7326389-5.0726997-6.9986979-5.0726997-2.9785156,0-6.4181858.8138021-6.4181858,3.8465712,0,3.5590278,5.2463108,4.1395399,9.8578559,5.2463108,4.9587674,1.1121962,9.8524306,2.7452257,9.8524306,8.577474,0,7.172309-6.7057292,9.5052083-12.8255208,9.5052083-6.7708333,0-12.483724-2.7398003-12.7766927-10.2050781h4.9587674Z"/>
  <path d="M319.7838253,70.8986706c-1.1664497-5.8919271-5.8919271-8.8650174-11.6644965-8.8650174-9.9175347,0-14.1167535,8.1651476-14.1167535,16.8511285,0,9.5106337,4.1992188,17.4424913,14.1764323,17.4424913,7.2862413,0,11.4854601-5.1323785,12.0117188-12.0171441h5.5392795c-1.047092,10.3841146-7.5195312,16.6829427-18.0175781,16.6829427-12.9503038,0-19.2491319-9.5648872-19.2491319-21.6959635,0-12.0768229,6.8847656-21.9292535,19.7157118-21.9292535,8.6859809,0,15.8637153,4.6657986,17.1440972,13.530816h-5.5392795Z"/>
  <path d="M358.5208045,99.8808755c-.8789062.5262587-1.9856771.8192274-3.5590278.8192274-2.5661892,0-4.1992188-1.3997396-4.1992188-4.6657986-2.7452257,3.2063802-6.4181858,4.6657986-10.6174045,4.6657986-5.4796007,0-9.9717882-2.4468316-9.9717882-8.4581163,0-6.8250868,5.0726997-8.2790799,10.2050781-9.2719184,5.485026-1.047092,10.1508247-.6998698,10.1508247-4.4325087,0-4.3185764-3.5590278-5.0130208-6.7111545-5.0130208-4.1992188,0-7.2862413,1.2803819-7.5195312,5.7128906h-4.9587674c.2929688-7.4652778,6.0655382-10.0911458,12.7712674-10.0911458,5.4253472,0,11.3172743,1.2261285,11.3172743,8.2845052v15.5110677c0,2.3328993,0,3.3854167,1.5733507,3.3854167.406901,0,.8734809-.0596788,1.5190972-.2929688v3.8465712ZM350.4695892,84.4294866c-1.9259983,1.3997396-5.6586372,1.4539931-8.984375,2.0399306-3.266059.5859375-6.0655382,1.7469618-6.0655382,5.4253472,0,3.266059,2.7994792,4.4325087,5.8376736,4.4325087,6.5321181,0,9.2122396-4.0852865,9.2122396-6.8250868v-5.0726997Z"/>
  <path d="M363.1269243,69.8461533h4.6657986v4.7851562h.1139323c2.1050347-3.7326389,5.485026-5.485026,9.7981771-5.485026,7.9318576,0,10.3841146,4.5518663,10.3841146,11.0243056v19.8296441h-4.9587674v-20.4101562c0-3.6783854-2.3328993-6.0655382-6.1197917-6.0655382-6.0112847,0-8.9246962,4.0201823-8.9246962,9.4455295v17.0301649h-4.9587674v-30.1540799Z"/>
  <path d="M422.2794851,99.8808755c-.8789062.5262587-1.9856771.8192274-3.5590278.8192274-2.5661892,0-4.1992188-1.3997396-4.1992188-4.6657986-2.7452257,3.2063802-6.4181858,4.6657986-10.6174045,4.6657986-5.4796007,0-9.9717882-2.4468316-9.9717882-8.4581163,0-6.8250868,5.0726997-8.2790799,10.2050781-9.2719184,5.485026-1.047092,10.1508247-.6998698,10.1508247-4.4325087,0-4.3185764-3.5590278-5.0130208-6.7111545-5.0130208-4.1992188,0-7.2862413,1.2803819-7.5195312,5.7128906h-4.9587674c.2929688-7.4652778,6.0655382-10.0911458,12.7712674-10.0911458,5.4253472,0,11.3172743,1.2261285,11.3172743,8.2845052v15.5110677c0,2.3328993,0,3.3854167,1.5733507,3.3854167.406901,0,.8734809-.0596788,1.5190972-.2929688v3.8465712ZM414.2282698,84.4294866c-1.9259983,1.3997396-5.6586372,1.4539931-8.984375,2.0399306-3.266059.5859375-6.0655382,1.7469618-6.0655382,5.4253472,0,3.266059,2.7994792,4.4325087,5.8376736,4.4325087,6.5321181,0,9.2122396-4.0852865,9.2122396-6.8250868v-5.0726997Z"/>
  <path d="M453.8333045,100.0002331h-4.9587674v-4.0798611h-.1193576c-1.6330295,3.3203125-5.4796007,4.7797309-9.624566,4.7797309-9.2719184,0-13.8780382-7.3513455-13.8780382-15.8637153s4.546441-15.6901042,13.7641059-15.6901042c3.0924479,0,7.5249566,1.1664497,9.7384983,4.7254774h.1193576v-15.5164931h4.9587674v41.6449653ZM439.8359087,96.3272731c6.6460503,0,9.2122396-5.718316,9.2122396-11.3769531,0-5.9461806-2.6801215-11.4257812-9.5052083-11.4257812-6.765408,0-9.0386285,5.7725694-9.0386285,11.6644965,0,5.6532118,2.9134115,11.1382378,9.3315972,11.1382378Z"/>
  <path d="M488.1866031,99.8808755c-.8734809.5262587-1.9802517.8192274-3.5536024.8192274-2.5661892,0-4.1992188-1.3997396-4.1992188-4.6657986-2.7398003,3.2063802-6.4181858,4.6657986-10.6174045,4.6657986-5.4796007,0-9.9717882-2.4468316-9.9717882-8.4581163,0-6.8250868,5.0726997-8.2790799,10.2050781-9.2719184,5.485026-1.047092,10.1508247-.6998698,10.1508247-4.4325087,0-4.3185764-3.5590278-5.0130208-6.7057292-5.0130208-4.1992188,0-7.2916667,1.2803819-7.5249566,5.7128906h-4.9587674c.2929688-7.4652778,6.0655382-10.0911458,12.7712674-10.0911458,5.4253472,0,11.3172743,1.2261285,11.3172743,8.2845052v15.5110677c0,2.3328993,0,3.3854167,1.5733507,3.3854167.406901,0,.8734809-.0596788,1.5136719-.2929688v3.8465712ZM480.1408132,84.4294866c-1.9259983,1.3997396-5.6586372,1.4539931-8.9789497,2.0399306-3.266059.5859375-6.0655382,1.7469618-6.0655382,5.4253472,0,3.266059,2.7994792,4.4325087,5.8268229,4.4325087,6.5321181,0,9.2176649-4.0852865,9.2176649-6.8250868v-5.0726997Z"/>
  <path d="M575.6106483.024679h18.2508681c8.2845052,0,12.7712674,4.6061198,12.7712674,12.3046875s-4.4867622,12.3643663-12.7712674,12.3046875h-12.7115885v17.0301649h-5.5392795V.024679ZM581.1499278,19.9682554h10.8452691c6.2391493.0596788,9.0983073-2.6801215,9.0983073-7.6388889s-2.859158-7.6388889-9.0983073-7.6388889h-10.8452691v15.2777778Z"/>
  <path d="M636.9713677,41.5502866c-.8789062.5208333-1.9856771.8138021-3.5590278.8138021-2.5661892,0-4.1992188-1.3997396-4.1992188-4.6657986-2.7452257,3.2063802-6.4181858,4.6657986-10.6174045,4.6657986-5.4796007,0-9.9717882-2.4522569-9.9717882-8.4581163,0-6.8196615,5.0726997-8.2790799,10.2050781-9.2719184,5.485026-1.0525174,10.1508247-.6998698,10.1508247-4.4325087,0-4.313151-3.5590278-5.0184462-6.7111545-5.0184462-4.1992188,0-7.2862413,1.2858073-7.5195312,5.718316h-4.9587674c.2929688-7.4652778,6.0655382-10.0911458,12.7712674-10.0911458,5.4253472,0,11.3172743,1.2261285,11.3172743,8.2845052v15.5110677c0,2.3328993,0,3.3854167,1.5733507,3.3854167.406901,0,.8734809-.0596788,1.5190972-.2929688v3.8519965ZM628.9201525,26.0934724c-1.9259983,1.3997396-5.6586372,1.4594184-8.984375,2.0399306-3.266059.5805122-6.0655382,1.7523872-6.0655382,5.4253472,0,3.266059,2.7994792,4.4325087,5.8376736,4.4325087,6.5321181,0,9.2122396-4.0852865,9.2122396-6.8250868v-5.0726997Z"/>
  <path d="M641.4093018,11.510139h4.6657986v6.3585069h.1139323c2.3925781-4.8394097,5.718316-7.2319878,11.0839844-7.0583767v5.2517361c-7.9915365,0-10.9049479,4.546441-10.9049479,12.1853299v13.4168837h-4.9587674V11.510139Z"/>
  <path d="M680.428399,21.1943838c-.7595486-3.7923177-3.3799913-6.0112847-7.4652778-6.0112847-7.172309,0-9.3858507,5.6586372-9.3858507,11.7838542,0,5.5392795,2.5065104,11.0243056,8.8053385,11.0243056,4.7797309,0,7.6388889-2.7994792,8.2790799-7.3513455h5.0726997c-1.1067708,7.3513455-5.7128906,11.7241753-13.2921007,11.7241753-9.2176649,0-14.1167535-6.4127604-14.1167535-15.3971354,0-9.0386285,4.6657986-16.156684,14.2306858-16.156684,6.8250868,0,12.3046875,3.2118056,13.0045573,10.3841146h-5.1323785Z"/>
  <path d="M694.3118625,32.1590106c.1736111,4.4325087,4.0256076,5.8322483,8.1054688,5.8322483,3.0924479,0,7.2915819-.6998698,7.2915819-4.4921875,0-3.8519965-4.8990038-4.4921875-9.8577711-5.5989583-4.8990885-1.1067708-9.8524306-2.7398003-9.8524306-8.5177951,0-6.0655382,6.0058594-8.5720486,11.2521701-8.5720486,6.6514757,0,11.9574653,2.0996094,12.3643663,9.4509549h-4.953342c-.3526476-3.8519965-3.7326389-5.078125-6.9986979-5.078125-2.9785156,0-6.4181858.8192274-6.4181858,3.8519965,0,3.5590278,5.2463108,4.1395399,9.8578559,5.2517361,4.9587674,1.1067708,9.8524306,2.7398003,9.8524306,8.5720486,0,7.172309-6.7057292,9.5052083-12.8255208,9.5052083-6.7708333,0-12.483724-2.7398003-12.7766927-10.2050781h4.9587674Z"/>
  <path d="M604.8858219,70.8987024c-1.1664497-5.8919271-5.8919271-8.8650174-11.6644965-8.8650174-9.9175347,0-14.1167535,8.1651476-14.1167535,16.8565432,0,9.5052083,4.1992188,17.437066,14.1764323,17.437066,7.2862413,0,11.4854601-5.1323785,12.0117188-12.0171441h5.5392795c-1.047092,10.3841146-7.5195312,16.6829427-18.0175781,16.6829427-12.9503038,0-19.2491319-9.5648872-19.2491319-21.6959635,0-12.0713976,6.8847656-21.9319661,19.7157118-21.9319661,8.6859809,0,15.8637153,4.6685113,17.1440972,13.5335286,0,0-5.5392795,0-5.5392795.0000106Z"/>
  <path d="M643.6228434,99.886322c-.8789062.5208333-1.9856771.8138021-3.5590278.8138021-2.5661892,0-4.1992188-1.3997396-4.1992188-4.6657986-2.7452257,3.2063802-6.4181858,4.6657986-10.6174045,4.6657986-5.4796007,0-9.9717882-2.4522569-9.9717882-8.4581163,0-6.8196615,5.0726997-8.2790799,10.2050781-9.2719184,5.485026-1.0525174,10.1508247-.6998698,10.1508247-4.4325087,0-4.313151-3.5590278-5.0184462-6.7111545-5.0184462-4.1992188,0-7.2862413,1.2858073-7.5195312,5.718316h-4.9587674c.2929688-7.4652778,6.0655382-10.0911458,12.7712674-10.0911458,5.4253472,0,11.3172743,1.2261285,11.3172743,8.2845052v15.5110677c0,2.3328993,0,3.3854167,1.5733507,3.3854167.406901,0,.8734809-.0596788,1.5190972-.2929688v3.8519965ZM635.5716281,84.4295078c-1.9259983,1.3997396-5.6586372,1.4594184-8.984375,2.0399306-3.266059.5805122-6.0655382,1.7523872-6.0655382,5.4253472,0,3.266059,2.7994792,4.4325087,5.8376736,4.4325087,6.5321181,0,9.2122396-4.0852865,9.2122396-6.8250868v-5.0726997Z"/>
  <path d="M648.2289632,69.846185h4.6657986v4.7851562h.1139323c2.1050347-3.7326389,5.485026-5.485026,9.7981771-5.485026,7.9318576,0,10.3841146,4.5518663,10.3841146,11.024295v19.8296441h-4.9587674v-20.4155816c0-3.6729601-2.3328993-6.0655382-6.1197917-6.0655382-6.0112847,0-8.9246962,4.0256076-8.9246962,9.4509549v17.0301649h-4.9587674s0-30.1540799,0-30.1540693Z"/>
  <path d="M707.381524,99.886322c-.8789062.5208333-1.9856771.8138021-3.5590278.8138021-2.5661892,0-4.1992188-1.3997396-4.1992188-4.6657986-2.7452257,3.2063802-6.4181858,4.6657986-10.6174045,4.6657986-5.4796007,0-9.9717882-2.4522569-9.9717882-8.4581163,0-6.8196615,5.0726997-8.2790799,10.2050781-9.2719184,5.485026-1.0525174,10.1508247-.6998698,10.1508247-4.4325087,0-4.313151-3.5590278-5.0184462-6.7111545-5.0184462-4.1992188,0-7.2862413,1.2858073-7.5195312,5.718316h-4.9587674c.2929688-7.4652778,6.0655382-10.0911458,12.7712674-10.0911458,5.4253472,0,11.3172743,1.2261285,11.3172743,8.2845052v15.5110677c0,2.3328993,0,3.3854167,1.5733507,3.3854167.406901,0,.8734809-.0596788,1.5190972-.2929688v3.8519965ZM699.3303087,84.4295078c-1.9259983,1.3997396-5.6586372,1.4594184-8.984375,2.0399306-3.266059.5805122-6.0655382,1.7523872-6.0655382,5.4253472,0,3.266059,2.7994792,4.4325087,5.8376736,4.4325087,6.5321181,0,9.2122396-4.0852865,9.2122396-6.8250868v-5.0726997Z"/>
  <path d="M738.9353434,100.0002543h-4.9587674v-4.0852865h-.1193576c-1.6330295,3.3257378-5.4796007,4.7851562-9.624566,4.7851562-9.2719184,0-13.8780382-7.3459201-13.8780382-15.8637153s4.546441-15.6901042,13.7641059-15.6901042c3.0924479,0,7.5249566,1.1664497,9.7384983,4.7254774h.1193576v-15.5110677h4.9587674v41.6395399ZM724.9379476,96.3272942c6.6460503,0,9.2122396-5.718316,9.2122396-11.3715278,0-5.9516059-2.6801215-11.4366319-9.5052083-11.4366319-6.765408,0-9.0386285,5.7779948-9.0386285,11.6644965,0,5.6586372,2.9134115,11.1436632,9.3315972,11.1436632Z"/>
  <path d="M773.288642,99.886322c-.8734809.5208333-1.9802517.8138021-3.5536024.8138021-2.5661892,0-4.1992188-1.3997396-4.1992188-4.6657986-2.7398003,3.2063802-6.4181858,4.6657986-10.6174045,4.6657986-5.4796007,0-9.9717882-2.4522569-9.9717882-8.4581163,0-6.8196615,5.0726997-8.2790799,10.2050781-9.2719184,5.485026-1.0525174,10.1508247-.6998698,10.1508247-4.4325087,0-4.313151-3.5590278-5.0184462-6.7057292-5.0184462-4.1992188,0-7.2916667,1.2858073-7.5249566,5.718316h-4.9587674c.2929688-7.4652778,6.0655382-10.0911458,12.7712674-10.0911458,5.4253472,0,11.3172743,1.2261285,11.3172743,8.2845052v15.5110677c0,2.3328993,0,3.3854167,1.5733507,3.3854167.406901,0,.8734809-.0596788,1.5136719-.2929688v3.8519965ZM765.2428521,84.4295078c-1.9259983,1.3997396-5.6586372,1.4594184-8.9789497,2.0399306-3.266059.5805122-6.0655382,1.7523872-6.0655382,5.4253472,0,3.266059,2.7994792,4.4325087,5.8268229,4.4325087,6.5321181,0,9.2176649-4.0852865,9.2176649-6.8250868v-5.0726997Z"/>
  <rect x="150" width="50" height="100" fill="#eb2d37"/>
  <path d="M97.8405635,92.3583349s.6838904-16.8511073.6838904-18.5299979c0-1.6794417-1.4161216-2.2599962-3.0977673-1.891115-1.6822179.3688918-17.4266603,3.569995-17.4266603,3.569995,0,0,1.1450026-3.4316699,2.0399941-5.9299999.7977804-2.2105535-.2494388-2.9916657-.8355459-3.5099983-.6127675-.5400022-17.5994449-15.2344492-17.5994449-15.2344492l2.7883318-1.3616668c1.6766654-.7866648,1.4105585-2.205552,1.1505551-3.1494459-.2605544-.9466701-3.0655543-10.7722176-3.0655543-10.7722176,0,0,7.3405584,1.6438908,9.0605524,1.9099977,1.3616668.2088865,1.8388854-.4177729,2.2622214-1.364443.4122204-.9466701,2.2027757-5.2494473,2.2027757-5.2494473,0,0,8.9894507,9.9555545,9.1794438,10.1294412,1.7361111,1.5761163,3.4833272.355551,3.103341-1.4705552-.3527747-1.6899957-4.6222263-21.5738932-4.6222263-21.5738932,0,0,4.7738817,2.8349982,6.3527849,3.7788921,1.578882.9466701,2.4144491.7866648,3.2555474-.7322205.8405473-1.5244484,6.7272186-13.3355565,6.7272186-13.3355565,0,0,5.8866713,11.8111081,6.7272186,13.3355565.8411196,1.5188853,1.6766654,1.6788907,3.2555474.7322205,1.578882-.9438939,6.3527849-3.7788921,6.3527849-3.7788921,0,0-4.2694516,19.883887-4.6222263,21.5738932-.3800074,1.8261062,1.3672299,3.0466715,3.103341,1.4705552.1899931-.1738866,9.1794544-10.1294412,9.1794544-10.1294412,0,0,1.7905553,4.3027772,2.2027757,5.2494473.4233254.9466701.9005653,1.5733295,2.2622214,1.364443,1.7200046-.2661069,9.060563-1.9099977,9.060563-1.9099977,0,0-2.8049893,9.8255581-3.0655543,10.7722176-.2599928.9438939-.5261103,2.3627811,1.1505551,3.1494459l2.7883318,1.3616668s-16.9866562,14.694447-17.5994449,15.2344386c-.586107.5183326-1.6277737,1.2994448-.8355459,3.5099983.8949916,2.49833,2.0399941,5.9299999,2.0399941,5.9299999,0,0-15.7444424-3.2011138-17.4266603-3.569995-1.6816669-.3688918-3.0977673.2116627-3.0977673,1.891115,0,1.6788907.6838904,18.5300085.6838904,18.5300085h-4.3189367Z" fill="#eb2d37"/>
  <rect width="50" height="100" fill="#eb2d37"/>
</svg>