<svg width="459" height="60" viewBox="0 0 459 60" fill="none" xmlns="http://www.w3.org/2000/svg">
<g clip-path="url(#clip0_1_2)">
<path d="M172.437 0.013031H183.27C188.187 0.013031 190.851 2.75275 190.851 7.32647C190.851 11.9002 188.187 14.6721 183.27 14.6367H175.725V24.7543H172.437L172.437 0.013031ZM175.725 11.8647H182.162C185.866 11.9002 187.563 10.2693 187.563 7.32647C187.563 4.38047 185.866 2.78498 182.162 2.78498H175.725V11.8647Z" fill="black"/>
<path d="M208.859 24.6834C208.337 24.9961 207.68 25.1701 206.746 25.1701C205.223 25.1701 204.254 24.3385 204.254 22.3982C202.624 24.3031 200.444 25.1701 197.951 25.1701C194.699 25.1701 192.032 23.7164 192.032 20.1451C192.032 16.0904 195.043 15.2265 198.09 14.6367C201.346 14.0146 204.115 14.2209 204.115 12.0033C204.115 9.43767 202.003 9.0251 200.132 9.0251C197.639 9.0251 195.807 9.78578 195.668 12.4191H192.725C192.899 7.98401 196.325 6.42398 200.305 6.42398C203.526 6.42398 207.023 7.15242 207.023 11.3458V20.5609C207.023 21.9469 207.023 22.5722 207.957 22.5722C208.198 22.5722 208.475 22.5368 208.859 22.3982V24.6834ZM204.08 15.5037C202.936 16.3353 200.721 16.3675 198.747 16.7157C196.808 17.0638 195.147 17.7535 195.147 19.9389C195.147 21.8792 196.808 22.5722 198.612 22.5722C202.489 22.5722 204.08 20.1451 204.08 18.5174V15.5037Z" fill="black"/>
<path d="M211.493 6.83976H214.262V10.6173H214.33C215.75 7.74226 217.724 6.32083 220.909 6.42397V9.54402C216.166 9.54402 214.436 12.2451 214.436 16.7866V24.7543H211.493V6.83976Z" fill="black"/>
<path d="M223.299 0.013031H226.242V14.6721L234.409 6.83977H238.357L231.259 13.3539L238.875 24.7543H235.136L229.011 15.4006L226.242 17.963V24.7543H223.299V0.013031Z" fill="black"/>
<path d="M242.894 19.1073C242.997 21.7406 245.284 22.5722 247.705 22.5722C249.541 22.5722 252.033 22.1564 252.033 19.9034C252.033 17.6182 249.126 17.2346 246.182 16.5771C243.274 15.9195 240.334 14.9493 240.334 11.5199C240.334 7.91632 243.899 6.42398 247.013 6.42398C250.961 6.42398 254.111 7.67136 254.352 12.0388H251.412C251.203 9.75032 249.196 9.0251 247.258 9.0251C245.49 9.0251 243.448 9.50858 243.448 11.3104C243.448 13.4248 246.562 13.7697 249.299 14.4272C252.243 15.0879 255.147 16.0581 255.147 19.5231C255.147 23.7841 251.167 25.1701 247.535 25.1701C243.516 25.1701 240.125 23.5424 239.951 19.1073H242.894Z" fill="black"/>
<path d="M189.814 42.1209C189.121 38.6205 186.316 36.8542 182.89 36.8542C177.003 36.8542 174.511 41.7051 174.511 46.8655C174.511 52.5157 177.003 57.228 182.925 57.228C187.25 57.228 189.743 54.1789 190.055 50.0886H193.343C192.722 56.2579 188.88 60 182.648 60C174.962 60 171.223 54.3175 171.223 47.1104C171.223 39.9356 175.309 34.0822 182.925 34.0822C188.081 34.0822 192.342 36.8542 193.102 42.1209H189.814Z" fill="black"/>
<path d="M212.807 59.3392C212.285 59.6519 211.628 59.8259 210.694 59.8259C209.171 59.8259 208.202 58.9943 208.202 57.054C206.572 58.9589 204.392 59.8259 201.9 59.8259C198.647 59.8259 195.981 58.3723 195.981 54.801C195.981 50.7462 198.992 49.8824 202.038 49.2925C205.294 48.6704 208.063 48.8767 208.063 46.6592C208.063 44.0935 205.951 43.6809 204.08 43.6809C201.587 43.6809 199.755 44.4416 199.616 47.075H196.673C196.847 42.6398 200.273 41.0798 204.254 41.0798C207.474 41.0798 210.971 41.8082 210.971 46.0016V55.2168C210.971 56.6027 210.971 57.228 211.905 57.228C212.147 57.228 212.424 57.1926 212.807 57.054V59.3392ZM208.028 50.1596C206.885 50.9911 204.669 51.0234 202.695 51.3715C200.756 51.7196 199.095 52.4093 199.095 54.5947C199.095 56.535 200.756 57.228 202.56 57.228C206.437 57.228 208.028 54.801 208.028 53.1732V50.1596Z" fill="black"/>
<path d="M215.541 41.4956H218.31V44.3385H218.378C219.627 42.1209 221.634 41.0798 224.194 41.0798C228.902 41.0798 230.357 43.7841 230.357 47.6293V59.4101H227.414V47.2845C227.414 45.0991 226.029 43.6809 223.782 43.6809C220.213 43.6809 218.484 46.0693 218.484 49.2925V59.4101H215.541V41.4956Z" fill="black"/>
<path d="M250.652 59.3392C250.13 59.6519 249.473 59.8259 248.539 59.8259C247.016 59.8259 246.047 58.9943 246.047 57.054C244.417 58.9589 242.237 59.8259 239.745 59.8259C236.492 59.8259 233.826 58.3723 233.826 54.801C233.826 50.7462 236.837 49.8824 239.883 49.2925C243.139 48.6704 245.908 48.8767 245.908 46.6592C245.908 44.0935 243.796 43.6809 241.925 43.6809C239.432 43.6809 237.6 44.4416 237.461 47.075H234.518C234.692 42.6398 238.118 41.0798 242.099 41.0798C245.319 41.0798 248.816 41.8082 248.816 46.0016V55.2168C248.816 56.6027 248.816 57.228 249.75 57.228C249.992 57.228 250.269 57.1926 250.652 57.054V59.3392ZM245.873 50.1596C244.73 50.9911 242.514 51.0234 240.54 51.3715C238.601 51.7196 236.94 52.4093 236.94 54.5947C236.94 56.535 238.601 57.228 240.405 57.228C244.282 57.228 245.873 54.801 245.873 53.1732V50.1596Z" fill="black"/>
<path d="M269.381 59.4101H266.438V56.9863H266.367C265.398 58.9589 263.115 59.8259 260.654 59.8259C255.151 59.8259 252.417 55.4585 252.417 50.4013C252.417 45.3441 255.115 41.0798 260.587 41.0798C262.422 41.0798 265.053 41.7728 266.367 43.8872H266.438V34.6689H269.381V59.4101ZM261.073 57.228C265.018 57.228 266.541 53.8308 266.541 50.469C266.541 46.9363 264.95 43.6809 260.899 43.6809C256.883 43.6809 255.534 47.1104 255.534 50.6108C255.534 53.9694 257.263 57.228 261.073 57.228Z" fill="black"/>
<path d="M289.772 59.3392C289.254 59.6519 288.597 59.8259 287.663 59.8259C286.14 59.8259 285.171 58.9943 285.171 57.054C283.544 58.9589 281.361 59.8259 278.868 59.8259C275.616 59.8259 272.949 58.3723 272.949 54.801C272.949 50.7462 275.96 49.8824 279.007 49.2925C282.263 48.6704 285.032 48.8767 285.032 46.6592C285.032 44.0935 282.92 43.6809 281.052 43.6809C278.559 43.6809 276.724 44.4416 276.585 47.075H273.642C273.816 42.6398 277.242 41.0798 281.222 41.0798C284.443 41.0798 287.94 41.8082 287.94 46.0016V55.2168C287.94 56.6027 287.94 57.228 288.874 57.228C289.115 57.228 289.392 57.1926 289.772 57.054V59.3392ZM284.997 50.1596C283.853 50.9911 281.638 51.0234 279.667 51.3715C277.728 51.7196 276.067 52.4093 276.067 54.5947C276.067 56.535 277.728 57.228 279.525 57.228C283.403 57.228 284.997 54.801 284.997 53.1732V50.1596Z" fill="black"/>
<path d="M341.665 0.0146484H352.498C357.415 0.0146484 360.078 2.75114 360.078 7.32486C360.078 11.8986 357.415 14.6705 352.498 14.6351H344.952V24.7527H341.665V0.0146484ZM344.952 11.8631H351.39C355.093 11.8986 356.79 10.2709 356.79 7.32486C356.79 4.37886 355.093 2.7866 351.39 2.7866H344.952V11.8631Z" fill="black"/>
<path d="M378.086 24.685C377.565 24.9945 376.908 25.1685 375.974 25.1685C374.451 25.1685 373.481 24.3369 373.481 22.3966C371.852 24.3015 369.672 25.1685 367.179 25.1685C363.927 25.1685 361.26 23.7116 361.26 20.1436C361.26 16.092 364.271 15.2249 367.318 14.6351C370.573 14.0098 373.343 14.2193 373.343 12.0018C373.343 9.43931 371.23 9.02029 369.359 9.02029C366.867 9.02029 365.034 9.78419 364.896 12.4175H361.953C362.126 7.98242 365.553 6.42239 369.533 6.42239C372.753 6.42239 376.251 7.15084 376.251 11.3442V20.5593C376.251 21.9453 376.251 22.5706 377.185 22.5706C377.426 22.5706 377.703 22.5352 378.086 22.3966V24.685ZM373.307 15.5021C372.164 16.3337 369.949 16.3692 367.975 16.7141C366.036 17.059 364.374 17.7552 364.374 19.9373C364.374 21.8776 366.036 22.5706 367.839 22.5706C371.717 22.5706 373.307 20.1436 373.307 18.5158V15.5021Z" fill="black"/>
<path d="M380.721 6.83817H383.49V10.6158H383.558C384.978 7.74067 386.952 6.31924 390.137 6.42238V9.54244C385.393 9.54244 383.664 12.2435 383.664 16.7817V24.7527H380.721V6.83817Z" fill="black"/>
<path d="M403.881 12.5916C403.43 10.3386 401.875 9.02029 399.45 9.02029C395.193 9.02029 393.879 12.3821 393.879 16.0211C393.879 19.312 395.367 22.5706 399.105 22.5706C401.942 22.5706 403.64 20.9074 404.02 18.2032H407.031C406.374 22.5706 403.64 25.1685 399.141 25.1685C393.669 25.1685 390.762 21.3587 390.762 16.0211C390.762 10.6512 393.531 6.42239 399.208 6.42239C403.26 6.42239 406.512 8.33053 406.927 12.5916H403.881Z" fill="black"/>
<path d="M412.122 19.1057C412.225 21.739 414.511 22.5706 416.933 22.5706C418.769 22.5706 421.261 22.1548 421.261 19.9018C421.261 17.6133 418.353 17.233 415.41 16.5755C412.502 15.9179 409.562 14.9478 409.562 11.515C409.562 7.91151 413.127 6.42239 416.241 6.42239C420.189 6.42239 423.338 7.66977 423.58 12.0372H420.64C420.43 9.74874 418.424 9.02029 416.485 9.02029C414.717 9.02029 412.676 9.50699 412.676 11.3088C412.676 13.4232 415.79 13.7681 418.527 14.4288C421.47 15.0864 424.375 16.0565 424.375 19.5215C424.375 23.7825 420.395 25.1685 416.762 25.1685C412.743 25.1685 409.352 23.5408 409.178 19.1057H412.122Z" fill="black"/>
<path d="M359.041 42.1209C358.349 38.6205 355.544 36.8542 352.118 36.8542C346.231 36.8542 343.738 41.7051 343.738 46.8687C343.738 52.5157 346.231 57.228 352.153 57.228C356.478 57.228 358.971 54.1789 359.283 50.0886H362.571C361.949 56.2578 358.107 60 351.876 60C344.189 60 340.45 54.3175 340.45 47.1104C340.45 39.9388 344.537 34.0806 352.153 34.0806C357.309 34.0806 361.569 36.8542 362.329 42.1209C362.329 42.1209 359.041 42.1209 359.041 42.1209Z" fill="black"/>
<path d="M382.034 59.3425C381.513 59.6519 380.856 59.826 379.922 59.826C378.399 59.826 377.429 58.9944 377.429 57.054C375.8 58.9589 373.62 59.826 371.127 59.826C367.875 59.826 365.208 58.3691 365.208 54.801C365.208 50.7494 368.219 49.8824 371.266 49.2925C374.521 48.6672 377.291 48.8768 377.291 46.6592C377.291 44.0968 375.178 43.6777 373.307 43.6777C370.815 43.6777 368.983 44.4416 368.844 47.075H365.901C366.075 42.6399 369.501 41.0798 373.481 41.0798C376.702 41.0798 380.199 41.8083 380.199 46.0017V55.2168C380.199 56.6028 380.199 57.2281 381.133 57.2281C381.374 57.2281 381.651 57.1926 382.034 57.054V59.3425ZM377.256 50.1596C376.112 50.9912 373.897 51.0266 371.923 51.3715C369.984 51.7164 368.322 52.4126 368.322 54.5947C368.322 56.5351 369.984 57.2281 371.787 57.2281C375.665 57.2281 377.256 54.801 377.256 53.1733V50.1596Z" fill="black"/>
<path d="M384.768 41.4956H387.538V44.3385H387.606C388.855 42.1209 390.861 41.0798 393.421 41.0798C398.13 41.0798 399.585 43.7841 399.585 47.6294V59.4102H396.642V47.2813C396.642 45.0992 395.257 43.6777 393.009 43.6777C389.441 43.6777 387.712 46.0693 387.712 49.2925V59.4102H384.768C384.768 59.4102 384.768 41.4956 384.768 41.4956Z" fill="black"/>
<path d="M419.88 59.3425C419.358 59.6519 418.701 59.826 417.767 59.826C416.244 59.826 415.275 58.9944 415.275 57.054C413.645 58.9589 411.465 59.826 408.972 59.826C405.72 59.826 403.053 58.3691 403.053 54.801C403.053 50.7494 406.064 49.8824 409.111 49.2925C412.367 48.6672 415.136 48.8768 415.136 46.6592C415.136 44.0968 413.024 43.6777 411.153 43.6777C408.66 43.6777 406.828 44.4416 406.689 47.075H403.746C403.92 42.6399 407.346 41.0798 411.326 41.0798C414.547 41.0798 418.044 41.8083 418.044 46.0017V55.2168C418.044 56.6028 418.044 57.2281 418.978 57.2281C419.219 57.2281 419.496 57.1926 419.88 57.054V59.3425ZM415.101 50.1596C413.957 50.9912 411.742 51.0266 409.768 51.3715C407.829 51.7164 406.167 52.4126 406.167 54.5947C406.167 56.5351 407.829 57.2281 409.633 57.2281C413.51 57.2281 415.101 54.801 415.101 53.1733V50.1596Z" fill="black"/>
<path d="M438.609 59.4101H435.666V56.9831H435.595C434.625 58.9589 432.342 59.8259 429.882 59.8259C424.378 59.8259 421.644 55.4617 421.644 50.4013C421.644 45.3409 424.343 41.0798 429.814 41.0798C431.65 41.0798 434.281 41.7728 435.595 43.8872H435.666V34.6721H438.609V59.4101ZM430.301 57.228C434.245 57.228 435.769 53.8308 435.769 50.4722C435.769 46.9364 434.178 43.6777 430.127 43.6777C426.111 43.6777 424.762 47.1104 424.762 50.6076C424.762 53.9694 426.491 57.228 430.301 57.228Z" fill="black"/>
<path d="M459 59.3425C458.482 59.6519 457.825 59.826 456.891 59.826C455.367 59.826 454.398 58.9944 454.398 57.054C452.772 58.9589 450.589 59.826 448.096 59.826C444.843 59.826 442.177 58.3691 442.177 54.801C442.177 50.7494 445.188 49.8824 448.235 49.2925C451.49 48.6672 454.26 48.8768 454.26 46.6592C454.26 44.0968 452.147 43.6777 450.279 43.6777C447.787 43.6777 445.951 44.4416 445.813 47.075H442.869C443.043 42.6399 446.47 41.0798 450.45 41.0798C453.67 41.0798 457.168 41.8083 457.168 46.0017V55.2168C457.168 56.6028 457.168 57.2281 458.102 57.2281C458.343 57.2281 458.62 57.1926 459 57.054V59.3425ZM454.224 50.1596C453.081 50.9912 450.865 51.0266 448.895 51.3715C446.956 51.7164 445.294 52.4126 445.294 54.5947C445.294 56.5351 446.956 57.2281 448.753 57.2281C452.63 57.2281 454.224 54.801 454.224 53.1733V50.1596Z" fill="black"/>
<path d="M118.714 0H89.0353V59.41H118.714V0Z" fill="#EB2D37"/>
<path d="M58.0751 54.8701C58.0751 54.8701 58.481 44.8589 58.481 43.8614C58.481 42.8637 57.6405 42.5188 56.6423 42.7379C55.6438 42.9571 46.2984 44.8588 46.2984 44.8588C46.2984 44.8588 46.978 42.8201 47.5093 41.3358C47.9828 40.0225 47.3612 39.5585 47.0133 39.2505C46.6496 38.9297 36.5668 30.1998 36.5668 30.1998L38.2219 29.3908C39.2171 28.9234 39.0592 28.0805 38.9048 27.5197C38.7502 26.9573 37.0852 21.1199 37.0852 21.1199C37.0852 21.1199 41.4423 22.0966 42.4633 22.2547C43.2715 22.3788 43.5548 22.0065 43.8061 21.444C44.0507 20.8816 45.1136 18.3253 45.1136 18.3253C45.1136 18.3253 50.4494 24.2399 50.5622 24.3432C51.5927 25.2796 52.6298 24.5545 52.4042 23.4696C52.1948 22.4656 49.6606 10.6525 49.6606 10.6525C49.6606 10.6525 52.4943 12.3368 53.4314 12.8976C54.3686 13.46 54.8646 13.3649 55.3638 12.4626C55.8628 11.5569 59.3569 4.53992 59.3569 4.53992C59.3569 4.53992 62.851 11.5569 63.35 12.4626C63.8492 13.3649 64.3452 13.46 65.2824 12.8976C66.2195 12.3368 69.0532 10.6525 69.0532 10.6525C69.0532 10.6525 66.519 22.4656 66.3096 23.4696C66.084 24.5545 67.1211 25.2796 68.1516 24.3432C68.2644 24.2399 73.6002 18.3253 73.6002 18.3253C73.6002 18.3253 74.6631 20.8816 74.9077 21.444C75.159 22.0065 75.4423 22.3788 76.2505 22.2547C77.2715 22.0966 81.6286 21.1199 81.6286 21.1199C81.6286 21.1199 79.9636 26.9573 79.809 27.5197C79.6547 28.0805 79.4967 28.9234 80.4919 29.3908L82.147 30.1998C82.147 30.1998 72.0642 38.9297 71.7005 39.2505C71.3526 39.5585 70.7343 40.0225 71.2045 41.3358C71.7358 42.8201 72.4154 44.8588 72.4154 44.8588C72.4154 44.8588 63.07 42.9571 62.0715 42.7379C61.0733 42.5187 60.2328 42.8637 60.2328 43.8614C60.2328 44.8588 60.6387 54.8701 60.6387 54.8701H58.0751Z" fill="#EB2D37"/>
<path d="M29.6784 0H0V59.41H29.6784V0Z" fill="#EB2D37"/>
</g>
<defs>
<clipPath id="clip0_1_2">
<rect width="459" height="60" fill="white"/>
</clipPath>
</defs>
</svg>
