<svg width="100" height="13" viewBox="0 0 100 13" fill="none" xmlns="http://www.w3.org/2000/svg">
<g clip-path="url(#clip0_13010_153)">
<mask id="mask0_13010_153" style="mask-type:luminance" maskUnits="userSpaceOnUse" x="0" y="0" width="100" height="13">
<path d="M100 0H0V13H100V0Z" fill="white"/>
</mask>
<g mask="url(#mask0_13010_153)">
<path d="M37.5684 0.00195312H39.9285C40.9997 0.00195312 41.5801 0.595559 41.5801 1.58653C41.5801 2.57751 40.9997 3.17808 39.9285 3.17041H38.2847V5.36256H37.5684V0.00195312ZM38.2847 2.56981H39.6871C40.4941 2.57751 40.8638 2.22414 40.8638 1.58653C40.8638 0.948232 40.4941 0.602542 39.6871 0.602542H38.2847V2.56981Z" fill="black"/>
<path d="M45.5039 5.34879C45.3902 5.41654 45.247 5.45424 45.0436 5.45424C44.7117 5.45424 44.5006 5.27406 44.5006 4.85366C44.1455 5.26639 43.6706 5.45424 43.1274 5.45424C42.4189 5.45424 41.8379 5.13927 41.8379 4.36549C41.8379 3.48697 42.4939 3.29979 43.1577 3.172C43.8671 3.03721 44.4704 3.08191 44.4704 2.60143C44.4704 2.04554 44.0102 1.95615 43.6026 1.95615C43.0595 1.95615 42.6603 2.12097 42.63 2.69152H41.9889C42.0268 1.73058 42.7732 1.39258 43.6403 1.39258C44.342 1.39258 45.1039 1.55041 45.1039 2.45897V4.45558C45.1039 4.75588 45.1039 4.89136 45.3074 4.89136C45.3599 4.89136 45.4202 4.88369 45.5039 4.85366V5.34879ZM44.4627 3.35985C44.2135 3.54003 43.7309 3.54701 43.3009 3.62245C42.8784 3.69787 42.5165 3.84731 42.5165 4.32081C42.5165 4.74121 42.8784 4.89136 43.2714 4.89136C44.1161 4.89136 44.4627 4.36549 44.4627 4.01282V3.35985Z" fill="black"/>
<path d="M46.0762 1.48185H46.6794V2.30031H46.6943C47.0036 1.67739 47.4337 1.36941 48.1276 1.39176V2.06777C47.0943 2.06777 46.7174 2.653 46.7174 3.637V5.36333H46.0762V1.48185Z" fill="black"/>
<path d="M48.6484 0.00195312H49.2896V3.17808L51.0689 1.48108H51.929L50.3826 2.89247L52.0419 5.36256H51.2273L49.8929 3.33593L49.2896 3.89111V5.36256H48.6484V0.00195312Z" fill="black"/>
<path d="M52.9185 4.14063C52.941 4.71118 53.4392 4.89136 53.9667 4.89136C54.3667 4.89136 54.9096 4.80127 54.9096 4.31312C54.9096 3.81799 54.2763 3.73488 53.6349 3.59242C53.0013 3.44994 52.3608 3.23973 52.3608 2.49669C52.3608 1.71592 53.1375 1.39258 53.8159 1.39258C54.676 1.39258 55.3623 1.66284 55.4148 2.60912H54.7743C54.7288 2.11329 54.2915 1.95615 53.8693 1.95615C53.4841 1.95615 53.0392 2.06091 53.0392 2.4513C53.0392 2.90942 53.7176 2.98415 54.3139 3.12661C54.9553 3.26976 55.588 3.47997 55.588 4.23072C55.588 5.15394 54.7209 5.45424 53.9296 5.45424C53.054 5.45424 52.3153 5.10157 52.2773 4.14063H52.9185Z" fill="black"/>
<path d="M41.3531 9.12648C41.2021 8.36806 40.591 7.98537 39.8446 7.98537C38.562 7.98537 38.0191 9.03639 38.0191 10.1545C38.0191 11.3787 38.562 12.3997 39.8522 12.3997C40.7945 12.3997 41.3376 11.7391 41.4056 10.8528H42.1219C41.9866 12.1895 41.1496 13.0003 39.7918 13.0003C38.1173 13.0003 37.3027 11.7691 37.3027 10.2075C37.3027 8.653 38.1929 7.38477 39.8522 7.38477C40.9755 7.38477 41.9038 7.98537 42.0694 9.12648H41.3531Z" fill="black"/>
<path d="M46.3631 12.8566C46.2493 12.9243 46.1062 12.962 45.9027 12.962C45.5709 12.962 45.3598 12.7819 45.3598 12.3615C45.0047 12.7742 44.5297 12.962 43.9868 12.962C43.2781 12.962 42.6973 12.6471 42.6973 11.8733C42.6973 10.9948 43.3533 10.8076 44.0169 10.6798C44.7262 10.545 45.3295 10.5897 45.3295 10.1093C45.3295 9.55336 44.8694 9.46396 44.4618 9.46396C43.9186 9.46396 43.5195 9.62878 43.4892 10.1994H42.848C42.8859 9.23839 43.6323 8.90039 44.4997 8.90039C45.2012 8.90039 45.9631 9.05821 45.9631 9.96678V11.9634C45.9631 12.2637 45.9631 12.3992 46.1665 12.3992C46.2193 12.3992 46.2796 12.3915 46.3631 12.3615V12.8566ZM45.3219 10.8677C45.0729 11.0478 44.5901 11.0548 44.16 11.1303C43.7376 11.2057 43.3757 11.3551 43.3757 11.8286C43.3757 12.249 43.7376 12.3992 44.1306 12.3992C44.9753 12.3992 45.3219 11.8733 45.3219 11.5206V10.8677Z" fill="black"/>
<path d="M46.959 8.99048H47.5623V9.60644H47.5771C47.8492 9.12596 48.2864 8.90039 48.8442 8.90039C49.8699 8.90039 50.1869 9.48632 50.1869 10.3194V12.872H49.5457V10.2447C49.5457 9.77124 49.244 9.46396 48.7544 9.46396C47.9768 9.46396 47.6002 9.98145 47.6002 10.6798V12.872H46.959V8.99048Z" fill="black"/>
<path d="M54.6092 12.8566C54.4954 12.9243 54.3523 12.962 54.1488 12.962C53.817 12.962 53.6059 12.7819 53.6059 12.3615C53.2508 12.7742 52.7758 12.962 52.2329 12.962C51.5242 12.962 50.9434 12.6471 50.9434 11.8733C50.9434 10.9948 51.5993 10.8076 52.263 10.6798C52.9723 10.545 53.5756 10.5897 53.5756 10.1093C53.5756 9.55336 53.1155 9.46396 52.7078 9.46396C52.1647 9.46396 51.7656 9.62878 51.7353 10.1994H51.0941C51.132 9.23839 51.8784 8.90039 52.7458 8.90039C53.4473 8.90039 54.2092 9.05821 54.2092 9.96678V11.9634C54.2092 12.2637 54.2092 12.3992 54.4126 12.3992C54.4654 12.3992 54.5257 12.3915 54.6092 12.3615V12.8566ZM53.568 10.8677C53.319 11.0478 52.8362 11.0548 52.4061 11.1303C51.9837 11.2057 51.6218 11.3551 51.6218 11.8286C51.6218 12.249 51.9837 12.3992 52.3767 12.3992C53.2214 12.3992 53.568 11.8733 53.568 11.5206V10.8677Z" fill="black"/>
<path d="M58.688 12.8723H58.0469V12.3472H58.0314C57.8203 12.7746 57.3229 12.9624 56.7867 12.9624C55.5878 12.9624 54.9922 12.0161 54.9922 10.9204C54.9922 9.82468 55.58 8.90075 56.7721 8.90075C57.1719 8.90075 57.7451 9.0509 58.0314 9.50902H58.0469V7.51172H58.688V12.8723ZM56.878 12.3995C57.7375 12.3995 58.0693 11.6635 58.0693 10.9351C58.0693 10.1697 57.7227 9.46432 56.8401 9.46432C55.9652 9.46432 55.6713 10.2074 55.6713 10.9658C55.6713 11.6935 56.048 12.3995 56.878 12.3995Z" fill="black"/>
<path d="M63.1319 12.8566C63.0191 12.9243 62.8759 12.962 62.6725 12.962C62.3407 12.962 62.1295 12.7819 62.1295 12.3615C61.7751 12.7742 61.2995 12.962 60.7563 12.962C60.0478 12.962 59.4668 12.6471 59.4668 11.8733C59.4668 10.9948 60.1228 10.8076 60.7866 10.6798C61.496 10.545 62.0993 10.5897 62.0993 10.1093C62.0993 9.55336 61.6391 9.46396 61.2322 9.46396C60.689 9.46396 60.2892 9.62878 60.259 10.1994H59.6178C59.6557 9.23839 60.4021 8.90039 61.2692 8.90039C61.9709 8.90039 62.7328 9.05821 62.7328 9.96678V11.9634C62.7328 12.2637 62.7328 12.3992 62.9363 12.3992C62.9888 12.3992 63.0491 12.3915 63.1319 12.3615V12.8566ZM62.0916 10.8677C61.8424 11.0478 61.3598 11.0548 60.9304 11.1303C60.508 11.2057 60.1461 11.3551 60.1461 11.8286C60.1461 12.249 60.508 12.3992 60.8995 12.3992C61.7444 12.3992 62.0916 11.8733 62.0916 11.5206V10.8677Z" fill="black"/>
<path d="M74.4375 0.00390625H76.7976C77.8689 0.00390625 78.449 0.596813 78.449 1.58779C78.449 2.57876 77.8689 3.17934 76.7976 3.17167H75.1536V5.36382H74.4375V0.00390625ZM75.1536 2.57107H76.5562C77.363 2.57876 77.7327 2.22609 77.7327 1.58779C77.7327 0.949485 77.363 0.604496 76.5562 0.604496H75.1536V2.57107Z" fill="black"/>
<path d="M82.3709 5.34752C82.2574 5.41458 82.1142 5.45228 81.9107 5.45228C81.5789 5.45228 81.3676 5.2721 81.3676 4.8517C81.0127 5.26443 80.5378 5.45228 79.9946 5.45228C79.2861 5.45228 78.7051 5.13662 78.7051 4.36355C78.7051 3.48571 79.3611 3.29784 80.0249 3.17005C80.7341 3.03456 81.3375 3.07996 81.3375 2.5995C81.3375 2.04429 80.8772 1.9535 80.4696 1.9535C79.9266 1.9535 79.5273 2.11901 79.4972 2.68957H78.8561C78.8937 1.72863 79.6404 1.39062 80.5075 1.39062C81.209 1.39062 81.9711 1.54846 81.9711 2.45702V4.45362C81.9711 4.75392 81.9711 4.8894 82.1746 4.8894C82.2271 4.8894 82.2874 4.88173 82.3709 4.8517V5.34752ZM81.3297 3.3579C81.0807 3.53808 80.5981 3.54577 80.168 3.6205C79.7456 3.69522 79.3835 3.84607 79.3835 4.31886C79.3835 4.73925 79.7456 4.8894 80.1384 4.8894C80.9833 4.8894 81.3297 4.36355 81.3297 4.01086V3.3579Z" fill="black"/>
<path d="M82.9453 1.48185H83.5486V2.30033H83.5634C83.8728 1.67739 84.3028 1.36941 84.9967 1.39176V2.06777C83.9632 2.06777 83.5865 2.653 83.5865 3.63628V5.36333H82.9453V1.48185Z" fill="black"/>
<path d="M87.991 2.72729C87.8927 2.23914 87.5539 1.9535 87.0256 1.9535C86.0982 1.9535 85.8119 2.6819 85.8119 3.47035C85.8119 4.18337 86.1361 4.8894 86.9505 4.8894C87.5685 4.8894 87.9385 4.52904 88.0213 3.94313H88.6773C88.5341 4.8894 87.9385 5.45228 86.9583 5.45228C85.7661 5.45228 85.1328 4.62683 85.1328 3.47035C85.1328 2.30687 85.7361 1.39062 86.9729 1.39062C87.8557 1.39062 88.5642 1.80406 88.6546 2.72729H87.991Z" fill="black"/>
<path d="M89.7879 4.13868C89.8103 4.70922 90.3084 4.8894 90.836 4.8894C91.236 4.8894 91.7789 4.79931 91.7789 4.31116C91.7789 3.81532 91.1454 3.73292 90.5042 3.59047C89.8707 3.44799 89.2301 3.2378 89.2301 2.49402C89.2301 1.71327 90.0068 1.39062 90.6853 1.39062C91.5454 1.39062 92.2314 1.66089 92.2842 2.60717H91.6437C91.5979 2.11133 91.1609 1.9535 90.7384 1.9535C90.3532 1.9535 89.9086 2.05895 89.9086 2.44935C89.9086 2.90747 90.587 2.9822 91.1833 3.12535C91.8245 3.26783 92.4574 3.47802 92.4574 4.22877C92.4574 5.15198 91.5903 5.45228 90.7988 5.45228C89.9232 5.45228 89.1844 5.09961 89.1465 4.13868H89.7879Z" fill="black"/>
<path d="M78.2222 9.12683C78.0714 8.36841 77.4603 7.98571 76.7139 7.98571C75.4314 7.98571 74.8882 9.03674 74.8882 10.1555C74.8882 11.379 75.4314 12.4 76.7215 12.4C77.6638 12.4 78.2069 11.7394 78.2749 10.8532H78.9913C78.8558 12.1898 78.0187 13.0006 76.6612 13.0006C74.9865 13.0006 74.1719 11.7694 74.1719 10.2079C74.1719 8.65404 75.0623 7.38477 76.7215 7.38477C77.8449 7.38477 78.773 7.98571 78.9385 9.12683H78.2222Z" fill="black"/>
<path d="M83.2322 12.8573C83.1187 12.9243 82.9756 12.9621 82.7721 12.9621C82.4403 12.9621 82.2289 12.7819 82.2289 12.3615C81.874 12.7742 81.3991 12.9621 80.856 12.9621C80.1475 12.9621 79.5664 12.6464 79.5664 11.8733C79.5664 10.9955 80.2224 10.8076 80.8862 10.6798C81.5954 10.5443 82.1989 10.5897 82.1989 10.1093C82.1989 9.55407 81.7385 9.46327 81.3309 9.46327C80.788 9.46327 80.3888 9.62878 80.3586 10.1994H79.7174C79.7553 9.23841 80.5017 8.90039 81.3688 8.90039C82.0705 8.90039 82.8324 9.05823 82.8324 9.9668V11.9634C82.8324 12.2637 82.8324 12.3992 83.0359 12.3992C83.0884 12.3992 83.1488 12.3915 83.2322 12.3615V12.8573ZM82.1912 10.8677C81.942 11.0479 81.4594 11.0555 81.0294 11.1303C80.6069 11.205 80.2448 11.3558 80.2448 11.8286C80.2448 12.249 80.6069 12.3992 80.9997 12.3992C81.8446 12.3992 82.1912 11.8733 82.1912 11.5206V10.8677Z" fill="black"/>
<path d="M83.8281 8.99048H84.4316V9.60644H84.4464C84.7185 9.12596 85.1556 8.90039 85.7133 8.90039C86.7392 8.90039 87.0562 9.48632 87.0562 10.3195V12.872H86.4151V10.244C86.4151 9.77126 86.1133 9.46327 85.6235 9.46327C84.8462 9.46327 84.4695 9.98145 84.4695 10.6798V12.872H83.8281V8.99048Z" fill="black"/>
<path d="M91.4766 12.8573C91.3628 12.9243 91.2197 12.9621 91.0162 12.9621C90.6844 12.9621 90.4733 12.7819 90.4733 12.3615C90.1182 12.7742 89.6432 12.9621 89.1001 12.9621C88.3916 12.9621 87.8105 12.6464 87.8105 11.8733C87.8105 10.9955 88.4665 10.8076 89.1304 10.6798C89.8397 10.5443 90.443 10.5897 90.443 10.1093C90.443 9.55407 89.9829 9.46327 89.5753 9.46327C89.0321 9.46327 88.633 9.62878 88.6027 10.1994H87.9615C87.9994 9.23841 88.7458 8.90039 89.6129 8.90039C90.3147 8.90039 91.0766 9.05823 91.0766 9.9668V11.9634C91.0766 12.2637 91.0766 12.3992 91.28 12.3992C91.3325 12.3992 91.3929 12.3915 91.4766 12.3615V12.8573ZM90.4354 10.8677C90.1861 11.0479 89.7036 11.0555 89.2735 11.1303C88.8511 11.205 88.489 11.3558 88.489 11.8286C88.489 12.249 88.8511 12.3992 89.2441 12.3992C90.0888 12.3992 90.4354 11.8733 90.4354 11.5206V10.8677Z" fill="black"/>
<path d="M95.5574 12.8716H94.9162V12.3458H94.9008C94.6894 12.7739 94.192 12.9617 93.6561 12.9617C92.457 12.9617 91.8613 12.0161 91.8613 10.9197C91.8613 9.82329 92.4493 8.90005 93.6413 8.90005C94.0413 8.90005 94.6145 9.0502 94.9008 9.50832H94.9162V7.51172H95.5574V12.8716ZM93.7474 12.3988C94.6066 12.3988 94.9387 11.6628 94.9387 10.9351C94.9387 10.169 94.592 9.46293 93.7095 9.46293C92.8345 9.46293 92.5406 10.2067 92.5406 10.9644C92.5406 11.6928 92.9173 12.3988 93.7474 12.3988Z" fill="black"/>
<path d="M99.9991 12.8573C99.8863 12.9243 99.7431 12.9621 99.5396 12.9621C99.2076 12.9621 98.9965 12.7819 98.9965 12.3615C98.6423 12.7742 98.1667 12.9621 97.6235 12.9621C96.9148 12.9621 96.334 12.6464 96.334 11.8733C96.334 10.9955 96.99 10.8076 97.6538 10.6798C98.363 10.5443 98.9664 10.5897 98.9664 10.1093C98.9664 9.55407 98.5061 9.46327 98.0991 9.46327C97.5562 9.46327 97.1562 9.62878 97.1261 10.1994H96.4847C96.5227 9.23841 97.2693 8.90039 98.1364 8.90039C98.8379 8.90039 99.6 9.05823 99.6 9.9668V11.9634C99.6 12.2637 99.6 12.3992 99.8035 12.3992C99.856 12.3992 99.9163 12.3915 99.9991 12.3615V12.8573ZM98.9586 10.8677C98.7096 11.0479 98.2268 11.0555 97.7976 11.1303C97.3752 11.205 97.0131 11.3558 97.0131 11.8286C97.0131 12.249 97.3752 12.3992 97.7667 12.3992C98.6113 12.3992 98.9586 11.8733 98.9586 11.5206V10.8677Z" fill="black"/>
<path d="M25.8644 0H19.3984V12.8722H25.8644V0Z" fill="#EB2D37"/>
<path d="M12.6527 11.8892C12.6527 11.8892 12.7411 9.72015 12.7411 9.50403C12.7411 9.28786 12.558 9.21313 12.3405 9.2606C12.123 9.3081 10.087 9.72013 10.087 9.72013C10.087 9.72013 10.235 9.27841 10.3508 8.95682C10.4539 8.67227 10.3185 8.57173 10.2427 8.505C10.1635 8.43549 7.9668 6.54402 7.9668 6.54402L8.32739 6.36873C8.5442 6.26746 8.5098 6.08483 8.47617 5.96333C8.44248 5.84147 8.07974 4.5767 8.07974 4.5767C8.07974 4.5767 9.029 4.78832 9.25144 4.82258C9.42752 4.84947 9.48924 4.7688 9.54399 4.64693C9.59728 4.52507 9.82885 3.97121 9.82885 3.97121C9.82885 3.97121 10.9913 5.2527 11.0159 5.27509C11.2404 5.47797 11.4664 5.32087 11.4172 5.08581C11.3716 4.86827 10.8195 2.30877 10.8195 2.30877C10.8195 2.30877 11.4368 2.6737 11.641 2.79521C11.8452 2.91706 11.9532 2.89645 12.062 2.70096C12.1707 2.50472 12.932 0.984375 12.932 0.984375C12.932 0.984375 13.6932 2.50472 13.8019 2.70096C13.9107 2.89645 14.0187 2.91706 14.2229 2.79521C14.4271 2.6737 15.0444 2.30877 15.0444 2.30877C15.0444 2.30877 14.4923 4.86827 14.4467 5.08581C14.3976 5.32087 14.6235 5.47797 14.848 5.27509C14.8726 5.2527 16.0351 3.97121 16.0351 3.97121C16.0351 3.97121 16.2666 4.52507 16.3199 4.64693C16.3747 4.7688 16.4364 4.84947 16.6125 4.82258C16.8349 4.78832 17.7842 4.5767 17.7842 4.5767C17.7842 4.5767 17.4214 5.84147 17.3878 5.96333C17.3541 6.08483 17.3197 6.26746 17.5365 6.36873L17.8971 6.54402C17.8971 6.54402 15.7004 8.43549 15.6212 8.505C15.5454 8.57173 15.4107 8.67227 15.5131 8.95682C15.6289 9.27841 15.7769 9.72013 15.7769 9.72013C15.7769 9.72013 13.7409 9.3081 13.5234 9.2606C13.3059 9.21311 13.1228 9.28786 13.1228 9.50403C13.1228 9.72013 13.2112 11.8892 13.2112 11.8892H12.6527Z" fill="#EB2D37"/>
<path d="M6.46588 0H0V12.8722H6.46588V0Z" fill="#EB2D37"/>
</g>
</g>
<defs>
<clipPath id="clip0_13010_153">
<rect width="100" height="13" fill="white"/>
</clipPath>
</defs>
</svg>
