<?xml version="1.0" encoding="UTF-8"?>
<svg id="Layer_1" xmlns="http://www.w3.org/2000/svg" width="774.52" height="100" version="1.1" viewBox="0 0 774.52 100">
  <!-- Generator: Adobe Illustrator 29.5.1, SVG Export Plug-In . SVG Version: 2.1.0 Build 141)  -->
  <defs>
    <style>
      .st0 {
        fill: #231f20;
      }

      .st1 {
        fill: #ed1c24;
      }
    </style>
  </defs>
  <path class="st0" d="M592.54,12.5c-1.35-6.31-6.61-7.46-10.06-7.46-6.51,0-11.78,4.8-11.78,14.27,0,8.46,3.01,14.97,11.92,14.97,3.15,0,8.61-1.5,10.27-9.87h4.7c-2,13.58-13.02,14.17-15.72,14.17-8.16,0-16.17-5.3-16.17-19.12,0-11.06,6.3-18.72,16.77-18.72,9.25,0,14.06,5.76,14.77,11.77h-4.71Z"/>
  <path class="st0" d="M618.87,28.57c0,3.51-4,6.15-8.1,6.15-3.3,0-4.75-1.7-4.75-4.55,0-3.3,3.45-3.96,5.6-4.26,5.45-.7,6.56-1.1,7.26-1.65v4.31ZM606.81,19.4c.3-2,1.01-5.06,6-5.06,4.16,0,6.16,1.51,6.16,4.26,0,2.61-1.25,3-2.3,3.11l-7.27.89c-7.31.9-7.96,6.01-7.96,8.21,0,4.5,3.41,7.56,8.22,7.56,5.09,0,7.75-2.4,9.45-4.25.15,2,.75,4,4.66,4,1,0,1.65-.3,2.4-.5v-3.2c-.5.1-1.05.2-1.44.2-.9,0-1.45-.45-1.45-1.55v-15.06c0-6.71-7.62-7.31-9.72-7.31-6.46,0-10.61,2.46-10.81,8.71h4.05Z"/>
  <path class="st0" d="M652.06,37.63h-4.39v-16.12c0-4.56-1.3-6.86-5.61-6.86-2.49,0-6.9,1.6-6.9,8.71v14.27h-4.41V11.45h4.15v3.7h.11c.95-1.4,3.41-4.46,7.9-4.46,4.06,0,9.16,1.65,9.16,9.11v17.82Z"/>
  <path class="st0" d="M674.55,28.57c0,3.51-4,6.15-8.12,6.15-3.3,0-4.75-1.7-4.75-4.55,0-3.3,3.46-3.96,5.61-4.26,5.45-.7,6.56-1.1,7.26-1.65v4.31ZM662.48,19.4c.3-2,1-5.06,6-5.06,4.15,0,6.15,1.51,6.15,4.26,0,2.61-1.25,3-2.3,3.11l-7.26.89c-7.31.9-7.96,6.01-7.96,8.21,0,4.5,3.41,7.56,8.21,7.56,5.1,0,7.77-2.4,9.45-4.25.15,2,.76,4,4.66,4,1.01,0,1.65-.3,2.41-.5v-3.2c-.51.1-1.05.2-1.45.2-.89,0-1.44-.45-1.44-1.55v-15.06c0-6.71-7.62-7.31-9.72-7.31-6.46,0-10.61,2.46-10.81,8.71h4.05Z"/>
  <path class="st0" d="M689.46,24.46c0-3.35.35-9.82,7.17-9.82,6.34,0,7.05,6.86,7.05,11.12,0,6.96-4.36,8.81-7.16,8.81-4.82,0-7.07-4.35-7.07-10.11ZM708.13,1.68h-4.4v13.47h-.1c-1.05-1.5-3.04-4.46-7.82-4.46-6.95,0-10.91,5.7-10.91,13.06,0,6.26,2.6,14.62,11.51,14.62,2.56,0,5.56-.8,7.46-4.35h.11v3.6h4.15V1.68Z"/>
  <path class="st0" d="M718.75,37.63h-4.4V11.45h4.4v26.18ZM714.35,6.69V1.68h4.4v5.01h-4.4Z"/>
  <path class="st0" d="M741.34,28.57c0,3.51-4.01,6.15-8.13,6.15-3.3,0-4.75-1.7-4.75-4.55,0-3.3,3.46-3.96,5.61-4.26,5.46-.7,6.56-1.1,7.27-1.65v4.31ZM729.26,19.4c.3-2,1-5.06,6-5.06,4.16,0,6.15,1.51,6.15,4.26,0,2.61-1.24,3-2.3,3.11l-7.26.89c-7.31.9-7.96,6.01-7.96,8.21,0,4.5,3.41,7.56,8.21,7.56,5.1,0,7.76-2.4,9.46-4.25.15,2,.74,4,4.65,4,1.01,0,1.65-.3,2.41-.5v-3.2c-.5.1-1.05.2-1.45.2-.9,0-1.45-.45-1.45-1.55v-15.06c0-6.71-7.61-7.31-9.71-7.31-6.46,0-10.62,2.46-10.81,8.71h4.05Z"/>
  <path class="st0" d="M774.52,37.63h-4.41v-16.12c0-4.56-1.29-6.86-5.6-6.86-2.5,0-6.91,1.6-6.91,8.71v14.27h-4.41V11.45h4.17v3.7h.08c.97-1.4,3.41-4.46,7.91-4.46,4.06,0,9.17,1.65,9.17,9.11v17.82Z"/>
  <polygon class="st0" points="590.99 51.74 595.84 51.74 595.84 87.69 590.99 87.69 590.99 70.91 572.22 70.91 572.22 87.69 567.37 87.69 567.37 51.74 572.22 51.74 572.22 66.61 590.99 66.61 590.99 51.74"/>
  <path class="st0" d="M606.37,72.52c0-4.05,3.2-7.8,7.25-7.8,5.37,0,7.06,3.75,7.32,7.8h-14.57ZM620.73,79.48c-.15,1.96-2.61,5.16-6.76,5.16-5.06,0-7.61-3.16-7.61-8.61h19.12c0-9.26-3.7-15.27-11.26-15.27-8.67,0-12.57,6.46-12.57,14.57,0,7.56,4.36,13.12,11.71,13.12,4.2,0,5.91-1,7.12-1.8,3.3-2.21,4.5-5.9,4.65-7.16h-4.4Z"/>
  <path class="st0" d="M635.75,87.69h-4.4v-26.19h4.15v4.37h.11c1.75-3.06,4.05-5.11,7.35-5.11.55,0,.81.05,1.16.15v4.55h-1.66c-4.11,0-6.7,3.2-6.7,7.01v15.22Z"/>
  <path class="st0" d="M652.67,87.69h-4.4v-26.19h4.4v26.19ZM648.27,56.75v-5h4.4v5h-4.4Z"/>
  <path class="st0" d="M664.68,65.16v17.02c0,2.05,1.75,2.05,2.66,2.05h1.54v3.46c-1.59.15-2.84.35-3.3.35-4.35,0-5.3-2.46-5.3-5.61v-17.27h-3.55v-3.66h3.55v-7.31h4.4v7.31h4.2v3.66h-4.2Z"/>
  <path class="st0" d="M689.16,78.63c0,3.51-4.01,6.15-8.12,6.15-3.3,0-4.75-1.7-4.75-4.55,0-3.3,3.46-3.95,5.6-4.26,5.46-.7,6.57-1.1,7.27-1.65v4.31ZM677.09,69.47c.3-2,1.01-5.05,6.01-5.05,4.15,0,6.15,1.5,6.15,4.25s-1.25,3.01-2.3,3.11l-7.26.9c-7.31.9-7.96,6.01-7.96,8.21,0,4.5,3.41,7.56,8.21,7.56,5.1,0,7.75-2.4,9.45-4.25.16,2,.76,4,4.66,4,1,0,1.66-.3,2.41-.5v-3.21c-.51.1-1.05.2-1.45.2-.9,0-1.45-.45-1.45-1.55v-15.06c0-6.71-7.61-7.31-9.71-7.31-6.47,0-10.62,2.45-10.81,8.71h4.04Z"/>
  <path class="st0" d="M704.33,74.52c0-3.35.34-9.81,7.16-9.81,6.35,0,7.05,6.85,7.05,11.11,0,6.96-4.35,8.81-7.16,8.81-4.81,0-7.05-4.35-7.05-10.11ZM722.76,61.5h-4.17v3.87c-1.1-1.61-3.15-4.61-7.9-4.61-6.96,0-10.92,5.7-10.92,13.06,0,6.25,2.6,14.62,11.51,14.62,3.51,0,5.81-1.61,7.07-3.71v1.1c0,3.11.15,9.21-7.46,9.21-1.05,0-5.1,0-5.91-4.15h-4.39c.84,6.96,6.9,7.81,9.99,7.81,12.13,0,12.18-9.41,12.18-13.17v-24.03Z"/>
  <path class="st0" d="M732.32,72.52c0-4.05,3.2-7.8,7.26-7.8,5.36,0,7.05,3.75,7.31,7.8h-14.57ZM746.67,79.48c-.14,1.96-2.59,5.16-6.75,5.16-5.06,0-7.61-3.16-7.61-8.61h19.13c0-9.26-3.71-15.27-11.27-15.27-8.67,0-12.57,6.46-12.57,14.57,0,7.56,4.36,13.12,11.71,13.12,4.21,0,5.91-1,7.11-1.8,3.31-2.21,4.51-5.9,4.67-7.16h-4.42Z"/>
  <path class="st0" d="M255.95,4.28h9.98c4.06,0,7.2,1.47,7.2,6.08,0,4.91-2.99,6.54-7.4,6.54h-9.78V4.28ZM255.95,21.09h11.46c7.9,0,10.8-5.72,10.8-10.79,0-5.88-4.06-10.24-10.8-10.24h-16.37v36.39h4.91v-15.36Z"/>
  <path class="st0" d="M297.92,27.28c0,3.55-4.05,6.24-8.21,6.24-3.34,0-4.82-1.72-4.82-4.61,0-3.34,3.5-4,5.68-4.31,5.52-.71,6.64-1.12,7.35-1.67v4.35ZM285.7,18.01c.3-2.03,1.01-5.12,6.08-5.12,4.2,0,6.23,1.52,6.23,4.31,0,2.64-1.26,3.04-2.33,3.14l-7.34.92c-7.39.91-8.06,6.08-8.06,8.32,0,4.56,3.45,7.65,8.32,7.65,5.17,0,7.86-2.43,9.58-4.31.15,2.03.76,4.05,4.71,4.05,1.02,0,1.68-.3,2.43-.5v-3.24c-.51.1-1.06.21-1.46.21-.91,0-1.47-.46-1.47-1.58v-15.26c0-6.79-7.7-7.4-9.82-7.4-6.54,0-10.75,2.48-10.95,8.82h4.11Z"/>
  <path class="st0" d="M315.4,13.65v17.23c0,2.07,1.77,2.07,2.68,2.07h1.58v3.5c-1.62.15-2.9.36-3.35.36-4.4,0-5.37-2.48-5.37-5.68V13.65h-3.61v-3.7h3.61V2.55h4.46v7.4h4.26v3.7h-4.26Z"/>
  <path class="st0" d="M329.08,36.45h-4.46V9.95h4.2v4.41h.11c1.77-3.09,4.11-5.17,7.45-5.17.55,0,.81.05,1.17.15v4.61h-1.67c-4.17,0-6.8,3.24-6.8,7.1v15.4Z"/>
  <path class="st0" d="M346.22,36.45h-4.46V9.95h4.46v26.51ZM341.76,5.13V.06h4.46v5.07h-4.46Z"/>
  <path class="st0" d="M352.9,9.95h4.21v3.75h.11c.97-1.42,3.24-4.51,8.01-4.51s6.28,2.89,7.03,4.3c2.23-2.48,4-4.3,8.12-4.3,2.83,0,8.21,1.47,8.21,8.92v18.34h-4.47v-17.13c0-3.65-1.1-6.13-4.91-6.13s-6.24,3.55-6.24,7.09v16.17h-4.46v-18.34c0-2.23-.86-4.91-4.15-4.91-2.55,0-7,1.62-7,8.82v14.44h-4.47V9.95Z"/>
  <path class="st0" d="M398.22,23.18c0-3.55,1.32-10.14,7.7-10.14s7.7,6.59,7.7,10.14-1.32,10.13-7.7,10.13-7.7-6.59-7.7-10.13ZM393.6,23.18c0,6.84,3.85,13.98,12.32,13.98s12.32-7.14,12.32-13.98-3.86-13.99-12.32-13.99-12.32,7.15-12.32,13.99Z"/>
  <path class="st0" d="M427.87,36.45h-4.47V9.95h4.47v26.51ZM423.4,5.13V.06h4.47v5.07h-4.47Z"/>
  <path class="st0" d="M456.15,36.45h-4.47v-16.32c0-4.61-1.33-6.94-5.68-6.94-2.54,0-6.99,1.62-6.99,8.82v14.44h-4.47V9.95h4.21v3.75h.11c.95-1.42,3.45-4.51,8-4.51,4.11,0,9.28,1.67,9.28,9.22v18.04Z"/>
  <path class="st0" d="M466.24,21.09c0-4.1,3.24-7.9,7.34-7.9,5.42,0,7.15,3.8,7.4,7.9h-14.75ZM480.77,28.15c-.15,1.97-2.63,5.22-6.84,5.22-5.11,0-7.69-3.19-7.69-8.72h19.35c0-9.38-3.74-15.46-11.4-15.46-8.77,0-12.72,6.54-12.72,14.75,0,7.65,4.41,13.28,11.86,13.28,4.26,0,5.98-1.02,7.19-1.82,3.35-2.23,4.57-5.98,4.72-7.25h-4.47Z"/>
  <path class="st0" d="M270.03,69.55c-.56-3.54-2.54-5.68-6.29-5.68-5.52,0-7.3,5.27-7.3,9.99s1.12,10.18,7.26,10.18c2.98,0,5.57-2.23,6.33-6.29h4.3c-.46,4.21-3.04,10.14-10.79,10.14s-11.86-5.63-11.86-13.28c0-8.21,3.96-14.75,12.72-14.75,6.95,0,9.58,5.07,9.93,9.68h-4.3Z"/>
  <path class="st0" d="M294.96,77.97c0,3.54-4.05,6.23-8.21,6.23-3.34,0-4.82-1.72-4.82-4.61,0-3.34,3.5-4,5.68-4.31,5.53-.71,6.65-1.11,7.35-1.67v4.36ZM282.75,68.69c.3-2.03,1.01-5.12,6.08-5.12,4.21,0,6.24,1.52,6.24,4.31,0,2.64-1.27,3.04-2.33,3.15l-7.35.91c-7.39.92-8.05,6.08-8.05,8.31,0,4.56,3.45,7.65,8.31,7.65,5.17,0,7.86-2.43,9.58-4.31.15,2.03.76,4.06,4.71,4.06,1.02,0,1.68-.31,2.44-.51v-3.24c-.51.1-1.07.2-1.47.2-.91,0-1.46-.46-1.46-1.57v-15.26c0-6.79-7.71-7.4-9.83-7.4-6.54,0-10.75,2.49-10.95,8.82h4.11Z"/>
  <path class="st0" d="M328.55,87.14h-4.46v-16.32c0-4.61-1.32-6.94-5.68-6.94-2.54,0-6.99,1.62-6.99,8.82v14.45h-4.46v-26.5h4.2v3.74h.11c.97-1.42,3.44-4.51,8.01-4.51,4.09,0,9.26,1.68,9.26,9.22v18.04Z"/>
  <path class="st0" d="M351.32,77.97c0,3.54-4.05,6.23-8.22,6.23-3.34,0-4.81-1.72-4.81-4.61,0-3.34,3.49-4,5.68-4.31,5.53-.71,6.64-1.11,7.35-1.67v4.36ZM339.1,68.69c.31-2.03,1.02-5.12,6.09-5.12,4.21,0,6.24,1.52,6.24,4.31,0,2.64-1.27,3.04-2.34,3.15l-7.34.91c-7.39.92-8.06,6.08-8.06,8.31,0,4.56,3.45,7.65,8.32,7.65,5.17,0,7.85-2.43,9.58-4.31.15,2.03.75,4.06,4.71,4.06,1.01,0,1.68-.31,2.43-.51v-3.24c-.5.1-1.06.2-1.46.2-.91,0-1.47-.46-1.47-1.57v-15.26c0-6.79-7.7-7.4-9.82-7.4-6.55,0-10.76,2.49-10.96,8.82h4.11Z"/>
  <path class="st0" d="M366.42,73.81c0-3.39.35-9.93,7.25-9.93,6.43,0,7.14,6.94,7.14,11.26,0,7.04-4.4,8.92-7.23,8.92-4.88,0-7.15-4.41-7.15-10.24ZM385.33,50.75h-4.47v13.63h-.11c-1.05-1.52-3.08-4.51-7.89-4.51-7.05,0-11.05,5.78-11.05,13.23,0,6.34,2.64,14.8,11.66,14.8,2.59,0,5.62-.81,7.54-4.41h.11v3.65h4.21v-36.39Z"/>
  <path class="st0" d="M396.08,87.14h-4.47v-26.5h4.47v26.5ZM391.61,55.82v-5.07h4.47v5.07h-4.47Z"/>
  <path class="st0" d="M406.26,71.78c0-4.1,3.25-7.9,7.35-7.9,5.42,0,7.14,3.8,7.39,7.9h-14.75ZM420.8,78.83c-.15,1.98-2.63,5.22-6.84,5.22-5.12,0-7.7-3.19-7.7-8.71h19.36c0-9.38-3.74-15.46-11.4-15.46-8.77,0-12.72,6.54-12.72,14.75,0,7.65,4.41,13.28,11.85,13.28,4.26,0,5.98-1.01,7.2-1.82,3.35-2.23,4.56-5.98,4.72-7.25h-4.47Z"/>
  <path class="st0" d="M452.52,87.14h-4.45v-16.32c0-4.61-1.33-6.94-5.69-6.94-2.54,0-6.99,1.62-6.99,8.82v14.45h-4.46v-26.5h4.2v3.74h.1c.97-1.42,3.45-4.51,8.02-4.51,4.11,0,9.26,1.68,9.26,9.22v18.04Z"/>
  <rect class="st1" width="43.84" height="87.66"/>
  <path class="st1" d="M89.38,80.94s-.6-14.78-.6-16.25,1.25-1.98,2.71-1.65c1.48.32,15.28,3.12,15.28,3.12,0,0-1.05-2.99-1.79-5.2-.73-2.21.23-2.61.74-3.07l15.42-13.36-2.43-1.2c-1.48-.69-1.25-1.93-1.02-2.76l2.68-9.45s-6.43,1.45-7.93,1.68c-1.2.19-1.61-.37-1.99-1.2l-1.92-4.6-8.06,8.88c-1.52,1.38-2.98.32-2.71-1.29.26-1.47,4.04-18.91,4.04-18.91,0,0-4.18,2.49-5.56,3.32-1.38.83-2.11.69-2.85-.64-.74-1.34-5.91-11.69-5.91-11.69h.01s-5.17,10.35-5.91,11.69c-.73,1.33-1.47,1.47-2.85.64-1.38-.83-5.56-3.32-5.56-3.32,0,0,3.79,17.45,4.04,18.91.27,1.61-1.2,2.67-2.71,1.29l-8.06-8.88-1.93,4.6c-.36.83-.77,1.39-1.98,1.2-1.5-.23-8.19-1.68-8.19-1.68l2.94,9.45c.23.83.46,2.07-1.01,2.76l-2.44,1.2,15.42,13.36c.51.46,1.48.86.74,3.07-.74,2.21-1.8,5.2-1.8,5.2,0,0,13.81-2.8,15.28-3.12,1.48-.32,2.71.18,2.71,1.65s-.59,16.25-.59,16.25h3.78Z"/>
  <rect class="st1" x="131.43" width="43.83" height="87.66"/>
</svg>