<?xml version="1.0" encoding="UTF-8"?>
<svg id="Layer_1" xmlns="http://www.w3.org/2000/svg" width="784.35" height="100" version="1.1" viewBox="0 0 784.35 100">
  <!-- Generator: Adobe Illustrator 29.5.1, SVG Export Plug-In . SVG Version: 2.1.0 Build 141)  -->
  <defs>
    <style>
      .st0 {
        fill: #231f20;
      }

      .st1 {
        fill: #ed1c24;
      }
    </style>
  </defs>
  <polyline class="st0" points="278.55 52.5 283.46 52.5 283.46 88.86 278.55 88.86 278.55 71.89 259.56 71.89 259.56 88.86 254.65 88.86 254.65 52.5 259.56 52.5 259.56 67.54 278.55 67.54 278.55 52.5"/>
  <path class="st0" d="M294.1,73.52c0-4.11,3.25-7.9,7.34-7.9,5.42,0,7.14,3.79,7.4,7.9h-14.74ZM308.63,80.55c-.15,1.98-2.64,5.22-6.84,5.22-5.11,0-7.7-3.19-7.7-8.71h19.34c0-9.37-3.74-15.45-11.39-15.45-8.76,0-12.71,6.53-12.71,14.74,0,7.65,4.4,13.27,11.84,13.27,4.25,0,5.98-1.01,7.19-1.82,3.34-2.23,4.56-5.98,4.71-7.25h-4.45"/>
  <path class="st0" d="M323.82,88.86h-4.45v-26.48h4.2v4.4h.1c1.77-3.09,4.1-5.17,7.45-5.17.55,0,.81.05,1.16.15v4.61h-1.67c-4.15,0-6.79,3.24-6.79,7.09v15.39"/>
  <path class="st0" d="M340.94,88.86h-4.46v-26.48h4.46v26.48ZM336.48,57.57v-5.07h4.46v5.07h-4.46"/>
  <path class="st0" d="M353.09,66.07v17.22c0,2.08,1.77,2.08,2.68,2.08h1.58v3.49c-1.62.15-2.89.36-3.34.36-4.4,0-5.37-2.48-5.37-5.68v-17.47h-3.59v-3.69h3.59v-7.39h4.46v7.39h4.26v3.69h-4.26"/>
  <path class="st0" d="M377.85,79.69c0,3.55-4.05,6.23-8.21,6.23-3.34,0-4.81-1.72-4.81-4.6,0-3.34,3.5-4,5.67-4.31,5.52-.71,6.63-1.11,7.34-1.67v4.35ZM365.64,70.42c.31-2.03,1.02-5.11,6.08-5.11,4.2,0,6.23,1.52,6.23,4.3,0,2.63-1.27,3.04-2.33,3.14l-7.34.91c-7.4.91-8.05,6.08-8.05,8.31,0,4.56,3.44,7.65,8.3,7.65,5.17,0,7.86-2.43,9.57-4.31.16,2.03.76,4.05,4.71,4.05,1.01,0,1.67-.3,2.43-.51v-3.24c-.51.1-1.06.2-1.47.2-.91,0-1.47-.45-1.47-1.56v-15.24c0-6.79-7.69-7.39-9.82-7.39-6.53,0-10.73,2.48-10.93,8.81h4.1"/>
  <path class="st0" d="M393.19,75.54c0-3.39.36-9.92,7.25-9.92,6.43,0,7.14,6.93,7.14,11.24,0,7.03-4.41,8.91-7.25,8.91-4.86,0-7.14-4.41-7.14-10.23ZM411.83,62.38h-4.2v3.89c-1.11-1.61-3.2-4.66-8-4.66-7.04,0-11.04,5.77-11.04,13.22,0,6.33,2.63,14.79,11.64,14.79,3.55,0,5.87-1.62,7.13-3.74v1.11c0,3.13.16,9.31-7.54,9.31-1.07,0-5.17,0-5.97-4.2h-4.46c.86,7.03,6.99,7.9,10.13,7.9,12.25,0,12.31-9.52,12.31-13.32v-24.3"/>
  <path class="st0" d="M421.51,73.52c0-4.11,3.24-7.9,7.34-7.9,5.43,0,7.14,3.79,7.39,7.9h-14.73ZM436.03,80.55c-.15,1.98-2.63,5.22-6.84,5.22-5.11,0-7.69-3.19-7.69-8.71h19.34c0-9.37-3.75-15.45-11.39-15.45-8.76,0-12.71,6.53-12.71,14.74,0,7.65,4.4,13.27,11.85,13.27,4.25,0,5.97-1.01,7.19-1.82,3.34-2.23,4.55-5.98,4.7-7.25h-4.45"/>
  <path class="st0" d="M562.77,70.51c-.56-3.59-2.56-5.74-6.34-5.74-5.59,0-7.38,5.33-7.38,10.1s1.12,10.3,7.32,10.3c3.02,0,5.64-2.25,6.41-6.35h4.36c-.46,4.25-3.07,10.25-10.92,10.25s-12-5.69-12-13.43c0-8.31,4-14.92,12.87-14.92,7.02,0,9.7,5.12,10.05,9.79h-4.36"/>
  <path class="st0" d="M588,79.02c0,3.59-4.1,6.31-8.31,6.31-3.38,0-4.87-1.75-4.87-4.66,0-3.38,3.54-4.05,5.74-4.36,5.59-.72,6.71-1.12,7.44-1.69v4.41ZM575.64,69.64c.32-2.04,1.04-5.17,6.16-5.17,4.25,0,6.3,1.54,6.3,4.35,0,2.67-1.28,3.07-2.37,3.18l-7.43.92c-7.49.92-8.15,6.15-8.15,8.41,0,4.61,3.48,7.74,8.4,7.74,5.23,0,7.95-2.47,9.69-4.35.16,2.05.76,4.09,4.76,4.09,1.03,0,1.7-.31,2.47-.51v-3.28c-.52.1-1.08.2-1.49.2-.93,0-1.48-.47-1.48-1.59v-15.42c0-6.87-7.81-7.49-9.95-7.49-6.61,0-10.86,2.51-11.09,8.92h4.16"/>
  <path class="st0" d="M621.98,88.3h-4.51v-16.51c0-4.67-1.34-7.02-5.75-7.02-2.56,0-7.07,1.64-7.07,8.92v14.61h-4.51v-26.81h4.24v3.79h.11c.98-1.43,3.49-4.56,8.09-4.56,4.16,0,9.39,1.69,9.39,9.32v18.26"/>
  <path class="st0" d="M645,79.02c0,3.59-4.11,6.31-8.31,6.31-3.38,0-4.88-1.75-4.88-4.66,0-3.38,3.55-4.05,5.75-4.36,5.59-.72,6.71-1.12,7.44-1.69v4.41ZM632.65,69.64c.31-2.04,1.03-5.17,6.16-5.17,4.25,0,6.29,1.54,6.29,4.35,0,2.67-1.27,3.07-2.36,3.18l-7.43.92c-7.48.92-8.16,6.15-8.16,8.41,0,4.61,3.49,7.74,8.41,7.74,5.23,0,7.94-2.47,9.69-4.35.15,2.05.76,4.09,4.76,4.09,1.03,0,1.7-.31,2.47-.51v-3.28c-.52.1-1.08.2-1.5.2-.92,0-1.47-.47-1.47-1.59v-15.42c0-6.87-7.8-7.49-9.95-7.49-6.62,0-10.87,2.51-11.09,8.92h4.16"/>
  <path class="st0" d="M660.28,74.82c0-3.44.36-10.05,7.33-10.05,6.51,0,7.23,7.02,7.23,11.38,0,7.12-4.47,9.02-7.33,9.02-4.92,0-7.24-4.46-7.24-10.35ZM679.41,51.5h-4.52v13.79h-.1c-1.08-1.54-3.13-4.56-8-4.56-7.12,0-11.17,5.84-11.17,13.38,0,6.41,2.66,14.97,11.79,14.97,2.61,0,5.7-.82,7.64-4.46h.11v3.69h4.25v-36.81"/>
  <path class="st0" d="M690.27,88.3h-4.51v-26.81h4.51v26.81ZM685.76,56.62v-5.12h4.51v5.12h-4.51"/>
  <path class="st0" d="M700.57,72.77c0-4.15,3.28-7.99,7.44-7.99,5.5,0,7.23,3.84,7.49,7.99h-14.93ZM715.3,79.9c-.16,2-2.67,5.28-6.92,5.28-5.19,0-7.81-3.22-7.81-8.82h19.59c0-9.48-3.8-15.64-11.54-15.64-8.87,0-12.86,6.61-12.86,14.92,0,7.74,4.46,13.43,11.99,13.43,4.31,0,6.05-1.03,7.29-1.85,3.38-2.25,4.6-6.05,4.76-7.33h-4.51"/>
  <path class="st0" d="M747.38,88.3h-4.51v-16.51c0-4.67-1.33-7.02-5.74-7.02-2.56,0-7.07,1.64-7.07,8.92v14.61h-4.52v-26.81h4.25v3.79h.11c.97-1.43,3.48-4.56,8.09-4.56,4.16,0,9.38,1.69,9.38,9.32v18.26"/>
  <path class="st0" d="M280.12,12.8c-1.37-6.38-6.68-7.54-10.18-7.54-6.59,0-11.9,4.86-11.9,14.43,0,8.56,3.04,15.14,12.06,15.14,3.19,0,8.7-1.52,10.38-9.97h4.76c-2.02,13.72-13.16,14.33-15.9,14.33-8.25,0-16.36-5.37-16.36-19.34,0-11.19,6.38-18.94,16.97-18.94,9.37,0,14.23,5.82,14.94,11.9h-4.76"/>
  <path class="st0" d="M306.76,29.06c0,3.54-4.05,6.22-8.2,6.22-3.34,0-4.81-1.72-4.81-4.61,0-3.34,3.5-4,5.67-4.3,5.52-.71,6.63-1.11,7.34-1.67v4.36ZM294.55,19.79c.31-2.03,1.02-5.12,6.08-5.12,4.2,0,6.23,1.52,6.23,4.31,0,2.63-1.26,3.04-2.33,3.14l-7.34.91c-7.39.92-8.05,6.08-8.05,8.31,0,4.56,3.44,7.64,8.3,7.64,5.17,0,7.85-2.42,9.57-4.3.15,2.03.76,4.05,4.71,4.05,1.01,0,1.67-.31,2.43-.51v-3.24c-.51.1-1.06.2-1.47.2-.91,0-1.47-.46-1.47-1.57v-15.24c0-6.79-7.7-7.39-9.83-7.39-6.53,0-10.74,2.48-10.94,8.82h4.1"/>
  <path class="st0" d="M340.33,38.22h-4.46v-16.31c0-4.61-1.32-6.93-5.68-6.93-2.53,0-6.98,1.62-6.98,8.81v14.43h-4.46V11.74h4.21v3.74h.1c.97-1.42,3.45-4.51,8-4.51,4.1,0,9.27,1.67,9.27,9.22v18.03"/>
  <path class="st0" d="M363.07,29.06c0,3.54-4.05,6.22-8.21,6.22-3.34,0-4.81-1.72-4.81-4.61,0-3.34,3.5-4,5.67-4.3,5.52-.71,6.64-1.11,7.35-1.67v4.36ZM350.86,19.79c.3-2.03,1.02-5.12,6.07-5.12,4.21,0,6.23,1.52,6.23,4.31,0,2.63-1.26,3.04-2.33,3.14l-7.34.91c-7.39.92-8.05,6.08-8.05,8.31,0,4.56,3.44,7.64,8.3,7.64,5.17,0,7.85-2.42,9.57-4.3.16,2.03.76,4.05,4.71,4.05,1.02,0,1.67-.31,2.43-.51v-3.24c-.51.1-1.06.2-1.47.2-.92,0-1.47-.46-1.47-1.57v-15.24c0-6.79-7.7-7.39-9.83-7.39-6.53,0-10.74,2.48-10.93,8.82h4.1"/>
  <path class="st0" d="M378.16,24.9c0-3.39.35-9.92,7.23-9.92,6.43,0,7.15,6.93,7.15,11.24,0,7.04-4.42,8.92-7.25,8.92-4.86,0-7.13-4.4-7.13-10.23ZM397.04,1.86h-4.46v13.62h-.1c-1.07-1.52-3.09-4.51-7.9-4.51-7.04,0-11.04,5.77-11.04,13.22,0,6.33,2.63,14.78,11.65,14.78,2.58,0,5.61-.81,7.53-4.4h.11v3.65h4.2V1.86"/>
  <path class="st0" d="M407.78,38.22h-4.46V11.74h4.46v26.48ZM403.32,6.93V1.86h4.46v5.06h-4.46"/>
  <path class="st0" d="M430.62,29.06c0,3.54-4.05,6.22-8.21,6.22-3.34,0-4.81-1.72-4.81-4.61,0-3.34,3.49-4,5.67-4.3,5.52-.71,6.64-1.11,7.35-1.67v4.36ZM418.41,19.79c.3-2.03,1.01-5.12,6.07-5.12,4.21,0,6.23,1.52,6.23,4.31,0,2.63-1.26,3.04-2.32,3.14l-7.34.91c-7.39.92-8.05,6.08-8.05,8.31,0,4.56,3.44,7.64,8.3,7.64,5.16,0,7.85-2.42,9.57-4.3.15,2.03.75,4.05,4.7,4.05,1.01,0,1.67-.31,2.43-.51v-3.24c-.51.1-1.07.2-1.47.2-.92,0-1.47-.46-1.47-1.57v-15.24c0-6.79-7.7-7.39-9.82-7.39-6.54,0-10.74,2.48-10.94,8.82h4.11"/>
  <path class="st0" d="M464.19,38.22h-4.47v-16.31c0-4.61-1.32-6.93-5.66-6.93-2.54,0-6.99,1.62-6.99,8.81v14.43h-4.46V11.74h4.21v3.74h.1c.96-1.42,3.44-4.51,8-4.51,4.11,0,9.27,1.67,9.27,9.22v18.03"/>
  <path class="st0" d="M552.05,4.48h10.1c4.11,0,7.28,1.49,7.28,6.15,0,4.98-3.02,6.61-7.48,6.61h-9.9V4.48ZM552.05,21.5h11.58c8,0,10.93-5.79,10.93-10.92,0-5.95-4.11-10.36-10.93-10.36h-16.56v36.81h4.98v-15.54"/>
  <path class="st0" d="M594.51,27.76c0,3.59-4.11,6.3-8.31,6.3-3.38,0-4.87-1.74-4.87-4.66,0-3.39,3.53-4.05,5.74-4.36,5.59-.72,6.72-1.13,7.44-1.69v4.4ZM582.15,18.38c.31-2.05,1.02-5.18,6.16-5.18,4.25,0,6.3,1.54,6.3,4.36,0,2.67-1.27,3.08-2.37,3.18l-7.44.93c-7.49.92-8.14,6.15-8.14,8.41,0,4.61,3.48,7.74,8.4,7.74,5.23,0,7.94-2.46,9.69-4.36.15,2.05.77,4.1,4.76,4.1,1.03,0,1.7-.31,2.47-.51v-3.29c-.52.11-1.08.21-1.5.21-.92,0-1.48-.46-1.48-1.59v-15.43c0-6.87-7.79-7.48-9.95-7.48-6.61,0-10.86,2.51-11.07,8.92h4.16"/>
  <path class="st0" d="M612.19,13.97v17.43c0,2.1,1.79,2.1,2.72,2.1h1.59v3.54c-1.64.15-2.92.36-3.38.36-4.46,0-5.42-2.51-5.42-5.74V13.97h-3.65v-3.74h3.65V2.74h4.5v7.49h4.31v3.74h-4.31"/>
  <path class="st0" d="M626.05,37.04h-4.52V10.23h4.24v4.46h.11c1.79-3.13,4.15-5.23,7.53-5.23.57,0,.83.05,1.19.15v4.67h-1.69c-4.21,0-6.86,3.28-6.86,7.18v15.59"/>
  <path class="st0" d="M643.36,37.04h-4.5V10.23h4.5v26.81ZM638.86,5.35V.23h4.5v5.12h-4.5"/>
  <path class="st0" d="M650.13,10.23h4.25v3.79h.1c.99-1.43,3.29-4.56,8.1-4.56s6.37,2.92,7.13,4.36c2.26-2.52,4.05-4.36,8.2-4.36,2.87,0,8.31,1.48,8.31,9.02v18.56h-4.51v-17.33c0-3.69-1.12-6.2-4.98-6.2s-6.3,3.59-6.3,7.18v16.36h-4.51v-18.56c0-2.26-.87-4.97-4.21-4.97-2.57,0-7.07,1.64-7.07,8.92v14.61h-4.52V10.23"/>
  <path class="st0" d="M695.97,23.61c0-3.59,1.33-10.25,7.79-10.25s7.79,6.66,7.79,10.25-1.33,10.25-7.79,10.25-7.79-6.66-7.79-10.25ZM691.29,23.61c0,6.92,3.91,14.14,12.47,14.14s12.45-7.22,12.45-14.14-3.89-14.15-12.45-14.15-12.47,7.23-12.47,14.15"/>
  <path class="st0" d="M725.96,37.04h-4.52V10.23h4.52v26.81ZM721.44,5.35V.23h4.52v5.12h-4.52"/>
  <path class="st0" d="M754.56,37.04h-4.52v-16.51c0-4.67-1.31-7.03-5.72-7.03-2.58,0-7.09,1.64-7.09,8.92v14.61h-4.51V10.23h4.25v3.79h.1c.98-1.43,3.49-4.56,8.1-4.56,4.15,0,9.38,1.69,9.38,9.33v18.25"/>
  <path class="st0" d="M764.76,21.5c0-4.15,3.29-8,7.44-8,5.47,0,7.22,3.84,7.49,8h-14.93ZM779.47,28.63c-.15,1.99-2.65,5.28-6.91,5.28-5.19,0-7.8-3.23-7.8-8.82h19.58c0-9.48-3.79-15.63-11.54-15.63-8.86,0-12.87,6.61-12.87,14.92,0,7.74,4.47,13.44,12,13.44,4.32,0,6.06-1.03,7.28-1.85,3.39-2.25,4.63-6.05,4.77-7.33h-4.52"/>
  <rect class="st1" width="44.1" height="88.18"/>
  <path class="st1" d="M89.91,81.42s-.61-14.86-.61-16.34,1.26-1.99,2.73-1.66c1.49.32,15.37,3.14,15.37,3.14,0,0-1.06-3.01-1.8-5.23-.73-2.22.23-2.63.74-3.09l15.51-13.43-2.45-1.2c-1.48-.7-1.25-1.95-1.02-2.78l2.7-9.5s-6.46,1.46-7.98,1.69c-1.2.19-1.62-.37-2-1.21l-1.94-4.62-8.11,8.93c-1.53,1.39-3,.32-2.73-1.3.26-1.48,4.07-19.03,4.07-19.03,0,0-4.21,2.5-5.6,3.34-1.39.83-2.12.69-2.87-.65-.74-1.34-5.94-11.76-5.94-11.76h.01s-5.2,10.41-5.94,11.76c-.73,1.34-1.47,1.48-2.87.65-1.39-.84-5.6-3.34-5.6-3.34,0,0,3.82,17.55,4.07,19.03.27,1.62-1.2,2.69-2.73,1.3l-8.11-8.93-1.95,4.62c-.37.84-.77,1.4-1.99,1.21-1.51-.23-8.24-1.69-8.24-1.69l2.96,9.5c.23.83.46,2.08-1.01,2.78l-2.46,1.2,15.51,13.43c.51.47,1.48.87.74,3.09s-1.81,5.23-1.81,5.23c0,0,13.89-2.82,15.37-3.14,1.48-.32,2.73.18,2.73,1.66s-.6,16.34-.6,16.34h3.81Z"/>
  <rect class="st1" x="132.21" width="44.09" height="88.18"/>
</svg>