<?xml version="1.0" encoding="UTF-8"?>
<svg id="Layer_1" data-name="Layer 1" xmlns="http://www.w3.org/2000/svg" viewBox="0 0 1453.74 95.8">
  <defs>
    <style>
      .cls-1 {
        fill: #ea2d37;
      }
    </style>
  </defs>
  <g>
    <path d="M997.45,12.5c0,6.71-4.22,11.39-12.41,11.39h-9.96v13.37h-5.44V1.07h15.4c8.18,0,12.41,4.68,12.41,11.44ZM991.91,12.5c0-4.22-2.39-6.66-6.97-6.66h-9.86v13.27h9.86c4.58,0,6.97-2.39,6.97-6.61Z"/>
    <path d="M1015.82,10.67v4.83h-1.27c-5.03,0-8.18,2.49-8.18,7.52v14.23h-5.08V11.03h4.88v4.68c1.42-2.85,4.01-5.08,8.19-5.08.46,0,.91,0,1.47.05Z"/>
    <path d="M1041.81,33.35v3.91c-.76.1-1.68.15-2.49.15-3.25,0-4.73-1.17-5.08-3.71-1.78,2.74-4.73,4.17-8.54,4.17-5.64,0-9.35-2.75-9.35-7.78,0-4.22,2.54-7.42,9.86-8.13l3.86-.41c2.54-.3,3.91-1.17,3.91-3.3,0-2.44-1.27-3.76-5.39-3.76s-5.85,1.17-6.1,4.73h-5.03c.3-5.29,3.25-8.79,11.13-8.79s10.37,3.15,10.37,7.72v13.88c0,.82.41,1.32,1.42,1.32h1.42ZM1033.98,26.89v-2.74c-.76.61-1.83.91-3.25,1.07l-3.66.41c-4.22.51-5.49,1.98-5.49,4.32s1.58,3.97,4.88,3.97c3.71,0,7.52-2.09,7.52-7.02Z"/>
    <path d="M1044.93,1.88h5.19v5.44h-5.19V1.88ZM1044.98,11.03h5.08v26.23h-5.08V11.03Z"/>
    <path d="M1070.29,10.67v4.83h-1.27c-5.03,0-8.19,2.49-8.19,7.52v14.23h-5.08V11.03h4.88v4.68c1.42-2.85,4.01-5.08,8.18-5.08.46,0,.92,0,1.47.05Z"/>
    <path d="M1073.92,1.88h5.19v5.44h-5.19V1.88ZM1073.97,11.03h5.08v26.23h-5.08V11.03Z"/>
    <path d="M1108.44,25.82h-19.78c.46,5.34,3.3,7.78,7.52,7.78,3.4,0,5.59-1.73,6.51-4.37h5.13c-1.32,5.08-5.44,8.64-11.74,8.64-7.42,0-12.55-5.29-12.55-13.73s4.98-13.73,12.45-13.73c7.93,0,12.46,6.05,12.46,13.93v1.47ZM1088.71,21.81h14.49c-.46-4.07-2.95-7.12-7.22-7.12-3.81,0-6.61,2.29-7.27,7.12Z"/>
    <path d="M1111.05,28.92h5.08c.41,3.66,2.19,4.98,6.46,4.98s5.79-1.32,5.79-3.66c0-2.08-1.27-3.1-5.6-3.86l-2.69-.51c-5.65-1.01-8.34-3.56-8.34-7.83,0-4.63,3.66-7.62,10.12-7.62,7.47,0,10.93,3.25,11.08,8.79h-4.93c-.21-3.76-2.44-4.83-6.15-4.83-3.31,0-5.09,1.32-5.09,3.51s1.78,3.1,4.88,3.71l2.75.46c6.4,1.22,9.1,3.46,9.1,7.83,0,5.14-4.12,8.03-10.98,8.03s-11.13-2.74-11.49-9Z"/>
    <path d="M1153.31,5.95v10.22h18.45v4.78h-18.45v11.44h20.23v4.88h-25.67V1.07h25.82v4.88h-20.38Z"/>
    <path d="M1176.4,24.15c0-8.39,4.98-13.73,12.51-13.73,6.51,0,10.88,3.81,11.69,9.76h-5.18c-.71-3.66-3.41-5.34-6.51-5.34-4.17,0-7.22,2.95-7.22,9.3s3.15,9.3,7.22,9.3c3.15,0,5.94-1.73,6.56-5.54h5.18c-.81,6.2-5.49,9.97-11.74,9.97-7.43,0-12.51-5.34-12.51-13.73Z"/>
    <path d="M1203.46,24.15c0-8.39,5.34-13.73,13.01-13.73s12.96,5.34,12.96,13.73-5.34,13.73-12.96,13.73-13.01-5.34-13.01-13.73ZM1224.15,24.15c0-6-3.05-9.35-7.67-9.35s-7.72,3.35-7.72,9.35,3.05,9.35,7.72,9.35,7.67-3.35,7.67-9.35Z"/>
    <path d="M1256.24,19.67v17.59h-5.08v-16.88c0-3.76-1.99-5.49-5.54-5.49-3.1,0-6.61,2.29-6.61,7.57v14.79h-5.08V11.03h4.88v3.92c1.73-2.6,4.52-4.52,8.23-4.52,5.69,0,9.2,3.25,9.2,9.25Z"/>
    <path d="M1260.78,24.15c0-8.39,5.34-13.73,13.01-13.73s12.96,5.34,12.96,13.73-5.34,13.73-12.96,13.73-13.01-5.34-13.01-13.73ZM1281.47,24.15c0-6-3.05-9.35-7.68-9.35s-7.72,3.35-7.72,9.35,3.05,9.35,7.72,9.35,7.68-3.35,7.68-9.35Z"/>
    <path d="M1328.97,19.67v17.59h-5.14v-16.93c0-3.76-1.78-5.44-5.03-5.44s-6.15,2.29-6.15,7.98v14.38h-5.08v-16.93c0-3.76-1.83-5.44-5.08-5.44-3,0-6.15,2.29-6.15,7.98v14.38h-5.09V11.03h4.88v3.92c1.57-2.69,4.01-4.52,7.57-4.52,4.11,0,6.81,1.98,8.08,4.93,1.68-2.9,4.37-4.93,8.14-4.93,5.94,0,9.05,3.86,9.05,9.25Z"/>
    <path d="M1334.63,1.88h5.19v5.44h-5.19V1.88ZM1334.68,11.03h5.09v26.23h-5.09V11.03Z"/>
    <path d="M1344.24,24.15c0-8.39,4.98-13.73,12.5-13.73,6.51,0,10.88,3.81,11.69,9.76h-5.19c-.71-3.66-3.4-5.34-6.51-5.34-4.17,0-7.22,2.95-7.22,9.3s3.15,9.3,7.22,9.3c3.15,0,5.95-1.73,6.56-5.54h5.19c-.82,6.2-5.49,9.97-11.74,9.97-7.42,0-12.5-5.34-12.5-13.73Z"/>
    <path d="M1000.5,67.74c0,11.18-6.61,18.1-17.94,18.1h-12.91v-36.19h12.91c11.33,0,17.94,6.91,17.94,18.1ZM994.81,67.74c0-8.44-4.32-13.32-12.3-13.32h-7.42v26.64h7.42c7.98,0,12.3-4.88,12.3-13.32Z"/>
    <path d="M1028.94,74.4h-19.77c.46,5.34,3.3,7.78,7.52,7.78,3.41,0,5.59-1.73,6.51-4.37h5.14c-1.32,5.08-5.44,8.64-11.75,8.64-7.42,0-12.55-5.29-12.55-13.73s4.98-13.73,12.45-13.73c7.93,0,12.45,6.05,12.45,13.93v1.47ZM1009.22,70.38h14.49c-.46-4.07-2.95-7.12-7.22-7.12-3.81,0-6.61,2.29-7.27,7.12Z"/>
    <path d="M1055.29,59.6l-10.07,26.23h-5.64l-10.01-26.23h5.49l3.56,9.61c1.27,3.76,2.69,7.88,3.86,11.69,1.22-3.81,2.64-7.93,3.91-11.69l3.51-9.61h5.39Z"/>
    <path d="M1080.62,74.4h-19.78c.46,5.34,3.3,7.78,7.52,7.78,3.4,0,5.59-1.73,6.51-4.37h5.13c-1.32,5.08-5.44,8.64-11.74,8.64-7.42,0-12.55-5.29-12.55-13.73s4.98-13.73,12.45-13.73c7.93,0,12.46,6.05,12.46,13.93v1.47ZM1060.89,70.38h14.49c-.46-4.07-2.95-7.12-7.22-7.12-3.81,0-6.61,2.29-7.27,7.12Z"/>
    <path d="M1085.15,49.64h5.08v36.19h-5.08v-36.19Z"/>
    <path d="M1094.72,72.72c0-8.39,5.34-13.73,13.01-13.73s12.96,5.34,12.96,13.73-5.34,13.73-12.96,13.73-13.01-5.34-13.01-13.73ZM1115.41,72.72c0-6-3.05-9.35-7.68-9.35s-7.72,3.35-7.72,9.35,3.05,9.35,7.72,9.35,7.68-3.35,7.68-9.35Z"/>
    <path d="M1150.8,72.72c0,8.39-4.73,13.73-12,13.73-3.76,0-6.66-1.58-8.54-4.27v13.62h-5.09v-36.19h4.88v3.97c1.88-2.9,4.83-4.57,8.74-4.57,7.27,0,12,5.34,12,13.73ZM1145.52,72.52c0-6-3.01-9.15-7.68-9.15s-7.68,3.35-7.68,9.35,3,9.35,7.68,9.35,7.68-3.56,7.68-9.55Z"/>
    <path d="M1193.01,68.25v17.59h-5.13v-16.93c0-3.76-1.78-5.44-5.03-5.44s-6.15,2.29-6.15,7.98v14.38h-5.08v-16.93c0-3.76-1.83-5.44-5.08-5.44-3,0-6.15,2.29-6.15,7.98v14.38h-5.08v-26.23h4.88v3.92c1.58-2.69,4.01-4.52,7.57-4.52,4.12,0,6.81,1.98,8.08,4.93,1.68-2.9,4.37-4.93,8.13-4.93,5.95,0,9.05,3.86,9.05,9.25Z"/>
    <path d="M1222.42,74.4h-19.77c.46,5.34,3.3,7.78,7.52,7.78,3.41,0,5.6-1.73,6.51-4.37h5.14c-1.32,5.08-5.44,8.64-11.74,8.64-7.42,0-12.56-5.29-12.56-13.73s4.98-13.73,12.46-13.73c7.93,0,12.45,6.05,12.45,13.93v1.47ZM1202.69,70.38h14.49c-.46-4.07-2.95-7.12-7.22-7.12-3.82,0-6.61,2.29-7.27,7.12Z"/>
    <path d="M1249.27,68.25v17.59h-5.08v-16.88c0-3.76-1.98-5.49-5.54-5.49-3.1,0-6.61,2.29-6.61,7.57v14.79h-5.08v-26.23h4.88v3.92c1.73-2.6,4.53-4.52,8.24-4.52,5.7,0,9.2,3.25,9.2,9.25Z"/>
    <path d="M1261.23,63.77v15.76c0,1.53.76,2.24,3,2.24h2.29v4.06c-1.12.1-2.19.15-3.1.15-4.73,0-7.27-1.63-7.27-6v-16.22h-4.22v-4.17h4.22v-7.52h5.08v7.52h5.29v4.17h-5.29Z"/>
    <path d="M1279.65,67.74c0-11.69,7.06-18.91,17.08-18.91,7.52,0,14.13,3.97,15.86,12.81h-5.49c-1.48-5.74-5.7-7.98-10.37-7.98-6.91,0-11.44,5.24-11.44,14.08s4.53,14.08,11.44,14.08c4.93,0,9.76-2.95,10.63-9.35h5.44c-1.01,9.51-8.23,14.18-16.06,14.18-9.96,0-17.08-7.22-17.08-18.91Z"/>
    <path d="M1341.08,81.92v3.91c-.76.1-1.68.15-2.49.15-3.25,0-4.73-1.17-5.08-3.71-1.78,2.74-4.73,4.17-8.54,4.17-5.64,0-9.35-2.75-9.35-7.78,0-4.22,2.54-7.42,9.86-8.13l3.86-.41c2.54-.3,3.91-1.17,3.91-3.3,0-2.44-1.27-3.76-5.39-3.76s-5.85,1.17-6.1,4.73h-5.03c.3-5.29,3.25-8.79,11.13-8.79s10.37,3.15,10.37,7.72v13.88c0,.82.41,1.32,1.42,1.32h1.42ZM1333.25,75.47v-2.74c-.76.61-1.83.91-3.25,1.07l-3.66.41c-4.22.51-5.49,1.98-5.49,4.32s1.58,3.97,4.88,3.97c3.71,0,7.52-2.09,7.52-7.02Z"/>
    <path d="M1366.77,68.25v17.59h-5.08v-16.88c0-3.76-1.99-5.49-5.54-5.49-3.1,0-6.61,2.29-6.61,7.57v14.79h-5.08v-26.23h4.88v3.92c1.73-2.6,4.52-4.52,8.23-4.52,5.69,0,9.2,3.25,9.2,9.25Z"/>
    <path d="M1396.52,81.92v3.91c-.76.1-1.68.15-2.49.15-3.25,0-4.73-1.17-5.08-3.71-1.78,2.74-4.73,4.17-8.54,4.17-5.64,0-9.35-2.75-9.35-7.78,0-4.22,2.54-7.42,9.86-8.13l3.86-.41c2.54-.3,3.91-1.17,3.91-3.3,0-2.44-1.27-3.76-5.39-3.76s-5.85,1.17-6.1,4.73h-5.03c.3-5.29,3.25-8.79,11.13-8.79s10.37,3.15,10.37,7.72v13.88c0,.82.41,1.32,1.42,1.32h1.42ZM1388.69,75.47v-2.74c-.76.61-1.83.91-3.25,1.07l-3.66.41c-4.22.51-5.49,1.98-5.49,4.32s1.58,3.97,4.88,3.97c3.71,0,7.52-2.09,7.52-7.02Z"/>
    <path d="M1423.99,49.64v36.19h-4.88v-3.86c-1.88,2.79-4.83,4.47-8.69,4.47-7.32,0-12-5.34-12-13.73s4.68-13.73,12-13.73c3.71,0,6.61,1.52,8.49,4.17v-13.52h5.08ZM1419.05,72.72c0-6-3-9.35-7.67-9.35s-7.67,3.56-7.67,9.56,3,9.15,7.67,9.15,7.67-3.35,7.67-9.35Z"/>
    <path d="M1453.74,81.92v3.91c-.76.1-1.68.15-2.49.15-3.25,0-4.73-1.17-5.08-3.71-1.78,2.74-4.73,4.17-8.53,4.17-5.65,0-9.35-2.75-9.35-7.78,0-4.22,2.54-7.42,9.86-8.13l3.87-.41c2.54-.3,3.91-1.17,3.91-3.3,0-2.44-1.27-3.76-5.39-3.76s-5.85,1.17-6.1,4.73h-5.03c.31-5.29,3.25-8.79,11.13-8.79s10.36,3.15,10.36,7.72v13.88c0,.82.41,1.32,1.42,1.32h1.42ZM1445.91,75.47v-2.74c-.76.61-1.83.91-3.25,1.07l-3.66.41c-4.22.51-5.49,1.98-5.49,4.32s1.58,3.97,4.88,3.97c3.71,0,7.52-2.09,7.52-7.02Z"/>
  </g>
  <g>
    <path d="M276.7,19.16c0,11.18-6.61,18.1-17.94,18.1h-12.91V1.07h12.91c11.34,0,17.94,6.91,17.94,18.1ZM271,19.16c0-8.44-4.32-13.32-12.3-13.32h-7.42v26.64h7.42c7.98,0,12.3-4.88,12.3-13.32Z"/>
    <path d="M305.13,25.82h-19.77c.46,5.34,3.3,7.78,7.52,7.78,3.41,0,5.59-1.73,6.51-4.38h5.13c-1.32,5.08-5.44,8.64-11.74,8.64-7.42,0-12.56-5.29-12.56-13.73s4.98-13.73,12.45-13.73c7.93,0,12.45,6.05,12.45,13.93v1.47ZM285.41,21.81h14.49c-.46-4.06-2.95-7.12-7.22-7.12-3.81,0-6.61,2.29-7.27,7.12ZM295.07,7.32h-4.37l4.42-7.32h6.35l-6.41,7.32Z"/>
    <path d="M331.48,11.03l-10.06,26.23h-5.64l-10.01-26.23h5.49l3.56,9.61c1.27,3.76,2.69,7.88,3.86,11.69,1.22-3.81,2.64-7.93,3.91-11.69l3.51-9.61h5.39Z"/>
    <path d="M356.81,25.82h-19.77c.46,5.34,3.3,7.78,7.52,7.78,3.41,0,5.59-1.73,6.51-4.38h5.13c-1.32,5.08-5.44,8.64-11.74,8.64-7.42,0-12.56-5.29-12.56-13.73s4.98-13.73,12.45-13.73c7.93,0,12.45,6.05,12.45,13.93v1.47ZM337.08,21.81h14.49c-.46-4.06-2.95-7.12-7.22-7.12-3.81,0-6.61,2.29-7.27,7.12Z"/>
    <path d="M361.35,1.07h5.08v36.19h-5.08V1.07Z"/>
    <path d="M370.91,24.14c0-8.39,5.34-13.73,13.01-13.73s12.96,5.34,12.96,13.73-5.34,13.73-12.96,13.73-13.01-5.34-13.01-13.73ZM391.6,24.14c0-6-3.05-9.35-7.68-9.35s-7.73,3.36-7.73,9.35,3.05,9.35,7.73,9.35,7.68-3.36,7.68-9.35Z"/>
    <path d="M427,24.14c0,8.39-4.73,13.73-12,13.73-3.76,0-6.66-1.58-8.54-4.27v13.62h-5.08V11.03h4.88v3.97c1.88-2.9,4.83-4.58,8.74-4.58,7.27,0,12,5.34,12,13.73ZM421.71,23.94c0-6-3-9.15-7.68-9.15s-7.68,3.36-7.68,9.35,3,9.35,7.68,9.35,7.68-3.56,7.68-9.56Z"/>
    <path d="M457.11,24.14c0,8.39-4.73,13.73-12,13.73-3.76,0-6.66-1.58-8.54-4.27v13.62h-5.08V11.03h4.88v3.97c1.88-2.9,4.83-4.58,8.74-4.58,7.27,0,12,5.34,12,13.73ZM451.82,23.94c0-6-3-9.15-7.67-9.15s-7.68,3.36-7.68,9.35,3,9.35,7.68,9.35,7.67-3.56,7.67-9.56Z"/>
    <path d="M485.29,25.82h-19.77c.46,5.34,3.3,7.78,7.52,7.78,3.41,0,5.59-1.73,6.51-4.38h5.13c-1.32,5.08-5.44,8.64-11.74,8.64-7.42,0-12.56-5.29-12.56-13.73s4.98-13.73,12.45-13.73c7.93,0,12.45,6.05,12.45,13.93v1.47ZM465.56,21.81h14.49c-.46-4.06-2.95-7.12-7.22-7.12-3.81,0-6.61,2.29-7.27,7.12Z"/>
    <path d="M527.54,19.67v17.59h-5.13v-16.93c0-3.76-1.78-5.44-5.03-5.44s-6.15,2.29-6.15,7.98v14.39h-5.08v-16.93c0-3.76-1.83-5.44-5.08-5.44-3,0-6.15,2.29-6.15,7.98v14.39h-5.08V11.03h4.88v3.91c1.57-2.69,4.01-4.52,7.57-4.52,4.12,0,6.81,1.98,8.08,4.93,1.68-2.9,4.37-4.93,8.13-4.93,5.95,0,9.05,3.87,9.05,9.25Z"/>
    <path d="M556.95,25.82h-19.77c.46,5.34,3.3,7.78,7.52,7.78,3.41,0,5.59-1.73,6.51-4.38h5.13c-1.32,5.08-5.44,8.64-11.74,8.64-7.42,0-12.56-5.29-12.56-13.73s4.98-13.73,12.45-13.73c7.93,0,12.45,6.05,12.45,13.93v1.47ZM537.23,21.81h14.49c-.46-4.06-2.95-7.12-7.22-7.12-3.81,0-6.61,2.29-7.27,7.12Z"/>
    <path d="M583.81,19.67v17.59h-5.08v-16.88c0-3.76-1.98-5.49-5.54-5.49-3.1,0-6.61,2.29-6.61,7.57v14.79h-5.08V11.03h4.88v3.91c1.73-2.59,4.52-4.52,8.23-4.52,5.69,0,9.2,3.25,9.2,9.25Z"/>
    <path d="M595.77,15.2v15.76c0,1.52.76,2.24,3,2.24h2.29v4.07c-1.12.1-2.19.15-3.1.15-4.73,0-7.27-1.63-7.27-6V15.2h-4.22v-4.17h4.22V3.51h5.08v7.52h5.29v4.17h-5.29Z"/>
    <path d="M639.09,25.82h-19.78c.46,5.34,3.3,7.78,7.52,7.78,3.41,0,5.59-1.73,6.51-4.38h5.13c-1.32,5.08-5.44,8.64-11.74,8.64-7.42,0-12.56-5.29-12.56-13.73s4.98-13.73,12.46-13.73c7.93,0,12.45,6.05,12.45,13.93v1.47ZM619.37,21.81h14.49c-.46-4.06-2.95-7.12-7.22-7.12-3.81,0-6.61,2.29-7.27,7.12ZM629.03,7.32h-4.37l4.42-7.32h6.35l-6.4,7.32Z"/>
    <path d="M642.41,24.14c0-8.39,4.98-13.73,12.5-13.73,6.51,0,10.88,3.81,11.69,9.76h-5.19c-.71-3.66-3.4-5.34-6.51-5.34-4.17,0-7.21,2.95-7.21,9.3s3.15,9.3,7.21,9.3c3.15,0,5.95-1.73,6.56-5.54h5.18c-.81,6.2-5.49,9.96-11.74,9.96-7.42,0-12.5-5.34-12.5-13.73Z"/>
    <path d="M669.47,24.14c0-8.39,5.34-13.73,13.01-13.73s12.96,5.34,12.96,13.73-5.34,13.73-12.96,13.73-13.01-5.34-13.01-13.73ZM690.16,24.14c0-6-3.05-9.35-7.67-9.35s-7.73,3.36-7.73,9.35,3.05,9.35,7.73,9.35,7.67-3.36,7.67-9.35Z"/>
    <path d="M722.25,19.67v17.59h-5.08v-16.88c0-3.76-1.98-5.49-5.54-5.49-3.1,0-6.61,2.29-6.61,7.57v14.79h-5.08V11.03h4.88v3.91c1.73-2.59,4.52-4.52,8.24-4.52,5.69,0,9.2,3.25,9.2,9.25Z"/>
    <path d="M726.79,24.14c0-8.39,5.34-13.73,13.01-13.73s12.96,5.34,12.96,13.73-5.34,13.73-12.96,13.73-13.01-5.34-13.01-13.73ZM747.48,24.14c0-6-3.05-9.35-7.68-9.35s-7.72,3.36-7.72,9.35,3.05,9.35,7.72,9.35,7.68-3.36,7.68-9.35Z"/>
    <path d="M794.97,19.67v17.59h-5.13v-16.93c0-3.76-1.78-5.44-5.03-5.44s-6.15,2.29-6.15,7.98v14.39h-5.08v-16.93c0-3.76-1.83-5.44-5.08-5.44-3,0-6.15,2.29-6.15,7.98v14.39h-5.08V11.03h4.88v3.91c1.57-2.69,4.01-4.52,7.57-4.52,4.12,0,6.81,1.98,8.08,4.93,1.68-2.9,4.37-4.93,8.13-4.93,5.95,0,9.05,3.87,9.05,9.25Z"/>
    <path d="M800.64,1.88h5.19v5.44h-5.19V1.88ZM800.69,11.03h5.08v26.23h-5.08V11.03Z"/>
    <path d="M835.82,11.03v36.19h-5.08v-13.52c-1.88,2.64-4.78,4.17-8.49,4.17-7.32,0-12-5.34-12-13.73s4.68-13.73,12-13.73c3.87,0,6.81,1.68,8.69,4.47v-3.86h4.88ZM830.89,24.14c0-6-3-9.35-7.68-9.35s-7.67,3.56-7.67,9.56,3,9.15,7.67,9.15,7.68-3.36,7.68-9.35Z"/>
    <path d="M863.9,11.03v26.23h-4.88v-3.92c-1.68,2.59-4.52,4.52-8.24,4.52-5.64,0-9.2-3.25-9.2-9.25V11.03h5.08v16.88c0,3.76,1.98,5.49,5.54,5.49,3.15,0,6.61-2.28,6.61-7.57v-14.79h5.08Z"/>
    <path d="M893.35,25.82h-19.78c.46,5.34,3.31,7.78,7.52,7.78,3.41,0,5.59-1.73,6.51-4.38h5.13c-1.32,5.08-5.44,8.64-11.74,8.64-7.42,0-12.55-5.29-12.55-13.73s4.98-13.73,12.45-13.73c7.93,0,12.45,6.05,12.45,13.93v1.47ZM873.63,21.81h14.49c-.46-4.06-2.95-7.12-7.22-7.12-3.81,0-6.61,2.29-7.27,7.12Z"/>
    <path d="M244.32,67.74c0-11.69,7.07-18.91,17.08-18.91,7.52,0,14.13,3.97,15.86,12.81h-5.49c-1.48-5.75-5.69-7.98-10.37-7.98-6.91,0-11.44,5.24-11.44,14.08s4.52,14.08,11.44,14.08c4.93,0,9.76-2.95,10.63-9.35h5.44c-1.02,9.5-8.23,14.18-16.06,14.18-9.96,0-17.08-7.22-17.08-18.91Z"/>
    <path d="M305.74,81.92v3.92c-.76.1-1.68.15-2.49.15-3.25,0-4.73-1.17-5.08-3.71-1.78,2.74-4.73,4.17-8.54,4.17-5.64,0-9.35-2.74-9.35-7.78,0-4.22,2.54-7.42,9.86-8.13l3.86-.41c2.54-.31,3.91-1.17,3.91-3.3,0-2.44-1.27-3.76-5.39-3.76s-5.85,1.17-6.1,4.73h-5.03c.3-5.29,3.25-8.8,11.13-8.8s10.37,3.15,10.37,7.73v13.88c0,.81.41,1.32,1.42,1.32h1.42ZM297.91,75.46v-2.74c-.76.61-1.83.91-3.25,1.07l-3.66.41c-4.22.51-5.49,1.98-5.49,4.32s1.58,3.97,4.88,3.97c3.71,0,7.52-2.08,7.52-7.02Z"/>
    <path d="M331.43,68.24v17.59h-5.08v-16.88c0-3.76-1.98-5.49-5.54-5.49-3.1,0-6.61,2.29-6.61,7.57v14.79h-5.08v-26.23h4.88v3.91c1.73-2.59,4.52-4.52,8.23-4.52,5.69,0,9.2,3.25,9.2,9.25Z"/>
    <path d="M361.18,81.92v3.92c-.76.1-1.68.15-2.49.15-3.25,0-4.73-1.17-5.08-3.71-1.78,2.74-4.73,4.17-8.54,4.17-5.64,0-9.35-2.74-9.35-7.78,0-4.22,2.54-7.42,9.86-8.13l3.86-.41c2.54-.31,3.91-1.17,3.91-3.3,0-2.44-1.27-3.76-5.39-3.76s-5.85,1.17-6.1,4.73h-5.03c.3-5.29,3.25-8.8,11.13-8.8s10.37,3.15,10.37,7.73v13.88c0,.81.41,1.32,1.42,1.32h1.42ZM353.35,75.46v-2.74c-.76.61-1.83.91-3.25,1.07l-3.66.41c-4.22.51-5.49,1.98-5.49,4.32s1.58,3.97,4.88,3.97c3.71,0,7.52-2.08,7.52-7.02Z"/>
    <path d="M388.65,49.64v36.19h-4.88v-3.87c-1.88,2.8-4.83,4.47-8.69,4.47-7.32,0-12-5.34-12-13.73s4.68-13.73,12-13.73c3.71,0,6.61,1.53,8.49,4.17v-13.52h5.08ZM383.72,72.72c0-6-3-9.35-7.68-9.35s-7.67,3.56-7.67,9.56,3,9.15,7.67,9.15,7.68-3.36,7.68-9.35Z"/>
    <path d="M418.4,81.92v3.92c-.76.1-1.68.15-2.49.15-3.25,0-4.73-1.17-5.08-3.71-1.78,2.74-4.73,4.17-8.54,4.17-5.64,0-9.35-2.74-9.35-7.78,0-4.22,2.54-7.42,9.86-8.13l3.86-.41c2.54-.31,3.91-1.17,3.91-3.3,0-2.44-1.27-3.76-5.39-3.76s-5.85,1.17-6.1,4.73h-5.03c.3-5.29,3.25-8.8,11.13-8.8s10.37,3.15,10.37,7.73v13.88c0,.81.41,1.32,1.42,1.32h1.42ZM410.57,75.46v-2.74c-.76.61-1.83.91-3.25,1.07l-3.66.41c-4.22.51-5.49,1.98-5.49,4.32s1.58,3.97,4.88,3.97c3.71,0,7.52-2.08,7.52-7.02Z"/>
    <path d="M457.67,72.72c0,8.39-4.73,13.73-12,13.73-3.76,0-6.66-1.58-8.54-4.27v13.62h-5.08v-36.19h4.88v3.97c1.88-2.9,4.83-4.58,8.74-4.58,7.27,0,12,5.34,12,13.73ZM452.38,72.51c0-6-3-9.15-7.67-9.15s-7.68,3.36-7.68,9.35,3,9.35,7.68,9.35,7.67-3.56,7.67-9.56Z"/>
    <path d="M460.94,72.72c0-8.39,5.34-13.73,13.01-13.73s12.96,5.34,12.96,13.73-5.34,13.73-12.96,13.73-13.01-5.34-13.01-13.73ZM481.63,72.72c0-6-3.05-9.35-7.68-9.35s-7.73,3.36-7.73,9.35,3.05,9.35,7.73,9.35,7.68-3.36,7.68-9.35Z"/>
    <path d="M513,59.6v26.23h-4.88v-3.92c-1.68,2.59-4.52,4.52-8.23,4.52-5.64,0-9.2-3.25-9.2-9.25v-17.59h5.08v16.88c0,3.76,1.98,5.49,5.54,5.49,3.15,0,6.61-2.28,6.61-7.57v-14.79h5.08Z"/>
    <path d="M533.3,59.25v4.83h-1.27c-5.03,0-8.18,2.49-8.18,7.52v14.23h-5.08v-26.23h4.88v4.68c1.42-2.85,4.01-5.09,8.18-5.09.46,0,.91,0,1.47.05Z"/>
    <path d="M547.66,49.64h5.08v36.19h-5.08v-36.19Z"/>
    <path d="M582.13,74.39h-19.77c.46,5.34,3.3,7.78,7.52,7.78,3.41,0,5.59-1.73,6.51-4.38h5.13c-1.32,5.08-5.44,8.64-11.74,8.64-7.42,0-12.56-5.29-12.56-13.73s4.98-13.73,12.45-13.73c7.93,0,12.45,6.05,12.45,13.93v1.47ZM562.4,70.38h14.49c-.46-4.06-2.95-7.12-7.22-7.12-3.81,0-6.61,2.29-7.27,7.12Z"/>
    <path d="M584.74,77.5h5.08c.41,3.66,2.19,4.98,6.46,4.98s5.79-1.32,5.79-3.66c0-2.09-1.27-3.1-5.59-3.86l-2.69-.51c-5.64-1.02-8.34-3.56-8.34-7.83,0-4.62,3.66-7.62,10.12-7.62,7.47,0,10.93,3.25,11.08,8.8h-4.93c-.2-3.76-2.44-4.83-6.15-4.83-3.31,0-5.08,1.32-5.08,3.51s1.78,3.1,4.88,3.71l2.75.46c6.41,1.22,9.1,3.46,9.1,7.83,0,5.13-4.12,8.03-10.98,8.03s-11.13-2.74-11.49-8.99Z"/>
    <path d="M649.37,61.08c0,6.71-4.22,11.39-12.41,11.39h-9.96v13.37h-5.44v-36.19h15.4c8.18,0,12.41,4.67,12.41,11.44ZM643.82,61.08c0-4.22-2.39-6.66-6.97-6.66h-9.86v13.27h9.86c4.58,0,6.97-2.39,6.97-6.61Z"/>
    <path d="M667.73,59.25v4.83h-1.27c-5.03,0-8.18,2.49-8.18,7.52v14.23h-5.08v-26.23h4.88v4.68c1.42-2.85,4.01-5.09,8.18-5.09.46,0,.91,0,1.47.05Z"/>
    <path d="M693.72,81.92v3.92c-.76.1-1.68.15-2.49.15-3.25,0-4.73-1.17-5.08-3.71-1.78,2.74-4.73,4.17-8.54,4.17-5.65,0-9.35-2.74-9.35-7.78,0-4.22,2.54-7.42,9.86-8.13l3.87-.41c2.54-.31,3.91-1.17,3.91-3.3,0-2.44-1.27-3.76-5.39-3.76s-5.85,1.17-6.1,4.73h-5.03c.31-5.29,3.25-8.8,11.13-8.8s10.37,3.15,10.37,7.73v13.88c0,.81.41,1.32,1.42,1.32h1.42ZM685.89,75.46v-2.74c-.76.61-1.83.91-3.25,1.07l-3.66.41c-4.22.51-5.49,1.98-5.49,4.32s1.58,3.97,4.88,3.97c3.71,0,7.52-2.08,7.52-7.02Z"/>
    <path d="M696.84,50.45h5.18v5.44h-5.18v-5.44ZM696.89,59.6h5.08v26.23h-5.08v-26.23Z"/>
    <path d="M722.21,59.25v4.83h-1.27c-5.03,0-8.18,2.49-8.18,7.52v14.23h-5.08v-26.23h4.88v4.68c1.42-2.85,4.01-5.09,8.18-5.09.46,0,.91,0,1.47.05Z"/>
    <path d="M725.83,50.45h5.18v5.44h-5.18v-5.44ZM725.88,59.6h5.08v26.23h-5.08v-26.23Z"/>
    <path d="M760.35,74.39h-19.77c.46,5.34,3.3,7.78,7.52,7.78,3.41,0,5.59-1.73,6.51-4.38h5.14c-1.32,5.08-5.44,8.64-11.74,8.64-7.42,0-12.56-5.29-12.56-13.73s4.98-13.73,12.45-13.73c7.93,0,12.45,6.05,12.45,13.93v1.47ZM740.63,70.38h14.49c-.46-4.06-2.95-7.12-7.22-7.12-3.81,0-6.61,2.29-7.27,7.12Z"/>
    <path d="M762.96,77.5h5.08c.41,3.66,2.19,4.98,6.46,4.98s5.79-1.32,5.79-3.66c0-2.09-1.27-3.1-5.59-3.86l-2.69-.51c-5.64-1.02-8.34-3.56-8.34-7.83,0-4.62,3.66-7.62,10.12-7.62,7.47,0,10.93,3.25,11.08,8.8h-4.93c-.21-3.76-2.44-4.83-6.15-4.83-3.31,0-5.09,1.32-5.09,3.51s1.78,3.1,4.88,3.71l2.75.46c6.4,1.22,9.1,3.46,9.1,7.83,0,5.13-4.12,8.03-10.98,8.03s-11.13-2.74-11.49-8.99Z"/>
  </g>
  <g id="flag">
    <rect class="cls-1" x="127.15" y="1.06" width="42.39" height="84.77"/>
    <path class="cls-1" d="M67.55,57.38c-.15-.13-15.31-13.24-15.31-13.24l2.34-1.18c.35-.16.6-.36.77-.57.52-.65.37-1.47.22-2.1-.06-.21-2.62-9.12-2.62-9.12,0,0,7.23,1.55,7.69,1.61.15.03.29.04.41.04.11,0,.32-.02.32-.02.62-.11.92-.56,1.16-1.17.09-.19,1.86-4.46,1.86-4.46,0,0,7.76,8.56,7.81,8.6.55.49,1.09.66,1.54.6.09-.01.17-.05.25-.08.6-.23.97-.9.83-1.75-.13-.78-3.92-18.29-3.92-18.29,0,0,4.07,2.42,5.42,3.19.66.4,1.16.56,1.59.47.43-.1.78-.46,1.13-1.1.2-.36,5.73-11.27,5.73-11.27,0,0,5.53,10.92,5.73,11.27.34.65.7,1.01,1.13,1.1.43.09.94-.07,1.59-.47,1.35-.78,5.42-3.19,5.42-3.19,0,0-3.8,17.52-3.92,18.29-.14.85.23,1.53.83,1.75.08.03.16.07.25.08.45.06.99-.1,1.54-.6.05-.04,7.81-8.6,7.81-8.6,0,0,1.76,4.27,1.86,4.46.24.6.54,1.06,1.16,1.17,0,0,.21.02.32.02.13,0,.26-.01.41-.04.46-.06,7.69-1.61,7.69-1.61,0,0-2.55,8.91-2.62,9.12-.15.63-.3,1.45.22,2.1.18.21.42.41.77.57l2.34,1.18s-15.16,13.11-15.31,13.24c-.43.41-.83,1.03-.31,2.63.12.37,1.74,5.03,1.74,5.03,0,0-14.54-2.97-14.78-3.02-.35-.08-.69-.11-1-.08-.94.07-1.6.61-1.6,1.67,0,1.44.58,15.73.58,15.73h-3.69s.58-14.29.58-15.73c0-1.06-.66-1.6-1.6-1.67-.31-.02-.65,0-1,.08-.24.05-14.78,3.02-14.78,3.02,0,0,1.62-4.67,1.74-5.03.52-1.6.13-2.23-.31-2.63Z"/>
    <rect class="cls-1" x="0" y="1.06" width="42.39" height="84.77"/>
  </g>
</svg>