<?xml version="1.0" encoding="UTF-8"?>
<svg id="Layer_1" data-name="Layer 1" xmlns="http://www.w3.org/2000/svg" viewBox="0 0 1458.44 96.11">
  <defs>
    <style>
      .cls-1 {
        fill: #ea2d37;
      }
    </style>
  </defs>
  <g>
    <path d="M839.8,19.23c0,11.22-6.63,18.15-18,18.15h-12.95V1.07h12.95c11.37,0,18,6.93,18,18.15ZM834.09,19.23c0-8.47-4.34-13.36-12.34-13.36h-7.45v26.72h7.45c8.01,0,12.34-4.9,12.34-13.36Z"/>
    <path d="M868.33,25.9h-19.84c.46,5.36,3.31,7.81,7.55,7.81,3.42,0,5.61-1.74,6.53-4.39h5.15c-1.32,5.1-5.46,8.67-11.78,8.67-7.45,0-12.59-5.3-12.59-13.77s5-13.77,12.49-13.77c7.96,0,12.49,6.07,12.49,13.97v1.48ZM848.54,21.88h14.54c-.46-4.08-2.96-7.14-7.24-7.14-3.82,0-6.63,2.3-7.3,7.14ZM858.23,7.34h-4.39l4.43-7.34h6.37l-6.42,7.34Z"/>
    <path d="M894.76,11.07l-10.1,26.31h-5.66l-10.05-26.31h5.51l3.57,9.64c1.27,3.77,2.7,7.9,3.88,11.73,1.22-3.82,2.65-7.95,3.92-11.73l3.52-9.64h5.41Z"/>
    <path d="M920.17,25.9h-19.84c.46,5.36,3.31,7.81,7.55,7.81,3.42,0,5.61-1.74,6.53-4.39h5.15c-1.33,5.1-5.46,8.67-11.78,8.67-7.45,0-12.6-5.3-12.6-13.77s5-13.77,12.49-13.77c7.96,0,12.49,6.07,12.49,13.97v1.48ZM900.38,21.88h14.53c-.46-4.08-2.96-7.14-7.24-7.14-3.82,0-6.63,2.3-7.29,7.14Z"/>
    <path d="M924.73,1.07h5.1v36.31h-5.1V1.07Z"/>
    <path d="M934.32,24.22c0-8.41,5.36-13.77,13.06-13.77s13.01,5.36,13.01,13.77-5.36,13.77-13.01,13.77-13.06-5.35-13.06-13.77ZM955.08,24.22c0-6.02-3.06-9.38-7.7-9.38s-7.75,3.37-7.75,9.38,3.06,9.38,7.75,9.38,7.7-3.37,7.7-9.38Z"/>
    <path d="M990.58,24.22c0,8.42-4.74,13.77-12.03,13.77-3.77,0-6.68-1.58-8.57-4.28v13.67h-5.1V11.07h4.9v3.98c1.89-2.91,4.85-4.59,8.77-4.59,7.29,0,12.03,5.36,12.03,13.77ZM985.28,24.02c0-6.02-3.01-9.18-7.7-9.18s-7.7,3.37-7.7,9.38,3.01,9.38,7.7,9.38,7.7-3.57,7.7-9.59Z"/>
    <path d="M1020.79,24.22c0,8.42-4.74,13.77-12.04,13.77-3.77,0-6.68-1.58-8.57-4.28v13.67h-5.1V11.07h4.9v3.98c1.89-2.91,4.85-4.59,8.77-4.59,7.3,0,12.04,5.36,12.04,13.77ZM1015.49,24.02c0-6.02-3.01-9.18-7.7-9.18s-7.7,3.37-7.7,9.38,3.01,9.38,7.7,9.38,7.7-3.57,7.7-9.59Z"/>
    <path d="M1049.06,25.9h-19.84c.46,5.36,3.31,7.81,7.55,7.81,3.42,0,5.61-1.74,6.53-4.39h5.15c-1.32,5.1-5.46,8.67-11.78,8.67-7.45,0-12.59-5.3-12.59-13.77s5-13.77,12.49-13.77c7.96,0,12.49,6.07,12.49,13.97v1.48ZM1029.27,21.88h14.54c-.46-4.08-2.96-7.14-7.24-7.14-3.82,0-6.63,2.3-7.3,7.14Z"/>
    <path d="M1091.46,19.73v17.65h-5.15v-16.98c0-3.77-1.79-5.46-5.05-5.46s-6.17,2.3-6.17,8.01v14.43h-5.1v-16.98c0-3.77-1.84-5.46-5.1-5.46-3.01,0-6.17,2.3-6.17,8.01v14.43h-5.1V11.07h4.9v3.92c1.58-2.7,4.03-4.54,7.6-4.54,4.13,0,6.83,1.99,8.11,4.95,1.68-2.91,4.39-4.95,8.16-4.95,5.97,0,9.08,3.88,9.08,9.28Z"/>
    <path d="M1120.96,25.9h-19.84c.46,5.36,3.31,7.81,7.55,7.81,3.42,0,5.61-1.74,6.53-4.39h5.15c-1.33,5.1-5.46,8.67-11.78,8.67-7.45,0-12.6-5.3-12.6-13.77s5-13.77,12.49-13.77c7.96,0,12.49,6.07,12.49,13.97v1.48ZM1101.17,21.88h14.53c-.46-4.08-2.96-7.14-7.24-7.14-3.82,0-6.63,2.3-7.29,7.14Z"/>
    <path d="M1147.9,19.73v17.65h-5.1v-16.93c0-3.77-1.99-5.51-5.56-5.51-3.11,0-6.63,2.3-6.63,7.6v14.84h-5.1V11.07h4.9v3.92c1.74-2.6,4.54-4.54,8.26-4.54,5.71,0,9.23,3.26,9.23,9.28Z"/>
    <path d="M1159.9,15.25v15.81c0,1.53.76,2.24,3.01,2.24h2.29v4.08c-1.12.1-2.19.15-3.11.15-4.74,0-7.29-1.63-7.29-6.02V15.25h-4.23v-4.18h4.23V3.52h5.1v7.55h5.3v4.18h-5.3Z"/>
    <path d="M1203.36,25.9h-19.84c.46,5.36,3.31,7.81,7.55,7.81,3.42,0,5.61-1.74,6.53-4.39h5.15c-1.33,5.1-5.46,8.67-11.78,8.67-7.45,0-12.6-5.3-12.6-13.77s5-13.77,12.49-13.77c7.96,0,12.49,6.07,12.49,13.97v1.48ZM1183.58,21.88h14.53c-.46-4.08-2.96-7.14-7.24-7.14-3.82,0-6.63,2.3-7.29,7.14ZM1193.26,7.34h-4.39l4.44-7.34h6.37l-6.43,7.34Z"/>
    <path d="M1206.69,24.22c0-8.41,5-13.77,12.54-13.77,6.53,0,10.91,3.82,11.73,9.79h-5.2c-.71-3.67-3.42-5.35-6.53-5.35-4.18,0-7.24,2.96-7.24,9.33s3.16,9.33,7.24,9.33c3.16,0,5.97-1.74,6.58-5.56h5.2c-.82,6.22-5.51,10-11.78,10-7.45,0-12.54-5.35-12.54-13.77Z"/>
    <path d="M1233.84,24.22c0-8.41,5.36-13.77,13.06-13.77s13.01,5.36,13.01,13.77-5.36,13.77-13.01,13.77-13.06-5.35-13.06-13.77ZM1254.6,24.22c0-6.02-3.06-9.38-7.7-9.38s-7.75,3.37-7.75,9.38,3.06,9.38,7.75,9.38,7.7-3.37,7.7-9.38Z"/>
    <path d="M1286.79,19.73v17.65h-5.1v-16.93c0-3.77-1.99-5.51-5.56-5.51-3.11,0-6.63,2.3-6.63,7.6v14.84h-5.1V11.07h4.9v3.92c1.74-2.6,4.54-4.54,8.26-4.54,5.71,0,9.23,3.26,9.23,9.28Z"/>
    <path d="M1291.35,24.22c0-8.41,5.35-13.77,13.06-13.77s13,5.36,13,13.77-5.35,13.77-13,13.77-13.06-5.35-13.06-13.77ZM1312.1,24.22c0-6.02-3.06-9.38-7.7-9.38s-7.75,3.37-7.75,9.38,3.06,9.38,7.75,9.38,7.7-3.37,7.7-9.38Z"/>
    <path d="M1359.75,19.73v17.65h-5.15v-16.98c0-3.77-1.79-5.46-5.05-5.46s-6.17,2.3-6.17,8.01v14.43h-5.1v-16.98c0-3.77-1.84-5.46-5.1-5.46-3.01,0-6.17,2.3-6.17,8.01v14.43h-5.1V11.07h4.9v3.92c1.58-2.7,4.03-4.54,7.6-4.54,4.13,0,6.83,1.99,8.11,4.95,1.68-2.91,4.39-4.95,8.16-4.95,5.97,0,9.08,3.88,9.08,9.28Z"/>
    <path d="M1365.43,1.89h5.2v5.46h-5.2V1.89ZM1365.48,11.07h5.1v26.31h-5.1V11.07Z"/>
    <path d="M1400.73,11.07v36.31h-5.1v-13.57c-1.89,2.65-4.8,4.18-8.52,4.18-7.35,0-12.04-5.35-12.04-13.77s4.69-13.77,12.04-13.77c3.87,0,6.83,1.69,8.72,4.49v-3.87h4.9ZM1395.78,24.22c0-6.02-3.01-9.38-7.7-9.38s-7.7,3.57-7.7,9.59,3.01,9.18,7.7,9.18,7.7-3.37,7.7-9.38Z"/>
    <path d="M1428.9,11.07v26.31h-4.9v-3.93c-1.69,2.6-4.54,4.54-8.26,4.54-5.66,0-9.23-3.26-9.23-9.28V11.07h5.1v16.93c0,3.77,1.99,5.51,5.56,5.51,3.16,0,6.63-2.29,6.63-7.6v-14.84h5.1Z"/>
    <path d="M1458.44,25.9h-19.84c.46,5.36,3.32,7.81,7.55,7.81,3.42,0,5.61-1.74,6.53-4.39h5.15c-1.32,5.1-5.46,8.67-11.78,8.67-7.45,0-12.59-5.3-12.59-13.77s5-13.77,12.49-13.77c7.96,0,12.49,6.07,12.49,13.97v1.48ZM1438.65,21.88h14.53c-.46-4.08-2.96-7.14-7.24-7.14-3.82,0-6.63,2.3-7.29,7.14Z"/>
    <path d="M807.31,67.96c0-11.73,7.09-18.97,17.14-18.97,7.55,0,14.18,3.98,15.91,12.85h-5.51c-1.48-5.76-5.71-8.01-10.4-8.01-6.94,0-11.48,5.25-11.48,14.13s4.54,14.13,11.48,14.13c4.95,0,9.79-2.96,10.66-9.38h5.46c-1.02,9.53-8.26,14.23-16.12,14.23-10,0-17.14-7.24-17.14-18.97Z"/>
    <path d="M868.94,82.18v3.93c-.76.1-1.69.15-2.5.15-3.26,0-4.74-1.18-5.1-3.72-1.79,2.75-4.74,4.18-8.57,4.18-5.66,0-9.38-2.75-9.38-7.8,0-4.23,2.55-7.45,9.89-8.16l3.88-.41c2.55-.31,3.92-1.18,3.92-3.31,0-2.45-1.27-3.77-5.4-3.77s-5.87,1.17-6.12,4.74h-5.05c.31-5.3,3.26-8.82,11.17-8.82s10.4,3.16,10.4,7.75v13.92c0,.81.41,1.32,1.43,1.32h1.43ZM861.09,75.7v-2.75c-.76.61-1.84.92-3.26,1.07l-3.67.41c-4.23.51-5.51,1.99-5.51,4.34s1.58,3.98,4.9,3.98c3.72,0,7.55-2.09,7.55-7.04Z"/>
    <path d="M894.71,68.46v17.65h-5.1v-16.93c0-3.77-1.99-5.51-5.56-5.51-3.11,0-6.63,2.3-6.63,7.6v14.84h-5.1v-26.31h4.9v3.92c1.74-2.6,4.54-4.54,8.26-4.54,5.71,0,9.23,3.26,9.23,9.28Z"/>
    <path d="M924.56,82.18v3.93c-.76.1-1.69.15-2.5.15-3.26,0-4.74-1.18-5.1-3.72-1.79,2.75-4.74,4.18-8.57,4.18-5.66,0-9.38-2.75-9.38-7.8,0-4.23,2.55-7.45,9.89-8.16l3.88-.41c2.55-.31,3.92-1.18,3.92-3.31,0-2.45-1.27-3.77-5.4-3.77s-5.87,1.17-6.12,4.74h-5.05c.31-5.3,3.26-8.82,11.17-8.82s10.4,3.16,10.4,7.75v13.92c0,.81.41,1.32,1.43,1.32h1.43ZM916.7,75.7v-2.75c-.76.61-1.84.92-3.26,1.07l-3.67.41c-4.23.51-5.51,1.99-5.51,4.34s1.58,3.98,4.9,3.98c3.72,0,7.55-2.09,7.55-7.04Z"/>
    <path d="M952.11,49.8v36.31h-4.9v-3.88c-1.89,2.81-4.85,4.49-8.72,4.49-7.34,0-12.03-5.35-12.03-13.77s4.69-13.77,12.03-13.77c3.72,0,6.63,1.53,8.52,4.18v-13.56h5.1ZM947.17,72.95c0-6.02-3.01-9.38-7.7-9.38s-7.7,3.57-7.7,9.59,3.01,9.18,7.7,9.18,7.7-3.37,7.7-9.38Z"/>
    <path d="M981.96,82.18v3.93c-.76.1-1.69.15-2.5.15-3.26,0-4.74-1.18-5.1-3.72-1.79,2.75-4.74,4.18-8.57,4.18-5.66,0-9.38-2.75-9.38-7.8,0-4.23,2.55-7.45,9.89-8.16l3.88-.41c2.55-.31,3.92-1.18,3.92-3.31,0-2.45-1.27-3.77-5.4-3.77s-5.87,1.17-6.12,4.74h-5.05c.31-5.3,3.26-8.82,11.17-8.82s10.4,3.16,10.4,7.75v13.92c0,.81.41,1.32,1.43,1.32h1.43ZM974.11,75.7v-2.75c-.76.61-1.84.92-3.26,1.07l-3.67.41c-4.23.51-5.51,1.99-5.51,4.34s1.58,3.98,4.9,3.98c3.72,0,7.55-2.09,7.55-7.04Z"/>
    <path d="M1021.35,72.95c0,8.42-4.74,13.77-12.04,13.77-3.77,0-6.68-1.58-8.57-4.28v13.67h-5.1v-36.31h4.9v3.98c1.89-2.91,4.85-4.59,8.77-4.59,7.3,0,12.04,5.36,12.04,13.77ZM1016.05,72.75c0-6.02-3.01-9.18-7.7-9.18s-7.7,3.37-7.7,9.38,3.01,9.38,7.7,9.38,7.7-3.57,7.7-9.59Z"/>
    <path d="M1024.64,72.95c0-8.41,5.35-13.77,13.06-13.77s13,5.36,13,13.77-5.35,13.77-13,13.77-13.06-5.35-13.06-13.77ZM1045.39,72.95c0-6.02-3.06-9.38-7.7-9.38s-7.75,3.37-7.75,9.38,3.06,9.38,7.75,9.38,7.7-3.37,7.7-9.38Z"/>
    <path d="M1076.87,59.8v26.31h-4.9v-3.93c-1.68,2.6-4.54,4.54-8.26,4.54-5.66,0-9.23-3.26-9.23-9.28v-17.64h5.1v16.93c0,3.77,1.99,5.51,5.56,5.51,3.16,0,6.63-2.29,6.63-7.6v-14.84h5.1Z"/>
    <path d="M1097.23,59.44v4.84h-1.27c-5.05,0-8.21,2.5-8.21,7.55v14.28h-5.1v-26.31h4.9v4.69c1.43-2.86,4.03-5.1,8.21-5.1.46,0,.92,0,1.48.05Z"/>
    <path d="M1111.63,49.8h5.1v36.31h-5.1v-36.31Z"/>
    <path d="M1146.22,74.63h-19.84c.46,5.36,3.31,7.81,7.55,7.81,3.42,0,5.61-1.74,6.53-4.39h5.15c-1.33,5.1-5.46,8.67-11.78,8.67-7.45,0-12.6-5.3-12.6-13.77s5-13.77,12.49-13.77c7.96,0,12.49,6.07,12.49,13.97v1.48ZM1126.43,70.6h14.53c-.46-4.08-2.96-7.14-7.24-7.14-3.82,0-6.63,2.3-7.29,7.14Z"/>
    <path d="M1148.83,77.75h5.1c.41,3.67,2.19,5,6.48,5s5.81-1.32,5.81-3.67c0-2.09-1.27-3.11-5.61-3.87l-2.7-.51c-5.66-1.02-8.36-3.57-8.36-7.86,0-4.64,3.67-7.65,10.15-7.65,7.5,0,10.97,3.26,11.12,8.82h-4.95c-.2-3.77-2.45-4.85-6.17-4.85-3.31,0-5.1,1.33-5.1,3.52s1.79,3.11,4.9,3.72l2.75.46c6.43,1.22,9.13,3.47,9.13,7.85,0,5.15-4.13,8.06-11.01,8.06s-11.17-2.75-11.53-9.02Z"/>
    <path d="M1213.67,61.27c0,6.73-4.23,11.42-12.45,11.42h-10v13.41h-5.46v-36.31h15.45c8.21,0,12.45,4.69,12.45,11.47ZM1208.11,61.27c0-4.24-2.4-6.68-6.98-6.68h-9.9v13.31h9.9c4.59,0,6.98-2.4,6.98-6.63Z"/>
    <path d="M1232.1,59.44v4.84h-1.27c-5.05,0-8.21,2.5-8.21,7.55v14.28h-5.1v-26.31h4.9v4.69c1.43-2.86,4.03-5.1,8.21-5.1.46,0,.92,0,1.48.05Z"/>
    <path d="M1258.17,82.18v3.93c-.76.1-1.68.15-2.5.15-3.26,0-4.74-1.18-5.1-3.72-1.79,2.75-4.74,4.18-8.57,4.18-5.66,0-9.38-2.75-9.38-7.8,0-4.23,2.55-7.45,9.9-8.16l3.87-.41c2.55-.31,3.93-1.18,3.93-3.31,0-2.45-1.27-3.77-5.41-3.77s-5.86,1.17-6.12,4.74h-5.05c.3-5.3,3.26-8.82,11.17-8.82s10.4,3.16,10.4,7.75v13.92c0,.81.41,1.32,1.43,1.32h1.43ZM1250.31,75.7v-2.75c-.76.61-1.84.92-3.26,1.07l-3.67.41c-4.24.51-5.51,1.99-5.51,4.34s1.58,3.98,4.9,3.98c3.72,0,7.55-2.09,7.55-7.04Z"/>
    <path d="M1261.29,50.61h5.2v5.46h-5.2v-5.46ZM1261.34,59.8h5.1v26.31h-5.1v-26.31Z"/>
    <path d="M1286.75,59.44v4.84h-1.27c-5.05,0-8.21,2.5-8.21,7.55v14.28h-5.1v-26.31h4.9v4.69c1.43-2.86,4.03-5.1,8.21-5.1.46,0,.92,0,1.48.05Z"/>
    <path d="M1290.38,50.61h5.2v5.46h-5.2v-5.46ZM1290.43,59.8h5.1v26.31h-5.1v-26.31Z"/>
    <path d="M1325.01,74.63h-19.84c.46,5.36,3.31,7.81,7.55,7.81,3.42,0,5.61-1.74,6.53-4.39h5.15c-1.32,5.1-5.46,8.67-11.78,8.67-7.45,0-12.59-5.3-12.59-13.77s5-13.77,12.49-13.77c7.96,0,12.49,6.07,12.49,13.97v1.48ZM1305.22,70.6h14.54c-.46-4.08-2.96-7.14-7.24-7.14-3.82,0-6.63,2.3-7.3,7.14Z"/>
    <path d="M1327.63,77.75h5.1c.41,3.67,2.19,5,6.48,5s5.81-1.32,5.81-3.67c0-2.09-1.27-3.11-5.61-3.87l-2.7-.51c-5.66-1.02-8.36-3.57-8.36-7.86,0-4.64,3.67-7.65,10.15-7.65,7.5,0,10.97,3.26,11.12,8.82h-4.95c-.2-3.77-2.45-4.85-6.17-4.85-3.31,0-5.1,1.33-5.1,3.52s1.79,3.11,4.9,3.72l2.75.46c6.43,1.22,9.13,3.47,9.13,7.85,0,5.15-4.13,8.06-11.01,8.06s-11.17-2.75-11.53-9.02Z"/>
  </g>
  <g>
    <path d="M274.53,12.54c0,6.73-4.23,11.42-12.45,11.42h-10v13.41h-5.46V1.07h15.45c8.21,0,12.45,4.69,12.45,11.47ZM268.97,12.54c0-4.24-2.4-6.68-6.99-6.68h-9.89v13.31h9.89c4.59,0,6.99-2.4,6.99-6.63Z"/>
    <path d="M292.96,10.71v4.84h-1.27c-5.05,0-8.21,2.5-8.21,7.55v14.28h-5.1V11.07h4.9v4.69c1.43-2.86,4.03-5.1,8.21-5.1.46,0,.92,0,1.48.05Z"/>
    <path d="M319.03,33.45v3.93c-.76.1-1.68.15-2.5.15-3.26,0-4.74-1.18-5.1-3.72-1.78,2.75-4.74,4.18-8.57,4.18-5.66,0-9.38-2.75-9.38-7.8,0-4.23,2.55-7.45,9.89-8.16l3.88-.41c2.55-.31,3.93-1.18,3.93-3.31,0-2.45-1.27-3.77-5.4-3.77s-5.87,1.17-6.12,4.74h-5.05c.31-5.3,3.26-8.82,11.17-8.82s10.4,3.16,10.4,7.75v13.92c0,.81.41,1.32,1.43,1.32h1.43ZM311.18,26.97v-2.75c-.76.61-1.84.92-3.26,1.07l-3.67.41c-4.23.51-5.51,1.99-5.51,4.34s1.58,3.98,4.9,3.98c3.72,0,7.55-2.09,7.55-7.04Z"/>
    <path d="M322.16,1.89h5.2v5.46h-5.2V1.89ZM322.21,11.07h5.1v26.31h-5.1V11.07Z"/>
    <path d="M347.61,10.71v4.84h-1.27c-5.05,0-8.21,2.5-8.21,7.55v14.28h-5.1V11.07h4.9v4.69c1.43-2.86,4.03-5.1,8.21-5.1.46,0,.92,0,1.48.05Z"/>
    <path d="M351.24,1.89h5.2v5.46h-5.2V1.89ZM351.29,11.07h5.1v26.31h-5.1V11.07Z"/>
    <path d="M385.88,25.9h-19.84c.46,5.36,3.31,7.81,7.55,7.81,3.42,0,5.61-1.74,6.53-4.39h5.15c-1.33,5.1-5.46,8.67-11.78,8.67-7.45,0-12.6-5.3-12.6-13.77s5-13.77,12.49-13.77c7.96,0,12.49,6.07,12.49,13.97v1.48ZM366.09,21.88h14.54c-.46-4.08-2.96-7.14-7.24-7.14-3.82,0-6.63,2.3-7.29,7.14Z"/>
    <path d="M388.49,29.02h5.1c.41,3.67,2.19,5,6.48,5s5.81-1.32,5.81-3.67c0-2.09-1.27-3.11-5.61-3.87l-2.7-.51c-5.66-1.02-8.36-3.57-8.36-7.86,0-4.64,3.67-7.65,10.15-7.65,7.5,0,10.96,3.26,11.12,8.82h-4.95c-.21-3.77-2.45-4.85-6.17-4.85-3.32,0-5.1,1.33-5.1,3.52s1.79,3.11,4.9,3.72l2.76.46c6.43,1.22,9.13,3.47,9.13,7.85,0,5.15-4.13,8.06-11.01,8.06s-11.17-2.75-11.53-9.02Z"/>
    <path d="M430.89,5.97v10.25h18.51v4.79h-18.51v11.48h20.3v4.9h-25.75V1.07h25.91v4.9h-20.45Z"/>
    <path d="M454.06,24.22c0-8.41,5-13.77,12.54-13.77,6.53,0,10.91,3.82,11.73,9.79h-5.2c-.71-3.67-3.42-5.35-6.53-5.35-4.18,0-7.24,2.96-7.24,9.33s3.16,9.33,7.24,9.33c3.16,0,5.97-1.74,6.58-5.56h5.2c-.82,6.22-5.51,10-11.78,10-7.45,0-12.54-5.35-12.54-13.77Z"/>
    <path d="M481.2,24.22c0-8.41,5.35-13.77,13.06-13.77s13,5.36,13,13.77-5.35,13.77-13,13.77-13.06-5.35-13.06-13.77ZM501.96,24.22c0-6.02-3.06-9.38-7.7-9.38s-7.75,3.37-7.75,9.38,3.06,9.38,7.75,9.38,7.7-3.37,7.7-9.38Z"/>
    <path d="M534.15,19.73v17.65h-5.1v-16.93c0-3.77-1.99-5.51-5.56-5.51-3.11,0-6.63,2.3-6.63,7.6v14.84h-5.1V11.07h4.9v3.92c1.73-2.6,4.54-4.54,8.26-4.54,5.71,0,9.23,3.26,9.23,9.28Z"/>
    <path d="M538.71,24.22c0-8.41,5.35-13.77,13.06-13.77s13,5.36,13,13.77-5.35,13.77-13,13.77-13.06-5.35-13.06-13.77ZM559.46,24.22c0-6.02-3.06-9.38-7.7-9.38s-7.75,3.37-7.75,9.38,3.06,9.38,7.75,9.38,7.7-3.37,7.7-9.38Z"/>
    <path d="M607.11,19.73v17.65h-5.15v-16.98c0-3.77-1.79-5.46-5.05-5.46s-6.17,2.3-6.17,8.01v14.43h-5.1v-16.98c0-3.77-1.84-5.46-5.1-5.46-3.01,0-6.17,2.3-6.17,8.01v14.43h-5.1V11.07h4.9v3.92c1.58-2.7,4.03-4.54,7.6-4.54,4.13,0,6.83,1.99,8.11,4.95,1.68-2.91,4.39-4.95,8.16-4.95,5.97,0,9.08,3.88,9.08,9.28Z"/>
    <path d="M612.8,1.89h5.2v5.46h-5.2V1.89ZM612.85,11.07h5.1v26.31h-5.1V11.07Z"/>
    <path d="M622.44,24.22c0-8.41,5-13.77,12.54-13.77,6.53,0,10.91,3.82,11.73,9.79h-5.2c-.71-3.67-3.42-5.35-6.53-5.35-4.18,0-7.24,2.96-7.24,9.33s3.16,9.33,7.24,9.33c3.16,0,5.97-1.74,6.58-5.56h5.2c-.82,6.22-5.51,10-11.78,10-7.45,0-12.54-5.35-12.54-13.77Z"/>
    <path d="M277.59,67.96c0,11.22-6.63,18.15-18,18.15h-12.95v-36.31h12.95c11.37,0,18,6.93,18,18.15ZM271.88,67.96c0-8.47-4.33-13.36-12.34-13.36h-7.45v26.72h7.45c8.01,0,12.34-4.9,12.34-13.36Z"/>
    <path d="M306.12,74.63h-19.84c.46,5.36,3.31,7.81,7.55,7.81,3.42,0,5.61-1.74,6.53-4.39h5.15c-1.33,5.1-5.46,8.67-11.78,8.67-7.45,0-12.6-5.3-12.6-13.77s5-13.77,12.49-13.77c7.96,0,12.49,6.07,12.49,13.97v1.48ZM286.33,70.6h14.54c-.46-4.08-2.96-7.14-7.24-7.14-3.82,0-6.63,2.3-7.29,7.14Z"/>
    <path d="M332.55,59.8l-10.1,26.31h-5.66l-10.05-26.31h5.51l3.57,9.64c1.27,3.77,2.7,7.9,3.88,11.73,1.22-3.82,2.65-7.95,3.93-11.73l3.52-9.64h5.41Z"/>
    <path d="M357.96,74.63h-19.84c.46,5.36,3.31,7.81,7.55,7.81,3.42,0,5.61-1.74,6.53-4.39h5.15c-1.33,5.1-5.46,8.67-11.78,8.67-7.45,0-12.6-5.3-12.6-13.77s5-13.77,12.49-13.77c7.96,0,12.49,6.07,12.49,13.97v1.48ZM338.17,70.6h14.54c-.46-4.08-2.96-7.14-7.24-7.14-3.82,0-6.63,2.3-7.29,7.14Z"/>
    <path d="M362.52,49.8h5.1v36.31h-5.1v-36.31Z"/>
    <path d="M372.11,72.95c0-8.41,5.35-13.77,13.06-13.77s13,5.36,13,13.77-5.35,13.77-13,13.77-13.06-5.35-13.06-13.77ZM392.87,72.95c0-6.02-3.06-9.38-7.7-9.38s-7.75,3.37-7.75,9.38,3.06,9.38,7.75,9.38,7.7-3.37,7.7-9.38Z"/>
    <path d="M428.38,72.95c0,8.42-4.74,13.77-12.04,13.77-3.77,0-6.68-1.58-8.57-4.28v13.67h-5.1v-36.31h4.9v3.98c1.89-2.91,4.85-4.59,8.77-4.59,7.29,0,12.04,5.36,12.04,13.77ZM423.07,72.75c0-6.02-3.01-9.18-7.7-9.18s-7.7,3.37-7.7,9.38,3.01,9.38,7.7,9.38,7.7-3.57,7.7-9.59Z"/>
    <path d="M470.72,68.46v17.65h-5.15v-16.98c0-3.77-1.79-5.46-5.05-5.46s-6.17,2.3-6.17,8.01v14.43h-5.1v-16.98c0-3.77-1.84-5.46-5.1-5.46-3.01,0-6.17,2.3-6.17,8.01v14.43h-5.1v-26.31h4.9v3.92c1.58-2.7,4.03-4.54,7.6-4.54,4.13,0,6.83,1.99,8.11,4.95,1.68-2.91,4.39-4.95,8.16-4.95,5.97,0,9.08,3.88,9.08,9.28Z"/>
    <path d="M500.22,74.63h-19.84c.46,5.36,3.31,7.81,7.55,7.81,3.42,0,5.61-1.74,6.53-4.39h5.15c-1.33,5.1-5.46,8.67-11.78,8.67-7.45,0-12.6-5.3-12.6-13.77s5-13.77,12.49-13.77c7.96,0,12.49,6.07,12.49,13.97v1.48ZM480.43,70.6h14.54c-.46-4.08-2.96-7.14-7.24-7.14-3.82,0-6.63,2.3-7.29,7.14Z"/>
    <path d="M527.16,68.46v17.65h-5.1v-16.93c0-3.77-1.99-5.51-5.56-5.51-3.11,0-6.63,2.3-6.63,7.6v14.84h-5.1v-26.31h4.9v3.92c1.73-2.6,4.54-4.54,8.26-4.54,5.71,0,9.23,3.26,9.23,9.28Z"/>
    <path d="M539.17,63.98v15.81c0,1.53.76,2.24,3.01,2.24h2.29v4.08c-1.12.1-2.19.15-3.11.15-4.74,0-7.29-1.63-7.29-6.02v-16.27h-4.23v-4.18h4.23v-7.55h5.1v7.55h5.3v4.18h-5.3Z"/>
    <path d="M557.64,67.96c0-11.73,7.09-18.97,17.14-18.97,7.55,0,14.18,3.98,15.91,12.85h-5.51c-1.48-5.76-5.71-8.01-10.4-8.01-6.94,0-11.48,5.25-11.48,14.13s4.54,14.13,11.48,14.13c4.95,0,9.79-2.96,10.66-9.38h5.46c-1.02,9.53-8.26,14.23-16.12,14.23-10,0-17.14-7.24-17.14-18.97Z"/>
    <path d="M619.26,82.18v3.93c-.76.1-1.69.15-2.5.15-3.26,0-4.74-1.18-5.1-3.72-1.78,2.75-4.74,4.18-8.57,4.18-5.66,0-9.38-2.75-9.38-7.8,0-4.23,2.55-7.45,9.89-8.16l3.88-.41c2.55-.31,3.93-1.18,3.93-3.31,0-2.45-1.27-3.77-5.4-3.77s-5.87,1.17-6.12,4.74h-5.05c.31-5.3,3.26-8.82,11.17-8.82s10.4,3.16,10.4,7.75v13.92c0,.81.4,1.32,1.43,1.32h1.43ZM611.41,75.7v-2.75c-.76.61-1.84.92-3.26,1.07l-3.67.41c-4.23.51-5.51,1.99-5.51,4.34s1.58,3.98,4.9,3.98c3.72,0,7.55-2.09,7.55-7.04Z"/>
    <path d="M645.03,68.46v17.65h-5.1v-16.93c0-3.77-1.99-5.51-5.56-5.51-3.11,0-6.63,2.3-6.63,7.6v14.84h-5.1v-26.31h4.9v3.92c1.74-2.6,4.54-4.54,8.26-4.54,5.71,0,9.23,3.26,9.23,9.28Z"/>
    <path d="M674.88,82.18v3.93c-.76.1-1.69.15-2.5.15-3.26,0-4.74-1.18-5.1-3.72-1.79,2.75-4.74,4.18-8.57,4.18-5.66,0-9.38-2.75-9.38-7.8,0-4.23,2.55-7.45,9.89-8.16l3.88-.41c2.55-.31,3.92-1.18,3.92-3.31,0-2.45-1.27-3.77-5.4-3.77s-5.87,1.17-6.12,4.74h-5.05c.31-5.3,3.26-8.82,11.17-8.82s10.4,3.16,10.4,7.75v13.92c0,.81.41,1.32,1.43,1.32h1.43ZM667.03,75.7v-2.75c-.76.61-1.84.92-3.26,1.07l-3.67.41c-4.23.51-5.51,1.99-5.51,4.34s1.58,3.98,4.9,3.98c3.72,0,7.55-2.09,7.55-7.04Z"/>
    <path d="M702.44,49.8v36.31h-4.9v-3.88c-1.89,2.81-4.85,4.49-8.72,4.49-7.35,0-12.04-5.35-12.04-13.77s4.69-13.77,12.04-13.77c3.72,0,6.63,1.53,8.52,4.18v-13.56h5.1ZM697.49,72.95c0-6.02-3.01-9.38-7.7-9.38s-7.7,3.57-7.7,9.59,3.01,9.18,7.7,9.18,7.7-3.37,7.7-9.38Z"/>
    <path d="M732.29,82.18v3.93c-.76.1-1.68.15-2.5.15-3.26,0-4.74-1.18-5.1-3.72-1.79,2.75-4.74,4.18-8.57,4.18-5.66,0-9.38-2.75-9.38-7.8,0-4.23,2.55-7.45,9.9-8.16l3.87-.41c2.55-.31,3.93-1.18,3.93-3.31,0-2.45-1.27-3.77-5.41-3.77s-5.86,1.17-6.12,4.74h-5.05c.3-5.3,3.26-8.82,11.17-8.82s10.4,3.16,10.4,7.75v13.92c0,.81.41,1.32,1.43,1.32h1.43ZM724.44,75.7v-2.75c-.76.61-1.84.92-3.26,1.07l-3.67.41c-4.24.51-5.51,1.99-5.51,4.34s1.58,3.98,4.9,3.98c3.72,0,7.55-2.09,7.55-7.04Z"/>
  </g>
  <g id="flag">
    <rect class="cls-1" x="127.56" y="1.06" width="42.52" height="85.04"/>
    <path class="cls-1" d="M67.76,57.57c-.15-.13-15.36-13.29-15.36-13.29l2.35-1.18c.35-.16.6-.36.77-.58.52-.65.38-1.48.22-2.11-.06-.21-2.63-9.15-2.63-9.15,0,0,7.26,1.55,7.72,1.62.15.03.29.04.41.04.11,0,.32-.02.33-.02.62-.11.93-.57,1.16-1.17.09-.19,1.86-4.47,1.86-4.47,0,0,7.78,8.59,7.83,8.63.55.5,1.09.67,1.54.6.09-.01.17-.05.25-.08.6-.23.97-.9.83-1.76-.13-.78-3.94-18.35-3.94-18.35,0,0,4.08,2.42,5.44,3.2.66.4,1.17.56,1.6.47.43-.1.79-.46,1.13-1.11.2-.36,5.75-11.31,5.75-11.31,0,0,5.54,10.95,5.75,11.31.35.65.7,1.01,1.13,1.11.43.09.94-.07,1.6-.47,1.36-.78,5.44-3.2,5.44-3.2,0,0-3.81,17.57-3.94,18.35-.14.86.23,1.53.83,1.76.08.03.16.07.25.08.45.06.99-.1,1.54-.6.05-.04,7.83-8.63,7.83-8.63,0,0,1.77,4.28,1.86,4.47.24.61.54,1.07,1.16,1.17,0,0,.21.02.33.02.13,0,.26-.01.41-.04.46-.06,7.72-1.62,7.72-1.62,0,0-2.56,8.94-2.63,9.15-.15.63-.3,1.45.22,2.11.18.21.42.41.77.58l2.35,1.18s-15.21,13.15-15.36,13.29c-.44.41-.83,1.03-.31,2.64.12.37,1.75,5.05,1.75,5.05,0,0-14.59-2.98-14.83-3.03-.35-.08-.69-.11-1.01-.08-.94.07-1.61.61-1.61,1.67,0,1.44.58,15.78.58,15.78h-3.71s.58-14.34.58-15.78c0-1.06-.67-1.6-1.61-1.67-.31-.02-.65,0-1.01.08-.24.05-14.83,3.03-14.83,3.03,0,0,1.62-4.68,1.75-5.05.52-1.61.13-2.23-.31-2.64Z"/>
    <rect class="cls-1" x="0" y="1.06" width="42.52" height="85.04"/>
  </g>
</svg>