<?xml version="1.0" encoding="UTF-8"?><svg id="Layer_1" xmlns="http://www.w3.org/2000/svg" xmlns:xlink="http://www.w3.org/1999/xlink" viewBox="0 0 452.27 27.5"><defs><clipPath id="clippath"><rect width="452.27" height="27.5" style="fill:none;"/></clipPath></defs><g style="clip-path:url(#clippath);"><path d="M21.07,4.81s-1.3,2.51-1.48,2.77c-.18.35-.35.35-.61.17-.35-.17-1.39-.78-1.39-.78,0,0,.96,4.16.96,4.5.08.35-.26.61-.61.35-.09-.09-1.91-2.17-1.91-2.17,0,0-.43.95-.52,1.13-.09.17-.17.35-.44.26-.35-.09-2-.43-2-.43,0,0,.61,2.08.7,2.34.09.21.17.43-.17.61l-.61.26s3.57,3.12,3.66,3.21c.17.17.35.26.17.78-.17.52-.35,1.22-.35,1.22,0,0,3.31-.7,3.66-.79.31-.03.64.09.64.44s-.2,3.92-.2,3.92h1.05s-.2-3.57-.2-3.92.33-.47.64-.44c.35.09,3.65.79,3.65.79,0,0-.17-.7-.35-1.22-.17-.52,0-.61.17-.78.09-.09,3.66-3.21,3.66-3.21l-.61-.26c-.35-.17-.26-.4-.17-.61.08-.26.7-2.34.7-2.34,0,0-1.66.35-2,.43-.26.09-.35-.09-.44-.26-.09-.17-.52-1.13-.52-1.13,0,0-1.83,2.08-1.92,2.17-.35.26-.7,0-.61-.35,0-.35.96-4.5.96-4.5,0,0-1.05.6-1.39.78-.26.17-.44.17-.61-.17-.17-.26-1.48-2.77-1.48-2.77" style="fill:#ed1c24; fill-rule:evenodd;"/><rect y="3.25" width="10.53" height="20.92" style="fill:#ed1c24;"/><rect x="31.6" y="3.25" width="10.53" height="20.92" style="fill:#ed1c24;"/><path d="M66.73,5.83c-.24-1.21-1.21-1.82-2.4-1.82-2.04,0-2.9,1.68-2.9,3.47,0,1.95.86,3.59,2.91,3.59,1.5,0,2.36-1.06,2.47-2.47h1.14c-.22,2.14-1.55,3.43-3.71,3.43-2.66,0-3.96-1.97-3.96-4.46s1.42-4.51,4.05-4.51c1.79,0,3.26.96,3.53,2.78h-1.14Z" style="fill:#231f20;"/><path d="M71.88,5.47c1.97,0,3.01,1.43,3.01,3.25s-1.04,3.24-3.01,3.24-3.01-1.43-3.01-3.24,1.04-3.25,3.01-3.25M71.88,11.06c1.07,0,1.93-.84,1.93-2.34s-.86-2.35-1.93-2.35-1.93.84-1.93,2.35.86,2.34,1.93,2.34" style="fill:#231f20;"/><path d="M76.1,5.62h.96v.91h.02c.46-.7,1.15-1.06,2-1.06.76,0,1.45.3,1.7,1.06.42-.66,1.15-1.06,1.94-1.06,1.24,0,2.06.52,2.06,1.8v4.55h-1.02v-4.07c0-.77-.2-1.38-1.2-1.38s-1.62.62-1.62,1.58v3.86h-1.02v-4.07c0-.8-.25-1.38-1.16-1.38-1.21,0-1.65,1.11-1.65,1.58v3.86h-1.02v-6.2Z" style="fill:#231f20;"/><path d="M86.33,5.62h.96v.91h.02c.46-.7,1.15-1.06,2-1.06.76,0,1.45.3,1.7,1.06.42-.66,1.15-1.06,1.94-1.06,1.24,0,2.06.52,2.06,1.8v4.55h-1.02v-4.07c0-.77-.2-1.38-1.2-1.38s-1.62.62-1.62,1.58v3.86h-1.02v-4.07c0-.8-.25-1.38-1.16-1.38-1.21,0-1.65,1.11-1.65,1.58v3.86h-1.02v-6.2Z" style="fill:#231f20;"/><path d="M97.65,4.5h-1.02v-1.25h1.02v1.25ZM96.63,5.62h1.02v6.2h-1.02v-6.2Z" style="fill:#231f20;"/><path d="M99.86,9.86c.04.91.83,1.2,1.67,1.2.64,0,1.5-.14,1.5-.92s-1.01-.92-2.03-1.15c-1.01-.23-2.03-.56-2.03-1.75,0-1.25,1.24-1.76,2.31-1.76,1.37,0,2.46.43,2.54,1.94h-1.02c-.07-.79-.77-1.04-1.44-1.04-.61,0-1.32.17-1.32.79,0,.73,1.08.85,2.03,1.08,1.02.23,2.03.56,2.03,1.76,0,1.48-1.38,1.95-2.64,1.95-1.39,0-2.57-.56-2.63-2.1h1.02Z" style="fill:#231f20;"/><path d="M105.86,9.86c.04.91.83,1.2,1.67,1.2.64,0,1.5-.14,1.5-.92s-1.01-.92-2.03-1.15c-1.01-.23-2.03-.56-2.03-1.75,0-1.25,1.24-1.76,2.31-1.76,1.37,0,2.46.43,2.54,1.94h-1.02c-.07-.79-.77-1.04-1.44-1.04-.61,0-1.32.17-1.32.79,0,.73,1.08.85,2.03,1.08,1.02.23,2.03.56,2.03,1.76,0,1.48-1.38,1.95-2.64,1.95-1.39,0-2.57-.56-2.63-2.1h1.02Z" style="fill:#231f20;"/><path d="M112.31,4.5h-1.02v-1.25h1.02v1.25ZM111.29,5.62h1.02v6.2h-1.02v-6.2Z" style="fill:#231f20;"/><path d="M116.57,5.47c1.97,0,3.01,1.43,3.01,3.25s-1.04,3.24-3.01,3.24-3.01-1.43-3.01-3.24,1.04-3.25,3.01-3.25M116.57,11.06c1.07,0,1.93-.84,1.93-2.34s-.86-2.35-1.93-2.35-1.93.84-1.93,2.35.86,2.34,1.93,2.34" style="fill:#231f20;"/><path d="M120.78,5.62h.96v.98h.02c.43-.77,1.13-1.13,2.02-1.13,1.63,0,2.14.94,2.14,2.27v4.08h-1.02v-4.2c0-.75-.48-1.25-1.26-1.25-1.24,0-1.83.83-1.83,1.94v3.5h-1.02v-6.2Z" style="fill:#231f20;"/><path d="M136.33,11.82h-1.02v-.84h-.02c-.34.68-1.13.98-1.98.98-1.91,0-2.85-1.51-2.85-3.26s.93-3.23,2.83-3.23c.64,0,1.55.24,2,.97h.02v-3.19h1.02v8.56ZM133.45,11.06c1.37,0,1.89-1.18,1.89-2.34,0-1.22-.55-2.35-1.96-2.35s-1.86,1.19-1.86,2.4.6,2.29,1.92,2.29" style="fill:#231f20;"/><path d="M143.2,9.85c-.27,1.37-1.26,2.11-2.65,2.11-1.98,0-2.91-1.37-2.98-3.26,0-1.86,1.22-3.23,2.91-3.23,2.2,0,2.87,2.05,2.81,3.55h-4.64c-.04,1.08.58,2.04,1.93,2.04.84,0,1.43-.41,1.61-1.21h1.01ZM142.21,8.12c-.05-.97-.78-1.75-1.79-1.75-1.07,0-1.7.8-1.78,1.75h3.56Z" style="fill:#231f20;"/><rect x="147.75" y="3.25" width="1.02" height="8.56" style="fill:#231f20;"/><path d="M155.84,11.79c-.18.11-.41.17-.73.17-.53,0-.86-.29-.86-.96-.57.66-1.32.96-2.18.96-1.13,0-2.05-.5-2.05-1.74,0-1.4,1.04-1.7,2.1-1.91,1.13-.22,2.09-.14,2.09-.91,0-.89-.73-1.03-1.38-1.03-.86,0-1.5.26-1.55,1.18h-1.02c.06-1.54,1.25-2.08,2.63-2.08,1.12,0,2.33.25,2.33,1.7v3.19c0,.48,0,.7.32.7.08,0,.18-.01.31-.06v.79ZM154.19,8.62c-.4.29-1.16.3-1.85.42-.67.12-1.25.36-1.25,1.12,0,.67.58.91,1.2.91,1.34,0,1.9-.84,1.9-1.4v-1.04Z" style="fill:#231f20;"/><path d="M160.55,6.52h-1.04v-.9h1.04v-.92c0-1.01.6-1.53,1.71-1.53.19,0,.47.04.66.1v.89c-.18-.06-.4-.08-.57-.08-.49,0-.78.15-.78.69v.86h1.2v.9h-1.2v5.3h-1.02v-5.3Z" style="fill:#231f20;"/><path d="M166.36,5.47c1.97,0,3.01,1.43,3.01,3.25s-1.04,3.24-3.01,3.24-3.01-1.43-3.01-3.24,1.04-3.25,3.01-3.25M166.36,11.06c1.07,0,1.93-.84,1.93-2.34s-.86-2.35-1.93-2.35-1.93.84-1.93,2.35.86,2.34,1.93,2.34" style="fill:#231f20;"/><path d="M170.57,5.62h.96v.98h.02c.43-.77,1.13-1.13,2.02-1.13,1.63,0,2.14.94,2.14,2.27v4.08h-1.02v-4.2c0-.75-.48-1.25-1.26-1.25-1.24,0-1.83.83-1.83,1.94v3.5h-1.02v-6.2Z" style="fill:#231f20;"/><path d="M181.45,7.61c-.16-.78-.7-1.23-1.54-1.23-1.48,0-1.93,1.16-1.93,2.42,0,1.14.52,2.27,1.81,2.27.98,0,1.57-.58,1.7-1.51h1.04c-.23,1.51-1.18,2.41-2.74,2.41-1.89,0-2.9-1.32-2.9-3.17s.96-3.32,2.93-3.32c1.4,0,2.53.66,2.67,2.13h-1.05Z" style="fill:#231f20;"/><path d="M185.1,5.62h1.23v.9h-1.23v3.85c0,.47.13.55.77.55h.47v.9h-.78c-1.05,0-1.47-.22-1.47-1.36v-3.95h-1.05v-.9h1.05v-1.86h1.02v1.86Z" style="fill:#231f20;"/><path d="M188.54,4.5h-1.02v-1.25h1.02v1.25ZM187.53,5.62h1.02v6.2h-1.02v-6.2Z" style="fill:#231f20;"/><path d="M192.81,5.47c1.97,0,3.01,1.43,3.01,3.25s-1.04,3.24-3.01,3.24-3.01-1.43-3.01-3.24,1.04-3.25,3.01-3.25M192.81,11.06c1.07,0,1.93-.84,1.93-2.34s-.86-2.35-1.93-2.35-1.93.84-1.93,2.35.87,2.34,1.93,2.34" style="fill:#231f20;"/><path d="M197.02,5.62h.96v.98h.02c.43-.77,1.13-1.13,2.01-1.13,1.63,0,2.14.94,2.14,2.27v4.08h-1.02v-4.2c0-.75-.48-1.25-1.26-1.25-1.24,0-1.84.83-1.84,1.94v3.5h-1.02v-6.2Z" style="fill:#231f20;"/><path d="M207.06,5.62h1.02v.84h.02c.34-.68,1.13-.98,1.98-.98,1.91,0,2.86,1.51,2.86,3.26s-.94,3.23-2.83,3.23c-.64,0-1.55-.24-2-.97h-.02v3.2h-1.02V5.62ZM209.94,6.37c-1.37,0-1.9,1.18-1.9,2.34,0,1.22.55,2.35,1.96,2.35s1.86-1.19,1.86-2.4-.6-2.29-1.92-2.29" style="fill:#231f20;"/><path d="M219.28,11.82h-.96v-.98h-.02c-.43.77-1.13,1.13-2.01,1.13-1.63,0-2.14-.94-2.14-2.27v-4.08h1.02v4.2c0,.76.48,1.25,1.26,1.25,1.24,0,1.84-.83,1.84-1.94v-3.5h1.02v6.2Z" style="fill:#231f20;"/><path d="M220.85,3.25h1.02v3.2h.02c.34-.68,1.13-.98,1.98-.98,1.91,0,2.85,1.51,2.85,3.26s-.93,3.23-2.83,3.23c-.64,0-1.55-.24-2-.97h-.02v.83h-1.02V3.25ZM223.73,6.37c-1.37,0-1.9,1.18-1.9,2.34,0,1.22.55,2.35,1.96,2.35s1.86-1.19,1.86-2.4-.6-2.29-1.92-2.29" style="fill:#231f20;"/><rect x="227.99" y="3.25" width="1.02" height="8.56" style="fill:#231f20;"/><path d="M231.67,4.5h-1.02v-1.25h1.02v1.25ZM230.65,5.62h1.02v6.2h-1.02v-6.2Z" style="fill:#231f20;"/><path d="M238.8,14.19h-1.02v-3.21h-.02c-.34.68-1.13.98-1.98.98-1.91,0-2.85-1.51-2.85-3.26s.93-3.23,2.83-3.23c.64,0,1.55.24,2,.97h.02v-.83h1.02v8.57ZM235.92,11.06c1.37,0,1.9-1.18,1.9-2.34,0-1.22-.55-2.35-1.96-2.35s-1.86,1.19-1.86,2.4.6,2.29,1.92,2.29" style="fill:#231f20;"/><path d="M245.51,11.82h-.96v-.98h-.02c-.43.77-1.13,1.13-2.01,1.13-1.63,0-2.14-.94-2.14-2.27v-4.08h1.02v4.2c0,.76.48,1.25,1.26,1.25,1.24,0,1.84-.83,1.84-1.94v-3.5h1.02v6.2Z" style="fill:#231f20;"/><path d="M252.34,9.85c-.27,1.37-1.26,2.11-2.65,2.11-1.98,0-2.91-1.37-2.98-3.26,0-1.86,1.22-3.23,2.91-3.23,2.2,0,2.87,2.05,2.81,3.55h-4.64c-.04,1.08.58,2.04,1.93,2.04.84,0,1.43-.41,1.61-1.21h1.01ZM251.35,8.12c-.05-.97-.78-1.75-1.79-1.75-1.07,0-1.7.8-1.78,1.75h3.56Z" style="fill:#231f20;"/><path d="M66.08,24.17h-1.02v-.84h-.02c-.34.68-1.13.98-1.98.98-1.91,0-2.85-1.51-2.85-3.26s.94-3.23,2.83-3.23c.64,0,1.55.24,2,.97h.02v-3.19h1.02v8.56ZM63.21,23.41c1.37,0,1.89-1.18,1.89-2.34,0-1.22-.55-2.35-1.95-2.35s-1.86,1.19-1.86,2.4.6,2.29,1.92,2.29" style="fill:#231f20;"/><path d="M72.79,24.17h-.96v-.98h-.02c-.43.77-1.13,1.13-2.02,1.13-1.63,0-2.13-.94-2.13-2.27v-4.08h1.02v4.2c0,.76.48,1.25,1.26,1.25,1.24,0,1.83-.83,1.83-1.94v-3.5h1.02v6.2Z" style="fill:#231f20;"/><path d="M83.86,18.18c-.24-1.21-1.21-1.82-2.4-1.82-2.04,0-2.9,1.68-2.9,3.47,0,1.95.86,3.59,2.91,3.59,1.5,0,2.36-1.06,2.47-2.47h1.14c-.22,2.14-1.55,3.43-3.71,3.43-2.66,0-3.96-1.97-3.96-4.46s1.42-4.51,4.05-4.51c1.79,0,3.26.96,3.53,2.78h-1.14Z" style="fill:#231f20;"/><path d="M91.82,24.14c-.18.11-.41.17-.73.17-.53,0-.86-.29-.86-.96-.56.66-1.32.96-2.18.96-1.13,0-2.05-.5-2.05-1.74,0-1.4,1.04-1.7,2.1-1.91,1.13-.22,2.09-.14,2.09-.91,0-.89-.73-1.03-1.38-1.03-.86,0-1.5.26-1.55,1.18h-1.02c.06-1.54,1.25-2.08,2.63-2.08,1.12,0,2.33.25,2.33,1.7v3.19c0,.48,0,.69.32.69.08,0,.18-.01.31-.06v.79ZM90.17,20.97c-.4.29-1.16.3-1.85.42-.67.12-1.25.36-1.25,1.12,0,.67.57.91,1.2.91,1.34,0,1.9-.84,1.9-1.4v-1.04Z" style="fill:#231f20;"/><path d="M92.78,17.97h.96v.98h.02c.43-.77,1.13-1.13,2.02-1.13,1.63,0,2.13.94,2.13,2.27v4.08h-1.02v-4.2c0-.76-.48-1.25-1.26-1.25-1.24,0-1.83.83-1.83,1.94v3.5h-1.02v-6.2Z" style="fill:#231f20;"/><path d="M104.94,24.14c-.18.11-.41.17-.73.17-.53,0-.86-.29-.86-.96-.56.66-1.32.96-2.18.96-1.13,0-2.05-.5-2.05-1.74,0-1.4,1.04-1.7,2.1-1.91,1.13-.22,2.09-.14,2.09-.91,0-.89-.73-1.03-1.38-1.03-.86,0-1.5.26-1.55,1.18h-1.02c.06-1.54,1.25-2.08,2.63-2.08,1.12,0,2.33.25,2.33,1.7v3.19c0,.48,0,.69.32.69.08,0,.18-.01.31-.06v.79ZM103.29,20.97c-.4.29-1.16.3-1.85.42-.67.12-1.25.36-1.25,1.12,0,.67.57.91,1.2.91,1.34,0,1.9-.84,1.9-1.4v-1.04Z" style="fill:#231f20;"/><path d="M111.43,24.17h-1.02v-.84h-.02c-.34.68-1.13.98-1.98.98-1.91,0-2.85-1.51-2.85-3.26s.94-3.23,2.83-3.23c.64,0,1.55.24,2,.97h.02v-3.19h1.02v8.56ZM108.55,23.41c1.37,0,1.89-1.18,1.89-2.34,0-1.22-.55-2.35-1.96-2.35s-1.86,1.19-1.86,2.4.6,2.29,1.92,2.29" style="fill:#231f20;"/><path d="M118.5,24.14c-.18.11-.41.17-.73.17-.53,0-.86-.29-.86-.96-.56.66-1.32.96-2.18.96-1.13,0-2.05-.5-2.05-1.74,0-1.4,1.04-1.7,2.1-1.91,1.13-.22,2.09-.14,2.09-.91,0-.89-.73-1.03-1.38-1.03-.86,0-1.5.26-1.55,1.18h-1.02c.06-1.54,1.25-2.08,2.63-2.08,1.12,0,2.33.25,2.33,1.7v3.19c0,.48,0,.69.32.69.08,0,.18-.01.31-.06v.79ZM116.85,20.97c-.4.29-1.16.3-1.85.42-.67.12-1.25.36-1.25,1.12,0,.67.57.91,1.2.91,1.34,0,1.9-.84,1.9-1.4v-1.04Z" style="fill:#231f20;"/><path d="M270.94,3.25h3.75c1.7,0,2.63.95,2.63,2.53s-.92,2.54-2.63,2.53h-2.61v3.5h-1.14V3.25ZM272.08,7.36h2.23c1.28.01,1.87-.55,1.87-1.57s-.59-1.57-1.87-1.57h-2.23v3.14Z" style="fill:#231f20;"/><path d="M283.68,11.82h-.96v-.98h-.02c-.43.77-1.13,1.13-2.02,1.13-1.63,0-2.13-.94-2.13-2.27v-4.08h1.02v4.2c0,.76.48,1.25,1.26,1.25,1.23,0,1.83-.83,1.83-1.94v-3.5h1.02v6.2Z" style="fill:#231f20;"/><path d="M285.26,3.25h1.02v3.2h.02c.34-.68,1.13-.98,1.98-.98,1.91,0,2.85,1.51,2.85,3.26s-.93,3.23-2.83,3.23c-.64,0-1.55-.24-2-.97h-.02v.83h-1.02V3.25ZM288.14,6.37c-1.37,0-1.9,1.18-1.9,2.34,0,1.22.55,2.35,1.96,2.35s1.86-1.19,1.86-2.4-.6-2.29-1.92-2.29" style="fill:#231f20;"/><rect x="292.4" y="3.25" width="1.02" height="8.56" style="fill:#231f20;"/><path d="M296.08,4.5h-1.02v-1.25h1.02v1.25ZM295.06,5.62h1.02v6.2h-1.02v-6.2Z" style="fill:#231f20;"/><path d="M301.88,7.61c-.16-.78-.7-1.23-1.54-1.23-1.48,0-1.93,1.16-1.93,2.42,0,1.14.52,2.27,1.81,2.27.98,0,1.57-.58,1.7-1.51h1.04c-.23,1.51-1.18,2.41-2.74,2.41-1.89,0-2.9-1.32-2.9-3.17s.96-3.32,2.93-3.32c1.4,0,2.53.66,2.67,2.13h-1.05Z" style="fill:#231f20;"/><path d="M312.57,5.76c-.13-1.22-.95-1.75-2.12-1.75-.96,0-1.92.35-1.92,1.46,0,1.06,1.37,1.21,2.75,1.52,1.37.31,2.74.79,2.74,2.47,0,1.82-1.79,2.55-3.35,2.55-1.92,0-3.54-.94-3.54-3.02h1.08c0,1.44,1.2,2.06,2.5,2.06,1.03,0,2.17-.32,2.17-1.56s-1.37-1.38-2.73-1.68c-1.37-.3-2.75-.7-2.75-2.27,0-1.74,1.55-2.51,3.11-2.51,1.75,0,3.08.83,3.15,2.71h-1.08Z" style="fill:#231f20;"/><path d="M320.51,9.85c-.27,1.37-1.26,2.11-2.65,2.11-1.98,0-2.91-1.37-2.98-3.26,0-1.86,1.22-3.23,2.91-3.23,2.2,0,2.87,2.05,2.81,3.55h-4.64c-.04,1.08.58,2.04,1.93,2.04.84,0,1.43-.41,1.61-1.21h1.01ZM319.53,8.12c-.05-.97-.78-1.75-1.79-1.75-1.07,0-1.7.8-1.77,1.75h3.56Z" style="fill:#231f20;"/><path d="M321.63,5.62h.96v1.31h.02c.49-1,1.18-1.49,2.28-1.45v1.08c-1.64,0-2.24.93-2.24,2.51v2.76h-1.02v-6.2Z" style="fill:#231f20;"/><polygon points="328.46 11.82 327.36 11.82 325.06 5.62 326.2 5.62 327.94 10.79 327.96 10.79 329.65 5.62 330.72 5.62 328.46 11.82" style="fill:#231f20;"/><path d="M332.74,4.5h-1.02v-1.25h1.02v1.25ZM331.72,5.62h1.02v6.2h-1.02v-6.2Z" style="fill:#231f20;"/><path d="M338.53,7.61c-.16-.78-.7-1.23-1.54-1.23-1.48,0-1.93,1.16-1.93,2.42,0,1.14.52,2.27,1.81,2.27.98,0,1.57-.58,1.7-1.51h1.04c-.23,1.51-1.17,2.41-2.73,2.41-1.89,0-2.9-1.32-2.9-3.17s.96-3.32,2.93-3.32c1.4,0,2.53.66,2.67,2.13h-1.06Z" style="fill:#231f20;"/><path d="M346.06,9.85c-.28,1.37-1.26,2.11-2.65,2.11-1.98,0-2.91-1.37-2.97-3.26,0-1.86,1.22-3.23,2.91-3.23,2.2,0,2.87,2.05,2.81,3.55h-4.64c-.04,1.08.58,2.04,1.93,2.04.84,0,1.43-.41,1.61-1.21h1.01ZM345.07,8.12c-.05-.97-.78-1.75-1.79-1.75-1.07,0-1.7.8-1.78,1.75h3.56Z" style="fill:#231f20;"/><path d="M356.74,5.83c-.24-1.21-1.21-1.82-2.4-1.82-2.04,0-2.9,1.68-2.9,3.47,0,1.95.86,3.59,2.91,3.59,1.5,0,2.36-1.06,2.47-2.47h1.14c-.22,2.14-1.55,3.43-3.71,3.43-2.66,0-3.96-1.97-3.96-4.46s1.41-4.51,4.05-4.51c1.79,0,3.26.96,3.53,2.78h-1.14Z" style="fill:#231f20;"/><path d="M361.89,5.47c1.97,0,3.01,1.43,3.01,3.25s-1.04,3.24-3.01,3.24-3.01-1.43-3.01-3.24,1.04-3.25,3.01-3.25M361.89,11.06c1.07,0,1.93-.84,1.93-2.34s-.86-2.35-1.93-2.35-1.93.84-1.93,2.35.86,2.34,1.93,2.34" style="fill:#231f20;"/><path d="M366.1,5.62h.96v.91h.02c.46-.7,1.15-1.06,2-1.06.76,0,1.45.3,1.7,1.06.42-.66,1.15-1.06,1.94-1.06,1.23,0,2.06.52,2.06,1.8v4.55h-1.02v-4.07c0-.77-.2-1.38-1.2-1.38s-1.62.62-1.62,1.58v3.86h-1.02v-4.07c0-.8-.25-1.38-1.16-1.38-1.21,0-1.65,1.11-1.65,1.58v3.86h-1.02v-6.2Z" style="fill:#231f20;"/><path d="M376.34,5.62h.96v.91h.02c.46-.7,1.15-1.06,2-1.06.76,0,1.45.3,1.7,1.06.42-.66,1.15-1.06,1.94-1.06,1.23,0,2.06.52,2.06,1.8v4.55h-1.02v-4.07c0-.77-.2-1.38-1.2-1.38s-1.62.62-1.62,1.58v3.86h-1.02v-4.07c0-.8-.25-1.38-1.16-1.38-1.21,0-1.65,1.11-1.65,1.58v3.86h-1.02v-6.2Z" style="fill:#231f20;"/><path d="M387.65,4.5h-1.02v-1.25h1.02v1.25ZM386.63,5.62h1.02v6.2h-1.02v-6.2Z" style="fill:#231f20;"/><path d="M389.86,9.86c.03.91.83,1.2,1.67,1.2.64,0,1.5-.14,1.5-.92s-1.01-.92-2.03-1.15c-1.01-.23-2.03-.56-2.03-1.75,0-1.25,1.24-1.76,2.31-1.76,1.37,0,2.46.43,2.54,1.94h-1.02c-.07-.79-.77-1.04-1.44-1.04-.61,0-1.32.17-1.32.79,0,.73,1.08.85,2.03,1.08,1.02.23,2.03.56,2.03,1.76,0,1.48-1.38,1.95-2.64,1.95-1.39,0-2.57-.56-2.63-2.1h1.02Z" style="fill:#231f20;"/><path d="M395.86,9.86c.03.91.83,1.2,1.67,1.2.64,0,1.5-.14,1.5-.92s-1.01-.92-2.03-1.15c-1.01-.23-2.03-.56-2.03-1.75,0-1.25,1.24-1.76,2.31-1.76,1.37,0,2.46.43,2.54,1.94h-1.02c-.07-.79-.77-1.04-1.44-1.04-.61,0-1.32.17-1.32.79,0,.73,1.08.85,2.03,1.08,1.02.23,2.03.56,2.03,1.76,0,1.48-1.38,1.95-2.64,1.95-1.39,0-2.57-.56-2.63-2.1h1.02Z" style="fill:#231f20;"/><path d="M402.32,4.5h-1.02v-1.25h1.02v1.25ZM401.3,5.62h1.02v6.2h-1.02v-6.2Z" style="fill:#231f20;"/><path d="M406.58,5.47c1.97,0,3.01,1.43,3.01,3.25s-1.04,3.24-3.01,3.24-3.01-1.43-3.01-3.24,1.04-3.25,3.01-3.25M406.58,11.06c1.07,0,1.93-.84,1.93-2.34s-.86-2.35-1.93-2.35-1.93.84-1.93,2.35.86,2.34,1.93,2.34" style="fill:#231f20;"/><path d="M410.79,5.62h.96v.98h.02c.43-.77,1.13-1.13,2.02-1.13,1.63,0,2.14.94,2.14,2.27v4.08h-1.02v-4.2c0-.75-.48-1.25-1.26-1.25-1.23,0-1.83.83-1.83,1.94v3.5h-1.02v-6.2Z" style="fill:#231f20;"/><path d="M273.45,17.82c1.97,0,3.01,1.43,3.01,3.25s-1.04,3.24-3.01,3.24-3.01-1.43-3.01-3.24,1.04-3.25,3.01-3.25M273.45,23.41c1.07,0,1.93-.84,1.93-2.34s-.86-2.35-1.93-2.35-1.93.84-1.93,2.35.86,2.34,1.93,2.34" style="fill:#231f20;"/><path d="M278.08,18.87h-1.04v-.9h1.04v-.92c0-1.01.6-1.53,1.71-1.53.19,0,.47.04.66.1v.89c-.18-.06-.4-.08-.58-.08-.49,0-.78.16-.78.69v.86h1.2v.9h-1.2v5.3h-1.02v-5.3Z" style="fill:#231f20;"/><path d="M290.74,18.18c-.24-1.21-1.21-1.82-2.4-1.82-2.04,0-2.9,1.68-2.9,3.47,0,1.95.86,3.59,2.91,3.59,1.5,0,2.36-1.06,2.47-2.47h1.14c-.22,2.14-1.55,3.43-3.71,3.43-2.66,0-3.96-1.97-3.96-4.46s1.42-4.51,4.05-4.51c1.79,0,3.26.96,3.53,2.78h-1.14Z" style="fill:#231f20;"/><path d="M298.71,24.14c-.18.11-.41.17-.73.17-.53,0-.86-.29-.86-.96-.57.66-1.32.96-2.18.96-1.13,0-2.05-.5-2.05-1.74,0-1.4,1.04-1.7,2.1-1.91,1.13-.22,2.09-.14,2.09-.91,0-.89-.73-1.03-1.38-1.03-.86,0-1.5.26-1.55,1.18h-1.02c.06-1.54,1.25-2.08,2.63-2.08,1.12,0,2.33.25,2.33,1.7v3.19c0,.48,0,.69.32.69.08,0,.18-.01.31-.06v.79ZM297.05,20.97c-.4.29-1.16.3-1.85.42-.67.12-1.25.36-1.25,1.12,0,.67.58.91,1.2.91,1.34,0,1.9-.84,1.9-1.4v-1.04Z" style="fill:#231f20;"/><path d="M299.66,17.97h.96v.98h.02c.43-.77,1.13-1.13,2.02-1.13,1.63,0,2.13.94,2.13,2.27v4.08h-1.02v-4.2c0-.76-.48-1.25-1.26-1.25-1.24,0-1.83.83-1.83,1.94v3.5h-1.02v-6.2Z" style="fill:#231f20;"/><path d="M311.82,24.14c-.18.11-.41.17-.73.17-.53,0-.86-.29-.86-.96-.57.66-1.32.96-2.18.96-1.13,0-2.05-.5-2.05-1.74,0-1.4,1.04-1.7,2.1-1.91,1.13-.22,2.09-.14,2.09-.91,0-.89-.73-1.03-1.38-1.03-.86,0-1.5.26-1.55,1.18h-1.02c.06-1.54,1.25-2.08,2.63-2.08,1.12,0,2.33.25,2.33,1.7v3.19c0,.48,0,.69.32.69.08,0,.18-.01.31-.06v.79ZM310.17,20.97c-.4.29-1.16.3-1.85.42-.67.12-1.25.36-1.25,1.12,0,.67.58.91,1.2.91,1.34,0,1.9-.84,1.9-1.4v-1.04Z" style="fill:#231f20;"/><path d="M318.31,24.17h-1.02v-.84h-.02c-.34.68-1.13.98-1.98.98-1.91,0-2.85-1.51-2.85-3.26s.94-3.23,2.83-3.23c.64,0,1.55.24,2,.97h.02v-3.19h1.02v8.56ZM315.44,23.41c1.37,0,1.89-1.18,1.89-2.34,0-1.22-.55-2.35-1.96-2.35s-1.86,1.19-1.86,2.4.6,2.29,1.92,2.29" style="fill:#231f20;"/><path d="M325.38,24.14c-.18.11-.41.17-.73.17-.53,0-.86-.29-.86-.96-.56.66-1.32.96-2.18.96-1.13,0-2.05-.5-2.05-1.74,0-1.4,1.04-1.7,2.1-1.91,1.13-.22,2.09-.14,2.09-.91,0-.89-.73-1.03-1.38-1.03-.86,0-1.5.26-1.55,1.18h-1.02c.06-1.54,1.25-2.08,2.63-2.08,1.12,0,2.33.25,2.33,1.7v3.19c0,.48,0,.69.32.69.08,0,.18-.01.31-.06v.79ZM323.73,20.97c-.4.29-1.16.3-1.85.42-.67.12-1.25.36-1.25,1.12,0,.67.57.91,1.2.91,1.34,0,1.9-.84,1.9-1.4v-1.04Z" style="fill:#231f20;"/></g></svg>