<?xml version="1.0" encoding="UTF-8"?>
<svg id="Layer_1" xmlns="http://www.w3.org/2000/svg" version="1.1" viewBox="0 0 555.88 100">
  <!-- Generator: Adobe Illustrator 29.4.0, SVG Export Plug-In . SVG Version: 2.1.0 Build 152)  -->
  <defs>
    <style>
      .st0 {
        fill: #8b2534;
      }
    </style>
  </defs>
  <g>
    <path class="st0" d="M49.65,9.57c-22.5,0-40.74,17.9-40.74,39.99s18.24,39.99,40.74,39.99,40.74-17.9,40.74-39.99S72.15,9.57,49.65,9.57ZM49.6,88.22c-21.95,0-39.74-17.4-39.74-38.85S27.65,10.51,49.6,10.51s39.74,17.4,39.74,38.85-17.79,38.85-39.74,38.85Z"/>
    <path class="st0" d="M52.94,28.28s-1.72-2.52-3.97-.46c-2.25,2.06-.88,7.4,2.1,8.32,2.98.92,8.01.8,9.81-5.76,1.79-6.56-4.2-10.34-6.14-10.91-1.95-.57-9.5-2.82-14.61,5.42-5.11,8.24,1.68,16.71,2.21,17.55.53.84,4.88,5.46,4.88,5.46l-2.17,1.49s7.63,6.41,9.81,9.69c2.17,3.28,3.85,8.05,2.4,11.79-1.45,3.74-4.5,6.72-9.77,6.33-5.27-.38-6.18-5.38-6.07-6.49.11-1.11-.08-2.94,2.4-5.11,2.48-2.18,6.07.08,5.8,2.63-.27,2.56-1.45,2.86-2.71,2.1,0,0,.46,2.44,3.17,1.07,2.71-1.37,1.41-5.95.76-6.6-.65-.65-2.59-4.2-7.67-1.95-5.07,2.25-4.76,9.41-4.2,10.8.58,1.41,3.17,6.3,8.39,6.41,5.22.11,9.31-.38,13.09-7.78,3.78-7.4-3.93-19.04-7.78-21.22l2.06-1.53s-14.38-11.18-12.97-19.27c1.41-8.09,7.97-8.93,10.42-8.47,2.44.46,6.68,2.94,5.99,7.33-.69,4.39-3.85,5.57-5.95,4.73-2.1-.84-2.79-3.7-1.68-5.11,1.11-1.41,2.4-.46,2.4-.46Z"/>
    <path class="st0" d="M68.66,40.3l3.32-2.21s-10.61-10.72-27.51-8.09c-16.9,2.63-22.24,14.42-21.98,19.54.27,5.11,2.44,10.07,9.73,14.77,7.29,4.69,16.6,5.91,24.88,4.2s15.07-7.56,15.87-8.43l-3.74-2.29s-5.65,7.44-15.95,8.55c-10.3,1.11-19.19-3.36-23.16-9.01-3.97-5.65-2.37-15.03,2.86-18.96,5.23-3.93,11.22-6.56,19.31-5.91,8.09.65,15.53,6.22,16.37,7.86Z"/>
    <g>
      <path class="st0" d="M31.36,8.25s-3.86,1.14-6.2,3.2c-2.34,2.07-2.44,4.98-1.81,6.54.63,1.56,2.12,3.14,4.54,3.51,2.42.37,5.2-1.53,5.2-1.53,0,0,2.68-1.54,2.91-1.54s-1.97-2.46-5-1.42c-3.03,1.03-2.68,1.83-3.54,2.19-.52.22-1.98.58-2.59-.12-.85-.97-1.02-2.69.76-3.32,1.78-.63,5.98-3.53,5.73-7.51Z"/>
      <path class="st0" d="M32.55,12.18c0,.43-.35.78-.78.78s-.78-.35-.78-.78.35-.78.78-.78.78.35.78.78Z"/>
      <path class="st0" d="M34.28,15.56c0,.43-.35.78-.78.78s-.78-.35-.78-.78.35-.78.78-.78.78.35.78.78Z"/>
    </g>
    <g>
      <path class="st0" d="M20.46,15.06s-3.42,2.12-5.13,4.74c-1.7,2.62-1.03,5.45,0,6.79,1.02,1.34,2.88,2.46,5.31,2.17,2.44-.29,4.61-2.86,4.61-2.86,0,0,2.17-2.2,2.4-2.26.23-.06-2.55-1.85-5.2-.04-2.65,1.8-2.1,2.48-2.83,3.05-.44.35-1.76,1.08-2.53.57-1.07-.71-1.7-2.33-.15-3.4,1.55-1.08,4.83-4.99,3.52-8.76Z"/>
      <path class="st0" d="M22.65,18.52c.11.42-.13.85-.54.96-.42.11-.85-.13-.96-.54-.11-.42.13-.85.54-.96.42-.11.84.13.96.54Z"/>
      <path class="st0" d="M25.22,21.32c.11.42-.13.85-.54.96-.42.11-.85-.13-.96-.54-.11-.42.13-.85.54-.96.42-.11.85.13.96.54Z"/>
    </g>
    <g>
      <path class="st0" d="M11.58,24.93s-2.57,3.1-3.36,6.12c-.79,3.02.76,5.5,2.15,6.44,1.39.94,3.51,1.42,5.73.38,2.22-1.04,3.47-4.17,3.47-4.17,0,0,1.36-2.77,1.56-2.91.2-.13-3-.94-4.94,1.61-1.94,2.55-1.2,3.02-1.72,3.79-.31.47-1.32,1.58-2.22,1.35-1.24-.33-2.35-1.67-1.22-3.18,1.13-1.51,3-6.26.56-9.43Z"/>
      <path class="st0" d="M14.75,27.52c.24.36.15.84-.21,1.08-.36.24-.84.15-1.08-.21-.24-.36-.15-.84.21-1.08.36-.24.84-.15,1.08.21Z"/>
      <path class="st0" d="M18.07,29.36c.24.36.15.84-.21,1.08-.36.24-.84.15-1.08-.21-.24-.36-.15-.84.21-1.08.36-.24.84-.15,1.08.21Z"/>
    </g>
    <g>
      <path class="st0" d="M6.2,36.45s-1.67,3.66-1.64,6.78c.03,3.12,2.17,5.11,3.75,5.66,1.59.55,3.76.45,5.62-1.13,1.87-1.59,2.26-4.93,2.26-4.93,0,0,.59-3.03.74-3.21.16-.18-3.14-.12-4.35,2.84-1.21,2.97-.37,3.23-.67,4.11-.18.53-.86,1.88-1.79,1.88-1.29,0-2.7-1-2.01-2.75.69-1.75,1.25-6.83-1.92-9.25Z"/>
      <path class="st0" d="M9.94,38.13c.33.28.36.78.08,1.1-.28.33-.78.36-1.1.08-.33-.28-.36-.78-.08-1.1.28-.33.77-.36,1.1-.08Z"/>
      <path class="st0" d="M13.63,39.03c.33.28.36.78.08,1.1-.28.33-.77.36-1.1.08-.33-.28-.36-.78-.08-1.1.28-.33.77-.36,1.1-.08Z"/>
    </g>
    <g>
      <path class="st0" d="M4.18,49.03s-.67,3.97.16,6.98c.83,3.01,3.41,4.38,5.09,4.5,1.68.12,3.75-.53,5.14-2.55,1.4-2.02.91-5.35.91-5.35,0,0-.21-3.08-.11-3.3.1-.21-3.07.69-3.47,3.87-.4,3.18.47,3.21.42,4.14-.03.56-.35,2.03-1.25,2.28-1.24.34-2.87-.27-2.65-2.14.22-1.87-.55-6.92-4.24-8.44Z"/>
      <path class="st0" d="M8.23,49.68c.39.19.55.66.36,1.04-.19.39-.66.55-1.04.36-.39-.19-.55-.66-.36-1.04.19-.39.66-.55,1.04-.36Z"/>
      <path class="st0" d="M12.02,49.6c.39.19.55.66.36,1.04-.19.39-.66.55-1.04.36-.39-.19-.55-.66-.36-1.04.19-.39.66-.55,1.04-.36Z"/>
    </g>
    <g>
      <path class="st0" d="M5.92,62.01s.62,3.98,2.36,6.57c1.74,2.59,4.62,3.07,6.25,2.65,1.63-.42,3.38-1.69,4.07-4.04.69-2.35-.83-5.36-.83-5.36,0,0-1.18-2.86-1.15-3.09.03-.24-2.69,1.63-2.06,4.77.63,3.14,1.47,2.9,1.71,3.8.15.54.31,2.04-.46,2.56-1.07.71-2.8.66-3.19-1.19-.39-1.85-2.71-6.39-6.69-6.66Z"/>
      <path class="st0" d="M9.96,61.34c.43.06.73.45.67.88-.06.43-.45.73-.88.67-.43-.06-.73-.45-.67-.88.06-.43.45-.73.88-.67Z"/>
      <path class="st0" d="M13.54,60.07c.43.06.73.45.67.88-.06.43-.45.73-.88.67-.43-.06-.73-.45-.67-.88.06-.43.45-.73.88-.67Z"/>
    </g>
    <g>
      <path class="st0" d="M11.13,73.72s1.7,3.65,4.09,5.66c2.39,2.01,5.29,1.67,6.74.82,1.45-.85,2.79-2.56,2.79-5.01,0-2.45-2.28-4.92-2.28-4.92,0,0-1.92-2.42-1.96-2.65s-2.14,2.31-.67,5.16c1.47,2.85,2.21,2.38,2.69,3.18.29.48.86,1.87.27,2.58-.83.98-2.51,1.41-3.4-.26-.88-1.67-4.37-5.39-8.28-4.55Z"/>
      <path class="st0" d="M14.84,71.96c.43-.06.82.23.89.66.06.43-.23.82-.66.89-.43.06-.82-.23-.89-.66-.06-.43.23-.82.66-.89Z"/>
      <path class="st0" d="M17.92,69.75c.43-.06.82.23.89.66.06.43-.23.82-.66.89-.43.06-.82-.23-.89-.66-.06-.43.23-.82.66-.89Z"/>
    </g>
    <g>
      <path class="st0" d="M19.59,83.54s2.63,3.05,5.47,4.33c2.85,1.28,5.54.17,6.71-1.04,1.16-1.21,1.98-3.22,1.32-5.58-.66-2.36-3.53-4.11-3.53-4.11,0,0-2.51-1.8-2.61-2.02-.1-.22-1.43,2.8.76,5.14,2.19,2.34,2.77,1.69,3.45,2.32.41.38,1.34,1.57.96,2.41-.53,1.17-2.04,2.04-3.34.67-1.3-1.36-5.68-4-9.2-2.13Z"/>
      <path class="st0" d="M22.67,80.84c.39-.18.85,0,1.03.39.18.39,0,.85-.39,1.03-.39.18-.85,0-1.03-.39-.18-.39,0-.85.39-1.03Z"/>
      <path class="st0" d="M25.04,77.88c.39-.18.85,0,1.03.39.18.39,0,.85-.39,1.03-.39.18-.85,0-1.03-.39-.18-.39,0-.85.39-1.03Z"/>
    </g>
    <g>
      <path class="st0" d="M30.44,90.51s3.41,2.14,6.51,2.52c3.1.38,5.35-1.48,6.1-2.98.75-1.5.94-3.66-.39-5.73-1.33-2.06-4.59-2.88-4.59-2.88,0,0-2.93-.98-3.09-1.16-.16-.18-.53,3.1,2.25,4.68,2.79,1.58,3.15.79,3.99,1.2.51.25,1.75,1.1,1.63,2.02-.16,1.27-1.34,2.55-2.99,1.63-1.65-.92-6.61-2.14-9.42.7Z"/>
      <path class="st0" d="M32.59,87.02c.32-.29.82-.26,1.1.07.29.32.26.82-.07,1.1-.32.29-.82.26-1.1-.07-.29-.32-.26-.82.07-1.1Z"/>
      <path class="st0" d="M33.97,83.48c.32-.29.81-.26,1.1.07.29.32.26.82-.07,1.1-.32.29-.82.26-1.1-.07-.29-.32-.26-.82.07-1.1Z"/>
    </g>
    <g>
      <path class="st0" d="M42.98,94.26s3.87,1.1,6.95.61c3.08-.5,4.72-2.91,5.03-4.56.3-1.65-.12-3.78-1.97-5.39-1.85-1.61-5.21-1.49-5.21-1.49,0,0-3.09-.13-3.29-.25-.2-.13.35,3.13,3.47,3.87,3.12.75,3.25-.12,4.16.04.55.09,1.98.57,2.13,1.49.2,1.27-.58,2.82-2.42,2.4-1.84-.42-6.94-.21-8.85,3.29Z"/>
      <path class="st0" d="M44.07,90.31c.23-.36.71-.47,1.08-.24.36.23.47.71.24,1.08-.23.36-.71.47-1.08.24-.36-.23-.47-.71-.24-1.08Z"/>
      <path class="st0" d="M44.41,86.53c.23-.36.71-.47,1.08-.24.36.23.47.71.24,1.08-.23.36-.71.47-1.08.24-.36-.23-.47-.71-.24-1.08Z"/>
    </g>
    <g>
      <path class="st0" d="M55.91,94.3s4.03-.03,6.84-1.37c2.82-1.34,3.72-4.12,3.54-5.79-.17-1.67-1.18-3.6-3.4-4.62-2.23-1.02-5.42.04-5.42.04,0,0-3,.75-3.23.68-.23-.06,1.21,2.9,4.41,2.74,3.2-.16,3.08-1.02,4.01-1.13.56-.06,2.06,0,2.46.83.55,1.16.24,2.87-1.65,2.98-1.88.11-6.72,1.74-7.57,5.64Z"/>
      <path class="st0" d="M55.85,90.19c.12-.42.55-.65.96-.54.41.12.65.55.54.96-.12.41-.55.65-.96.54-.41-.12-.65-.55-.54-.96Z"/>
      <path class="st0" d="M55.11,86.47c.12-.41.55-.65.96-.53.41.12.65.55.54.96-.12.41-.55.65-.96.54-.41-.12-.65-.55-.53-.96Z"/>
    </g>
    <g>
      <path class="st0" d="M68.31,90.85s3.86-1.15,6.19-3.23c2.33-2.08,2.42-4.99,1.78-6.55-.63-1.56-2.13-3.13-4.56-3.49-2.43-.36-5.2,1.55-5.2,1.55,0,0-2.67,1.55-2.91,1.56-.24,0,1.98,2.45,5.01,1.4,3.03-1.05,2.67-1.84,3.53-2.2.52-.22,1.98-.59,2.59.11.85.96,1.03,2.69-.75,3.32-1.78.64-5.97,3.55-5.69,7.53Z"/>
      <path class="st0" d="M67.1,86.93c0-.43.35-.78.78-.78.43,0,.78.35.78.78,0,.43-.35.78-.78.78-.43,0-.78-.35-.78-.78Z"/>
      <path class="st0" d="M65.36,83.56c0-.43.35-.78.78-.78.43,0,.78.35.78.78,0,.43-.35.78-.78.78-.43,0-.78-.35-.78-.78Z"/>
    </g>
    <g>
      <path class="st0" d="M79.34,84s3.4-2.16,5.07-4.8c1.67-2.63.96-5.46-.07-6.79-1.04-1.32-2.9-2.42-5.34-2.11-2.43.31-4.58,2.91-4.58,2.91,0,0-2.14,2.22-2.37,2.29-.23.07,2.57,1.82,5.2-.02,2.63-1.83,2.07-2.5,2.79-3.09.44-.35,1.75-1.1,2.53-.6,1.08.69,1.72,2.31.19,3.4-1.54,1.1-4.77,5.05-3.42,8.8Z"/>
      <path class="st0" d="M77.11,80.56c-.12-.41.12-.85.53-.97.41-.12.85.12.97.53.12.41-.12.85-.53.97-.41.12-.85-.12-.97-.53Z"/>
      <path class="st0" d="M74.51,77.8c-.12-.41.12-.85.53-.97s.85.12.97.53c.12.41-.12.85-.53.97-.41.12-.85-.12-.97-.53Z"/>
    </g>
    <g>
      <path class="st0" d="M88.11,74.25s2.62-3.06,3.44-6.07c.83-3.01-.68-5.51-2.06-6.47-1.38-.96-3.49-1.47-5.72-.46-2.23,1.01-3.52,4.12-3.52,4.12,0,0-1.4,2.76-1.6,2.88-.2.13,2.99.98,4.97-1.54,1.98-2.52,1.25-3,1.77-3.77.32-.46,1.35-1.57,2.24-1.32,1.24.35,2.32,1.7,1.18,3.2-1.15,1.5-3.08,6.22-.69,9.42Z"/>
      <path class="st0" d="M84.97,71.62c-.24-.36-.13-.84.23-1.08.36-.24.84-.13,1.08.23.24.36.13.84-.23,1.08-.36.24-.84.13-1.08-.23Z"/>
      <path class="st0" d="M81.68,69.73c-.24-.36-.13-.84.23-1.08.36-.24.84-.13,1.08.23.24.36.13.84-.23,1.08-.36.24-.84.13-1.08-.23Z"/>
    </g>
    <g>
      <path class="st0" d="M93.45,62.65s1.7-3.65,1.7-6.77c0-3.12-2.12-5.13-3.7-5.69-1.58-.56-3.75-.49-5.63,1.08-1.88,1.57-2.3,4.91-2.3,4.91,0,0-.61,3.03-.77,3.21-.16.18,3.14.15,4.38-2.81,1.23-2.96.4-3.22.7-4.1.18-.53.88-1.87,1.81-1.86,1.28,0,2.69,1.02,1.98,2.77-.71,1.75-1.31,6.82,1.84,9.26Z"/>
      <path class="st0" d="M89.72,60.95c-.32-.29-.35-.78-.07-1.1.29-.32.78-.35,1.1-.07.32.29.35.78.07,1.1-.29.32-.78.35-1.1.07Z"/>
      <path class="st0" d="M86.05,60.01c-.32-.29-.35-.78-.07-1.1.29-.32.78-.35,1.1-.07.32.29.35.78.07,1.1-.29.32-.78.35-1.1.07Z"/>
    </g>
    <g>
      <path class="st0" d="M95.56,49.66s.42-4.01-.61-6.95c-1.02-2.95-3.68-4.15-5.36-4.16-1.68-.01-3.7.77-4.97,2.87-1.27,2.1-.57,5.39-.57,5.39,0,0,.41,3.06.32,3.28-.09.22,3.02-.88,3.22-4.08.2-3.2-.67-3.18-.68-4.11,0-.56.22-2.05,1.1-2.35,1.22-.42,2.88.08,2.78,1.97-.1,1.88.99,6.87,4.77,8.15Z"/>
      <path class="st0" d="M91.48,49.26c-.4-.16-.59-.62-.43-1.02.16-.4.62-.59,1.02-.43.4.16.59.62.42,1.02-.16.4-.62.59-1.02.43Z"/>
      <path class="st0" d="M87.7,49.58c-.4-.16-.59-.62-.42-1.02.16-.4.62-.59,1.02-.43.4.16.59.62.43,1.02s-.62.59-1.02.42Z"/>
    </g>
    <g>
      <path class="st0" d="M93.72,36.96s-.68-3.97-2.46-6.53c-1.78-2.56-4.66-3-6.29-2.56-1.62.44-3.36,1.74-4.01,4.1-.65,2.36.91,5.35.91,5.35,0,0,1.22,2.84,1.19,3.07-.03.24,2.67-1.67,2-4.8-.67-3.13-1.51-2.88-1.76-3.77-.15-.54-.34-2.04.42-2.56,1.06-.73,2.79-.7,3.21,1.14.42,1.84,2.81,6.35,6.79,6.56Z"/>
      <path class="st0" d="M89.68,37.68c-.43-.05-.74-.44-.68-.87.05-.43.44-.73.87-.68.43.05.73.44.68.87-.05.43-.44.73-.87.68Z"/>
      <path class="st0" d="M86.13,39.01c-.43-.05-.73-.44-.68-.87.05-.43.44-.73.87-.68.43.05.73.44.68.87-.05.43-.44.73-.87.68Z"/>
    </g>
    <g>
      <path class="st0" d="M88.45,25.38s-1.71-3.65-4.11-5.64c-2.4-2-5.3-1.65-6.74-.8-1.44.86-2.78,2.57-2.77,5.02,0,2.45,2.3,4.91,2.3,4.91,0,0,1.93,2.41,1.97,2.65.04.23,2.13-2.32.65-5.16-1.48-2.84-2.22-2.37-2.7-3.17-.29-.48-.87-1.87-.28-2.58.83-.98,2.51-1.42,3.4.25.89,1.66,4.4,5.37,8.29,4.52Z"/>
      <path class="st0" d="M84.75,27.15c-.43.07-.83-.23-.89-.65-.07-.43.23-.83.65-.89.43-.07.82.23.89.65.07.43-.23.82-.65.89Z"/>
      <path class="st0" d="M81.67,29.38c-.43.07-.82-.23-.89-.65-.07-.43.23-.82.65-.89.43-.07.82.23.89.65.07.43-.23.82-.65.89Z"/>
    </g>
    <g>
      <path class="st0" d="M80.27,15.82s-2.56-3.11-5.37-4.46c-2.82-1.34-5.54-.3-6.73.89-1.19,1.19-2.06,3.18-1.45,5.55.6,2.38,3.44,4.19,3.44,4.19,0,0,2.47,1.86,2.56,2.08.09.22,1.49-2.77-.64-5.16-2.14-2.39-2.74-1.75-3.4-2.4-.4-.39-1.3-1.6-.9-2.44.56-1.16,2.08-1.99,3.35-.6,1.27,1.39,5.58,4.13,9.15,2.34Z"/>
      <path class="st0" d="M77.12,18.44c-.4.17-.86-.02-1.02-.41-.17-.4.02-.86.41-1.02.4-.17.86.02,1.02.41.17.4-.02.85-.41,1.02Z"/>
      <path class="st0" d="M74.69,21.36c-.4.17-.85-.02-1.02-.41-.17-.4.02-.85.41-1.02.4-.17.85.02,1.02.41.17.4-.02.85-.41,1.02Z"/>
    </g>
    <g>
      <path class="st0" d="M69.11,8.45s-3.46-2.06-6.57-2.37c-3.11-.31-5.31,1.6-6.03,3.12-.72,1.52-.86,3.69.52,5.71,1.38,2.03,4.66,2.78,4.66,2.78,0,0,2.95.91,3.11,1.09.16.17.46-3.11-2.36-4.63-2.82-1.52-3.17-.72-4.01-1.1-.51-.23-1.77-1.06-1.68-1.98.13-1.28,1.28-2.58,2.95-1.7,1.67.88,6.65,1.98,9.4-.91Z"/>
      <path class="st0" d="M67.04,11.99c-.32.29-.81.28-1.1-.04-.29-.32-.28-.81.04-1.1.32-.29.81-.27,1.1.04.29.32.28.81-.04,1.1Z"/>
      <path class="st0" d="M65.74,15.56c-.32.29-.81.28-1.1-.04-.29-.32-.28-.81.04-1.1.32-.29.81-.28,1.1.04.29.32.28.81-.04,1.1Z"/>
    </g>
    <g>
      <path class="st0" d="M56.82,4.88s-3.87-1.13-6.95-.65c-3.08.48-4.74,2.88-5.06,4.53-.31,1.65.09,3.78,1.93,5.4,1.84,1.62,5.2,1.53,5.2,1.53,0,0,3.09.15,3.29.28.2.13-.33-3.13-3.44-3.9-3.11-.77-3.25.09-4.16-.07-.55-.1-1.98-.59-2.12-1.5-.19-1.27.6-2.82,2.44-2.38,1.84.43,6.94.26,8.88-3.23Z"/>
      <path class="st0" d="M55.7,8.83c-.23.36-.72.47-1.08.24-.36-.23-.47-.72-.24-1.08.23-.36.72-.47,1.08-.23.36.23.47.72.24,1.08Z"/>
      <path class="st0" d="M55.33,12.6c-.23.36-.72.47-1.08.24-.36-.23-.47-.72-.23-1.08.23-.36.71-.47,1.08-.24.36.23.47.72.24,1.08Z"/>
    </g>
    <g>
      <path class="st0" d="M43.62,4.67s-4.03.11-6.82,1.51c-2.79,1.4-3.63,4.19-3.42,5.86.21,1.67,1.25,3.57,3.49,4.55,2.25.98,5.42-.15,5.42-.15,0,0,2.98-.81,3.21-.75.23.06-1.27-2.88-4.47-2.65-3.2.22-3.06,1.09-3.98,1.21-.56.08-2.06.05-2.48-.78-.57-1.15-.29-2.87,1.59-3.02,1.88-.15,6.68-1.88,7.46-5.8Z"/>
      <path class="st0" d="M43.76,8.77c-.11.42-.54.67-.95.56-.42-.11-.67-.54-.56-.95.11-.42.54-.67.95-.55.42.11.67.54.56.95Z"/>
      <path class="st0" d="M44.57,12.47c-.11.42-.54.67-.95.55-.42-.11-.66-.54-.55-.95.11-.42.54-.67.95-.55.42.11.67.54.56.95Z"/>
    </g>
  </g>
  <g>
    <path d="M337.75,39.03c.38.28.79.54,1.25.76.46.23.92.41,1.4.57.48.15.96.27,1.44.35.48.08.94.12,1.38.12,1.71,0,2.99-.33,3.84-.99s1.27-1.61,1.27-2.85c0-.6-.1-1.12-.3-1.56s-.51-.86-.93-1.25c-.42-.39-.95-.77-1.59-1.16-.64-.38-1.39-.81-2.26-1.3-.96-.52-1.79-1.02-2.48-1.49s-1.25-.94-1.68-1.43c-.44-.49-.75-1.01-.96-1.58s-.31-1.21-.31-1.93c0-.91.19-1.73.58-2.45s.91-1.34,1.57-1.85,1.43-.9,2.32-1.17c.88-.27,1.83-.41,2.84-.41,1.77,0,3.25.25,4.45.74v2.31c-1.33-.76-2.89-1.15-4.68-1.15-.67,0-1.3.08-1.89.24s-1.11.4-1.56.72c-.45.31-.8.7-1.05,1.17s-.38,1.01-.38,1.63.09,1.09.26,1.52.45.83.83,1.2c.38.38.89.75,1.51,1.12.62.37,1.39.8,2.29,1.28.94.5,1.77.99,2.47,1.47.7.48,1.29.97,1.75,1.49.47.52.81,1.07,1.04,1.65s.35,1.23.35,1.94c0,.99-.18,1.85-.55,2.6-.37.75-.88,1.37-1.54,1.86-.66.49-1.45.86-2.36,1.12s-1.91.38-3,.38c-.36,0-.78-.03-1.27-.09-.49-.06-.99-.14-1.49-.25-.5-.11-.98-.24-1.44-.39-.46-.15-.83-.32-1.11-.5v-2.45Z"/>
    <path d="M365.54,42.33v-2.74h-.06c-1.09,2.08-2.78,3.11-5.08,3.11-3.83,0-5.74-2.34-5.74-7.01v-9.46h2.01v9.09c0,1.93.34,3.35,1.03,4.28.69.92,1.74,1.38,3.15,1.38.69,0,1.32-.13,1.89-.4.57-.27,1.06-.64,1.48-1.13s.74-1.07.97-1.75.35-1.44.35-2.26v-9.2h2.01v16.1h-2.01Z"/>
    <path d="M374.91,39.73v10h-2.01v-23.5h2.01v3.08h.06c.6-1.12,1.4-1.98,2.4-2.57,1-.59,2.13-.89,3.39-.89,1.03,0,1.95.19,2.76.56.81.37,1.5.9,2.06,1.58.56.68.99,1.51,1.29,2.48s.45,2.07.45,3.29c0,1.33-.17,2.54-.5,3.64-.34,1.1-.82,2.04-1.45,2.82s-1.39,1.4-2.29,1.83c-.9.43-1.91.65-3.03.65-2.26,0-3.96-.99-5.08-2.97h-.06ZM374.91,35.63c0,.73.12,1.42.37,2.07.25.64.59,1.21,1.03,1.7s.97.87,1.6,1.16c.62.28,1.31.42,2.07.42.81,0,1.54-.17,2.18-.51.65-.34,1.2-.83,1.66-1.45.46-.63.81-1.39,1.05-2.28s.37-1.89.37-2.99c0-.94-.12-1.79-.35-2.55s-.56-1.41-.98-1.94c-.42-.53-.94-.94-1.54-1.23-.6-.28-1.28-.42-2.02-.42-.84,0-1.59.15-2.26.46s-1.24.73-1.71,1.27c-.47.53-.83,1.16-1.08,1.88-.25.72-.38,1.48-.38,2.29v2.14Z"/>
    <path d="M399.52,28.29c-.47-.35-1.08-.52-1.82-.52-.53,0-1.01.1-1.42.31-.41.2-.77.48-1.08.83-.31.35-.57.75-.79,1.2-.21.46-.39.93-.52,1.42-.13.49-.23.99-.28,1.49s-.09.98-.09,1.43v7.88h-2v-16.1h2v3.44h.06c.19-.59.43-1.11.71-1.58.29-.47.62-.86,1-1.18.38-.32.79-.56,1.23-.73s.91-.25,1.41-.25c.32,0,.62.02.87.06s.49.1.7.19v2.11Z"/>
    <path d="M403.14,34.64c0,.99.14,1.87.39,2.66.25.79.61,1.45,1.08,2s1.04.96,1.72,1.25c.68.29,1.44.43,2.29.43,1.81,0,3.53-.63,5.14-1.9v1.98c-1.54,1.1-3.41,1.65-5.6,1.65-1.08,0-2.06-.19-2.94-.57-.88-.38-1.63-.92-2.25-1.64-.62-.72-1.1-1.6-1.43-2.65s-.5-2.24-.5-3.58c0-1.21.18-2.32.55-3.35.37-1.03.88-1.92,1.53-2.66.65-.75,1.42-1.34,2.31-1.76.89-.42,1.87-.64,2.92-.64s1.95.18,2.75.54c.8.36,1.46.88,2,1.55.54.67.95,1.49,1.23,2.45s.42,2.04.42,3.24v1.01h-11.63ZM412.7,32.88c-.03-1.68-.43-2.98-1.2-3.9-.76-.92-1.83-1.38-3.19-1.38-.68,0-1.31.12-1.89.36-.58.24-1.09.59-1.53,1.05-.44.46-.8,1.01-1.09,1.67-.29.66-.49,1.39-.61,2.21h9.51Z"/>
    <path d="M439.11,42.33v-9.46c0-.96-.07-1.78-.22-2.44-.15-.67-.37-1.21-.68-1.63-.31-.42-.7-.72-1.18-.91-.48-.19-1.05-.28-1.71-.28-.59,0-1.14.14-1.67.42-.52.28-.98.66-1.38,1.15-.39.49-.7,1.06-.93,1.72s-.34,1.37-.34,2.14v9.31h-2.01v-9.67c0-3.37-1.29-5.06-3.88-5.06-.6,0-1.15.13-1.67.4-.51.27-.96.64-1.34,1.12-.38.48-.68,1.06-.9,1.74-.21.68-.32,1.42-.32,2.24v9.23h-2.01v-16.1h2.01v2.61h.06c1.13-1.99,2.78-2.99,4.95-2.99.57,0,1.1.09,1.6.26s.95.41,1.35.72c.4.31.74.68,1.03,1.11s.51.9.65,1.41c.57-1.14,1.3-2.01,2.21-2.61.91-.6,1.93-.9,3.07-.9,3.53,0,5.3,2.18,5.3,6.54v9.94h-2.01Z"/>
    <path d="M447.08,34.64c0,.99.14,1.87.39,2.66.25.79.61,1.45,1.08,2s1.04.96,1.72,1.25c.68.29,1.44.43,2.29.43,1.81,0,3.53-.63,5.14-1.9v1.98c-1.54,1.1-3.41,1.65-5.6,1.65-1.08,0-2.06-.19-2.94-.57-.88-.38-1.63-.92-2.25-1.64-.62-.72-1.1-1.6-1.43-2.65s-.5-2.24-.5-3.58c0-1.21.18-2.32.55-3.35.37-1.03.88-1.92,1.53-2.66.65-.75,1.42-1.34,2.31-1.76.89-.42,1.87-.64,2.92-.64s1.95.18,2.75.54c.8.36,1.46.88,2,1.55.54.67.95,1.49,1.23,2.45s.42,2.04.42,3.24v1.01h-11.63ZM456.64,32.88c-.03-1.68-.43-2.98-1.2-3.9-.76-.92-1.83-1.38-3.19-1.38-.68,0-1.31.12-1.89.36-.58.24-1.09.59-1.53,1.05-.44.46-.8,1.01-1.09,1.67-.29.66-.49,1.39-.61,2.21h9.51Z"/>
    <path d="M487.28,41.49c-1.74.82-3.72,1.23-5.96,1.23-1.59,0-3.04-.28-4.34-.84-1.3-.56-2.41-1.34-3.33-2.33s-1.62-2.18-2.12-3.55c-.5-1.37-.75-2.87-.75-4.5,0-1.71.26-3.3.79-4.77.53-1.47,1.29-2.75,2.27-3.84.98-1.08,2.18-1.94,3.58-2.55,1.4-.62,2.97-.93,4.71-.93,1.92,0,3.63.29,5.14.88v2.23c-1.61-.81-3.34-1.21-5.17-1.21-1.46,0-2.75.25-3.88.75s-2.09,1.2-2.86,2.1-1.37,1.95-1.78,3.18c-.41,1.22-.61,2.55-.61,4,0,1.3.18,2.52.55,3.67.37,1.15.91,2.15,1.63,3.01s1.61,1.54,2.68,2.04c1.07.5,2.31.75,3.73.75,2.17,0,4.08-.46,5.72-1.37v2.04Z"/>
    <path d="M498.51,42.7c-1.2,0-2.27-.2-3.21-.6-.95-.4-1.76-.96-2.43-1.69-.67-.73-1.18-1.6-1.54-2.62-.36-1.02-.53-2.14-.53-3.38,0-1.34.19-2.54.57-3.6.38-1.06.91-1.96,1.61-2.7.7-.74,1.54-1.3,2.52-1.69s2.08-.58,3.3-.58,2.21.19,3.14.57c.93.38,1.72.94,2.37,1.66.65.72,1.15,1.6,1.49,2.64.35,1.04.52,2.22.52,3.54s-.18,2.4-.54,3.43c-.36,1.03-.88,1.92-1.55,2.66s-1.49,1.32-2.45,1.73c-.96.41-2.05.61-3.27.61ZM498.67,27.6c-.88,0-1.68.15-2.39.46-.71.3-1.32.75-1.83,1.33-.51.58-.9,1.29-1.17,2.14s-.41,1.8-.41,2.87c0,1.01.14,1.91.41,2.72s.66,1.5,1.16,2.07c.5.58,1.1,1.02,1.82,1.33.71.31,1.51.46,2.39.46s1.7-.15,2.39-.45c.69-.3,1.28-.73,1.76-1.3.48-.57.85-1.27,1.09-2.1.25-.83.37-1.77.37-2.83,0-2.17-.48-3.83-1.45-4.98-.96-1.15-2.34-1.72-4.13-1.72Z"/>
    <path d="M521.07,42.33v-2.74h-.06c-1.09,2.08-2.78,3.11-5.08,3.11-3.83,0-5.74-2.34-5.74-7.01v-9.46h2.01v9.09c0,1.93.34,3.35,1.03,4.28.69.92,1.74,1.38,3.15,1.38.69,0,1.32-.13,1.89-.4.57-.27,1.06-.64,1.48-1.13s.74-1.07.97-1.75.35-1.44.35-2.26v-9.2h2.01v16.1h-2.01Z"/>
    <path d="M536.42,28.29c-.47-.35-1.08-.52-1.82-.52-.53,0-1.01.1-1.42.31-.41.2-.77.48-1.08.83-.31.35-.57.75-.79,1.2-.21.46-.39.93-.52,1.42-.13.49-.23.99-.28,1.49s-.09.98-.09,1.43v7.88h-2v-16.1h2v3.44h.06c.19-.59.43-1.11.71-1.58.29-.47.62-.86,1-1.18.38-.32.79-.56,1.23-.73s.91-.25,1.41-.25c.32,0,.62.02.87.06s.49.1.7.19v2.11Z"/>
    <path d="M547.35,42.14c-.69.35-1.45.52-2.26.52-2.6,0-3.9-1.5-3.9-4.5v-10.17h-2.83v-1.76h2.83v-4.06l2.01-.66v4.72h4.15v1.76h-4.15v9.86c0,1.09.18,1.88.53,2.36s.96.72,1.81.72c.63,0,1.23-.19,1.81-.57v1.78Z"/>
    <path d="M344.88,81.34c-1.2,0-2.27-.2-3.21-.6-.95-.4-1.76-.96-2.43-1.69-.67-.73-1.18-1.6-1.54-2.62s-.53-2.14-.53-3.38c0-1.34.19-2.54.57-3.6.38-1.06.91-1.96,1.61-2.7.7-.74,1.54-1.3,2.52-1.69s2.08-.58,3.3-.58,2.21.19,3.14.57c.93.38,1.72.94,2.37,1.66.65.72,1.15,1.6,1.49,2.64.35,1.04.52,2.22.52,3.54s-.18,2.4-.54,3.43c-.36,1.03-.88,1.92-1.55,2.67s-1.49,1.32-2.45,1.73c-.96.41-2.05.61-3.27.61ZM345.04,66.23c-.88,0-1.68.15-2.39.46-.71.3-1.32.75-1.83,1.33-.51.58-.9,1.29-1.17,2.14-.27.84-.41,1.8-.41,2.87,0,1.01.14,1.91.41,2.72s.66,1.5,1.16,2.08c.5.58,1.1,1.02,1.82,1.33.71.31,1.51.46,2.39.46s1.7-.15,2.39-.45,1.28-.73,1.76-1.3c.48-.57.85-1.27,1.09-2.1.25-.83.37-1.77.37-2.83,0-2.17-.48-3.83-1.45-4.97s-2.34-1.72-4.13-1.72Z"/>
    <path d="M363.83,59.03c-.45-.29-1.03-.44-1.75-.44-1.89,0-2.83,1.23-2.83,3.69v2.58h4.01v1.76h-4.01v14.34h-2.01v-14.34h-2.81v-1.76h2.81v-2.7c0-.81.1-1.54.31-2.19.2-.66.5-1.22.9-1.68.4-.47.9-.83,1.5-1.08.6-.25,1.3-.38,2.08-.38s1.35.1,1.79.3v1.9Z"/>
    <path d="M390.43,80.13c-1.74.82-3.72,1.23-5.96,1.23-1.59,0-3.04-.28-4.34-.84-1.3-.56-2.41-1.34-3.33-2.33-.92-1-1.62-2.18-2.12-3.55-.5-1.37-.75-2.87-.75-4.5,0-1.71.26-3.3.79-4.77.53-1.47,1.29-2.75,2.27-3.84.98-1.08,2.18-1.94,3.58-2.55,1.4-.62,2.97-.93,4.71-.93,1.92,0,3.63.29,5.14.88v2.23c-1.61-.81-3.34-1.21-5.17-1.21-1.46,0-2.75.25-3.88.75s-2.09,1.2-2.86,2.1-1.37,1.96-1.78,3.18c-.41,1.22-.61,2.55-.61,4,0,1.3.18,2.52.55,3.67.37,1.15.91,2.15,1.63,3.01.72.86,1.61,1.54,2.68,2.04,1.07.5,2.31.75,3.73.75,2.17,0,4.08-.46,5.72-1.37v2.04Z"/>
    <path d="M404.35,80.96v-2.86h-.06c-.52,1.03-1.24,1.82-2.15,2.39-.91.57-1.93.85-3.07.85-.78,0-1.48-.11-2.1-.33-.62-.22-1.15-.53-1.59-.93-.44-.4-.77-.89-1.01-1.45-.24-.57-.35-1.19-.35-1.87,0-1.46.45-2.62,1.35-3.48.9-.87,2.26-1.43,4.09-1.69l4.89-.71c0-3.09-1.2-4.64-3.6-4.64-1.88,0-3.62.69-5.22,2.06v-2.2c.33-.24.71-.46,1.14-.65.42-.19.87-.36,1.34-.5s.96-.25,1.45-.33c.5-.08.98-.12,1.45-.12,1.79,0,3.15.5,4.06,1.51s1.38,2.5,1.38,4.5v10.47h-2.01ZM400.2,73.15c-.72.1-1.34.24-1.86.39s-.94.37-1.27.64c-.33.27-.58.6-.74.99-.16.39-.24.88-.24,1.45,0,.43.08.83.23,1.2.15.37.37.68.66.95.29.27.64.47,1.05.62.41.15.88.22,1.41.22.71,0,1.37-.14,1.96-.41s1.11-.65,1.55-1.13c.43-.48.78-1.06,1.02-1.73.25-.67.37-1.4.37-2.19v-1.59l-4.15.58Z"/>
    <path d="M422.22,80.96v-9.27c0-3.64-1.32-5.46-3.96-5.46-.7,0-1.35.14-1.95.42-.6.28-1.11.66-1.55,1.16s-.78,1.08-1.02,1.75c-.25.68-.37,1.41-.37,2.19v9.21h-2.01v-16.1h2.01v2.8h.06c1.19-2.12,2.99-3.18,5.39-3.18,1.76,0,3.1.57,4.02,1.71.92,1.14,1.38,2.79,1.38,4.95v9.81h-2.01Z"/>
    <path d="M438.51,80.96v-2.86h-.06c-.52,1.03-1.24,1.82-2.15,2.39-.91.57-1.93.85-3.07.85-.78,0-1.48-.11-2.1-.33-.62-.22-1.15-.53-1.59-.93-.44-.4-.77-.89-1.01-1.45-.24-.57-.35-1.19-.35-1.87,0-1.46.45-2.62,1.35-3.48.9-.87,2.26-1.43,4.09-1.69l4.89-.71c0-3.09-1.2-4.64-3.6-4.64-1.88,0-3.62.69-5.22,2.06v-2.2c.33-.24.71-.46,1.14-.65.42-.19.87-.36,1.34-.5s.96-.25,1.45-.33c.5-.08.98-.12,1.45-.12,1.79,0,3.15.5,4.06,1.51s1.38,2.5,1.38,4.5v10.47h-2.01ZM434.36,73.15c-.72.1-1.34.24-1.86.39s-.94.37-1.27.64c-.33.27-.58.6-.74.99-.16.39-.24.88-.24,1.45,0,.43.08.83.23,1.2.15.37.37.68.66.95.29.27.64.47,1.05.62.41.15.88.22,1.41.22.71,0,1.37-.14,1.96-.41s1.11-.65,1.55-1.13c.43-.48.78-1.06,1.02-1.73.25-.67.37-1.4.37-2.19v-1.59l-4.15.58Z"/>
    <path d="M456.82,80.96v-2.83h-.06c-.53,1.02-1.3,1.8-2.29,2.37s-2.11.84-3.37.84c-1.01,0-1.92-.19-2.74-.56-.82-.37-1.53-.91-2.11-1.61s-1.04-1.55-1.36-2.55c-.32-1-.48-2.12-.48-3.38s.18-2.49.53-3.56c.35-1.07.85-2,1.49-2.77.64-.77,1.42-1.37,2.33-1.79.91-.42,1.92-.64,3.03-.64,2.32,0,3.98.93,4.98,2.78h.06v-10.14h2.01v23.83h-2.01ZM456.82,71.24c0-.7-.12-1.36-.36-1.96s-.58-1.14-1.01-1.59c-.43-.45-.95-.81-1.55-1.07-.6-.26-1.27-.39-1.99-.39-.8,0-1.53.16-2.2.47-.67.31-1.25.77-1.72,1.36-.48.59-.85,1.31-1.12,2.16-.27.85-.4,1.81-.4,2.89,0,1.02.12,1.93.36,2.73.24.81.58,1.49,1.03,2.04s.98.98,1.6,1.27c.62.29,1.3.44,2.06.44.82,0,1.55-.15,2.21-.44.65-.29,1.21-.7,1.67-1.21.46-.51.81-1.12,1.05-1.81.25-.69.37-1.43.37-2.22v-2.69Z"/>
    <path d="M473.45,80.96v-2.86h-.06c-.52,1.03-1.24,1.82-2.15,2.39-.91.57-1.93.85-3.07.85-.78,0-1.48-.11-2.1-.33-.62-.22-1.15-.53-1.59-.93-.44-.4-.77-.89-1.01-1.45-.24-.57-.35-1.19-.35-1.87,0-1.46.45-2.62,1.35-3.48.9-.87,2.26-1.43,4.09-1.69l4.89-.71c0-3.09-1.2-4.64-3.6-4.64-1.88,0-3.62.69-5.22,2.06v-2.2c.33-.24.71-.46,1.14-.65.42-.19.87-.36,1.34-.5s.96-.25,1.45-.33c.5-.08.98-.12,1.45-.12,1.79,0,3.15.5,4.06,1.51s1.38,2.5,1.38,4.5v10.47h-2.01ZM469.3,73.15c-.72.1-1.34.24-1.86.39s-.94.37-1.27.64c-.33.27-.58.6-.74.99-.16.39-.24.88-.24,1.45,0,.43.08.83.23,1.2.15.37.37.68.66.95.29.27.64.47,1.05.62.41.15.88.22,1.41.22.71,0,1.37-.14,1.96-.41s1.11-.65,1.55-1.13c.43-.48.78-1.06,1.02-1.73.25-.67.37-1.4.37-2.19v-1.59l-4.15.58Z"/>
  </g>
  <g>
    <path d="M135.63,41.02c-1.74.82-3.73,1.23-5.96,1.23-1.59,0-3.04-.28-4.34-.84-1.3-.56-2.41-1.34-3.32-2.33s-1.62-2.18-2.12-3.55c-.5-1.37-.75-2.87-.75-4.5,0-1.71.26-3.3.79-4.77.53-1.47,1.29-2.75,2.27-3.84.99-1.08,2.18-1.94,3.58-2.55,1.4-.62,2.97-.93,4.71-.93,1.92,0,3.63.29,5.14.88v2.23c-1.61-.81-3.34-1.21-5.17-1.21-1.46,0-2.75.25-3.88.75s-2.09,1.2-2.86,2.1c-.78.9-1.37,1.95-1.78,3.18-.41,1.22-.61,2.55-.61,4,0,1.3.18,2.52.55,3.67s.91,2.15,1.63,3.01,1.61,1.54,2.68,2.04c1.07.5,2.31.75,3.73.75,2.17,0,4.08-.46,5.72-1.37v2.04Z"/>
    <path d="M146.7,42.23c-1.19,0-2.27-.2-3.21-.6-.95-.4-1.76-.96-2.43-1.69-.67-.73-1.18-1.6-1.54-2.62-.36-1.02-.53-2.14-.53-3.38,0-1.34.19-2.54.57-3.6.38-1.06.91-1.96,1.61-2.7.7-.74,1.54-1.3,2.52-1.69.98-.39,2.09-.58,3.3-.58s2.21.19,3.14.57c.93.38,1.72.94,2.37,1.66.65.72,1.15,1.6,1.49,2.64s.52,2.22.52,3.54-.18,2.4-.54,3.43c-.36,1.03-.88,1.92-1.55,2.66-.67.74-1.49,1.32-2.45,1.73-.96.41-2.05.61-3.27.61ZM146.85,27.12c-.88,0-1.68.15-2.39.46-.71.3-1.32.75-1.83,1.33-.51.58-.9,1.29-1.17,2.14-.27.84-.41,1.8-.41,2.87,0,1.01.14,1.91.41,2.72.27.81.66,1.5,1.16,2.07.5.58,1.1,1.02,1.82,1.33.71.31,1.51.46,2.39.46s1.7-.15,2.39-.45c.69-.3,1.28-.73,1.76-1.3s.85-1.27,1.09-2.1c.25-.83.37-1.77.37-2.83,0-2.17-.48-3.83-1.45-4.98-.96-1.15-2.34-1.72-4.13-1.72Z"/>
    <path d="M169.1,41.85v-2.74h-.06c-1.09,2.08-2.78,3.11-5.08,3.11-3.83,0-5.74-2.34-5.74-7.01v-9.46h2.01v9.09c0,1.93.34,3.35,1.03,4.28.69.92,1.74,1.38,3.15,1.38.69,0,1.32-.13,1.89-.4.57-.27,1.06-.64,1.48-1.13.41-.49.74-1.07.97-1.75.23-.68.35-1.44.35-2.26v-9.2h2.01v16.1h-2.01Z"/>
    <path d="M184.28,27.82c-.47-.35-1.08-.52-1.82-.52-.53,0-1.01.1-1.41.31-.41.2-.77.48-1.08.83-.31.35-.57.75-.79,1.2-.22.46-.39.93-.52,1.42s-.23.99-.28,1.49c-.06.5-.09.98-.09,1.43v7.88h-2v-16.1h2v3.44h.06c.19-.59.43-1.11.72-1.58.29-.47.62-.86,1-1.18.38-.32.79-.56,1.23-.73.45-.17.91-.25,1.41-.25.32,0,.62.02.87.06s.49.1.7.19v2.11Z"/>
    <path d="M195.11,38.96c.3.24.63.46.99.64.36.19.72.35,1.1.49.38.14.76.24,1.14.31.38.07.75.1,1.09.1,2.39,0,3.58-.9,3.58-2.69,0-.41-.08-.76-.25-1.06s-.41-.57-.72-.82c-.31-.25-.69-.47-1.13-.68-.44-.21-.94-.43-1.49-.66-.74-.3-1.38-.61-1.92-.93-.53-.31-.97-.66-1.32-1.03-.35-.37-.6-.78-.77-1.23-.17-.45-.25-.95-.25-1.52,0-.71.15-1.35.46-1.9.31-.56.73-1.03,1.25-1.41s1.13-.68,1.82-.89c.69-.2,1.41-.31,2.16-.31,1.39,0,2.61.26,3.65.79v2.12c-1.21-.78-2.5-1.16-3.9-1.16-.5,0-.96.06-1.38.19-.41.13-.77.3-1.06.53-.29.23-.52.51-.68.83-.16.32-.24.67-.24,1.06s.06.75.19,1.04c.13.3.32.57.59.81.27.24.61.47,1.04.69.42.22.94.46,1.55.71.78.31,1.45.63,2.01.94.57.31,1.03.64,1.4,1.01.37.36.64.77.82,1.21.18.45.27.96.27,1.55,0,.72-.15,1.37-.45,1.93-.3.57-.71,1.04-1.24,1.43s-1.15.68-1.86.88c-.71.2-1.49.3-2.33.3-1.62,0-2.99-.34-4.1-1.02v-2.25Z"/>
    <path d="M219.64,41.85v-2.74h-.06c-1.09,2.08-2.78,3.11-5.08,3.11-3.83,0-5.74-2.34-5.74-7.01v-9.46h2.01v9.09c0,1.93.34,3.35,1.03,4.28.69.92,1.74,1.38,3.15,1.38.69,0,1.32-.13,1.89-.4.57-.27,1.06-.64,1.48-1.13.41-.49.74-1.07.97-1.75.23-.68.35-1.44.35-2.26v-9.2h2.01v16.1h-2.01Z"/>
    <path d="M228.85,39.26v10h-2.01v-23.5h2.01v3.08h.06c.6-1.12,1.4-1.98,2.4-2.57,1-.59,2.13-.89,3.39-.89,1.03,0,1.95.19,2.76.56.81.37,1.5.9,2.06,1.58.56.68.99,1.51,1.29,2.48.3.97.45,2.07.45,3.29,0,1.33-.17,2.54-.5,3.64-.34,1.1-.82,2.04-1.45,2.82-.63.79-1.39,1.4-2.29,1.83-.9.43-1.9.65-3.03.65-2.26,0-3.96-.99-5.08-2.97h-.06ZM228.85,35.16c0,.73.12,1.42.37,2.07s.59,1.21,1.03,1.7.97.87,1.6,1.16c.62.28,1.31.42,2.07.42.81,0,1.54-.17,2.19-.51.65-.34,1.2-.83,1.66-1.45.46-.63.81-1.39,1.05-2.28.25-.89.37-1.89.37-2.99,0-.94-.12-1.79-.35-2.55s-.56-1.41-.98-1.94c-.42-.53-.94-.94-1.54-1.23-.6-.28-1.28-.42-2.02-.42-.84,0-1.59.15-2.26.46-.67.31-1.24.73-1.71,1.27-.47.53-.83,1.16-1.08,1.88-.25.72-.38,1.48-.38,2.29v2.14Z"/>
    <path d="M253.29,27.82c-.47-.35-1.08-.52-1.82-.52-.53,0-1.01.1-1.41.31-.41.2-.77.48-1.08.83-.31.35-.57.75-.79,1.2-.22.46-.39.93-.52,1.42s-.23.99-.28,1.49c-.06.5-.09.98-.09,1.43v7.88h-2v-16.1h2v3.44h.06c.19-.59.43-1.11.72-1.58.29-.47.62-.86,1-1.18.38-.32.79-.56,1.23-.73.45-.17.91-.25,1.41-.25.32,0,.62.02.87.06s.49.1.7.19v2.11Z"/>
    <path d="M256.75,34.17c.01.99.14,1.87.39,2.66s.61,1.45,1.08,2,1.05.96,1.72,1.25c.68.29,1.44.43,2.29.43,1.81,0,3.53-.63,5.14-1.9v1.98c-1.54,1.1-3.41,1.65-5.6,1.65-1.08,0-2.06-.19-2.94-.57-.88-.38-1.63-.92-2.25-1.64-.62-.72-1.1-1.6-1.43-2.65s-.5-2.24-.5-3.58c0-1.21.18-2.32.55-3.35.37-1.03.88-1.92,1.52-2.66.65-.75,1.42-1.34,2.31-1.76.89-.42,1.87-.64,2.92-.64s1.95.18,2.75.54c.8.36,1.46.88,2,1.55.54.67.95,1.49,1.23,2.45.28.96.42,2.04.42,3.24v1.01h-11.63ZM266.31,32.41c-.03-1.68-.43-2.98-1.19-3.9-.77-.92-1.83-1.38-3.19-1.38-.68,0-1.31.12-1.89.36s-1.09.59-1.53,1.05c-.44.46-.8,1.01-1.09,1.67-.29.66-.49,1.39-.61,2.21h9.51ZM264.38,22.94l-2.53-3.68-2.55,3.68h-1.54l3.43-5.25h1.4l3.43,5.25h-1.63Z"/>
    <path d="M292.56,41.85v-9.46c0-.96-.07-1.78-.22-2.44-.15-.67-.37-1.21-.68-1.63-.31-.42-.7-.72-1.18-.91-.48-.19-1.05-.28-1.71-.28-.59,0-1.14.14-1.67.42-.52.28-.98.66-1.38,1.15-.39.49-.7,1.06-.93,1.72s-.34,1.37-.34,2.14v9.31h-2.01v-9.67c0-3.37-1.29-5.06-3.88-5.06-.6,0-1.15.13-1.67.4-.51.27-.96.64-1.34,1.12-.38.48-.68,1.06-.9,1.74-.21.68-.32,1.42-.32,2.24v9.23h-2.01v-16.1h2.01v2.61h.06c1.13-1.99,2.78-2.99,4.95-2.99.57,0,1.1.09,1.6.26.5.17.95.41,1.35.72s.74.68,1.03,1.11c.29.43.51.9.65,1.41.57-1.14,1.3-2.01,2.21-2.61.91-.6,1.93-.9,3.07-.9,3.53,0,5.3,2.18,5.3,6.54v9.94h-2.01Z"/>
    <path d="M300.37,34.17c0,.99.14,1.87.39,2.66.25.79.61,1.45,1.08,2s1.04.96,1.72,1.25c.68.29,1.44.43,2.29.43,1.81,0,3.53-.63,5.14-1.9v1.98c-1.54,1.1-3.41,1.65-5.6,1.65-1.08,0-2.06-.19-2.94-.57-.88-.38-1.63-.92-2.25-1.64-.62-.72-1.1-1.6-1.43-2.65s-.5-2.24-.5-3.58c0-1.21.18-2.32.55-3.35.37-1.03.88-1.92,1.53-2.66.65-.75,1.42-1.34,2.31-1.76.89-.42,1.87-.64,2.92-.64s1.95.18,2.75.54c.8.36,1.46.88,2,1.55.54.67.95,1.49,1.23,2.45s.42,2.04.42,3.24v1.01h-11.63ZM309.93,32.41c-.03-1.68-.43-2.98-1.2-3.9-.76-.92-1.83-1.38-3.19-1.38-.68,0-1.31.12-1.89.36-.58.24-1.09.59-1.53,1.05-.44.46-.8,1.01-1.09,1.67-.29.66-.49,1.39-.61,2.21h9.51Z"/>
    <path d="M131.43,80.49v-2.83h-.06c-.53,1.02-1.3,1.8-2.29,2.37s-2.11.84-3.37.84c-1.01,0-1.92-.19-2.74-.56-.82-.37-1.53-.91-2.11-1.61-.59-.7-1.04-1.55-1.36-2.55-.32-1-.48-2.12-.48-3.38s.18-2.49.53-3.56c.35-1.07.85-2,1.49-2.77.64-.77,1.42-1.37,2.33-1.79.91-.42,1.92-.64,3.03-.64,2.32,0,3.98.93,4.98,2.78h.06v-10.14h2.01v23.83h-2.01ZM131.43,70.77c0-.7-.12-1.36-.36-1.96-.24-.61-.58-1.14-1.01-1.59-.43-.45-.95-.81-1.55-1.07-.6-.26-1.27-.39-1.99-.39-.8,0-1.53.16-2.2.47-.67.31-1.24.77-1.72,1.36-.48.59-.85,1.31-1.12,2.16-.27.85-.4,1.81-.4,2.89,0,1.02.12,1.93.36,2.73.24.81.58,1.49,1.03,2.04.45.56.98.98,1.6,1.27.62.29,1.31.44,2.06.44.82,0,1.55-.15,2.21-.44.65-.29,1.21-.7,1.67-1.21.46-.51.81-1.12,1.05-1.81.25-.69.37-1.43.37-2.22v-2.69Z"/>
    <path d="M149.17,80.49v-2.74h-.06c-1.09,2.08-2.78,3.11-5.08,3.11-3.83,0-5.74-2.34-5.74-7.01v-9.46h2.01v9.09c0,1.93.34,3.35,1.03,4.28.69.92,1.74,1.38,3.15,1.38.69,0,1.32-.13,1.89-.4.57-.27,1.06-.64,1.48-1.13.41-.49.74-1.07.97-1.75.23-.68.35-1.44.35-2.26v-9.2h2.01v16.1h-2.01Z"/>
    <path d="M180.67,79.65c-1.74.82-3.73,1.23-5.96,1.23-1.59,0-3.04-.28-4.34-.84-1.3-.56-2.41-1.34-3.32-2.33-.92-1-1.62-2.18-2.12-3.55-.5-1.37-.75-2.87-.75-4.5,0-1.71.26-3.3.79-4.77s1.29-2.75,2.27-3.84c.99-1.08,2.18-1.94,3.58-2.55,1.4-.62,2.97-.93,4.71-.93,1.92,0,3.63.29,5.14.88v2.23c-1.61-.81-3.34-1.21-5.17-1.21-1.46,0-2.75.25-3.88.75s-2.09,1.2-2.86,2.1c-.78.9-1.37,1.96-1.78,3.18s-.61,2.55-.61,4c0,1.3.18,2.52.55,3.67s.91,2.15,1.63,3.01c.72.86,1.61,1.54,2.68,2.04,1.07.5,2.31.75,3.73.75,2.17,0,4.08-.46,5.72-1.37v2.04Z"/>
    <path d="M194.42,80.49v-2.86h-.06c-.52,1.03-1.24,1.82-2.15,2.39-.91.57-1.93.85-3.07.85-.78,0-1.48-.11-2.1-.33-.62-.22-1.15-.53-1.59-.93-.44-.4-.77-.89-1.01-1.45-.24-.57-.35-1.19-.35-1.87,0-1.46.45-2.62,1.35-3.48.9-.87,2.26-1.43,4.09-1.69l4.89-.71c0-3.09-1.2-4.64-3.6-4.64-1.88,0-3.62.69-5.22,2.06v-2.2c.33-.24.71-.46,1.14-.65.42-.19.87-.36,1.34-.5s.96-.25,1.45-.33c.5-.08.98-.12,1.45-.12,1.79,0,3.15.5,4.06,1.51s1.38,2.5,1.38,4.5v10.47h-2.01ZM190.27,72.67c-.72.1-1.34.24-1.85.39s-.94.37-1.27.64c-.34.27-.58.6-.74.99-.16.39-.24.88-.24,1.45,0,.43.08.83.23,1.2.15.37.37.68.66.95.29.27.64.47,1.05.62.41.15.88.22,1.41.22.71,0,1.37-.14,1.96-.41s1.11-.65,1.55-1.13c.44-.48.78-1.06,1.02-1.73.25-.67.37-1.4.37-2.19v-1.59l-4.15.58Z"/>
    <path d="M212.14,80.49v-9.27c0-3.64-1.32-5.46-3.96-5.46-.7,0-1.35.14-1.95.42s-1.11.66-1.55,1.16c-.44.49-.78,1.08-1.02,1.75s-.37,1.41-.37,2.19v9.21h-2.01v-16.1h2.01v2.8h.06c1.19-2.12,2.99-3.18,5.39-3.18,1.76,0,3.1.57,4.02,1.71.92,1.14,1.38,2.79,1.38,4.95v9.81h-2.01Z"/>
    <path d="M228.27,80.49v-2.86h-.06c-.52,1.03-1.24,1.82-2.15,2.39-.91.57-1.93.85-3.07.85-.78,0-1.48-.11-2.1-.33-.62-.22-1.15-.53-1.59-.93-.44-.4-.77-.89-1.01-1.45-.24-.57-.35-1.19-.35-1.87,0-1.46.45-2.62,1.35-3.48.9-.87,2.26-1.43,4.09-1.69l4.89-.71c0-3.09-1.2-4.64-3.6-4.64-1.88,0-3.62.69-5.22,2.06v-2.2c.33-.24.71-.46,1.14-.65.42-.19.87-.36,1.34-.5s.96-.25,1.45-.33c.5-.08.98-.12,1.45-.12,1.79,0,3.15.5,4.06,1.51s1.38,2.5,1.38,4.5v10.47h-2.01ZM224.12,72.67c-.72.1-1.34.24-1.85.39s-.94.37-1.27.64c-.34.27-.58.6-.74.99-.16.39-.24.88-.24,1.45,0,.43.08.83.23,1.2.15.37.37.68.66.95.29.27.64.47,1.05.62.41.15.88.22,1.41.22.71,0,1.37-.14,1.96-.41s1.11-.65,1.55-1.13c.44-.48.78-1.06,1.02-1.73.25-.67.37-1.4.37-2.19v-1.59l-4.15.58Z"/>
    <path d="M246.41,80.49v-2.83h-.06c-.53,1.02-1.3,1.8-2.29,2.37s-2.11.84-3.37.84c-1.01,0-1.92-.19-2.74-.56-.82-.37-1.53-.91-2.11-1.61-.59-.7-1.04-1.55-1.36-2.55-.32-1-.48-2.12-.48-3.38s.18-2.49.53-3.56c.35-1.07.85-2,1.49-2.77.64-.77,1.42-1.37,2.33-1.79.91-.42,1.92-.64,3.03-.64,2.32,0,3.98.93,4.98,2.78h.06v-10.14h2.01v23.83h-2.01ZM246.41,70.77c0-.7-.12-1.36-.36-1.96-.24-.61-.58-1.14-1.01-1.59-.43-.45-.95-.81-1.55-1.07-.6-.26-1.27-.39-1.99-.39-.8,0-1.53.16-2.2.47-.67.31-1.24.77-1.72,1.36-.48.59-.85,1.31-1.12,2.16-.27.85-.4,1.81-.4,2.89,0,1.02.12,1.93.36,2.73.24.81.58,1.49,1.03,2.04.45.56.98.98,1.6,1.27.62.29,1.31.44,2.06.44.82,0,1.55-.15,2.21-.44.65-.29,1.21-.7,1.67-1.21.46-.51.81-1.12,1.05-1.81.25-.69.37-1.43.37-2.22v-2.69Z"/>
    <path d="M262.88,80.49v-2.86h-.06c-.52,1.03-1.24,1.82-2.15,2.39-.91.57-1.93.85-3.07.85-.78,0-1.48-.11-2.1-.33-.62-.22-1.15-.53-1.59-.93-.44-.4-.77-.89-1.01-1.45-.24-.57-.35-1.19-.35-1.87,0-1.46.45-2.62,1.35-3.48.9-.87,2.26-1.43,4.09-1.69l4.89-.71c0-3.09-1.2-4.64-3.6-4.64-1.88,0-3.62.69-5.22,2.06v-2.2c.33-.24.71-.46,1.14-.65.42-.19.87-.36,1.34-.5s.96-.25,1.45-.33c.5-.08.98-.12,1.45-.12,1.79,0,3.15.5,4.06,1.51s1.38,2.5,1.38,4.5v10.47h-2.01ZM258.73,72.67c-.72.1-1.34.24-1.85.39s-.94.37-1.27.64c-.34.27-.58.6-.74.99-.16.39-.24.88-.24,1.45,0,.43.08.83.23,1.2.15.37.37.68.66.95.29.27.64.47,1.05.62.41.15.88.22,1.41.22.71,0,1.37-.14,1.96-.41s1.11-.65,1.55-1.13c.44-.48.78-1.06,1.02-1.73.25-.67.37-1.4.37-2.19v-1.59l-4.15.58Z"/>
  </g>
</svg>