<?xml version="1.0" encoding="utf-8"?>
<!-- Generator: Adobe Illustrator 26.0.2, SVG Export Plug-In . SVG Version: 6.00 Build 0)  -->
<svg version="1.1" id="Layer_1" xmlns="http://www.w3.org/2000/svg" xmlns:xlink="http://www.w3.org/1999/xlink" x="0px" y="0px"
	 viewBox="0 0 322.26 26" style="enable-background:new 0 0 322.26 26;" xml:space="preserve">
<style type="text/css">
	.st0{clip-path:url(#SVGID_00000099656551774395407530000011353495840083235478_);fill:#EB2D37;}
	.st1{clip-path:url(#SVGID_00000099656551774395407530000011353495840083235478_);}
	.st2{clip-path:url(#SVGID_00000094616689984398125490000012690890817664122809_);fill:#EB2D37;}
	.st3{clip-path:url(#SVGID_00000094616689984398125490000012690890817664122809_);}
</style>
<g id="EN_x5F_RGB_x5F_SSC_x5F_SPC_00000137117183661217317590000013327727011784296579_">
	<g>
		<defs>
			<rect id="SVGID_1_" y="0.12" width="322.26" height="25.76"/>
		</defs>
		<clipPath id="SVGID_00000178167240169469868610000012848437544537778604_">
			<use xlink:href="#SVGID_1_"  style="overflow:visible;"/>
		</clipPath>
		
			<rect y="0.41" style="clip-path:url(#SVGID_00000178167240169469868610000012848437544537778604_);fill:#EB2D37;" width="12.42" height="25.29"/>
		
			<rect x="39.98" y="0.41" style="clip-path:url(#SVGID_00000178167240169469868610000012848437544537778604_);fill:#EB2D37;" width="12.42" height="25.29"/>
		<g style="clip-path:url(#SVGID_00000178167240169469868610000012848437544537778604_);">
			<defs>
				<rect id="SVGID_00000026863910930218924050000004433147138790950066_" y="0.12" width="322.26" height="25.76"/>
			</defs>
			<clipPath id="SVGID_00000134938690361439589870000013373927207672647583_">
				<use xlink:href="#SVGID_00000026863910930218924050000004433147138790950066_"  style="overflow:visible;"/>
			</clipPath>
			<path style="clip-path:url(#SVGID_00000134938690361439589870000013373927207672647583_);fill:#EB2D37;" d="M24.48,5.66
				l1.77-3.61l1.76,3.48c0.22,0.37,0.4,0.34,0.75,0.16l1.51-0.75L29.29,9.8c-0.21,0.95,0.34,1.23,0.92,0.59l2.16-2.31l0.57,1.31
				c0.19,0.4,0.48,0.34,0.87,0.27l2.23-0.47L35.3,12l-0.02,0.06c-0.09,0.37-0.26,0.68,0.15,0.86l0.79,0.39l-4.6,3.89
				c-0.47,0.49-0.31,0.63-0.13,1.17l0.43,1.31l-4.29-0.78c-0.53-0.13-0.9-0.13-0.91,0.29l0.18,4.92h-1.29l0.18-4.9
				c0-0.48-0.37-0.47-1.23-0.29l-3.96,0.76l0.51-1.31c0.18-0.5,0.22-0.84-0.18-1.17l-4.7-3.83l0.87-0.53
				c0.25-0.19,0.26-0.4,0.13-0.82l-0.88-2.86l2.26,0.49c0.63,0.14,0.81,0,0.97-0.35l0.63-1.29l2.23,2.53
				c0.4,0.47,0.95,0.16,0.78-0.51l-1.07-5.27l1.66,0.95c0.27,0.16,0.54,0.21,0.71-0.1"/>
			<path style="clip-path:url(#SVGID_00000134938690361439589870000013373927207672647583_);" d="M212.01,3.48
				c-0.08-1.63-1.42-2.14-2.61-2.14c-0.9,0-2.41,0.25-2.41,1.85c0,0.9,0.63,1.19,1.25,1.34l3.01,0.69c1.36,0.32,2.39,1.14,2.39,2.82
				c0,2.49-2.32,3.18-4.12,3.18c-1.95,0-2.71-0.59-3.18-1.01c-0.9-0.81-1.07-1.69-1.07-2.67h1.34c0,1.91,1.56,2.47,2.9,2.47
				c1.03,0,2.76-0.26,2.76-1.78c0-1.1-0.51-1.45-2.25-1.86l-2.16-0.5c-0.69-0.16-2.24-0.64-2.24-2.48c0-1.64,1.07-3.26,3.62-3.26
				c3.68,0,4.05,2.2,4.11,3.36H212.01z"/>
			<path style="clip-path:url(#SVGID_00000134938690361439589870000013373927207672647583_);" d="M220.55,6.49
				c-0.08-1.19-0.57-2.29-2.14-2.29c-1.19,0-2.13,1.1-2.13,2.29H220.55z M221.79,8.53c-0.05,0.37-0.4,1.45-1.37,2.1
				c-0.35,0.23-0.85,0.53-2.08,0.53c-2.16,0-3.43-1.63-3.43-3.84c0-2.38,1.15-4.27,3.69-4.27c2.21,0,3.3,1.76,3.3,4.48h-5.61
				c0,1.6,0.75,2.53,2.23,2.53c1.22,0,1.94-0.94,1.98-1.51H221.79z"/>
			<path style="clip-path:url(#SVGID_00000134938690361439589870000013373927207672647583_);" d="M224.89,10.94h-1.29V3.26h1.21
				v1.28h0.03c0.52-0.9,1.19-1.5,2.16-1.5c0.16,0,0.23,0.01,0.34,0.05v1.34h-0.49c-1.2,0-1.97,0.94-1.97,2.05V10.94z"/>
			<polygon style="clip-path:url(#SVGID_00000134938690361439589870000013373927207672647583_);" points="233.61,3.26 235.01,3.26 
				232.09,10.93 230.72,10.93 227.91,3.26 229.41,3.26 231.4,9.51 231.43,9.51 			"/>
			<path style="clip-path:url(#SVGID_00000134938690361439589870000013373927207672647583_);" d="M237.4,10.94h-1.29V3.26h1.29
				V10.94z M236.11,0.4h1.29v1.47h-1.29V0.4z"/>
			<path style="clip-path:url(#SVGID_00000134938690361439589870000013373927207672647583_);" d="M244.14,5.84
				c-0.16-1.03-0.74-1.64-1.82-1.64c-1.6,0-2.11,1.53-2.11,2.89c0,1.32,0.32,2.95,2.1,2.95c0.86,0,1.62-0.65,1.84-1.82h1.25
				c-0.13,1.22-0.88,2.93-3.12,2.93c-2.16,0-3.43-1.63-3.43-3.84c0-2.38,1.14-4.27,3.68-4.27c2.01,0,2.77,1.47,2.88,2.8H244.14z"/>
			<path style="clip-path:url(#SVGID_00000134938690361439589870000013373927207672647583_);" d="M251.95,6.49
				c-0.07-1.19-0.57-2.29-2.14-2.29c-1.19,0-2.13,1.1-2.13,2.29H251.95z M253.18,8.53c-0.04,0.37-0.4,1.45-1.37,2.1
				c-0.35,0.23-0.85,0.53-2.08,0.53c-2.16,0-3.43-1.63-3.43-3.84c0-2.38,1.14-4.27,3.68-4.27c2.22,0,3.3,1.76,3.3,4.48h-5.61
				c0,1.6,0.75,2.53,2.23,2.53c1.22,0,1.93-0.94,1.98-1.51H253.18z"/>
			<path style="clip-path:url(#SVGID_00000134938690361439589870000013373927207672647583_);" d="M259.18,5.45
				c-0.02-0.49-0.19-1.29-1.82-1.29c-0.4,0-1.53,0.13-1.53,1.09c0,0.63,0.4,0.78,1.4,1.03l1.29,0.32c1.6,0.4,2.16,0.99,2.16,2.03
				c0,1.58-1.31,2.54-3.04,2.54c-3.04,0-3.26-1.76-3.3-2.69h1.25c0.04,0.6,0.22,1.57,2.04,1.57c0.92,0,1.76-0.37,1.76-1.22
				c0-0.61-0.43-0.82-1.53-1.1l-1.5-0.37c-1.07-0.26-1.78-0.8-1.78-1.86c0-1.69,1.39-2.45,2.9-2.45c2.75,0,2.94,2.03,2.94,2.41
				H259.18z"/>
			<path style="clip-path:url(#SVGID_00000134938690361439589870000013373927207672647583_);" d="M269.46,10.04
				c1.41,0,2.07-1.27,2.07-2.96c0-0.98-0.1-2.88-2.1-2.88c-1.86,0-2.07,2.01-2.07,3.26C267.36,9.5,268.64,10.04,269.46,10.04
				 M266.13,3.26h1.22v1.09h0.03c0.31-0.44,0.9-1.31,2.29-1.31c2.04,0,3.2,1.67,3.2,3.83c0,1.83-0.77,4.28-3.38,4.28
				c-1.03,0-1.7-0.48-2.04-1.03h-0.03v3.85h-1.29V3.26z"/>
			<path style="clip-path:url(#SVGID_00000134938690361439589870000013373927207672647583_);" d="M279.07,7.02
				c-0.21,0.16-0.53,0.28-2.13,0.48c-0.63,0.09-1.64,0.28-1.64,1.25c0,0.84,0.43,1.34,1.39,1.34c1.2,0,2.38-0.78,2.38-1.81V7.02z
				 M274.35,5.59c0.06-1.83,1.27-2.55,3.17-2.55c0.61,0,2.85,0.18,2.85,2.14V9.6c0,0.32,0.16,0.45,0.42,0.45
				c0.12,0,0.28-0.03,0.43-0.06v0.94c-0.22,0.06-0.41,0.15-0.7,0.15c-1.15,0-1.32-0.59-1.37-1.17c-0.5,0.55-1.27,1.25-2.77,1.25
				c-1.41,0-2.41-0.9-2.41-2.22c0-0.64,0.19-2.14,2.33-2.41l2.13-0.27c0.31-0.03,0.67-0.15,0.67-0.91c0-0.81-0.58-1.25-1.8-1.25
				c-1.47,0-1.67,0.9-1.76,1.48H274.35z"/>
			<path style="clip-path:url(#SVGID_00000134938690361439589870000013373927207672647583_);" d="M284.01,10.94h-1.29V3.26h1.22
				v1.28h0.03c0.51-0.9,1.19-1.5,2.16-1.5c0.16,0,0.24,0.01,0.34,0.05v1.34h-0.48c-1.21,0-1.97,0.94-1.97,2.05V10.94z"/>
			<path style="clip-path:url(#SVGID_00000134938690361439589870000013373927207672647583_);" d="M289.6,4.33v4.99
				c0,0.6,0.52,0.6,0.78,0.6h0.45v1.01c-0.47,0.04-0.83,0.1-0.97,0.1c-1.28,0-1.56-0.72-1.56-1.64V4.33h-1.04V3.26h1.04V1.12h1.29
				v2.14h1.23v1.07H289.6z"/>
			<path style="clip-path:url(#SVGID_00000134938690361439589870000013373927207672647583_);" d="M296.63,7.02
				c-0.21,0.16-0.53,0.28-2.13,0.48c-0.63,0.09-1.64,0.28-1.64,1.25c0,0.84,0.43,1.34,1.39,1.34c1.2,0,2.38-0.78,2.38-1.81V7.02z
				 M291.9,5.59c0.06-1.83,1.28-2.55,3.17-2.55c0.62,0,2.85,0.18,2.85,2.14V9.6c0,0.32,0.16,0.45,0.42,0.45
				c0.12,0,0.28-0.03,0.43-0.06v0.94c-0.22,0.06-0.41,0.15-0.7,0.15c-1.15,0-1.32-0.59-1.37-1.17c-0.5,0.55-1.27,1.25-2.77,1.25
				c-1.41,0-2.41-0.9-2.41-2.22c0-0.64,0.19-2.14,2.33-2.41l2.13-0.27c0.31-0.03,0.67-0.15,0.67-0.91c0-0.81-0.58-1.25-1.8-1.25
				c-1.47,0-1.67,0.9-1.76,1.48H291.9z"/>
			<path style="clip-path:url(#SVGID_00000134938690361439589870000013373927207672647583_);" d="M303.14,10.04
				c0.82,0,2.1-0.54,2.1-2.58c0-1.25-0.2-3.26-2.07-3.26c-2,0-2.1,1.89-2.1,2.88C301.07,8.77,301.73,10.04,303.14,10.04
				 M306.47,10.3c0,1.1-0.02,3.86-3.57,3.86c-0.91,0-2.68-0.25-2.93-2.29h1.29c0.23,1.22,1.42,1.22,1.73,1.22
				c2.23,0,2.19-1.79,2.19-2.7v-0.32h-0.03v0.06c-0.34,0.55-1.01,1.03-2.04,1.03c-2.61,0-3.37-2.45-3.37-4.28
				c0-2.16,1.16-3.83,3.2-3.83c1.39,0,1.98,0.87,2.29,1.31h0.03V3.26h1.22V10.3z"/>
			<path style="clip-path:url(#SVGID_00000134938690361439589870000013373927207672647583_);" d="M311.72,2.23h-0.98l1.3-2.07h1.59
				L311.72,2.23z M313.54,6.49c-0.07-1.19-0.57-2.29-2.14-2.29c-1.19,0-2.13,1.1-2.13,2.29H313.54z M314.77,8.53
				c-0.04,0.37-0.4,1.45-1.37,2.1c-0.35,0.23-0.85,0.53-2.08,0.53c-2.16,0-3.43-1.63-3.43-3.84c0-2.38,1.14-4.27,3.68-4.27
				c2.22,0,3.3,1.76,3.3,4.48h-5.61c0,1.6,0.75,2.53,2.23,2.53c1.22,0,1.93-0.94,1.98-1.51H314.77z"/>
			<path style="clip-path:url(#SVGID_00000134938690361439589870000013373927207672647583_);" d="M320.77,5.45
				c-0.01-0.49-0.19-1.29-1.82-1.29c-0.4,0-1.53,0.13-1.53,1.09c0,0.63,0.4,0.78,1.4,1.03l1.29,0.32c1.6,0.4,2.16,0.99,2.16,2.03
				c0,1.58-1.31,2.54-3.04,2.54c-3.04,0-3.26-1.76-3.3-2.69h1.25c0.04,0.6,0.22,1.57,2.04,1.57c0.92,0,1.76-0.37,1.76-1.22
				c0-0.61-0.42-0.82-1.52-1.1l-1.5-0.37c-1.07-0.26-1.78-0.8-1.78-1.86c0-1.69,1.39-2.45,2.9-2.45c2.75,0,2.94,2.03,2.94,2.41
				H320.77z"/>
			<path style="clip-path:url(#SVGID_00000134938690361439589870000013373927207672647583_);" d="M213.05,18.24
				c-0.39-1.85-1.93-2.19-2.95-2.19c-1.91,0-3.45,1.41-3.45,4.18c0,2.48,0.88,4.39,3.5,4.39c0.92,0,2.52-0.44,3.01-2.89h1.38
				c-0.59,3.98-3.82,4.15-4.61,4.15c-2.4,0-4.74-1.56-4.74-5.61c0-3.24,1.85-5.49,4.92-5.49c2.71,0,4.13,1.69,4.33,3.45H213.05z"/>
			<path style="clip-path:url(#SVGID_00000134938690361439589870000013373927207672647583_);" d="M220.39,21.68
				c-0.21,0.16-0.53,0.28-2.13,0.48c-0.63,0.09-1.65,0.28-1.65,1.25c0,0.83,0.43,1.33,1.4,1.33c1.2,0,2.38-0.78,2.38-1.81V21.68z
				 M215.67,20.26c0.06-1.83,1.28-2.55,3.17-2.55c0.62,0,2.85,0.18,2.85,2.14v4.42c0,0.32,0.16,0.46,0.43,0.46
				c0.12,0,0.28-0.03,0.42-0.06v0.94c-0.22,0.06-0.41,0.15-0.7,0.15c-1.14,0-1.32-0.59-1.36-1.17c-0.5,0.54-1.28,1.25-2.77,1.25
				c-1.41,0-2.41-0.9-2.41-2.22c0-0.64,0.19-2.14,2.33-2.41l2.13-0.27c0.31-0.03,0.68-0.15,0.68-0.91c0-0.8-0.59-1.25-1.81-1.25
				c-1.47,0-1.67,0.89-1.76,1.48H215.67z"/>
			<path style="clip-path:url(#SVGID_00000134938690361439589870000013373927207672647583_);" d="M230.12,25.6h-1.29v-4.73
				c0-1.34-0.38-2.01-1.64-2.01c-0.73,0-2.03,0.47-2.03,2.55v4.18h-1.29v-7.67h1.22v1.09h0.03c0.28-0.41,1-1.31,2.32-1.31
				c1.19,0,2.69,0.49,2.69,2.67V25.6z"/>
			<path style="clip-path:url(#SVGID_00000134938690361439589870000013373927207672647583_);" d="M236.7,21.68
				c-0.21,0.16-0.53,0.28-2.13,0.48c-0.63,0.09-1.65,0.28-1.65,1.25c0,0.83,0.43,1.33,1.39,1.33c1.21,0,2.38-0.78,2.38-1.81V21.68z
				 M231.98,20.26c0.06-1.83,1.28-2.55,3.17-2.55c0.62,0,2.85,0.18,2.85,2.14v4.42c0,0.32,0.16,0.46,0.43,0.46
				c0.12,0,0.28-0.03,0.43-0.06v0.94c-0.22,0.06-0.41,0.15-0.71,0.15c-1.14,0-1.32-0.59-1.36-1.17c-0.5,0.54-1.28,1.25-2.77,1.25
				c-1.41,0-2.41-0.9-2.41-2.22c0-0.64,0.19-2.14,2.33-2.41l2.13-0.27c0.31-0.03,0.68-0.15,0.68-0.91c0-0.8-0.59-1.25-1.81-1.25
				c-1.47,0-1.67,0.89-1.76,1.48H231.98z"/>
			<path style="clip-path:url(#SVGID_00000134938690361439589870000013373927207672647583_);" d="M243.14,24.7
				c0.82,0,2.1-0.54,2.1-2.58c0-1.25-0.2-3.26-2.07-3.26c-2,0-2.1,1.89-2.1,2.88C241.07,23.43,241.73,24.7,243.14,24.7 M246.54,25.6
				h-1.22v-1.06h-0.03c-0.56,1.04-1.44,1.28-2.19,1.28c-2.62,0-3.38-2.45-3.38-4.28c0-2.16,1.16-3.83,3.2-3.83
				c1.4,0,1.98,0.87,2.29,1.31l0.03-0.1v-3.85h1.29V25.6z"/>
			<path style="clip-path:url(#SVGID_00000134938690361439589870000013373927207672647583_);" d="M253.01,21.68
				c-0.21,0.16-0.53,0.28-2.13,0.48c-0.63,0.09-1.65,0.28-1.65,1.25c0,0.83,0.43,1.33,1.4,1.33c1.2,0,2.38-0.78,2.38-1.81V21.68z
				 M248.28,20.26c0.06-1.83,1.28-2.55,3.17-2.55c0.62,0,2.85,0.18,2.85,2.14v4.42c0,0.32,0.16,0.46,0.43,0.46
				c0.12,0,0.28-0.03,0.43-0.06v0.94c-0.22,0.06-0.41,0.15-0.71,0.15c-1.14,0-1.32-0.59-1.36-1.17c-0.5,0.54-1.28,1.25-2.77,1.25
				c-1.41,0-2.41-0.9-2.41-2.22c0-0.64,0.19-2.14,2.33-2.41l2.13-0.27c0.31-0.03,0.68-0.15,0.68-0.91c0-0.8-0.59-1.25-1.81-1.25
				c-1.47,0-1.67,0.89-1.76,1.48H248.28z"/>
			<path style="clip-path:url(#SVGID_00000134938690361439589870000013373927207672647583_);" d="M82.34,3.48
				c-0.07-1.63-1.42-2.14-2.61-2.14c-0.89,0-2.41,0.25-2.41,1.85c0,0.9,0.63,1.19,1.25,1.34l3.01,0.69
				c1.36,0.32,2.39,1.14,2.39,2.82c0,2.49-2.32,3.18-4.12,3.18c-1.95,0-2.71-0.59-3.18-1.01c-0.9-0.81-1.07-1.69-1.07-2.67h1.34
				c0,1.91,1.55,2.47,2.9,2.47c1.03,0,2.76-0.26,2.76-1.78c0-1.1-0.51-1.45-2.25-1.86l-2.16-0.5c-0.69-0.16-2.25-0.64-2.25-2.48
				c0-1.64,1.07-3.26,3.62-3.26c3.68,0,4.05,2.2,4.11,3.36H82.34z"/>
			<path style="clip-path:url(#SVGID_00000134938690361439589870000013373927207672647583_);" d="M91.85,10.94h-1.29V5.92
				c0-1.04-0.29-1.72-1.53-1.72c-1.06,0-2.14,0.62-2.14,2.55v4.18H85.6V0.4h1.29v3.89h0.03c0.37-0.49,1.01-1.25,2.24-1.25
				c1.19,0,2.69,0.48,2.69,2.67V10.94z"/>
			<path style="clip-path:url(#SVGID_00000134938690361439589870000013373927207672647583_);" d="M98.44,7.02
				c-0.21,0.16-0.53,0.28-2.13,0.48c-0.63,0.09-1.64,0.28-1.64,1.25c0,0.84,0.43,1.34,1.4,1.34c1.2,0,2.38-0.78,2.38-1.81V7.02z
				 M93.71,5.59c0.06-1.83,1.28-2.55,3.17-2.55c0.62,0,2.85,0.18,2.85,2.14V9.6c0,0.32,0.16,0.45,0.43,0.45
				c0.12,0,0.28-0.03,0.43-0.06v0.94c-0.22,0.06-0.41,0.15-0.7,0.15c-1.14,0-1.32-0.59-1.37-1.17c-0.5,0.55-1.28,1.25-2.77,1.25
				c-1.41,0-2.41-0.9-2.41-2.22c0-0.64,0.19-2.14,2.33-2.41l2.13-0.27c0.31-0.03,0.68-0.15,0.68-0.91c0-0.81-0.59-1.25-1.8-1.25
				c-1.47,0-1.67,0.9-1.76,1.48H93.71z"/>
			<path style="clip-path:url(#SVGID_00000134938690361439589870000013373927207672647583_);" d="M103.38,10.94h-1.29V3.26h1.22
				v1.28h0.03c0.51-0.9,1.19-1.5,2.16-1.5c0.16,0,0.23,0.01,0.34,0.05v1.34h-0.48c-1.2,0-1.97,0.94-1.97,2.05V10.94z"/>
			<path style="clip-path:url(#SVGID_00000134938690361439589870000013373927207672647583_);" d="M111.78,6.49
				c-0.07-1.19-0.57-2.29-2.14-2.29c-1.19,0-2.13,1.1-2.13,2.29H111.78z M113.02,8.53c-0.05,0.37-0.4,1.45-1.36,2.1
				c-0.35,0.23-0.85,0.53-2.08,0.53c-2.16,0-3.43-1.63-3.43-3.84c0-2.38,1.14-4.27,3.68-4.27c2.22,0,3.3,1.76,3.3,4.48h-5.61
				c0,1.6,0.75,2.53,2.23,2.53c1.22,0,1.94-0.94,1.98-1.51H113.02z"/>
			<path style="clip-path:url(#SVGID_00000134938690361439589870000013373927207672647583_);" d="M117.62,10.04
				c0.82,0,2.1-0.54,2.1-2.58c0-1.25-0.21-3.26-2.07-3.26c-2,0-2.1,1.89-2.1,2.88C115.55,8.76,116.21,10.04,117.62,10.04
				 M121.02,10.94h-1.22V9.88h-0.03c-0.56,1.04-1.44,1.28-2.19,1.28c-2.61,0-3.38-2.45-3.38-4.28c0-2.16,1.16-3.83,3.2-3.83
				c1.39,0,1.98,0.87,2.29,1.31l0.03-0.1V0.4h1.29V10.94z"/>
			<path style="clip-path:url(#SVGID_00000134938690361439589870000013373927207672647583_);" d="M133.4,3.48
				c-0.07-1.63-1.42-2.14-2.61-2.14c-0.9,0-2.41,0.25-2.41,1.85c0,0.9,0.63,1.19,1.25,1.34l3.01,0.69c1.36,0.32,2.39,1.14,2.39,2.82
				c0,2.49-2.32,3.18-4.12,3.18c-1.95,0-2.71-0.59-3.18-1.01c-0.9-0.81-1.07-1.69-1.07-2.67h1.34c0,1.91,1.56,2.47,2.91,2.47
				c1.03,0,2.76-0.26,2.76-1.78c0-1.1-0.51-1.45-2.24-1.86l-2.16-0.5C128.56,5.7,127,5.21,127,3.38c0-1.64,1.07-3.26,3.63-3.26
				c3.68,0,4.05,2.2,4.11,3.36H133.4z"/>
			<path style="clip-path:url(#SVGID_00000134938690361439589870000013373927207672647583_);" d="M141.95,6.49
				c-0.07-1.19-0.57-2.29-2.14-2.29c-1.19,0-2.13,1.1-2.13,2.29H141.95z M143.19,8.53c-0.04,0.37-0.4,1.45-1.36,2.1
				c-0.35,0.23-0.85,0.53-2.08,0.53c-2.16,0-3.43-1.63-3.43-3.84c0-2.38,1.14-4.27,3.68-4.27c2.21,0,3.3,1.76,3.3,4.48h-5.61
				c0,1.6,0.75,2.53,2.23,2.53c1.22,0,1.94-0.94,1.98-1.51H143.19z"/>
			<path style="clip-path:url(#SVGID_00000134938690361439589870000013373927207672647583_);" d="M146.29,10.94H145V3.26h1.22v1.28
				h0.03c0.51-0.9,1.19-1.5,2.16-1.5c0.16,0,0.23,0.01,0.34,0.05v1.34h-0.49c-1.2,0-1.97,0.94-1.97,2.05V10.94z"/>
			<polygon style="clip-path:url(#SVGID_00000134938690361439589870000013373927207672647583_);" points="155.01,3.26 156.41,3.26 
				153.49,10.93 152.11,10.93 149.31,3.26 150.81,3.26 152.8,9.51 152.83,9.51 			"/>
			<path style="clip-path:url(#SVGID_00000134938690361439589870000013373927207672647583_);" d="M158.8,10.94h-1.29V3.26h1.29
				V10.94z M157.51,0.4h1.29v1.47h-1.29V0.4z"/>
			<path style="clip-path:url(#SVGID_00000134938690361439589870000013373927207672647583_);" d="M165.53,5.84
				c-0.16-1.03-0.73-1.64-1.82-1.64c-1.6,0-2.11,1.53-2.11,2.89c0,1.32,0.32,2.95,2.1,2.95c0.87,0,1.62-0.65,1.84-1.82h1.25
				c-0.13,1.22-0.88,2.93-3.13,2.93c-2.16,0-3.43-1.63-3.43-3.84c0-2.38,1.15-4.27,3.69-4.27c2.01,0,2.77,1.47,2.88,2.8H165.53z"/>
			<path style="clip-path:url(#SVGID_00000134938690361439589870000013373927207672647583_);" d="M173.35,6.49
				c-0.07-1.19-0.57-2.29-2.14-2.29c-1.19,0-2.13,1.1-2.13,2.29H173.35z M174.59,8.53c-0.05,0.37-0.4,1.45-1.36,2.1
				c-0.35,0.23-0.85,0.53-2.08,0.53c-2.16,0-3.43-1.63-3.43-3.84c0-2.38,1.14-4.27,3.68-4.27c2.22,0,3.3,1.76,3.3,4.48h-5.61
				c0,1.6,0.75,2.53,2.23,2.53c1.22,0,1.94-0.94,1.98-1.51H174.59z"/>
			<path style="clip-path:url(#SVGID_00000134938690361439589870000013373927207672647583_);" d="M180.58,5.45
				c-0.01-0.49-0.19-1.29-1.82-1.29c-0.4,0-1.53,0.13-1.53,1.09c0,0.63,0.4,0.78,1.4,1.03l1.29,0.32c1.6,0.4,2.16,0.99,2.16,2.03
				c0,1.58-1.31,2.54-3.04,2.54c-3.04,0-3.26-1.76-3.3-2.69h1.25c0.05,0.6,0.22,1.57,2.04,1.57c0.92,0,1.76-0.37,1.76-1.22
				c0-0.61-0.42-0.82-1.53-1.1l-1.5-0.37c-1.07-0.26-1.77-0.8-1.77-1.86c0-1.69,1.39-2.45,2.9-2.45c2.74,0,2.93,2.03,2.93,2.41
				H180.58z"/>
			<path style="clip-path:url(#SVGID_00000134938690361439589870000013373927207672647583_);" d="M83.38,18.24
				c-0.4-1.85-1.94-2.19-2.95-2.19c-1.91,0-3.45,1.41-3.45,4.18c0,2.48,0.88,4.39,3.49,4.39c0.92,0,2.53-0.44,3.01-2.89h1.38
				c-0.59,3.98-3.82,4.15-4.61,4.15c-2.39,0-4.74-1.56-4.74-5.61c0-3.24,1.85-5.49,4.92-5.49c2.71,0,4.12,1.69,4.33,3.45H83.38z"/>
			<path style="clip-path:url(#SVGID_00000134938690361439589870000013373927207672647583_);" d="M90.72,21.68
				c-0.21,0.16-0.53,0.28-2.13,0.48c-0.63,0.09-1.64,0.28-1.64,1.25c0,0.83,0.43,1.33,1.39,1.33c1.2,0,2.38-0.78,2.38-1.81V21.68z
				 M86,20.26c0.06-1.83,1.28-2.55,3.17-2.55c0.62,0,2.85,0.18,2.85,2.14v4.42c0,0.32,0.16,0.46,0.43,0.46
				c0.12,0,0.28-0.03,0.42-0.06v0.94c-0.22,0.06-0.41,0.15-0.7,0.15c-1.14,0-1.32-0.59-1.36-1.17c-0.5,0.54-1.28,1.25-2.77,1.25
				c-1.41,0-2.41-0.9-2.41-2.22c0-0.64,0.19-2.14,2.33-2.41l2.13-0.27c0.31-0.03,0.68-0.15,0.68-0.91c0-0.8-0.59-1.25-1.8-1.25
				c-1.47,0-1.67,0.89-1.76,1.48H86z"/>
			<path style="clip-path:url(#SVGID_00000134938690361439589870000013373927207672647583_);" d="M100.45,25.6h-1.29v-4.73
				c0-1.34-0.38-2.01-1.64-2.01c-0.73,0-2.03,0.47-2.03,2.55v4.18h-1.29v-7.67h1.22v1.09h0.03c0.28-0.41,1-1.31,2.32-1.31
				c1.19,0,2.69,0.49,2.69,2.67V25.6z"/>
			<path style="clip-path:url(#SVGID_00000134938690361439589870000013373927207672647583_);" d="M107.03,21.68
				c-0.21,0.16-0.53,0.28-2.13,0.48c-0.63,0.09-1.64,0.28-1.64,1.25c0,0.83,0.43,1.33,1.4,1.33c1.2,0,2.38-0.78,2.38-1.81V21.68z
				 M102.31,20.26c0.06-1.83,1.28-2.55,3.17-2.55c0.62,0,2.85,0.18,2.85,2.14v4.42c0,0.32,0.16,0.46,0.43,0.46
				c0.12,0,0.28-0.03,0.43-0.06v0.94c-0.22,0.06-0.41,0.15-0.71,0.15c-1.15,0-1.32-0.59-1.36-1.17c-0.5,0.54-1.28,1.25-2.77,1.25
				c-1.41,0-2.41-0.9-2.41-2.22c0-0.64,0.19-2.14,2.33-2.41l2.13-0.27c0.31-0.03,0.68-0.15,0.68-0.91c0-0.8-0.59-1.25-1.81-1.25
				c-1.47,0-1.67,0.89-1.76,1.48H102.31z"/>
			<path style="clip-path:url(#SVGID_00000134938690361439589870000013373927207672647583_);" d="M113.47,24.7
				c0.82,0,2.1-0.54,2.1-2.58c0-1.25-0.21-3.26-2.07-3.26c-2,0-2.1,1.89-2.1,2.88C111.4,23.43,112.06,24.7,113.47,24.7 M116.87,25.6
				h-1.22v-1.06h-0.03c-0.56,1.04-1.44,1.28-2.19,1.28c-2.61,0-3.38-2.45-3.38-4.28c0-2.16,1.16-3.83,3.2-3.83
				c1.39,0,1.98,0.87,2.29,1.31l0.03-0.1v-3.85h1.29V25.6z"/>
			<path style="clip-path:url(#SVGID_00000134938690361439589870000013373927207672647583_);" d="M123.34,21.68
				c-0.2,0.16-0.53,0.28-2.13,0.48c-0.63,0.09-1.64,0.28-1.64,1.25c0,0.83,0.43,1.33,1.39,1.33c1.2,0,2.38-0.78,2.38-1.81V21.68z
				 M118.61,20.26c0.06-1.83,1.28-2.55,3.17-2.55c0.62,0,2.85,0.18,2.85,2.14v4.42c0,0.32,0.16,0.46,0.43,0.46
				c0.12,0,0.28-0.03,0.43-0.06v0.94c-0.22,0.06-0.41,0.15-0.71,0.15c-1.14,0-1.32-0.59-1.36-1.17c-0.5,0.54-1.28,1.25-2.77,1.25
				c-1.41,0-2.41-0.9-2.41-2.22c0-0.64,0.19-2.14,2.33-2.41l2.13-0.27c0.31-0.03,0.68-0.15,0.68-0.91c0-0.8-0.59-1.25-1.81-1.25
				c-1.47,0-1.67,0.89-1.76,1.48H118.61z"/>
		</g>
	</g>
</g>
</svg>
