<?xml version="1.0" encoding="utf-8"?>
<!-- Generator: Adobe Illustrator 26.0.2, SVG Export Plug-In . SVG Version: 6.00 Build 0)  -->
<svg version="1.1" id="Layer_1" xmlns="http://www.w3.org/2000/svg" xmlns:xlink="http://www.w3.org/1999/xlink" x="0px" y="0px"
	 viewBox="0 0 322.26 26" style="enable-background:new 0 0 322.26 26;" xml:space="preserve">
<style type="text/css">
	.st0{clip-path:url(#SVGID_00000070819229340384882510000008302378447345202052_);}
	.st1{clip-path:url(#SVGID_00000092442135624919904650000007205226414813482898_);}
	.st2{clip-path:url(#SVGID_00000092442135624919904650000007205226414813482898_);fill:#EB2D37;}
</style>
<g id="FR_x5F_RGB_x5F_SPC_x5F_SSC_00000163790779124412762690000006029307744539985034_">
	<g>
		<defs>
			<rect id="SVGID_1_" y="0.13" width="322.26" height="25.74"/>
		</defs>
		<clipPath id="SVGID_00000105394318375933481310000011341696725444511367_">
			<use xlink:href="#SVGID_1_"  style="overflow:visible;"/>
		</clipPath>
		<g style="clip-path:url(#SVGID_00000105394318375933481310000011341696725444511367_);">
			<defs>
				<rect id="SVGID_00000042718839076379860250000015696038104018169773_" y="0.13" width="322.26" height="25.74"/>
			</defs>
			<clipPath id="SVGID_00000070824771308856250460000008081998899124095908_">
				<use xlink:href="#SVGID_00000042718839076379860250000015696038104018169773_"  style="overflow:visible;"/>
			</clipPath>
			<path style="clip-path:url(#SVGID_00000070824771308856250460000008081998899124095908_);" d="M222.61,3.49
				c-0.07-1.63-1.42-2.14-2.61-2.14c-0.9,0-2.4,0.25-2.4,1.85c0,0.9,0.63,1.19,1.25,1.34l3.01,0.69c1.36,0.32,2.39,1.14,2.39,2.82
				c0,2.49-2.32,3.18-4.12,3.18c-1.95,0-2.71-0.58-3.18-1.01c-0.9-0.81-1.07-1.69-1.07-2.67h1.34c0,1.91,1.55,2.46,2.9,2.46
				c1.03,0,2.76-0.26,2.76-1.78c0-1.1-0.51-1.45-2.24-1.86l-2.16-0.5c-0.69-0.16-2.24-0.65-2.24-2.48c0-1.64,1.07-3.26,3.62-3.26
				c3.68,0,4.04,2.2,4.1,3.36H222.61z"/>
			<path style="clip-path:url(#SVGID_00000070824771308856250460000008081998899124095908_);" d="M232.12,10.94h-1.29V5.92
				c0-1.04-0.29-1.72-1.53-1.72c-1.06,0-2.14,0.62-2.14,2.55v4.18h-1.29V0.41h1.29V4.3h0.03c0.37-0.49,1.01-1.25,2.25-1.25
				c1.19,0,2.68,0.49,2.68,2.67V10.94z"/>
			<path style="clip-path:url(#SVGID_00000070824771308856250460000008081998899124095908_);" d="M238.7,7.02
				c-0.2,0.16-0.53,0.28-2.13,0.48c-0.63,0.09-1.64,0.28-1.64,1.25c0,0.83,0.42,1.33,1.39,1.33c1.2,0,2.38-0.78,2.38-1.8V7.02z
				 M233.98,5.6c0.06-1.83,1.27-2.55,3.16-2.55c0.62,0,2.84,0.18,2.84,2.14V9.6c0,0.32,0.16,0.46,0.43,0.46
				c0.12,0,0.28-0.03,0.42-0.06v0.94c-0.22,0.06-0.41,0.15-0.7,0.15c-1.14,0-1.32-0.59-1.36-1.17c-0.5,0.54-1.27,1.25-2.77,1.25
				c-1.41,0-2.4-0.89-2.4-2.21c0-0.65,0.19-2.14,2.33-2.4l2.13-0.27c0.31-0.03,0.68-0.14,0.68-0.91c0-0.81-0.59-1.24-1.8-1.24
				c-1.47,0-1.67,0.89-1.76,1.48H233.98z"/>
			<path style="clip-path:url(#SVGID_00000070824771308856250460000008081998899124095908_);" d="M243.63,10.94h-1.29V3.27h1.22
				v1.28h0.03c0.51-0.9,1.19-1.5,2.15-1.5c0.16,0,0.24,0.01,0.34,0.04v1.33h-0.48c-1.2,0-1.97,0.94-1.97,2.05V10.94z"/>
			<path style="clip-path:url(#SVGID_00000070824771308856250460000008081998899124095908_);" d="M252.04,6.49
				c-0.08-1.19-0.57-2.28-2.14-2.28c-1.19,0-2.13,1.1-2.13,2.28H252.04z M253.27,8.53c-0.05,0.37-0.4,1.45-1.36,2.1
				c-0.35,0.23-0.85,0.53-2.08,0.53c-2.16,0-3.43-1.63-3.43-3.84c0-2.37,1.14-4.27,3.68-4.27c2.22,0,3.3,1.76,3.3,4.47h-5.6
				c0,1.6,0.75,2.52,2.23,2.52c1.22,0,1.94-0.94,1.98-1.51H253.27z"/>
			<path style="clip-path:url(#SVGID_00000070824771308856250460000008081998899124095908_);" d="M257.86,10.04
				c0.82,0,2.1-0.54,2.1-2.58c0-1.24-0.2-3.26-2.07-3.26c-2,0-2.1,1.89-2.1,2.88C255.8,8.77,256.46,10.04,257.86,10.04
				 M261.26,10.94h-1.22V9.88h-0.03c-0.56,1.04-1.44,1.28-2.19,1.28c-2.61,0-3.37-2.45-3.37-4.28c0-2.16,1.16-3.83,3.19-3.83
				c1.39,0,1.98,0.86,2.29,1.3l0.03-0.1V0.41h1.29V10.94z"/>
			<path style="clip-path:url(#SVGID_00000070824771308856250460000008081998899124095908_);" d="M273.64,3.49
				c-0.08-1.63-1.43-2.14-2.61-2.14c-0.9,0-2.4,0.25-2.4,1.85c0,0.9,0.63,1.19,1.24,1.34l3.01,0.69c1.36,0.32,2.39,1.14,2.39,2.82
				c0,2.49-2.32,3.18-4.12,3.18c-1.95,0-2.71-0.58-3.18-1.01c-0.89-0.81-1.07-1.69-1.07-2.67h1.34c0,1.91,1.55,2.46,2.9,2.46
				c1.03,0,2.76-0.26,2.76-1.78c0-1.1-0.51-1.45-2.24-1.86l-2.16-0.5c-0.69-0.16-2.24-0.65-2.24-2.48c0-1.64,1.07-3.26,3.62-3.26
				c3.68,0,4.05,2.2,4.11,3.36H273.64z"/>
			<path style="clip-path:url(#SVGID_00000070824771308856250460000008081998899124095908_);" d="M282.17,6.49
				c-0.07-1.19-0.57-2.28-2.14-2.28c-1.19,0-2.13,1.1-2.13,2.28H282.17z M283.41,8.53c-0.05,0.37-0.4,1.45-1.36,2.1
				c-0.36,0.23-0.85,0.53-2.08,0.53c-2.15,0-3.43-1.63-3.43-3.84c0-2.37,1.15-4.27,3.68-4.27c2.22,0,3.3,1.76,3.3,4.47h-5.6
				c0,1.6,0.75,2.52,2.23,2.52c1.22,0,1.94-0.94,1.98-1.51H283.41z"/>
			<path style="clip-path:url(#SVGID_00000070824771308856250460000008081998899124095908_);" d="M286.51,10.94h-1.29V3.27h1.22
				v1.28h0.03c0.51-0.9,1.18-1.5,2.15-1.5c0.16,0,0.24,0.01,0.34,0.04v1.33h-0.48c-1.21,0-1.97,0.94-1.97,2.05V10.94z"/>
			<polygon style="clip-path:url(#SVGID_00000070824771308856250460000008081998899124095908_);" points="295.21,3.27 296.62,3.27 
				293.7,10.94 292.32,10.94 289.52,3.27 291.02,3.27 293.02,9.52 293.04,9.52 			"/>
			<path style="clip-path:url(#SVGID_00000070824771308856250460000008081998899124095908_);" d="M299.01,10.94h-1.29V3.27h1.29
				V10.94z M297.72,0.41h1.29v1.47h-1.29V0.41z"/>
			<path style="clip-path:url(#SVGID_00000070824771308856250460000008081998899124095908_);" d="M305.73,5.85
				c-0.16-1.03-0.73-1.64-1.82-1.64c-1.6,0-2.11,1.53-2.11,2.89c0,1.32,0.32,2.95,2.1,2.95c0.86,0,1.61-0.65,1.83-1.82h1.25
				c-0.13,1.22-0.88,2.93-3.12,2.93c-2.16,0-3.43-1.63-3.43-3.84c0-2.37,1.15-4.27,3.68-4.27c2,0,2.77,1.47,2.87,2.8H305.73z"/>
			<path style="clip-path:url(#SVGID_00000070824771308856250460000008081998899124095908_);" d="M313.55,6.49
				c-0.07-1.19-0.57-2.28-2.14-2.28c-1.19,0-2.13,1.1-2.13,2.28H313.55z M314.77,8.53c-0.04,0.37-0.39,1.45-1.36,2.1
				c-0.35,0.23-0.85,0.53-2.08,0.53c-2.16,0-3.43-1.63-3.43-3.84c0-2.37,1.14-4.27,3.68-4.27c2.22,0,3.3,1.76,3.3,4.47h-5.6
				c0,1.6,0.75,2.52,2.23,2.52c1.22,0,1.94-0.94,1.98-1.51H314.77z"/>
			<path style="clip-path:url(#SVGID_00000070824771308856250460000008081998899124095908_);" d="M320.77,5.45
				c-0.02-0.48-0.19-1.29-1.82-1.29c-0.4,0-1.52,0.13-1.52,1.08c0,0.63,0.4,0.78,1.39,1.03l1.29,0.33c1.6,0.4,2.16,0.98,2.16,2.02
				c0,1.58-1.31,2.54-3.04,2.54c-3.03,0-3.25-1.76-3.3-2.68h1.25c0.04,0.6,0.22,1.57,2.04,1.57c0.92,0,1.76-0.37,1.76-1.22
				c0-0.62-0.42-0.82-1.52-1.1l-1.49-0.37c-1.07-0.26-1.77-0.81-1.77-1.86c0-1.69,1.39-2.45,2.9-2.45c2.74,0,2.93,2.02,2.93,2.4
				H320.77z"/>
			<path style="clip-path:url(#SVGID_00000070824771308856250460000008081998899124095908_);" d="M223.65,18.23
				c-0.39-1.85-1.93-2.18-2.94-2.18c-1.91,0-3.44,1.4-3.44,4.18c0,2.48,0.88,4.38,3.49,4.38c0.92,0,2.52-0.44,3-2.89h1.38
				c-0.59,3.97-3.81,4.15-4.6,4.15c-2.39,0-4.74-1.55-4.74-5.6c0-3.24,1.85-5.48,4.91-5.48c2.71,0,4.12,1.69,4.33,3.44H223.65z"/>
			<path style="clip-path:url(#SVGID_00000070824771308856250460000008081998899124095908_);" d="M230.99,21.67
				c-0.2,0.16-0.53,0.28-2.12,0.49c-0.63,0.09-1.64,0.28-1.64,1.24c0,0.84,0.43,1.34,1.39,1.34c1.2,0,2.37-0.78,2.37-1.8V21.67z
				 M226.27,20.25c0.06-1.84,1.27-2.55,3.16-2.55c0.62,0,2.85,0.18,2.85,2.14v4.41c0,0.32,0.16,0.45,0.42,0.45
				c0.12,0,0.28-0.03,0.43-0.06v0.94c-0.22,0.06-0.41,0.14-0.71,0.14c-1.14,0-1.32-0.59-1.36-1.17c-0.5,0.54-1.28,1.24-2.77,1.24
				c-1.41,0-2.4-0.9-2.4-2.21c0-0.64,0.19-2.14,2.33-2.4l2.13-0.27c0.31-0.03,0.68-0.14,0.68-0.91c0-0.81-0.59-1.25-1.8-1.25
				c-1.47,0-1.67,0.9-1.76,1.48H226.27z"/>
			<path style="clip-path:url(#SVGID_00000070824771308856250460000008081998899124095908_);" d="M240.7,25.59h-1.29v-4.72
				c0-1.33-0.38-2.01-1.64-2.01c-0.73,0-2.03,0.47-2.03,2.55v4.18h-1.29v-7.67h1.22v1.09h0.03c0.28-0.41,1-1.3,2.32-1.3
				c1.19,0,2.68,0.48,2.68,2.67V25.59z"/>
			<path style="clip-path:url(#SVGID_00000070824771308856250460000008081998899124095908_);" d="M247.28,21.67
				c-0.2,0.16-0.53,0.28-2.13,0.49c-0.63,0.09-1.64,0.28-1.64,1.24c0,0.84,0.43,1.34,1.4,1.34c1.2,0,2.37-0.78,2.37-1.8V21.67z
				 M242.56,20.25c0.06-1.84,1.27-2.55,3.17-2.55c0.62,0,2.84,0.18,2.84,2.14v4.41c0,0.32,0.16,0.45,0.42,0.45
				c0.12,0,0.28-0.03,0.43-0.06v0.94c-0.22,0.06-0.41,0.14-0.71,0.14c-1.14,0-1.32-0.59-1.36-1.17c-0.5,0.54-1.28,1.24-2.77,1.24
				c-1.41,0-2.41-0.9-2.41-2.21c0-0.64,0.19-2.14,2.33-2.4l2.13-0.27c0.31-0.03,0.67-0.14,0.67-0.91c0-0.81-0.59-1.25-1.8-1.25
				c-1.47,0-1.67,0.9-1.76,1.48H242.56z"/>
			<path style="clip-path:url(#SVGID_00000070824771308856250460000008081998899124095908_);" d="M253.72,24.69
				c0.82,0,2.09-0.54,2.09-2.58c0-1.24-0.2-3.25-2.07-3.25c-2,0-2.1,1.89-2.1,2.87C251.65,23.42,252.31,24.69,253.72,24.69
				 M257.12,25.59h-1.22v-1.05h-0.03c-0.56,1.04-1.44,1.27-2.19,1.27c-2.61,0-3.37-2.45-3.37-4.28c0-2.16,1.16-3.83,3.2-3.83
				c1.39,0,1.98,0.86,2.28,1.3l0.03-0.11v-3.84h1.29V25.59z"/>
			<path style="clip-path:url(#SVGID_00000070824771308856250460000008081998899124095908_);" d="M263.58,21.67
				c-0.2,0.16-0.53,0.28-2.13,0.49c-0.63,0.09-1.64,0.28-1.64,1.24c0,0.84,0.42,1.34,1.39,1.34c1.2,0,2.38-0.78,2.38-1.8V21.67z
				 M258.86,20.25c0.06-1.84,1.28-2.55,3.17-2.55c0.62,0,2.84,0.18,2.84,2.14v4.41c0,0.32,0.16,0.45,0.43,0.45
				c0.12,0,0.28-0.03,0.43-0.06v0.94c-0.22,0.06-0.41,0.14-0.7,0.14c-1.15,0-1.32-0.59-1.36-1.17c-0.5,0.54-1.28,1.24-2.77,1.24
				c-1.4,0-2.4-0.9-2.4-2.21c0-0.64,0.19-2.14,2.33-2.4l2.13-0.27c0.31-0.03,0.68-0.14,0.68-0.91c0-0.81-0.59-1.25-1.8-1.25
				c-1.47,0-1.67,0.9-1.76,1.48H258.86z"/>
			<path style="clip-path:url(#SVGID_00000070824771308856250460000008081998899124095908_);" d="M82.26,3.49
				c-0.07-1.63-1.42-2.14-2.61-2.14c-0.9,0-2.4,0.25-2.4,1.85c0,0.9,0.63,1.19,1.24,1.34l3.01,0.69c1.36,0.32,2.39,1.14,2.39,2.82
				c0,2.49-2.32,3.18-4.12,3.18c-1.95,0-2.71-0.59-3.18-1.01c-0.9-0.81-1.07-1.69-1.07-2.67h1.34c0,1.91,1.55,2.46,2.9,2.46
				c1.03,0,2.76-0.26,2.76-1.78c0-1.1-0.51-1.45-2.25-1.86l-2.15-0.5c-0.69-0.16-2.24-0.65-2.24-2.48c0-1.64,1.07-3.26,3.62-3.26
				c3.68,0,4.05,2.2,4.1,3.36H82.26z"/>
			<path style="clip-path:url(#SVGID_00000070824771308856250460000008081998899124095908_);" d="M90.8,6.5
				c-0.07-1.19-0.57-2.29-2.14-2.29c-1.19,0-2.13,1.1-2.13,2.29H90.8z M92.03,8.53c-0.04,0.37-0.4,1.45-1.36,2.09
				c-0.35,0.24-0.85,0.53-2.08,0.53c-2.16,0-3.43-1.63-3.43-3.84c0-2.37,1.15-4.26,3.68-4.26c2.22,0,3.3,1.76,3.3,4.47h-5.6
				c0,1.6,0.75,2.52,2.23,2.52c1.22,0,1.94-0.94,1.98-1.51H92.03z"/>
			<path style="clip-path:url(#SVGID_00000070824771308856250460000008081998899124095908_);" d="M95.13,10.94h-1.29V3.27h1.22v1.28
				h0.03c0.51-0.9,1.19-1.5,2.15-1.5c0.16,0,0.24,0.01,0.34,0.04v1.33H97.1c-1.2,0-1.97,0.94-1.97,2.05V10.94z"/>
			<polygon style="clip-path:url(#SVGID_00000070824771308856250460000008081998899124095908_);" points="103.84,3.27 105.24,3.27 
				102.33,10.94 100.95,10.94 98.15,3.27 99.65,3.27 101.64,9.52 101.67,9.52 			"/>
			<path style="clip-path:url(#SVGID_00000070824771308856250460000008081998899124095908_);" d="M107.63,10.94h-1.29V3.27h1.29
				V10.94z M106.34,0.41h1.29v1.47h-1.29V0.41z"/>
			<path style="clip-path:url(#SVGID_00000070824771308856250460000008081998899124095908_);" d="M114.36,5.85
				c-0.16-1.03-0.73-1.64-1.82-1.64c-1.6,0-2.11,1.53-2.11,2.89c0,1.32,0.32,2.95,2.1,2.95c0.86,0,1.61-0.65,1.83-1.82h1.24
				c-0.13,1.22-0.88,2.93-3.12,2.93c-2.16,0-3.43-1.63-3.43-3.84c0-2.37,1.14-4.26,3.68-4.26c2.01,0,2.77,1.47,2.87,2.8H114.36z"/>
			<path style="clip-path:url(#SVGID_00000070824771308856250460000008081998899124095908_);" d="M122.17,6.5
				c-0.07-1.19-0.57-2.29-2.14-2.29c-1.19,0-2.13,1.1-2.13,2.29H122.17z M123.4,8.53c-0.04,0.37-0.4,1.45-1.36,2.09
				c-0.35,0.24-0.85,0.53-2.08,0.53c-2.16,0-3.43-1.63-3.43-3.84c0-2.37,1.14-4.26,3.68-4.26c2.21,0,3.3,1.76,3.3,4.47h-5.6
				c0,1.6,0.75,2.52,2.23,2.52c1.22,0,1.94-0.94,1.98-1.51H123.4z"/>
			<path style="clip-path:url(#SVGID_00000070824771308856250460000008081998899124095908_);" d="M129.39,5.45
				c-0.01-0.48-0.19-1.29-1.82-1.29c-0.4,0-1.53,0.13-1.53,1.08c0,0.63,0.4,0.78,1.4,1.03l1.29,0.32c1.6,0.4,2.15,0.98,2.15,2.02
				c0,1.58-1.31,2.54-3.04,2.54c-3.03,0-3.25-1.76-3.3-2.68h1.25c0.04,0.6,0.22,1.57,2.04,1.57c0.92,0,1.76-0.37,1.76-1.22
				c0-0.62-0.42-0.82-1.53-1.1l-1.49-0.37c-1.07-0.26-1.77-0.81-1.77-1.86c0-1.69,1.39-2.45,2.9-2.45c2.74,0,2.93,2.02,2.93,2.4
				H129.39z"/>
			<path style="clip-path:url(#SVGID_00000070824771308856250460000008081998899124095908_);" d="M139.66,10.04
				c1.41,0,2.07-1.28,2.07-2.96c0-0.98-0.1-2.88-2.1-2.88c-1.86,0-2.07,2.01-2.07,3.25C137.57,9.5,138.84,10.04,139.66,10.04
				 M136.33,3.27h1.22v1.08h0.03c0.31-0.44,0.9-1.3,2.29-1.3c2.04,0,3.2,1.67,3.2,3.83c0,1.83-0.76,4.28-3.37,4.28
				c-1.03,0-1.7-0.48-2.04-1.02h-0.03v3.84h-1.29V3.27z"/>
			<path style="clip-path:url(#SVGID_00000070824771308856250460000008081998899124095908_);" d="M149.26,7.02
				c-0.2,0.16-0.53,0.28-2.12,0.48c-0.63,0.09-1.65,0.28-1.65,1.24c0,0.84,0.43,1.33,1.4,1.33c1.2,0,2.37-0.78,2.37-1.8V7.02z
				 M144.54,5.6c0.06-1.83,1.27-2.55,3.17-2.55c0.62,0,2.84,0.18,2.84,2.14V9.6c0,0.32,0.16,0.46,0.43,0.46
				c0.12,0,0.28-0.03,0.42-0.06v0.94c-0.22,0.06-0.41,0.15-0.7,0.15c-1.14,0-1.32-0.59-1.36-1.17c-0.5,0.54-1.28,1.25-2.77,1.25
				c-1.41,0-2.4-0.89-2.4-2.21c0-0.65,0.19-2.14,2.33-2.41l2.13-0.26c0.31-0.03,0.67-0.15,0.67-0.91c0-0.81-0.59-1.25-1.8-1.25
				c-1.47,0-1.67,0.9-1.76,1.48H144.54z"/>
			<path style="clip-path:url(#SVGID_00000070824771308856250460000008081998899124095908_);" d="M154.2,10.94h-1.29V3.27h1.22v1.28
				h0.03c0.51-0.9,1.19-1.5,2.16-1.5c0.16,0,0.23,0.01,0.34,0.04v1.33h-0.49c-1.2,0-1.96,0.94-1.96,2.05V10.94z"/>
			<path style="clip-path:url(#SVGID_00000070824771308856250460000008081998899124095908_);" d="M159.78,4.34v4.98
				c0,0.6,0.51,0.6,0.78,0.6h0.45v1.01c-0.47,0.04-0.84,0.1-0.97,0.1c-1.28,0-1.56-0.72-1.56-1.64V4.34h-1.04V3.27h1.04V1.13h1.29
				v2.14h1.23v1.07H159.78z"/>
			<path style="clip-path:url(#SVGID_00000070824771308856250460000008081998899124095908_);" d="M166.8,7.02
				c-0.2,0.16-0.53,0.28-2.13,0.48c-0.63,0.09-1.64,0.28-1.64,1.24c0,0.84,0.42,1.33,1.39,1.33c1.2,0,2.38-0.78,2.38-1.8V7.02z
				 M162.08,5.6c0.06-1.83,1.28-2.55,3.17-2.55c0.61,0,2.84,0.18,2.84,2.14V9.6c0,0.32,0.16,0.46,0.43,0.46
				c0.12,0,0.28-0.03,0.43-0.06v0.94c-0.22,0.06-0.41,0.15-0.7,0.15c-1.15,0-1.32-0.59-1.36-1.17c-0.5,0.54-1.27,1.25-2.77,1.25
				c-1.4,0-2.4-0.89-2.4-2.21c0-0.65,0.19-2.14,2.33-2.41l2.13-0.26c0.31-0.03,0.67-0.15,0.67-0.91c0-0.81-0.58-1.25-1.8-1.25
				c-1.47,0-1.67,0.9-1.76,1.48H162.08z"/>
			<path style="clip-path:url(#SVGID_00000070824771308856250460000008081998899124095908_);" d="M173.3,10.04
				c0.82,0,2.09-0.54,2.09-2.58c0-1.24-0.2-3.26-2.07-3.26c-2,0-2.1,1.89-2.1,2.88C171.23,8.77,171.9,10.04,173.3,10.04
				 M176.63,10.31c0,1.1-0.01,3.85-3.56,3.85c-0.91,0-2.68-0.25-2.93-2.28h1.29c0.23,1.22,1.42,1.22,1.73,1.22
				c2.23,0,2.19-1.79,2.19-2.7v-0.32h-0.03v0.06c-0.34,0.54-1.01,1.02-2.04,1.02c-2.61,0-3.37-2.44-3.37-4.28
				c0-2.15,1.16-3.83,3.19-3.83c1.39,0,1.98,0.86,2.29,1.3h0.03V3.27h1.22V10.31z"/>
			<path style="clip-path:url(#SVGID_00000070824771308856250460000008081998899124095908_);" d="M181.87,2.24h-0.98l1.3-2.07h1.59
				L181.87,2.24z M183.69,6.5c-0.07-1.19-0.57-2.29-2.14-2.29c-1.19,0-2.13,1.1-2.13,2.29H183.69z M184.92,8.53
				c-0.04,0.37-0.4,1.45-1.37,2.09c-0.35,0.24-0.85,0.53-2.08,0.53c-2.16,0-3.43-1.63-3.43-3.84c0-2.37,1.15-4.26,3.68-4.26
				c2.21,0,3.3,1.76,3.3,4.47h-5.6c0,1.6,0.75,2.52,2.23,2.52c1.22,0,1.93-0.94,1.98-1.51H184.92z"/>
			<path style="clip-path:url(#SVGID_00000070824771308856250460000008081998899124095908_);" d="M190.92,5.45
				c-0.02-0.48-0.19-1.29-1.82-1.29c-0.4,0-1.53,0.13-1.53,1.08c0,0.63,0.4,0.78,1.4,1.03l1.29,0.32c1.6,0.4,2.16,0.98,2.16,2.02
				c0,1.58-1.31,2.54-3.04,2.54c-3.03,0-3.25-1.76-3.3-2.68h1.25c0.04,0.6,0.22,1.57,2.04,1.57c0.92,0,1.76-0.37,1.76-1.22
				c0-0.62-0.43-0.82-1.53-1.1l-1.49-0.37c-1.07-0.26-1.77-0.81-1.77-1.86c0-1.69,1.39-2.45,2.9-2.45c2.75,0,2.93,2.02,2.93,2.4
				H190.92z"/>
			<path style="clip-path:url(#SVGID_00000070824771308856250460000008081998899124095908_);" d="M83.3,18.23
				c-0.4-1.85-1.93-2.18-2.95-2.18c-1.91,0-3.44,1.4-3.44,4.18c0,2.48,0.88,4.38,3.49,4.38c0.92,0,2.52-0.44,3.01-2.89h1.38
				c-0.59,3.97-3.81,4.15-4.6,4.15c-2.39,0-4.74-1.55-4.74-5.6c0-3.24,1.85-5.48,4.91-5.48c2.71,0,4.12,1.69,4.33,3.44H83.3z"/>
			<path style="clip-path:url(#SVGID_00000070824771308856250460000008081998899124095908_);" d="M90.63,21.67
				c-0.2,0.16-0.53,0.28-2.12,0.49c-0.63,0.09-1.65,0.28-1.65,1.24c0,0.84,0.43,1.34,1.4,1.34c1.2,0,2.37-0.78,2.37-1.8V21.67z
				 M85.92,20.25c0.06-1.84,1.27-2.55,3.17-2.55c0.62,0,2.84,0.17,2.84,2.14v4.41c0,0.32,0.16,0.45,0.43,0.45
				c0.12,0,0.28-0.03,0.42-0.06v0.94c-0.22,0.06-0.41,0.14-0.7,0.14c-1.14,0-1.32-0.59-1.36-1.17c-0.5,0.54-1.28,1.24-2.77,1.24
				c-1.41,0-2.4-0.9-2.4-2.21c0-0.64,0.19-2.14,2.33-2.4l2.13-0.26c0.31-0.03,0.67-0.14,0.67-0.91c0-0.81-0.58-1.25-1.8-1.25
				c-1.47,0-1.67,0.9-1.76,1.48H85.92z"/>
			<path style="clip-path:url(#SVGID_00000070824771308856250460000008081998899124095908_);" d="M100.35,25.59h-1.29v-4.72
				c0-1.33-0.38-2.01-1.64-2.01c-0.73,0-2.02,0.47-2.02,2.55v4.18h-1.29v-7.67h1.22v1.09h0.03c0.28-0.41,1-1.3,2.32-1.3
				c1.19,0,2.68,0.48,2.68,2.67V25.59z"/>
			<path style="clip-path:url(#SVGID_00000070824771308856250460000008081998899124095908_);" d="M106.93,21.67
				c-0.2,0.16-0.53,0.28-2.12,0.49c-0.63,0.09-1.64,0.28-1.64,1.24c0,0.84,0.43,1.34,1.39,1.34c1.2,0,2.37-0.78,2.37-1.8V21.67z
				 M102.21,20.25c0.06-1.84,1.27-2.55,3.17-2.55c0.62,0,2.84,0.17,2.84,2.14v4.41c0,0.32,0.16,0.45,0.43,0.45
				c0.12,0,0.28-0.03,0.42-0.06v0.94c-0.22,0.06-0.41,0.14-0.7,0.14c-1.14,0-1.32-0.59-1.36-1.17c-0.5,0.54-1.28,1.24-2.77,1.24
				c-1.41,0-2.4-0.9-2.4-2.21c0-0.64,0.19-2.14,2.33-2.4l2.13-0.26c0.31-0.03,0.67-0.14,0.67-0.91c0-0.81-0.58-1.25-1.8-1.25
				c-1.47,0-1.67,0.9-1.76,1.48H102.21z"/>
			<path style="clip-path:url(#SVGID_00000070824771308856250460000008081998899124095908_);" d="M113.36,24.69
				c0.82,0,2.1-0.54,2.1-2.58c0-1.25-0.2-3.25-2.07-3.25c-2,0-2.1,1.89-2.1,2.87C111.29,23.42,111.96,24.69,113.36,24.69
				 M116.76,25.59h-1.22v-1.05h-0.03c-0.56,1.04-1.44,1.27-2.18,1.27c-2.61,0-3.37-2.45-3.37-4.28c0-2.16,1.16-3.83,3.2-3.83
				c1.39,0,1.98,0.86,2.28,1.3l0.03-0.11v-3.84h1.29V25.59z"/>
			<path style="clip-path:url(#SVGID_00000070824771308856250460000008081998899124095908_);" d="M123.22,21.67
				c-0.2,0.16-0.53,0.28-2.12,0.49c-0.63,0.09-1.65,0.28-1.65,1.24c0,0.84,0.43,1.34,1.4,1.34c1.2,0,2.37-0.78,2.37-1.8V21.67z
				 M118.5,20.25c0.06-1.84,1.27-2.55,3.17-2.55c0.62,0,2.84,0.17,2.84,2.14v4.41c0,0.32,0.16,0.45,0.43,0.45
				c0.12,0,0.28-0.03,0.42-0.06v0.94c-0.22,0.06-0.41,0.14-0.7,0.14c-1.14,0-1.32-0.59-1.36-1.17c-0.5,0.54-1.28,1.24-2.77,1.24
				c-1.41,0-2.41-0.9-2.41-2.21c0-0.64,0.19-2.14,2.33-2.4l2.13-0.26c0.31-0.03,0.67-0.14,0.67-0.91c0-0.81-0.59-1.25-1.8-1.25
				c-1.47,0-1.67,0.9-1.76,1.48H118.5z"/>
			
				<rect y="0.42" style="clip-path:url(#SVGID_00000070824771308856250460000008081998899124095908_);fill:#EB2D37;" width="12.41" height="25.27"/>
			
				<rect x="39.94" y="0.42" style="clip-path:url(#SVGID_00000070824771308856250460000008081998899124095908_);fill:#EB2D37;" width="12.41" height="25.27"/>
			<path style="clip-path:url(#SVGID_00000070824771308856250460000008081998899124095908_);fill:#EB2D37;" d="M24.45,5.67
				l1.77-3.61l1.76,3.48c0.22,0.37,0.4,0.34,0.75,0.16l1.51-0.75L29.26,9.8c-0.2,0.95,0.34,1.23,0.92,0.59l2.15-2.3l0.57,1.31
				c0.19,0.4,0.48,0.34,0.86,0.26l2.23-0.47L35.26,12l-0.02,0.06c-0.09,0.37-0.26,0.68,0.15,0.85l0.79,0.39l-4.59,3.89
				c-0.47,0.48-0.31,0.63-0.13,1.17l0.42,1.31l-4.28-0.78c-0.53-0.13-0.9-0.13-0.91,0.29l0.18,4.92h-1.29l0.18-4.9
				c0-0.48-0.37-0.47-1.23-0.29l-3.96,0.76l0.51-1.31c0.17-0.49,0.22-0.84-0.18-1.17l-4.69-3.83l0.87-0.53
				c0.25-0.19,0.26-0.4,0.13-0.82l-0.88-2.86l2.26,0.48c0.63,0.14,0.8,0,0.97-0.35L20.18,8l2.23,2.53c0.4,0.47,0.95,0.16,0.78-0.52
				l-1.07-5.26l1.66,0.95c0.26,0.16,0.54,0.21,0.7-0.1"/>
		</g>
	</g>
</g>
</svg>
