<?xml version="1.0" encoding="utf-8"?>
<!-- Generator: Adobe Illustrator 27.1.1, SVG Export Plug-In . SVG Version: 6.00 Build 0)  -->
<svg version="1.1" id="French" xmlns="http://www.w3.org/2000/svg" xmlns:xlink="http://www.w3.org/1999/xlink" x="0px" y="0px"
	 viewBox="0 0 207.3 22.5" style="enable-background:new 0 0 207.3 22.5;" xml:space="preserve">
<style type="text/css">
	.st0{fill:none;}
	.st1{fill-rule:evenodd;clip-rule:evenodd;fill:#ED1C24;}
	.st2{fill:#231F20;}
</style>
<g id="_55_Normal">
	<rect x="42.1" y="1" class="st0" width="18.6" height="34.4"/>
	<rect x="42.1" y="1" class="st0" width="18.6" height="34.4"/>
	<rect x="116.5" y="1" class="st0" width="18.6" height="34.4"/>
	<g>
		<path class="st1" d="M21.1,2.5c0,0-1.3,2.5-1.5,2.8c-0.2,0.3-0.4,0.3-0.6,0.2c-0.4-0.2-1.4-0.8-1.4-0.8s1,4.2,1,4.5
			c0.1,0.4-0.3,0.6-0.6,0.4C17.8,9.4,16,7.4,16,7.4s-0.4,0.9-0.5,1.1c-0.1,0.2-0.2,0.4-0.4,0.3c-0.4-0.1-2-0.4-2-0.4
			s0.6,2.1,0.7,2.3c0.1,0.2,0.2,0.4-0.2,0.6L13,11.5c0,0,3.6,3.1,3.7,3.2c0.2,0.2,0.4,0.3,0.2,0.8c-0.2,0.5-0.4,1.2-0.4,1.2
			s3.3-0.7,3.7-0.8c0.3,0,0.6,0.1,0.6,0.4s-0.2,3.9-0.2,3.9h1c0,0-0.2-3.6-0.2-3.9s0.3-0.5,0.6-0.4c0.4,0.1,3.7,0.8,3.7,0.8
			s-0.2-0.7-0.4-1.2c-0.2-0.5,0-0.6,0.2-0.8c0.1-0.1,3.7-3.2,3.7-3.2l-0.6-0.3c-0.4-0.2-0.3-0.4-0.2-0.6c0.1-0.3,0.7-2.3,0.7-2.3
			s-1.7,0.4-2,0.4c-0.3,0.1-0.4-0.1-0.4-0.3c-0.1-0.2-0.5-1.1-0.5-1.1s-1.8,2.1-1.9,2.2c-0.4,0.3-0.7,0-0.6-0.4c0-0.4,1-4.5,1-4.5
			s-1,0.6-1.4,0.8c-0.3,0.2-0.4,0.2-0.6-0.2C22.4,5,21.1,2.5,21.1,2.5L21.1,2.5L21.1,2.5z"/>
		<polygon class="st1" points="10.5,21.9 10.5,1 0,1 0,21.9 10.5,21.9 		"/>
		<polygon class="st1" points="42.1,21.9 42.1,1 31.6,1 31.6,21.9 42.1,21.9 		"/>
	</g>
	<g>
		<path class="st2" d="M65.7,3.5c-0.1-1.2-0.9-1.8-2.1-1.8c-1,0-1.9,0.3-1.9,1.5c0,1.1,1.4,1.2,2.8,1.5c1.4,0.3,2.7,0.8,2.7,2.5
			c0,1.8-1.8,2.6-3.3,2.6c-1.9,0-3.5-0.9-3.5-3h1.1c0,1.4,1.2,2.1,2.5,2.1c1,0,2.2-0.3,2.2-1.6s-1.4-1.4-2.7-1.7s-2.8-0.7-2.8-2.3
			c0-1.7,1.5-2.5,3.1-2.5c1.7,0,3.1,0.8,3.1,2.7L65.7,3.5L65.7,3.5z"/>
		<path class="st2" d="M69.8,3.3H71v0.9h-1.2v3.9c0,0.5,0.1,0.6,0.8,0.6H71v0.9h-0.8c-1.1,0-1.5-0.2-1.5-1.4V4.2h-1.1V3.3h1.1V1.5h1
			L69.8,3.3L69.8,3.3z"/>
		<path class="st2" d="M77.6,9.5c-0.2,0.1-0.4,0.2-0.7,0.2c-0.5,0-0.9-0.3-0.9-1c-0.6,0.7-1.3,1-2.2,1c-1.1,0-2.1-0.5-2.1-1.7
			c0-1.4,1-1.7,2.1-1.9C75,5.8,76,5.9,76,5.1c0-0.9-0.7-1-1.4-1c-0.9,0-1.5,0.3-1.6,1.2h-1c0.1-1.5,1.2-2.1,2.6-2.1
			c1.1,0,2.3,0.2,2.3,1.7v3.2c0,0.5,0,0.7,0.3,0.7c0.1,0,0.2,0,0.3-0.1L77.6,9.5L77.6,9.5z M76,6.3c-0.4,0.3-1.2,0.3-1.8,0.4
			c-0.7,0.1-1.2,0.4-1.2,1.1c0,0.7,0.6,0.9,1.2,0.9c1.3,0,1.9-0.8,1.9-1.4V6.3L76,6.3z"/>
		<path class="st2" d="M80,3.3h1.2v0.9H80v3.9c0,0.5,0.1,0.6,0.8,0.6h0.5v0.9h-0.8c-1.1,0-1.5-0.2-1.5-1.4V4.2h-1.1V3.3H79V1.5h1
			L80,3.3L80,3.3z"/>
		<path class="st2" d="M83.4,2.2h-1V1h1V2.2z M82.4,3.3h1v6.2h-1C82.4,9.5,82.4,3.3,82.4,3.3z"/>
		<path class="st2" d="M85.6,7.6c0,0.9,0.8,1.2,1.7,1.2c0.6,0,1.5-0.1,1.5-0.9s-1-0.9-2-1.2c-1-0.2-2-0.6-2-1.8
			c0-1.2,1.2-1.8,2.3-1.8c1.4,0,2.5,0.4,2.5,1.9h-1c-0.1-0.8-0.8-1-1.4-1c-0.6,0-1.3,0.2-1.3,0.8c0,0.7,1.1,0.8,2,1.1
			c1,0.2,2,0.6,2,1.8c0,1.5-1.4,2-2.6,2c-1.4,0-2.6-0.6-2.6-2.1L85.6,7.6L85.6,7.6z"/>
		<path class="st2" d="M92.4,3.3h1.2v0.9h-1.2v3.9c0,0.5,0.1,0.6,0.8,0.6h0.5v0.9h-0.8c-1.1,0-1.5-0.2-1.5-1.4V4.2h-1.1V3.3h1.1V1.5
			h1L92.4,3.3L92.4,3.3z"/>
		<path class="st2" d="M95.9,2.2h-1V1h1V2.2z M94.9,3.3h1v6.2h-1C94.9,9.5,94.9,3.3,94.9,3.3z"/>
		<path class="st2" d="M103,11.9h-1V8.7h0c-0.3,0.7-1.1,1-2,1c-1.9,0-2.8-1.5-2.8-3.3s0.9-3.2,2.8-3.2c0.6,0,1.6,0.2,2,1h0V3.3h1
			V11.9z M100.1,8.8c1.4,0,1.9-1.2,1.9-2.3c0-1.2-0.6-2.3-2-2.3s-1.9,1.2-1.9,2.4S98.8,8.8,100.1,8.8z"/>
		<path class="st2" d="M109.7,9.5h-1v-1h0c-0.4,0.8-1.1,1.1-2,1.1c-1.6,0-2.1-0.9-2.1-2.3V3.3h1v4.2c0,0.8,0.5,1.2,1.3,1.2
			c1.2,0,1.8-0.8,1.8-1.9V3.3h1L109.7,9.5L109.7,9.5z"/>
		<path class="st2" d="M116.5,7.6c-0.3,1.4-1.3,2.1-2.7,2.1c-2,0-2.9-1.4-3-3.3c0-1.9,1.2-3.2,2.9-3.2c2.2,0,2.9,2,2.8,3.5H112
			c0,1.1,0.6,2,1.9,2c0.8,0,1.4-0.4,1.6-1.2L116.5,7.6L116.5,7.6z M115.5,5.8c-0.1-1-0.8-1.8-1.8-1.8c-1.1,0-1.7,0.8-1.8,1.8H115.5z
			"/>
		<path class="st2" d="M66.8,15.9c-0.2-1.2-1.2-1.8-2.4-1.8c-2,0-2.9,1.7-2.9,3.5c0,2,0.9,3.6,2.9,3.6c1.5,0,2.4-1,2.5-2.5H68
			c-0.2,2.1-1.6,3.4-3.7,3.4c-2.7,0-4-2-4-4.5s1.4-4.5,4.1-4.5c1.8,0,3.3,1,3.5,2.8L66.8,15.9L66.8,15.9z"/>
		<path class="st2" d="M74.7,21.9C74.6,22,74.3,22,74,22c-0.5,0-0.9-0.3-0.9-1c-0.6,0.7-1.3,1-2.2,1c-1.1,0-2.1-0.5-2.1-1.7
			c0-1.4,1-1.7,2.1-1.9c1.1-0.2,2.1-0.1,2.1-0.9c0-0.9-0.7-1-1.4-1c-0.9,0-1.5,0.3-1.6,1.2h-1c0.1-1.5,1.2-2.1,2.6-2.1
			c1.1,0,2.3,0.2,2.3,1.7v3.2c0,0.5,0,0.7,0.3,0.7c0.1,0,0.2,0,0.3-0.1L74.7,21.9L74.7,21.9z M73.1,18.7c-0.4,0.3-1.2,0.3-1.8,0.4
			c-0.7,0.1-1.2,0.4-1.2,1.1c0,0.7,0.6,0.9,1.2,0.9c1.3,0,1.9-0.8,1.9-1.4V18.7L73.1,18.7z"/>
		<path class="st2" d="M75.7,15.7h1v1h0c0.4-0.8,1.1-1.1,2-1.1c1.6,0,2.1,0.9,2.1,2.3v4.1h-1v-4.2c0-0.8-0.5-1.2-1.3-1.2
			c-1.2,0-1.8,0.8-1.8,1.9v3.5h-1L75.7,15.7L75.7,15.7z"/>
		<path class="st2" d="M87.8,21.9C87.7,22,87.4,22,87.1,22c-0.5,0-0.9-0.3-0.9-1c-0.6,0.7-1.3,1-2.2,1c-1.1,0-2.1-0.5-2.1-1.7
			c0-1.4,1-1.7,2.1-1.9c1.1-0.2,2.1-0.1,2.1-0.9c0-0.9-0.7-1-1.4-1c-0.9,0-1.5,0.3-1.6,1.2h-1c0.1-1.5,1.2-2.1,2.6-2.1
			c1.1,0,2.3,0.2,2.3,1.7v3.2c0,0.5,0,0.7,0.3,0.7c0.1,0,0.2,0,0.3-0.1L87.8,21.9L87.8,21.9z M86.2,18.7C85.8,19,85,19,84.3,19.1
			c-0.7,0.1-1.2,0.4-1.2,1.1c0,0.7,0.6,0.9,1.2,0.9c1.3,0,1.9-0.8,1.9-1.4V18.7L86.2,18.7z"/>
		<path class="st2" d="M94.3,21.9h-1V21h0c-0.3,0.7-1.1,1-2,1c-1.9,0-2.8-1.5-2.8-3.3s0.9-3.2,2.8-3.2c0.6,0,1.6,0.2,2,1h0v-3.2h1
			V21.9L94.3,21.9z M91.5,21.1c1.4,0,1.9-1.2,1.9-2.3c0-1.2-0.6-2.4-2-2.4s-1.9,1.2-1.9,2.4S90.1,21.1,91.5,21.1z"/>
		<path class="st2" d="M101.4,21.9c-0.2,0.1-0.4,0.2-0.7,0.2c-0.5,0-0.9-0.3-0.9-1c-0.6,0.7-1.3,1-2.2,1c-1.1,0-2.1-0.5-2.1-1.7
			c0-1.4,1-1.7,2.1-1.9c1.1-0.2,2.1-0.1,2.1-0.9c0-0.9-0.7-1-1.4-1c-0.9,0-1.5,0.3-1.6,1.2h-1c0.1-1.5,1.2-2.1,2.6-2.1
			c1.1,0,2.3,0.2,2.3,1.7v3.2c0,0.5,0,0.7,0.3,0.7c0.1,0,0.2,0,0.3-0.1L101.4,21.9L101.4,21.9z M99.7,18.7c-0.4,0.3-1.2,0.3-1.8,0.4
			c-0.7,0.1-1.2,0.4-1.2,1.1c0,0.7,0.6,0.9,1.2,0.9c1.3,0,1.9-0.8,1.9-1.4V18.7L99.7,18.7z"/>
	</g>
	<g>
		<path class="st2" d="M140.1,3.5c-0.1-1.2-0.9-1.8-2.1-1.8c-1,0-1.9,0.3-1.9,1.5c0,1.1,1.4,1.2,2.8,1.5c1.4,0.3,2.7,0.8,2.7,2.5
			c0,1.8-1.8,2.6-3.4,2.6c-1.9,0-3.5-0.9-3.5-3h1.1c0,1.4,1.2,2.1,2.5,2.1c1,0,2.2-0.3,2.2-1.6s-1.4-1.4-2.7-1.7s-2.8-0.7-2.8-2.3
			c0-1.7,1.6-2.5,3.1-2.5c1.8,0,3.1,0.8,3.1,2.7L140.1,3.5L140.1,3.5z"/>
		<path class="st2" d="M144.1,3.3h1.2v0.9h-1.2v3.9c0,0.5,0.1,0.6,0.8,0.6h0.5v0.9h-0.8c-1.1,0-1.5-0.2-1.5-1.4V4.2h-1.1V3.3h1.1
			V1.5h1L144.1,3.3L144.1,3.3z"/>
		<path class="st2" d="M152,9.5c-0.2,0.1-0.4,0.2-0.7,0.2c-0.5,0-0.9-0.3-0.9-1c-0.6,0.7-1.3,1-2.2,1c-1.1,0-2.1-0.5-2.1-1.7
			c0-1.4,1-1.7,2.1-1.9c1.1-0.2,2.1-0.1,2.1-0.9c0-0.9-0.7-1-1.4-1c-0.9,0-1.5,0.3-1.6,1.2h-1c0.1-1.5,1.2-2.1,2.6-2.1
			c1.1,0,2.3,0.2,2.3,1.7v3.2c0,0.5,0,0.7,0.3,0.7c0.1,0,0.2,0,0.3-0.1L152,9.5L152,9.5z M150.3,6.3c-0.4,0.3-1.2,0.3-1.9,0.4
			c-0.7,0.1-1.2,0.4-1.2,1.1c0,0.7,0.6,0.9,1.2,0.9c1.3,0,1.9-0.8,1.9-1.4L150.3,6.3L150.3,6.3z"/>
		<path class="st2" d="M154.4,3.3h1.2v0.9h-1.2v3.9c0,0.5,0.1,0.6,0.8,0.6h0.5v0.9h-0.8c-1.1,0-1.5-0.2-1.5-1.4V4.2h-1.1V3.3h1.1
			V1.5h1L154.4,3.3L154.4,3.3z"/>
		<path class="st2" d="M157.8,2.2h-1V1h1V2.2z M156.8,3.3h1v6.2h-1C156.8,9.5,156.8,3.3,156.8,3.3z"/>
		<path class="st2" d="M160,7.6c0,0.9,0.8,1.2,1.7,1.2c0.6,0,1.5-0.1,1.5-0.9s-1-0.9-2-1.2c-1-0.2-2-0.6-2-1.8
			c0-1.2,1.2-1.8,2.3-1.8c1.4,0,2.5,0.4,2.5,1.9h-1c-0.1-0.8-0.8-1-1.4-1c-0.6,0-1.3,0.2-1.3,0.8c0,0.7,1.1,0.8,2,1.1
			c1,0.2,2,0.6,2,1.8c0,1.5-1.4,2-2.6,2c-1.4,0-2.6-0.6-2.6-2.1L160,7.6L160,7.6z"/>
		<path class="st2" d="M166.8,3.3h1.2v0.9h-1.2v3.9c0,0.5,0.1,0.6,0.8,0.6h0.5v0.9h-0.8c-1.1,0-1.5-0.2-1.5-1.4V4.2h-1.1V3.3h1.1
			V1.5h1L166.8,3.3L166.8,3.3z"/>
		<path class="st2" d="M170.3,2.2h-1V1h1V2.2z M169.2,3.3h1v6.2h-1C169.2,9.5,169.2,3.3,169.2,3.3z"/>
		<path class="st2" d="M176.1,5.3c-0.2-0.8-0.7-1.2-1.5-1.2c-1.5,0-1.9,1.2-1.9,2.4c0,1.1,0.5,2.3,1.8,2.3c1,0,1.6-0.6,1.7-1.5h1
			c-0.2,1.5-1.2,2.4-2.7,2.4c-1.9,0-2.9-1.3-2.9-3.2s1-3.3,2.9-3.3c1.4,0,2.5,0.7,2.7,2.1C177.1,5.3,176.1,5.3,176.1,5.3z"/>
		<path class="st2" d="M178.9,7.6c0,0.9,0.8,1.2,1.7,1.2c0.6,0,1.5-0.1,1.5-0.9s-1-0.9-2-1.2c-1-0.2-2-0.6-2-1.8
			c0-1.2,1.2-1.8,2.3-1.8c1.4,0,2.5,0.4,2.5,1.9h-1c-0.1-0.8-0.8-1-1.4-1c-0.6,0-1.3,0.2-1.3,0.8c0,0.7,1.1,0.8,2,1.1
			c1,0.2,2,0.6,2,1.8c0,1.5-1.4,2-2.6,2c-1.4,0-2.6-0.6-2.6-2.1L178.9,7.6L178.9,7.6z"/>
		<path class="st2" d="M141.1,15.9c-0.2-1.2-1.2-1.8-2.4-1.8c-2,0-2.9,1.7-2.9,3.5c0,2,0.9,3.6,2.9,3.6c1.5,0,2.4-1,2.5-2.5h1.1
			c-0.2,2.1-1.6,3.4-3.7,3.4c-2.7,0-4-2-4-4.5s1.4-4.5,4.1-4.5c1.8,0,3.3,1,3.5,2.8L141.1,15.9L141.1,15.9z"/>
		<path class="st2" d="M149.1,21.9c-0.2,0.1-0.4,0.2-0.7,0.2c-0.5,0-0.9-0.3-0.9-1c-0.6,0.7-1.3,1-2.2,1c-1.1,0-2.1-0.5-2.1-1.7
			c0-1.4,1-1.7,2.1-1.9c1.1-0.2,2.1-0.1,2.1-0.9c0-0.9-0.7-1-1.4-1c-0.9,0-1.5,0.3-1.6,1.2h-1c0.1-1.5,1.2-2.1,2.6-2.1
			c1.1,0,2.3,0.2,2.3,1.7v3.2c0,0.5,0,0.7,0.3,0.7c0.1,0,0.2,0,0.3-0.1L149.1,21.9L149.1,21.9z M147.5,18.7
			c-0.4,0.3-1.2,0.3-1.9,0.4c-0.7,0.1-1.2,0.4-1.2,1.1c0,0.7,0.6,0.9,1.2,0.9c1.3,0,1.9-0.8,1.9-1.4L147.5,18.7L147.5,18.7z"/>
		<path class="st2" d="M150.1,15.7h1v1h0c0.4-0.8,1.1-1.1,2-1.1c1.6,0,2.1,0.9,2.1,2.3v4.1h-1v-4.2c0-0.8-0.5-1.2-1.3-1.2
			c-1.2,0-1.8,0.8-1.8,1.9v3.5h-1L150.1,15.7L150.1,15.7z"/>
		<path class="st2" d="M162.2,21.9c-0.2,0.1-0.4,0.2-0.7,0.2c-0.5,0-0.9-0.3-0.9-1c-0.6,0.7-1.3,1-2.2,1c-1.1,0-2.1-0.5-2.1-1.7
			c0-1.4,1-1.7,2.1-1.9c1.1-0.2,2.1-0.1,2.1-0.9c0-0.9-0.7-1-1.4-1c-0.9,0-1.5,0.3-1.6,1.2h-1c0.1-1.5,1.2-2.1,2.6-2.1
			c1.1,0,2.3,0.2,2.3,1.7v3.2c0,0.5,0,0.7,0.3,0.7c0.1,0,0.2,0,0.3-0.1L162.2,21.9L162.2,21.9z M160.6,18.7
			c-0.4,0.3-1.2,0.3-1.9,0.4c-0.7,0.1-1.2,0.4-1.2,1.1c0,0.7,0.6,0.9,1.2,0.9c1.3,0,1.9-0.8,1.9-1.4L160.6,18.7L160.6,18.7z"/>
		<path class="st2" d="M168.7,21.9h-1V21h0c-0.3,0.7-1.1,1-2,1c-1.9,0-2.9-1.5-2.9-3.3s0.9-3.2,2.8-3.2c0.6,0,1.6,0.2,2,1h0v-3.2h1
			V21.9L168.7,21.9z M165.8,21.1c1.4,0,1.9-1.2,1.9-2.3c0-1.2-0.6-2.4-2-2.4s-1.9,1.2-1.9,2.4S164.5,21.1,165.8,21.1L165.8,21.1z"/>
		<path class="st2" d="M175.8,21.9c-0.2,0.1-0.4,0.2-0.7,0.2c-0.5,0-0.9-0.3-0.9-1c-0.6,0.7-1.3,1-2.2,1c-1.1,0-2.1-0.5-2.1-1.7
			c0-1.4,1-1.7,2.1-1.9c1.1-0.2,2.1-0.1,2.1-0.9c0-0.9-0.7-1-1.4-1c-0.9,0-1.5,0.3-1.6,1.2h-1c0.1-1.5,1.2-2.1,2.6-2.1
			c1.1,0,2.3,0.2,2.3,1.7v3.2c0,0.5,0,0.7,0.3,0.7c0.1,0,0.2,0,0.3-0.1L175.8,21.9L175.8,21.9z M174.1,18.7
			c-0.4,0.3-1.2,0.3-1.9,0.4c-0.7,0.1-1.2,0.4-1.2,1.1c0,0.7,0.6,0.9,1.2,0.9c1.3,0,1.9-0.8,1.9-1.4L174.1,18.7L174.1,18.7z"/>
	</g>
</g>
</svg>
