<?xml version="1.0" encoding="utf-8"?>
<!-- Generator: Adobe Illustrator 27.1.1, SVG Export Plug-In . SVG Version: 6.00 Build 0)  -->
<svg version="1.1" id="English" xmlns="http://www.w3.org/2000/svg" xmlns:xlink="http://www.w3.org/1999/xlink" x="0px" y="0px"
	 viewBox="0 0 207.3 22.8" style="enable-background:new 0 0 207.3 22.8;" xml:space="preserve">
<style type="text/css">
	.st0{fill:none;}
	.st1{fill-rule:evenodd;clip-rule:evenodd;fill:#ED1C24;}
	.st2{fill:#231F20;}
</style>
<g id="_55_Normal">
	<rect x="42.1" y="1.4" class="st0" width="18.6" height="34.4"/>
	<rect x="108.5" y="1.4" class="st0" width="18.6" height="34.4"/>
	<g>
		<path class="st1" d="M21.1,3c0,0-1.3,2.5-1.5,2.8c-0.2,0.3-0.4,0.3-0.6,0.2c-0.4-0.2-1.4-0.8-1.4-0.8s1,4.2,1,4.5
			c0.1,0.4-0.3,0.6-0.6,0.4C17.8,9.9,16,7.8,16,7.8s-0.4,0.9-0.5,1.1c-0.1,0.2-0.2,0.4-0.4,0.3c-0.4-0.1-2-0.4-2-0.4
			s0.6,2.1,0.7,2.3c0.1,0.2,0.2,0.4-0.2,0.6L13,12c0,0,3.6,3.1,3.7,3.2c0.2,0.2,0.4,0.3,0.2,0.8c-0.2,0.5-0.4,1.2-0.4,1.2
			s3.3-0.7,3.7-0.8c0.3,0,0.6,0.1,0.6,0.4s-0.2,3.9-0.2,3.9h1c0,0-0.2-3.6-0.2-3.9s0.3-0.5,0.6-0.4c0.4,0.1,3.7,0.8,3.7,0.8
			s-0.2-0.7-0.4-1.2c-0.2-0.5,0-0.6,0.2-0.8c0.1-0.1,3.7-3.2,3.7-3.2l-0.6-0.3c-0.4-0.2-0.3-0.4-0.2-0.6c0.1-0.3,0.7-2.3,0.7-2.3
			s-1.7,0.4-2,0.4c-0.3,0.1-0.4-0.1-0.4-0.3c-0.1-0.2-0.5-1.1-0.5-1.1s-1.8,2.1-1.9,2.2c-0.4,0.3-0.7,0-0.6-0.4c0-0.4,1-4.5,1-4.5
			s-1,0.6-1.4,0.8c-0.3,0.2-0.4,0.2-0.6-0.2C22.4,5.5,21.1,2.9,21.1,3L21.1,3L21.1,3z"/>
		<polygon class="st1" points="10.5,22.3 10.5,1.4 0,1.4 0,22.3 10.5,22.3 		"/>
		<polygon class="st1" points="42.1,22.3 42.1,1.4 31.6,1.4 31.6,22.3 42.1,22.3 		"/>
	</g>
	<g>
		<path class="st2" d="M132,3.9c-0.1-1.2-0.9-1.8-2.1-1.8c-1,0-1.9,0.3-1.9,1.5c0,1.1,1.4,1.2,2.8,1.5c1.4,0.3,2.7,0.8,2.7,2.5
			c0,1.8-1.8,2.6-3.4,2.6c-1.9,0-3.5-0.9-3.5-3h1.1c0,1.4,1.2,2.1,2.5,2.1c1,0,2.2-0.3,2.2-1.6S131,6.3,129.6,6s-2.8-0.7-2.8-2.3
			c0-1.7,1.6-2.5,3.1-2.5c1.8,0,3.1,0.8,3.1,2.7L132,3.9L132,3.9z"/>
		<path class="st2" d="M136.1,3.8h1.2v0.9h-1.2v3.9c0,0.5,0.1,0.6,0.8,0.6h0.5V10h-0.8c-1.1,0-1.5-0.2-1.5-1.4V4.7H134V3.8h1.1V1.9
			h1L136.1,3.8L136.1,3.8z"/>
		<path class="st2" d="M144,9.9c-0.2,0.1-0.4,0.2-0.7,0.2c-0.5,0-0.9-0.3-0.9-1c-0.6,0.7-1.3,1-2.2,1c-1.1,0-2.1-0.5-2.1-1.7
			c0-1.4,1-1.7,2.1-1.9c1.1-0.2,2.1-0.1,2.1-0.9c0-0.9-0.7-1-1.4-1c-0.9,0-1.5,0.3-1.6,1.2h-1c0.1-1.5,1.2-2.1,2.6-2.1
			c1.1,0,2.3,0.2,2.3,1.7v3.2c0,0.5,0,0.7,0.3,0.7c0.1,0,0.2,0,0.3-0.1L144,9.9L144,9.9z M142.3,6.8c-0.4,0.3-1.2,0.3-1.9,0.4
			c-0.7,0.1-1.2,0.4-1.2,1.1c0,0.7,0.6,0.9,1.2,0.9c1.3,0,1.9-0.8,1.9-1.4L142.3,6.8L142.3,6.8z"/>
		<path class="st2" d="M146.3,3.8h1.2v0.9h-1.2v3.9c0,0.5,0.1,0.6,0.8,0.6h0.5V10h-0.8c-1.1,0-1.5-0.2-1.5-1.4V4.7h-1.1V3.8h1.1V1.9
			h1L146.3,3.8L146.3,3.8z"/>
		<path class="st2" d="M149.8,2.6h-1V1.4h1V2.6z M148.8,3.8h1V10h-1C148.8,10,148.8,3.8,148.8,3.8z"/>
		<path class="st2" d="M152,8c0,0.9,0.8,1.2,1.7,1.2c0.6,0,1.5-0.1,1.5-0.9s-1-0.9-2-1.2c-1-0.2-2-0.6-2-1.8c0-1.2,1.2-1.8,2.3-1.8
			c1.4,0,2.5,0.4,2.5,1.9h-1c-0.1-0.8-0.8-1-1.4-1c-0.6,0-1.3,0.2-1.3,0.8c0,0.7,1.1,0.8,2,1.1c1,0.2,2,0.6,2,1.8c0,1.5-1.4,2-2.6,2
			c-1.4,0-2.6-0.6-2.6-2.1L152,8L152,8z"/>
		<path class="st2" d="M158.8,3.8h1.2v0.9h-1.2v3.9c0,0.5,0.1,0.6,0.8,0.6h0.5V10h-0.8c-1.1,0-1.5-0.2-1.5-1.4V4.7h-1.1V3.8h1.1V1.9
			h1L158.8,3.8L158.8,3.8z"/>
		<path class="st2" d="M162.2,2.6h-1V1.4h1V2.6z M161.2,3.8h1V10h-1C161.2,10,161.2,3.8,161.2,3.8z"/>
		<path class="st2" d="M169.4,12.3h-1V9.1h0c-0.3,0.7-1.1,1-2,1c-1.9,0-2.9-1.5-2.9-3.3s0.9-3.2,2.8-3.2c0.6,0,1.6,0.2,2,1h0V3.8h1
			V12.3z M166.5,9.2c1.4,0,1.9-1.2,1.9-2.3c0-1.2-0.6-2.3-2-2.3s-1.9,1.2-1.9,2.4S165.1,9.2,166.5,9.2L166.5,9.2z"/>
		<path class="st2" d="M176.1,10h-1V9h0c-0.4,0.8-1.1,1.1-2,1.1c-1.6,0-2.1-0.9-2.1-2.3V3.8h1V8c0,0.8,0.5,1.2,1.3,1.2
			c1.2,0,1.8-0.8,1.8-1.9V3.8h1L176.1,10L176.1,10z"/>
		<path class="st2" d="M182.9,8c-0.3,1.4-1.3,2.1-2.6,2.1c-2,0-2.9-1.4-3-3.3c0-1.9,1.2-3.2,2.9-3.2c2.2,0,2.9,2,2.8,3.5h-4.6
			c0,1.1,0.6,2,1.9,2c0.8,0,1.4-0.4,1.6-1.2L182.9,8L182.9,8z M181.9,6.3c-0.1-1-0.8-1.8-1.8-1.8c-1.1,0-1.7,0.8-1.8,1.8H181.9
			L181.9,6.3z"/>
		<path class="st2" d="M133.1,16.3c-0.2-1.2-1.2-1.8-2.4-1.8c-2,0-2.9,1.7-2.9,3.5c0,2,0.9,3.6,2.9,3.6c1.5,0,2.4-1,2.5-2.5h1.1
			c-0.2,2.1-1.6,3.4-3.7,3.4c-2.7,0-4-2-4-4.5s1.4-4.5,4-4.5c1.8,0,3.3,1,3.5,2.8L133.1,16.3L133.1,16.3z"/>
		<path class="st2" d="M141.1,22.3c-0.2,0.1-0.4,0.2-0.7,0.2c-0.5,0-0.9-0.3-0.9-1c-0.6,0.7-1.3,1-2.2,1c-1.1,0-2.1-0.5-2.1-1.7
			c0-1.4,1-1.7,2.1-1.9c1.1-0.2,2.1-0.1,2.1-0.9c0-0.9-0.7-1-1.4-1c-0.9,0-1.5,0.3-1.6,1.2h-1c0.1-1.5,1.2-2.1,2.6-2.1
			c1.1,0,2.3,0.2,2.3,1.7v3.2c0,0.5,0,0.7,0.3,0.7c0.1,0,0.2,0,0.3-0.1L141.1,22.3L141.1,22.3z M139.4,19.1
			c-0.4,0.3-1.2,0.3-1.9,0.4c-0.7,0.1-1.2,0.4-1.2,1.1c0,0.7,0.6,0.9,1.2,0.9c1.3,0,1.9-0.8,1.9-1.4L139.4,19.1L139.4,19.1z"/>
		<path class="st2" d="M142,16.1h1v1h0c0.4-0.8,1.1-1.1,2-1.1c1.6,0,2.1,0.9,2.1,2.3v4.1h-1v-4.2c0-0.8-0.5-1.2-1.3-1.2
			c-1.2,0-1.8,0.8-1.8,1.9v3.5h-1L142,16.1L142,16.1z"/>
		<path class="st2" d="M154.2,22.3c-0.2,0.1-0.4,0.2-0.7,0.2c-0.5,0-0.9-0.3-0.9-1c-0.6,0.7-1.3,1-2.2,1c-1.1,0-2.1-0.5-2.1-1.7
			c0-1.4,1-1.7,2.1-1.9c1.1-0.2,2.1-0.1,2.1-0.9c0-0.9-0.7-1-1.4-1c-0.9,0-1.5,0.3-1.6,1.2h-1c0.1-1.5,1.2-2.1,2.6-2.1
			c1.1,0,2.3,0.2,2.3,1.7v3.2c0,0.5,0,0.7,0.3,0.7c0.1,0,0.2,0,0.3-0.1L154.2,22.3L154.2,22.3z M152.5,19.1
			c-0.4,0.3-1.2,0.3-1.9,0.4c-0.7,0.1-1.2,0.4-1.2,1.1c0,0.7,0.6,0.9,1.2,0.9c1.3,0,1.9-0.8,1.9-1.4L152.5,19.1L152.5,19.1z"/>
		<path class="st2" d="M160.7,22.3h-1v-0.8h0c-0.3,0.7-1.1,1-2,1c-1.9,0-2.9-1.5-2.9-3.3s0.9-3.2,2.8-3.2c0.6,0,1.6,0.2,2,1h0v-3.2
			h1V22.3L160.7,22.3z M157.8,21.5c1.4,0,1.9-1.2,1.9-2.3c0-1.2-0.6-2.4-2-2.4s-1.9,1.2-1.9,2.4S156.5,21.5,157.8,21.5L157.8,21.5z"
			/>
		<path class="st2" d="M167.8,22.3c-0.2,0.1-0.4,0.2-0.7,0.2c-0.5,0-0.9-0.3-0.9-1c-0.6,0.7-1.3,1-2.2,1c-1.1,0-2.1-0.5-2.1-1.7
			c0-1.4,1-1.7,2.1-1.9c1.1-0.2,2.1-0.1,2.1-0.9c0-0.9-0.7-1-1.4-1c-0.9,0-1.5,0.3-1.6,1.2h-1c0.1-1.5,1.2-2.1,2.6-2.1
			c1.1,0,2.3,0.2,2.3,1.7v3.2c0,0.5,0,0.7,0.3,0.7c0.1,0,0.2,0,0.3-0.1L167.8,22.3L167.8,22.3z M166.1,19.1
			c-0.4,0.3-1.2,0.3-1.9,0.4c-0.7,0.1-1.2,0.4-1.2,1.1c0,0.7,0.6,0.9,1.2,0.9c1.3,0,1.9-0.8,1.9-1.4L166.1,19.1L166.1,19.1z"/>
	</g>
	<g>
		<path class="st2" d="M65.7,3.9c-0.1-1.2-0.9-1.8-2.1-1.8c-1,0-1.9,0.3-1.9,1.5c0,1.1,1.4,1.2,2.7,1.5c1.4,0.3,2.7,0.8,2.7,2.5
			c0,1.8-1.8,2.6-3.3,2.6c-1.9,0-3.5-0.9-3.5-3h1.1c0,1.4,1.2,2.1,2.5,2.1c1,0,2.2-0.3,2.2-1.6S64.6,6.3,63.2,6s-2.8-0.7-2.8-2.3
			c0-1.7,1.5-2.5,3.1-2.5c1.7,0,3.1,0.8,3.1,2.7L65.7,3.9L65.7,3.9z"/>
		<path class="st2" d="M69.8,3.8H71v0.9h-1.2v3.9c0,0.5,0.1,0.6,0.8,0.6H71V10h-0.8c-1.1,0-1.5-0.2-1.5-1.4V4.7h-1.1V3.8h1.1V1.9h1
			L69.8,3.8L69.8,3.8z"/>
		<path class="st2" d="M77.6,9.9c-0.2,0.1-0.4,0.2-0.7,0.2c-0.5,0-0.9-0.3-0.9-1c-0.6,0.7-1.3,1-2.2,1c-1.1,0-2.1-0.5-2.1-1.7
			c0-1.4,1-1.7,2.1-1.9C75,6.2,76,6.3,76,5.6c0-0.9-0.7-1-1.4-1c-0.9,0-1.5,0.3-1.6,1.2h-1c0.1-1.5,1.2-2.1,2.6-2.1
			c1.1,0,2.3,0.2,2.3,1.7v3.2c0,0.5,0,0.7,0.3,0.7c0.1,0,0.2,0,0.3-0.1L77.6,9.9L77.6,9.9z M75.9,6.8c-0.4,0.3-1.2,0.3-1.8,0.4
			c-0.7,0.1-1.2,0.4-1.2,1.1c0,0.7,0.6,0.9,1.2,0.9c1.3,0,1.9-0.8,1.9-1.4V6.8L75.9,6.8z"/>
		<path class="st2" d="M80,3.8h1.2v0.9H80v3.9c0,0.5,0.1,0.6,0.8,0.6h0.5V10h-0.8c-1.1,0-1.5-0.2-1.5-1.4V4.7h-1.1V3.8h1.1V1.9h1
			L80,3.8L80,3.8z"/>
		<path class="st2" d="M83.4,2.6h-1V1.4h1V2.6z M82.4,3.8h1V10h-1C82.4,10,82.4,3.8,82.4,3.8z"/>
		<path class="st2" d="M85.6,8c0,0.9,0.8,1.2,1.7,1.2c0.6,0,1.5-0.1,1.5-0.9s-1-0.9-2-1.2c-1-0.2-2-0.6-2-1.8c0-1.2,1.2-1.8,2.3-1.8
			c1.4,0,2.5,0.4,2.5,1.9h-1c-0.1-0.8-0.8-1-1.4-1c-0.6,0-1.3,0.2-1.3,0.8c0,0.7,1.1,0.8,2,1.1c1,0.2,2,0.6,2,1.8c0,1.5-1.4,2-2.6,2
			c-1.4,0-2.6-0.6-2.6-2.1L85.6,8L85.6,8z"/>
		<path class="st2" d="M92.4,3.8h1.2v0.9h-1.2v3.9c0,0.5,0.1,0.6,0.8,0.6h0.5V10h-0.8c-1.1,0-1.5-0.2-1.5-1.4V4.7h-1.1V3.8h1.1V1.9
			h1L92.4,3.8L92.4,3.8z"/>
		<path class="st2" d="M95.9,2.6h-1V1.4h1V2.6z M94.8,3.8h1V10h-1C94.8,10,94.8,3.8,94.8,3.8z"/>
		<path class="st2" d="M101.7,5.8c-0.2-0.8-0.7-1.2-1.5-1.2c-1.5,0-1.9,1.2-1.9,2.4c0,1.1,0.5,2.3,1.8,2.3c1,0,1.6-0.6,1.7-1.5h1
			c-0.2,1.5-1.2,2.4-2.7,2.4c-1.9,0-2.9-1.3-2.9-3.2s1-3.3,2.9-3.3c1.4,0,2.5,0.7,2.7,2.1L101.7,5.8L101.7,5.8z"/>
		<path class="st2" d="M104.5,8c0,0.9,0.8,1.2,1.7,1.2c0.6,0,1.5-0.1,1.5-0.9s-1-0.9-2-1.2c-1-0.2-2-0.6-2-1.8
			c0-1.2,1.2-1.8,2.3-1.8c1.4,0,2.5,0.4,2.5,1.9h-1c-0.1-0.8-0.8-1-1.4-1c-0.6,0-1.3,0.2-1.3,0.8c0,0.7,1.1,0.8,2,1.1
			c1,0.2,2,0.6,2,1.8c0,1.5-1.4,2-2.6,2c-1.4,0-2.6-0.6-2.6-2.1L104.5,8L104.5,8z"/>
		<path class="st2" d="M66.8,16.3c-0.2-1.2-1.2-1.8-2.4-1.8c-2,0-2.9,1.7-2.9,3.5c0,2,0.9,3.6,2.9,3.6c1.5,0,2.4-1,2.5-2.5H68
			c-0.2,2.1-1.6,3.4-3.7,3.4c-2.7,0-4-2-4-4.5s1.4-4.5,4.1-4.5c1.8,0,3.3,1,3.5,2.8L66.8,16.3L66.8,16.3z"/>
		<path class="st2" d="M74.7,22.3c-0.2,0.1-0.4,0.2-0.7,0.2c-0.5,0-0.9-0.3-0.9-1c-0.6,0.7-1.3,1-2.2,1c-1.1,0-2.1-0.5-2.1-1.7
			c0-1.4,1-1.7,2.1-1.9c1.1-0.2,2.1-0.1,2.1-0.9c0-0.9-0.7-1-1.4-1c-0.9,0-1.5,0.3-1.6,1.2h-1c0.1-1.5,1.2-2.1,2.6-2.1
			c1.1,0,2.3,0.2,2.3,1.7v3.2c0,0.5,0,0.7,0.3,0.7c0.1,0,0.2,0,0.3-0.1L74.7,22.3L74.7,22.3z M73,19.1c-0.4,0.3-1.2,0.3-1.8,0.4
			c-0.7,0.1-1.2,0.4-1.2,1.1c0,0.7,0.6,0.9,1.2,0.9c1.3,0,1.9-0.8,1.9-1.4V19.1L73,19.1z"/>
		<path class="st2" d="M75.7,16.1h1v1h0c0.4-0.8,1.1-1.1,2-1.1c1.6,0,2.1,0.9,2.1,2.3v4.1h-1v-4.2c0-0.8-0.5-1.2-1.3-1.2
			c-1.2,0-1.8,0.8-1.8,1.9v3.5h-1L75.7,16.1L75.7,16.1z"/>
		<path class="st2" d="M87.8,22.3c-0.2,0.1-0.4,0.2-0.7,0.2c-0.5,0-0.9-0.3-0.9-1c-0.6,0.7-1.3,1-2.2,1c-1.1,0-2.1-0.5-2.1-1.7
			c0-1.4,1-1.7,2.1-1.9c1.1-0.2,2.1-0.1,2.1-0.9c0-0.9-0.7-1-1.4-1c-0.9,0-1.5,0.3-1.6,1.2h-1c0.1-1.5,1.2-2.1,2.6-2.1
			c1.1,0,2.3,0.2,2.3,1.7v3.2c0,0.5,0,0.7,0.3,0.7c0.1,0,0.2,0,0.3-0.1L87.8,22.3L87.8,22.3z M86.2,19.1c-0.4,0.3-1.2,0.3-1.8,0.4
			c-0.7,0.1-1.2,0.4-1.2,1.1c0,0.7,0.6,0.9,1.2,0.9c1.3,0,1.9-0.8,1.9-1.4V19.1L86.2,19.1z"/>
		<path class="st2" d="M94.3,22.3h-1v-0.8h0c-0.3,0.7-1.1,1-2,1c-1.9,0-2.8-1.5-2.8-3.3s0.9-3.2,2.8-3.2c0.6,0,1.6,0.2,2,1h0v-3.2h1
			V22.3L94.3,22.3z M91.4,21.5c1.4,0,1.9-1.2,1.9-2.3c0-1.2-0.6-2.4-2-2.4s-1.9,1.2-1.9,2.4S90.1,21.5,91.4,21.5z"/>
		<path class="st2" d="M101.4,22.3c-0.2,0.1-0.4,0.2-0.7,0.2c-0.5,0-0.9-0.3-0.9-1c-0.6,0.7-1.3,1-2.2,1c-1.1,0-2.1-0.5-2.1-1.7
			c0-1.4,1-1.7,2.1-1.9c1.1-0.2,2.1-0.1,2.1-0.9c0-0.9-0.7-1-1.4-1c-0.9,0-1.5,0.3-1.6,1.2h-1c0.1-1.5,1.2-2.1,2.6-2.1
			c1.1,0,2.3,0.2,2.3,1.7v3.2c0,0.5,0,0.7,0.3,0.7c0.1,0,0.2,0,0.3-0.1L101.4,22.3L101.4,22.3z M99.7,19.1c-0.4,0.3-1.2,0.3-1.8,0.4
			c-0.7,0.1-1.2,0.4-1.2,1.1c0,0.7,0.6,0.9,1.2,0.9c1.3,0,1.9-0.8,1.9-1.4V19.1L99.7,19.1z"/>
	</g>
</g>
</svg>
