<?xml version="1.0" encoding="utf-8"?>
<!-- Generator: Adobe Illustrator 16.0.4, SVG Export Plug-In . SVG Version: 6.00 Build 0)  -->
<!DOCTYPE svg PUBLIC "-//W3C//DTD SVG 1.1//EN" "http://www.w3.org/Graphics/SVG/1.1/DTD/svg11.dtd">
<svg version="1.1" id="Layer_1" xmlns="http://www.w3.org/2000/svg" xmlns:xlink="http://www.w3.org/1999/xlink" x="0px" y="0px"
	 width="395px" height="24.5px" viewBox="0 0 395 24.5" enable-background="new 0 0 395 24.5" xml:space="preserve">
<g>
	<rect x="1.637" y="1.395" fill="#EF3E33" width="10.81" height="21.633"/>
	<path fill="#EF3E33" d="M15.149,12.212"/>
	<path fill="#EF3E33" d="M23.726,21.464c0,0-0.146-3.645-0.146-4.008c0-0.362,0.304-0.49,0.667-0.413
		c0.362,0.084,3.771,0.776,3.771,0.776s-0.262-0.738-0.445-1.285c-0.178-0.545,0.057-0.642,0.184-0.755
		c0.122-0.116,3.804-3.296,3.804-3.296l-0.599-0.298c-0.363-0.173-0.311-0.477-0.254-0.681c0.057-0.204,0.668-2.327,0.668-2.327
		s-1.589,0.356-1.965,0.413c-0.292,0.045-0.394-0.096-0.483-0.298c-0.095-0.204-0.477-1.133-0.477-1.133s-1.947,2.15-1.99,2.188
		c-0.375,0.343-0.738,0.082-0.668-0.316c0.064-0.365,0.999-4.669,0.999-4.669s-1.037,0.616-1.374,0.819
		c-0.343,0.204-0.521,0.173-0.705-0.157c-0.179-0.331-1.457-2.889-1.457-2.889h0.007c0,0-1.279,2.558-1.457,2.889
		c-0.185,0.33-0.369,0.361-0.706,0.157c-0.343-0.203-1.374-0.819-1.374-0.819s0.936,4.304,1,4.669
		c0.07,0.398-0.299,0.659-0.668,0.316c-0.044-0.037-1.99-2.188-1.99-2.188S17.68,9.089,17.59,9.293
		c-0.088,0.202-0.19,0.343-0.489,0.298c-0.37-0.057-2.022-0.413-2.022-0.413s0.667,2.123,0.725,2.327
		c0.058,0.204,0.115,0.508-0.248,0.681l-0.604,0.298c0,0,3.682,3.18,3.809,3.296c0.128,0.113,0.363,0.21,0.185,0.755
		c-0.185,0.547-0.445,1.285-0.445,1.285s3.409-0.692,3.771-0.776c0.363-0.077,0.668,0.051,0.668,0.413
		c0,0.363-0.146,4.008-0.146,4.008H23.726z"/>
	<rect x="34.066" y="1.395" fill="#EF3E33" width="10.81" height="21.633"/>
	<path fill="#EF3E33" d="M31.364,12.212"/>
	<g>
		<path d="M60.833,7.377c-0.038,1.857,1.301,2.427,2.943,2.427c0.948,0,2.387-0.52,2.387-1.832c0-1.024-1.022-1.429-1.856-1.631
			l-2.008-0.492c-1.062-0.265-2.034-0.771-2.034-2.173c0-0.885,0.568-2.539,3.107-2.539c1.781,0,3.348,0.961,3.335,2.804h-0.859
			c-0.05-1.376-1.188-2.071-2.463-2.071c-1.175,0-2.261,0.456-2.261,1.794c0,0.846,0.631,1.201,1.365,1.377l2.198,0.544
			c1.276,0.341,2.337,0.896,2.337,2.375c0,0.617-0.252,2.577-3.449,2.577c-2.135,0-3.702-0.962-3.601-3.159H60.833z"/>
		<path d="M68.703,7.302c0.012,1.162,0.619,2.564,2.147,2.564c1.163,0,1.794-0.683,2.047-1.668h0.795
			c-0.341,1.478-1.2,2.338-2.842,2.338c-2.071,0-2.943-1.594-2.943-3.449c0-1.72,0.873-3.448,2.943-3.448
			c2.098,0,2.932,1.83,2.868,3.663H68.703z M72.922,6.632c-0.037-1.199-0.783-2.325-2.072-2.325c-1.3,0-2.021,1.138-2.147,2.325
			H72.922z"/>
		<path d="M79.39,5.873c-0.214-0.971-0.809-1.566-1.844-1.566c-1.529,0-2.287,1.391-2.287,2.78c0,1.389,0.758,2.779,2.287,2.779
			c0.984,0,1.793-0.771,1.895-1.856h0.795c-0.214,1.564-1.237,2.526-2.69,2.526c-1.997,0-3.083-1.579-3.083-3.449
			c0-1.869,1.086-3.448,3.083-3.448c1.389,0,2.463,0.745,2.64,2.234H79.39z"/>
		<path d="M81.348,3.827h0.733v1.528h0.025c0.404-1.049,1.289-1.666,2.464-1.617v0.798c-1.44-0.077-2.426,0.983-2.426,2.336v3.474
			h-0.796V3.827z"/>
		<path d="M85.795,7.302c0.012,1.162,0.619,2.564,2.147,2.564c1.163,0,1.794-0.683,2.046-1.668h0.795
			c-0.341,1.478-1.2,2.338-2.842,2.338c-2.072,0-2.943-1.594-2.943-3.449c0-1.72,0.872-3.448,2.943-3.448
			c2.097,0,2.931,1.83,2.868,3.663H85.795z M90.014,6.632c-0.038-1.199-0.784-2.325-2.072-2.325c-1.301,0-2.021,1.138-2.147,2.325
			H90.014z M87.74,2.918h-0.645l1.327-1.781h0.985L87.74,2.918z"/>
		<path d="M93.147,3.827h1.327v0.67h-1.327v4.396c0,0.518,0.075,0.821,0.644,0.859c0.227,0,0.454-0.013,0.683-0.038v0.683
			c-0.241,0-0.468,0.024-0.708,0.024c-1.061,0-1.428-0.353-1.415-1.464v-4.46h-1.136v-0.67h1.136V1.869h0.797V3.827z"/>
		<path d="M95.547,5.823c0.075-1.528,1.15-2.185,2.64-2.185c1.15,0,2.4,0.353,2.4,2.097v3.461c0,0.304,0.152,0.479,0.468,0.479
			c0.088,0,0.189-0.024,0.252-0.051v0.67c-0.176,0.039-0.303,0.051-0.517,0.051c-0.81,0-0.935-0.455-0.935-1.138h-0.026
			c-0.555,0.847-1.124,1.328-2.374,1.328c-1.201,0-2.185-0.595-2.185-1.908c0-1.831,1.781-1.896,3.499-2.097
			c0.658-0.076,1.024-0.165,1.024-0.885c0-1.074-0.771-1.34-1.706-1.34c-0.985,0-1.717,0.456-1.744,1.517H95.547z M99.792,6.783
			h-0.026c-0.102,0.19-0.454,0.253-0.67,0.292c-1.351,0.238-3.031,0.227-3.031,1.501c0,0.798,0.708,1.29,1.452,1.29
			c1.214,0,2.287-0.771,2.275-2.047V6.783z"/>
		<path d="M102.179,3.827h0.733v1.528h0.024c0.405-1.049,1.289-1.666,2.464-1.617v0.798c-1.44-0.077-2.426,0.983-2.426,2.336v3.474
			h-0.795V3.827z"/>
		<path d="M106.171,2.602h0.795V1.325h-0.795V2.602z M106.171,10.346h0.795V3.827h-0.795V10.346z"/>
		<path d="M108.419,5.823c0.076-1.528,1.15-2.185,2.641-2.185c1.149,0,2.4,0.353,2.4,2.097v3.461c0,0.304,0.151,0.479,0.467,0.479
			c0.089,0,0.19-0.024,0.253-0.051v0.67c-0.176,0.039-0.304,0.051-0.518,0.051c-0.809,0-0.935-0.455-0.935-1.138h-0.025
			c-0.556,0.847-1.125,1.328-2.375,1.328c-1.2,0-2.187-0.595-2.187-1.908c0-1.831,1.782-1.896,3.5-2.097
			c0.657-0.076,1.023-0.165,1.023-0.885c0-1.074-0.771-1.34-1.705-1.34c-0.985,0-1.718,0.456-1.743,1.517H108.419z M112.664,6.783
			h-0.025c-0.101,0.19-0.455,0.253-0.67,0.292c-1.352,0.238-3.032,0.227-3.032,1.501c0,0.798,0.708,1.29,1.453,1.29
			c1.213,0,2.286-0.771,2.274-2.047V6.783z"/>
		<path d="M116.314,3.827h1.328v0.67h-1.328v4.396c0,0.518,0.076,0.821,0.646,0.859c0.227,0,0.454-0.013,0.682-0.038v0.683
			c-0.241,0-0.468,0.024-0.708,0.024c-1.061,0-1.427-0.353-1.415-1.464v-4.46h-1.136v-0.67h1.136V1.869h0.796V3.827z"/>
		<path d="M128.038,10.346h-0.733V9.106h-0.024c-0.342,0.848-1.378,1.43-2.325,1.43c-1.983,0-2.93-1.605-2.93-3.449
			c0-1.845,0.947-3.448,2.93-3.448c0.973,0,1.92,0.492,2.261,1.428h0.025V1.325h0.796V10.346z M124.955,9.866
			c1.694,0,2.287-1.427,2.287-2.779c0-1.352-0.593-2.78-2.287-2.78c-1.515,0-2.134,1.429-2.134,2.78
			C122.821,8.439,123.44,9.866,124.955,9.866z"/>
		<path d="M134.834,10.346h-0.733V9.172h-0.024c-0.417,0.871-1.277,1.364-2.249,1.364c-1.642,0-2.287-0.962-2.287-2.477V3.827h0.797
			v4.245c0.037,1.174,0.479,1.794,1.743,1.794c1.364,0,1.958-1.29,1.958-2.615V3.827h0.796V10.346z"/>
		<path d="M146.595,4.055c-0.303-1.39-1.452-2.186-2.766-2.186c-2.389,0-3.399,1.997-3.399,3.966c0,1.973,1.01,3.969,3.399,3.969
			c1.667,0,2.729-1.29,2.893-2.894h0.858c-0.24,2.211-1.642,3.626-3.751,3.626c-2.842,0-4.257-2.236-4.257-4.701
			c0-2.462,1.415-4.698,4.257-4.698c1.705,0,3.397,1.023,3.626,2.918H146.595z"/>
		<path d="M154.579,7.087c0,1.87-1.086,3.449-3.083,3.449c-1.995,0-3.082-1.579-3.082-3.449c0-1.869,1.086-3.448,3.082-3.448
			C153.493,3.639,154.579,5.218,154.579,7.087z M149.209,7.087c0,1.389,0.758,2.779,2.286,2.779s2.287-1.391,2.287-2.779
			c0-1.39-0.759-2.78-2.287-2.78S149.209,5.697,149.209,7.087z"/>
		<path d="M155.752,3.827h0.797v1.125h0.025c0.29-0.783,1.162-1.313,2.084-1.313c1.832,0,2.389,0.96,2.389,2.513v4.194h-0.797V6.278
			c0-1.125-0.365-1.972-1.654-1.972c-1.264,0-2.021,0.962-2.047,2.236v3.803h-0.797V3.827z"/>
		<path d="M166.453,5.735c-0.036-0.985-0.796-1.429-1.705-1.429c-0.706,0-1.54,0.279-1.54,1.126c0,0.706,0.807,0.96,1.351,1.099
			l1.062,0.24c0.91,0.139,1.857,0.67,1.857,1.805c0,1.416-1.402,1.96-2.616,1.96c-1.516,0-2.551-0.708-2.678-2.3h0.796
			c0.064,1.073,0.859,1.63,1.92,1.63c0.746,0,1.782-0.328,1.782-1.238c0-0.758-0.708-1.011-1.428-1.187l-1.024-0.229
			c-1.034-0.276-1.817-0.631-1.817-1.743c0-1.326,1.3-1.83,2.449-1.83c1.302,0,2.339,0.682,2.389,2.097H166.453z"/>
		<path d="M169.092,7.302c0.014,1.162,0.619,2.564,2.148,2.564c1.162,0,1.793-0.683,2.047-1.668h0.795
			c-0.34,1.478-1.199,2.338-2.842,2.338c-2.071,0-2.943-1.594-2.943-3.449c0-1.72,0.872-3.448,2.943-3.448
			c2.098,0,2.932,1.83,2.868,3.663H169.092z M173.313,6.632c-0.038-1.199-0.783-2.325-2.072-2.325c-1.301,0-2.021,1.138-2.148,2.325
			H173.313z"/>
		<path d="M175.194,1.325h0.797v1.276h-0.797V1.325z M175.194,3.827h0.797v6.519h-0.797V3.827z"/>
		<path d="M177.532,1.325h0.797v9.021h-0.797V1.325z"/>
		<path d="M189.104,10.346h-0.732V9.106h-0.026c-0.341,0.848-1.377,1.43-2.325,1.43c-1.982,0-2.931-1.605-2.931-3.449
			c0-1.845,0.948-3.448,2.931-3.448c0.973,0,1.921,0.492,2.264,1.428h0.024V1.325h0.796V10.346z M186.02,9.866
			c1.693,0,2.288-1.427,2.288-2.779c0-1.352-0.595-2.78-2.288-2.78c-1.514,0-2.133,1.429-2.133,2.78
			C183.887,8.439,184.506,9.866,186.02,9.866z"/>
		<path d="M195.899,10.346h-0.732V9.172h-0.023c-0.418,0.871-1.275,1.364-2.251,1.364c-1.641,0-2.284-0.962-2.284-2.477V3.827h0.795
			v4.245c0.039,1.174,0.48,1.794,1.744,1.794c1.363,0,1.957-1.29,1.957-2.615V3.827h0.795V10.346z"/>
		<path d="M200.094,1.325h7.15v0.733H204.1v8.287h-0.859V2.059h-3.146V1.325z"/>
		<path d="M206.779,3.827h0.732v1.528h0.027c0.4-1.049,1.287-1.666,2.461-1.617v0.798c-1.439-0.077-2.424,0.983-2.424,2.336v3.474
			h-0.797V3.827z"/>
		<path d="M211.225,7.302c0.016,1.162,0.621,2.564,2.148,2.564c1.162,0,1.793-0.683,2.045-1.668h0.797
			c-0.34,1.478-1.201,2.338-2.842,2.338c-2.072,0-2.943-1.594-2.943-3.449c0-1.72,0.871-3.448,2.943-3.448
			c2.098,0,2.932,1.83,2.867,3.663H211.225z M215.445,6.632c-0.039-1.199-0.783-2.325-2.072-2.325c-1.301,0-2.02,1.138-2.148,2.325
			H215.445z M213.17,2.918h-0.643l1.324-1.781h0.986L213.17,2.918z"/>
		<path d="M221.217,5.735c-0.037-0.985-0.793-1.429-1.705-1.429c-0.707,0-1.539,0.279-1.539,1.126c0,0.706,0.807,0.96,1.352,1.099
			l1.061,0.24c0.908,0.139,1.855,0.67,1.855,1.805c0,1.416-1.4,1.96-2.615,1.96c-1.514,0-2.551-0.708-2.676-2.3h0.795
			c0.062,1.073,0.859,1.63,1.922,1.63c0.744,0,1.781-0.328,1.781-1.238c0-0.758-0.709-1.011-1.428-1.187l-1.025-0.229
			c-1.035-0.276-1.818-0.631-1.818-1.743c0-1.326,1.301-1.83,2.449-1.83c1.303,0,2.336,0.682,2.389,2.097H221.217z"/>
		<path d="M229.227,7.087c0,1.87-1.086,3.449-3.082,3.449s-3.08-1.579-3.08-3.449c0-1.869,1.084-3.448,3.08-3.448
			S229.227,5.218,229.227,7.087z M223.857,7.087c0,1.389,0.76,2.779,2.287,2.779c1.529,0,2.287-1.391,2.287-2.779
			c0-1.39-0.758-2.78-2.287-2.78C224.617,4.307,223.857,5.697,223.857,7.087z"/>
		<path d="M230.416,10.346h0.793V6.872c0-1.353,0.986-2.413,2.428-2.336V3.738c-1.176-0.049-2.059,0.568-2.465,1.617h-0.023V3.827
			h-0.732V10.346z"/>
		<path d="M66.013,22.979H65.28V21.74h-0.025c-0.341,0.848-1.377,1.429-2.324,1.429c-1.983,0-2.931-1.605-2.931-3.449
			c0-1.845,0.947-3.448,2.931-3.448c0.973,0,1.92,0.491,2.262,1.427h0.024v-3.739h0.796V22.979z M62.93,22.499
			c1.693,0,2.286-1.428,2.286-2.779c0-1.353-0.593-2.78-2.286-2.78c-1.516,0-2.135,1.428-2.135,2.78
			C60.795,21.071,61.414,22.499,62.93,22.499z"/>
		<path d="M72.809,22.979h-0.733v-1.175h-0.025c-0.417,0.871-1.276,1.365-2.249,1.365c-1.642,0-2.286-0.962-2.286-2.476V16.46h0.796
			v4.245c0.038,1.174,0.48,1.794,1.743,1.794c1.365,0,1.958-1.289,1.958-2.615V16.46h0.796V22.979z"/>
		<path d="M84.569,16.687c-0.303-1.389-1.453-2.185-2.767-2.185c-2.387,0-3.398,1.996-3.398,3.966c0,1.972,1.011,3.969,3.398,3.969
			c1.668,0,2.729-1.29,2.893-2.894h0.859c-0.24,2.211-1.643,3.626-3.752,3.626c-2.842,0-4.257-2.237-4.257-4.701
			c0-2.462,1.415-4.698,4.257-4.698c1.706,0,3.398,1.022,3.625,2.917H84.569z"/>
		<path d="M86.642,18.456c0.075-1.529,1.149-2.185,2.64-2.185c1.15,0,2.4,0.353,2.4,2.096v3.462c0,0.303,0.152,0.479,0.467,0.479
			c0.088,0,0.189-0.024,0.252-0.05v0.67c-0.176,0.038-0.302,0.05-0.517,0.05c-0.809,0-0.935-0.455-0.935-1.138h-0.025
			c-0.556,0.847-1.125,1.328-2.375,1.328c-1.2,0-2.186-0.595-2.186-1.909c0-1.83,1.782-1.895,3.5-2.095
			c0.657-0.077,1.023-0.166,1.023-0.886c0-1.074-0.77-1.34-1.706-1.34c-0.984,0-1.718,0.455-1.743,1.517H86.642z M90.885,19.416
			H90.86c-0.101,0.189-0.455,0.252-0.669,0.291c-1.352,0.239-3.031,0.227-3.031,1.503c0,0.796,0.707,1.289,1.453,1.289
			c1.212,0,2.287-0.771,2.273-2.047V19.416z"/>
		<path d="M93.261,16.46h0.796v1.125h0.025c0.291-0.783,1.162-1.313,2.084-1.313c1.832,0,2.387,0.959,2.387,2.513v4.194h-0.795
			v-4.067c0-1.125-0.366-1.972-1.654-1.972c-1.263,0-2.022,0.961-2.047,2.237v3.802h-0.796V16.46z"/>
		<path d="M99.98,18.456c0.077-1.529,1.15-2.185,2.64-2.185c1.15,0,2.401,0.353,2.401,2.096v3.462c0,0.303,0.151,0.479,0.468,0.479
			c0.088,0,0.189-0.024,0.253-0.05v0.67c-0.178,0.038-0.304,0.05-0.519,0.05c-0.808,0-0.935-0.455-0.935-1.138h-0.024
			c-0.557,0.847-1.125,1.328-2.375,1.328c-1.2,0-2.186-0.595-2.186-1.909c0-1.83,1.782-1.895,3.499-2.095
			c0.658-0.077,1.024-0.166,1.024-0.886c0-1.074-0.771-1.34-1.705-1.34c-0.986,0-1.719,0.455-1.744,1.517H99.98z M104.226,19.416
			H104.2c-0.1,0.189-0.454,0.252-0.668,0.291c-1.352,0.239-3.033,0.227-3.033,1.503c0,0.796,0.708,1.289,1.454,1.289
			c1.213,0,2.286-0.771,2.273-2.047V19.416z"/>
		<path d="M112.348,22.979h-0.733V21.74h-0.024c-0.342,0.848-1.377,1.429-2.325,1.429c-1.983,0-2.931-1.605-2.931-3.449
			c0-1.845,0.947-3.448,2.931-3.448c0.973,0,1.92,0.491,2.262,1.427h0.024v-3.739h0.796V22.979z M109.266,22.499
			c1.693,0,2.286-1.428,2.286-2.779c0-1.353-0.593-2.78-2.286-2.78c-1.516,0-2.135,1.428-2.135,2.78
			C107.131,21.071,107.75,22.499,109.266,22.499z"/>
		<path d="M113.788,18.456c0.077-1.529,1.15-2.185,2.641-2.185c1.149,0,2.4,0.353,2.4,2.096v3.462c0,0.303,0.151,0.479,0.467,0.479
			c0.089,0,0.19-0.024,0.253-0.05v0.67c-0.176,0.038-0.303,0.05-0.518,0.05c-0.808,0-0.935-0.455-0.935-1.138h-0.024
			c-0.557,0.847-1.125,1.328-2.375,1.328c-1.2,0-2.186-0.595-2.186-1.909c0-1.83,1.781-1.895,3.5-2.095
			c0.656-0.077,1.022-0.166,1.022-0.886c0-1.074-0.771-1.34-1.705-1.34c-0.985,0-1.718,0.455-1.743,1.517H113.788z M118.033,19.416
			h-0.024c-0.101,0.189-0.455,0.252-0.67,0.291c-1.352,0.239-3.032,0.227-3.032,1.503c0,0.796,0.708,1.289,1.453,1.289
			c1.213,0,2.286-0.771,2.273-2.047V19.416z"/>
	</g>
	<g>
		<path d="M249.4,1.521h7.148v0.732h-3.143v8.288h-0.861V2.253H249.4V1.521z"/>
		<path d="M257.131,4.022h0.732v1.528h0.025c0.404-1.049,1.289-1.667,2.465-1.617V4.73c-1.441-0.077-2.426,0.984-2.426,2.336v3.475
			h-0.797V4.022z"/>
		<path d="M261.35,7.496c0.014,1.162,0.619,2.564,2.146,2.564c1.164,0,1.795-0.682,2.047-1.668h0.797
			c-0.34,1.479-1.201,2.338-2.844,2.338c-2.07,0-2.941-1.592-2.941-3.448c0-1.719,0.871-3.449,2.941-3.449
			c2.098,0,2.932,1.831,2.871,3.663H261.35z M265.568,6.826c-0.037-1.199-0.781-2.324-2.072-2.324c-1.301,0-2.021,1.138-2.146,2.324
			H265.568z"/>
		<path d="M267.363,6.018c0.076-1.528,1.148-2.185,2.639-2.185c1.15,0,2.4,0.354,2.4,2.097v3.461c0,0.304,0.152,0.48,0.469,0.48
			c0.088,0,0.188-0.024,0.254-0.051v0.67c-0.178,0.038-0.305,0.051-0.52,0.051c-0.809,0-0.936-0.456-0.936-1.138h-0.023
			c-0.557,0.847-1.125,1.327-2.377,1.327c-1.197,0-2.186-0.594-2.186-1.908c0-1.831,1.781-1.895,3.502-2.097
			c0.656-0.076,1.021-0.165,1.021-0.884c0-1.074-0.77-1.34-1.705-1.34c-0.986,0-1.719,0.455-1.742,1.516H267.363z M271.607,6.979
			h-0.025c-0.102,0.189-0.453,0.252-0.668,0.291c-1.354,0.239-3.033,0.227-3.033,1.502c0,0.797,0.707,1.289,1.453,1.289
			c1.211,0,2.287-0.771,2.273-2.046V6.979z"/>
		<path d="M277.898,5.93c-0.037-0.984-0.795-1.428-1.705-1.428c-0.709,0-1.543,0.279-1.543,1.125c0,0.707,0.809,0.96,1.354,1.099
			l1.061,0.24c0.91,0.14,1.859,0.67,1.859,1.806c0,1.415-1.404,1.959-2.617,1.959c-1.516,0-2.551-0.708-2.678-2.3h0.795
			c0.066,1.074,0.859,1.63,1.92,1.63c0.744,0,1.781-0.328,1.781-1.238c0-0.758-0.705-1.01-1.426-1.187l-1.023-0.229
			c-1.037-0.277-1.818-0.631-1.818-1.743c0-1.326,1.301-1.831,2.449-1.831c1.301,0,2.338,0.683,2.389,2.097H277.898z"/>
		<path d="M285.352,10.541h-0.732V9.366h-0.025c-0.416,0.871-1.275,1.364-2.248,1.364c-1.643,0-2.285-0.961-2.285-2.476V4.022h0.793
			v4.245c0.039,1.174,0.482,1.793,1.744,1.793c1.365,0,1.957-1.289,1.957-2.614V4.022h0.797V10.541z"/>
		<path d="M286.855,4.022h0.732v1.528h0.023c0.404-1.049,1.291-1.667,2.465-1.617V4.73c-1.439-0.077-2.426,0.984-2.426,2.336v3.475
			h-0.795V4.022z"/>
		<path d="M290.102,4.022h0.846l2.146,5.559l2.01-5.559h0.795l-2.828,7.517c-0.453,1.099-0.721,1.415-1.719,1.415
			c-0.314-0.013-0.479-0.013-0.607-0.062v-0.67c0.191,0.038,0.365,0.062,0.545,0.062c0.707,0,0.869-0.417,1.137-1.023l0.279-0.744
			L290.102,4.022z"/>
		<path d="M300.346,1.521h3.814c1.518,0,2.895,0.53,2.895,2.212c0,0.947-0.633,1.818-1.566,2.021v0.026
			c1.162,0.15,1.906,1.022,1.906,2.197c0,0.859-0.303,2.564-3.234,2.564h-3.814V1.521z M301.205,5.476h2.955
			c1.377,0,2.037-0.683,2.037-1.528c0-1.125-0.697-1.694-2.037-1.694h-2.955V5.476z M301.205,9.809h2.955
			c1.277,0.012,2.377-0.418,2.377-1.856c0-1.15-0.871-1.744-2.377-1.744h-2.955V9.809z"/>
		<path d="M314.457,7.282c0,1.87-1.086,3.448-3.082,3.448s-3.082-1.578-3.082-3.448c0-1.869,1.086-3.449,3.082-3.449
			S314.457,5.413,314.457,7.282z M309.088,7.282c0,1.389,0.756,2.778,2.287,2.778c1.527,0,2.287-1.39,2.287-2.778
			c0-1.39-0.76-2.78-2.287-2.78C309.844,4.502,309.088,5.893,309.088,7.282z"/>
		<path d="M315.568,6.018c0.074-1.528,1.152-2.185,2.641-2.185c1.15,0,2.4,0.354,2.4,2.097v3.461c0,0.304,0.15,0.48,0.467,0.48
			c0.09,0,0.189-0.024,0.252-0.051v0.67c-0.174,0.038-0.301,0.051-0.516,0.051c-0.811,0-0.936-0.456-0.936-1.138h-0.027
			c-0.555,0.847-1.123,1.327-2.373,1.327c-1.203,0-2.188-0.594-2.188-1.908c0-1.831,1.783-1.895,3.5-2.097
			c0.66-0.076,1.025-0.165,1.025-0.884c0-1.074-0.771-1.34-1.705-1.34c-0.988,0-1.717,0.455-1.744,1.516H315.568z M319.814,6.979
			h-0.025c-0.102,0.189-0.457,0.252-0.672,0.291c-1.35,0.239-3.029,0.227-3.029,1.502c0,0.797,0.705,1.289,1.451,1.289
			c1.215,0,2.287-0.771,2.275-2.046V6.979z"/>
		<path d="M322.201,4.022h0.732v1.528h0.025c0.404-1.049,1.289-1.667,2.463-1.617V4.73c-1.439-0.077-2.426,0.984-2.426,2.336v3.475
			h-0.795V4.022z"/>
		<path d="M331.689,10.541h-0.734V9.303h-0.025c-0.342,0.848-1.379,1.428-2.326,1.428c-1.98,0-2.928-1.604-2.928-3.448
			c0-1.845,0.947-3.449,2.928-3.449c0.975,0,1.922,0.492,2.264,1.428h0.023v-3.74h0.799V10.541z M328.604,10.061
			c1.695,0,2.287-1.427,2.287-2.778c0-1.353-0.592-2.78-2.287-2.78c-1.514,0-2.135,1.428-2.135,2.78
			C326.469,8.634,327.09,10.061,328.604,10.061z"/>
		<path d="M342.551,7.282c0,1.87-1.086,3.448-3.082,3.448c-1.994,0-3.084-1.578-3.084-3.448c0-1.869,1.09-3.449,3.084-3.449
			C341.465,3.833,342.551,5.413,342.551,7.282z M337.184,7.282c0,1.389,0.758,2.778,2.285,2.778c1.529,0,2.285-1.39,2.285-2.778
			c0-1.39-0.756-2.78-2.285-2.78C337.941,4.502,337.184,5.893,337.184,7.282z"/>
		<path d="M346.252,4.692h-1.285v5.849h-0.799V4.692h-1.109v-0.67h1.109V3.429c-0.012-1.124,0.303-1.908,1.58-1.908
			c0.225,0,0.416,0.014,0.67,0.052v0.681c-0.215-0.037-0.391-0.062-0.582-0.062c-0.885,0-0.857,0.555-0.869,1.262v0.569h1.285V4.692
			z"/>
		<path d="M357.27,4.249c-0.303-1.389-1.455-2.185-2.768-2.185c-2.387,0-3.398,1.996-3.398,3.966c0,1.972,1.012,3.968,3.398,3.968
			c1.666,0,2.729-1.289,2.893-2.893h0.859c-0.238,2.211-1.643,3.625-3.752,3.625c-2.844,0-4.258-2.236-4.258-4.7
			c0-2.462,1.414-4.698,4.258-4.698c1.707,0,3.4,1.022,3.625,2.917H357.27z"/>
		<path d="M359.34,6.018c0.076-1.528,1.148-2.185,2.639-2.185c1.15,0,2.402,0.354,2.402,2.097v3.461c0,0.304,0.152,0.48,0.469,0.48
			c0.086,0,0.186-0.024,0.252-0.051v0.67c-0.18,0.038-0.305,0.051-0.52,0.051c-0.809,0-0.936-0.456-0.936-1.138h-0.023
			c-0.555,0.847-1.125,1.327-2.377,1.327c-1.197,0-2.184-0.594-2.184-1.908c0-1.831,1.781-1.895,3.498-2.097
			c0.658-0.076,1.025-0.165,1.025-0.884c0-1.074-0.771-1.34-1.707-1.34c-0.986,0-1.719,0.455-1.742,1.516H359.34z M363.586,6.979
			h-0.027c-0.102,0.189-0.453,0.252-0.67,0.291c-1.352,0.239-3.031,0.227-3.031,1.502c0,0.797,0.707,1.289,1.455,1.289
			c1.213,0,2.285-0.771,2.273-2.046V6.979z"/>
		<path d="M365.959,4.022h0.799v1.125h0.023c0.289-0.783,1.162-1.314,2.086-1.314c1.83,0,2.385,0.96,2.385,2.513v4.195h-0.795V6.474
			c0-1.126-0.367-1.972-1.654-1.972c-1.264,0-2.021,0.961-2.045,2.237v3.802h-0.799V4.022z"/>
		<path d="M372.68,6.018c0.076-1.528,1.15-2.185,2.641-2.185c1.15,0,2.4,0.354,2.4,2.097v3.461c0,0.304,0.15,0.48,0.467,0.48
			c0.088,0,0.191-0.024,0.254-0.051v0.67c-0.178,0.038-0.303,0.051-0.52,0.051c-0.809,0-0.934-0.456-0.934-1.138h-0.025
			c-0.557,0.847-1.125,1.327-2.375,1.327c-1.199,0-2.188-0.594-2.188-1.908c0-1.831,1.781-1.895,3.502-2.097
			c0.656-0.076,1.021-0.165,1.021-0.884c0-1.074-0.77-1.34-1.705-1.34c-0.984,0-1.717,0.455-1.742,1.516H372.68z M376.924,6.979
			h-0.025c-0.1,0.189-0.453,0.252-0.668,0.291c-1.354,0.239-3.033,0.227-3.033,1.502c0,0.797,0.711,1.289,1.455,1.289
			c1.211,0,2.283-0.771,2.271-2.046V6.979z"/>
		<path d="M385.047,10.541h-0.732V9.303h-0.025c-0.34,0.848-1.377,1.428-2.324,1.428c-1.984,0-2.93-1.604-2.93-3.448
			c0-1.845,0.945-3.449,2.93-3.449c0.973,0,1.92,0.492,2.264,1.428h0.023v-3.74h0.795V10.541z M381.965,10.061
			c1.691,0,2.287-1.427,2.287-2.778c0-1.353-0.596-2.78-2.287-2.78c-1.514,0-2.135,1.428-2.135,2.78
			C379.83,8.634,380.451,10.061,381.965,10.061z"/>
		<path d="M386.486,6.018c0.078-1.528,1.15-2.185,2.641-2.185c1.15,0,2.4,0.354,2.4,2.097v3.461c0,0.304,0.152,0.48,0.469,0.48
			c0.088,0,0.188-0.024,0.252-0.051v0.67c-0.178,0.038-0.305,0.051-0.518,0.051c-0.811,0-0.936-0.456-0.936-1.138h-0.023
			c-0.559,0.847-1.125,1.327-2.377,1.327c-1.197,0-2.186-0.594-2.186-1.908c0-1.831,1.781-1.895,3.5-2.097
			c0.658-0.076,1.021-0.165,1.021-0.884c0-1.074-0.768-1.34-1.703-1.34c-0.986,0-1.719,0.455-1.742,1.516H386.486z M390.73,6.979
			h-0.023c-0.102,0.189-0.453,0.252-0.67,0.291c-1.352,0.239-3.031,0.227-3.031,1.502c0,0.797,0.707,1.289,1.453,1.289
			c1.211,0,2.285-0.771,2.271-2.046V6.979z"/>
		<path d="M250.777,20.206c-0.039,1.856,1.301,2.425,2.945,2.425c0.945,0,2.385-0.519,2.385-1.832c0-1.024-1.021-1.427-1.855-1.629
			l-2.01-0.493c-1.062-0.266-2.035-0.771-2.035-2.174c0-0.884,0.57-2.539,3.109-2.539c1.781,0,3.348,0.961,3.334,2.804h-0.859
			c-0.051-1.376-1.188-2.071-2.463-2.071c-1.174,0-2.262,0.456-2.262,1.795c0,0.846,0.633,1.2,1.365,1.376l2.197,0.544
			c1.275,0.341,2.336,0.896,2.336,2.375c0,0.618-0.252,2.577-3.445,2.577c-2.137,0-3.705-0.96-3.604-3.157H250.777z"/>
		<path d="M258.646,20.129c0.012,1.162,0.619,2.564,2.148,2.564c1.162,0,1.795-0.683,2.045-1.668h0.799
			c-0.344,1.479-1.203,2.338-2.844,2.338c-2.072,0-2.943-1.593-2.943-3.449c0-1.718,0.871-3.447,2.943-3.447
			c2.096,0,2.932,1.83,2.867,3.662H258.646z M262.863,19.459c-0.035-1.199-0.781-2.324-2.068-2.324
			c-1.305,0-2.021,1.137-2.148,2.324H262.863z"/>
		<path d="M269.334,18.702c-0.215-0.973-0.809-1.567-1.846-1.567c-1.527,0-2.285,1.391-2.285,2.779s0.758,2.779,2.285,2.779
			c0.988,0,1.793-0.771,1.896-1.856h0.797c-0.217,1.566-1.24,2.526-2.693,2.526c-1.996,0-3.082-1.579-3.082-3.449
			c0-1.869,1.086-3.447,3.082-3.447c1.389,0,2.465,0.744,2.641,2.235H269.334z"/>
		<path d="M271.291,16.655h0.732v1.528h0.027c0.402-1.049,1.287-1.667,2.463-1.618v0.798c-1.441-0.077-2.428,0.984-2.428,2.337
			v3.474h-0.795V16.655z"/>
		<path d="M275.512,20.129c0.014,1.162,0.617,2.564,2.148,2.564c1.16,0,1.793-0.683,2.045-1.668h0.795
			c-0.34,1.479-1.199,2.338-2.84,2.338c-2.074,0-2.945-1.593-2.945-3.449c0-1.718,0.871-3.447,2.945-3.447
			c2.096,0,2.93,1.83,2.865,3.662H275.512z M279.729,19.459c-0.037-1.199-0.781-2.324-2.068-2.324c-1.305,0-2.021,1.137-2.148,2.324
			H279.729z"/>
		<path d="M282.861,16.655h1.328v0.67h-1.328v4.396c0,0.519,0.076,0.821,0.645,0.859c0.23,0,0.457-0.014,0.684-0.038v0.682
			c-0.24,0-0.467,0.025-0.707,0.025c-1.061,0-1.426-0.354-1.414-1.465v-4.459h-1.139v-0.67h1.139v-1.959h0.793V16.655z"/>
		<path d="M285.264,18.65c0.076-1.527,1.15-2.184,2.641-2.184c1.148,0,2.4,0.353,2.4,2.096v3.461c0,0.304,0.148,0.48,0.465,0.48
			c0.09,0,0.191-0.025,0.254-0.051v0.67c-0.176,0.038-0.303,0.051-0.516,0.051c-0.811,0-0.936-0.456-0.936-1.138h-0.025
			c-0.559,0.846-1.127,1.327-2.377,1.327c-1.199,0-2.186-0.594-2.186-1.908c0-1.831,1.781-1.895,3.502-2.096
			c0.656-0.077,1.021-0.165,1.021-0.886c0-1.074-0.771-1.339-1.705-1.339c-0.984,0-1.717,0.455-1.742,1.516H285.264z M289.508,19.61
			h-0.025c-0.102,0.19-0.455,0.254-0.668,0.292c-1.352,0.238-3.033,0.227-3.033,1.502c0,0.797,0.709,1.289,1.453,1.289
			c1.213,0,2.285-0.771,2.273-2.047V19.61z"/>
		<path d="M291.896,16.655h0.732v1.528h0.023c0.404-1.049,1.289-1.667,2.465-1.618v0.798c-1.439-0.077-2.426,0.984-2.426,2.337
			v3.474h-0.795V16.655z"/>
		<path d="M295.887,14.154h0.795v1.276h-0.795V14.154z M295.887,16.655h0.795v6.519h-0.795V16.655z"/>
		<path d="M298.135,18.65c0.076-1.527,1.15-2.184,2.641-2.184c1.148,0,2.4,0.353,2.4,2.096v3.461c0,0.304,0.15,0.48,0.467,0.48
			c0.088,0,0.189-0.025,0.254-0.051v0.67c-0.178,0.038-0.303,0.051-0.52,0.051c-0.809,0-0.934-0.456-0.934-1.138h-0.023
			c-0.557,0.846-1.127,1.327-2.377,1.327c-1.199,0-2.184-0.594-2.184-1.908c0-1.831,1.777-1.895,3.498-2.096
			c0.656-0.077,1.021-0.165,1.021-0.886c0-1.074-0.77-1.339-1.705-1.339c-0.982,0-1.719,0.455-1.742,1.516H298.135z M302.379,19.61
			h-0.025c-0.1,0.19-0.453,0.254-0.668,0.292c-1.354,0.238-3.031,0.227-3.031,1.502c0,0.797,0.707,1.289,1.453,1.289
			c1.211,0,2.285-0.771,2.271-2.047V19.61z"/>
		<path d="M306.031,16.655h1.326v0.67h-1.326v4.396c0,0.519,0.074,0.821,0.643,0.859c0.229,0,0.457-0.014,0.684-0.038v0.682
			c-0.242,0-0.467,0.025-0.707,0.025c-1.061,0-1.428-0.354-1.414-1.465v-4.459h-1.139v-0.67h1.139v-1.959h0.795V16.655z"/>
	</g>
</g>
</svg>
