<?xml version="1.0" encoding="utf-8"?>
<!-- Generator: Adobe Illustrator 16.0.4, SVG Export Plug-In . SVG Version: 6.00 Build 0)  -->
<!DOCTYPE svg PUBLIC "-//W3C//DTD SVG 1.1//EN" "http://www.w3.org/Graphics/SVG/1.1/DTD/svg11.dtd">
<svg version="1.1" id="Layer_1" xmlns="http://www.w3.org/2000/svg" xmlns:xlink="http://www.w3.org/1999/xlink" x="0px" y="0px"
	 width="395px" height="24.5px" viewBox="0 0 395 24.5" enable-background="new 0 0 395 24.5" xml:space="preserve">
<rect x="1.02" y="1.26" fill="#EF3E33" width="10.81" height="21.632"/>
<path fill="#EF3E33" d="M6.425,12.074"/>
<path fill="#EF3E33" d="M23.11,21.326c0,0-0.146-3.644-0.146-4.006s0.305-0.491,0.667-0.414c0.362,0.083,3.771,0.776,3.771,0.776
	s-0.261-0.737-0.445-1.286c-0.178-0.545,0.057-0.641,0.184-0.754c0.121-0.116,3.803-3.295,3.803-3.295l-0.598-0.299
	c-0.362-0.173-0.311-0.477-0.253-0.681c0.057-0.204,0.667-2.327,0.667-2.327s-1.59,0.356-1.966,0.414
	c-0.292,0.044-0.394-0.097-0.483-0.299c-0.095-0.204-0.477-1.133-0.477-1.133s-1.947,2.15-1.99,2.187
	c-0.375,0.344-0.739,0.084-0.668-0.315c0.064-0.365,0.999-4.668,0.999-4.668s-1.036,0.615-1.374,0.819
	c-0.343,0.203-0.522,0.173-0.706-0.158C23.917,5.558,22.639,3,22.639,3h0.007c0,0-1.278,2.558-1.456,2.888
	c-0.185,0.331-0.369,0.361-0.706,0.158c-0.343-0.204-1.374-0.819-1.374-0.819s0.936,4.303,0.999,4.668
	c0.07,0.399-0.299,0.659-0.667,0.315c-0.044-0.036-1.99-2.187-1.99-2.187s-0.388,0.929-0.477,1.133
	c-0.089,0.202-0.191,0.343-0.489,0.299c-0.369-0.058-2.023-0.414-2.023-0.414s0.667,2.123,0.725,2.327
	c0.057,0.204,0.115,0.508-0.248,0.681l-0.603,0.299c0,0,3.681,3.179,3.808,3.295c0.128,0.113,0.363,0.209,0.185,0.754
	c-0.185,0.549-0.446,1.286-0.446,1.286s3.409-0.693,3.771-0.776c0.363-0.077,0.668,0.052,0.668,0.414s-0.146,4.006-0.146,4.006
	H23.11z"/>
<rect x="33.449" y="1.26" fill="#EF3E33" width="10.81" height="21.632"/>
<path fill="#EF3E33" d="M38.855,12.074"/>
<g>
	<path d="M220.47,7.241c-0.037,1.857,1.303,2.426,2.942,2.426c0.947,0,2.389-0.519,2.389-1.833c0-1.023-1.023-1.427-1.858-1.629
		l-2.007-0.492c-1.062-0.266-2.033-0.771-2.033-2.174c0-0.885,0.567-2.539,3.105-2.539c1.781,0,3.348,0.96,3.336,2.804h-0.859
		c-0.049-1.377-1.186-2.071-2.461-2.071c-1.179,0-2.263,0.454-2.263,1.794c0,0.847,0.63,1.2,1.363,1.377l2.2,0.544
		c1.274,0.341,2.335,0.896,2.335,2.375c0,0.618-0.251,2.577-3.449,2.577c-2.133,0-3.701-0.961-3.599-3.158H220.47z"/>
	<path d="M228.339,7.164c0.014,1.163,0.621,2.565,2.147,2.565c1.163,0,1.793-0.683,2.049-1.669h0.794
		c-0.34,1.479-1.198,2.339-2.843,2.339c-2.07,0-2.942-1.593-2.942-3.449c0-1.719,0.872-3.448,2.942-3.448
		c2.098,0,2.931,1.83,2.87,3.662H228.339z M232.559,6.494c-0.037-1.199-0.782-2.323-2.072-2.323c-1.301,0-2.021,1.137-2.147,2.323
		H232.559z"/>
	<path d="M239.027,5.737c-0.214-0.973-0.81-1.566-1.845-1.566c-1.528,0-2.286,1.391-2.286,2.779s0.758,2.779,2.286,2.779
		c0.984,0,1.794-0.771,1.896-1.857h0.796c-0.214,1.566-1.237,2.527-2.691,2.527c-1.995,0-3.082-1.579-3.082-3.449
		c0-1.869,1.087-3.448,3.082-3.448c1.389,0,2.462,0.745,2.641,2.235H239.027z"/>
	<path d="M240.984,3.69h0.732V5.22h0.025c0.404-1.049,1.291-1.667,2.465-1.618v0.797c-1.441-0.076-2.426,0.985-2.426,2.337v3.474
		h-0.797V3.69z"/>
	<path d="M245.432,7.164c0.012,1.163,0.618,2.565,2.148,2.565c1.161,0,1.794-0.683,2.045-1.669h0.796
		c-0.342,1.479-1.2,2.339-2.841,2.339c-2.072,0-2.944-1.593-2.944-3.449c0-1.719,0.872-3.448,2.944-3.448
		c2.097,0,2.932,1.83,2.866,3.662H245.432z M249.648,6.494c-0.037-1.199-0.781-2.323-2.068-2.323c-1.302,0-2.021,1.137-2.148,2.323
		H249.648z M247.378,2.781h-0.645L248.058,1h0.988L247.378,2.781z"/>
	<path d="M252.782,3.69h1.328v0.67h-1.328v4.396c0,0.518,0.076,0.82,0.645,0.859c0.228,0,0.453-0.015,0.684-0.039v0.683
		c-0.242,0-0.47,0.025-0.708,0.025c-1.061,0-1.43-0.354-1.416-1.465V4.36h-1.135V3.69h1.135V1.732h0.796V3.69z"/>
	<path d="M255.183,5.688c0.074-1.529,1.151-2.186,2.64-2.186c1.151,0,2.403,0.353,2.403,2.096V9.06c0,0.304,0.148,0.479,0.465,0.479
		c0.089,0,0.19-0.024,0.252-0.05v0.67c-0.175,0.038-0.301,0.05-0.515,0.05c-0.81,0-0.936-0.455-0.936-1.138h-0.027
		c-0.556,0.847-1.123,1.328-2.375,1.328c-1.2,0-2.185-0.595-2.185-1.908c0-1.831,1.78-1.896,3.499-2.096
		c0.658-0.077,1.023-0.166,1.023-0.886c0-1.074-0.771-1.339-1.705-1.339c-0.984,0-1.717,0.454-1.744,1.517H255.183z M259.428,6.646
		h-0.025c-0.101,0.189-0.454,0.253-0.67,0.291c-1.35,0.239-3.031,0.227-3.031,1.503c0,0.796,0.705,1.289,1.452,1.289
		c1.214,0,2.286-0.771,2.274-2.047V6.646z"/>
	<path d="M261.816,3.69h0.732V5.22h0.023c0.405-1.049,1.289-1.667,2.464-1.618v0.797c-1.438-0.076-2.426,0.985-2.426,2.337v3.474
		h-0.794V3.69z"/>
	<path d="M265.808,2.466h0.794V1.189h-0.794V2.466z M265.808,10.209h0.794V3.69h-0.794V10.209z"/>
	<path d="M268.056,5.688c0.076-1.529,1.148-2.186,2.64-2.186c1.149,0,2.4,0.353,2.4,2.096V9.06c0,0.304,0.151,0.479,0.468,0.479
		c0.088,0,0.188-0.024,0.253-0.05v0.67c-0.177,0.038-0.304,0.05-0.519,0.05c-0.809,0-0.935-0.455-0.935-1.138h-0.023
		c-0.559,0.847-1.126,1.328-2.377,1.328c-1.198,0-2.187-0.595-2.187-1.908c0-1.831,1.781-1.896,3.502-2.096
		c0.656-0.077,1.021-0.166,1.021-0.886c0-1.074-0.77-1.339-1.705-1.339c-0.985,0-1.719,0.454-1.742,1.517H268.056z M272.3,6.646
		h-0.025c-0.102,0.189-0.453,0.253-0.668,0.291c-1.354,0.239-3.032,0.227-3.032,1.503c0,0.796,0.707,1.289,1.453,1.289
		c1.21,0,2.285-0.771,2.272-2.047V6.646z"/>
	<path d="M275.95,3.69h1.328v0.67h-1.328v4.396c0,0.518,0.076,0.82,0.645,0.859c0.228,0,0.453-0.015,0.684-0.039v0.683
		c-0.242,0-0.468,0.025-0.707,0.025c-1.062,0-1.431-0.354-1.417-1.465V4.36h-1.135V3.69h1.135V1.732h0.796V3.69z"/>
	<path d="M287.674,10.209h-0.733V8.971h-0.025c-0.34,0.848-1.377,1.429-2.323,1.429c-1.984,0-2.932-1.604-2.932-3.449
		s0.947-3.448,2.932-3.448c0.972,0,1.919,0.492,2.261,1.427h0.025V1.189h0.796V10.209z M284.592,9.729
		c1.693,0,2.286-1.428,2.286-2.779c0-1.353-0.593-2.779-2.286-2.779c-1.515,0-2.134,1.427-2.134,2.779
		C282.458,8.302,283.077,9.729,284.592,9.729z"/>
	<path d="M294.471,10.209h-0.733V9.034h-0.023c-0.418,0.871-1.278,1.365-2.251,1.365c-1.641,0-2.286-0.961-2.286-2.476V3.69h0.795
		v4.245c0.038,1.175,0.481,1.794,1.745,1.794c1.365,0,1.956-1.289,1.956-2.615V3.69h0.798V10.209z"/>
	<path d="M306.229,3.917c-0.301-1.389-1.45-2.185-2.766-2.185c-2.39,0-3.396,1.996-3.396,3.967s1.007,3.968,3.396,3.968
		c1.667,0,2.729-1.29,2.896-2.894h0.858c-0.242,2.211-1.645,3.626-3.754,3.626c-2.843,0-4.255-2.237-4.255-4.7S300.621,1,303.464,1
		c1.705,0,3.397,1.023,3.628,2.917H306.229z"/>
	<path d="M314.215,6.95c0,1.87-1.087,3.449-3.082,3.449c-1.996,0-3.083-1.579-3.083-3.449c0-1.869,1.087-3.448,3.083-3.448
		C313.128,3.502,314.215,5.081,314.215,6.95z M308.846,6.95c0,1.389,0.757,2.779,2.287,2.779c1.526,0,2.286-1.391,2.286-2.779
		s-0.76-2.779-2.286-2.779C309.603,4.171,308.846,5.562,308.846,6.95z"/>
	<path d="M315.39,3.69h0.795v1.125h0.025c0.291-0.783,1.161-1.313,2.085-1.313c1.83,0,2.389,0.959,2.389,2.513v4.194h-0.798V6.142
		c0-1.124-0.365-1.971-1.654-1.971c-1.265,0-2.021,0.96-2.047,2.236v3.802h-0.795V3.69z"/>
	<path d="M326.089,5.598c-0.037-0.984-0.797-1.427-1.705-1.427c-0.707,0-1.542,0.278-1.542,1.124c0,0.707,0.81,0.961,1.352,1.101
		l1.061,0.238c0.912,0.14,1.858,0.67,1.858,1.807c0,1.415-1.402,1.959-2.614,1.959c-1.519,0-2.552-0.708-2.68-2.3h0.798
		c0.062,1.073,0.858,1.63,1.919,1.63c0.745,0,1.782-0.328,1.782-1.238c0-0.758-0.709-1.011-1.427-1.188l-1.025-0.228
		c-1.035-0.278-1.816-0.632-1.816-1.744c0-1.325,1.3-1.83,2.449-1.83c1.301,0,2.336,0.683,2.389,2.096H326.089z"/>
	<path d="M328.729,7.164c0.012,1.163,0.619,2.565,2.147,2.565c1.16,0,1.793-0.683,2.047-1.669h0.795
		c-0.342,1.479-1.2,2.339-2.842,2.339c-2.071,0-2.945-1.593-2.945-3.449c0-1.719,0.874-3.448,2.945-3.448
		c2.096,0,2.931,1.83,2.867,3.662H328.729z M332.949,6.494c-0.038-1.199-0.782-2.323-2.072-2.323c-1.301,0-2.021,1.137-2.147,2.323
		H332.949z"/>
	<path d="M334.831,1.189h0.795v1.276h-0.795V1.189z M334.831,3.69h0.795v6.519h-0.795V3.69z"/>
	<path d="M337.168,1.189h0.796v9.02h-0.796V1.189z"/>
	<path d="M348.738,10.209h-0.732V8.971h-0.023c-0.342,0.848-1.377,1.429-2.326,1.429c-1.981,0-2.931-1.604-2.931-3.449
		s0.949-3.448,2.931-3.448c0.973,0,1.922,0.492,2.262,1.427h0.025V1.189h0.795V10.209z M345.656,9.729
		c1.693,0,2.287-1.428,2.287-2.779c0-1.353-0.594-2.779-2.287-2.779c-1.517,0-2.135,1.427-2.135,2.779
		C343.521,8.302,344.14,9.729,345.656,9.729z"/>
	<path d="M355.537,10.209h-0.732V9.034h-0.027c-0.419,0.871-1.277,1.365-2.247,1.365c-1.645,0-2.289-0.961-2.289-2.476V3.69h0.798
		v4.245c0.037,1.175,0.479,1.794,1.742,1.794c1.363,0,1.959-1.289,1.959-2.615V3.69h0.797V10.209z"/>
	<path d="M359.729,1.189h7.15v0.733h-3.147v8.286h-0.858V1.923h-3.145V1.189z"/>
	<path d="M366.414,3.69h0.733V5.22h0.025c0.404-1.049,1.288-1.667,2.461-1.618v0.797c-1.438-0.076-2.424,0.985-2.424,2.337v3.474
		h-0.796V3.69z"/>
	<path d="M370.861,7.164c0.012,1.163,0.619,2.565,2.146,2.565c1.163,0,1.796-0.683,2.049-1.669h0.794
		c-0.34,1.479-1.198,2.339-2.843,2.339c-2.068,0-2.942-1.593-2.942-3.449c0-1.719,0.874-3.448,2.942-3.448
		c2.098,0,2.933,1.83,2.87,3.662H370.861z M375.081,6.494c-0.037-1.199-0.783-2.323-2.074-2.323c-1.299,0-2.02,1.137-2.146,2.323
		H375.081z M372.805,2.781h-0.643L373.488,1h0.986L372.805,2.781z"/>
	<path d="M380.854,5.598c-0.037-0.984-0.798-1.427-1.705-1.427c-0.709,0-1.542,0.278-1.542,1.124c0,0.707,0.81,0.961,1.352,1.101
		l1.061,0.238c0.912,0.14,1.858,0.67,1.858,1.807c0,1.415-1.404,1.959-2.616,1.959c-1.517,0-2.55-0.708-2.68-2.3h0.798
		c0.062,1.073,0.858,1.63,1.919,1.63c0.746,0,1.781-0.328,1.781-1.238c0-0.758-0.707-1.011-1.428-1.188l-1.021-0.228
		c-1.037-0.278-1.821-0.632-1.821-1.744c0-1.325,1.303-1.83,2.452-1.83c1.3,0,2.337,0.683,2.387,2.096H380.854z"/>
	<path d="M388.863,6.95c0,1.87-1.086,3.449-3.082,3.449s-3.084-1.579-3.084-3.449c0-1.869,1.088-3.448,3.084-3.448
		S388.863,5.081,388.863,6.95z M383.495,6.95c0,1.389,0.756,2.779,2.286,2.779c1.526,0,2.284-1.391,2.284-2.779
		s-0.758-2.779-2.284-2.779C384.251,4.171,383.495,5.562,383.495,6.95z"/>
	<path d="M390.05,10.209h0.798V6.735c0-1.352,0.984-2.413,2.424-2.337V3.602c-1.175-0.049-2.061,0.569-2.465,1.618h-0.024V3.69
		h-0.732V10.209z"/>
	<path d="M225.649,22.842h-0.732v-1.238h-0.027c-0.34,0.848-1.375,1.428-2.324,1.428c-1.983,0-2.931-1.604-2.931-3.449
		c0-1.844,0.947-3.447,2.931-3.447c0.975,0,1.924,0.492,2.264,1.427h0.025v-3.739h0.795V22.842z M222.565,22.361
		c1.693,0,2.289-1.427,2.289-2.779c0-1.352-0.596-2.778-2.289-2.778c-1.515,0-2.133,1.427-2.133,2.778
		C220.433,20.935,221.051,22.361,222.565,22.361z"/>
	<path d="M232.444,22.842h-0.732v-1.175h-0.023c-0.419,0.872-1.277,1.364-2.251,1.364c-1.641,0-2.285-0.96-2.285-2.476v-4.232h0.796
		v4.245c0.039,1.175,0.481,1.793,1.744,1.793c1.363,0,1.957-1.288,1.957-2.615v-3.423h0.795V22.842z"/>
	<path d="M244.207,16.55c-0.304-1.389-1.453-2.185-2.768-2.185c-2.387,0-3.398,1.996-3.398,3.967s1.012,3.967,3.398,3.967
		c1.668,0,2.729-1.289,2.894-2.893h0.858c-0.239,2.211-1.644,3.625-3.752,3.625c-2.842,0-4.257-2.236-4.257-4.699
		s1.415-4.699,4.257-4.699c1.707,0,3.398,1.022,3.627,2.917H244.207z"/>
	<path d="M246.278,18.319c0.076-1.528,1.148-2.185,2.638-2.185c1.151,0,2.4,0.353,2.4,2.096v3.462c0,0.303,0.153,0.479,0.47,0.479
		c0.089,0,0.187-0.024,0.251-0.051v0.67c-0.177,0.038-0.302,0.051-0.519,0.051c-0.809,0-0.935-0.455-0.935-1.137h-0.023
		c-0.556,0.846-1.126,1.326-2.377,1.326c-1.198,0-2.183-0.594-2.183-1.908c0-1.831,1.781-1.895,3.499-2.096
		c0.655-0.077,1.023-0.165,1.023-0.884c0-1.075-0.772-1.34-1.707-1.34c-0.984,0-1.718,0.454-1.743,1.516H246.278z M250.523,19.278
		h-0.028c-0.1,0.19-0.453,0.254-0.667,0.292c-1.352,0.239-3.033,0.227-3.033,1.503c0,0.797,0.709,1.288,1.453,1.288
		c1.214,0,2.287-0.771,2.275-2.046V19.278z"/>
	<path d="M252.896,16.323h0.797v1.126h0.023c0.293-0.784,1.163-1.314,2.087-1.314c1.83,0,2.385,0.959,2.385,2.513v4.194h-0.794
		v-4.067c0-1.125-0.367-1.971-1.656-1.971c-1.263,0-2.021,0.96-2.045,2.236v3.802h-0.797V16.323z"/>
	<path d="M259.618,18.319c0.076-1.528,1.149-2.185,2.64-2.185c1.149,0,2.401,0.353,2.401,2.096v3.462
		c0,0.303,0.148,0.479,0.465,0.479c0.089,0,0.19-0.024,0.254-0.051v0.67c-0.177,0.038-0.303,0.051-0.517,0.051
		c-0.81,0-0.936-0.455-0.936-1.137H263.9c-0.558,0.846-1.125,1.326-2.377,1.326c-1.198,0-2.185-0.594-2.185-1.908
		c0-1.831,1.78-1.895,3.499-2.096c0.658-0.077,1.023-0.165,1.023-0.884c0-1.075-0.771-1.34-1.705-1.34
		c-0.984,0-1.717,0.454-1.744,1.516H259.618z M263.861,19.278h-0.025c-0.101,0.19-0.454,0.254-0.668,0.292
		c-1.352,0.239-3.033,0.227-3.033,1.503c0,0.797,0.709,1.288,1.454,1.288c1.212,0,2.284-0.771,2.272-2.046V19.278z"/>
	<path d="M271.984,22.842h-0.733v-1.238h-0.025c-0.34,0.848-1.377,1.428-2.323,1.428c-1.984,0-2.932-1.604-2.932-3.449
		c0-1.844,0.947-3.447,2.932-3.447c0.972,0,1.919,0.492,2.263,1.427h0.023v-3.739h0.796V22.842z M268.902,22.361
		c1.692,0,2.286-1.427,2.286-2.779c0-1.352-0.594-2.778-2.286-2.778c-1.515,0-2.134,1.427-2.134,2.778
		C266.769,20.935,267.388,22.361,268.902,22.361z"/>
	<path d="M273.424,18.319c0.077-1.528,1.151-2.185,2.641-2.185c1.148,0,2.4,0.353,2.4,2.096v3.462c0,0.303,0.151,0.479,0.467,0.479
		c0.089,0,0.189-0.024,0.254-0.051v0.67c-0.177,0.038-0.303,0.051-0.519,0.051c-0.81,0-0.936-0.455-0.936-1.137h-0.023
		c-0.558,0.846-1.125,1.326-2.377,1.326c-1.198,0-2.187-0.594-2.187-1.908c0-1.831,1.782-1.895,3.503-2.096
		c0.656-0.077,1.021-0.165,1.021-0.884c0-1.075-0.771-1.34-1.705-1.34c-0.984,0-1.717,0.454-1.742,1.516H273.424z M277.669,19.278
		h-0.025c-0.101,0.19-0.454,0.254-0.668,0.292c-1.354,0.239-3.033,0.227-3.033,1.503c0,0.797,0.707,1.288,1.454,1.288
		c1.212,0,2.284-0.771,2.272-2.046V19.278z"/>
</g>
<g>
	<path d="M60.376,1.385h7.149v0.733h-3.145v8.286h-0.86V2.118h-3.145V1.385z"/>
	<path d="M68.106,3.886h0.733v1.528h0.025c0.404-1.049,1.289-1.667,2.463-1.618v0.798c-1.44-0.076-2.425,0.984-2.425,2.337v3.474
		h-0.797V3.886z"/>
	<path d="M72.326,7.359c0.013,1.162,0.619,2.564,2.148,2.564c1.162,0,1.793-0.683,2.046-1.667h0.796
		c-0.342,1.478-1.201,2.337-2.843,2.337c-2.072,0-2.943-1.592-2.943-3.449c0-1.718,0.872-3.447,2.943-3.447
		c2.097,0,2.931,1.831,2.868,3.662H72.326z M76.545,6.689c-0.038-1.199-0.783-2.324-2.072-2.324c-1.301,0-2.021,1.137-2.148,2.324
		H76.545z"/>
	<path d="M78.339,5.882c0.076-1.528,1.149-2.185,2.641-2.185c1.149,0,2.4,0.353,2.4,2.096v3.461c0,0.304,0.152,0.48,0.467,0.48
		c0.088,0,0.189-0.024,0.253-0.051v0.67c-0.177,0.038-0.303,0.051-0.518,0.051c-0.808,0-0.935-0.455-0.935-1.137h-0.024
		c-0.557,0.846-1.125,1.326-2.375,1.326c-1.2,0-2.186-0.594-2.186-1.908c0-1.831,1.781-1.895,3.499-2.096
		c0.657-0.077,1.023-0.165,1.023-0.885c0-1.075-0.771-1.34-1.706-1.34c-0.985,0-1.718,0.455-1.743,1.517H78.339z M82.583,6.841
		h-0.025c-0.101,0.19-0.454,0.254-0.669,0.292c-1.352,0.238-3.032,0.227-3.032,1.503c0,0.796,0.708,1.288,1.453,1.288
		c1.213,0,2.287-0.771,2.273-2.047V6.841z"/>
	<path d="M88.875,5.793c-0.037-0.985-0.795-1.428-1.706-1.428c-0.707,0-1.541,0.278-1.541,1.125c0,0.707,0.808,0.96,1.352,1.1
		l1.061,0.239c0.91,0.14,1.857,0.67,1.857,1.807c0,1.414-1.402,1.958-2.614,1.958c-1.517,0-2.552-0.708-2.679-2.299H85.4
		c0.063,1.073,0.86,1.629,1.92,1.629c0.746,0,1.782-0.328,1.782-1.238c0-0.757-0.708-1.011-1.428-1.187l-1.023-0.229
		c-1.036-0.277-1.819-0.632-1.819-1.742c0-1.327,1.301-1.831,2.452-1.831c1.301,0,2.336,0.682,2.387,2.096H88.875z"/>
	<path d="M96.328,10.404h-0.733V9.229H95.57c-0.417,0.871-1.275,1.364-2.249,1.364c-1.643,0-2.286-0.96-2.286-2.476V3.886h0.795
		v4.245c0.038,1.175,0.48,1.793,1.743,1.793c1.365,0,1.958-1.288,1.958-2.615V3.886h0.796V10.404z"/>
	<path d="M97.831,3.886h0.733v1.528h0.025c0.404-1.049,1.289-1.667,2.463-1.618v0.798c-1.439-0.076-2.425,0.984-2.425,2.337v3.474
		h-0.796V3.886z"/>
	<path d="M101.078,3.886h0.846l2.148,5.559l2.008-5.559h0.796l-2.83,7.517c-0.454,1.1-0.72,1.414-1.718,1.414
		c-0.315-0.012-0.48-0.012-0.607-0.062v-0.67c0.19,0.038,0.367,0.062,0.544,0.062c0.707,0,0.872-0.416,1.137-1.022l0.278-0.744
		L101.078,3.886z"/>
	<path d="M111.322,1.385h3.815c1.516,0,2.893,0.53,2.893,2.211c0,0.947-0.632,1.818-1.566,2.021v0.025
		c1.163,0.151,1.908,1.023,1.908,2.197c0,0.86-0.303,2.565-3.234,2.565h-3.815V1.385z M112.182,5.338h2.956
		c1.376,0,2.034-0.682,2.034-1.527c0-1.125-0.695-1.692-2.034-1.692h-2.956V5.338z M112.182,9.672h2.956
		c1.276,0.012,2.375-0.418,2.375-1.857c0-1.149-0.872-1.742-2.375-1.742h-2.956V9.672z"/>
	<path d="M125.433,7.145c0,1.87-1.086,3.449-3.083,3.449s-3.083-1.579-3.083-3.449c0-1.869,1.086-3.447,3.083-3.447
		S125.433,5.275,125.433,7.145z M120.064,7.145c0,1.39,0.758,2.779,2.286,2.779s2.287-1.39,2.287-2.779
		c0-1.389-0.758-2.779-2.287-2.779S120.064,5.756,120.064,7.145z"/>
	<path d="M126.544,5.882c0.076-1.528,1.149-2.185,2.641-2.185c1.149,0,2.4,0.353,2.4,2.096v3.461c0,0.304,0.151,0.48,0.467,0.48
		c0.088,0,0.189-0.024,0.252-0.051v0.67c-0.176,0.038-0.302,0.051-0.518,0.051c-0.808,0-0.935-0.455-0.935-1.137h-0.025
		c-0.556,0.846-1.125,1.326-2.375,1.326c-1.2,0-2.186-0.594-2.186-1.908c0-1.831,1.781-1.895,3.5-2.096
		c0.656-0.077,1.023-0.165,1.023-0.885c0-1.075-0.771-1.34-1.706-1.34c-0.986,0-1.718,0.455-1.743,1.517H126.544z M130.79,6.841
		h-0.025c-0.101,0.19-0.455,0.254-0.669,0.292c-1.352,0.238-3.032,0.227-3.032,1.503c0,0.796,0.708,1.288,1.453,1.288
		c1.213,0,2.287-0.771,2.274-2.047V6.841z"/>
	<path d="M133.177,3.886h0.732v1.528h0.026c0.404-1.049,1.289-1.667,2.463-1.618v0.798c-1.44-0.076-2.425,0.984-2.425,2.337v3.474
		h-0.796V3.886z"/>
	<path d="M142.664,10.404h-0.732V9.166h-0.026c-0.341,0.847-1.377,1.428-2.325,1.428c-1.983,0-2.931-1.604-2.931-3.449
		s0.948-3.447,2.931-3.447c0.973,0,1.92,0.492,2.262,1.427h0.025V1.385h0.796V10.404z M139.581,9.924
		c1.693,0,2.287-1.427,2.287-2.779c0-1.352-0.593-2.779-2.287-2.779c-1.516,0-2.135,1.428-2.135,2.779
		C137.446,8.497,138.065,9.924,139.581,9.924z"/>
	<path d="M153.528,7.145c0,1.87-1.086,3.449-3.082,3.449c-1.997,0-3.083-1.579-3.083-3.449c0-1.869,1.086-3.447,3.083-3.447
		C152.441,3.697,153.528,5.275,153.528,7.145z M148.159,7.145c0,1.39,0.758,2.779,2.287,2.779c1.528,0,2.286-1.39,2.286-2.779
		c0-1.389-0.758-2.779-2.286-2.779C148.917,4.365,148.159,5.756,148.159,7.145z"/>
	<path d="M157.229,4.556h-1.289v5.849h-0.795V4.556h-1.112v-0.67h1.112V3.292c-0.013-1.125,0.303-1.907,1.579-1.907
		c0.227,0,0.416,0.012,0.669,0.05v0.684c-0.214-0.039-0.391-0.064-0.581-0.064c-0.884,0-0.859,0.556-0.872,1.264v0.568h1.289V4.556z
		"/>
	<path d="M168.245,4.112c-0.303-1.389-1.453-2.185-2.767-2.185c-2.388,0-3.398,1.996-3.398,3.967s1.01,3.967,3.398,3.967
		c1.667,0,2.729-1.29,2.893-2.893h0.859c-0.24,2.21-1.642,3.625-3.752,3.625c-2.842,0-4.257-2.236-4.257-4.699s1.415-4.7,4.257-4.7
		c1.706,0,3.398,1.024,3.626,2.918H168.245z"/>
	<path d="M170.316,5.882c0.076-1.528,1.149-2.185,2.64-2.185c1.15,0,2.4,0.353,2.4,2.096v3.461c0,0.304,0.152,0.48,0.468,0.48
		c0.088,0,0.188-0.024,0.252-0.051v0.67c-0.177,0.038-0.304,0.051-0.518,0.051c-0.809,0-0.935-0.455-0.935-1.137h-0.025
		c-0.556,0.846-1.124,1.326-2.375,1.326c-1.2,0-2.185-0.594-2.185-1.908c0-1.831,1.781-1.895,3.499-2.096
		c0.657-0.077,1.023-0.165,1.023-0.885c0-1.075-0.771-1.34-1.706-1.34c-0.985,0-1.718,0.455-1.744,1.517H170.316z M174.561,6.841
		h-0.026c-0.101,0.19-0.454,0.254-0.668,0.292c-1.353,0.238-3.033,0.227-3.033,1.503c0,0.796,0.708,1.288,1.453,1.288
		c1.213,0,2.287-0.771,2.274-2.047V6.841z"/>
	<path d="M176.937,3.886h0.795v1.125h0.024c0.291-0.783,1.163-1.313,2.085-1.313c1.831,0,2.387,0.959,2.387,2.513v4.194h-0.794
		V6.337c0-1.125-0.369-1.972-1.656-1.972c-1.263,0-2.021,0.961-2.046,2.237v3.802h-0.795V3.886z"/>
	<path d="M183.657,5.882c0.077-1.528,1.149-2.185,2.64-2.185c1.149,0,2.4,0.353,2.4,2.096v3.461c0,0.304,0.151,0.48,0.466,0.48
		c0.089,0,0.19-0.024,0.254-0.051v0.67c-0.178,0.038-0.304,0.051-0.519,0.051c-0.809,0-0.935-0.455-0.935-1.137h-0.024
		c-0.557,0.846-1.125,1.326-2.376,1.326c-1.199,0-2.187-0.594-2.187-1.908c0-1.831,1.782-1.895,3.502-2.096
		c0.656-0.077,1.021-0.165,1.021-0.885c0-1.075-0.77-1.34-1.705-1.34c-0.985,0-1.718,0.455-1.741,1.517H183.657z M187.9,6.841
		h-0.024c-0.102,0.19-0.454,0.254-0.669,0.292c-1.353,0.238-3.032,0.227-3.032,1.503c0,0.796,0.707,1.288,1.453,1.288
		c1.211,0,2.286-0.771,2.272-2.047V6.841z"/>
	<path d="M196.022,10.404h-0.733V9.166h-0.024c-0.341,0.847-1.376,1.428-2.324,1.428c-1.984,0-2.932-1.604-2.932-3.449
		s0.948-3.447,2.932-3.447c0.971,0,1.92,0.492,2.262,1.427h0.026V1.385h0.793V10.404z M192.941,9.924
		c1.692,0,2.288-1.427,2.288-2.779c0-1.352-0.595-2.779-2.288-2.779c-1.516,0-2.134,1.428-2.134,2.779
		C190.807,8.497,191.426,9.924,192.941,9.924z"/>
	<path d="M197.464,5.882c0.077-1.528,1.149-2.185,2.638-2.185c1.151,0,2.403,0.353,2.403,2.096v3.461c0,0.304,0.148,0.48,0.465,0.48
		c0.089,0,0.19-0.024,0.254-0.051v0.67c-0.177,0.038-0.303,0.051-0.517,0.051c-0.81,0-0.938-0.455-0.938-1.137h-0.023
		c-0.558,0.846-1.126,1.326-2.376,1.326c-1.2,0-2.186-0.594-2.186-1.908c0-1.831,1.78-1.895,3.501-2.096
		c0.656-0.077,1.021-0.165,1.021-0.885c0-1.075-0.771-1.34-1.705-1.34c-0.984,0-1.718,0.455-1.742,1.517H197.464z M201.708,6.841
		h-0.025c-0.101,0.19-0.454,0.254-0.668,0.292c-1.352,0.238-3.033,0.227-3.033,1.503c0,0.796,0.708,1.288,1.454,1.288
		c1.212,0,2.284-0.771,2.272-2.047V6.841z"/>
	<path d="M61.753,20.068c-0.039,1.857,1.301,2.426,2.943,2.426c0.947,0,2.387-0.519,2.387-1.833c0-1.023-1.022-1.427-1.856-1.629
		l-2.008-0.492c-1.062-0.266-2.034-0.771-2.034-2.174c0-0.885,0.569-2.539,3.108-2.539c1.781,0,3.348,0.96,3.335,2.805h-0.859
		c-0.05-1.377-1.187-2.071-2.463-2.071c-1.175,0-2.261,0.455-2.261,1.793c0,0.847,0.631,1.201,1.364,1.377l2.198,0.544
		c1.276,0.341,2.337,0.897,2.337,2.375c0,0.618-0.253,2.578-3.448,2.578c-2.135,0-3.702-0.962-3.601-3.159H61.753z"/>
	<path d="M69.623,19.992c0.013,1.162,0.619,2.565,2.147,2.565c1.163,0,1.793-0.683,2.046-1.668h0.796
		c-0.341,1.477-1.199,2.338-2.842,2.338c-2.071,0-2.943-1.594-2.943-3.45c0-1.719,0.872-3.448,2.943-3.448
		c2.097,0,2.931,1.831,2.868,3.663H69.623z M73.842,19.322c-0.038-1.198-0.784-2.324-2.072-2.324c-1.301,0-2.021,1.138-2.147,2.324
		H73.842z"/>
	<path d="M80.31,18.564c-0.215-0.973-0.809-1.566-1.844-1.566c-1.529,0-2.287,1.391-2.287,2.779s0.758,2.78,2.287,2.78
		c0.985,0,1.793-0.771,1.895-1.857h0.796c-0.215,1.565-1.238,2.527-2.691,2.527c-1.996,0-3.083-1.58-3.083-3.45
		c0-1.869,1.086-3.448,3.083-3.448c1.389,0,2.463,0.745,2.64,2.235H80.31z"/>
	<path d="M82.268,16.518H83v1.529h0.026c0.403-1.049,1.288-1.667,2.463-1.617v0.796c-1.44-0.075-2.426,0.985-2.426,2.337v3.474
		h-0.795V16.518z"/>
	<path d="M86.487,19.992c0.013,1.162,0.62,2.565,2.148,2.565c1.162,0,1.794-0.683,2.047-1.668h0.795
		c-0.341,1.477-1.2,2.338-2.842,2.338c-2.072,0-2.943-1.594-2.943-3.45c0-1.719,0.872-3.448,2.943-3.448
		c2.097,0,2.931,1.831,2.868,3.663H86.487z M90.706,19.322c-0.038-1.198-0.783-2.324-2.071-2.324c-1.302,0-2.021,1.138-2.148,2.324
		H90.706z"/>
	<path d="M93.839,16.518h1.326v0.671h-1.326v4.396c0,0.518,0.076,0.821,0.644,0.859c0.228,0,0.455-0.014,0.682-0.038v0.683
		c-0.24,0-0.467,0.024-0.707,0.024c-1.062,0-1.428-0.353-1.416-1.465v-4.459h-1.137v-0.671h1.137v-1.957h0.796V16.518z"/>
	<path d="M96.239,18.515c0.076-1.528,1.149-2.186,2.641-2.186c1.149,0,2.4,0.354,2.4,2.096v3.463c0,0.303,0.152,0.479,0.467,0.479
		c0.089,0,0.19-0.024,0.252-0.05v0.67c-0.177,0.038-0.303,0.05-0.518,0.05c-0.809,0-0.935-0.454-0.935-1.137h-0.025
		c-0.555,0.847-1.124,1.328-2.375,1.328c-1.201,0-2.185-0.596-2.185-1.909c0-1.83,1.781-1.896,3.499-2.096
		c0.657-0.076,1.023-0.166,1.023-0.885c0-1.074-0.771-1.34-1.706-1.34c-0.986,0-1.718,0.456-1.744,1.517H96.239z M100.484,19.475
		h-0.026c-0.101,0.189-0.455,0.252-0.669,0.29c-1.352,0.24-3.032,0.228-3.032,1.503c0,0.798,0.707,1.29,1.453,1.29
		c1.212,0,2.287-0.771,2.274-2.047V19.475z"/>
	<path d="M102.871,16.518h0.733v1.529h0.025c0.404-1.049,1.289-1.667,2.463-1.617v0.796c-1.44-0.075-2.425,0.985-2.425,2.337v3.474
		h-0.796V16.518z"/>
	<path d="M106.863,14.018h0.796v1.275h-0.796V14.018z M106.863,16.518h0.796v6.519h-0.796V16.518z"/>
	<path d="M109.112,18.515c0.076-1.528,1.15-2.186,2.641-2.186c1.149,0,2.4,0.354,2.4,2.096v3.463c0,0.303,0.151,0.479,0.467,0.479
		c0.089,0,0.19-0.024,0.253-0.05v0.67c-0.177,0.038-0.303,0.05-0.518,0.05c-0.809,0-0.935-0.454-0.935-1.137h-0.026
		c-0.555,0.847-1.125,1.328-2.375,1.328c-1.201,0-2.186-0.596-2.186-1.909c0-1.83,1.781-1.896,3.5-2.096
		c0.657-0.076,1.022-0.166,1.022-0.885c0-1.074-0.77-1.34-1.705-1.34c-0.986,0-1.719,0.456-1.744,1.517H109.112z M113.356,19.475
		h-0.024c-0.102,0.189-0.456,0.252-0.67,0.29c-1.352,0.24-3.032,0.228-3.032,1.503c0,0.798,0.707,1.29,1.453,1.29
		c1.212,0,2.287-0.771,2.273-2.047V19.475z"/>
	<path d="M117.007,16.518h1.326v0.671h-1.326v4.396c0,0.518,0.076,0.821,0.644,0.859c0.227,0,0.455-0.014,0.682-0.038v0.683
		c-0.24,0-0.467,0.024-0.707,0.024c-1.062,0-1.428-0.353-1.416-1.465v-4.459h-1.136v-0.671h1.136v-1.957h0.796V16.518z"/>
</g>
</svg>
