<?xml version="1.0" encoding="UTF-8"?><svg id="Layer_1" xmlns="http://www.w3.org/2000/svg" viewBox="0 0 858 100"><defs><style>.cls-1{fill:#231f20;}.cls-1,.cls-2{stroke-width:0px;}.cls-2{fill:#ed1c24;}</style></defs><path class="cls-1" d="m314.49,2.37v4.74h-13.41v35.05h-5.45V7.11h-13.41V2.37h32.26Z"/><path class="cls-1" d="m315.61,13.15h4.63v5.01c.38-.98,1.31-2.16,2.79-3.56,1.48-1.4,3.19-2.1,5.12-2.1.09,0,.24,0,.46.03s.59.05,1.11.11v5.15c-.29-.05-.56-.09-.8-.11s-.51-.03-.8-.03c-2.46,0-4.34.79-5.66,2.37-1.32,1.58-1.98,3.4-1.98,5.46v16.69h-4.88V13.15Z"/><path class="cls-1" d="m349.33,24.6c1.12-.14,1.87-.61,2.25-1.41.22-.44.32-1.06.32-1.88,0-1.67-.59-2.88-1.77-3.63-1.18-.75-2.87-1.13-5.07-1.13-2.54,0-4.34.69-5.41,2.07-.59.76-.98,1.9-1.16,3.4h-4.55c.09-3.59,1.25-6.08,3.48-7.48,2.23-1.4,4.81-2.11,7.75-2.11,3.41,0,6.18.65,8.31,1.95,2.11,1.3,3.17,3.32,3.17,6.07v16.72c0,.51.1.91.31,1.22.21.31.65.46,1.31.46.22,0,.46-.01.73-.04.27-.03.56-.07.87-.12v3.6c-.76.22-1.34.35-1.73.41s-.94.08-1.63.08c-1.68,0-2.9-.6-3.66-1.79-.4-.63-.68-1.53-.84-2.68-.99,1.3-2.42,2.43-4.28,3.39-1.86.96-3.91,1.44-6.15,1.44-2.69,0-4.89-.82-6.6-2.45-1.71-1.63-2.56-3.68-2.56-6.13,0-2.69.84-4.77,2.52-6.25,1.68-1.48,3.88-2.39,6.61-2.73l7.78-.97Zm-10.27,13.17c1.03.81,2.25,1.22,3.66,1.22,1.72,0,3.38-.4,4.98-1.19,2.71-1.32,4.06-3.47,4.06-6.46v-3.92c-.6.38-1.36.7-2.3.95-.94.25-1.86.43-2.76.54l-2.95.38c-1.77.23-3.09.6-3.98,1.11-1.51.85-2.26,2.2-2.26,4.05,0,1.41.51,2.51,1.54,3.32Z"/><path class="cls-1" d="m364.47,13.15h4.63v4.12c1.37-1.7,2.83-2.92,4.36-3.66,1.54-.74,3.24-1.11,5.12-1.11,4.12,0,6.9,1.44,8.34,4.31.79,1.57,1.19,3.82,1.19,6.75v18.61h-4.96v-18.29c0-1.77-.26-3.2-.79-4.28-.87-1.81-2.44-2.71-4.71-2.71-1.16,0-2.1.12-2.84.35-1.34.4-2.51,1.19-3.52,2.38-.81.96-1.34,1.95-1.58,2.97s-.37,2.48-.37,4.37v15.2h-4.88V13.15Z"/><path class="cls-1" d="m398.06,33.06c.15,1.63.56,2.87,1.24,3.74,1.25,1.57,3.43,2.36,6.52,2.36,1.84,0,3.47-.39,4.87-1.18,1.4-.79,2.1-2,2.1-3.64,0-1.25-.56-2.19-1.68-2.84-.72-.4-2.13-.86-4.24-1.38l-3.94-.98c-2.51-.61-4.37-1.3-5.56-2.06-2.13-1.32-3.19-3.14-3.19-5.47,0-2.75,1-4.97,3.01-6.66,2-1.7,4.7-2.55,8.09-2.55,4.43,0,7.62,1.28,9.58,3.85,1.23,1.63,1.82,3.38,1.79,5.26h-4.61c-.09-1.1-.49-2.09-1.19-2.99-1.15-1.28-3.13-1.91-5.96-1.91-1.89,0-3.31.35-4.28,1.05-.97.7-1.46,1.63-1.46,2.78,0,1.26.64,2.27,1.91,3.02.74.45,1.82.85,3.26,1.19l3.29.79c3.57.85,5.96,1.67,7.18,2.47,1.9,1.25,2.84,3.21,2.84,5.88s-.99,4.81-2.98,6.69c-1.98,1.88-5.01,2.82-9.06,2.82-4.37,0-7.46-.98-9.28-2.94-1.82-1.96-2.79-4.38-2.92-7.27h4.69Z"/><path class="cls-1" d="m422.33,13.28h4.77v3.85c.98-1.32,2.05-2.34,3.21-3.06,1.65-1.08,3.58-1.63,5.81-1.63,3.3,0,6.09,1.26,8.39,3.78,2.3,2.52,3.45,6.12,3.45,10.8,0,6.32-1.66,10.84-4.98,13.55-2.1,1.72-4.55,2.57-7.34,2.57-2.19,0-4.03-.48-5.52-1.44-.87-.54-1.84-1.47-2.91-2.79v14.82h-4.88V13.28Zm18.35,22.74c1.51-1.91,2.27-4.75,2.27-8.55,0-2.31-.34-4.3-1.01-5.96-1.27-3.2-3.59-4.79-6.96-4.79s-5.71,1.69-6.96,5.07c-.67,1.81-1.01,4.1-1.01,6.88,0,2.24.34,4.14,1.01,5.72,1.27,3,3.59,4.5,6.96,4.5,2.28,0,4.18-.95,5.69-2.86Z"/><path class="cls-1" d="m474.44,16.05c2.56,2.49,3.85,6.15,3.85,10.99s-1.13,8.53-3.39,11.58c-2.26,3.05-5.77,4.57-10.52,4.57-3.96,0-7.11-1.35-9.44-4.05-2.33-2.7-3.5-6.32-3.5-10.87,0-4.87,1.23-8.75,3.68-11.64,2.46-2.89,5.76-4.33,9.9-4.33,3.71,0,6.85,1.24,9.42,3.74Zm-3.03,19.28c1.19-2.44,1.78-5.16,1.78-8.16,0-2.71-.43-4.91-1.29-6.6-1.36-2.67-3.7-4-7.02-4-2.95,0-5.09,1.14-6.43,3.41-1.34,2.27-2.01,5.01-2.01,8.23s.67,5.66,2.01,7.71c1.34,2.06,3.46,3.08,6.38,3.08,3.2,0,5.39-1.22,6.58-3.67Z"/><path class="cls-1" d="m484.25,13.15h4.63v5.01c.38-.98,1.31-2.16,2.79-3.56,1.48-1.4,3.19-2.1,5.12-2.1.09,0,.24,0,.46.03s.59.05,1.11.11v5.15c-.29-.05-.56-.09-.8-.11s-.51-.03-.8-.03c-2.46,0-4.34.79-5.66,2.37-1.32,1.58-1.98,3.4-1.98,5.46v16.69h-4.88V13.15Z"/><path class="cls-1" d="m503.4,5.05h4.93v8.1h4.63v3.98h-4.63v18.94c0,1.01.34,1.69,1.03,2.03.38.2,1.01.3,1.9.3.23,0,.49,0,.76-.02s.59-.04.95-.09v3.87c-.56.16-1.14.28-1.75.35s-1.26.11-1.96.11c-2.28,0-3.82-.58-4.63-1.75-.81-1.16-1.22-2.68-1.22-4.54v-19.21h-3.93v-3.98h3.93V5.05Z"/><path class="cls-1" d="m313.71,60.75c2.75,2.65,4.28,5.67,4.58,9.05h-5.26c-.59-2.56-1.75-4.6-3.5-6.1-1.75-1.5-4.2-2.25-7.36-2.25-3.85,0-6.96,1.38-9.32,4.13-2.37,2.76-3.55,6.98-3.55,12.68,0,4.66,1.07,8.45,3.21,11.35,2.14,2.9,5.33,4.35,9.57,4.35,3.9,0,6.87-1.53,8.92-4.58,1.08-1.61,1.89-3.72,2.42-6.34h5.26c-.46,4.19-2,7.7-4.61,10.54-3.12,3.41-7.34,5.12-12.64,5.12-4.57,0-8.41-1.4-11.51-4.2-4.09-3.7-6.13-9.42-6.13-17.16,0-5.87,1.54-10.69,4.61-14.45,3.32-4.08,7.9-6.13,13.74-6.13,4.98,0,8.84,1.33,11.59,3.98Z"/><path class="cls-1" d="m340.36,80.09c1.12-.14,1.87-.61,2.25-1.41.22-.44.32-1.06.32-1.88,0-1.67-.59-2.88-1.77-3.63-1.18-.75-2.87-1.13-5.07-1.13-2.54,0-4.34.69-5.41,2.07-.59.76-.98,1.9-1.16,3.4h-4.55c.09-3.59,1.25-6.08,3.48-7.48,2.23-1.4,4.81-2.11,7.75-2.11,3.41,0,6.18.65,8.31,1.95,2.11,1.3,3.17,3.32,3.17,6.07v16.72c0,.51.1.91.31,1.22.21.31.65.46,1.31.46.22,0,.46-.01.73-.04.27-.03.56-.07.87-.12v3.6c-.76.22-1.34.35-1.73.41-.4.05-.94.08-1.63.08-1.68,0-2.9-.6-3.66-1.79-.4-.63-.68-1.53-.84-2.68-.99,1.3-2.42,2.43-4.28,3.39-1.86.96-3.91,1.44-6.15,1.44-2.69,0-4.89-.82-6.6-2.45s-2.56-3.68-2.56-6.13c0-2.69.84-4.77,2.52-6.25,1.68-1.48,3.88-2.39,6.61-2.73l7.78-.97Zm-10.27,13.17c1.03.81,2.25,1.22,3.66,1.22,1.72,0,3.38-.4,4.98-1.19,2.71-1.32,4.06-3.47,4.06-6.46v-3.92c-.6.38-1.36.7-2.3.95s-1.86.43-2.76.54l-2.95.38c-1.77.23-3.09.6-3.98,1.11-1.51.85-2.26,2.2-2.26,4.05,0,1.41.51,2.51,1.54,3.32Z"/><path class="cls-1" d="m355.5,68.63h4.63v4.12c1.37-1.7,2.83-2.92,4.36-3.66s3.24-1.11,5.12-1.11c4.12,0,6.9,1.44,8.34,4.31.79,1.57,1.19,3.82,1.19,6.75v18.61h-4.96v-18.29c0-1.77-.26-3.2-.79-4.28-.87-1.81-2.44-2.71-4.71-2.71-1.16,0-2.1.12-2.84.35-1.34.4-2.51,1.19-3.52,2.38-.81.96-1.34,1.95-1.58,2.97s-.37,2.48-.37,4.37v15.2h-4.88v-29.01Z"/><path class="cls-1" d="m401.74,80.09c1.12-.14,1.87-.61,2.25-1.41.22-.44.32-1.06.32-1.88,0-1.67-.59-2.88-1.77-3.63-1.18-.75-2.87-1.13-5.07-1.13-2.54,0-4.34.69-5.41,2.07-.59.76-.98,1.9-1.16,3.4h-4.55c.09-3.59,1.25-6.08,3.48-7.48,2.23-1.4,4.81-2.11,7.75-2.11,3.41,0,6.18.65,8.31,1.95,2.11,1.3,3.17,3.32,3.17,6.07v16.72c0,.51.1.91.31,1.22.21.31.65.46,1.31.46.22,0,.46-.01.73-.04.27-.03.56-.07.87-.12v3.6c-.76.22-1.34.35-1.73.41s-.94.08-1.63.08c-1.68,0-2.9-.6-3.66-1.79-.4-.63-.68-1.53-.84-2.68-.99,1.3-2.42,2.43-4.28,3.39s-3.91,1.44-6.15,1.44c-2.69,0-4.89-.82-6.6-2.45s-2.56-3.68-2.56-6.13c0-2.69.84-4.77,2.52-6.25,1.68-1.48,3.88-2.39,6.61-2.73l7.78-.97Zm-10.27,13.17c1.03.81,2.25,1.22,3.66,1.22,1.72,0,3.38-.4,4.98-1.19,2.71-1.32,4.06-3.47,4.06-6.46v-3.92c-.6.38-1.36.7-2.3.95s-1.86.43-2.76.54l-2.95.38c-1.77.23-3.09.6-3.98,1.11-1.51.85-2.26,2.2-2.26,4.05,0,1.41.51,2.51,1.54,3.32Z"/><path class="cls-1" d="m432.82,69.52c.86.54,1.84,1.49,2.94,2.84v-14.66h4.69v39.93h-4.39v-4.04c-1.13,1.79-2.47,3.08-4.02,3.87-1.55.79-3.32,1.19-5.32,1.19-3.22,0-6.01-1.36-8.37-4.08-2.36-2.72-3.54-6.34-3.54-10.85,0-4.23,1.07-7.89,3.22-10.98,2.15-3.1,5.22-4.65,9.22-4.65,2.21,0,4.07.47,5.56,1.41Zm-10.89,21.75c1.31,2.09,3.41,3.14,6.31,3.14,2.25,0,4.09-.97,5.54-2.91,1.45-1.94,2.17-4.73,2.17-8.36s-.75-6.38-2.24-8.14c-1.49-1.76-3.33-2.64-5.53-2.64-2.44,0-4.42.94-5.94,2.82-1.52,1.88-2.28,4.64-2.28,8.29,0,3.11.66,5.71,1.97,7.8Z"/><path class="cls-1" d="m463.12,80.09c1.12-.14,1.87-.61,2.25-1.41.22-.44.32-1.06.32-1.88,0-1.67-.59-2.88-1.77-3.63-1.18-.75-2.87-1.13-5.07-1.13-2.54,0-4.34.69-5.41,2.07-.59.76-.98,1.9-1.16,3.4h-4.55c.09-3.59,1.25-6.08,3.48-7.48,2.23-1.4,4.81-2.11,7.75-2.11,3.41,0,6.18.65,8.31,1.95,2.11,1.3,3.17,3.32,3.17,6.07v16.72c0,.51.1.91.31,1.22.21.31.65.46,1.31.46.22,0,.46-.01.73-.04.27-.03.56-.07.87-.12v3.6c-.76.22-1.34.35-1.73.41s-.94.08-1.63.08c-1.68,0-2.9-.6-3.66-1.79-.4-.63-.68-1.53-.84-2.68-.99,1.3-2.42,2.43-4.28,3.39-1.86.96-3.91,1.44-6.15,1.44-2.69,0-4.89-.82-6.6-2.45s-2.56-3.68-2.56-6.13c0-2.69.84-4.77,2.52-6.25,1.68-1.48,3.88-2.39,6.61-2.73l7.78-.97Zm-10.27,13.17c1.03.81,2.25,1.22,3.66,1.22,1.72,0,3.38-.4,4.98-1.19,2.71-1.32,4.06-3.47,4.06-6.46v-3.92c-.6.38-1.36.7-2.3.95s-1.86.43-2.76.54l-2.95.38c-1.77.23-3.09.6-3.98,1.11-1.51.85-2.26,2.2-2.26,4.05,0,1.41.51,2.51,1.54,3.32Z"/><path class="cls-1" d="m630.72,2.37v4.74h-13.41v35.05h-5.45V7.11h-13.41V2.37h32.26Z"/><path class="cls-1" d="m631.83,13.15h4.63v5.01c.38-.98,1.31-2.16,2.79-3.56,1.48-1.4,3.19-2.1,5.12-2.1.09,0,.24,0,.46.03s.59.05,1.11.11v5.15c-.29-.05-.56-.09-.8-.11s-.51-.03-.8-.03c-2.46,0-4.34.79-5.66,2.37-1.32,1.58-1.98,3.4-1.98,5.46v16.69h-4.88V13.15Z"/><path class="cls-1" d="m665.56,24.6c1.12-.14,1.87-.61,2.25-1.41.22-.44.32-1.06.32-1.88,0-1.67-.59-2.88-1.77-3.63-1.18-.75-2.87-1.13-5.07-1.13-2.54,0-4.34.69-5.41,2.07-.59.76-.98,1.9-1.16,3.4h-4.55c.09-3.59,1.25-6.08,3.48-7.48,2.23-1.4,4.81-2.11,7.75-2.11,3.41,0,6.18.65,8.31,1.95,2.11,1.3,3.17,3.32,3.17,6.07v16.72c0,.51.1.91.31,1.22.21.31.65.46,1.31.46.22,0,.46-.01.73-.04.27-.03.56-.07.87-.12v3.6c-.76.22-1.34.35-1.73.41s-.94.08-1.63.08c-1.68,0-2.9-.6-3.66-1.79-.4-.63-.68-1.53-.84-2.68-.99,1.3-2.42,2.43-4.28,3.39-1.86.96-3.91,1.44-6.15,1.44-2.69,0-4.89-.82-6.6-2.45s-2.56-3.68-2.56-6.13c0-2.69.84-4.77,2.52-6.25,1.68-1.48,3.88-2.39,6.61-2.73l7.78-.97Zm-10.27,13.17c1.03.81,2.25,1.22,3.66,1.22,1.72,0,3.38-.4,4.98-1.19,2.71-1.32,4.06-3.47,4.06-6.46v-3.92c-.6.38-1.36.7-2.3.95-.94.25-1.86.43-2.76.54l-2.95.38c-1.77.23-3.09.6-3.98,1.11-1.51.85-2.26,2.2-2.26,4.05,0,1.41.51,2.51,1.54,3.32Z"/><path class="cls-1" d="m680.7,13.15h4.63v4.12c1.37-1.7,2.83-2.92,4.36-3.66,1.54-.74,3.24-1.11,5.12-1.11,4.12,0,6.9,1.44,8.34,4.31.79,1.57,1.19,3.82,1.19,6.75v18.61h-4.96v-18.29c0-1.77-.26-3.2-.79-4.28-.87-1.81-2.44-2.71-4.71-2.71-1.16,0-2.1.12-2.84.35-1.34.4-2.51,1.19-3.52,2.38-.81.96-1.34,1.95-1.58,2.97-.24,1.02-.37,2.48-.37,4.37v15.2h-4.88V13.15Z"/><path class="cls-1" d="m714.29,33.06c.15,1.63.56,2.87,1.24,3.74,1.25,1.57,3.43,2.36,6.52,2.36,1.84,0,3.47-.39,4.87-1.18,1.4-.79,2.1-2,2.1-3.64,0-1.25-.56-2.19-1.68-2.84-.72-.4-2.13-.86-4.24-1.38l-3.94-.98c-2.51-.61-4.37-1.3-5.56-2.06-2.13-1.32-3.19-3.14-3.19-5.47,0-2.75,1-4.97,3.01-6.66,2-1.7,4.7-2.55,8.09-2.55,4.43,0,7.62,1.28,9.58,3.85,1.23,1.63,1.82,3.38,1.79,5.26h-4.61c-.09-1.1-.49-2.09-1.19-2.99-1.15-1.28-3.13-1.91-5.96-1.91-1.89,0-3.31.35-4.28,1.05-.97.7-1.46,1.63-1.46,2.78,0,1.26.64,2.27,1.91,3.02.74.45,1.82.85,3.26,1.19l3.29.79c3.57.85,5.96,1.67,7.18,2.47,1.9,1.25,2.84,3.21,2.84,5.88s-.99,4.81-2.98,6.69-5.01,2.82-9.06,2.82c-4.37,0-7.46-.98-9.28-2.94-1.82-1.96-2.79-4.38-2.92-7.27h4.69Z"/><path class="cls-1" d="m738.56,13.28h4.77v3.85c.98-1.32,2.05-2.34,3.21-3.06,1.65-1.08,3.58-1.63,5.81-1.63,3.3,0,6.09,1.26,8.39,3.78,2.3,2.52,3.45,6.12,3.45,10.8,0,6.32-1.66,10.84-4.98,13.55-2.1,1.72-4.55,2.57-7.34,2.57-2.19,0-4.03-.48-5.52-1.44-.87-.54-1.84-1.47-2.91-2.79v14.82h-4.88V13.28Zm18.35,22.74c1.51-1.91,2.27-4.75,2.27-8.55,0-2.31-.34-4.3-1.01-5.96-1.27-3.2-3.59-4.79-6.96-4.79s-5.71,1.69-6.96,5.07c-.67,1.81-1.01,4.1-1.01,6.88,0,2.24.34,4.14,1.01,5.72,1.27,3,3.59,4.5,6.96,4.5,2.28,0,4.18-.95,5.69-2.86Z"/><path class="cls-1" d="m790.67,16.05c2.56,2.49,3.85,6.15,3.85,10.99s-1.13,8.53-3.39,11.58-5.77,4.57-10.52,4.57c-3.96,0-7.11-1.35-9.44-4.05-2.33-2.7-3.5-6.32-3.5-10.87,0-4.87,1.23-8.75,3.68-11.64,2.46-2.89,5.76-4.33,9.9-4.33,3.71,0,6.85,1.24,9.42,3.74Zm-3.03,19.28c1.19-2.44,1.78-5.16,1.78-8.16,0-2.71-.43-4.91-1.29-6.6-1.36-2.67-3.7-4-7.02-4-2.95,0-5.09,1.14-6.43,3.41-1.34,2.27-2.01,5.01-2.01,8.23s.67,5.66,2.01,7.71c1.34,2.06,3.46,3.08,6.38,3.08,3.2,0,5.39-1.22,6.58-3.67Z"/><path class="cls-1" d="m800.48,13.15h4.63v5.01c.38-.98,1.31-2.16,2.79-3.56,1.48-1.4,3.19-2.1,5.12-2.1.09,0,.24,0,.46.03s.59.05,1.11.11v5.15c-.29-.05-.56-.09-.8-.11s-.51-.03-.8-.03c-2.46,0-4.34.79-5.66,2.37-1.32,1.58-1.98,3.4-1.98,5.46v16.69h-4.88V13.15Z"/><path class="cls-1" d="m819.63,5.05h4.93v8.1h4.63v3.98h-4.63v18.94c0,1.01.34,1.69,1.03,2.03.38.2,1.01.3,1.9.3.23,0,.49,0,.76-.02s.59-.04.95-.09v3.87c-.56.16-1.14.28-1.75.35s-1.26.11-1.96.11c-2.28,0-3.82-.58-4.63-1.75-.81-1.16-1.22-2.68-1.22-4.54v-19.21h-3.93v-3.98h3.93V5.05Z"/><path class="cls-1" d="m836.8,33.06c.15,1.63.56,2.87,1.24,3.74,1.25,1.57,3.43,2.36,6.52,2.36,1.84,0,3.47-.39,4.87-1.18,1.4-.79,2.1-2,2.1-3.64,0-1.25-.56-2.19-1.68-2.84-.72-.4-2.13-.86-4.24-1.38l-3.94-.98c-2.51-.61-4.37-1.3-5.56-2.06-2.13-1.32-3.19-3.14-3.19-5.47,0-2.75,1-4.97,3.01-6.66,2-1.7,4.7-2.55,8.09-2.55,4.43,0,7.62,1.28,9.58,3.85,1.23,1.63,1.82,3.38,1.79,5.26h-4.61c-.09-1.1-.49-2.09-1.19-2.99-1.15-1.28-3.13-1.91-5.96-1.91-1.89,0-3.31.35-4.28,1.05-.97.7-1.46,1.63-1.46,2.78,0,1.26.64,2.27,1.91,3.02.74.45,1.82.85,3.26,1.19l3.29.79c3.57.85,5.96,1.67,7.18,2.47,1.9,1.25,2.84,3.21,2.84,5.88s-.99,4.81-2.98,6.69c-1.98,1.88-5.01,2.82-9.06,2.82-4.37,0-7.46-.98-9.28-2.94-1.82-1.96-2.79-4.38-2.92-7.27h4.69Z"/><path class="cls-1" d="m629.93,60.75c2.75,2.65,4.28,5.67,4.58,9.05h-5.26c-.59-2.56-1.75-4.6-3.5-6.1-1.75-1.5-4.2-2.25-7.36-2.25-3.85,0-6.96,1.38-9.32,4.13-2.37,2.76-3.55,6.98-3.55,12.68,0,4.66,1.07,8.45,3.21,11.35,2.14,2.9,5.33,4.35,9.57,4.35,3.9,0,6.87-1.53,8.92-4.58,1.08-1.61,1.89-3.72,2.42-6.34h5.26c-.46,4.19-2,7.7-4.61,10.54-3.12,3.41-7.34,5.12-12.64,5.12-4.57,0-8.41-1.4-11.51-4.2-4.09-3.7-6.13-9.42-6.13-17.16,0-5.87,1.54-10.69,4.61-14.45,3.32-4.08,7.9-6.13,13.74-6.13,4.98,0,8.84,1.33,11.59,3.98Z"/><path class="cls-1" d="m656.59,80.09c1.12-.14,1.87-.61,2.25-1.41.22-.44.32-1.06.32-1.88,0-1.67-.59-2.88-1.77-3.63-1.18-.75-2.87-1.13-5.07-1.13-2.54,0-4.34.69-5.41,2.07-.59.76-.98,1.9-1.16,3.4h-4.55c.09-3.59,1.25-6.08,3.48-7.48,2.23-1.4,4.81-2.11,7.75-2.11,3.41,0,6.18.65,8.31,1.95,2.11,1.3,3.17,3.32,3.17,6.07v16.72c0,.51.1.91.31,1.22.21.31.65.46,1.31.46.22,0,.46-.01.73-.04.27-.03.56-.07.87-.12v3.6c-.76.22-1.34.35-1.73.41-.4.05-.94.08-1.63.08-1.68,0-2.9-.6-3.66-1.79-.4-.63-.68-1.53-.84-2.68-.99,1.3-2.42,2.43-4.28,3.39s-3.91,1.44-6.15,1.44c-2.69,0-4.89-.82-6.6-2.45s-2.56-3.68-2.56-6.13c0-2.69.84-4.77,2.52-6.25,1.68-1.48,3.88-2.39,6.61-2.73l7.78-.97Zm-10.27,13.17c1.03.81,2.25,1.22,3.66,1.22,1.72,0,3.38-.4,4.98-1.19,2.71-1.32,4.06-3.47,4.06-6.46v-3.92c-.6.38-1.36.7-2.3.95s-1.86.43-2.76.54l-2.95.38c-1.77.23-3.09.6-3.98,1.11-1.51.85-2.26,2.2-2.26,4.05,0,1.41.51,2.51,1.54,3.32Z"/><path class="cls-1" d="m671.73,68.63h4.63v4.12c1.37-1.7,2.83-2.92,4.36-3.66,1.54-.74,3.24-1.11,5.12-1.11,4.12,0,6.9,1.44,8.34,4.31.79,1.57,1.19,3.82,1.19,6.75v18.61h-4.96v-18.29c0-1.77-.26-3.2-.79-4.28-.87-1.81-2.44-2.71-4.71-2.71-1.16,0-2.1.12-2.84.35-1.34.4-2.51,1.19-3.52,2.38-.81.96-1.34,1.95-1.58,2.97s-.37,2.48-.37,4.37v15.2h-4.88v-29.01Z"/><path class="cls-1" d="m717.97,80.09c1.12-.14,1.87-.61,2.25-1.41.22-.44.32-1.06.32-1.88,0-1.67-.59-2.88-1.77-3.63-1.18-.75-2.87-1.13-5.07-1.13-2.54,0-4.34.69-5.41,2.07-.59.76-.98,1.9-1.16,3.4h-4.55c.09-3.59,1.25-6.08,3.48-7.48,2.23-1.4,4.81-2.11,7.75-2.11,3.41,0,6.18.65,8.31,1.95,2.11,1.3,3.17,3.32,3.17,6.07v16.72c0,.51.1.91.31,1.22.21.31.65.46,1.31.46.22,0,.46-.01.73-.04.27-.03.56-.07.87-.12v3.6c-.76.22-1.34.35-1.73.41-.4.05-.94.08-1.63.08-1.68,0-2.9-.6-3.66-1.79-.4-.63-.68-1.53-.84-2.68-.99,1.3-2.42,2.43-4.28,3.39s-3.91,1.44-6.15,1.44c-2.69,0-4.89-.82-6.6-2.45s-2.56-3.68-2.56-6.13c0-2.69.84-4.77,2.52-6.25,1.68-1.48,3.88-2.39,6.61-2.73l7.78-.97Zm-10.27,13.17c1.03.81,2.25,1.22,3.66,1.22,1.72,0,3.38-.4,4.98-1.19,2.71-1.32,4.06-3.47,4.06-6.46v-3.92c-.6.38-1.36.7-2.3.95s-1.86.43-2.76.54l-2.95.38c-1.77.23-3.09.6-3.98,1.11-1.51.85-2.26,2.2-2.26,4.05,0,1.41.51,2.51,1.54,3.32Z"/><path class="cls-1" d="m749.05,69.52c.86.54,1.84,1.49,2.94,2.84v-14.66h4.69v39.93h-4.39v-4.04c-1.13,1.79-2.47,3.08-4.02,3.87-1.55.79-3.32,1.19-5.32,1.19-3.22,0-6.01-1.36-8.37-4.08-2.36-2.72-3.54-6.34-3.54-10.85,0-4.23,1.07-7.89,3.22-10.98s5.22-4.65,9.22-4.65c2.21,0,4.07.47,5.56,1.41Zm-10.89,21.75c1.31,2.09,3.41,3.14,6.31,3.14,2.25,0,4.09-.97,5.54-2.91,1.45-1.94,2.17-4.73,2.17-8.36s-.75-6.38-2.24-8.14c-1.49-1.76-3.33-2.64-5.53-2.64-2.44,0-4.42.94-5.94,2.82-1.52,1.88-2.28,4.64-2.28,8.29,0,3.11.66,5.71,1.97,7.8Z"/><path class="cls-1" d="m779.35,80.09c1.12-.14,1.87-.61,2.25-1.41.22-.44.32-1.06.32-1.88,0-1.67-.59-2.88-1.77-3.63-1.18-.75-2.87-1.13-5.07-1.13-2.54,0-4.34.69-5.41,2.07-.59.76-.98,1.9-1.16,3.4h-4.55c.09-3.59,1.25-6.08,3.48-7.48,2.23-1.4,4.81-2.11,7.75-2.11,3.41,0,6.18.65,8.31,1.95,2.11,1.3,3.17,3.32,3.17,6.07v16.72c0,.51.1.91.31,1.22.21.31.65.46,1.31.46.22,0,.46-.01.73-.04.27-.03.56-.07.87-.12v3.6c-.76.22-1.34.35-1.73.41s-.94.08-1.63.08c-1.68,0-2.9-.6-3.66-1.79-.4-.63-.68-1.53-.84-2.68-.99,1.3-2.42,2.43-4.28,3.39-1.86.96-3.91,1.44-6.15,1.44-2.69,0-4.89-.82-6.6-2.45s-2.56-3.68-2.56-6.13c0-2.69.84-4.77,2.52-6.25,1.68-1.48,3.88-2.39,6.61-2.73l7.78-.97Zm-10.27,13.17c1.03.81,2.25,1.22,3.66,1.22,1.72,0,3.38-.4,4.98-1.19,2.71-1.32,4.06-3.47,4.06-6.46v-3.92c-.6.38-1.36.7-2.3.95s-1.86.43-2.76.54l-2.95.38c-1.77.23-3.09.6-3.98,1.11-1.51.85-2.26,2.2-2.26,4.05,0,1.41.51,2.51,1.54,3.32Z"/><rect class="cls-2" x="2.66" y="2.37" width="46.75" height="95.18"/><path class="cls-2" d="m94.16,22.94l6.69-13.59,6.63,13.1c.83,1.38,1.5,1.27,2.82.6l5.69-2.82-3.7,18.3c-.77,3.58,1.27,4.63,3.48,2.2l8.12-8.67,2.15,4.92c.72,1.49,1.82,1.27,3.27,1l8.39-1.76-2.82,10.6-.06.22c-.33,1.38-.99,2.54.55,3.21l2.98,1.49-17.29,14.64c-1.77,1.82-1.16,2.38-.49,4.41l1.6,4.93-16.13-2.94c-1.99-.5-3.37-.5-3.43,1.11l.67,18.51h-4.86l.66-18.45c0-1.83-1.38-1.77-4.64-1.11l-14.92,2.88,1.94-4.93c.66-1.87.83-3.14-.66-4.41l-17.68-14.41,3.27-1.99c.94-.72.99-1.49.49-3.1l-3.32-10.78,8.51,1.83c2.37.55,3.04,0,3.64-1.32l2.38-4.86,8.39,9.5c1.5,1.76,3.59.6,2.93-1.94l-4.03-19.83,6.24,3.59c1,.61,2.05.78,2.65-.38"/><rect class="cls-2" x="152.07" y="2.45" width="46.75" height="95.19"/></svg>