<?xml version="1.0" encoding="utf-8"?>
<!-- Generator: Adobe Illustrator 14.0.0, SVG Export Plug-In . SVG Version: 6.00 Build 43363)  -->
<!DOCTYPE svg PUBLIC "-//W3C//DTD SVG 1.1//EN" "http://www.w3.org/Graphics/SVG/1.1/DTD/svg11.dtd">
<svg version="1.1" id="Layer_1" xmlns="http://www.w3.org/2000/svg" xmlns:xlink="http://www.w3.org/1999/xlink" x="0px" y="0px"
	 width="288.4px" height="21.9px" viewBox="0 0 288.4 21.9" enable-background="new 0 0 288.4 21.9" xml:space="preserve">
<g>
	<g>
		<path fill="#231F20" d="M66.2,9.2l-3.2-9h1.3L66.9,8h0l2.6-7.8h1.2l-3.2,9H66.2z"/>
		<path fill="#231F20" d="M75.4,8.8c-0.5,0.4-1.1,0.6-1.8,0.6c-0.5,0-1-0.1-1.3-0.3c-0.4-0.2-0.7-0.4-1-0.7
			c-0.3-0.3-0.5-0.7-0.6-1.1s-0.2-0.9-0.2-1.4c0-0.5,0.1-0.9,0.2-1.4s0.4-0.8,0.6-1.1c0.3-0.3,0.6-0.5,1-0.7
			c0.4-0.2,0.8-0.3,1.2-0.3c0.6,0,1.1,0.1,1.4,0.4s0.7,0.5,0.9,0.9c0.2,0.4,0.4,0.8,0.5,1.2c0.1,0.4,0.1,0.9,0.1,1.2h-4.9
			c0,0.3,0,0.6,0.1,0.8c0.1,0.3,0.2,0.5,0.4,0.7c0.2,0.2,0.4,0.4,0.6,0.5c0.3,0.1,0.6,0.2,0.9,0.2c0.5,0,0.8-0.1,1.1-0.3
			c0.3-0.2,0.5-0.5,0.6-0.9h1.1C76.2,7.9,75.9,8.4,75.4,8.8z M75.2,4.6c-0.1-0.2-0.2-0.4-0.4-0.6c-0.2-0.2-0.4-0.3-0.6-0.4
			c-0.2-0.1-0.5-0.1-0.7-0.1c-0.3,0-0.5,0-0.7,0.1c-0.2,0.1-0.4,0.2-0.6,0.4c-0.2,0.2-0.3,0.4-0.4,0.6c-0.1,0.2-0.1,0.5-0.2,0.7h3.7
			C75.3,5.1,75.3,4.8,75.2,4.6z"/>
		<path fill="#231F20" d="M80.3,2.7v0.9H79v4c0,0.1,0,0.2,0,0.3c0,0.1,0.1,0.1,0.1,0.2c0.1,0,0.1,0.1,0.2,0.1s0.2,0,0.4,0h0.5v0.9
			h-0.8c-0.3,0-0.5,0-0.7-0.1c-0.2,0-0.4-0.1-0.5-0.2c-0.1-0.1-0.2-0.2-0.3-0.4C78,8.3,78,8.1,78,7.8l0-4.1h-1.1V2.7H78V0.7H79v1.9
			H80.3z"/>
		<path fill="#231F20" d="M86.1,8.8c-0.5,0.4-1.1,0.6-1.8,0.6c-0.5,0-1-0.1-1.3-0.3c-0.4-0.2-0.7-0.4-1-0.7
			c-0.3-0.3-0.5-0.7-0.6-1.1s-0.2-0.9-0.2-1.4c0-0.5,0.1-0.9,0.2-1.4s0.4-0.8,0.6-1.1c0.3-0.3,0.6-0.5,1-0.7
			c0.4-0.2,0.8-0.3,1.2-0.3c0.6,0,1.1,0.1,1.4,0.4c0.4,0.2,0.7,0.5,0.9,0.9S87,4.6,87.1,5c0.1,0.4,0.1,0.9,0.1,1.2h-4.9
			c0,0.3,0,0.6,0.1,0.8c0.1,0.3,0.2,0.5,0.4,0.7c0.2,0.2,0.4,0.4,0.6,0.5c0.3,0.1,0.6,0.2,0.9,0.2c0.5,0,0.8-0.1,1.1-0.3
			c0.3-0.2,0.5-0.5,0.6-0.9h1.1C86.9,7.9,86.6,8.4,86.1,8.8z M85.9,4.6c-0.1-0.2-0.2-0.4-0.4-0.6c-0.2-0.2-0.4-0.3-0.6-0.4
			c-0.2-0.1-0.5-0.1-0.7-0.1c-0.3,0-0.5,0-0.7,0.1S83,3.9,82.8,4c-0.2,0.2-0.3,0.4-0.4,0.6c-0.1,0.2-0.1,0.5-0.2,0.7H86
			C86,5.1,86,4.8,85.9,4.6z"/>
		<path fill="#231F20" d="M89.2,2.7V4h0c0.3-0.5,0.6-0.9,1-1.2c0.4-0.3,0.9-0.4,1.4-0.4v1.1c-0.4,0-0.8,0.1-1.1,0.2S90,4.1,89.8,4.3
			c-0.2,0.2-0.3,0.5-0.4,0.8c-0.1,0.3-0.1,0.7-0.1,1.1v2.9h-1.1V2.7H89.2z"/>
		<path fill="#231F20" d="M97.4,9.3c-0.3,0-0.5-0.1-0.7-0.2c-0.2-0.2-0.2-0.4-0.2-0.8c-0.3,0.4-0.6,0.6-1,0.8
			c-0.4,0.2-0.8,0.2-1.3,0.2c-0.3,0-0.6,0-0.8-0.1c-0.3-0.1-0.5-0.2-0.7-0.3c-0.2-0.1-0.4-0.3-0.5-0.6c-0.1-0.2-0.2-0.5-0.2-0.8
			c0-0.4,0.1-0.7,0.2-0.9c0.1-0.2,0.3-0.4,0.5-0.6c0.2-0.1,0.4-0.3,0.7-0.3c0.3-0.1,0.5-0.1,0.8-0.2c0.3-0.1,0.6-0.1,0.8-0.1
			c0.3,0,0.5-0.1,0.7-0.1C96,5.2,96.2,5.1,96.3,5c0.1-0.1,0.2-0.3,0.2-0.5c0-0.2,0-0.4-0.1-0.6c-0.1-0.1-0.2-0.3-0.3-0.3
			c-0.1-0.1-0.3-0.1-0.5-0.2c-0.2,0-0.3,0-0.5,0c-0.5,0-0.8,0.1-1.1,0.3c-0.3,0.2-0.5,0.5-0.5,1h-1.1c0-0.4,0.1-0.7,0.3-1
			C92.8,3.4,93,3.2,93.2,3s0.5-0.3,0.9-0.4c0.3-0.1,0.7-0.1,1-0.1c0.3,0,0.6,0,0.9,0.1c0.3,0,0.6,0.1,0.8,0.3
			C97,3,97.2,3.2,97.3,3.4c0.1,0.2,0.2,0.5,0.2,0.9v3.3c0,0.3,0,0.4,0,0.6s0.1,0.2,0.3,0.2c0.1,0,0.2,0,0.3-0.1v0.8
			C98,9.3,97.8,9.3,97.4,9.3z M95.9,6.1c-0.2,0-0.4,0.1-0.7,0.1c-0.2,0-0.5,0.1-0.7,0.1c-0.2,0-0.5,0.1-0.6,0.2
			c-0.2,0.1-0.3,0.2-0.5,0.4c-0.1,0.2-0.2,0.4-0.2,0.6c0,0.2,0,0.3,0.1,0.4c0.1,0.1,0.2,0.2,0.3,0.3c0.1,0.1,0.2,0.1,0.4,0.2
			c0.2,0,0.3,0.1,0.5,0.1c0.3,0,0.6,0,0.9-0.1C95.6,8.2,95.8,8,96,7.9c0.2-0.1,0.3-0.3,0.4-0.5s0.1-0.3,0.1-0.5V5.8
			C96.3,5.9,96.2,6,95.9,6.1z"/>
		<path fill="#231F20" d="M100.2,2.7v1h0c0.4-0.8,1.1-1.2,2.1-1.2c0.4,0,0.8,0.1,1.1,0.2c0.3,0.1,0.5,0.3,0.7,0.5
			c0.2,0.2,0.3,0.5,0.4,0.7c0.1,0.3,0.1,0.6,0.1,1v4.3h-1.1V4.8c0-0.4-0.1-0.7-0.4-1c-0.2-0.2-0.6-0.4-1-0.4c-0.3,0-0.6,0-0.9,0.2
			c-0.2,0.1-0.4,0.2-0.6,0.4c-0.2,0.2-0.3,0.4-0.4,0.6c-0.1,0.2-0.1,0.5-0.1,0.8v3.7h-1.1V2.7H100.2z"/>
		<path fill="#231F20" d="M107,7.7c0.1,0.2,0.2,0.3,0.4,0.4c0.2,0.1,0.3,0.2,0.6,0.2c0.2,0,0.4,0.1,0.6,0.1c0.2,0,0.3,0,0.5,0
			c0.2,0,0.4-0.1,0.5-0.1c0.2-0.1,0.3-0.2,0.4-0.3c0.1-0.1,0.2-0.3,0.2-0.5c0-0.3-0.1-0.5-0.3-0.6c-0.2-0.1-0.5-0.3-0.8-0.3
			s-0.7-0.2-1-0.2c-0.4-0.1-0.7-0.2-1-0.3c-0.3-0.1-0.6-0.3-0.8-0.5c-0.2-0.2-0.3-0.6-0.3-1c0-0.3,0.1-0.6,0.2-0.8
			c0.1-0.2,0.3-0.4,0.6-0.6c0.2-0.1,0.5-0.3,0.8-0.3c0.3-0.1,0.6-0.1,0.9-0.1c0.4,0,0.7,0,1,0.1c0.3,0.1,0.6,0.2,0.8,0.3
			s0.4,0.4,0.6,0.6c0.1,0.3,0.2,0.6,0.3,1h-1.1c0-0.2-0.1-0.4-0.2-0.5c-0.1-0.1-0.2-0.2-0.4-0.3c-0.1-0.1-0.3-0.1-0.5-0.2
			c-0.2,0-0.3-0.1-0.5-0.1c-0.2,0-0.3,0-0.5,0c-0.2,0-0.3,0.1-0.4,0.1c-0.1,0.1-0.2,0.1-0.3,0.3C107.1,4,107,4.1,107,4.3
			c0,0.2,0.1,0.3,0.2,0.5c0.1,0.1,0.3,0.2,0.5,0.3c0.2,0.1,0.4,0.1,0.7,0.2c0.3,0.1,0.5,0.1,0.8,0.2c0.3,0.1,0.5,0.1,0.8,0.2
			c0.3,0.1,0.5,0.2,0.7,0.3c0.2,0.1,0.4,0.3,0.5,0.5c0.1,0.2,0.2,0.5,0.2,0.8c0,0.4-0.1,0.7-0.2,1s-0.4,0.5-0.6,0.6
			c-0.3,0.2-0.6,0.3-0.9,0.3c-0.3,0.1-0.7,0.1-1,0.1c-0.4,0-0.7,0-1-0.1c-0.3-0.1-0.6-0.2-0.9-0.4c-0.3-0.2-0.5-0.4-0.6-0.7
			c-0.2-0.3-0.2-0.6-0.3-1h1.1C106.8,7.4,106.9,7.6,107,7.7z"/>
		<path fill="#231F20" d="M119.9,0.2l3.5,9h-1.3l-1-2.7h-3.8l-1,2.7h-1.2l3.5-9H119.9z M120.7,5.5l-1.5-4.2h0l-1.5,4.2H120.7z"/>
		<path fill="#231F20" d="M123.5,3.6V2.7h1.1v-1c0-0.5,0.2-0.9,0.5-1.2c0.3-0.3,0.8-0.4,1.3-0.4c0.1,0,0.2,0,0.3,0
			c0.1,0,0.2,0,0.3,0.1v0.9c-0.1,0-0.2-0.1-0.3-0.1c-0.1,0-0.2,0-0.3,0c-0.3,0-0.5,0-0.6,0.2c-0.1,0.1-0.2,0.3-0.2,0.6v0.9h1.3v0.9
			h-1.3v5.5h-1.1V3.6H123.5z"/>
		<path fill="#231F20" d="M126.9,3.6V2.7h1.1v-1c0-0.5,0.2-0.9,0.5-1.2s0.8-0.4,1.3-0.4c0.1,0,0.2,0,0.3,0c0.1,0,0.2,0,0.3,0.1v0.9
			c-0.1,0-0.2-0.1-0.3-0.1c-0.1,0-0.2,0-0.3,0c-0.3,0-0.5,0-0.6,0.2c-0.1,0.1-0.2,0.3-0.2,0.6v0.9h1.3v0.9h-1.3v5.5H128V3.6H126.9z"
			/>
		<path fill="#231F20" d="M136.3,9.3c-0.3,0-0.5-0.1-0.7-0.2c-0.2-0.2-0.2-0.4-0.2-0.8c-0.3,0.4-0.6,0.6-1,0.8
			c-0.4,0.2-0.8,0.2-1.3,0.2c-0.3,0-0.6,0-0.8-0.1c-0.3-0.1-0.5-0.2-0.7-0.3c-0.2-0.1-0.4-0.3-0.5-0.6C131,8.1,131,7.8,131,7.5
			c0-0.4,0.1-0.7,0.2-0.9c0.1-0.2,0.3-0.4,0.5-0.6c0.2-0.1,0.4-0.3,0.7-0.3c0.3-0.1,0.5-0.1,0.8-0.2c0.3-0.1,0.6-0.1,0.8-0.1
			c0.3,0,0.5-0.1,0.7-0.1c0.2-0.1,0.4-0.1,0.5-0.2c0.1-0.1,0.2-0.3,0.2-0.5c0-0.2,0-0.4-0.1-0.6c-0.1-0.1-0.2-0.3-0.3-0.3
			c-0.1-0.1-0.3-0.1-0.5-0.2c-0.2,0-0.3,0-0.5,0c-0.5,0-0.8,0.1-1.1,0.3c-0.3,0.2-0.5,0.5-0.5,1h-1.1c0-0.4,0.1-0.7,0.3-1
			c0.2-0.3,0.4-0.5,0.6-0.7s0.5-0.3,0.9-0.4c0.3-0.1,0.7-0.1,1-0.1c0.3,0,0.6,0,0.9,0.1c0.3,0,0.6,0.1,0.8,0.3
			c0.2,0.1,0.4,0.3,0.6,0.5c0.1,0.2,0.2,0.5,0.2,0.9v3.3c0,0.3,0,0.4,0,0.6s0.1,0.2,0.3,0.2c0.1,0,0.2,0,0.3-0.1v0.8
			C136.9,9.3,136.6,9.3,136.3,9.3z M134.8,6.1c-0.2,0-0.4,0.1-0.7,0.1c-0.2,0-0.5,0.1-0.7,0.1c-0.2,0-0.5,0.1-0.6,0.2
			s-0.3,0.2-0.5,0.4c-0.1,0.2-0.2,0.4-0.2,0.6c0,0.2,0,0.3,0.1,0.4c0.1,0.1,0.2,0.2,0.3,0.3c0.1,0.1,0.2,0.1,0.4,0.2
			c0.2,0,0.3,0.1,0.5,0.1c0.4,0,0.6,0,0.9-0.1s0.5-0.2,0.6-0.4c0.2-0.1,0.3-0.3,0.4-0.5c0.1-0.2,0.1-0.3,0.1-0.5V5.8
			C135.2,5.9,135,6,134.8,6.1z"/>
		<path fill="#231F20" d="M138.1,1.5V0.2h1.1v1.3H138.1z M139.2,2.7v6.5h-1.1V2.7H139.2z"/>
		<path fill="#231F20" d="M141.8,2.7V4h0c0.3-0.5,0.6-0.9,1-1.2c0.4-0.3,0.9-0.4,1.4-0.4v1.1c-0.4,0-0.8,0.1-1.1,0.2
			s-0.5,0.3-0.7,0.5c-0.2,0.2-0.3,0.5-0.4,0.8c-0.1,0.3-0.1,0.7-0.1,1.1v2.9h-1.1V2.7H141.8z"/>
		<path fill="#231F20" d="M145.9,7.7c0.1,0.2,0.2,0.3,0.4,0.4c0.2,0.1,0.3,0.2,0.6,0.2c0.2,0,0.4,0.1,0.6,0.1c0.2,0,0.3,0,0.5,0
			c0.2,0,0.4-0.1,0.5-0.1c0.2-0.1,0.3-0.2,0.4-0.3s0.2-0.3,0.2-0.5c0-0.3-0.1-0.5-0.3-0.6c-0.2-0.1-0.5-0.3-0.8-0.3
			c-0.3-0.1-0.7-0.2-1-0.2c-0.4-0.1-0.7-0.2-1-0.3c-0.3-0.1-0.6-0.3-0.8-0.5c-0.2-0.2-0.3-0.6-0.3-1c0-0.3,0.1-0.6,0.2-0.8
			c0.1-0.2,0.3-0.4,0.6-0.6c0.2-0.1,0.5-0.3,0.8-0.3c0.3-0.1,0.6-0.1,0.9-0.1c0.4,0,0.7,0,1,0.1c0.3,0.1,0.6,0.2,0.8,0.3
			c0.2,0.2,0.4,0.4,0.6,0.6c0.1,0.3,0.2,0.6,0.3,1h-1.1c0-0.2-0.1-0.4-0.2-0.5c-0.1-0.1-0.2-0.2-0.4-0.3c-0.1-0.1-0.3-0.1-0.5-0.2
			c-0.2,0-0.3-0.1-0.5-0.1c-0.2,0-0.3,0-0.5,0c-0.2,0-0.3,0.1-0.4,0.1c-0.1,0.1-0.2,0.1-0.3,0.3c-0.1,0.1-0.1,0.2-0.1,0.4
			c0,0.2,0.1,0.3,0.2,0.5c0.1,0.1,0.3,0.2,0.5,0.3c0.2,0.1,0.4,0.1,0.7,0.2c0.3,0.1,0.5,0.1,0.8,0.2c0.3,0.1,0.5,0.1,0.8,0.2
			c0.3,0.1,0.5,0.2,0.7,0.3s0.4,0.3,0.5,0.5c0.1,0.2,0.2,0.5,0.2,0.8c0,0.4-0.1,0.7-0.2,1c-0.2,0.3-0.4,0.5-0.6,0.6
			c-0.3,0.2-0.6,0.3-0.9,0.3c-0.3,0.1-0.7,0.1-1,0.1c-0.4,0-0.7,0-1-0.1c-0.3-0.1-0.6-0.2-0.9-0.4c-0.3-0.2-0.5-0.4-0.6-0.7
			c-0.2-0.3-0.2-0.6-0.3-1h1.1C145.7,7.4,145.8,7.6,145.9,7.7z"/>
		<path fill="#231F20" d="M69.4,14c-0.5-0.3-1-0.5-1.6-0.5c-0.5,0-1,0.1-1.4,0.3s-0.7,0.5-0.9,0.8s-0.4,0.7-0.5,1.2
			c-0.1,0.4-0.2,0.9-0.2,1.4c0,0.5,0.1,1,0.2,1.4c0.1,0.5,0.3,0.9,0.5,1.2c0.2,0.3,0.6,0.6,0.9,0.8c0.4,0.2,0.8,0.3,1.4,0.3
			c0.4,0,0.7-0.1,1-0.2c0.3-0.1,0.6-0.3,0.8-0.5c0.2-0.2,0.4-0.5,0.5-0.8c0.1-0.3,0.2-0.7,0.2-1h1.2c-0.1,1.1-0.5,2-1.2,2.6
			s-1.6,0.9-2.7,0.9c-0.7,0-1.3-0.1-1.8-0.4c-0.5-0.2-1-0.6-1.3-1c-0.3-0.4-0.6-0.9-0.8-1.5c-0.2-0.6-0.3-1.2-0.3-1.8
			s0.1-1.3,0.3-1.8c0.2-0.6,0.5-1.1,0.8-1.5c0.4-0.4,0.8-0.8,1.3-1c0.5-0.2,1.1-0.4,1.8-0.4c0.5,0,0.9,0.1,1.3,0.2
			c0.4,0.1,0.8,0.3,1.1,0.5c0.3,0.2,0.6,0.5,0.8,0.9s0.4,0.8,0.4,1.3h-1.2C70.2,14.8,69.9,14.4,69.4,14z"/>
		<path fill="#231F20" d="M77.9,21.9c-0.3,0-0.5-0.1-0.7-0.2c-0.2-0.2-0.2-0.4-0.2-0.8c-0.3,0.4-0.6,0.6-1,0.8
			c-0.4,0.2-0.8,0.2-1.3,0.2c-0.3,0-0.6,0-0.8-0.1c-0.3-0.1-0.5-0.2-0.7-0.3c-0.2-0.1-0.4-0.3-0.5-0.6c-0.1-0.2-0.2-0.5-0.2-0.8
			c0-0.4,0.1-0.7,0.2-0.9c0.1-0.2,0.3-0.4,0.5-0.6s0.4-0.3,0.7-0.3s0.5-0.1,0.8-0.2C75,18,75.3,18,75.6,18c0.3,0,0.5-0.1,0.7-0.1
			c0.2-0.1,0.4-0.1,0.5-0.2c0.1-0.1,0.2-0.3,0.2-0.5c0-0.2,0-0.4-0.1-0.6c-0.1-0.1-0.2-0.3-0.3-0.3s-0.3-0.1-0.5-0.2
			c-0.2,0-0.3,0-0.5,0c-0.5,0-0.8,0.1-1.1,0.3c-0.3,0.2-0.5,0.5-0.5,1h-1.1c0-0.4,0.1-0.7,0.3-1c0.2-0.3,0.4-0.5,0.6-0.7
			c0.3-0.2,0.5-0.3,0.9-0.4c0.3-0.1,0.7-0.1,1-0.1c0.3,0,0.6,0,0.9,0.1c0.3,0,0.5,0.1,0.8,0.3c0.2,0.1,0.4,0.3,0.6,0.5
			c0.1,0.2,0.2,0.5,0.2,0.9v3.3c0,0.3,0,0.4,0,0.6c0,0.1,0.1,0.2,0.3,0.2c0.1,0,0.2,0,0.3-0.1v0.8C78.5,21.8,78.2,21.9,77.9,21.9z
			 M76.4,18.6c-0.2,0-0.4,0.1-0.7,0.1c-0.2,0-0.5,0.1-0.7,0.1c-0.2,0-0.5,0.1-0.6,0.2c-0.2,0.1-0.3,0.2-0.5,0.4
			c-0.1,0.2-0.2,0.4-0.2,0.6c0,0.2,0,0.3,0.1,0.4c0.1,0.1,0.2,0.2,0.3,0.3c0.1,0.1,0.2,0.1,0.4,0.2c0.2,0,0.3,0.1,0.5,0.1
			c0.3,0,0.6,0,0.9-0.1c0.2-0.1,0.5-0.2,0.6-0.4c0.2-0.1,0.3-0.3,0.4-0.5c0.1-0.2,0.1-0.3,0.1-0.5v-1.1
			C76.8,18.5,76.6,18.6,76.4,18.6z"/>
		<path fill="#231F20" d="M80.6,15.3v1h0c0.4-0.8,1.1-1.2,2.1-1.2c0.4,0,0.8,0.1,1.1,0.2s0.5,0.3,0.7,0.5c0.2,0.2,0.3,0.5,0.4,0.7
			c0.1,0.3,0.1,0.6,0.1,1v4.3H84v-4.4c0-0.4-0.1-0.7-0.4-1c-0.2-0.2-0.6-0.4-1-0.4c-0.3,0-0.6,0.1-0.9,0.2c-0.2,0.1-0.4,0.2-0.6,0.4
			c-0.2,0.2-0.3,0.4-0.4,0.6s-0.1,0.5-0.1,0.8v3.7h-1.1v-6.5H80.6z"/>
		<path fill="#231F20" d="M91.6,21.9c-0.3,0-0.5-0.1-0.7-0.2s-0.2-0.4-0.2-0.8c-0.3,0.4-0.6,0.6-1,0.8s-0.8,0.2-1.3,0.2
			c-0.3,0-0.6,0-0.8-0.1c-0.3-0.1-0.5-0.2-0.7-0.3c-0.2-0.1-0.4-0.3-0.5-0.6c-0.1-0.2-0.2-0.5-0.2-0.8c0-0.4,0.1-0.7,0.2-0.9
			c0.1-0.2,0.3-0.4,0.5-0.6s0.4-0.3,0.7-0.3s0.5-0.1,0.8-0.2C88.8,18,89,18,89.3,18c0.3,0,0.5-0.1,0.7-0.1c0.2-0.1,0.4-0.1,0.5-0.2
			c0.1-0.1,0.2-0.3,0.2-0.5c0-0.2,0-0.4-0.1-0.6c-0.1-0.1-0.2-0.3-0.3-0.3c-0.1-0.1-0.3-0.1-0.5-0.2c-0.2,0-0.3,0-0.5,0
			c-0.5,0-0.8,0.1-1.1,0.3c-0.3,0.2-0.5,0.5-0.5,1h-1.1c0-0.4,0.1-0.7,0.3-1c0.2-0.3,0.4-0.5,0.6-0.7s0.5-0.3,0.9-0.4
			c0.3-0.1,0.7-0.1,1-0.1c0.3,0,0.6,0,0.9,0.1c0.3,0,0.5,0.1,0.8,0.3c0.2,0.1,0.4,0.3,0.6,0.5c0.1,0.2,0.2,0.5,0.2,0.9v3.3
			c0,0.3,0,0.4,0,0.6c0,0.1,0.1,0.2,0.3,0.2c0.1,0,0.2,0,0.3-0.1v0.8C92.2,21.8,91.9,21.9,91.6,21.9z M90.1,18.6
			c-0.2,0-0.4,0.1-0.7,0.1c-0.2,0-0.5,0.1-0.7,0.1c-0.2,0-0.5,0.1-0.6,0.2c-0.2,0.1-0.3,0.2-0.5,0.4c-0.1,0.2-0.2,0.4-0.2,0.6
			c0,0.2,0,0.3,0.1,0.4c0.1,0.1,0.2,0.2,0.3,0.3c0.1,0.1,0.2,0.1,0.4,0.2c0.2,0,0.3,0.1,0.5,0.1c0.3,0,0.6,0,0.9-0.1
			c0.3-0.1,0.5-0.2,0.6-0.4c0.2-0.1,0.3-0.3,0.4-0.5c0.1-0.2,0.1-0.3,0.1-0.5v-1.1C90.5,18.5,90.3,18.6,90.1,18.6z"/>
		<path fill="#231F20" d="M98.1,21.8l0-0.9h0c-0.2,0.4-0.5,0.6-0.8,0.8c-0.4,0.2-0.8,0.2-1.2,0.2c-0.5,0-0.9-0.1-1.3-0.3
			c-0.4-0.2-0.7-0.4-0.9-0.7c-0.2-0.3-0.4-0.7-0.6-1.1c-0.1-0.4-0.2-0.8-0.2-1.3c0-0.5,0.1-0.9,0.2-1.3c0.1-0.4,0.3-0.8,0.6-1.1
			c0.2-0.3,0.6-0.5,0.9-0.7c0.4-0.2,0.8-0.3,1.3-0.3c0.2,0,0.3,0,0.5,0.1c0.2,0,0.4,0.1,0.6,0.2s0.4,0.2,0.5,0.3
			c0.2,0.1,0.3,0.3,0.4,0.5h0v-3.3h1.1v9H98.1z M94.3,19.4c0.1,0.3,0.2,0.5,0.4,0.8c0.2,0.2,0.4,0.4,0.6,0.5
			c0.3,0.1,0.6,0.2,0.9,0.2c0.4,0,0.7-0.1,0.9-0.2c0.3-0.1,0.5-0.3,0.6-0.6c0.2-0.2,0.3-0.5,0.3-0.8c0.1-0.3,0.1-0.6,0.1-0.9
			c0-0.3,0-0.6-0.1-0.9c-0.1-0.3-0.2-0.6-0.4-0.8c-0.2-0.2-0.4-0.4-0.6-0.5c-0.3-0.1-0.6-0.2-0.9-0.2c-0.4,0-0.7,0.1-0.9,0.2
			c-0.3,0.1-0.5,0.3-0.6,0.6c-0.2,0.2-0.3,0.5-0.3,0.8c-0.1,0.3-0.1,0.6-0.1,0.9C94.2,18.9,94.2,19.2,94.3,19.4z"/>
		<path fill="#231F20" d="M105.8,21.9c-0.3,0-0.5-0.1-0.7-0.2s-0.2-0.4-0.2-0.8c-0.3,0.4-0.6,0.6-1,0.8s-0.8,0.2-1.3,0.2
			c-0.3,0-0.6,0-0.8-0.1c-0.3-0.1-0.5-0.2-0.7-0.3c-0.2-0.1-0.4-0.3-0.5-0.6c-0.1-0.2-0.2-0.5-0.2-0.8c0-0.4,0.1-0.7,0.2-0.9
			c0.1-0.2,0.3-0.4,0.5-0.6s0.4-0.3,0.7-0.3s0.5-0.1,0.8-0.2c0.3-0.1,0.6-0.1,0.8-0.1c0.3,0,0.5-0.1,0.7-0.1
			c0.2-0.1,0.4-0.1,0.5-0.2c0.1-0.1,0.2-0.3,0.2-0.5c0-0.2,0-0.4-0.1-0.6s-0.2-0.3-0.3-0.3s-0.3-0.1-0.5-0.2c-0.2,0-0.3,0-0.5,0
			c-0.5,0-0.8,0.1-1.1,0.3c-0.3,0.2-0.5,0.5-0.5,1h-1.1c0-0.4,0.1-0.7,0.3-1c0.2-0.3,0.4-0.5,0.6-0.7s0.5-0.3,0.9-0.4
			c0.3-0.1,0.7-0.1,1-0.1c0.3,0,0.6,0,0.9,0.1c0.3,0,0.6,0.1,0.8,0.3c0.2,0.1,0.4,0.3,0.6,0.5c0.1,0.2,0.2,0.5,0.2,0.9v3.3
			c0,0.3,0,0.4,0,0.6c0,0.1,0.1,0.2,0.3,0.2c0.1,0,0.2,0,0.3-0.1v0.8C106.4,21.8,106.1,21.9,105.8,21.9z M104.3,18.6
			c-0.2,0-0.4,0.1-0.7,0.1c-0.2,0-0.5,0.1-0.7,0.1c-0.2,0-0.5,0.1-0.6,0.2c-0.2,0.1-0.3,0.2-0.5,0.4c-0.1,0.2-0.2,0.4-0.2,0.6
			c0,0.2,0,0.3,0.1,0.4c0.1,0.1,0.2,0.2,0.3,0.3c0.1,0.1,0.2,0.1,0.4,0.2c0.2,0,0.3,0.1,0.5,0.1c0.3,0,0.6,0,0.9-0.1
			c0.2-0.1,0.5-0.2,0.6-0.4c0.2-0.1,0.3-0.3,0.4-0.5s0.1-0.3,0.1-0.5v-1.1C104.7,18.5,104.5,18.6,104.3,18.6z"/>
	</g>
	<g>
		<path fill="#231F20" d="M172.2,0.2l3.5,9h-1.3l-1-2.7h-3.8l-1,2.7h-1.2l3.5-9H172.2z M173,5.5l-1.5-4.2h0L170,5.5H173z"/>
		<path fill="#231F20" d="M177.4,2.7v1h0c0.4-0.8,1.1-1.2,2.1-1.2c0.4,0,0.8,0.1,1.1,0.2c0.3,0.1,0.5,0.3,0.7,0.5
			c0.2,0.2,0.3,0.5,0.4,0.7c0.1,0.3,0.1,0.6,0.1,1v4.3h-1.1V4.8c0-0.4-0.1-0.7-0.4-1c-0.2-0.2-0.6-0.4-1-0.4c-0.3,0-0.6,0-0.9,0.2
			c-0.2,0.1-0.4,0.2-0.6,0.4s-0.3,0.4-0.4,0.6c-0.1,0.2-0.1,0.5-0.1,0.8v3.7h-1.1V2.7H177.4z"/>
		<path fill="#231F20" d="M187.3,3.8c-0.3-0.2-0.6-0.3-1.1-0.3c-0.4,0-0.7,0.1-1,0.2c-0.3,0.1-0.5,0.3-0.6,0.6
			c-0.2,0.2-0.3,0.5-0.3,0.8c-0.1,0.3-0.1,0.6-0.1,0.9c0,0.3,0,0.6,0.1,0.9c0.1,0.3,0.2,0.5,0.3,0.8c0.2,0.2,0.3,0.4,0.6,0.5
			c0.2,0.1,0.5,0.2,0.9,0.2c0.5,0,0.9-0.1,1.2-0.4c0.3-0.3,0.5-0.7,0.5-1.2h1.1c-0.1,0.8-0.4,1.4-0.9,1.9c-0.5,0.4-1.1,0.7-2,0.7
			c-0.5,0-0.9-0.1-1.3-0.2c-0.4-0.2-0.7-0.4-1-0.7c-0.3-0.3-0.4-0.6-0.6-1c-0.1-0.4-0.2-0.9-0.2-1.3c0-0.5,0.1-0.9,0.2-1.4
			s0.3-0.8,0.6-1.1c0.3-0.3,0.6-0.6,1-0.7c0.4-0.2,0.8-0.3,1.3-0.3c0.4,0,0.7,0,1,0.1c0.3,0.1,0.6,0.2,0.9,0.4
			c0.2,0.2,0.5,0.4,0.6,0.7s0.3,0.6,0.3,1h-1.1C187.7,4.4,187.6,4,187.3,3.8z"/>
		<path fill="#231F20" d="M190.2,1.5V0.2h1.1v1.3H190.2z M191.3,2.7v6.5h-1.1V2.7H191.3z"/>
		<path fill="#231F20" d="M197.5,8.8c-0.5,0.4-1.1,0.6-1.8,0.6c-0.5,0-1-0.1-1.3-0.3c-0.4-0.2-0.7-0.4-1-0.7
			c-0.3-0.3-0.5-0.7-0.6-1.1c-0.1-0.4-0.2-0.9-0.2-1.4c0-0.5,0.1-0.9,0.2-1.4c0.2-0.4,0.4-0.8,0.6-1.1c0.3-0.3,0.6-0.5,1-0.7
			c0.4-0.2,0.8-0.3,1.2-0.3c0.6,0,1.1,0.1,1.4,0.4s0.7,0.5,0.9,0.9c0.2,0.4,0.4,0.8,0.5,1.2c0.1,0.4,0.1,0.9,0.1,1.2h-4.9
			c0,0.3,0,0.6,0.1,0.8c0.1,0.3,0.2,0.5,0.4,0.7c0.2,0.2,0.4,0.4,0.6,0.5c0.3,0.1,0.6,0.2,0.9,0.2c0.5,0,0.8-0.1,1.1-0.3
			c0.3-0.2,0.5-0.5,0.6-0.9h1.1C198.3,7.9,198,8.4,197.5,8.8z M197.3,4.6c-0.1-0.2-0.2-0.4-0.4-0.6c-0.2-0.2-0.4-0.3-0.6-0.4
			s-0.5-0.1-0.7-0.1c-0.3,0-0.5,0-0.7,0.1c-0.2,0.1-0.4,0.2-0.6,0.4c-0.2,0.2-0.3,0.4-0.4,0.6c-0.1,0.2-0.1,0.5-0.2,0.7h3.7
			C197.4,5.1,197.4,4.8,197.3,4.6z"/>
		<path fill="#231F20" d="M200.7,2.7v1h0c0.4-0.8,1.1-1.2,2.1-1.2c0.4,0,0.8,0.1,1.1,0.2c0.3,0.1,0.5,0.3,0.7,0.5
			c0.2,0.2,0.3,0.5,0.4,0.7c0.1,0.3,0.1,0.6,0.1,1v4.3H204V4.8c0-0.4-0.1-0.7-0.4-1c-0.2-0.2-0.6-0.4-1-0.4c-0.3,0-0.6,0-0.9,0.2
			c-0.2,0.1-0.4,0.2-0.6,0.4c-0.2,0.2-0.3,0.4-0.4,0.6c-0.1,0.2-0.1,0.5-0.1,0.8v3.7h-1.1V2.7H200.7z"/>
		<path fill="#231F20" d="M207.5,7.7c0.1,0.2,0.2,0.3,0.4,0.4c0.2,0.1,0.3,0.2,0.6,0.2c0.2,0,0.4,0.1,0.6,0.1c0.2,0,0.3,0,0.5,0
			c0.2,0,0.4-0.1,0.5-0.1c0.2-0.1,0.3-0.2,0.4-0.3s0.2-0.3,0.2-0.5c0-0.3-0.1-0.5-0.3-0.6c-0.2-0.1-0.5-0.3-0.8-0.3
			c-0.3-0.1-0.7-0.2-1-0.2c-0.4-0.1-0.7-0.2-1-0.3c-0.3-0.1-0.6-0.3-0.8-0.5c-0.2-0.2-0.3-0.6-0.3-1c0-0.3,0.1-0.6,0.2-0.8
			c0.1-0.2,0.3-0.4,0.6-0.6c0.2-0.1,0.5-0.3,0.8-0.3c0.3-0.1,0.6-0.1,0.9-0.1c0.4,0,0.7,0,1,0.1s0.6,0.2,0.8,0.3
			c0.2,0.2,0.4,0.4,0.6,0.6c0.1,0.3,0.2,0.6,0.3,1h-1.1c0-0.2-0.1-0.4-0.2-0.5c-0.1-0.1-0.2-0.2-0.4-0.3c-0.1-0.1-0.3-0.1-0.5-0.2
			c-0.2,0-0.3-0.1-0.5-0.1c-0.2,0-0.3,0-0.5,0c-0.2,0-0.3,0.1-0.4,0.1c-0.1,0.1-0.2,0.1-0.3,0.3c-0.1,0.1-0.1,0.2-0.1,0.4
			c0,0.2,0.1,0.3,0.2,0.5c0.1,0.1,0.3,0.2,0.5,0.3c0.2,0.1,0.4,0.1,0.7,0.2c0.3,0.1,0.5,0.1,0.8,0.2c0.3,0.1,0.5,0.1,0.8,0.2
			c0.3,0.1,0.5,0.2,0.7,0.3s0.4,0.3,0.5,0.5c0.1,0.2,0.2,0.5,0.2,0.8c0,0.4-0.1,0.7-0.2,1c-0.2,0.3-0.4,0.5-0.6,0.6
			c-0.3,0.2-0.6,0.3-0.9,0.3c-0.3,0.1-0.7,0.1-1,0.1c-0.4,0-0.7,0-1-0.1c-0.3-0.1-0.6-0.2-0.9-0.4c-0.3-0.2-0.5-0.4-0.6-0.7
			c-0.1-0.3-0.2-0.6-0.3-1h1.1C207.3,7.4,207.4,7.6,207.5,7.7z"/>
		<path fill="#231F20" d="M222.1,1.5c-0.5-0.3-1-0.5-1.6-0.5c-0.5,0-1,0.1-1.4,0.3c-0.4,0.2-0.7,0.5-0.9,0.8
			c-0.2,0.3-0.4,0.7-0.5,1.2c-0.1,0.4-0.2,0.9-0.2,1.4c0,0.5,0.1,1,0.2,1.4s0.3,0.9,0.5,1.2c0.2,0.3,0.6,0.6,0.9,0.8
			c0.4,0.2,0.8,0.3,1.4,0.3c0.4,0,0.7-0.1,1-0.2c0.3-0.1,0.6-0.3,0.8-0.5c0.2-0.2,0.4-0.5,0.5-0.8c0.1-0.3,0.2-0.7,0.2-1h1.2
			c-0.1,1.1-0.5,2-1.2,2.6c-0.7,0.6-1.6,0.9-2.7,0.9c-0.7,0-1.3-0.1-1.8-0.4s-1-0.6-1.3-1c-0.3-0.4-0.6-0.9-0.8-1.5
			c-0.2-0.6-0.3-1.2-0.3-1.8c0-0.7,0.1-1.3,0.3-1.8c0.2-0.6,0.5-1.1,0.8-1.5c0.4-0.4,0.8-0.8,1.3-1c0.5-0.2,1.1-0.4,1.8-0.4
			c0.5,0,0.9,0.1,1.3,0.2c0.4,0.1,0.8,0.3,1.1,0.5c0.3,0.2,0.6,0.5,0.8,0.9c0.2,0.4,0.4,0.8,0.4,1.3H223
			C222.8,2.3,222.5,1.8,222.1,1.5z"/>
		<path fill="#231F20" d="M225.4,4.6c0.1-0.4,0.3-0.8,0.6-1.1c0.3-0.3,0.6-0.5,1-0.7c0.4-0.2,0.8-0.3,1.4-0.3c0.5,0,1,0.1,1.4,0.3
			c0.4,0.2,0.7,0.4,1,0.7c0.3,0.3,0.5,0.7,0.6,1.1c0.1,0.4,0.2,0.9,0.2,1.3c0,0.5-0.1,0.9-0.2,1.3c-0.1,0.4-0.3,0.8-0.6,1.1
			c-0.3,0.3-0.6,0.5-1,0.7c-0.4,0.2-0.8,0.3-1.4,0.3c-0.5,0-1-0.1-1.4-0.3c-0.4-0.2-0.7-0.4-1-0.7c-0.3-0.3-0.5-0.7-0.6-1.1
			c-0.1-0.4-0.2-0.9-0.2-1.3C225.2,5.5,225.3,5,225.4,4.6z M226.5,7c0.1,0.3,0.2,0.6,0.4,0.8c0.2,0.2,0.4,0.4,0.6,0.5
			c0.2,0.1,0.5,0.2,0.8,0.2c0.3,0,0.5-0.1,0.8-0.2c0.2-0.1,0.5-0.3,0.6-0.5c0.2-0.2,0.3-0.5,0.4-0.8c0.1-0.3,0.2-0.7,0.2-1
			c0-0.4-0.1-0.7-0.2-1c-0.1-0.3-0.2-0.6-0.4-0.8c-0.2-0.2-0.4-0.4-0.6-0.5c-0.2-0.1-0.5-0.2-0.8-0.2c-0.3,0-0.5,0.1-0.8,0.2
			c-0.2,0.1-0.5,0.3-0.6,0.5c-0.2,0.2-0.3,0.5-0.4,0.8s-0.2,0.7-0.2,1C226.3,6.3,226.4,6.7,226.5,7z"/>
		<path fill="#231F20" d="M233.7,2.7v1h0c0.5-0.7,1.2-1.1,2.1-1.1c0.4,0,0.8,0.1,1.1,0.3c0.3,0.2,0.6,0.5,0.7,0.9
			c0.2-0.4,0.5-0.6,0.9-0.8c0.4-0.2,0.7-0.3,1.2-0.3c0.3,0,0.6,0,0.9,0.1c0.3,0.1,0.5,0.2,0.7,0.3c0.2,0.2,0.3,0.3,0.4,0.6
			s0.2,0.5,0.2,0.9v4.8h-1.1V4.9c0-0.2,0-0.4,0-0.6c0-0.2-0.1-0.3-0.2-0.5s-0.2-0.2-0.4-0.3c-0.2-0.1-0.4-0.1-0.6-0.1
			c-0.5,0-0.9,0.2-1.2,0.5c-0.3,0.3-0.5,0.7-0.5,1.2v4h-1.1V4.9c0-0.2,0-0.4-0.1-0.6c0-0.2-0.1-0.3-0.2-0.5
			c-0.1-0.1-0.2-0.2-0.4-0.3c-0.2-0.1-0.4-0.1-0.6-0.1c-0.3,0-0.6,0.1-0.8,0.2c-0.2,0.1-0.4,0.3-0.5,0.5c-0.1,0.2-0.2,0.4-0.3,0.5
			c-0.1,0.2-0.1,0.3-0.1,0.5v4h-1.1V2.7H233.7z"/>
		<path fill="#231F20" d="M244.6,0.2v3.4h0c0.2-0.4,0.4-0.6,0.8-0.8c0.4-0.2,0.8-0.2,1.2-0.2c0.5,0,0.9,0.1,1.3,0.3
			c0.4,0.2,0.7,0.4,0.9,0.7c0.2,0.3,0.4,0.7,0.6,1.1c0.1,0.4,0.2,0.8,0.2,1.3c0,0.5-0.1,0.9-0.2,1.3c-0.1,0.4-0.3,0.8-0.6,1.1
			s-0.6,0.5-0.9,0.7c-0.4,0.2-0.8,0.3-1.3,0.3c-0.2,0-0.3,0-0.5-0.1c-0.2,0-0.4-0.1-0.6-0.2c-0.2-0.1-0.4-0.2-0.5-0.3
			c-0.2-0.1-0.3-0.3-0.4-0.5h0v0.9h-1.1v-9H244.6z M248.4,5c-0.1-0.3-0.2-0.5-0.4-0.8c-0.2-0.2-0.4-0.4-0.6-0.5
			c-0.3-0.1-0.6-0.2-0.9-0.2c-0.4,0-0.7,0.1-0.9,0.2c-0.3,0.1-0.5,0.3-0.6,0.6c-0.2,0.2-0.3,0.5-0.3,0.8c-0.1,0.3-0.1,0.6-0.1,0.9
			c0,0.3,0,0.6,0.1,0.9c0.1,0.3,0.2,0.6,0.4,0.8c0.2,0.2,0.4,0.4,0.6,0.5c0.3,0.1,0.6,0.2,0.9,0.2s0.7-0.1,0.9-0.2
			c0.2-0.1,0.4-0.3,0.6-0.6c0.2-0.2,0.3-0.5,0.3-0.8c0.1-0.3,0.1-0.6,0.1-0.9C248.5,5.6,248.5,5.3,248.4,5z"/>
		<path fill="#231F20" d="M255.9,9.3c-0.3,0-0.5-0.1-0.7-0.2c-0.2-0.2-0.2-0.4-0.2-0.8c-0.3,0.4-0.6,0.6-1,0.8
			c-0.4,0.2-0.8,0.2-1.3,0.2c-0.3,0-0.6,0-0.8-0.1c-0.3-0.1-0.5-0.2-0.7-0.3c-0.2-0.1-0.4-0.3-0.5-0.6c-0.1-0.2-0.2-0.5-0.2-0.8
			c0-0.4,0.1-0.7,0.2-0.9c0.1-0.2,0.3-0.4,0.5-0.6c0.2-0.1,0.4-0.3,0.7-0.3c0.3-0.1,0.5-0.1,0.8-0.2c0.3-0.1,0.6-0.1,0.8-0.1
			c0.3,0,0.5-0.1,0.7-0.1c0.2-0.1,0.4-0.1,0.5-0.2c0.1-0.1,0.2-0.3,0.2-0.5c0-0.2,0-0.4-0.1-0.6c-0.1-0.1-0.2-0.3-0.3-0.3
			c-0.1-0.1-0.3-0.1-0.5-0.2c-0.2,0-0.3,0-0.5,0c-0.5,0-0.8,0.1-1.1,0.3c-0.3,0.2-0.5,0.5-0.5,1h-1.1c0-0.4,0.1-0.7,0.3-1
			c0.2-0.3,0.4-0.5,0.6-0.7c0.3-0.2,0.5-0.3,0.9-0.4s0.7-0.1,1-0.1c0.3,0,0.6,0,0.9,0.1c0.3,0,0.6,0.1,0.8,0.3
			c0.2,0.1,0.4,0.3,0.6,0.5c0.1,0.2,0.2,0.5,0.2,0.9v3.3c0,0.3,0,0.4,0,0.6c0,0.1,0.1,0.2,0.3,0.2c0.1,0,0.2,0,0.3-0.1v0.8
			C256.5,9.3,256.2,9.3,255.9,9.3z M254.4,6.1c-0.2,0-0.4,0.1-0.7,0.1s-0.5,0.1-0.7,0.1c-0.2,0-0.5,0.1-0.6,0.2s-0.3,0.2-0.5,0.4
			c-0.1,0.2-0.2,0.4-0.2,0.6c0,0.2,0,0.3,0.1,0.4c0.1,0.1,0.2,0.2,0.3,0.3c0.1,0.1,0.2,0.1,0.4,0.2c0.2,0,0.3,0.1,0.5,0.1
			c0.3,0,0.6,0,0.9-0.1c0.3-0.1,0.5-0.2,0.6-0.4c0.2-0.1,0.3-0.3,0.4-0.5c0.1-0.2,0.1-0.3,0.1-0.5V5.8C254.8,5.9,254.6,6,254.4,6.1z
			"/>
		<path fill="#231F20" d="M260.4,2.7v0.9h-1.3v4c0,0.1,0,0.2,0,0.3c0,0.1,0.1,0.1,0.1,0.2c0.1,0,0.1,0.1,0.2,0.1c0.1,0,0.2,0,0.4,0
			h0.5v0.9h-0.8c-0.3,0-0.5,0-0.7-0.1c-0.2,0-0.4-0.1-0.5-0.2c-0.1-0.1-0.2-0.2-0.3-0.4c-0.1-0.2-0.1-0.4-0.1-0.7l0-4.1H257V2.7h1.1
			V0.7h1.1v1.9H260.4z"/>
		<path fill="#231F20" d="M264.4,2.7v0.9h-1.3v4c0,0.1,0,0.2,0,0.3c0,0.1,0.1,0.1,0.1,0.2c0.1,0,0.1,0.1,0.2,0.1c0.1,0,0.2,0,0.4,0
			h0.5v0.9h-0.8c-0.3,0-0.5,0-0.7-0.1c-0.2,0-0.4-0.1-0.5-0.2c-0.1-0.1-0.2-0.2-0.3-0.4c-0.1-0.2-0.1-0.4-0.1-0.7l0-4.1h-1.1V2.7
			h1.1V0.7h1.1v1.9H264.4z"/>
		<path fill="#231F20" d="M270.6,9.3c-0.3,0-0.5-0.1-0.7-0.2c-0.2-0.2-0.2-0.4-0.2-0.8c-0.3,0.4-0.6,0.6-1,0.8
			c-0.4,0.2-0.8,0.2-1.3,0.2c-0.3,0-0.6,0-0.8-0.1c-0.3-0.1-0.5-0.2-0.7-0.3c-0.2-0.1-0.3-0.3-0.5-0.6c-0.1-0.2-0.2-0.5-0.2-0.8
			c0-0.4,0.1-0.7,0.2-0.9c0.1-0.2,0.3-0.4,0.5-0.6c0.2-0.1,0.4-0.3,0.7-0.3c0.3-0.1,0.5-0.1,0.8-0.2c0.3-0.1,0.6-0.1,0.8-0.1
			c0.3,0,0.5-0.1,0.7-0.1c0.2-0.1,0.4-0.1,0.5-0.2c0.1-0.1,0.2-0.3,0.2-0.5c0-0.2,0-0.4-0.1-0.6c-0.1-0.1-0.2-0.3-0.3-0.3
			c-0.1-0.1-0.3-0.1-0.5-0.2c-0.2,0-0.3,0-0.5,0c-0.5,0-0.8,0.1-1.1,0.3c-0.3,0.2-0.5,0.5-0.5,1h-1.1c0-0.4,0.1-0.7,0.3-1
			c0.2-0.3,0.4-0.5,0.6-0.7c0.3-0.2,0.5-0.3,0.9-0.4s0.7-0.1,1-0.1c0.3,0,0.6,0,0.9,0.1c0.3,0,0.6,0.1,0.8,0.3
			c0.2,0.1,0.4,0.3,0.6,0.5c0.1,0.2,0.2,0.5,0.2,0.9v3.3c0,0.3,0,0.4,0,0.6s0.1,0.2,0.3,0.2c0.1,0,0.2,0,0.3-0.1v0.8
			C271.2,9.3,270.9,9.3,270.6,9.3z M269.1,6.1c-0.2,0-0.4,0.1-0.7,0.1s-0.5,0.1-0.7,0.1c-0.2,0-0.5,0.1-0.6,0.2
			c-0.2,0.1-0.3,0.2-0.5,0.4c-0.1,0.2-0.2,0.4-0.2,0.6c0,0.2,0,0.3,0.1,0.4c0.1,0.1,0.2,0.2,0.3,0.3c0.1,0.1,0.2,0.1,0.4,0.2
			c0.2,0,0.3,0.1,0.5,0.1c0.3,0,0.6,0,0.9-0.1c0.3-0.1,0.5-0.2,0.6-0.4c0.2-0.1,0.3-0.3,0.3-0.5c0.1-0.2,0.1-0.3,0.1-0.5V5.8
			C269.5,5.9,269.3,6,269.1,6.1z"/>
		<path fill="#231F20" d="M273.3,2.7v1h0c0.4-0.8,1.1-1.2,2.1-1.2c0.4,0,0.8,0.1,1.1,0.2c0.3,0.1,0.5,0.3,0.7,0.5
			c0.2,0.2,0.3,0.5,0.4,0.7c0.1,0.3,0.1,0.6,0.1,1v4.3h-1.1V4.8c0-0.4-0.1-0.7-0.4-1c-0.2-0.2-0.6-0.4-1-0.4c-0.3,0-0.6,0-0.9,0.2
			c-0.2,0.1-0.4,0.2-0.6,0.4s-0.3,0.4-0.4,0.6c-0.1,0.2-0.1,0.5-0.1,0.8v3.7h-1.1V2.7H273.3z"/>
		<path fill="#231F20" d="M282.1,2.7v0.9h-1.3v4c0,0.1,0,0.2,0,0.3c0,0.1,0.1,0.1,0.1,0.2c0.1,0,0.1,0.1,0.2,0.1s0.2,0,0.4,0h0.5
			v0.9h-0.8c-0.3,0-0.5,0-0.7-0.1c-0.2,0-0.4-0.1-0.5-0.2s-0.2-0.2-0.3-0.4c-0.1-0.2-0.1-0.4-0.1-0.7l0-4.1h-1.1V2.7h1.1V0.7h1.1
			v1.9H282.1z"/>
		<path fill="#231F20" d="M284.1,7.7c0.1,0.2,0.2,0.3,0.4,0.4c0.2,0.1,0.3,0.2,0.6,0.2c0.2,0,0.4,0.1,0.6,0.1c0.2,0,0.3,0,0.5,0
			c0.2,0,0.4-0.1,0.5-0.1c0.2-0.1,0.3-0.2,0.4-0.3c0.1-0.1,0.2-0.3,0.2-0.5c0-0.3-0.1-0.5-0.3-0.6c-0.2-0.1-0.5-0.3-0.8-0.3
			s-0.7-0.2-1-0.2c-0.4-0.1-0.7-0.2-1-0.3c-0.3-0.1-0.6-0.3-0.8-0.5c-0.2-0.2-0.3-0.6-0.3-1c0-0.3,0.1-0.6,0.2-0.8
			c0.1-0.2,0.3-0.4,0.6-0.6c0.2-0.1,0.5-0.3,0.8-0.3c0.3-0.1,0.6-0.1,0.9-0.1c0.4,0,0.7,0,1,0.1c0.3,0.1,0.6,0.2,0.8,0.3
			c0.2,0.2,0.4,0.4,0.6,0.6c0.1,0.3,0.2,0.6,0.3,1H287c0-0.2-0.1-0.4-0.2-0.5c-0.1-0.1-0.2-0.2-0.4-0.3c-0.1-0.1-0.3-0.1-0.5-0.2
			c-0.2,0-0.3-0.1-0.5-0.1c-0.2,0-0.3,0-0.5,0c-0.2,0-0.3,0.1-0.4,0.1c-0.1,0.1-0.2,0.1-0.3,0.3c-0.1,0.1-0.1,0.2-0.1,0.4
			c0,0.2,0.1,0.3,0.2,0.5c0.1,0.1,0.3,0.2,0.5,0.3c0.2,0.1,0.4,0.1,0.7,0.2c0.3,0.1,0.5,0.1,0.8,0.2c0.3,0.1,0.5,0.1,0.8,0.2
			c0.3,0.1,0.5,0.2,0.7,0.3c0.2,0.1,0.4,0.3,0.5,0.5c0.1,0.2,0.2,0.5,0.2,0.8c0,0.4-0.1,0.7-0.2,1c-0.2,0.3-0.4,0.5-0.6,0.6
			c-0.3,0.2-0.6,0.3-0.9,0.3c-0.3,0.1-0.7,0.1-1,0.1c-0.4,0-0.7,0-1-0.1c-0.3-0.1-0.6-0.2-0.9-0.4c-0.3-0.2-0.5-0.4-0.6-0.7
			c-0.2-0.3-0.2-0.6-0.3-1h1.1C283.9,7.4,284,7.6,284.1,7.7z"/>
		<path fill="#231F20" d="M173.9,14c-0.5-0.3-1-0.5-1.6-0.5c-0.5,0-1,0.1-1.4,0.3s-0.7,0.5-0.9,0.8c-0.2,0.3-0.4,0.7-0.5,1.2
			c-0.1,0.4-0.2,0.9-0.2,1.4c0,0.5,0.1,1,0.2,1.4c0.1,0.5,0.3,0.9,0.5,1.2c0.2,0.3,0.6,0.6,0.9,0.8c0.4,0.2,0.8,0.3,1.4,0.3
			c0.4,0,0.7-0.1,1-0.2c0.3-0.1,0.6-0.3,0.8-0.5c0.2-0.2,0.4-0.5,0.5-0.8c0.1-0.3,0.2-0.7,0.2-1h1.2c-0.1,1.1-0.5,2-1.2,2.6
			c-0.7,0.6-1.6,0.9-2.7,0.9c-0.7,0-1.3-0.1-1.8-0.4c-0.5-0.2-1-0.6-1.3-1c-0.3-0.4-0.6-0.9-0.8-1.5c-0.2-0.6-0.3-1.2-0.3-1.8
			s0.1-1.3,0.3-1.8c0.2-0.6,0.5-1.1,0.8-1.5c0.4-0.4,0.8-0.8,1.3-1c0.5-0.2,1.1-0.4,1.8-0.4c0.5,0,0.9,0.1,1.3,0.2
			c0.4,0.1,0.8,0.3,1.1,0.5c0.3,0.2,0.6,0.5,0.8,0.9s0.4,0.8,0.4,1.3h-1.2C174.6,14.8,174.3,14.4,173.9,14z"/>
		<path fill="#231F20" d="M182.3,21.9c-0.3,0-0.5-0.1-0.7-0.2c-0.2-0.2-0.2-0.4-0.2-0.8c-0.3,0.4-0.6,0.6-1,0.8
			c-0.4,0.2-0.8,0.2-1.3,0.2c-0.3,0-0.6,0-0.8-0.1c-0.3-0.1-0.5-0.2-0.7-0.3c-0.2-0.1-0.4-0.3-0.5-0.6c-0.1-0.2-0.2-0.5-0.2-0.8
			c0-0.4,0.1-0.7,0.2-0.9c0.1-0.2,0.3-0.4,0.5-0.6c0.2-0.1,0.4-0.3,0.7-0.3s0.5-0.1,0.8-0.2c0.3-0.1,0.6-0.1,0.8-0.1
			c0.3,0,0.5-0.1,0.7-0.1c0.2-0.1,0.4-0.1,0.5-0.2s0.2-0.3,0.2-0.5c0-0.2,0-0.4-0.1-0.6s-0.2-0.3-0.3-0.3s-0.3-0.1-0.5-0.2
			c-0.2,0-0.3,0-0.5,0c-0.5,0-0.8,0.1-1.1,0.3c-0.3,0.2-0.5,0.5-0.5,1h-1.1c0-0.4,0.1-0.7,0.3-1c0.2-0.3,0.4-0.5,0.6-0.7
			c0.3-0.2,0.5-0.3,0.9-0.4s0.7-0.1,1-0.1c0.3,0,0.6,0,0.9,0.1c0.3,0,0.5,0.1,0.8,0.3c0.2,0.1,0.4,0.3,0.6,0.5
			c0.1,0.2,0.2,0.5,0.2,0.9v3.3c0,0.3,0,0.4,0,0.6c0,0.1,0.1,0.2,0.3,0.2c0.1,0,0.2,0,0.3-0.1v0.8C182.9,21.8,182.7,21.9,182.3,21.9
			z M180.8,18.6c-0.2,0-0.4,0.1-0.7,0.1s-0.5,0.1-0.7,0.1c-0.2,0-0.5,0.1-0.6,0.2c-0.2,0.1-0.3,0.2-0.5,0.4
			c-0.1,0.2-0.2,0.4-0.2,0.6c0,0.2,0,0.3,0.1,0.4c0.1,0.1,0.2,0.2,0.3,0.3c0.1,0.1,0.2,0.1,0.4,0.2c0.2,0,0.3,0.1,0.5,0.1
			c0.3,0,0.7,0,0.9-0.1c0.3-0.1,0.5-0.2,0.6-0.4s0.3-0.3,0.4-0.5c0.1-0.2,0.1-0.3,0.1-0.5v-1.1C181.2,18.5,181.1,18.6,180.8,18.6z"
			/>
		<path fill="#231F20" d="M185.1,15.3v1h0c0.4-0.8,1.1-1.2,2.1-1.2c0.4,0,0.8,0.1,1.1,0.2s0.5,0.3,0.7,0.5c0.2,0.2,0.3,0.5,0.4,0.7
			c0.1,0.3,0.1,0.6,0.1,1v4.3h-1.1v-4.4c0-0.4-0.1-0.7-0.4-1c-0.2-0.2-0.6-0.4-1-0.4c-0.3,0-0.6,0.1-0.9,0.2
			c-0.2,0.1-0.4,0.2-0.6,0.4c-0.2,0.2-0.3,0.4-0.4,0.6s-0.1,0.5-0.1,0.8v3.7h-1.1v-6.5H185.1z"/>
		<path fill="#231F20" d="M196.1,21.9c-0.3,0-0.5-0.1-0.7-0.2c-0.2-0.2-0.2-0.4-0.2-0.8c-0.3,0.4-0.6,0.6-1,0.8
			c-0.4,0.2-0.8,0.2-1.3,0.2c-0.3,0-0.6,0-0.8-0.1c-0.3-0.1-0.5-0.2-0.7-0.3c-0.2-0.1-0.3-0.3-0.5-0.6c-0.1-0.2-0.2-0.5-0.2-0.8
			c0-0.4,0.1-0.7,0.2-0.9c0.1-0.2,0.3-0.4,0.5-0.6c0.2-0.1,0.4-0.3,0.7-0.3s0.5-0.1,0.8-0.2c0.3-0.1,0.6-0.1,0.8-0.1
			c0.3,0,0.5-0.1,0.7-0.1c0.2-0.1,0.4-0.1,0.5-0.2c0.1-0.1,0.2-0.3,0.2-0.5c0-0.2,0-0.4-0.1-0.6c-0.1-0.1-0.2-0.3-0.3-0.3
			s-0.3-0.1-0.5-0.2c-0.2,0-0.3,0-0.5,0c-0.5,0-0.8,0.1-1.1,0.3c-0.3,0.2-0.5,0.5-0.5,1H191c0-0.4,0.1-0.7,0.3-1
			c0.2-0.3,0.4-0.5,0.6-0.7s0.5-0.3,0.9-0.4c0.3-0.1,0.7-0.1,1-0.1c0.3,0,0.6,0,0.9,0.1c0.3,0,0.6,0.1,0.8,0.3
			c0.2,0.1,0.4,0.3,0.6,0.5c0.1,0.2,0.2,0.5,0.2,0.9v3.3c0,0.3,0,0.4,0,0.6c0,0.1,0.1,0.2,0.3,0.2c0.1,0,0.2,0,0.3-0.1v0.8
			C196.7,21.8,196.4,21.9,196.1,21.9z M194.6,18.6c-0.2,0-0.4,0.1-0.7,0.1s-0.5,0.1-0.7,0.1c-0.2,0-0.5,0.1-0.6,0.2
			c-0.2,0.1-0.3,0.2-0.5,0.4c-0.1,0.2-0.2,0.4-0.2,0.6c0,0.2,0,0.3,0.1,0.4s0.2,0.2,0.3,0.3c0.1,0.1,0.2,0.1,0.4,0.2
			c0.2,0,0.3,0.1,0.5,0.1c0.3,0,0.6,0,0.9-0.1c0.3-0.1,0.5-0.2,0.6-0.4c0.2-0.1,0.3-0.3,0.3-0.5s0.1-0.3,0.1-0.5v-1.1
			C195,18.5,194.8,18.6,194.6,18.6z"/>
		<path fill="#231F20" d="M202.6,21.8l0-0.9h0c-0.2,0.4-0.5,0.6-0.8,0.8c-0.4,0.2-0.8,0.2-1.2,0.2c-0.5,0-0.9-0.1-1.3-0.3
			c-0.4-0.2-0.7-0.4-0.9-0.7c-0.2-0.3-0.4-0.7-0.6-1.1c-0.1-0.4-0.2-0.8-0.2-1.3c0-0.5,0.1-0.9,0.2-1.3c0.1-0.4,0.3-0.8,0.6-1.1
			c0.2-0.3,0.6-0.5,0.9-0.7c0.4-0.2,0.8-0.3,1.3-0.3c0.2,0,0.3,0,0.5,0.1c0.2,0,0.4,0.1,0.6,0.2s0.4,0.2,0.5,0.3
			c0.2,0.1,0.3,0.3,0.4,0.5h0v-3.3h1.1v9H202.6z M198.7,19.4c0.1,0.3,0.2,0.5,0.4,0.8c0.2,0.2,0.4,0.4,0.6,0.5
			c0.3,0.1,0.6,0.2,0.9,0.2c0.4,0,0.7-0.1,0.9-0.2c0.3-0.1,0.5-0.3,0.6-0.6c0.2-0.2,0.3-0.5,0.3-0.8c0.1-0.3,0.1-0.6,0.1-0.9
			c0-0.3,0-0.6-0.1-0.9c-0.1-0.3-0.2-0.6-0.4-0.8c-0.2-0.2-0.4-0.4-0.6-0.5c-0.3-0.1-0.6-0.2-0.9-0.2c-0.4,0-0.7,0.1-0.9,0.2
			c-0.3,0.1-0.5,0.3-0.6,0.6c-0.2,0.2-0.3,0.5-0.3,0.8c-0.1,0.3-0.1,0.6-0.1,0.9C198.6,18.9,198.7,19.2,198.7,19.4z"/>
		<path fill="#231F20" d="M210.3,21.9c-0.3,0-0.5-0.1-0.7-0.2c-0.2-0.2-0.2-0.4-0.2-0.8c-0.3,0.4-0.6,0.6-1,0.8s-0.8,0.2-1.3,0.2
			c-0.3,0-0.6,0-0.8-0.1c-0.3-0.1-0.5-0.2-0.7-0.3c-0.2-0.1-0.3-0.3-0.5-0.6c-0.1-0.2-0.2-0.5-0.2-0.8c0-0.4,0.1-0.7,0.2-0.9
			s0.3-0.4,0.5-0.6s0.4-0.3,0.7-0.3c0.3-0.1,0.5-0.1,0.8-0.2c0.3-0.1,0.6-0.1,0.8-0.1c0.3,0,0.5-0.1,0.7-0.1
			c0.2-0.1,0.4-0.1,0.5-0.2c0.1-0.1,0.2-0.3,0.2-0.5c0-0.2,0-0.4-0.1-0.6s-0.2-0.3-0.3-0.3c-0.1-0.1-0.3-0.1-0.5-0.2
			c-0.2,0-0.3,0-0.5,0c-0.5,0-0.8,0.1-1.1,0.3c-0.3,0.2-0.5,0.5-0.5,1h-1.1c0-0.4,0.1-0.7,0.3-1c0.2-0.3,0.4-0.5,0.6-0.7
			s0.5-0.3,0.9-0.4s0.7-0.1,1-0.1c0.3,0,0.6,0,0.9,0.1c0.3,0,0.6,0.1,0.8,0.3c0.2,0.1,0.4,0.3,0.6,0.5c0.1,0.2,0.2,0.5,0.2,0.9v3.3
			c0,0.3,0,0.4,0,0.6c0,0.1,0.1,0.2,0.3,0.2c0.1,0,0.2,0,0.3-0.1v0.8C210.9,21.8,210.6,21.9,210.3,21.9z M208.8,18.6
			c-0.2,0-0.4,0.1-0.7,0.1c-0.2,0-0.5,0.1-0.7,0.1c-0.2,0-0.5,0.1-0.6,0.2c-0.2,0.1-0.3,0.2-0.5,0.4c-0.1,0.2-0.2,0.4-0.2,0.6
			c0,0.2,0,0.3,0.1,0.4s0.2,0.2,0.3,0.3c0.1,0.1,0.2,0.1,0.4,0.2c0.2,0,0.3,0.1,0.5,0.1c0.3,0,0.6,0,0.9-0.1
			c0.2-0.1,0.5-0.2,0.6-0.4c0.2-0.1,0.3-0.3,0.3-0.5c0.1-0.2,0.1-0.3,0.1-0.5v-1.1C209.2,18.5,209,18.6,208.8,18.6z"/>
	</g>
	<g>
		<polygon fill="#EE3E42" points="0,0 10.7,0 10.7,21.8 0,21.8 0,0 		"/>
		<polygon fill="#EE3E42" points="34.5,0 45.2,0 45.2,21.8 34.5,21.8 34.5,0 		"/>
		<path fill="#EE3E42" d="M21.1,4.5l1.5-3.1l1.5,3c0.2,0.3,0.3,0.3,0.6,0.1l1.3-0.6l-0.8,4.2c-0.2,0.8,0.3,1.1,0.8,0.5l1.9-2
			l0.5,1.1c0.2,0.3,0.4,0.3,0.7,0.2l1.9-0.4L30.4,10l0,0.1c-0.1,0.3-0.2,0.6,0.1,0.7l0.7,0.3l-4,3.4c-0.4,0.4-0.3,0.5-0.1,1l0.4,1.1
			L23.8,16c-0.5-0.1-0.8-0.1-0.8,0.3l0.2,4.2h-1.1l0.2-4.2c0-0.4-0.3-0.4-1.1-0.3l-3.4,0.7l0.4-1.1c0.2-0.4,0.2-0.7-0.2-1l-4-3.3
			l0.7-0.5c0.2-0.2,0.2-0.3,0.1-0.7l-0.8-2.5L16,8c0.5,0.1,0.7,0,0.8-0.3l0.5-1.1l1.9,2.2c0.3,0.4,0.8,0.1,0.7-0.4l-0.9-4.5l1.4,0.8
			C20.7,4.7,21,4.7,21.1,4.5"/>
	</g>
</g>
</svg>
