<svg width="659" height="50" viewBox="0 0 659 50" fill="none" xmlns="http://www.w3.org/2000/svg">
<g clip-path="url(#clip0_2_2)">
<path d="M151.142 21.0046L143.836 0.456619H146.804L152.74 18.2648L158.676 0.456619H161.416L154.11 21.0046H151.142Z" fill="#231F20"/>
<path d="M172.146 20.0913C171.005 21.0046 169.635 21.4612 168.037 21.4612C166.895 21.4612 165.753 21.2329 165.069 20.7763C164.155 20.3196 163.47 19.863 162.785 19.1781C162.1 18.4931 161.644 17.5799 161.416 16.6667C161.187 15.7534 160.959 14.6119 160.959 13.4703C160.959 12.3288 161.187 11.4155 161.416 10.274C161.644 9.13242 162.329 8.44749 162.785 7.76256C163.47 7.07762 164.155 6.621 165.069 6.16438C165.982 5.70776 166.895 5.47945 167.808 5.47945C169.178 5.47945 170.32 5.70776 171.005 6.39269C171.69 7.07762 172.603 7.53424 173.059 8.44749C173.516 9.36073 173.973 10.274 174.201 11.1872C174.429 12.1005 174.429 13.242 174.429 13.9269H163.242C163.242 14.6119 163.242 15.2968 163.47 15.7534C163.699 16.4384 163.927 16.895 164.384 17.3516C164.84 17.8082 165.297 18.2648 165.753 18.4932C166.438 18.7215 167.123 18.9498 167.808 18.9498C168.95 18.9498 169.635 18.7215 170.32 18.2648C171.005 17.8082 171.461 17.1233 171.689 16.21H174.201C173.973 18.0365 173.288 19.1781 172.146 20.0913ZM171.689 10.5023C171.461 10.0457 171.233 9.58904 170.776 9.13242C170.32 8.6758 169.863 8.44749 169.406 8.21918C168.95 7.99087 168.265 7.99087 167.808 7.99087C167.123 7.99087 166.667 7.99087 166.21 8.21918C165.753 8.44749 165.297 8.6758 164.84 9.13242C164.384 9.58904 164.155 10.0457 163.927 10.5023C163.699 10.9589 163.699 11.6438 163.47 12.1005H171.918C171.918 11.6438 171.918 10.9589 171.689 10.5023Z" fill="#231F20"/>
<path d="M183.333 6.16438V8.21918H180.365V17.3516C180.365 17.5799 180.365 17.8082 180.365 18.0365C180.365 18.2648 180.594 18.2648 180.594 18.4931C180.822 18.4931 180.822 18.7215 181.05 18.7215C181.279 18.7215 181.507 18.7215 181.963 18.7215H183.105V20.7763H181.279C180.594 20.7763 180.137 20.7763 179.68 20.5479C179.224 20.5479 178.767 20.3196 178.539 20.0913C178.311 19.863 178.082 19.6347 177.854 19.1781C178.082 18.9498 178.082 18.4931 178.082 17.8082V8.44749H175.571V6.16438H178.082V1.59817H180.365V5.93607H183.333V6.16438Z" fill="#231F20"/>
<path d="M196.575 20.0913C195.434 21.0046 194.064 21.4612 192.466 21.4612C191.324 21.4612 190.183 21.2329 189.498 20.7763C188.584 20.3196 187.9 19.863 187.215 19.1781C186.53 18.4931 186.073 17.5799 185.845 16.6667C185.616 15.7534 185.388 14.6119 185.388 13.4703C185.388 12.3288 185.616 11.4155 185.845 10.274C186.073 9.13242 186.758 8.44749 187.215 7.76256C187.9 7.07762 188.584 6.621 189.498 6.16438C190.411 5.70776 191.324 5.47945 192.237 5.47945C193.607 5.47945 194.749 5.70776 195.434 6.39269C196.347 6.84931 197.032 7.53424 197.489 8.44749C197.945 9.36073 198.63 10.5023 198.858 11.4155C199.087 12.3288 199.087 13.4703 199.087 14.1552H187.9C187.9 14.8402 187.9 15.5251 188.128 15.9817C188.356 16.6667 188.584 17.1233 189.041 17.5799C189.498 18.0365 189.954 18.4931 190.411 18.7215C191.096 18.9498 191.781 19.1781 192.466 19.1781C193.607 19.1781 194.292 18.9498 194.977 18.4932C195.662 18.0365 196.119 17.3516 196.347 16.4384H198.858C198.402 18.0365 197.717 19.1781 196.575 20.0913ZM196.119 10.5023C195.89 10.0457 195.662 9.58904 195.205 9.13242C194.749 8.6758 194.292 8.44749 193.836 8.21918C193.379 7.99087 192.694 7.99087 192.237 7.99087C191.553 7.99087 191.096 7.99087 190.639 8.21918C190.183 8.44749 189.498 8.90411 189.041 9.13242C188.584 9.58904 188.356 10.0457 188.128 10.5023C187.9 10.9589 187.9 11.6438 187.671 12.1005H196.347C196.347 11.6438 196.347 10.9589 196.119 10.5023Z" fill="#231F20"/>
<path d="M203.653 6.16438V9.13242C204.338 7.99087 205.023 7.07762 205.936 6.39269C206.849 5.70776 207.991 5.47945 209.132 5.47945V7.99087C208.219 7.99087 207.306 8.21918 206.621 8.44749C205.936 8.6758 205.479 9.36073 205.023 9.81735C204.566 10.274 204.338 10.9589 204.11 11.6438C203.881 12.3288 203.881 13.242 203.881 14.1552V20.7763H201.37V6.16438H203.653Z" fill="#231F20"/>
<path d="M222.374 21.2329C221.69 21.2329 221.233 21.0046 220.776 20.7763C220.32 20.3196 220.32 19.863 220.32 18.9498C219.635 19.863 218.95 20.3196 218.037 20.7763C217.123 21.2329 216.21 21.2329 215.068 21.2329C214.384 21.2329 213.699 21.2329 213.242 21.0046C212.557 20.7763 212.1 20.5479 211.644 20.3196C211.187 20.0913 210.731 19.6347 210.502 18.9498C210.274 18.4932 210.046 17.8082 210.046 17.1233C210.046 16.21 210.274 15.5251 210.502 15.0685C210.731 14.6119 211.187 14.1553 211.644 13.6986C212.1 13.4703 212.557 13.0137 213.242 13.0137C213.927 12.7854 214.384 12.7854 215.068 12.5571C215.753 12.3288 216.438 12.3288 216.895 12.3288C217.58 12.3288 218.037 12.1005 218.493 12.1005C219.178 11.8721 219.635 11.6438 219.863 11.4155C220.091 11.1872 220.32 10.7306 220.32 10.274C220.32 9.81735 220.32 9.36073 220.091 8.90411C219.863 8.6758 219.635 8.21918 219.406 8.21918C219.178 7.99087 218.721 7.99087 218.265 7.76256C217.808 7.76256 217.58 7.76256 217.123 7.76256C215.982 7.76256 215.297 7.99087 214.612 8.44749C213.927 8.90411 213.47 9.58904 213.47 10.7306H210.959C210.959 9.81735 211.187 9.13242 211.644 8.44749C211.872 7.76256 212.329 7.30594 212.785 6.84932C213.242 6.3927 213.927 6.16438 214.84 5.93607C215.525 5.70776 216.438 5.70776 217.123 5.70776C217.808 5.70776 218.493 5.70776 219.178 5.93607C219.863 5.93607 220.548 6.16438 221.005 6.62101C221.461 6.84932 221.918 7.30594 222.146 7.76256C222.374 8.21918 222.603 8.90411 222.603 9.81735V17.3516C222.603 18.0365 222.603 18.2648 222.603 18.7215C222.603 19.1781 222.831 19.1781 223.288 19.1781C223.516 19.1781 223.744 19.1781 223.973 18.9498V20.7763C223.744 21.2329 223.288 21.2329 222.374 21.2329ZM218.95 13.9269C218.493 13.9269 218.037 14.1553 217.352 14.1553C216.895 14.1553 216.21 14.3836 215.753 14.3836C215.297 14.3836 214.612 14.6119 214.384 14.8402C213.927 15.0685 213.699 15.2968 213.242 15.7534C213.014 16.21 212.785 16.6667 212.785 17.1233C212.785 17.5799 212.785 17.8082 213.014 18.0365C213.242 18.2648 213.47 18.4932 213.699 18.7215C213.927 18.9498 214.155 18.9498 214.612 19.1781C215.069 19.1781 215.297 19.4064 215.753 19.4064C216.438 19.4064 217.123 19.4064 217.808 19.1781C218.265 18.7215 218.721 18.2648 219.178 18.0365C219.635 17.8082 219.863 17.3516 220.091 16.895C220.32 16.4384 220.32 16.21 220.32 15.7534V13.242C219.863 13.4703 219.635 13.6986 218.95 13.9269Z" fill="#231F20"/>
<path d="M228.767 6.16438V8.44749C229.68 6.62101 231.279 5.70776 233.562 5.70776C234.475 5.70776 235.388 5.93607 236.073 6.16438C236.758 6.3927 237.215 6.84932 237.671 7.30594C238.128 7.76256 238.356 8.44749 238.584 8.90411C238.813 9.58904 238.813 10.274 238.813 11.1872V21.0046H236.301V10.9589C236.301 10.0457 236.073 9.36073 235.388 8.6758C234.932 8.21918 234.018 7.76256 233.105 7.76256C232.42 7.76256 231.735 7.76256 231.05 8.21918C230.594 8.44749 230.137 8.6758 229.68 9.13242C229.224 9.58904 228.995 10.0457 228.767 10.5023C228.539 10.9589 228.539 11.6438 228.539 12.3288V20.7763H226.027V6.16438H228.767Z" fill="#231F20"/>
<path d="M244.292 17.5799C244.521 18.0365 244.749 18.2648 245.205 18.4932C245.662 18.7215 245.89 18.9498 246.575 18.9498C247.032 18.9498 247.489 19.1781 247.945 19.1781C248.402 19.1781 248.63 19.1781 249.087 19.1781C249.543 19.1781 250 18.9498 250.228 18.9498C250.685 18.7215 250.913 18.4931 251.142 18.2648C251.37 18.0365 251.598 17.5799 251.598 17.1233C251.598 16.4384 251.37 15.9817 250.913 15.7534C250.457 15.5251 249.772 15.0685 249.087 15.0685C248.402 15.0685 247.489 14.6119 246.804 14.6119C245.89 14.3836 245.205 14.1552 244.521 13.9269C243.836 13.6986 243.151 13.242 242.694 12.7854C242.237 12.3288 242.009 11.4155 242.009 10.5023C242.009 9.81735 242.237 9.13242 242.466 8.6758C242.694 8.21918 243.151 7.76256 243.836 7.30593C244.292 7.07762 244.977 6.621 245.662 6.621C246.347 6.39269 247.032 6.39269 247.717 6.39269C248.63 6.39269 249.315 6.39269 250 6.621C250.685 6.84931 251.37 7.07762 251.827 7.30593C252.283 7.53425 252.74 8.21918 253.196 8.6758C253.425 9.36073 253.653 10.0457 253.881 10.9589H251.37C251.37 10.5023 251.142 10.0457 250.913 9.81735C250.685 9.58904 250.457 9.36073 250 9.13242C249.772 8.90411 249.315 8.90411 248.858 8.6758C248.402 8.6758 248.174 8.44749 247.717 8.44749C247.26 8.44749 247.032 8.44749 246.575 8.44749C246.119 8.44749 245.89 8.6758 245.662 8.6758C245.434 8.90411 245.205 8.90411 244.977 9.36073C244.521 9.13242 244.292 9.36073 244.292 9.81735C244.292 10.274 244.521 10.5023 244.749 10.9589C244.977 11.1872 245.434 11.4155 245.89 11.6438C246.347 11.8721 246.804 11.8721 247.489 12.1005C248.174 12.3288 248.63 12.3288 249.315 12.5571C250 12.7854 250.457 12.7854 251.142 13.0137C251.826 13.242 252.283 13.4703 252.74 13.6986C253.196 13.9269 253.653 14.3836 253.881 14.8402C254.11 15.2968 254.338 15.9817 254.338 16.6667C254.338 17.5799 254.11 18.2648 253.881 18.9498C253.653 19.6347 252.968 20.0913 252.511 20.3196C251.826 20.7763 251.142 21.0046 250.457 21.0046C249.772 21.2329 248.858 21.2329 248.174 21.2329C247.26 21.2329 246.575 21.2329 245.89 21.0046C245.205 20.7763 244.521 20.5479 243.836 20.0913C243.151 19.6347 242.694 19.1781 242.466 18.4932C242.009 17.8082 242.009 17.1233 241.781 16.21H244.292C243.836 16.895 244.064 17.3516 244.292 17.5799Z" fill="#231F20"/>
<path d="M273.744 0.456619L281.735 21.0046H278.767L276.484 14.8402H267.808L265.525 21.0046H262.785L270.776 0.456619H273.744ZM275.571 12.5571L272.146 2.96803L268.721 12.5571H275.571Z" fill="#231F20"/>
<path d="M281.964 8.21918V6.16438H284.475V3.88128C284.475 2.73973 284.932 1.82648 285.616 1.14155C286.301 0.45662 287.443 0.22831 288.585 0.22831C288.813 0.22831 289.041 0.22831 289.269 0.22831C289.498 0.22831 289.726 0.22831 289.954 0.45662V2.51141C289.726 2.51141 289.498 2.2831 289.269 2.2831C289.041 2.2831 288.813 2.2831 288.585 2.2831C287.9 2.2831 287.443 2.2831 287.215 2.73973C286.986 2.96804 286.758 3.42466 286.758 4.10959V6.16438H289.726V8.21918H286.758V20.7763H284.247V8.21918H281.964Z" fill="#231F20"/>
<path d="M289.726 8.21918V6.16438H292.237V3.88128C292.237 2.73973 292.694 1.82648 293.379 1.14155C294.064 0.45662 295.205 0.22831 296.347 0.22831C296.575 0.22831 296.804 0.22831 297.032 0.22831C297.26 0.22831 297.489 0.22831 297.717 0.45662V2.51141C297.489 2.51141 297.26 2.2831 297.032 2.2831C296.804 2.2831 296.575 2.2831 296.347 2.2831C295.662 2.2831 295.205 2.2831 294.977 2.73973C294.749 2.96804 294.521 3.42466 294.521 4.10959V6.16438H297.489V8.21918H294.521V20.7763H292.237V8.21918H289.726Z" fill="#231F20"/>
<path d="M311.187 21.2329C310.502 21.2329 310.046 21.0046 309.589 20.7763C309.132 20.3196 309.132 19.863 309.132 18.9498C308.448 19.863 307.763 20.3196 306.849 20.7763C305.936 21.2329 305.023 21.2329 303.881 21.2329C303.196 21.2329 302.511 21.2329 302.055 21.0046C301.37 20.7763 300.913 20.5479 300.457 20.3196C300 20.0913 299.543 19.6347 299.315 18.9498C299.087 18.4932 299.087 17.8082 299.087 17.1233C299.087 16.21 299.315 15.5251 299.543 15.0685C299.772 14.6119 300.228 14.1553 300.685 13.6986C301.142 13.4703 301.598 13.0137 302.283 13.0137C302.968 12.7854 303.425 12.7854 304.11 12.5571C304.795 12.3288 305.479 12.3288 305.936 12.3288C306.621 12.3288 307.078 12.1005 307.534 12.1005C307.991 11.8721 308.448 11.8721 308.676 11.6438C308.904 11.4155 309.132 10.9589 309.132 10.5023C309.132 10.0457 309.132 9.58904 308.904 9.13242C308.676 8.90411 308.448 8.44749 308.219 8.44749C307.991 8.21918 307.534 8.21918 307.078 7.99087C306.621 7.99087 306.393 7.99087 305.936 7.99087C304.795 7.99087 304.11 8.21918 303.425 8.6758C302.74 9.13242 302.283 9.81735 302.283 10.9589H299.772C299.772 10.0457 300 9.36073 300.457 8.6758C300.913 7.99087 301.37 7.53425 301.827 7.07763C302.283 6.621 302.968 6.39269 303.881 6.16438C304.566 5.93607 305.48 5.93607 306.164 5.93607C306.849 5.93607 307.534 5.93607 308.219 6.16438C308.904 6.16438 309.589 6.39269 310.046 6.84932C310.502 7.07763 310.959 7.53425 311.416 7.99087C311.644 8.44749 311.872 9.13242 311.872 10.0457V17.5799C311.872 18.2648 311.872 18.4932 311.872 18.9498C311.872 19.4064 312.1 19.4064 312.557 19.4064C312.785 19.4064 313.014 19.4064 313.242 19.1781V21.0046C312.557 21.2329 311.872 21.2329 311.187 21.2329ZM307.763 13.9269C307.306 13.9269 306.849 14.1553 306.164 14.1553C305.708 14.1553 305.023 14.3836 304.566 14.3836C304.11 14.3836 303.425 14.6119 303.196 14.8402C302.968 15.0685 302.511 15.2968 302.055 15.7534C301.827 16.21 301.598 16.6667 301.598 17.1233C301.598 17.5799 301.598 17.8082 301.827 18.0365C302.055 18.2648 302.283 18.4932 302.511 18.7215C302.74 18.9498 302.968 18.9498 303.425 19.1781C303.881 19.1781 304.11 19.4064 304.566 19.4064C305.479 19.4064 305.936 19.4064 306.621 19.1781C307.306 18.9498 307.763 18.7215 307.991 18.2648C308.448 18.0365 308.676 17.5799 308.904 17.1233C309.132 16.6667 309.132 16.4384 309.132 15.9817V13.242C308.676 13.4703 308.219 13.6986 307.763 13.9269Z" fill="#231F20"/>
<path d="M315.297 3.42466V0.456619H317.808V3.42466H315.297ZM317.808 6.16438V21.0046H315.297V6.16438H317.808Z" fill="#231F20"/>
<path d="M323.744 6.16438V9.13242C324.429 7.99087 325.114 7.07762 326.027 6.39269C326.941 5.70776 328.082 5.47945 329.224 5.47945V7.99087C328.31 7.99087 327.397 8.21918 326.712 8.44749C326.027 8.6758 325.571 9.13242 325.114 9.58904C324.658 10.0457 324.429 10.7306 324.201 11.4155C323.973 12.1005 323.973 13.0137 323.973 13.9269V20.5479H321.461V6.16438H323.744Z" fill="#231F20"/>
<path d="M333.105 17.5799C333.333 18.0365 333.562 18.2648 334.018 18.4931C334.475 18.7215 334.703 18.9498 335.388 18.9498C335.845 18.9498 336.301 19.1781 336.758 19.1781C337.215 19.1781 337.443 19.1781 337.9 19.1781C338.356 19.1781 338.813 18.9498 339.041 18.9498C339.498 18.7215 339.726 18.4931 339.954 18.2648C340.183 18.0365 340.411 17.5799 340.411 17.1233C340.411 16.4384 340.183 15.9817 339.726 15.7534C339.269 15.5251 338.584 15.0685 337.9 15.0685C337.215 14.8402 336.301 14.6119 335.616 14.6119C334.703 14.3836 334.018 14.1552 333.333 13.9269C332.648 13.6986 331.963 13.242 331.507 12.7854C331.05 12.3288 330.822 11.4155 330.822 10.5023C330.822 9.81735 331.05 9.13242 331.279 8.6758C331.507 8.21918 331.963 7.76256 332.648 7.30593C333.105 7.07762 333.79 6.621 334.475 6.621C335.16 6.39269 335.845 6.39269 336.53 6.39269C337.443 6.39269 338.128 6.39269 338.813 6.621C339.498 6.84931 340.183 7.07762 340.639 7.30593C341.096 7.76256 341.553 8.21918 342.009 8.6758C342.237 9.36073 342.466 10.0457 342.694 10.9589H340.183C340.183 10.5023 339.954 10.0457 339.726 9.81735C339.498 9.58904 339.269 9.36073 338.813 9.13242C338.584 8.90411 338.128 8.90411 337.671 8.6758C337.215 8.6758 336.986 8.44749 336.53 8.44749C336.073 8.44749 335.845 8.44749 335.388 8.44749C334.931 8.44749 334.703 8.6758 334.475 8.6758C334.247 8.90411 334.018 8.90411 333.79 9.36073C333.562 9.58904 333.562 9.81735 333.562 10.274C333.562 10.7306 333.79 10.9589 334.018 11.4155C334.247 11.6438 334.703 11.8721 335.16 12.1005C335.616 12.3288 336.073 12.3288 336.758 12.5571C337.443 12.7854 337.9 12.7854 338.584 13.0137C339.269 13.242 339.726 13.242 340.411 13.4703C341.096 13.6986 341.553 13.9269 342.009 14.1552C342.466 14.3836 342.922 14.8402 343.151 15.2968C343.379 15.7534 343.607 16.4384 343.607 17.1233C343.607 18.0365 343.379 18.7215 343.151 19.4064C342.694 20.0913 342.237 20.5479 341.781 20.7763C341.096 21.2329 340.411 21.4612 339.726 21.4612C339.041 21.6895 338.128 21.6895 337.443 21.6895C336.53 21.6895 335.845 21.6895 335.16 21.4612C334.475 21.2329 333.79 21.0046 333.105 20.5479C332.42 20.0913 331.963 19.6347 331.735 18.9498C331.279 18.2648 331.279 17.5799 331.05 16.6667H333.562C332.648 16.895 332.877 17.3516 333.105 17.5799Z" fill="#231F20"/>
<path d="M158.448 31.9635C157.306 31.2785 156.164 30.8219 154.795 30.8219C153.653 30.8219 152.511 31.0502 151.598 31.5068C150.685 31.9635 150 32.6484 149.543 33.3333C149.087 34.0183 148.63 34.9315 148.402 36.0731C148.174 36.9863 147.945 38.1279 147.945 39.2694C147.945 40.411 148.174 41.5525 148.402 42.4658C148.63 43.6073 149.087 44.5205 149.543 45.2055C150 45.8904 150.913 46.5753 151.598 47.032C152.511 47.4886 153.425 47.7169 154.795 47.7169C155.708 47.7169 156.393 47.4886 157.078 47.2603C157.763 47.032 158.447 46.5753 158.904 46.1187C159.361 45.6621 159.817 44.9772 160.046 44.2922C160.274 43.6073 160.502 42.6941 160.502 42.0091H163.242C163.014 44.5205 162.1 46.5753 160.502 47.9452C158.904 49.3151 156.849 50 154.338 50C152.74 50 151.37 49.7717 150.228 49.0868C149.087 48.6301 147.945 47.7169 147.26 46.8037C146.575 45.8904 145.89 44.7489 145.434 43.379C144.977 42.0091 144.749 40.6393 144.749 39.2694C144.749 37.8995 144.977 36.3014 145.434 35.1598C145.89 33.79 146.575 32.6484 147.26 31.7352C148.174 30.8219 149.087 29.9087 150.228 29.4521C151.37 28.9954 152.74 28.5388 154.338 28.5388C155.479 28.5388 156.393 28.7671 157.306 28.9954C158.219 29.2237 159.132 29.6804 159.817 30.137C160.502 30.5936 161.187 31.2785 161.644 32.1918C162.1 33.105 162.557 34.0183 162.557 35.1598H159.817C160.274 33.79 159.589 32.8767 158.448 31.9635Z" fill="#231F20"/>
<path d="M177.854 50C177.169 50 176.712 49.7717 176.256 49.5434C175.799 49.0868 175.799 48.6301 175.799 47.7169C175.114 48.6301 174.429 49.0868 173.516 49.5434C172.603 50 171.689 50 170.548 50C169.863 50 169.178 50 168.721 49.7717C168.037 49.5434 167.58 49.3151 167.123 49.0868C166.667 48.8584 166.21 48.4018 165.982 47.7169C165.753 47.2603 165.525 46.5753 165.525 45.8904C165.525 44.9772 165.753 44.2922 165.982 43.8356C166.21 43.379 166.667 42.9224 167.123 42.4658C167.58 42.0091 168.037 41.7808 168.721 41.7808C169.406 41.7808 169.863 41.5525 170.548 41.3242C171.233 41.0959 171.918 41.0959 172.603 41.0959C173.288 41.0959 173.744 40.8676 174.201 40.8676C174.658 40.6393 175.114 40.6393 175.342 40.411C175.571 40.1826 175.799 39.726 175.799 39.2694C175.799 38.8128 175.799 38.3562 175.571 37.8995C175.342 37.6712 175.114 37.2146 174.886 37.2146C174.658 37.2146 174.201 36.9863 173.744 36.758C173.288 36.758 173.059 36.758 172.603 36.758C171.461 36.758 170.776 36.9863 170.091 37.4429C169.406 37.8995 168.95 38.5845 168.95 39.726H166.438C166.438 38.8128 166.667 38.1279 167.123 37.4429C167.58 36.758 168.037 36.3014 168.493 35.8447C169.178 35.3881 169.635 35.1598 170.548 34.9315C171.233 34.7032 172.146 34.7032 172.831 34.7032C173.516 34.7032 174.201 34.7032 174.886 34.9315C175.571 34.9315 176.027 35.1598 176.712 35.6164C177.169 35.8447 177.626 36.3014 178.082 36.758C178.311 37.2146 178.539 37.8995 178.539 38.8128V46.347C178.539 47.032 178.539 47.2603 178.539 47.7169C178.539 47.9452 178.767 48.1735 179.224 48.1735C179.452 48.1735 179.68 48.1735 179.909 47.9452V49.7717C179.224 49.7717 178.539 50 177.854 50ZM174.429 42.4658C173.973 42.4658 173.516 42.6941 172.831 42.6941C172.374 42.6941 171.689 42.9224 171.233 42.9224C170.776 42.9224 170.091 43.1507 169.863 43.379C169.406 43.6073 169.178 43.8356 168.721 44.2922C168.493 44.7489 168.265 45.2055 168.265 45.6621C168.265 46.1187 168.265 46.347 168.493 46.5753C168.721 46.8036 168.95 47.032 169.178 47.2603C169.406 47.4886 169.635 47.4886 170.091 47.7169C170.548 47.7169 170.776 47.9452 171.233 47.9452C171.918 47.9452 172.603 47.9452 173.288 47.7169C173.744 47.4886 174.429 47.2603 174.658 46.8037C175.114 46.5753 175.342 46.1187 175.571 45.6621C175.799 45.2055 175.799 44.9772 175.799 44.5205V42.0091C175.342 42.2374 174.886 42.4658 174.429 42.4658Z" fill="#231F20"/>
<path d="M184.018 34.9315V37.2146C184.932 35.3881 186.53 34.4749 188.813 34.4749C189.726 34.4749 190.639 34.7032 191.324 34.9315C192.009 35.1598 192.466 35.6164 192.922 36.0731C193.379 36.5297 193.607 37.2146 193.836 37.6712C194.064 38.3562 194.064 39.0411 194.064 39.9543V49.7717H191.781V39.726C191.781 38.8128 191.553 38.1279 190.868 37.4429C190.411 36.9863 189.498 36.5297 188.584 36.5297C187.9 36.5297 187.215 36.758 186.53 36.9863C186.073 37.2146 185.616 37.4429 185.16 37.8995C184.703 38.3562 184.475 38.8128 184.247 39.2694C184.018 39.726 184.018 40.411 184.018 41.0959V49.5434H181.507V34.7032H184.018V34.9315Z" fill="#231F20"/>
<path d="M209.132 50C208.447 50 207.991 49.7717 207.534 49.5434C207.078 49.3151 207.078 48.6301 207.078 47.7169C206.393 48.6301 205.708 49.0868 204.795 49.5434C203.881 50 202.968 50 201.826 50C201.142 50 200.457 50 200 49.7717C199.315 49.5434 198.858 49.3151 198.402 49.0868C197.945 48.8584 197.489 48.4018 197.26 47.7169C197.032 47.2603 196.804 46.5753 196.804 45.8904C196.804 44.9772 197.032 44.2922 197.26 43.8356C197.489 43.379 197.945 42.9224 198.402 42.4658C198.858 42.0091 199.315 41.7808 200 41.7808C200.685 41.7808 201.142 41.5525 201.826 41.3242C202.74 41.0959 203.196 41.0959 203.881 41.0959C204.566 41.0959 205.023 40.8676 205.479 40.8676C205.936 40.6393 206.393 40.6393 206.621 40.411C206.849 40.1826 207.078 39.726 207.078 39.2694C207.078 38.8128 207.078 38.3562 206.849 37.8995C206.621 37.6712 206.393 37.2146 206.164 37.2146C205.936 36.9863 205.479 36.9863 205.023 36.758C204.566 36.758 204.338 36.758 203.881 36.758C202.74 36.758 202.055 36.9863 201.37 37.4429C200.685 37.8995 200.228 38.5845 200.228 39.726H197.717C197.717 38.8128 197.945 38.1279 198.402 37.4429C198.858 36.758 199.315 36.3014 199.772 35.8447C200.228 35.3881 200.913 35.1598 201.826 34.9315C202.511 34.7032 203.425 34.7032 204.11 34.7032C204.795 34.7032 205.479 34.7032 206.164 34.9315C206.849 34.9315 207.306 35.1598 207.991 35.6164C208.447 35.8447 208.904 36.3014 209.361 36.758C209.589 37.2146 209.817 37.8995 209.817 38.8128V46.347C209.817 47.032 209.817 47.2603 209.817 47.7169C209.817 47.9452 210.046 48.1735 210.502 48.1735C210.731 48.1735 210.959 48.1735 211.187 47.9452V49.7717C210.502 49.7717 209.817 50 209.132 50ZM205.708 42.4658C205.251 42.4658 204.795 42.6941 204.11 42.6941C203.653 42.6941 202.968 42.9224 202.511 42.9224C202.055 42.9224 201.37 43.1507 201.142 43.379C200.685 43.6073 200.457 43.8356 200 44.2922C199.772 44.7489 199.543 45.2055 199.543 45.6621C199.543 46.1187 199.543 46.347 199.772 46.5753C200 46.8036 200.228 47.032 200.457 47.2603C200.685 47.4886 200.913 47.4886 201.37 47.7169C201.826 47.7169 202.055 47.9452 202.511 47.9452C203.196 47.9452 203.881 47.9452 204.566 47.7169C205.251 47.4886 205.708 47.2603 205.936 46.8037C206.393 46.5753 206.621 46.1187 206.849 45.6621C207.078 45.2055 207.078 44.9772 207.078 44.5205V42.0091C206.621 42.2374 206.164 42.4658 205.708 42.4658Z" fill="#231F20"/>
<path d="M223.973 49.7717V47.7169C223.516 48.6301 222.831 49.0868 222.146 49.5434C221.233 50 220.32 50 219.406 50C218.265 50 217.352 49.7717 216.438 49.3151C215.525 48.8585 214.84 48.4018 214.384 47.7169C213.927 47.032 213.47 46.1187 213.014 45.2055C212.785 44.2922 212.557 43.379 212.557 42.2374C212.557 41.0959 212.785 40.1827 213.014 39.2694C213.242 38.3562 213.699 37.4429 214.384 36.758C214.84 36.0731 215.753 35.6164 216.438 35.1598C217.352 34.7032 218.265 34.4749 219.406 34.4749C219.863 34.4749 220.091 34.4749 220.548 34.7032C221.005 34.7032 221.461 34.9315 221.918 35.1598C222.374 35.3881 222.831 35.6164 223.059 35.8448C223.516 36.0731 223.744 36.5297 223.973 36.9863V29.4521H226.484V50H223.973V49.7717ZM215.297 44.2922C215.525 44.9772 215.753 45.4338 216.21 46.1187C216.667 46.5753 217.123 47.032 217.58 47.2603C218.265 47.4886 218.95 47.7169 219.635 47.7169C220.548 47.7169 221.233 47.4886 221.69 47.2603C222.374 47.032 222.831 46.5753 223.059 45.8904C223.516 45.4338 223.744 44.7489 223.744 44.0639C223.973 43.379 223.973 42.6941 223.973 42.0091C223.973 41.3242 223.973 40.6393 223.744 39.9543C223.516 39.2694 223.288 38.5845 222.831 38.1279C222.374 37.6712 221.918 37.2146 221.461 36.9863C220.776 36.758 220.091 36.5297 219.406 36.5297C218.493 36.5297 217.808 36.758 217.352 36.9863C216.667 37.2146 216.21 37.6712 215.982 38.3562C215.525 38.8128 215.297 39.4977 215.297 40.1827C215.069 40.8676 215.068 41.5525 215.068 42.2374C215.068 43.1507 215.069 43.8356 215.297 44.2922Z" fill="#231F20"/>
<path d="M241.553 50C240.868 50 240.411 49.7717 239.954 49.5434C239.498 49.3151 239.498 48.6301 239.498 47.7169C238.813 48.6301 238.128 49.0868 237.215 49.5434C236.301 50 235.388 50 234.247 50C233.562 50 232.877 50 232.42 49.7717C231.735 49.5434 231.279 49.3151 230.822 49.0868C230.365 48.8584 229.909 48.4018 229.68 47.7169C229.452 47.2603 229.224 46.5753 229.224 45.8904C229.224 44.9772 229.452 44.2922 229.68 43.8356C229.909 43.379 230.365 42.9224 230.822 42.4658C231.279 42.0091 231.735 41.7808 232.42 41.7808C233.105 41.7808 233.562 41.5525 234.247 41.3242C234.932 41.0959 235.616 41.0959 236.073 41.0959C236.758 41.0959 237.215 40.8676 237.671 40.8676C238.128 40.6393 238.584 40.6393 238.813 40.411C239.041 40.1826 239.269 39.726 239.269 39.2694C239.269 38.8128 239.269 38.3562 239.041 37.8995C238.813 37.4429 238.584 37.2146 238.356 37.2146C238.128 37.2146 237.671 36.9863 237.215 36.758C236.758 36.758 236.53 36.758 236.073 36.758C234.932 36.758 234.247 36.9863 233.562 37.4429C232.877 37.8995 232.42 38.5845 232.42 39.726H229.909C229.909 38.8128 230.137 38.1279 230.594 37.4429C231.05 36.758 231.507 36.3014 231.963 35.8447C232.42 35.3881 233.105 35.1598 234.018 34.9315C234.703 34.7032 235.616 34.7032 236.301 34.7032C236.986 34.7032 237.671 34.7032 238.356 34.9315C239.041 34.9315 239.726 35.1598 240.183 35.6164C240.639 35.8447 241.096 36.3014 241.553 36.758C241.781 37.2146 242.009 37.8995 242.009 38.8128V46.347C242.009 47.032 242.009 47.2603 242.009 47.7169C242.009 47.9452 242.237 48.1735 242.694 48.1735C242.922 48.1735 243.151 48.1735 243.379 47.9452V49.7717C242.922 49.7717 242.237 50 241.553 50ZM238.128 42.4658C237.671 42.4658 237.215 42.6941 236.53 42.6941C236.073 42.6941 235.388 42.9224 234.932 42.9224C234.475 42.9224 233.79 43.1507 233.562 43.379C233.105 43.6073 232.877 43.8356 232.42 44.2922C232.192 44.7489 231.963 45.2055 231.963 45.6621C231.963 46.1187 231.963 46.347 232.192 46.5753C232.42 46.8036 232.648 47.032 232.877 47.2603C233.105 47.4886 233.333 47.4886 233.79 47.7169C234.247 47.7169 234.475 47.9452 234.932 47.9452C235.616 47.9452 236.301 47.9452 236.986 47.7169C237.443 47.4886 238.128 47.2603 238.356 46.8037C238.813 46.5753 239.041 46.1187 239.269 45.6621C239.498 45.2055 239.498 44.9772 239.498 44.5205V42.0091C239.041 42.2374 238.584 42.4658 238.128 42.4658Z" fill="#231F20"/>
<path d="M393.151 0.456619L401.142 21.0046H398.174L395.89 14.8402H387.215L384.932 21.0046H382.192L390.183 0.456619H393.151ZM394.977 12.5571L391.553 2.96803L388.128 12.5571H394.977Z" fill="#231F20"/>
<path d="M405.023 6.16438V8.44749C405.936 6.62101 407.534 5.70776 409.817 5.70776C410.731 5.70776 411.644 5.93607 412.329 6.16438C413.014 6.3927 413.47 6.84932 413.927 7.30594C414.384 7.76256 414.612 8.44749 414.84 8.90411C415.069 9.58904 415.069 10.274 415.069 11.1872V21.0046H412.557V10.9589C412.557 10.0457 412.329 9.36073 411.644 8.6758C411.187 8.21918 410.274 7.76256 409.361 7.76256C408.676 7.76256 407.991 7.76256 407.306 8.21918C406.849 8.44749 406.393 8.6758 405.936 9.13242C405.479 9.58904 405.251 10.0457 405.023 10.5023C404.795 10.9589 404.795 11.6438 404.795 12.3288V20.7763H402.283V6.16438H405.023Z" fill="#231F20"/>
<path d="M427.626 8.6758C426.941 8.21918 426.256 7.99087 425.114 7.99087C424.201 7.99087 423.516 8.21918 422.831 8.44749C422.146 8.6758 421.69 9.13242 421.461 9.81735C421.005 10.274 420.776 10.9589 420.776 11.6438C420.548 12.3288 420.548 13.0137 420.548 13.6986C420.548 14.3836 420.548 15.0685 420.776 15.7534C421.005 16.4384 421.233 16.895 421.461 17.5799C421.918 18.0365 422.146 18.4931 422.831 18.7215C423.288 18.9498 423.973 19.1781 424.886 19.1781C426.027 19.1781 426.941 18.9498 427.626 18.2648C428.311 17.5799 428.767 16.6667 428.767 15.5251H431.279C431.05 17.3516 430.365 18.7215 429.224 19.863C428.082 20.7763 426.712 21.4612 424.658 21.4612C423.516 21.4612 422.603 21.2329 421.69 21.0046C420.776 20.5479 420.091 20.0913 419.406 19.4064C418.721 18.7215 418.493 18.0365 418.037 17.1233C417.808 16.21 417.58 15.0685 417.58 14.1552C417.58 13.0137 417.808 12.1005 418.037 10.9589C418.265 9.81735 418.721 9.13242 419.406 8.44749C420.091 7.76256 420.776 7.07762 421.69 6.84931C422.603 6.39269 423.516 6.16438 424.658 6.16438C425.571 6.16438 426.256 6.16438 426.941 6.39269C427.626 6.621 428.311 6.84931 428.995 7.30594C429.452 7.76256 430.137 8.21918 430.365 8.90411C430.594 9.58904 431.05 10.274 431.05 11.1872H428.539C428.539 10.0457 428.311 9.13242 427.626 8.6758Z" fill="#231F20"/>
<path d="M434.247 3.42466V0.456619H436.758V3.42466H434.247ZM436.758 6.16438V21.0046H434.247V6.16438H436.758Z" fill="#231F20"/>
<path d="M450.913 20.0913C449.772 21.0046 448.402 21.4612 446.804 21.4612C445.662 21.4612 444.521 21.2329 443.836 20.7763C442.922 20.3196 442.237 19.863 441.553 19.1781C440.868 18.4932 440.411 17.5799 440.183 16.6667C439.954 15.7534 439.726 14.6119 439.726 13.4703C439.726 12.3288 439.954 11.4155 440.183 10.274C440.639 9.36073 441.096 8.44749 441.553 7.76256C442.237 7.07763 442.922 6.62101 443.836 6.16439C444.749 5.70776 445.662 5.47945 446.575 5.47945C447.945 5.47945 449.087 5.70776 449.772 6.3927C450.457 7.07763 451.37 7.53425 451.827 8.44749C452.283 9.36073 452.74 10.274 452.968 11.1872C453.196 12.1005 453.196 13.242 453.196 13.9269H442.009C442.009 14.6119 442.009 15.2968 442.237 15.7534C442.466 16.4384 442.694 16.895 443.151 17.3516C443.607 17.8082 444.064 18.2648 444.521 18.4932C445.206 18.7215 445.89 18.9498 446.575 18.9498C447.717 18.9498 448.402 18.7215 449.087 18.2648C449.772 17.8082 450.228 17.1233 450.457 16.21H452.968C452.74 18.0365 452.055 19.1781 450.913 20.0913ZM450.457 10.5023C450.228 10.0457 450 9.58904 449.543 9.13242C449.087 8.6758 448.63 8.44749 448.174 8.21918C447.717 7.99087 447.032 7.99087 446.575 7.99087C445.89 7.99087 445.434 7.99087 444.977 8.21918C444.521 8.44749 444.064 8.6758 443.607 9.13242C443.151 9.58904 442.922 10.0457 442.694 10.5023C442.466 10.9589 442.466 11.6438 442.237 12.1005H450.685C450.685 11.6438 450.685 10.9589 450.457 10.5023Z" fill="#231F20"/>
<path d="M458.219 6.16438V8.44749C459.132 6.62101 460.731 5.70776 463.014 5.70776C463.927 5.70776 464.84 5.93607 465.525 6.16438C466.21 6.3927 466.667 6.84932 467.123 7.30594C467.58 7.76256 467.808 8.44749 468.037 8.90411C468.265 9.58904 468.265 10.274 468.265 11.1872V21.0046H465.753V10.9589C465.753 10.0457 465.525 9.36073 464.84 8.6758C464.384 8.21918 463.47 7.76256 462.557 7.76256C461.872 7.76256 461.187 7.76256 460.502 8.21918C460.046 8.44749 459.589 8.6758 459.132 9.13242C458.676 9.58904 458.448 10.0457 458.219 10.5023C457.991 10.9589 457.991 11.6438 457.991 12.3288V20.7763H455.479V6.16438H458.219Z" fill="#231F20"/>
<path d="M473.744 17.5799C473.973 18.0365 474.201 18.2648 474.658 18.4931C475.114 18.7215 475.342 18.9498 476.027 18.9498C476.484 18.9498 476.941 19.1781 477.397 19.1781C477.854 19.1781 478.082 19.1781 478.539 19.1781C478.995 19.1781 479.452 18.9498 479.68 18.9498C480.137 18.7215 480.365 18.4931 480.594 18.2648C480.822 18.0365 481.05 17.5799 481.05 17.1233C481.05 16.4384 480.822 15.9817 480.365 15.7534C479.909 15.5251 479.224 15.0685 478.539 15.0685C477.854 14.8402 476.941 14.6119 476.256 14.6119C475.343 14.3836 474.658 14.1552 473.973 13.9269C473.288 13.6986 472.603 13.242 472.146 12.7854C471.69 12.3288 471.461 11.4155 471.461 10.5023C471.461 9.81735 471.69 9.13242 471.918 8.6758C472.146 8.21918 472.603 7.76256 473.288 7.30593C473.744 7.07762 474.429 6.621 475.114 6.621C475.799 6.39269 476.484 6.39269 477.169 6.39269C478.082 6.39269 478.767 6.39269 479.452 6.621C480.137 6.84931 480.822 7.07762 481.279 7.30593C481.735 7.76256 482.192 8.21918 482.648 8.6758C482.877 9.36073 483.105 10.0457 483.333 10.9589H480.822C480.822 10.5023 480.594 10.0457 480.365 9.81735C480.137 9.58904 479.909 9.36073 479.452 9.13242C479.224 8.90411 478.767 8.90411 478.311 8.6758C477.854 8.6758 477.626 8.44749 477.169 8.44749C476.712 8.44749 476.484 8.44749 476.027 8.44749C475.571 8.44749 475.343 8.6758 475.114 8.6758C474.886 8.90411 474.658 8.90411 474.429 9.36073C474.201 9.58904 474.201 9.81735 474.201 10.274C474.201 10.7306 474.429 10.9589 474.658 11.4155C474.886 11.6438 475.342 11.8721 475.799 12.1005C476.256 12.3288 476.712 12.3288 477.397 12.5571C478.082 12.7854 478.539 12.7854 479.224 13.0137C479.909 13.242 480.365 13.242 481.05 13.4703C481.735 13.6986 482.192 13.9269 482.648 14.1552C483.105 14.3836 483.562 14.8402 483.79 15.2968C484.018 15.7534 484.247 16.4384 484.247 17.1233C484.247 18.0365 484.018 18.7215 483.79 19.4064C483.333 20.0913 482.877 20.5479 482.42 20.7763C481.735 21.2329 481.05 21.4612 480.365 21.4612C479.68 21.6895 478.767 21.6895 478.082 21.6895C477.169 21.6895 476.484 21.6895 475.799 21.4612C475.114 21.2329 474.429 21.0046 473.744 20.5479C473.059 20.0913 472.603 19.6347 472.374 18.9498C472.146 18.2648 471.918 17.5799 471.69 16.6667H474.201C473.288 16.895 473.516 17.3516 473.744 17.5799Z" fill="#231F20"/>
<path d="M507.078 3.42466C505.936 2.73973 504.795 2.28311 503.425 2.28311C502.283 2.28311 501.142 2.51142 500.228 2.96804C499.315 3.42466 498.63 4.10959 498.174 4.79452C497.717 5.47945 497.26 6.39269 497.032 7.53425C496.804 8.44749 496.575 9.58904 496.575 10.7306C496.575 11.8721 496.804 13.0137 497.032 13.9269C497.26 14.8402 497.717 15.9817 498.174 16.6667C498.63 17.3516 499.543 18.0365 500.228 18.4932C501.142 18.9498 502.055 19.1781 503.425 19.1781C504.338 19.1781 505.023 18.9498 505.708 18.7215C506.393 18.4932 507.078 18.0365 507.534 17.5799C507.991 17.1233 508.448 16.4384 508.676 15.7534C508.904 15.0685 509.132 14.1553 509.132 13.4703H511.872C511.644 15.9817 510.731 18.0365 509.132 19.4064C507.534 20.7763 505.479 21.4612 502.968 21.4612C501.37 21.4612 500 21.2329 498.858 20.5479C497.717 19.863 496.575 19.1781 495.89 18.2648C495.205 17.3516 494.521 16.21 494.064 14.8402C493.607 13.4703 493.379 12.1005 493.379 10.7306C493.379 9.13242 493.607 7.76256 494.064 6.62101C494.521 5.25114 495.205 4.10959 495.89 3.19635C496.804 2.28311 497.717 1.36986 498.858 0.913242C500 0.456621 501.37 0 502.968 0C504.11 0 505.023 0.228311 505.936 0.456621C506.849 0.684932 507.763 1.14155 508.448 1.59817C509.132 2.05479 509.817 2.73973 510.274 3.65297C510.731 4.56621 511.187 5.47945 511.187 6.62101H509.132C508.676 5.25114 507.991 4.10959 507.078 3.42466Z" fill="#231F20"/>
<path d="M514.612 10.5023C514.84 9.58904 515.297 8.6758 515.982 7.99087C516.667 7.30594 517.352 6.84932 518.265 6.3927C519.178 5.93607 520.091 5.70776 521.461 5.70776C522.603 5.70776 523.744 5.93607 524.658 6.3927C525.571 6.84932 526.256 7.30594 526.941 7.99087C527.626 8.6758 528.082 9.58904 528.311 10.5023C528.539 11.4155 528.767 12.5571 528.767 13.4703C528.767 14.6119 528.539 15.5251 528.311 16.4384C528.082 17.3516 527.626 18.2648 526.941 18.9498C526.256 19.6347 525.571 20.0913 524.658 20.5479C523.744 21.0046 522.831 21.2329 521.461 21.2329C520.32 21.2329 519.178 21.0046 518.265 20.5479C517.352 20.0913 516.667 19.6347 515.982 18.9498C515.297 18.2648 514.84 17.3516 514.612 16.4384C514.384 15.5251 514.155 14.3836 514.155 13.4703C514.155 12.5571 514.384 11.4155 514.612 10.5023ZM517.123 15.9817C517.352 16.6667 517.58 17.3516 518.037 17.8082C518.493 18.2648 518.95 18.7215 519.406 18.9498C519.863 19.1781 520.548 19.4064 521.233 19.4064C521.918 19.4064 522.374 19.1781 523.059 18.9498C523.516 18.7215 524.201 18.2648 524.429 17.8082C524.886 17.3516 525.114 16.6667 525.343 15.9817C525.571 15.2968 525.799 14.3836 525.799 13.6986C525.799 12.7854 525.571 12.1005 525.343 11.4155C525.114 10.7306 524.886 10.0457 524.429 9.58904C523.973 9.13242 523.516 8.6758 523.059 8.44749C522.603 8.21918 521.918 7.99087 521.233 7.99087C520.548 7.99087 520.091 8.21918 519.406 8.44749C518.95 8.6758 518.265 9.13242 518.037 9.58904C517.58 10.0457 517.352 10.7306 517.123 11.4155C516.895 12.1005 516.667 13.0137 516.667 13.6986C516.667 14.3836 516.895 15.2968 517.123 15.9817Z" fill="#231F20"/>
<path d="M533.562 6.16438V8.44749C534.703 6.84932 536.301 5.93607 538.356 5.93607C539.269 5.93607 540.183 6.16438 540.868 6.62101C541.553 7.07763 542.237 7.76256 542.466 8.6758C542.922 7.76256 543.607 7.30594 544.521 6.84932C545.434 6.39269 546.119 6.16438 547.26 6.16438C547.945 6.16438 548.63 6.16438 549.315 6.39269C550 6.621 550.457 6.84932 550.913 7.07763C551.37 7.53425 551.598 7.76256 551.827 8.44749C552.055 9.13242 552.283 9.58904 552.283 10.5023V21.4612H549.772V11.1872C549.772 10.7306 549.772 10.274 549.772 9.81735C549.772 9.36073 549.543 9.13242 549.315 8.6758C549.087 8.21918 548.858 8.21918 548.402 7.99087C547.945 7.76256 547.489 7.76256 547.032 7.76256C545.89 7.76256 544.977 8.21918 544.292 8.90411C543.607 9.58904 543.151 10.5023 543.151 11.6438V20.7763H540.639V11.1872C540.639 10.7306 540.639 10.274 540.411 9.81735C540.411 9.36073 540.183 9.13242 539.954 8.6758C539.726 8.44749 539.498 8.21918 539.041 7.99087C538.585 7.76256 538.128 7.76256 537.671 7.76256C536.986 7.76256 536.301 7.99087 535.845 8.21918C535.388 8.44749 534.932 8.90411 534.703 9.36073C534.475 9.81735 534.247 10.274 534.018 10.5023C533.79 10.9589 533.79 11.1872 533.79 11.6438V20.7763H531.279V6.16438H533.562Z" fill="#231F20"/>
<path d="M558.448 0.456619V8.21918C558.904 7.30593 559.361 6.84931 560.274 6.39269C561.187 5.93607 562.1 5.93607 563.014 5.93607C564.155 5.93607 565.069 6.16438 565.982 6.621C566.895 7.07762 567.58 7.53424 568.037 8.21918C568.493 8.90411 568.95 9.81735 569.406 10.7306C569.635 11.6438 569.863 12.5571 569.863 13.6986C569.863 14.8402 569.635 15.7534 569.406 16.6667C569.178 17.5799 568.721 18.4931 568.037 19.1781C567.352 19.863 566.667 20.3196 565.982 20.7763C565.069 21.2329 564.155 21.4612 563.014 21.4612C562.557 21.4612 562.329 21.4612 561.872 21.2329C561.416 21.2329 560.959 21.0046 560.502 20.7763C560.046 20.5479 559.589 20.3196 559.361 20.0913C558.904 19.863 558.676 19.4064 558.448 18.9498V21.0046H555.936V0.456619H558.448ZM567.123 11.4155C566.895 10.7306 566.667 10.274 566.21 9.58904C565.753 9.13242 565.297 8.6758 564.84 8.44749C564.155 8.21918 563.47 7.99087 562.785 7.99087C561.872 7.99087 561.187 8.21918 560.731 8.44749C560.046 8.6758 559.589 9.13242 559.361 9.81735C558.904 10.274 558.676 10.9589 558.676 11.6438C558.448 12.3288 558.448 13.0137 558.448 13.6986C558.448 14.3836 558.448 15.0685 558.676 15.7534C558.904 16.4384 559.132 17.1233 559.589 17.5799C560.046 18.0365 560.502 18.4931 560.959 18.7215C561.644 18.9498 562.329 19.1781 563.014 19.1781C563.699 19.1781 564.612 18.9498 565.069 18.7215C565.525 18.4931 565.982 18.0365 566.438 17.3516C566.895 16.895 567.123 16.21 567.123 15.5251C567.352 14.8402 567.352 14.1553 567.352 13.4703C567.352 12.7854 567.352 12.1005 567.123 11.4155Z" fill="#231F20"/>
<path d="M584.247 21.2329C583.562 21.2329 583.105 21.0046 582.648 20.7763C582.192 20.3196 582.192 19.863 582.192 18.9498C581.507 19.863 580.822 20.3196 579.909 20.7763C578.995 21.2329 578.082 21.2329 576.941 21.2329C576.256 21.2329 575.571 21.2329 575.114 21.0046C574.429 20.7763 573.973 20.5479 573.516 20.3196C573.059 20.0913 572.603 19.6347 572.374 18.9498C572.146 18.4932 571.918 17.8082 571.918 17.1233C571.918 16.21 572.146 15.5251 572.374 15.0685C572.603 14.6119 573.059 14.1553 573.516 13.6986C573.973 13.4703 574.429 13.0137 575.114 13.0137C575.799 12.7854 576.256 12.7854 576.941 12.5571C577.626 12.3288 578.311 12.3288 578.767 12.3288C579.452 12.3288 579.909 12.1005 580.365 12.1005C580.822 11.8721 581.279 11.8721 581.507 11.6438C581.735 11.4155 581.963 10.9589 581.963 10.5023C581.963 10.0457 581.964 9.58904 581.735 9.13242C581.507 8.90411 581.279 8.44749 581.05 8.44749C580.822 8.21918 580.365 8.21918 579.909 7.99087C579.452 7.99087 579.224 7.99087 578.767 7.99087C577.626 7.99087 576.941 8.21918 576.256 8.6758C575.571 9.13242 575.114 9.81735 575.114 10.9589H572.603C572.603 10.0457 572.831 9.36073 573.288 8.6758C573.744 7.99087 574.201 7.53425 574.658 7.07763C575.342 6.621 575.799 6.39269 576.712 6.16438C577.626 5.93607 578.311 5.93607 578.995 5.93607C579.68 5.93607 580.365 5.93607 581.05 6.16438C581.735 6.16438 582.42 6.39269 582.877 6.84932C583.333 7.07763 583.79 7.53425 584.247 7.99087C584.475 8.44749 584.703 9.13242 584.703 10.0457V17.5799C584.703 18.2648 584.703 18.4932 584.703 18.9498C584.703 19.1781 584.932 19.4064 585.388 19.4064C585.616 19.4064 585.845 19.4064 586.073 19.1781V21.0046C585.617 21.2329 584.932 21.2329 584.247 21.2329ZM580.822 13.9269C580.365 13.9269 579.909 14.1553 579.224 14.1553C578.539 14.1553 578.082 14.3836 577.626 14.3836C577.169 14.3836 576.484 14.6119 576.256 14.8402C576.027 15.0685 575.571 15.2968 575.114 15.7534C574.886 16.21 574.658 16.6667 574.658 17.1233C574.658 17.5799 574.658 17.8082 574.886 18.0365C575.114 18.2648 575.343 18.4932 575.571 18.7215C575.799 18.9498 576.027 18.9498 576.484 19.1781C576.941 19.1781 577.169 19.4064 577.626 19.4064C578.311 19.4064 578.995 19.4064 579.68 19.1781C580.365 18.9498 580.822 18.7215 581.05 18.2648C581.507 18.0365 581.735 17.5799 581.963 17.1233C582.192 16.6667 582.192 16.4384 582.192 15.9817V13.242C581.735 13.4703 581.279 13.6986 580.822 13.9269Z" fill="#231F20"/>
<path d="M594.521 6.16438V8.21918H591.553V17.3516C591.553 17.5799 591.553 17.8082 591.553 18.0365C591.553 18.2648 591.781 18.2648 591.781 18.4932C592.009 18.4932 592.009 18.7215 592.237 18.7215C592.466 18.7215 592.694 18.7215 593.151 18.7215H594.292V20.7763H592.466C591.781 20.7763 591.324 20.7763 590.868 20.5479C590.411 20.5479 589.954 20.3196 589.726 20.0913C589.498 19.863 589.269 19.6347 589.041 19.1781C588.813 18.7215 588.813 18.2648 588.813 17.5799V8.21918H586.758V6.16438H589.269V1.59818H591.781V5.93607H594.521V6.16438Z" fill="#231F20"/>
<path d="M603.653 6.16438V8.21918H600.685V17.3516C600.685 17.5799 600.685 17.8082 600.685 18.0365C600.685 18.2648 600.913 18.2648 600.913 18.4932C601.142 18.4932 601.142 18.7215 601.37 18.7215C601.598 18.7215 601.826 18.7215 602.283 18.7215H603.425V20.7763H601.598C600.913 20.7763 600.457 20.7763 600 20.5479C599.543 20.5479 599.087 20.3196 598.858 20.0913C598.63 19.863 598.402 19.6347 598.174 19.1781C597.945 18.7215 597.945 18.2648 597.945 17.5799V8.21918H595.434V6.16438H597.945V1.59818H600.457V5.93607H603.653V6.16438Z" fill="#231F20"/>
<path d="M617.808 21.2329C617.123 21.2329 616.667 21.0046 616.21 20.7763C615.753 20.3196 615.753 19.863 615.753 18.9498C615.069 19.863 614.384 20.3196 613.47 20.7763C612.557 21.2329 611.644 21.2329 610.502 21.2329C609.817 21.2329 609.132 21.2329 608.676 21.0046C607.991 20.7763 607.534 20.5479 607.078 20.3196C606.621 20.0913 606.393 19.6347 605.936 18.9498C605.708 18.4932 605.479 17.8082 605.479 17.1233C605.479 16.21 605.708 15.5251 605.936 15.0685C606.164 14.6119 606.621 14.1553 607.078 13.6986C607.534 13.4703 607.991 13.0137 608.676 13.0137C609.361 12.7854 609.817 12.7854 610.502 12.5571C611.187 12.3288 611.872 12.3288 612.329 12.3288C613.014 12.3288 613.47 12.1005 613.927 12.1005C614.384 11.8721 614.84 11.8721 615.068 11.6438C615.297 11.4155 615.525 10.9589 615.525 10.5023C615.525 10.0457 615.525 9.58904 615.297 9.13242C615.069 8.90411 614.84 8.44749 614.612 8.44749C614.384 8.21918 613.927 8.21918 613.47 7.99087C613.014 7.99087 612.785 7.99087 612.329 7.99087C611.187 7.99087 610.502 8.21918 609.817 8.6758C609.132 9.13242 608.676 9.81735 608.676 10.9589H606.164C606.164 10.0457 606.393 9.36073 606.849 8.6758C607.306 7.99087 607.763 7.53425 608.219 7.07763C608.904 6.621 609.361 6.39269 610.274 6.16438C611.187 5.93607 611.872 5.93607 612.557 5.93607C613.242 5.93607 613.927 5.93607 614.612 6.16438C615.297 6.16438 615.982 6.39269 616.438 6.84932C616.895 7.07763 617.352 7.53425 617.808 7.99087C618.037 8.44749 618.265 9.13242 618.265 10.0457V17.5799C618.265 18.2648 618.265 18.4932 618.265 18.9498C618.265 19.4064 618.493 19.4064 618.95 19.4064C619.178 19.4064 619.406 19.4064 619.635 19.1781V21.0046C619.178 21.2329 618.493 21.2329 617.808 21.2329ZM614.384 13.9269C613.927 13.9269 613.47 14.1553 612.785 14.1553C612.1 14.1553 611.644 14.3836 611.187 14.3836C610.731 14.3836 610.046 14.6119 609.817 14.8402C609.361 15.0685 609.132 15.2968 608.676 15.7534C608.448 16.21 608.219 16.6667 608.219 17.1233C608.219 17.5799 608.219 17.8082 608.448 18.0365C608.676 18.2648 608.904 18.4932 609.132 18.7215C609.361 18.9498 609.589 18.9498 610.046 19.1781C610.502 19.1781 610.731 19.4064 611.187 19.4064C611.872 19.4064 612.557 19.4064 613.242 19.1781C613.927 18.9498 614.384 18.7215 614.612 18.2648C615.069 18.0365 615.297 17.5799 615.297 17.1233C615.525 16.6667 615.525 16.4384 615.525 15.9817V13.242C615.297 13.4703 614.84 13.6986 614.384 13.9269Z" fill="#231F20"/>
<path d="M623.973 6.16438V8.44749C624.886 6.62101 626.484 5.70776 628.767 5.70776C629.68 5.70776 630.594 5.93607 631.279 6.16438C631.963 6.3927 632.42 6.84932 632.877 7.30594C633.333 7.76256 633.562 8.44749 633.79 8.90411C634.018 9.58904 634.018 10.274 634.018 11.1872V21.0046H631.507V10.9589C631.507 10.0457 631.279 9.36073 630.594 8.6758C630.137 8.21918 629.224 7.76256 628.311 7.76256C627.626 7.76256 626.941 7.76256 626.256 8.21918C625.799 8.44749 625.343 8.6758 624.886 9.13242C624.429 9.58904 624.201 10.0457 623.973 10.5023C623.744 10.9589 623.744 11.6438 623.744 12.3288V20.7763H621.233V6.16438H623.973Z" fill="#231F20"/>
<path d="M644.064 6.16438V8.21918H641.096V17.3516C641.096 17.5799 641.096 17.8082 641.096 18.0365C641.096 18.2648 641.324 18.2648 641.324 18.4932C641.553 18.4932 641.553 18.7215 641.781 18.7215C642.009 18.7215 642.237 18.7215 642.694 18.7215H643.836V20.7763H642.009C641.324 20.7763 640.868 20.7763 640.411 20.5479C639.954 20.5479 639.498 20.3196 639.269 20.0913C639.041 19.863 638.813 19.6347 638.585 19.1781C638.356 18.7215 638.356 18.2648 638.356 17.5799V8.21918H635.845V6.16438H638.356V1.59818H640.868V5.93607H644.064V6.16438Z" fill="#231F20"/>
<path d="M648.63 17.5799C648.859 18.0365 649.087 18.2648 649.543 18.4931C650 18.7215 650.228 18.9498 650.913 18.9498C651.37 18.9498 651.827 19.1781 652.283 19.1781C652.74 19.1781 652.968 19.1781 653.425 19.1781C653.881 19.1781 654.338 18.9498 654.566 18.9498C655.023 18.7215 655.251 18.4931 655.48 18.2648C655.708 18.0365 655.936 17.5799 655.936 17.1233C655.936 16.4384 655.708 15.9817 655.251 15.7534C654.795 15.5251 654.11 15.0685 653.425 15.0685C652.74 15.0685 651.827 14.6119 651.142 14.6119C650.228 14.3836 649.543 14.1552 648.859 13.9269C648.174 13.6986 647.489 13.242 647.032 12.7854C646.575 12.3288 646.347 11.4155 646.347 10.5023C646.347 9.81735 646.575 9.13242 646.804 8.6758C647.032 8.21918 647.489 7.76256 648.174 7.30593C648.63 7.07762 649.315 6.621 650 6.621C650.685 6.39269 651.37 6.39269 652.055 6.39269C652.968 6.39269 653.653 6.39269 654.338 6.621C655.023 6.84931 655.708 7.07762 656.164 7.30593C656.621 7.76256 657.078 8.21918 657.534 8.6758C657.763 9.36073 657.991 10.0457 658.219 10.9589H655.251C655.251 10.5023 655.023 10.0457 654.795 9.81735C654.566 9.58904 654.338 9.36073 653.881 9.13242C653.653 8.90411 653.196 8.90411 652.74 8.6758C652.283 8.6758 652.055 8.44749 651.598 8.44749C651.142 8.44749 650.913 8.44749 650.457 8.44749C650 8.44749 649.772 8.6758 649.543 8.6758C649.315 8.90411 649.087 8.90411 648.859 9.36073C648.63 9.58904 648.63 9.81735 648.63 10.274C648.63 10.7306 648.858 10.9589 649.087 11.4155C649.315 11.6438 649.772 11.8721 650.228 12.1005C650.685 12.3288 651.142 12.3288 651.827 12.5571C652.511 12.7854 652.968 12.7854 653.653 13.0137C654.338 13.242 654.795 13.242 655.48 13.4703C656.164 13.6986 656.621 13.9269 657.078 14.1552C657.534 14.3836 657.991 14.8402 658.219 15.2968C658.448 15.7534 658.676 16.4384 658.676 17.1233C658.676 18.0365 658.448 18.7215 658.219 19.4064C657.763 20.0913 657.306 20.5479 656.849 20.7763C656.164 21.2329 655.479 21.4612 654.795 21.4612C654.11 21.6895 653.196 21.6895 652.511 21.6895C651.598 21.6895 650.913 21.6895 650.228 21.4612C649.543 21.2329 648.858 21.0046 648.174 20.5479C647.489 20.0913 647.032 19.6347 646.804 18.9498C646.347 18.2648 646.347 17.5799 646.119 16.6667H648.63C648.174 16.895 648.402 17.3516 648.63 17.5799Z" fill="#231F20"/>
<path d="M397.032 31.9635C395.89 31.2785 394.749 30.8219 393.379 30.8219C392.237 30.8219 391.096 31.0502 390.183 31.5068C389.269 31.9635 388.584 32.6484 388.128 33.3333C387.671 34.0183 387.215 34.9315 386.986 36.0731C386.758 36.9863 386.53 38.1279 386.53 39.2694C386.53 40.411 386.758 41.5525 386.986 42.4658C387.215 43.6073 387.671 44.5205 388.128 45.2055C388.584 45.8904 389.498 46.5753 390.183 47.032C391.096 47.4886 392.009 47.7169 393.379 47.7169C394.292 47.7169 394.977 47.4886 395.662 47.2603C396.347 47.032 397.032 46.5753 397.489 46.1187C397.945 45.6621 398.402 44.9772 398.63 44.2922C398.858 43.6073 399.087 42.6941 399.087 42.0091H401.827C401.598 44.5205 400.685 46.5753 399.087 47.9452C397.489 49.3151 395.434 50 392.922 50C391.324 50 389.954 49.7717 388.813 49.0868C387.671 48.6301 386.53 47.7169 385.845 46.8037C385.16 45.8904 384.475 44.7489 384.018 43.379C383.562 42.0091 383.333 40.6393 383.333 39.2694C383.333 37.8995 383.562 36.3014 384.018 35.1598C384.475 33.79 385.16 32.6484 385.845 31.7352C386.758 30.8219 387.671 29.9087 388.813 29.4521C389.954 28.9954 391.324 28.5388 392.922 28.5388C394.064 28.5388 394.977 28.7671 395.89 28.9954C396.804 29.2237 397.717 29.6804 398.402 30.137C399.087 30.5936 399.772 31.2785 400.228 32.1918C400.685 33.105 401.142 34.0183 401.142 35.1598H398.402C398.63 33.79 397.945 32.8767 397.032 31.9635Z" fill="#231F20"/>
<path d="M416.21 50C415.525 50 415.069 49.7717 414.612 49.5434C414.155 49.0868 414.155 48.6301 414.155 47.7169C413.47 48.6301 412.785 49.0868 411.872 49.5434C410.959 50 410.046 50 408.904 50C408.219 50 407.534 50 407.078 49.7717C406.393 49.5434 405.936 49.3151 405.479 49.0868C405.023 48.8585 404.566 48.4018 404.338 47.7169C404.11 47.2603 403.881 46.5753 403.881 45.8904C403.881 44.9772 404.11 44.2922 404.338 43.8356C404.566 43.379 405.023 42.9224 405.479 42.4658C405.936 42.2374 406.393 41.7808 407.078 41.7808C407.763 41.7808 408.219 41.5525 408.904 41.3242C409.589 41.0959 410.274 41.0959 410.731 41.0959C411.416 41.0959 411.872 40.8676 412.329 40.8676C412.785 40.6393 413.242 40.6393 413.47 40.411C413.699 40.1827 413.927 39.726 413.927 39.2694C413.927 38.8128 413.927 38.3562 413.699 37.8995C413.47 37.4429 413.242 37.2146 413.014 37.2146C412.785 37.2146 412.329 36.9863 411.872 36.758C411.416 36.758 411.187 36.758 410.731 36.758C409.589 36.758 408.904 36.9863 408.219 37.4429C407.534 37.8995 407.078 38.5845 407.078 39.726H404.566C404.566 38.8128 404.795 38.1279 405.251 37.4429C405.708 36.758 406.164 36.3014 406.621 35.8448C407.306 35.3881 407.763 35.1598 408.676 34.9315C409.589 34.7032 410.274 34.7032 410.959 34.7032C411.644 34.7032 412.329 34.7032 413.014 34.9315C413.699 34.9315 414.155 35.1598 414.84 35.6164C415.297 35.8448 415.753 36.3014 416.21 36.758C416.438 37.2146 416.667 37.8995 416.667 38.8128V46.347C416.667 47.032 416.667 47.2603 416.667 47.7169C416.667 47.9452 416.895 48.1735 417.352 48.1735C417.58 48.1735 417.808 48.1735 418.037 47.9452V49.7717C417.58 49.7717 417.123 50 416.21 50ZM412.785 42.4658C412.329 42.4658 411.872 42.6941 411.187 42.6941C410.502 42.6941 410.046 42.9224 409.589 42.9224C409.132 42.9224 408.448 43.1507 408.219 43.379C407.763 43.6073 407.534 43.8356 407.078 44.2922C406.849 44.7489 406.621 45.2055 406.621 45.6621C406.621 46.1187 406.621 46.347 406.849 46.5753C407.078 46.8037 407.306 47.032 407.534 47.2603C407.763 47.4886 407.991 47.4886 408.447 47.7169C408.904 47.7169 409.132 47.9452 409.589 47.9452C410.274 47.9452 411.187 47.9452 411.644 47.7169C412.329 47.4886 412.785 47.2603 413.014 46.8037C413.242 46.347 413.699 46.1187 413.927 45.6621C414.155 45.2055 414.155 44.9772 414.155 44.5206V42.0091C413.699 42.2374 413.47 42.4658 412.785 42.4658Z" fill="#231F20"/>
<path d="M422.603 34.9315V37.2146C423.516 35.3881 425.114 34.4749 427.397 34.4749C428.311 34.4749 429.224 34.7032 429.909 34.9315C430.594 35.1598 431.05 35.6164 431.507 36.0731C431.964 36.5297 432.192 37.2146 432.42 37.6712C432.648 38.3562 432.648 39.0411 432.648 39.9543V49.7717H430.137V39.726C430.137 38.8128 429.909 38.1279 429.224 37.4429C428.767 36.9863 427.854 36.5297 426.941 36.5297C426.256 36.5297 425.571 36.758 424.886 36.9863C424.429 37.2146 423.973 37.4429 423.516 37.8995C423.059 38.3562 422.831 38.8128 422.603 39.2694C422.374 39.726 422.374 40.411 422.374 41.0959V49.5434H419.863V34.7032H422.603V34.9315Z" fill="#231F20"/>
<path d="M447.717 50C447.032 50 446.575 49.7717 446.119 49.5434C445.662 49.0868 445.662 48.6301 445.662 47.7169C444.977 48.6301 444.292 49.0868 443.379 49.5434C442.466 50 441.553 50 440.411 50C439.726 50 439.041 50 438.585 49.7717C437.9 49.5434 437.443 49.3151 436.986 49.0868C436.53 48.8585 436.301 48.4018 435.845 47.7169C435.616 47.2603 435.388 46.5753 435.388 45.8904C435.388 44.9772 435.616 44.2922 435.845 43.8356C436.073 43.379 436.53 42.9224 436.986 42.4658C437.443 42.2374 437.9 41.7808 438.585 41.7808C439.269 41.7808 439.726 41.5525 440.411 41.3242C441.096 41.0959 441.781 41.0959 442.237 41.0959C442.922 41.0959 443.379 40.8676 443.836 40.8676C444.292 40.6393 444.749 40.6393 444.977 40.411C445.205 40.1827 445.434 39.726 445.434 39.2694C445.434 38.8128 445.434 38.3562 445.206 37.8995C444.977 37.6712 444.749 37.2146 444.521 37.2146C444.292 37.2146 443.836 36.9863 443.379 36.758C442.922 36.758 442.694 36.758 442.237 36.758C441.096 36.758 440.411 36.9863 439.726 37.4429C439.041 37.8995 438.585 38.5845 438.585 39.726H436.073C436.073 38.8128 436.301 38.1279 436.758 37.4429C437.215 36.758 437.671 36.3014 438.128 35.8448C438.584 35.3881 439.269 35.1598 440.183 34.9315C440.868 34.7032 441.781 34.7032 442.466 34.7032C443.151 34.7032 443.836 34.7032 444.521 34.9315C445.206 34.9315 445.89 35.1598 446.347 35.6164C446.804 35.8448 447.26 36.3014 447.717 36.758C447.945 37.2146 448.174 37.8995 448.174 38.8128V46.347C448.174 47.032 448.174 47.2603 448.174 47.7169C448.174 47.9452 448.402 48.1735 448.858 48.1735C449.087 48.1735 449.315 48.1735 449.543 47.9452V49.7717C449.087 49.7717 448.402 50 447.717 50ZM444.292 42.4658C443.836 42.4658 443.379 42.6941 442.694 42.6941C442.009 42.6941 441.553 42.9224 441.096 42.9224C440.639 42.9224 439.954 43.1507 439.726 43.379C439.269 43.6073 439.041 43.8356 438.585 44.2922C438.356 44.7489 438.128 45.2055 438.128 45.6621C438.128 46.1187 438.128 46.347 438.356 46.5753C438.585 46.8037 438.813 47.032 439.041 47.2603C439.269 47.4886 439.498 47.4886 439.954 47.7169C440.411 47.7169 440.639 47.9452 441.096 47.9452C441.781 47.9452 442.466 47.9452 443.151 47.7169C443.836 47.4886 444.292 47.2603 444.521 46.8037C444.977 46.5753 445.206 46.1187 445.206 45.6621C445.206 45.2055 445.434 44.9772 445.434 44.5206V42.0091C445.206 42.2374 444.749 42.4658 444.292 42.4658Z" fill="#231F20"/>
<path d="M462.557 49.7717V47.7169C462.101 48.6301 461.416 49.0868 460.731 49.5434C459.817 50 458.904 50 457.991 50C456.849 50 455.936 49.7717 455.023 49.3151C454.11 48.8585 453.425 48.4018 452.968 47.7169C452.511 47.032 452.055 46.1187 451.598 45.2055C451.37 44.2922 451.142 43.379 451.142 42.2374C451.142 41.0959 451.37 40.1827 451.598 39.2694C451.827 38.3562 452.283 37.4429 452.968 36.758C453.425 36.0731 454.338 35.6164 455.023 35.1598C455.936 34.7032 456.849 34.4749 457.991 34.4749C458.448 34.4749 458.676 34.4749 459.132 34.7032C459.589 34.7032 460.046 34.9315 460.502 35.1598C460.959 35.3881 461.416 35.6164 461.644 35.8448C462.1 36.0731 462.329 36.5297 462.557 36.9863V29.4521H465.069V50H462.557V49.7717ZM453.653 44.2922C453.881 44.9772 454.11 45.4338 454.566 46.1187C455.023 46.5753 455.479 47.032 455.936 47.2603C456.621 47.4886 457.306 47.7169 457.991 47.7169C458.904 47.7169 459.589 47.4886 460.046 47.2603C460.731 47.032 461.187 46.5753 461.416 45.8904C461.872 45.4338 462.1 44.7489 462.1 44.0639C462.329 43.379 462.329 42.6941 462.329 42.0091C462.329 41.3242 462.329 40.6393 462.1 39.9543C461.872 39.2694 461.644 38.5845 461.187 38.1279C460.731 37.6712 460.274 37.2146 459.817 36.9863C459.132 36.758 458.448 36.5297 457.763 36.5297C456.849 36.5297 456.164 36.758 455.708 36.9863C455.023 37.2146 454.566 37.6712 454.338 38.3562C453.881 38.8128 453.653 39.4977 453.653 40.1827C453.425 40.8676 453.425 41.5525 453.425 42.2374C453.425 43.1507 453.653 43.8356 453.653 44.2922Z" fill="#231F20"/>
<path d="M480.137 50C479.452 50 478.995 49.7717 478.539 49.5434C478.082 49.0868 478.082 48.6301 478.082 47.7169C477.397 48.6301 476.712 49.0868 475.799 49.5434C474.886 50 473.973 50 472.831 50C472.146 50 471.461 50 471.005 49.7717C470.32 49.5434 469.863 49.3151 469.406 49.0868C468.95 48.8585 468.721 48.4018 468.265 47.7169C468.037 47.2603 467.808 46.5753 467.808 45.8904C467.808 44.9772 468.037 44.2922 468.265 43.8356C468.493 43.379 468.95 42.9224 469.406 42.4658C469.863 42.0091 470.32 41.7808 471.005 41.7808C471.69 41.5525 472.146 41.5525 472.831 41.3242C473.516 41.0959 474.201 41.0959 474.658 41.0959C475.342 41.0959 475.799 40.8676 476.256 40.8676C476.712 40.6393 477.169 40.6393 477.397 40.411C477.626 40.1827 477.854 39.726 477.854 39.2694C477.854 38.8128 477.854 38.3562 477.626 37.8995C477.397 37.4429 477.169 37.2146 476.941 37.2146C476.712 36.9863 476.256 36.9863 475.799 36.758C475.342 36.758 475.114 36.758 474.658 36.758C473.516 36.758 472.831 36.9863 472.146 37.4429C471.461 37.8995 471.005 38.5845 471.005 39.726H468.493C468.493 38.8128 468.721 38.1279 469.178 37.4429C469.635 36.758 470.091 36.3014 470.548 35.8448C471.005 35.3881 471.69 35.1598 472.603 34.9315C473.516 34.7032 474.201 34.7032 474.886 34.7032C475.571 34.7032 476.256 34.7032 476.941 34.9315C477.626 34.9315 478.311 35.1598 478.767 35.6164C479.224 35.8448 479.68 36.3014 480.137 36.758C480.365 37.2146 480.594 37.8995 480.594 38.8128V46.347C480.594 47.032 480.594 47.2603 480.594 47.7169C480.594 47.9452 480.822 48.1735 481.279 48.1735C481.507 48.1735 481.735 48.1735 481.964 47.9452V49.7717C481.507 49.7717 480.822 50 480.137 50ZM476.712 42.4658C476.256 42.4658 475.799 42.6941 475.114 42.6941C474.658 42.6941 473.973 42.9224 473.516 42.9224C473.059 42.9224 472.374 43.1507 472.146 43.379C471.69 43.6073 471.461 43.8356 471.005 44.2922C470.776 44.7489 470.548 45.2055 470.548 45.6621C470.548 46.1187 470.548 46.347 470.776 46.5753C471.005 46.8037 471.233 47.032 471.461 47.2603C471.69 47.4886 471.918 47.4886 472.374 47.7169C472.831 47.7169 473.059 47.9452 473.516 47.9452C474.201 47.9452 474.886 47.9452 475.571 47.7169C476.027 47.4886 476.712 47.2603 476.941 46.8037C477.397 46.5753 477.626 46.1187 477.626 45.6621C477.854 45.2055 477.854 44.9772 477.854 44.5206V42.0091C477.626 42.2374 477.169 42.4658 476.712 42.4658Z" fill="#231F20"/>
<path d="M0 0H24.4292V49.7717H0V0Z" fill="#EE3E42"/>
<path d="M78.7671 0H103.196V49.7717H78.7671V0Z" fill="#EE3E42"/>
<path d="M48.1735 10.274L51.5982 3.19635L55.0228 10.0457C55.4795 10.7306 55.7078 10.7306 56.3927 10.274L59.3607 8.90411L57.5343 18.4932C57.0776 20.3196 58.2192 21.0046 59.3607 19.6347L63.6986 15.0685L64.8402 17.5799C65.2968 18.2648 65.7534 18.2648 66.4384 18.0365L70.7763 17.1233L69.4064 22.8311V23.0594C69.1781 23.7443 68.9498 24.4292 69.6347 24.6575L71.2329 25.3425L62.1005 33.105C61.1872 34.0183 61.4155 34.2466 61.8722 35.3881L62.7854 37.8995L54.3379 36.5297C53.1963 36.3014 52.5114 36.3014 52.5114 37.2146L52.968 46.8037H50.4566L50.9132 37.2146C50.9132 36.3014 50.2283 36.3014 48.4018 36.5297L40.6393 38.1279L41.5525 35.6164C42.0091 34.7032 42.0091 34.0183 41.0959 33.3333L31.9635 25.7991L33.5616 24.6575C34.0183 24.2009 34.0183 23.9726 33.79 23.0594L31.9635 17.3516L36.5297 18.2648C37.6712 18.4932 38.1279 18.2648 38.3562 17.5799L39.4977 15.0685L43.8356 20.0913C44.5206 21.0046 45.6621 20.3196 45.4338 19.1781L43.379 8.90411L46.5753 10.7306C47.2603 10.7306 47.9452 10.7306 48.1735 10.274Z" fill="#EE3E42"/>
</g>
<defs>
<clipPath id="clip0_2_2">
<rect width="658.448" height="50" fill="white"/>
</clipPath>
</defs>
</svg>