<svg width="656" height="50" viewBox="0 0 656 50" fill="none" xmlns="http://www.w3.org/2000/svg">
<g clip-path="url(#clip0_3_55)">
<path d="M464.84 20.7763L457.763 0.456621H460.731L466.667 18.0365L472.603 0.456621H475.342L468.037 20.7763H464.84Z" fill="#231F20"/>
<path d="M485.845 19.863C484.703 20.7763 483.333 21.0046 481.735 21.0046C480.594 21.0046 479.452 20.7763 478.767 20.3196C477.854 19.863 477.169 19.4064 476.484 18.7215C475.799 18.0365 475.342 17.1233 475.114 16.21C474.886 15.2968 474.658 14.1553 474.658 13.0137C474.658 11.8721 474.886 10.9589 475.114 9.81735C475.571 8.90411 476.027 7.99087 476.484 7.30594C477.169 6.62101 477.854 6.16438 478.767 5.70776C479.68 5.25114 480.594 5.02283 481.507 5.02283C482.877 5.02283 484.018 5.25114 484.703 5.93607C485.616 6.39269 486.301 7.07763 486.758 7.99087C487.215 8.90411 487.671 9.81735 487.9 10.7306C488.128 11.6438 488.128 12.5571 488.128 13.4703H477.169C477.169 14.1553 477.169 14.8402 477.397 15.2968C477.626 15.9817 477.854 16.4384 478.311 16.895C478.767 17.3516 479.224 17.8082 479.68 18.0365C480.365 18.2648 481.05 18.4932 481.735 18.4932C482.648 18.4932 483.562 18.2648 484.247 17.8082C484.932 17.3516 485.388 16.6667 485.616 15.7534H488.128C487.671 17.8082 486.986 19.1781 485.845 19.863ZM485.16 10.5023C484.932 10.0457 484.703 9.58904 484.247 9.13242C483.79 8.6758 483.333 8.44749 482.877 8.21918C482.42 7.99087 481.735 7.99087 481.279 7.99087C480.594 7.99087 480.137 7.99087 479.68 8.21918C479.224 8.44749 478.767 8.6758 478.311 9.13242C477.854 9.58904 477.626 10.0457 477.397 10.5023C477.169 10.9589 477.169 11.4155 477.169 12.1005H485.616C485.616 11.4155 485.388 10.9589 485.16 10.5023Z" fill="#231F20"/>
<path d="M497.032 6.16438V8.21918H494.064V17.3516C494.064 17.5799 494.064 17.8082 494.064 18.0365C494.064 18.2648 494.292 18.2648 494.292 18.4932C494.521 18.4932 494.521 18.7215 494.749 18.7215C494.977 18.7215 495.206 18.7215 495.662 18.7215H496.804V20.7763H494.977C494.292 20.7763 493.836 20.7763 493.379 20.5479C492.922 20.5479 492.466 20.3196 492.237 20.0913C492.009 19.863 491.781 19.6347 491.553 19.1781C491.324 18.7215 491.324 18.2648 491.324 17.5799V8.21918H488.813V6.16438H491.324V1.59817H493.836V5.93607H497.032V6.16438Z" fill="#231F20"/>
<path d="M510.046 19.863C508.904 20.7763 507.534 21.0046 505.936 21.0046C504.795 21.0046 503.653 20.7763 502.968 20.3196C502.055 19.863 501.37 19.4064 500.685 18.7215C500 18.0365 499.543 17.1233 499.315 16.21C499.087 15.2968 498.858 14.1553 498.858 13.0137C498.858 11.8721 499.087 10.9589 499.315 9.81735C499.543 8.90411 500.228 7.99087 500.685 7.30594C501.37 6.62101 502.055 6.16438 502.968 5.70776C503.881 5.25114 504.795 5.02283 505.708 5.02283C507.078 5.02283 508.219 5.25114 508.904 5.93607C509.817 6.39269 510.502 7.07763 510.959 7.99087C511.416 8.90411 511.872 9.81735 512.1 10.7306C512.329 11.6438 512.329 12.5571 512.329 13.4703H501.37C501.37 14.1553 501.37 14.8402 501.598 15.2968C501.826 15.9817 502.055 16.4384 502.511 16.895C502.968 17.3516 503.425 17.8082 503.881 18.0365C504.566 18.2648 505.251 18.4932 505.936 18.4932C506.849 18.4932 507.763 18.2648 508.447 17.8082C509.132 17.3516 509.589 16.6667 509.817 15.7534H512.329C511.872 17.8082 511.187 19.1781 510.046 19.863ZM509.589 10.5023C509.361 10.0457 509.132 9.58904 508.676 9.13242C508.219 8.6758 507.763 8.44749 507.306 8.21918C506.849 7.99087 506.164 7.99087 505.708 7.99087C505.023 7.99087 504.566 7.99087 504.11 8.21918C503.653 8.44749 503.196 8.6758 502.74 9.13242C502.283 9.58904 502.055 10.0457 501.827 10.5023C501.598 10.9589 501.598 11.6438 501.37 12.1005H509.817C509.817 11.4155 509.817 10.9589 509.589 10.5023Z" fill="#231F20"/>
<path d="M517.123 6.16438V9.13242C517.808 7.99087 518.493 7.07763 519.406 6.39269C520.32 5.93607 521.233 5.47945 522.603 5.70776V8.21918C521.69 8.21918 520.776 8.44749 520.091 8.6758C519.406 8.90411 518.95 9.36073 518.493 9.81735C518.037 10.274 517.808 10.9589 517.58 11.6438C517.352 12.3288 517.352 13.242 517.352 14.1553V20.7763H514.84V6.16438H517.123Z" fill="#231F20"/>
<path d="M535.845 21.2329C535.16 21.2329 534.703 21.0046 534.247 20.7763C533.79 20.3196 533.79 19.863 533.79 18.9498C533.105 19.863 532.42 20.3196 531.507 20.7763C530.594 21.2329 529.68 21.2329 528.539 21.2329C527.854 21.2329 527.169 21.2329 526.712 21.0046C526.027 20.7763 525.571 20.5479 525.114 20.3196C524.658 20.0913 524.429 19.6347 523.973 18.9498C523.744 18.4932 523.516 17.8082 523.516 17.1233C523.516 16.21 523.744 15.5251 523.973 15.0685C524.201 14.6119 524.658 14.1553 525.114 13.6986C525.571 13.4703 526.027 13.0137 526.712 13.0137C527.397 13.0137 527.854 12.7854 528.539 12.5571C529.224 12.3288 529.909 12.3288 530.365 12.3288C531.05 12.3288 531.507 12.1005 531.963 12.1005C532.42 11.8721 532.877 11.8721 533.105 11.6438C533.333 11.4155 533.562 10.9589 533.562 10.5023C533.562 10.0457 533.562 9.58904 533.333 9.13242C533.105 8.90411 532.877 8.44749 532.648 8.44749C532.42 8.21918 531.963 8.21918 531.507 8.21918C531.05 8.21918 530.822 8.21918 530.365 8.21918C529.452 8.21918 528.539 8.44749 527.854 8.90411C527.169 9.36073 526.712 10.0457 526.712 11.1872H524.201C524.201 10.274 524.429 9.58904 524.886 8.90411C525.342 8.21918 525.799 7.76256 526.256 7.30594C526.941 6.84932 527.397 6.621 528.31 6.39269C528.995 6.16438 529.909 6.16438 530.594 6.16438C531.279 6.16438 531.963 6.16438 532.648 6.39269C533.333 6.39269 533.79 6.621 534.475 7.07763C534.932 7.30594 535.388 7.76256 535.845 8.21918C536.073 8.6758 536.301 9.36073 536.301 10.274V17.8082C536.301 18.4932 536.301 18.7215 536.301 19.1781C536.301 19.4064 536.53 19.6347 536.986 19.6347C537.215 19.6347 537.443 19.6347 537.671 19.4064V21.2329C537.215 21.0046 536.53 21.2329 535.845 21.2329ZM532.42 13.6986C531.963 13.6986 531.507 13.9269 530.822 13.9269C530.365 13.9269 529.68 14.1553 529.224 14.1553C528.767 14.1553 528.082 14.3836 527.854 14.6119C527.397 14.8402 527.169 15.0685 526.712 15.5251C526.484 15.9817 526.256 16.4384 526.256 16.895C526.256 17.3516 526.256 17.5799 526.484 17.8082C526.712 18.0365 526.941 18.2648 527.169 18.4932C527.397 18.7215 527.626 18.7215 528.082 18.9498C528.539 18.9498 528.767 19.1781 529.224 19.1781C529.909 19.1781 530.594 19.1781 531.279 18.9498C531.735 18.7215 532.42 18.4931 532.648 18.0365C533.105 17.8082 533.333 17.3516 533.333 16.895C533.562 16.4384 533.562 16.21 533.562 15.7534V13.242C533.333 13.4703 532.877 13.6986 532.42 13.6986Z" fill="#231F20"/>
<path d="M542.237 6.16438V8.44749C543.151 6.621 544.749 5.70776 547.032 5.70776C547.945 5.70776 548.858 5.93607 549.543 6.16438C550.228 6.39269 550.685 6.84932 551.142 7.30594C551.598 7.76256 551.826 8.44749 552.055 8.90411C552.283 9.58904 552.283 10.274 552.283 11.1872V21.0046H549.772V10.9589C549.772 10.0457 549.543 9.36073 549.087 8.90411C548.63 8.44749 547.717 7.99087 546.804 7.99087C546.119 7.99087 545.434 8.21918 544.977 8.21918C544.521 8.44749 544.064 8.6758 543.607 9.13242C543.151 9.58904 542.922 10.0457 542.694 10.5023C542.466 10.9589 542.466 11.6438 542.466 12.3288V20.5479H539.954V6.16438H542.237Z" fill="#231F20"/>
<path d="M557.534 17.5799C557.763 18.0365 557.991 18.2648 558.448 18.4932C558.904 18.7215 559.132 18.9498 559.817 18.9498C560.274 18.9498 560.731 19.1781 561.187 19.1781C561.644 19.1781 561.872 19.1781 562.329 19.1781C562.785 19.1781 563.242 18.9498 563.47 18.9498C563.699 18.9498 564.155 18.4932 564.384 18.2648C564.612 18.0365 564.84 17.5799 564.84 17.1233C564.84 16.4384 564.612 15.9817 564.155 15.7534C563.699 15.5251 563.014 15.0685 562.329 15.0685C561.644 14.8402 560.731 14.6119 560.046 14.6119C559.132 14.3836 558.448 14.1553 557.763 13.9269C557.078 13.6986 556.393 13.242 555.936 12.7854C555.479 12.3288 555.251 11.4155 555.251 10.5023C555.251 9.81735 555.479 9.13242 555.708 8.6758C555.936 8.21918 556.393 7.76256 557.078 7.30594C557.763 6.84932 558.219 6.62101 558.904 6.62101C559.589 6.39269 560.274 6.39269 560.959 6.39269C561.872 6.39269 562.557 6.39269 563.242 6.62101C563.927 6.84932 564.612 7.07763 565.069 7.30594C565.525 7.76256 565.982 8.21918 566.438 8.6758C566.667 9.36073 566.895 10.0457 567.123 10.9589H564.612C564.612 10.5023 564.384 10.0457 564.155 9.81735C563.927 9.58904 563.699 9.36073 563.242 9.13242C562.785 8.90411 562.557 8.90411 562.1 8.6758C561.644 8.6758 561.416 8.44749 560.959 8.44749C560.502 8.44749 560.274 8.44749 559.817 8.44749C559.361 8.44749 559.132 8.6758 558.904 8.6758C558.676 8.90411 558.448 8.90411 558.219 9.36073C557.991 9.58904 557.991 9.81735 557.991 10.274C557.991 10.7306 558.219 10.9589 558.448 11.4155C558.676 11.6438 559.132 11.8721 559.589 12.1005C560.046 12.3288 560.502 12.3288 561.187 12.5571C561.872 12.7854 562.329 12.7854 563.014 13.0137C563.699 13.242 564.155 13.242 564.84 13.4703C565.525 13.6986 565.982 13.9269 566.438 14.1553C566.895 14.3836 567.352 14.8402 567.58 15.2968C567.808 15.7534 568.037 16.4384 568.037 17.1233C568.037 18.0365 567.808 18.7215 567.58 19.4064C567.123 20.0913 566.667 20.5479 566.21 20.7763C565.525 21.2329 564.84 21.4612 564.155 21.4612C563.47 21.6895 562.557 21.6895 561.872 21.6895C560.959 21.6895 560.274 21.6895 559.589 21.4612C558.904 21.2329 558.219 21.0046 557.534 20.5479C556.849 20.0913 556.621 19.6347 556.164 18.9498C555.708 18.2648 555.708 17.5799 555.479 16.6667H557.991C557.306 16.6667 557.306 17.1233 557.534 17.5799Z" fill="#231F20"/>
<path d="M586.986 0.456621L594.977 20.7763H592.009L589.726 14.6119H581.05L578.767 20.7763H576.027L584.018 0.456621H586.986ZM588.813 12.5571L585.388 2.96804L581.964 12.5571H588.813Z" fill="#231F20"/>
<path d="M594.977 8.21918V6.16438H597.489V3.88128C597.489 2.73973 597.945 1.82648 598.63 1.14155C599.315 0.456621 600.228 0.228311 601.598 0.228311C601.827 0.228311 602.055 0.228311 602.283 0.228311C602.511 0.228311 602.74 0.228311 602.968 0.456621V2.51142C602.74 2.51142 602.511 2.2831 602.283 2.2831C602.055 2.2831 601.827 2.2831 601.598 2.2831C600.913 2.2831 600.457 2.2831 600.228 2.73973C600 2.96804 599.772 3.42466 599.772 4.10959V6.16438H602.74V8.21918H599.772V20.7763H597.26V8.21918H594.977Z" fill="#231F20"/>
<path d="M602.968 8.21918V6.16438H605.48V3.88128C605.48 2.73973 605.936 1.82648 606.621 1.14155C607.306 0.456621 608.219 0.228311 609.589 0.228311C609.817 0.228311 610.046 0.228311 610.274 0.228311C610.502 0.228311 610.731 0.228311 610.959 0.456621V2.51142C610.731 2.51142 610.502 2.2831 610.274 2.2831C610.046 2.2831 609.817 2.2831 609.589 2.2831C608.904 2.2831 608.448 2.2831 608.219 2.73973C607.991 2.96804 607.763 3.42466 607.763 4.10959V6.16438H610.731V8.21918H607.763V20.7763H605.251V8.21918H602.968Z" fill="#231F20"/>
<path d="M624.201 21.2329C623.516 21.2329 623.059 21.0046 622.603 20.7763C622.146 20.3196 622.146 19.863 622.146 18.9498C621.461 19.863 620.776 20.3196 619.863 20.7763C618.95 21.2329 618.037 21.2329 616.895 21.2329C616.21 21.2329 615.525 21.2329 615.069 21.0046C614.384 20.7763 613.927 20.5479 613.47 20.3196C613.014 20.0913 612.785 19.6347 612.329 18.9498C612.101 18.4932 611.872 17.8082 611.872 17.1233C611.872 16.21 612.101 15.5251 612.329 15.0685C612.557 14.6119 613.014 14.1553 613.47 13.6986C613.927 13.4703 614.384 13.0137 615.069 13.0137C615.753 12.7854 616.21 12.7854 616.895 12.5571C617.58 12.3288 618.265 12.3288 618.722 12.3288C619.406 12.3288 619.863 12.1005 620.32 12.1005C620.776 11.8721 621.233 11.8721 621.461 11.6438C621.69 11.4155 621.918 10.9589 621.918 10.5023C621.918 10.0457 621.918 9.58904 621.69 9.13242C621.461 8.90411 621.233 8.44749 621.005 8.44749C620.776 8.21918 620.32 8.21918 619.863 8.21918C619.406 8.21918 619.178 8.21918 618.722 8.21918C617.808 8.21918 616.895 8.44749 616.21 8.90411C615.525 9.36073 615.069 10.0457 615.069 11.1872H612.557C612.557 10.274 612.785 9.58904 613.014 8.90411C613.47 8.21918 613.699 7.76256 614.384 7.30594C615.069 6.84932 615.525 6.621 616.438 6.39269C617.123 6.16438 618.037 6.16438 618.722 6.16438C619.406 6.16438 620.091 6.16438 620.776 6.39269C621.461 6.39269 621.918 6.621 622.603 7.07763C623.059 7.30594 623.516 7.76256 623.973 8.21918C624.201 8.6758 624.429 9.36073 624.429 10.274V17.8082C624.429 18.4932 624.429 18.7215 624.429 19.1781C624.429 19.4064 624.658 19.6347 625.114 19.6347C625.342 19.6347 625.571 19.6347 625.799 19.4064V21.2329C625.571 21.0046 624.886 21.2329 624.201 21.2329ZM620.776 13.6986C620.32 13.6986 619.863 13.9269 619.178 13.9269C618.722 13.9269 618.037 14.1553 617.58 14.1553C617.123 14.1553 616.438 14.3836 616.21 14.6119C615.753 14.8402 615.525 15.0685 615.069 15.5251C614.84 15.9817 614.612 16.4384 614.612 16.895C614.612 17.3516 614.612 17.5799 614.84 17.8082C615.069 18.0365 615.297 18.2648 615.525 18.4932C615.753 18.7215 615.982 18.7215 616.438 18.9498C616.895 18.9498 617.123 19.1781 617.58 19.1781C618.265 19.1781 618.95 19.1781 619.635 18.9498C620.32 18.7215 620.776 18.4931 621.005 18.0365C621.461 17.8082 621.69 17.3516 621.69 16.895C621.918 16.4384 621.918 16.21 621.918 15.7534V13.242C621.69 13.4703 621.233 13.6986 620.776 13.6986Z" fill="#231F20"/>
<path d="M630.822 3.42466V0.456621H628.311V3.42466H630.822ZM628.311 6.16438V21.0046H630.822V6.16438H628.311Z" fill="#231F20"/>
<path d="M636.758 6.16438V9.13242C637.443 7.99087 638.128 7.07763 639.041 6.39269C639.954 5.93607 640.868 5.47945 642.237 5.70776V8.21918C641.324 8.21918 640.411 8.44749 639.726 8.6758C639.041 8.90411 638.585 9.36073 638.128 9.81735C637.671 10.274 637.443 10.9589 637.215 11.6438C636.986 12.3288 636.986 13.242 636.986 14.3836V21.0046H634.475V6.16438H636.758Z" fill="#231F20"/>
<path d="M645.89 17.5799C646.119 18.0365 646.347 18.2648 646.804 18.4932C647.26 18.7215 647.489 18.9498 648.174 18.9498C648.63 18.9498 649.087 19.1781 649.543 19.1781C650 19.1781 650.228 19.1781 650.685 19.1781C651.142 19.1781 651.598 18.9498 651.826 18.9498C652.283 18.7215 652.511 18.4932 652.74 18.2648C652.968 18.0365 653.196 17.5799 653.196 17.1233C653.196 16.4384 652.968 15.9817 652.511 15.7534C652.055 15.5251 651.37 15.0685 650.685 15.0685C650 14.8402 649.087 14.6119 648.402 14.6119C647.489 14.3836 646.804 14.1553 646.119 13.9269C645.434 13.6986 644.749 13.242 644.292 12.7854C643.836 12.3288 643.607 11.4155 643.607 10.5023C643.607 9.81735 643.836 9.13242 644.064 8.6758C644.292 8.21918 644.749 7.76256 645.434 7.30594C646.119 6.84932 646.575 6.62101 647.26 6.62101C647.945 6.39269 648.63 6.39269 649.315 6.39269C650.228 6.39269 650.913 6.39269 651.598 6.62101C652.283 6.84932 652.968 7.07763 653.425 7.30594C653.881 7.76256 654.338 8.21918 654.795 8.6758C655.023 9.36073 655.251 10.0457 655.479 10.9589H652.968C652.968 10.5023 652.74 10.0457 652.511 9.81735C652.283 9.58904 652.055 9.36073 651.598 9.13242C651.37 8.90411 650.913 8.90411 650.457 8.6758C650 8.6758 649.772 8.44749 649.315 8.44749C648.858 8.44749 648.63 8.44749 648.174 8.44749C647.717 8.44749 647.489 8.6758 647.26 8.6758C647.032 8.90411 646.804 8.90411 646.575 9.36073C646.119 9.13242 646.119 9.36073 646.119 9.81735C646.119 10.274 646.347 10.5023 646.575 10.9589C646.804 11.1872 647.26 11.4155 647.717 11.6438C648.174 11.8721 648.63 11.8721 649.315 12.1005C650 12.3288 650.457 12.3288 651.142 12.5571C651.827 12.7854 652.283 12.7854 652.968 13.0137C653.653 13.242 654.11 13.4703 654.566 13.6986C655.023 13.9269 655.479 14.3836 655.708 14.8402C655.936 15.2968 656.164 15.9817 656.164 16.6667C656.164 17.5799 655.936 18.2648 655.708 18.9498C655.251 19.6347 654.795 20.0913 654.338 20.3196C653.653 20.7763 652.968 21.0046 652.283 21.0046C651.598 21.2329 650.685 21.2329 650 21.2329C649.087 21.2329 648.402 21.2329 647.717 21.0046C647.032 20.7763 646.347 20.5479 645.662 20.0913C644.977 19.6347 644.521 19.1781 644.292 18.4932C643.836 17.8082 643.836 17.1233 643.607 16.21H646.119C645.662 16.6667 645.662 17.1233 645.89 17.5799Z" fill="#231F20"/>
<path d="M472.146 31.9635C471.005 31.2785 469.863 30.8219 468.493 30.8219C467.352 30.8219 466.21 31.0502 465.297 31.5068C464.384 31.9635 463.699 32.6484 463.242 33.3333C462.785 34.0183 462.329 34.9315 462.1 36.0731C461.872 36.9863 461.644 38.1279 461.644 39.2694C461.644 40.411 461.872 41.5525 462.1 42.4658C462.329 43.6073 462.785 44.5205 463.242 45.2055C463.699 45.8904 464.612 46.5753 465.297 47.032C466.21 47.4886 467.123 47.7169 468.493 47.7169C469.406 47.7169 470.091 47.4886 470.776 47.2603C471.461 47.032 472.146 46.5753 472.603 46.1187C473.059 45.6621 473.516 44.9772 473.744 44.2922C473.973 43.6073 474.201 42.6941 474.201 42.0091H476.941C476.712 44.5205 475.799 46.5753 474.201 47.9452C472.603 49.3151 470.548 50 468.037 50C466.438 50 465.069 49.7717 463.927 49.0868C462.785 48.6301 461.872 47.7169 460.959 46.8037C460.274 45.8904 459.589 44.7489 459.132 43.379C458.676 42.0091 458.448 40.6393 458.448 39.2694C458.448 37.6712 458.676 36.3014 459.132 35.1598C459.589 33.79 460.274 32.6484 460.959 31.7352C461.872 30.8219 462.785 29.9087 463.927 29.4521C465.069 28.9954 466.438 28.5388 468.037 28.5388C469.178 28.5388 470.091 28.7671 471.005 28.9954C471.918 29.2237 472.831 29.6804 473.516 30.137C474.201 30.5936 474.886 31.2785 475.342 32.1918C475.799 33.105 476.256 34.0183 476.256 35.1598H473.516C473.973 33.79 473.288 32.6484 472.146 31.9635Z" fill="#231F20"/>
<path d="M491.324 49.7717C490.639 49.7717 490.183 49.5434 489.726 49.3151C489.269 48.8584 489.269 48.4018 489.269 47.4886C488.584 48.4018 487.9 48.8584 486.986 49.3151C486.073 49.7717 485.16 49.7717 484.018 49.7717C483.333 49.7717 482.648 49.7717 482.192 49.5434C481.507 49.3151 481.05 49.0868 480.594 48.8584C480.137 48.6301 479.909 48.1735 479.452 47.4886C479.224 47.032 478.995 46.347 478.995 45.6621C478.995 44.7489 479.224 44.0639 479.452 43.6073C479.68 43.1507 480.137 42.6941 480.594 42.2374C481.05 42.0091 481.507 41.5525 482.192 41.5525C482.877 41.3242 483.333 41.3242 484.018 41.0959C484.703 40.8676 485.388 40.8676 485.845 40.8676C486.53 40.8676 486.986 40.6393 487.443 40.6393C487.9 40.411 488.356 40.411 488.584 40.1826C488.813 39.9543 489.041 39.4977 489.041 39.0411C489.041 38.5845 489.041 38.1279 488.813 37.6712C488.585 37.4429 488.356 36.9863 488.128 36.9863C487.9 36.758 487.443 36.758 486.986 36.5297C486.53 36.5297 486.301 36.5297 485.845 36.5297C484.932 36.5297 484.018 36.758 483.333 37.2146C482.648 37.6712 482.192 38.3562 482.192 39.4977H479.68C479.68 38.5845 479.909 37.8995 480.137 37.2146C480.594 36.5297 480.822 36.0731 481.507 35.6164C482.192 35.1598 482.648 34.9315 483.562 34.7032C484.247 34.4749 485.16 34.4749 485.845 34.4749C486.53 34.4749 487.215 34.4749 487.9 34.7032C488.584 34.7032 489.041 34.9315 489.726 35.3881C490.183 35.6164 490.639 36.0731 491.096 36.5297C491.324 36.9863 491.553 37.6712 491.553 38.5845V46.1187C491.553 46.8037 491.553 47.032 491.553 47.4886C491.553 47.7169 491.781 47.9452 492.237 47.9452C492.466 47.9452 492.694 47.9452 492.922 47.7169V49.5434C492.694 49.5434 492.237 49.7717 491.324 49.7717ZM487.9 42.2374C487.443 42.2374 486.986 42.4658 486.301 42.4658C485.845 42.4658 485.16 42.6941 484.703 42.6941C484.247 42.6941 483.562 42.9224 483.333 43.1507C482.877 43.379 482.648 43.6073 482.192 44.0639C481.963 44.5205 481.735 44.9772 481.735 45.4338C481.735 45.8904 481.735 46.1187 481.963 46.347C482.192 46.5753 482.42 46.8037 482.648 47.032C482.877 47.2603 483.105 47.2603 483.562 47.4886C484.018 47.4886 484.247 47.4886 484.703 47.4886C485.388 47.4886 486.073 47.4886 486.758 47.2603C487.443 47.032 487.9 46.8036 488.128 46.347C488.584 46.1187 488.813 45.6621 488.813 45.2055C489.041 44.7489 489.041 44.5205 489.041 44.0639V41.5525C488.813 42.0091 488.584 42.2374 487.9 42.2374Z" fill="#231F20"/>
<path d="M497.717 34.7032V36.9863C498.63 35.1598 500.228 34.2466 502.511 34.2466C503.425 34.2466 504.338 34.4749 505.023 34.7032C505.708 34.9315 506.164 35.3881 506.621 35.8447C507.078 36.3014 507.306 36.9863 507.534 37.4429C507.763 38.1279 507.763 38.8128 507.763 39.726V49.5434H505.251V39.4977C505.251 38.5845 505.023 37.8995 504.338 37.4429C503.881 36.9863 502.968 36.5297 502.055 36.5297C501.37 36.5297 500.685 36.5297 500.228 36.9863C499.772 37.2146 499.315 37.4429 498.858 37.8995C498.402 38.3562 498.174 38.8128 497.945 39.2694C497.717 39.726 497.717 40.411 497.717 41.0959V49.3151H495.434V34.4749H497.717V34.7032Z" fill="#231F20"/>
<path d="M522.603 49.7717C521.918 49.7717 521.461 49.5434 521.005 49.3151C520.548 48.8584 520.548 48.4018 520.548 47.4886C519.863 48.4018 519.178 48.8584 518.265 49.3151C517.352 49.7717 516.438 49.7717 515.297 49.7717C514.612 49.7717 513.927 49.7717 513.47 49.5434C512.785 49.3151 512.329 49.0868 511.872 48.8584C511.416 48.6301 511.187 48.1735 510.731 47.4886C510.502 47.032 510.274 46.347 510.274 45.6621C510.274 44.7489 510.502 44.0639 510.731 43.6073C510.959 43.1507 511.416 42.6941 511.872 42.2374C512.329 42.0091 512.785 41.5525 513.47 41.5525C514.155 41.3242 514.612 41.3242 515.297 41.0959C515.982 40.8676 516.667 40.8676 517.123 40.8676C517.808 40.8676 518.265 40.6393 518.721 40.6393C519.178 40.411 519.635 40.411 519.863 40.1826C520.091 39.9543 520.32 39.4977 520.32 39.0411C520.32 38.5845 520.32 38.1279 520.091 37.6712C519.863 37.4429 519.635 36.9863 519.406 36.9863C519.178 36.758 518.721 36.758 518.265 36.5297C517.808 36.5297 517.58 36.5297 517.123 36.5297C515.982 36.5297 515.297 36.758 514.612 37.2146C513.927 37.6712 513.47 38.3562 513.47 39.4977H510.959C510.959 38.5845 511.187 37.8995 511.644 37.2146C511.872 36.5297 512.329 36.0731 513.014 35.6164C513.699 35.1598 514.155 34.9315 515.069 34.7032C515.753 34.4749 516.667 34.4749 517.352 34.4749C518.037 34.4749 518.721 34.4749 519.406 34.7032C520.091 34.7032 520.548 34.9315 521.233 35.3881C521.69 35.6164 522.146 36.0731 522.603 36.5297C522.831 36.9863 523.059 37.6712 523.059 38.5845V46.1187C523.059 46.8037 523.059 47.032 523.059 47.4886C523.059 47.7169 523.288 47.9452 523.744 47.9452C523.973 47.9452 524.201 47.9452 524.429 47.7169V49.5434C523.973 49.5434 523.288 49.7717 522.603 49.7717ZM519.178 42.2374C518.721 42.2374 518.265 42.4658 517.58 42.4658C517.123 42.4658 516.438 42.6941 515.982 42.6941C515.525 42.6941 514.84 42.9224 514.612 43.1507C514.155 43.379 513.927 43.6073 513.47 44.0639C513.242 44.5205 513.014 44.9772 513.014 45.4338C513.014 45.8904 513.014 46.1187 513.242 46.347C513.47 46.5753 513.699 46.8037 513.927 47.032C514.155 47.2603 514.384 47.2603 514.84 47.4886C515.297 47.4886 515.525 47.4886 515.982 47.4886C516.667 47.4886 517.352 47.4886 518.037 47.2603C518.493 47.032 518.95 46.8036 519.406 46.347C519.863 45.8904 520.091 45.6621 520.091 45.2055C520.32 44.7489 520.32 44.5205 520.32 44.0639V41.5525C520.091 42.0091 519.635 42.2374 519.178 42.2374Z" fill="#231F20"/>
<path d="M537.443 49.5434V47.4886C536.986 48.4018 536.53 48.8584 535.616 49.3151C534.703 49.7717 533.79 49.7717 532.877 49.7717C531.735 49.7717 530.822 49.5434 529.909 49.0868C528.995 48.6301 528.311 48.1735 527.854 47.4886C527.397 46.8037 526.941 45.8904 526.484 44.9772C526.256 44.0639 526.027 43.1507 526.027 42.0091C526.027 40.8676 526.256 39.9543 526.484 39.0411C526.712 38.1279 527.169 37.2146 527.626 36.5297C528.082 35.8447 528.995 35.3881 529.68 34.9315C530.594 34.4749 531.507 34.2466 532.648 34.2466C533.105 34.2466 533.333 34.2466 533.79 34.2466C534.247 34.2466 534.703 34.4749 535.16 34.7032C535.616 34.9315 536.073 35.1598 536.301 35.3881C536.758 35.6164 536.986 36.0731 537.215 36.5297V28.9954H539.726V49.3151H537.443V49.5434ZM528.767 44.2922C528.995 44.9772 529.224 45.4338 529.68 46.1187C530.137 46.5753 530.594 47.032 531.05 47.2603C531.735 47.4886 532.42 47.7169 533.105 47.7169C534.018 47.7169 534.703 47.4886 535.16 47.2603C535.845 47.032 536.301 46.5753 536.53 45.8904C536.986 45.4338 537.215 44.7489 537.215 44.0639C537.443 43.379 537.443 42.6941 537.443 42.0091C537.443 41.3242 537.443 40.6393 537.215 39.9543C536.986 39.2694 536.758 38.5845 536.301 38.1279C535.845 37.6712 535.388 37.2146 534.932 36.9863C534.247 36.758 533.562 36.5297 532.877 36.5297C531.963 36.5297 531.279 36.758 530.822 36.9863C530.365 37.2146 529.909 37.6712 529.452 38.3562C529.224 38.8128 528.767 39.4977 528.767 40.1826C528.539 40.8676 528.539 41.5525 528.539 42.2374C528.311 42.9224 528.539 43.6073 528.767 44.2922Z" fill="#231F20"/>
<path d="M555.023 49.7717C554.338 49.7717 553.881 49.5434 553.425 49.3151C552.968 48.8584 552.968 48.4018 552.968 47.4886C552.283 48.4018 551.598 48.8584 550.685 49.3151C549.772 49.7717 548.858 49.7717 547.717 49.7717C547.032 49.7717 546.347 49.7717 545.89 49.5434C545.206 49.3151 544.749 49.0868 544.292 48.8584C543.836 48.6301 543.607 48.1735 543.151 47.4886C542.922 47.032 542.694 46.347 542.694 45.6621C542.694 44.7489 542.922 44.0639 543.151 43.6073C543.379 43.1507 543.836 42.6941 544.292 42.2374C544.749 42.0091 545.206 41.5525 545.89 41.5525C546.575 41.3242 547.032 41.3242 547.717 41.0959C548.402 40.8676 549.087 40.8676 549.543 40.8676C550.228 40.8676 550.685 40.6393 551.142 40.6393C551.598 40.411 552.055 40.411 552.283 40.1826C552.511 39.9543 552.74 39.4977 552.74 39.0411C552.74 38.5845 552.74 38.1279 552.511 37.6712C552.283 37.4429 552.055 36.9863 551.827 36.9863C551.598 36.758 551.142 36.758 550.685 36.5297C550.228 36.3014 550 36.5297 549.543 36.5297C548.402 36.5297 547.717 36.758 547.032 37.2146C546.347 37.6712 545.89 38.3562 545.89 39.4977H543.379C543.379 38.5845 543.607 37.8995 543.836 37.2146C544.292 36.5297 544.749 36.0731 545.206 35.6164C545.662 35.1598 546.347 34.9315 547.26 34.7032C547.945 34.4749 548.858 34.4749 549.543 34.4749C550.228 34.4749 550.913 34.4749 551.598 34.7032C552.283 34.7032 552.74 34.9315 553.425 35.3881C553.881 35.6164 554.338 36.0731 554.795 36.5297C555.023 36.9863 555.251 37.6712 555.251 38.5845V46.1187C555.251 46.8037 555.251 47.032 555.251 47.4886C555.251 47.7169 555.479 47.9452 555.936 47.9452C556.164 47.9452 556.393 47.9452 556.621 47.7169V49.5434C556.164 49.5434 555.708 49.7717 555.023 49.7717ZM551.598 42.2374C551.142 42.2374 550.685 42.4658 550 42.4658C549.543 42.4658 548.858 42.6941 548.402 42.6941C547.945 42.6941 547.26 42.9224 547.032 43.1507C546.575 43.379 546.347 43.6073 545.89 44.0639C545.662 44.5205 545.434 44.9772 545.434 45.4338C545.434 45.8904 545.434 46.1187 545.662 46.347C545.89 46.5753 546.119 46.8037 546.347 47.032C546.575 47.2603 546.804 47.2603 547.26 47.4886C547.717 47.4886 547.945 47.4886 548.402 47.4886C549.087 47.4886 549.772 47.4886 550.457 47.2603C550.913 47.032 551.598 46.8036 551.827 46.347C552.055 45.8904 552.511 45.6621 552.511 45.2055C552.74 44.7489 552.74 44.5205 552.74 44.0639V41.5525C552.283 42.0091 552.055 42.2374 551.598 42.2374Z" fill="#231F20"/>
<path d="M154.11 0.456621L162.1 20.7763H159.132L156.849 14.6119H148.174L145.89 20.7763H143.151L151.142 0.456621H154.11ZM155.936 12.5571L152.511 2.96804L149.087 12.5571H155.936Z" fill="#231F20"/>
<path d="M165.982 6.16438V8.44749C166.895 6.621 168.493 5.70776 170.776 5.70776C171.69 5.70776 172.603 5.93607 173.288 6.16438C173.973 6.39269 174.429 6.84932 174.886 7.30594C175.342 7.76256 175.571 8.44749 175.799 8.90411C175.799 9.58904 175.799 10.274 175.799 11.1872V21.0046H173.516V10.9589C173.516 10.0457 173.288 9.36073 172.603 8.90411C172.146 8.44749 171.233 7.99087 170.32 7.99087C169.635 7.99087 168.95 8.21918 168.493 8.21918C168.037 8.21918 167.58 8.90411 167.123 9.13242C166.667 9.58904 166.438 10.0457 166.21 10.5023C165.982 10.9589 165.982 11.6438 165.982 12.3288V20.5479H163.47V6.16438H165.982Z" fill="#231F20"/>
<path d="M188.356 8.6758C187.671 8.21918 186.986 7.99087 185.845 7.99087C184.932 7.99087 184.247 8.21918 183.562 8.44749C183.105 8.6758 182.648 9.13242 182.192 9.58904C181.735 10.0457 181.507 10.7306 181.507 11.4155C181.507 12.1005 181.279 13.0137 181.279 13.6986C181.279 14.3836 181.279 15.0685 181.507 15.7534C181.735 16.4384 181.963 16.895 182.192 17.5799C182.42 18.2648 182.877 18.4932 183.562 18.7215C184.018 18.9498 184.703 19.1781 185.616 19.1781C186.758 19.1781 187.671 18.9498 188.356 18.2648C189.041 17.5799 189.498 16.6667 189.498 15.5251H192.009C191.781 17.3516 191.096 18.7215 189.954 19.863C188.813 20.7763 187.443 21.4612 185.388 21.4612C184.247 21.4612 183.333 21.2329 182.42 21.0046C181.507 20.5479 180.822 20.0913 180.137 19.4064C179.452 18.7215 179.224 18.0365 178.767 17.1233C178.539 16.21 178.311 15.2968 178.311 14.1553C178.311 13.0137 178.539 12.1005 178.767 10.9589C178.995 10.0457 179.452 9.13242 180.137 8.44749C180.822 7.76256 181.507 7.07763 182.42 6.84932C183.333 6.39269 184.247 6.16438 185.388 6.16438C186.301 6.16438 186.986 6.16438 187.671 6.39269C188.356 6.621 189.041 6.84932 189.726 7.30594C190.183 7.76256 190.639 8.21918 191.096 8.90411C191.553 9.58904 191.781 10.274 191.781 11.1872H189.498C189.269 9.81735 189.041 9.13242 188.356 8.6758Z" fill="#231F20"/>
<path d="M194.977 3.42466V0.456621H197.489V3.42466H194.977ZM197.489 6.16438V21.0046H194.977V6.16438H197.489Z" fill="#231F20"/>
<path d="M211.644 19.863C210.502 20.7763 209.132 21.0046 207.534 21.0046C206.393 21.0046 205.251 20.7763 204.566 20.3196C203.653 19.863 202.968 19.4064 202.283 18.7215C201.598 18.2648 201.142 17.5799 200.913 16.6667C200.685 15.7534 200.457 14.6119 200.457 13.4703C200.457 12.3288 200.685 11.4155 200.913 10.274C201.142 9.36073 201.826 8.44749 202.283 7.76256C202.968 7.07763 203.653 6.621 204.566 6.16438C205.479 5.70776 206.393 5.47945 207.306 5.47945C208.676 5.47945 209.817 5.70776 210.502 6.39269C211.416 6.84931 212.1 7.53425 212.557 8.44749C213.014 9.36073 213.47 10.274 213.699 11.1872C213.927 12.1005 213.927 13.0137 213.927 13.9269H202.968C202.968 14.6119 202.968 15.2968 203.196 15.7534C203.425 16.4384 203.653 16.895 204.11 17.3516C204.566 17.8082 205.023 18.2648 205.479 18.4932C206.164 18.7215 206.849 18.9498 207.534 18.9498C208.447 18.9498 209.361 18.7215 210.046 18.2648C210.731 17.8082 211.187 17.1233 211.416 16.21H213.927C213.47 17.8082 212.785 19.1781 211.644 19.863ZM211.187 10.5023C210.959 10.0457 210.731 9.58904 210.274 9.13242C209.817 8.6758 209.361 8.44749 208.904 8.21918C208.447 7.99087 207.763 7.99087 207.306 7.99087C206.621 7.99087 206.164 7.99087 205.708 8.21918C205.251 8.44749 204.795 8.6758 204.338 9.13242C203.881 9.58904 203.653 10.0457 203.425 10.5023C203.196 10.9589 202.968 11.4155 202.968 12.1005H211.416C211.416 11.4155 211.416 10.9589 211.187 10.5023Z" fill="#231F20"/>
<path d="M218.721 6.16438V8.44749C219.863 6.621 221.461 5.70776 223.744 5.70776C224.658 5.70776 225.571 5.93607 226.256 6.16438C226.941 6.39269 227.397 6.84932 227.854 7.30594C228.311 7.76256 228.539 8.44749 228.767 8.90411C228.995 9.58904 228.995 10.274 228.995 11.1872V21.0046H226.484V10.9589C226.484 10.0457 226.256 9.36073 225.571 8.90411C225.114 8.44749 224.201 7.99087 223.288 7.99087C222.603 7.99087 221.918 8.21918 221.461 8.21918C221.005 8.44749 220.548 8.6758 220.091 9.13242C219.635 9.58904 219.406 10.0457 219.178 10.5023C218.95 10.9589 218.95 11.6438 218.95 12.3288V20.5479H216.438V6.16438H218.721Z" fill="#231F20"/>
<path d="M234.247 17.5799C234.475 18.0365 234.703 18.2648 235.16 18.4932C235.616 18.7215 235.845 18.9498 236.53 18.9498C236.986 18.9498 237.443 19.1781 237.9 19.1781C238.356 19.1781 238.584 19.1781 239.041 19.1781C239.498 19.1781 239.954 18.9498 240.183 18.9498C240.411 18.9498 240.868 18.4932 241.096 18.2648C241.324 18.0365 241.553 17.5799 241.553 17.1233C241.553 16.4384 241.324 15.9817 240.868 15.7534C240.411 15.5251 239.726 15.0685 239.041 15.0685C238.356 14.8402 237.443 14.6119 236.758 14.6119C235.845 14.3836 235.16 14.1553 234.475 13.9269C233.79 13.6986 233.105 13.242 232.648 12.7854C232.192 12.3288 231.963 11.4155 231.963 10.5023C231.963 9.81735 232.192 9.13242 232.42 8.6758C232.648 8.21918 233.105 7.76256 233.79 7.30594C234.247 7.07763 234.932 6.621 235.616 6.621C236.301 6.39269 236.986 6.39269 237.671 6.39269C238.584 6.39269 239.269 6.39269 239.954 6.621C240.639 6.84932 241.324 7.07763 241.781 7.30594C242.237 7.76256 242.694 8.21918 243.151 8.6758C243.379 9.36073 243.607 10.0457 243.836 10.9589H241.324C241.324 10.5023 241.096 10.0457 240.868 9.81735C240.639 9.58904 240.411 9.36073 239.954 9.13242C239.726 8.90411 239.269 8.90411 238.813 8.6758C238.356 8.6758 238.128 8.44749 237.671 8.44749C237.215 8.44749 236.986 8.44749 236.53 8.44749C236.073 8.44749 235.845 8.6758 235.616 8.6758C235.388 8.90411 235.16 8.90411 234.932 9.36073C234.703 9.58904 234.703 9.81735 234.703 10.274C234.703 10.7306 234.932 10.9589 235.16 11.4155C235.388 11.6438 235.845 11.8721 236.301 12.1005C236.758 12.3288 237.215 12.3288 237.9 12.5571C238.584 12.7854 239.041 12.7854 239.726 13.0137C240.411 13.242 240.868 13.242 241.553 13.4703C242.237 13.6986 242.694 13.9269 243.151 14.1553C243.607 14.3836 244.064 14.8402 244.292 15.2968C244.521 15.7534 244.749 16.4384 244.749 17.1233C244.749 18.0365 244.521 18.7215 244.292 19.4064C243.836 20.0913 243.379 20.5479 242.922 20.7763C242.466 21.0046 241.553 21.4612 240.868 21.4612C240.183 21.6895 239.269 21.6895 238.584 21.6895C237.671 21.6895 236.986 21.6895 236.301 21.4612C235.616 21.2329 234.932 21.0046 234.247 20.5479C233.562 20.0913 233.105 19.6347 232.877 18.9498C232.648 18.2648 232.42 17.5799 232.192 16.6667H234.703C234.018 16.6667 234.018 17.1233 234.247 17.5799Z" fill="#231F20"/>
<path d="M267.352 3.42466C266.21 2.73973 265.069 2.28311 263.699 2.28311C262.557 2.28311 261.416 2.51142 260.502 2.96804C259.589 3.42466 258.904 4.10959 258.448 4.79452C257.991 5.47945 257.534 6.39269 257.306 7.53425C257.078 8.44749 256.849 9.58904 256.849 10.7306C256.849 11.8721 257.078 13.0137 257.306 13.9269C257.534 15.0685 257.991 15.9817 258.448 16.6667C258.904 17.3516 259.817 18.0365 260.502 18.4932C261.416 18.9498 262.329 19.1781 263.699 19.1781C264.612 19.1781 265.297 18.9498 265.982 18.7215C266.667 18.4932 267.352 18.0365 267.808 17.5799C268.265 17.1233 268.721 16.4384 268.95 15.7534C269.178 15.0685 269.406 14.1553 269.406 13.4703H272.146C271.918 15.9817 271.005 18.0365 269.406 19.4064C267.808 20.7763 265.753 21.4612 263.242 21.4612C261.644 21.4612 260.274 21.2329 259.132 20.5479C257.991 19.863 257.078 19.1781 256.164 18.2648C255.479 17.3516 254.795 16.21 254.338 14.8402C253.881 13.4703 253.653 12.1005 253.653 10.7306C253.653 9.36073 253.881 7.76256 254.338 6.62101C254.795 5.25114 255.479 4.10959 256.164 3.19635C257.078 2.28311 257.991 1.36986 259.132 0.913242C260.274 0.456621 261.644 0 263.242 0C264.384 0 265.297 0.228311 266.21 0.456621C267.123 0.684932 268.037 1.14155 268.721 1.59817C269.406 2.05479 270.091 2.73973 270.548 3.65297C271.005 4.56621 271.461 5.47945 271.461 6.62101H269.406C269.178 5.25114 268.493 4.10959 267.352 3.42466Z" fill="#231F20"/>
<path d="M274.886 10.5023C275.114 9.58904 275.571 8.6758 276.256 7.99087C276.941 7.30594 277.626 6.84932 278.539 6.39269C279.452 5.93607 280.365 5.70776 281.507 5.70776C282.648 5.70776 283.79 5.93607 284.703 6.39269C285.616 6.84932 286.301 7.30594 286.986 7.99087C287.671 8.6758 288.128 9.58904 288.356 10.5023C288.584 11.4155 288.813 12.5571 288.813 13.4703C288.813 14.6119 288.584 15.5251 288.356 16.4384C288.128 17.3516 287.671 18.2648 286.986 18.9498C286.301 19.6347 285.616 20.0913 284.703 20.5479C283.79 21.0046 282.877 21.2329 281.507 21.2329C280.365 21.2329 279.224 21.0046 278.539 20.5479C277.626 20.0913 276.941 19.6347 276.256 18.9498C275.571 18.2648 275.114 17.3516 274.886 16.4384C274.658 15.5251 274.429 14.3836 274.429 13.4703C274.429 12.3288 274.658 11.4155 274.886 10.5023ZM277.397 15.9817C277.626 16.6667 277.854 17.3516 278.311 17.8082C278.767 18.2648 279.224 18.7215 279.68 18.9498C280.137 19.1781 280.822 19.4064 281.507 19.4064C282.192 19.4064 282.648 19.1781 283.333 18.9498C283.79 18.7215 284.475 18.2648 284.703 17.8082C285.16 17.3516 285.388 16.6667 285.616 15.9817C285.845 15.2968 286.073 14.3836 286.073 13.6986C286.073 12.7854 285.845 12.1005 285.616 11.4155C285.388 10.7306 285.16 10.0457 284.703 9.58904C284.247 9.13242 283.79 8.6758 283.333 8.44749C282.877 8.21918 282.192 7.99087 281.507 7.99087C280.822 7.99087 280.365 8.21918 279.68 8.44749C279.224 8.6758 278.539 9.13242 278.311 9.58904C277.854 10.0457 277.626 10.7306 277.397 11.4155C277.169 12.1005 276.941 13.0137 276.941 13.6986C277.169 14.3836 277.169 15.2968 277.397 15.9817Z" fill="#231F20"/>
<path d="M294.064 6.16438V8.44749C295.206 6.84932 296.804 5.93607 298.858 5.93607C299.772 5.93607 300.685 6.16438 301.37 6.621C302.055 7.07763 302.74 7.76256 302.968 8.6758C303.425 7.76256 304.11 7.30594 305.023 6.84932C305.936 6.39269 306.621 6.16438 307.763 6.16438C308.448 6.16438 309.132 6.16438 309.817 6.39269C310.502 6.621 310.959 6.84931 311.416 7.07763C311.872 7.30594 312.1 7.76256 312.329 8.44749C312.557 8.90411 312.785 9.58904 312.785 10.5023V21.2329H310.274V11.1872C310.274 10.7306 310.274 10.274 310.274 9.81735C310.274 9.36073 310.046 9.13242 309.817 8.6758C309.589 8.44749 309.361 8.21918 308.904 7.99087C308.448 7.76256 307.991 7.76256 307.534 7.76256C306.393 7.76256 305.479 7.99087 304.795 8.90411C304.11 9.58904 303.881 10.5023 303.881 11.6438V20.7763H301.37V11.1872C301.37 10.7306 301.37 10.274 301.142 9.81735C301.142 9.36073 300.913 9.13242 300.685 8.6758C300.457 8.44749 300.228 8.21918 299.772 7.99087C299.315 7.76256 298.858 7.76256 298.402 7.76256C297.717 7.76256 297.032 7.99087 296.575 8.21918C296.119 8.44749 295.662 8.90411 295.434 9.36073C295.205 9.81735 294.977 10.274 294.749 10.5023C294.521 10.9589 294.521 11.1872 294.521 11.6438V20.7763H292.009V6.16438H294.064Z" fill="#231F20"/>
<path d="M318.493 0.456621V7.99087C318.95 7.07763 319.406 6.621 320.32 6.16438C321.233 5.70776 322.146 5.70776 323.059 5.70776C324.201 5.70776 325.114 5.93607 326.027 6.39269C326.941 6.84932 327.626 7.30594 328.082 7.99087C328.539 8.6758 328.995 9.58904 329.452 10.5023C329.68 11.4155 329.909 12.3288 329.909 13.4703C329.909 14.6119 329.68 15.5251 329.452 16.4384C329.224 17.3516 328.767 18.2648 328.311 18.9498C327.854 19.6347 326.941 20.0913 326.256 20.5479C325.342 21.0046 324.429 21.2329 323.288 21.2329C322.831 21.2329 322.603 21.2329 322.146 21.2329C321.69 21.2329 321.233 21.0046 320.776 20.7763C320.32 20.5479 319.863 20.3196 319.635 20.0913C319.178 19.863 318.95 19.4064 318.722 18.9498V21.0046H316.21V0.456621H318.493ZM327.397 11.4155C327.169 10.7306 326.941 10.274 326.484 9.58904C326.027 9.13242 325.571 8.6758 325.114 8.44749C324.429 8.21918 323.744 7.99087 323.059 7.99087C322.146 7.99087 321.461 8.21918 321.005 8.44749C320.548 8.6758 319.863 9.13242 319.635 9.81735C319.178 10.274 318.95 10.9589 318.95 11.6438C318.721 12.3288 318.722 13.0137 318.722 13.6986C318.722 14.3836 318.721 15.0685 318.95 15.7534C319.178 16.4384 319.406 17.1233 319.863 17.5799C320.32 18.0365 320.776 18.4932 321.233 18.7215C321.918 18.9498 322.603 19.1781 323.288 19.1781C323.973 19.1781 324.886 18.9498 325.343 18.7215C325.799 18.4932 326.256 18.0365 326.712 17.3516C326.941 16.895 327.397 16.21 327.397 15.5251C327.626 14.8402 327.626 14.1553 327.626 13.4703C327.626 12.7854 327.397 12.1005 327.397 11.4155Z" fill="#231F20"/>
<path d="M344.292 21.2329C343.607 21.2329 343.151 21.0046 342.694 20.7763C342.238 20.3196 342.237 19.863 342.237 18.9498C341.553 19.863 340.868 20.3196 339.954 20.7763C339.041 21.2329 338.128 21.2329 336.986 21.2329C336.301 21.2329 335.616 21.2329 335.16 21.0046C334.475 20.7763 334.018 20.5479 333.562 20.3196C333.105 20.0913 332.877 19.6347 332.42 18.9498C331.964 18.2648 331.964 17.8082 331.964 17.1233C331.964 16.21 332.192 15.5251 332.42 15.0685C332.648 14.6119 333.105 14.1553 333.562 13.6986C334.018 13.4703 334.475 13.0137 335.16 13.0137C335.845 12.7854 336.301 12.7854 336.986 12.5571C337.671 12.3288 338.356 12.3288 338.813 12.3288C339.498 12.3288 339.954 12.1005 340.411 12.1005C340.868 11.8721 341.324 11.8721 341.553 11.6438C341.781 11.4155 342.009 10.9589 342.009 10.5023C342.009 10.0457 342.009 9.58904 341.781 9.13242C341.553 8.90411 341.324 8.44749 341.096 8.44749C340.868 8.21918 340.411 8.21918 339.954 8.21918C339.498 8.21918 339.269 8.21918 338.813 8.21918C337.671 8.21918 336.986 8.44749 336.301 8.90411C335.616 9.36073 335.16 10.0457 335.16 11.1872H332.648C332.648 10.274 332.877 9.58904 333.333 8.90411C333.79 8.21918 334.018 7.76256 334.703 7.30594C335.16 6.84932 335.845 6.621 336.758 6.39269C337.443 6.16438 338.356 6.16438 339.041 6.16438C339.726 6.16438 340.411 6.16438 341.096 6.39269C341.781 6.39269 342.237 6.621 342.922 7.07763C343.379 7.30594 343.836 7.76256 344.292 8.21918C344.521 8.6758 344.749 9.36073 344.749 10.274V17.8082C344.749 18.4932 344.749 18.7215 344.749 19.1781C344.749 19.4064 344.977 19.6347 345.434 19.6347C345.662 19.6347 345.89 19.6347 346.119 19.4064V21.2329C345.662 21.0046 345.206 21.2329 344.292 21.2329ZM340.868 13.6986C340.411 13.6986 339.954 13.9269 339.269 13.9269C338.813 13.9269 338.128 14.1553 337.671 14.1553C337.215 14.1553 336.53 14.3836 336.301 14.6119C335.845 14.8402 335.616 15.0685 335.16 15.5251C334.932 15.9817 334.703 16.4384 334.703 16.895C334.703 17.3516 334.703 17.5799 334.932 17.8082C335.16 18.0365 335.388 18.2648 335.616 18.4932C335.845 18.7215 336.073 18.7215 336.53 18.9498C336.986 18.9498 337.215 19.1781 337.671 19.1781C338.356 19.1781 339.041 19.1781 339.726 18.9498C340.411 18.7215 340.868 18.4931 341.096 18.0365C341.553 17.8082 341.781 17.3516 341.781 16.895C342.009 16.4384 342.009 16.21 342.009 15.7534V13.242C341.781 13.4703 341.324 13.6986 340.868 13.6986Z" fill="#231F20"/>
<path d="M354.566 6.16438V8.21918H351.598V17.3516C351.598 17.5799 351.598 17.8082 351.598 18.0365C351.598 18.2648 351.827 18.2648 351.827 18.4932C352.055 18.4932 352.055 18.7215 352.283 18.7215C352.511 18.7215 352.74 18.7215 353.196 18.7215H354.338V20.7763H352.511C351.826 20.7763 351.37 20.7763 350.913 20.5479C350.457 20.5479 350 20.3196 349.772 20.0913C349.543 19.863 349.315 19.6347 349.087 19.1781C349.315 18.9498 349.315 18.2648 349.315 17.5799V8.21918H346.804V6.16438H349.315V1.59817H351.827V5.93607H354.566V6.16438Z" fill="#231F20"/>
<path d="M363.699 6.16438V8.21918H360.731V17.3516C360.731 17.5799 360.731 17.8082 360.731 18.0365C360.731 18.2648 360.959 18.2648 360.959 18.4932C361.187 18.4932 361.187 18.7215 361.416 18.7215C361.644 18.7215 361.872 18.7215 362.329 18.7215H363.47V20.7763H361.644C360.959 20.7763 360.502 20.7763 360.046 20.5479C359.589 20.5479 359.132 20.3196 358.904 20.0913C358.676 19.863 358.448 19.6347 358.219 19.1781C357.991 18.7215 357.991 18.2648 357.991 17.5799V8.21918H355.479V6.16438H357.991V1.59817H360.502V5.93607H363.699V6.16438Z" fill="#231F20"/>
<path d="M377.626 21.2329C376.941 21.2329 376.484 21.0046 376.027 20.7763C375.571 20.3196 375.571 19.863 375.571 18.9498C374.886 19.863 374.201 20.3196 373.288 20.7763C372.374 21.2329 371.461 21.2329 370.32 21.2329C369.635 21.2329 368.95 21.2329 368.493 21.0046C367.808 20.7763 367.352 20.5479 366.895 20.3196C366.438 20.0913 366.21 19.6347 365.753 18.9498C365.525 18.4932 365.297 17.8082 365.297 17.1233C365.297 16.21 365.525 15.5251 365.753 15.0685C365.982 14.6119 366.438 14.1553 366.895 13.6986C367.352 13.4703 367.808 13.0137 368.493 13.0137C369.178 12.7854 369.635 12.7854 370.32 12.5571C371.005 12.3288 371.69 12.3288 372.146 12.3288C372.831 12.3288 373.288 12.1005 373.744 12.1005C374.201 11.8721 374.658 11.8721 374.886 11.6438C375.114 11.4155 375.342 10.9589 375.342 10.5023C375.342 10.0457 375.342 9.58904 375.114 9.13242C374.886 8.90411 374.658 8.44749 374.429 8.44749C374.201 8.21918 373.744 8.21918 373.288 8.21918C372.831 8.21918 372.603 8.21918 372.146 8.21918C371.233 8.21918 370.32 8.44749 369.635 8.90411C368.95 9.36073 368.493 10.0457 368.493 11.1872H365.982C365.982 10.274 366.21 9.58904 366.667 8.90411C367.123 8.21918 367.352 7.76256 368.037 7.30594C368.721 6.84932 369.178 6.621 370.091 6.39269C370.776 6.16438 371.69 6.16438 372.374 6.16438C373.059 6.16438 373.744 6.16438 374.429 6.39269C375.114 6.39269 375.571 6.621 376.256 7.07763C376.712 7.30594 377.169 7.76256 377.626 8.21918C377.854 8.6758 378.082 9.36073 378.082 10.274V17.8082C378.082 18.4932 378.082 18.7215 378.082 19.1781C378.082 19.4064 378.31 19.6347 378.767 19.6347C378.995 19.6347 379.224 19.6347 379.452 19.4064V21.2329C378.995 21.0046 378.539 21.2329 377.626 21.2329ZM374.201 13.6986C373.744 13.6986 373.288 13.9269 372.603 13.9269C372.146 13.9269 371.461 14.1553 371.005 14.1553C370.548 14.1553 369.863 14.3836 369.635 14.6119C369.178 14.8402 368.95 15.0685 368.493 15.5251C368.265 15.9817 368.037 16.4384 368.037 16.895C368.037 17.3516 368.037 17.5799 368.265 17.8082C368.493 18.0365 368.721 18.2648 368.95 18.4932C369.178 18.7215 369.406 18.7215 369.863 18.9498C370.32 18.9498 370.548 19.1781 371.005 19.1781C371.69 19.1781 372.374 19.1781 373.059 18.9498C373.744 18.7215 374.201 18.4931 374.429 18.0365C374.886 17.8082 375.114 17.3516 375.114 16.895C375.342 16.4384 375.342 16.21 375.342 15.7534V13.242C375.114 13.4703 374.886 13.6986 374.201 13.6986Z" fill="#231F20"/>
<path d="M384.018 6.16438V8.44749C384.932 6.621 386.53 5.70776 388.813 5.70776C389.726 5.70776 390.639 5.93607 391.324 6.16438C392.009 6.39269 392.466 6.84932 392.922 7.30594C393.379 7.76256 393.607 8.44749 393.836 8.90411C394.064 9.58904 394.064 10.274 394.064 11.1872V21.0046H391.553V10.9589C391.553 10.0457 391.324 9.36073 390.639 8.90411C390.183 8.44749 389.269 7.99087 388.356 7.99087C387.671 7.99087 386.986 8.21918 386.53 8.21918C386.073 8.21918 385.616 8.6758 385.16 9.13242C384.703 9.58904 384.475 10.0457 384.247 10.5023C384.018 10.9589 384.018 11.6438 384.018 12.3288V20.5479H381.507V6.16438H384.018Z" fill="#231F20"/>
<path d="M403.881 6.16438V8.21918H400.913V17.3516C400.913 17.5799 400.913 17.8082 400.913 18.0365C400.913 18.2648 401.142 18.2648 401.142 18.4932C401.37 18.4932 401.37 18.7215 401.598 18.7215C401.827 18.7215 402.055 18.7215 402.511 18.7215H403.653V20.7763H401.827C401.142 20.7763 400.685 20.7763 400.228 20.5479C399.772 20.5479 399.315 20.3196 399.087 20.0913C398.858 19.863 398.63 19.6347 398.402 19.1781C398.174 18.7215 398.174 18.2648 398.174 17.5799V8.21918H395.662V6.16438H398.174V1.59817H400.685V5.93607H403.881V6.16438Z" fill="#231F20"/>
<path d="M408.448 17.5799C408.676 18.0365 408.904 18.2648 409.361 18.4932C409.817 18.7215 410.046 18.9498 410.731 18.9498C411.187 18.9498 411.644 19.1781 412.1 19.1781C412.557 19.1781 412.785 19.1781 413.242 19.1781C413.699 19.1781 414.155 18.9498 414.384 18.9498C414.612 18.9498 415.069 18.4932 415.297 18.2648C415.525 18.0365 415.753 17.5799 415.753 17.1233C415.753 16.4384 415.525 15.9817 415.069 15.7534C414.612 15.5251 413.927 15.0685 413.242 15.0685C412.557 14.8402 411.644 14.6119 410.959 14.6119C410.046 14.3836 409.361 14.1553 408.676 13.9269C407.991 13.6986 407.306 13.242 406.849 12.7854C406.393 12.3288 406.164 11.4155 406.164 10.5023C406.164 9.81735 406.393 9.13242 406.621 8.6758C406.849 8.21918 407.306 7.76256 407.991 7.30594C408.448 7.07763 409.132 6.621 409.817 6.621C410.502 6.39269 411.187 6.39269 411.872 6.39269C412.785 6.39269 413.47 6.39269 414.155 6.621C414.84 6.84932 415.525 7.07763 415.982 7.30594C416.438 7.76256 416.895 8.21918 417.352 8.6758C417.58 9.36073 417.808 10.0457 418.037 10.9589H415.525C415.525 10.5023 415.297 10.0457 415.069 9.81735C414.84 9.58904 414.612 9.36073 414.155 9.13242C413.699 8.90411 413.47 8.90411 413.014 8.6758C412.557 8.6758 412.329 8.44749 411.872 8.44749C411.416 8.44749 411.187 8.44749 410.731 8.44749C410.274 8.44749 410.046 8.6758 409.817 8.6758C409.589 8.90411 409.361 8.90411 409.132 9.36073C408.904 9.58904 408.904 9.81735 408.904 10.274C408.904 10.7306 409.132 10.9589 409.361 11.4155C409.589 11.6438 410.046 11.8721 410.502 12.1005C410.959 12.3288 411.416 12.3288 412.1 12.5571C412.785 12.7854 413.242 12.7854 413.927 13.0137C414.612 13.242 415.069 13.242 415.753 13.4703C416.438 13.6986 416.895 13.9269 417.352 14.1553C417.808 14.3836 418.265 14.8402 418.493 15.2968C418.721 15.7534 418.95 16.4384 418.95 17.1233C418.95 18.0365 418.721 18.7215 418.493 19.4064C418.037 20.0913 417.58 20.5479 417.123 20.7763C416.667 21.0046 415.753 21.4612 415.069 21.4612C414.384 21.6895 413.47 21.6895 412.785 21.6895C411.872 21.6895 411.187 21.6895 410.502 21.4612C409.817 21.2329 409.132 21.0046 408.448 20.5479C407.763 20.0913 407.306 19.6347 407.078 18.9498C406.621 18.2648 406.621 17.5799 406.393 16.6667H408.904C407.991 16.6667 408.219 17.1233 408.448 17.5799Z" fill="#231F20"/>
<path d="M157.763 31.9635C156.621 31.2785 155.479 30.8219 154.11 30.8219C152.968 30.8219 151.826 31.0502 150.913 31.5068C150 31.9635 149.315 32.6484 148.858 33.3333C148.402 34.0183 147.945 34.9315 147.717 36.0731C147.489 36.9863 147.26 38.1279 147.26 39.2694C147.26 40.411 147.489 41.5525 147.717 42.4658C147.945 43.6073 148.402 44.5205 148.858 45.2055C149.315 45.8904 150.228 46.5753 150.913 47.032C151.826 47.4886 152.74 47.7169 154.11 47.7169C155.023 47.7169 155.708 47.4886 156.393 47.2603C157.078 47.032 157.763 46.5753 158.219 46.1187C158.676 45.6621 159.132 44.9772 159.361 44.2922C159.589 43.6073 159.817 42.6941 159.817 42.0091H162.557C162.329 44.5205 161.416 46.5753 159.817 47.9452C158.219 49.3151 156.164 50 153.653 50C152.055 50 150.685 49.7717 149.543 49.0868C148.402 48.6301 147.489 47.7169 146.575 46.8037C145.89 45.8904 145.205 44.7489 144.749 43.379C144.292 42.0091 144.064 40.6393 144.064 39.2694C144.064 37.6712 144.292 36.3014 144.749 35.1598C145.205 33.79 145.89 32.6484 146.575 31.7352C147.489 30.8219 148.402 29.9087 149.543 29.4521C150.685 28.9954 152.055 28.5388 153.653 28.5388C154.795 28.5388 155.708 28.7671 156.621 28.9954C157.534 29.2237 158.447 29.6804 159.132 30.137C159.817 30.5936 160.502 31.2785 160.959 32.1918C161.416 33.105 161.872 34.0183 161.872 35.1598H159.817C159.589 33.79 158.904 32.6484 157.763 31.9635Z" fill="#231F20"/>
<path d="M177.169 49.7717C176.484 49.7717 176.027 49.5434 175.571 49.3151C175.114 48.8585 175.114 48.4018 175.114 47.4886C174.429 48.4018 173.744 48.8585 172.831 49.3151C171.918 49.7717 171.005 49.7717 169.863 49.7717C169.178 49.7717 168.493 49.7717 168.037 49.5434C167.352 49.3151 166.895 49.0868 166.438 48.8584C165.982 48.6301 165.753 48.1735 165.297 47.4886C165.069 47.032 164.84 46.347 164.84 45.6621C164.84 44.7489 165.069 44.0639 165.297 43.6073C165.525 43.1507 165.982 42.6941 166.438 42.2374C166.895 42.0091 167.352 41.5525 168.037 41.5525C168.721 41.3242 169.178 41.3242 169.863 41.0959C170.548 40.8676 171.233 40.8676 171.689 40.8676C172.374 40.8676 172.831 40.6393 173.288 40.6393C173.744 40.411 174.201 40.411 174.429 40.1827C174.658 39.9543 174.886 39.4977 174.886 39.0411C174.886 38.5845 174.886 38.1279 174.658 37.6712C174.429 37.4429 174.201 36.9863 173.973 36.9863C173.516 36.758 173.059 36.5297 172.831 36.5297C172.374 36.5297 172.146 36.5297 171.689 36.5297C170.776 36.5297 169.863 36.758 169.178 37.2146C168.493 37.6712 168.037 38.3562 168.037 39.4977H165.525C165.525 38.5845 165.753 37.8995 166.21 37.2146C166.667 36.5297 167.123 36.0731 167.58 35.6164C168.265 35.1598 168.721 34.9315 169.635 34.7032C170.32 34.4749 171.233 34.4749 171.918 34.4749C172.603 34.4749 173.288 34.4749 173.973 34.7032C174.658 34.7032 175.114 34.9315 175.799 35.3881C176.256 35.6164 176.712 36.0731 177.169 36.5297C177.397 36.9863 177.626 37.6712 177.626 38.5845V46.1187C177.626 46.8037 177.626 47.032 177.626 47.4886C177.626 47.7169 177.854 47.9452 178.311 47.9452C178.539 47.9452 178.767 47.9452 178.995 47.7169V49.5434C178.311 49.5434 177.854 49.7717 177.169 49.7717ZM173.744 42.2374C173.288 42.2374 172.831 42.4658 172.146 42.4658C171.461 42.4658 171.005 42.6941 170.548 42.6941C170.091 42.6941 169.406 42.9224 169.178 43.1507C168.721 43.379 168.493 43.6073 168.037 44.0639C167.808 44.5205 167.58 44.9772 167.58 45.4338C167.58 45.8904 167.58 46.1187 167.808 46.347C168.037 46.5753 168.265 46.8037 168.493 47.032C168.721 47.2603 168.95 47.2603 169.406 47.4886C169.863 47.4886 170.091 47.4886 170.548 47.4886C171.233 47.4886 171.918 47.4886 172.603 47.2603C173.059 47.032 173.744 46.8037 173.973 46.347C174.201 45.8904 174.658 45.6621 174.658 45.2055C174.886 44.7489 174.886 44.5205 174.886 44.0639V41.5525C174.658 42.0091 174.201 42.2374 173.744 42.2374Z" fill="#231F20"/>
<path d="M183.333 34.7032V36.9863C184.247 35.1598 185.845 34.2466 188.128 34.2466C189.041 34.2466 189.954 34.4749 190.639 34.7032C191.324 34.9315 191.781 35.3881 192.237 35.8447C192.694 36.3014 192.922 36.9863 193.151 37.4429C193.379 38.1279 193.379 38.8128 193.379 39.726V49.5434H190.868V39.4977C190.868 38.5845 190.639 37.8995 189.954 37.4429C189.498 36.9863 188.584 36.5297 187.671 36.5297C186.986 36.5297 186.301 36.5297 185.845 36.9863C185.388 37.2146 184.932 37.4429 184.475 37.8995C184.018 38.3562 183.79 38.8128 183.562 39.2694C183.333 39.726 183.333 40.411 183.333 41.0959V49.3151H180.822V34.4749H183.333V34.7032Z" fill="#231F20"/>
<path d="M208.219 49.7717C207.534 49.7717 207.078 49.5434 206.621 49.3151C206.164 48.8585 206.164 48.4018 206.164 47.4886C205.479 48.4018 204.795 48.8585 203.881 49.3151C202.968 49.7717 202.055 49.7717 200.913 49.7717C200.228 49.7717 199.543 49.7717 199.087 49.5434C198.402 49.3151 197.945 49.0868 197.489 48.8584C197.032 48.6301 196.804 48.1735 196.347 47.4886C196.119 47.032 195.89 46.347 195.89 45.6621C195.89 44.7489 196.119 44.0639 196.347 43.6073C196.575 43.1507 197.032 42.6941 197.489 42.2374C197.945 42.0091 198.402 41.5525 199.087 41.5525C199.772 41.3242 200.228 41.3242 200.913 41.0959C201.598 40.8676 202.283 40.8676 202.74 40.8676C203.425 40.8676 203.881 40.6393 204.338 40.6393C204.795 40.6393 205.251 40.411 205.479 40.1827C205.708 39.9543 205.936 39.4977 205.936 39.0411C205.936 38.5845 205.936 38.1279 205.708 37.6712C205.479 37.4429 205.251 36.9863 205.023 36.9863C204.795 36.9863 204.338 36.5297 204.11 36.5297C203.653 36.5297 203.425 36.5297 202.968 36.5297C202.055 36.5297 201.142 36.758 200.457 37.2146C199.772 37.6712 199.315 38.3562 199.315 39.4977H196.804C196.804 38.5845 197.032 37.8995 197.489 37.2146C197.717 36.5297 198.402 36.0731 198.858 35.6164C199.543 35.1598 200 34.9315 200.913 34.7032C201.598 34.4749 202.511 34.4749 203.196 34.4749C203.881 34.4749 204.566 34.4749 205.251 34.7032C205.936 34.7032 206.393 34.9315 207.078 35.3881C207.534 35.6164 207.991 36.0731 208.448 36.5297C208.676 36.9863 208.904 37.6712 208.904 38.5845V46.1187C208.904 46.8037 208.904 47.032 208.904 47.4886C208.904 47.7169 209.132 47.9452 209.589 47.9452C209.817 47.9452 210.046 47.9452 210.274 47.7169V49.5434C209.589 49.5434 209.132 49.7717 208.219 49.7717ZM204.795 42.2374C204.338 42.2374 203.881 42.4658 203.196 42.4658C202.511 42.4658 202.055 42.6941 201.598 42.6941C201.142 42.6941 200.457 42.9224 200.228 43.1507C199.772 43.379 199.543 43.6073 199.087 44.0639C198.858 44.5205 198.63 44.9772 198.63 45.4338C198.63 45.8904 198.63 46.1187 198.858 46.347C199.087 46.5753 199.315 46.8037 199.543 47.032C199.772 47.2603 200 47.2603 200.457 47.4886C200.913 47.4886 201.142 47.4886 201.598 47.4886C202.283 47.4886 202.968 47.4886 203.653 47.2603C204.11 47.032 204.795 46.8037 205.023 46.347C205.251 45.8904 205.708 45.6621 205.708 45.2055C205.936 44.7489 205.936 44.5205 205.936 44.0639V41.5525C205.708 42.0091 205.479 42.2374 204.795 42.2374Z" fill="#231F20"/>
<path d="M223.059 49.5434V47.4886C222.603 48.4018 221.918 48.8584 221.233 49.3151C220.32 49.7717 219.406 49.7717 218.493 49.7717C217.352 49.7717 216.438 49.5434 215.525 49.0868C214.612 48.6301 213.927 48.1735 213.47 47.4886C213.014 46.8037 212.557 45.8904 212.1 44.9772C211.872 44.0639 211.644 43.1507 211.644 42.0091C211.644 40.8676 211.872 39.9543 212.1 39.0411C212.329 38.1279 212.785 37.2146 213.242 36.5297C213.699 35.8447 214.612 35.3881 215.297 34.9315C216.21 34.4749 217.123 34.2466 218.265 34.2466C218.721 34.2466 218.95 34.2466 219.406 34.2466C219.863 34.2466 220.32 34.4749 220.776 34.7032C221.233 34.9315 221.689 35.1598 221.918 35.3881C222.374 35.6164 222.603 36.0731 222.831 36.5297V28.9954H225.342V49.3151H223.059V49.5434ZM214.384 44.2922C214.612 44.9772 214.84 45.4338 215.297 46.1187C215.753 46.5753 216.21 47.032 216.667 47.2603C217.352 47.4886 218.037 47.7169 218.721 47.7169C219.635 47.7169 220.32 47.4886 220.776 47.2603C221.461 47.032 221.918 46.5753 222.146 45.8904C222.603 45.4338 222.831 44.7489 222.831 44.0639C223.059 43.379 223.059 42.6941 223.059 42.0091C223.059 41.3242 223.059 40.6393 222.831 39.9543C222.603 39.2694 222.374 38.5845 221.918 38.1279C221.461 37.6712 221.005 37.2146 220.548 36.9863C219.863 36.758 219.178 36.5297 218.493 36.5297C217.58 36.5297 216.895 36.758 216.438 36.9863C215.982 37.2146 215.297 37.6712 215.068 38.3562C214.612 38.8128 214.384 39.4977 214.384 40.1827C214.155 40.8676 214.155 41.5525 214.155 42.2374C214.155 42.9224 214.155 43.6073 214.384 44.2922Z" fill="#231F20"/>
<path d="M240.639 49.7717C239.954 49.7717 239.498 49.5434 239.041 49.3151C238.584 48.8585 238.584 48.4018 238.584 47.4886C237.9 48.4018 237.215 48.8585 236.301 49.3151C235.388 49.7717 234.475 49.7717 233.333 49.7717C232.648 49.7717 231.963 49.7717 231.507 49.5434C230.822 49.3151 230.365 49.0868 229.909 48.8584C229.452 48.6301 229.224 48.1735 228.767 47.4886C228.311 46.8037 228.311 46.347 228.311 45.6621C228.311 44.7489 228.539 44.0639 228.767 43.6073C228.995 43.1507 229.452 42.6941 229.909 42.2374C230.365 42.0091 230.822 41.5525 231.507 41.5525C232.192 41.3242 232.648 41.3242 233.333 41.0959C234.018 40.8676 234.703 40.8676 235.16 40.8676C235.845 40.8676 236.301 40.6393 236.758 40.6393C237.215 40.411 237.671 40.411 237.9 40.1827C238.128 39.9543 238.356 39.4977 238.356 39.0411C238.356 38.5845 238.356 38.1279 238.128 37.6712C237.9 37.4429 237.671 36.9863 237.443 36.9863C237.215 36.758 236.758 36.758 236.301 36.5297C235.845 36.5297 235.616 36.5297 235.16 36.5297C234.247 36.5297 233.333 36.758 232.648 37.2146C231.963 37.6712 231.507 38.3562 231.507 39.4977H228.995C228.995 38.5845 229.224 37.8995 229.68 37.2146C230.137 36.5297 230.594 36.0731 231.05 35.6164C231.507 35.1598 232.192 34.9315 233.105 34.7032C233.79 34.4749 234.703 34.4749 235.388 34.4749C236.073 34.4749 236.758 34.4749 237.443 34.7032C238.128 34.7032 238.584 34.9315 239.269 35.3881C239.726 35.6164 240.183 36.0731 240.639 36.5297C240.868 36.9863 241.096 37.6712 241.096 38.5845V46.1187C241.096 46.8037 241.096 47.032 241.096 47.4886C241.096 47.7169 241.324 47.9452 241.781 47.9452C242.009 47.9452 242.237 47.9452 242.466 47.7169V49.5434C242.009 49.5434 241.324 49.7717 240.639 49.7717ZM237.215 42.2374C236.758 42.2374 236.301 42.4658 235.616 42.4658C234.932 42.4658 234.475 42.6941 234.018 42.6941C233.562 42.6941 232.877 42.9224 232.648 43.1507C232.192 43.379 231.963 43.6073 231.507 44.0639C231.279 44.5205 231.05 44.9772 231.05 45.4338C231.05 45.8904 231.05 46.1187 231.279 46.347C231.507 46.5753 231.735 46.8037 231.963 47.032C232.192 47.2603 232.42 47.2603 232.877 47.4886C233.333 47.4886 233.562 47.4886 234.018 47.4886C234.703 47.4886 235.388 47.4886 236.073 47.2603C236.53 47.032 237.215 46.8037 237.443 46.347C237.9 46.1187 238.128 45.6621 238.128 45.2055C238.356 44.7489 238.356 44.5205 238.356 44.0639V41.5525C238.128 42.0091 237.671 42.2374 237.215 42.2374Z" fill="#231F20"/>
<path d="M0 0H24.4292V49.5434H0V0Z" fill="#EE3E42"/>
<path d="M78.3105 0H102.74V49.5434H78.3105V0Z" fill="#EE3E42"/>
<path d="M47.9452 10.274L51.3699 3.19635L54.7945 10.0457C55.2511 10.7306 55.4795 10.7306 56.1644 10.274L59.3607 8.90411L57.5343 18.4932C57.0776 20.3196 58.2192 21.0046 59.3607 19.6347L63.6986 15.0685L64.8402 17.5799C64.8402 18.4932 65.5251 18.2648 66.21 18.2648L70.5479 17.3516L69.1781 22.8311V23.0594C68.9498 23.7443 68.7215 24.4292 69.4064 24.6575L71.0046 25.3425L62.1005 32.8767C61.1872 33.79 61.4155 34.0183 61.8722 35.1598L62.7854 37.6712L54.3379 36.0731C53.1963 35.8448 52.5114 35.8448 52.5114 36.758L52.968 46.347H50.2283L50.6849 36.758C50.6849 35.8448 50 35.8448 48.1735 36.0731L40.411 37.6712L41.3242 35.1598C41.7808 34.2466 41.7808 33.5616 40.8676 32.8767L31.7352 25.3425L33.3333 24.2009C33.79 23.7443 33.79 23.516 33.5616 22.6027L31.9635 17.1233L36.5297 18.0365C37.6712 18.2648 38.1279 18.0365 38.3562 17.3516L39.4977 14.8402L43.8356 19.863C44.5206 20.7763 45.6621 20.0913 45.4338 18.9498L43.379 8.44749L46.5753 10.274C47.2603 10.7306 47.7169 10.7306 47.9452 10.274Z" fill="#EE3E42"/>
</g>
<defs>
<clipPath id="clip0_3_55">
<rect width="655.708" height="50" fill="white"/>
</clipPath>
</defs>
</svg>