<?xml version="1.0" encoding="UTF-8"?>
<svg id="Layer_1" xmlns="http://www.w3.org/2000/svg" version="1.1" viewBox="0 0 100 100">
  <!-- Generator: Adobe Illustrator 29.1.0, SVG Export Plug-In . SVG Version: 2.1.0 Build 142)  -->
  <defs>
    <style>
      .st0 {
        fill: #1c4075;
      }

      .st1 {
        fill: #fff;
      }
    </style>
  </defs>
  <path class="st0" d="M91.64,41.93c-.2,0-.41,0-.61.02-1.43-3.28-4.69-5.57-8.49-5.57h-2.83v-1.62c.44-.5.82-1.05,1.14-1.62.65-.18,1.28-.45,1.89-.8,3.98-2.3,5.34-7.4,3.05-11.38-2.3-3.98-7.4-5.34-11.38-3.05-.61.35-1.16.77-1.65,1.24-.66-.01-1.32.05-1.97.18l-1.7-.98c-1.7-.97-3.78-1.04-5.55-.19-.15-1.94-1.25-3.72-2.97-4.72l-1.68-.97c-.22-.63-.49-1.24-.83-1.8.17-.65.25-1.34.25-2.04,0-4.59-3.74-8.33-8.33-8.33s-8.33,3.74-8.33,8.33c0,.7.09,1.39.25,2.04-.34.56-.62,1.17-.83,1.8l-1.69.98c-1.71.99-2.81,2.77-2.96,4.71-1.76-.85-3.85-.78-5.57.21l-1.68.97c-.66-.13-1.32-.19-1.98-.18-.48-.47-1.03-.89-1.64-1.24h0c-3.98-2.3-9.08-.93-11.38,3.05-1.11,1.93-1.41,4.17-.83,6.32.58,2.15,1.95,3.94,3.88,5.06.61.35,1.24.61,1.88.79.32.59.71,1.13,1.15,1.63v1.62h-2.83c-3.8,0-7.06,2.3-8.49,5.57-.2-.01-.4-.02-.61-.02C3.77,41.93.03,45.67.03,50.26s3.74,8.33,8.33,8.33c.2,0,.41,0,.61-.02,1.43,3.28,4.69,5.57,8.49,5.57h2.83v1.62c-.44.5-.83,1.04-1.15,1.63-.65.19-1.28.45-1.89.8-1.93,1.11-3.3,2.91-3.88,5.06-.58,2.15-.28,4.39.83,6.32,1.11,1.93,2.91,3.3,5.06,3.88.72.19,1.45.29,2.17.29,1.44,0,2.87-.38,4.15-1.12.61-.35,1.16-.77,1.64-1.24.05,0,.1,0,.15,0,.61,0,1.22-.06,1.82-.18l1.67.97c.92.53,1.96.8,2.99.8.89,0,1.77-.2,2.59-.59.15,1.96,1.26,3.74,2.96,4.72l1.68.97c.22.63.49,1.24.83,1.8-.17.65-.25,1.34-.25,2.04,0,4.59,3.74,8.33,8.33,8.33s8.33-3.74,8.33-8.33c0-.7-.09-1.39-.25-2.04.34-.56.62-1.17.83-1.8l1.68-.97c1.71-.99,2.82-2.77,2.97-4.72.82.39,1.71.59,2.59.59,1.03,0,2.06-.27,2.98-.8l1.68-.97c.6.12,1.22.18,1.82.18.05,0,.1,0,.15,0,.48.47,1.03.89,1.64,1.24,1.31.76,2.74,1.11,4.15,1.11,2.88,0,5.69-1.49,7.23-4.16,2.3-3.98.93-9.08-3.05-11.38h0c-.61-.35-1.24-.62-1.9-.8-.32-.57-.7-1.12-1.14-1.62v-1.62h2.83c3.8,0,7.06-2.3,8.49-5.57.2.01.4.02.61.02,4.59,0,8.33-3.74,8.33-8.33s-3.74-8.33-8.33-8.33Z"/>
  <path class="st1" d="M91.64,42.86c-.41,0-.82.03-1.21.1-1.12-3.28-4.23-5.65-7.89-5.65h-3.75v-2.91c.59-.62,1.07-1.31,1.44-2.06.71-.16,1.4-.42,2.06-.8,3.54-2.04,4.75-6.58,2.71-10.11-2.04-3.53-6.58-4.75-10.11-2.71-.66.38-1.24.85-1.73,1.38-.83-.05-1.68.02-2.51.22-.05-.03-.11-.07-.16-.1l-1.84-1.06c-1.54-.88-3.46-.88-5.02.01l-.97.56v-1.12c0-1.79-.96-3.46-2.52-4.37l-1.8-1.04c-.06-.04-.12-.07-.18-.1-.24-.82-.6-1.59-1.06-2.28.21-.69.33-1.43.33-2.19,0-4.08-3.32-7.4-7.4-7.4s-7.4,3.32-7.4,7.4c0,.76.12,1.5.33,2.19-.46.7-.82,1.46-1.06,2.28-.06.03-.11.06-.17.09l-1.83,1.06c-1.55.9-2.51,2.57-2.51,4.36v1.12l-.98-.57c-1.55-.89-3.47-.89-5.03,0l-1.81,1.05c-.06.03-.11.07-.17.11-.83-.2-1.67-.27-2.51-.22-.5-.54-1.08-1-1.73-1.38h0c-3.53-2.04-8.07-.83-10.11,2.71-.99,1.71-1.25,3.71-.74,5.62.51,1.91,1.74,3.51,3.45,4.5.66.38,1.35.64,2.06.8.37.75.85,1.44,1.44,2.06v2.91h-3.75c-3.66,0-6.77,2.37-7.89,5.65-.39-.07-.8-.1-1.21-.1-4.08,0-7.4,3.32-7.4,7.4s3.32,7.4,7.4,7.4c.41,0,.82-.03,1.21-.1,1.12,3.28,4.23,5.65,7.89,5.65h3.75v2.9c-.58.61-1.07,1.3-1.45,2.06-.71.16-1.4.43-2.05.81-1.71.99-2.94,2.59-3.45,4.5-.51,1.91-.25,3.91.74,5.62.99,1.71,2.58,2.94,4.49,3.45.64.17,1.28.26,1.93.26,1.28,0,2.55-.34,3.69-1,.66-.38,1.24-.85,1.73-1.38.18.01.35.02.53.02.66,0,1.33-.08,1.98-.24.05.03.11.07.16.1l1.8,1.04c.79.46,1.67.69,2.55.69s1.74-.23,2.51-.68l.97-.56v1.12c0,1.8.97,3.48,2.52,4.37l1.83,1.06c.05.03.11.06.16.08.24.82.6,1.59,1.06,2.28-.21.69-.33,1.43-.33,2.19,0,4.08,3.32,7.4,7.4,7.4s7.4-3.32,7.4-7.4c0-.76-.12-1.5-.33-2.19.46-.7.82-1.46,1.06-2.28.06-.03.11-.06.17-.09l1.82-1.05c1.55-.9,2.52-2.57,2.52-4.37v-1.12l.96.55c.78.46,1.66.68,2.54.68s1.74-.23,2.52-.68l1.8-1.04c.06-.04.12-.07.18-.11.66.16,1.32.24,1.98.24.18,0,.35,0,.53-.02.49.53,1.07,1,1.73,1.38,1.14.66,2.41,1,3.69,1,.64,0,1.29-.08,1.93-.26,1.91-.51,3.51-1.74,4.5-3.45,2.04-3.54.83-8.07-2.71-10.11-.65-.38-1.35-.65-2.06-.81-.37-.74-.85-1.44-1.44-2.05v-2.91h3.75c3.66,0,6.77-2.37,7.89-5.65.39.07.8.1,1.21.1,4.08,0,7.4-3.32,7.4-7.4s-3.32-7.4-7.4-7.4Z"/>
  <path class="st0" d="M91.64,44.71c-.95,0-1.84.24-2.63.66-.14-3.45-2.99-6.21-6.47-6.21h-5.66v-5.51c.96-.8,1.66-1.84,2.04-2.98.83-.05,1.67-.29,2.44-.73,1.28-.74,2.2-1.94,2.59-3.37s.19-2.93-.55-4.21c-1.53-2.65-4.93-3.56-7.58-2.03-.76.44-1.39,1.04-1.85,1.75-1.21-.25-2.49-.16-3.69.31-.21-.22-.44-.41-.71-.56l-1.83-1.06c-.98-.56-2.19-.56-3.18,0l-3.75,2.17v-4.33c0-1.13-.61-2.19-1.6-2.76l-1.81-1.05c-.27-.16-.55-.27-.85-.34-.2-1.28-.76-2.43-1.58-3.35.37-.75.59-1.59.59-2.48,0-3.06-2.49-5.55-5.55-5.55s-5.55,2.49-5.55,5.55c0,.89.22,1.73.59,2.48-.82.93-1.38,2.08-1.58,3.35-.29.07-.57.18-.84.33l-1.83,1.05c-.98.57-1.59,1.63-1.59,2.76v4.33l-3.76-2.17c-.98-.56-2.2-.56-3.19,0l-1.81,1.05c-.27.15-.5.34-.71.56-1.2-.46-2.48-.55-3.69-.31-.47-.71-1.1-1.31-1.85-1.75h0c-2.65-1.53-6.05-.62-7.58,2.03-.74,1.28-.94,2.78-.55,4.21.38,1.43,1.3,2.63,2.59,3.37.77.45,1.61.68,2.44.73.38,1.14,1.07,2.18,2.04,2.98v5.51h-5.66c-3.48,0-6.33,2.76-6.47,6.21-.78-.42-1.68-.66-2.63-.66-3.06,0-5.55,2.49-5.55,5.55s2.49,5.55,5.55,5.55c.95,0,1.84-.24,2.63-.66.14,3.45,2.99,6.21,6.47,6.21h5.66v5.51c-.94.78-1.65,1.81-2.04,2.99-.85.05-1.68.29-2.44.73-1.28.74-2.2,1.94-2.59,3.37-.38,1.43-.19,2.93.55,4.21.74,1.28,1.94,2.2,3.37,2.59.48.13.96.19,1.45.19.96,0,1.91-.25,2.77-.75.76-.44,1.38-1.04,1.85-1.74.44.09.88.14,1.33.14.8,0,1.6-.15,2.37-.44.21.21.44.4.7.55l1.81,1.04c.5.29,1.06.44,1.61.44s1.1-.14,1.59-.43l3.75-2.17v4.33c0,1.14.61,2.2,1.6,2.76l1.83,1.06c.26.15.54.26.83.33.2,1.28.76,2.43,1.58,3.36-.37.75-.59,1.59-.59,2.48,0,3.06,2.49,5.55,5.55,5.55s5.55-2.49,5.55-5.55c0-.89-.22-1.73-.59-2.48.82-.93,1.38-2.08,1.58-3.36.29-.07.57-.18.84-.33l1.82-1.05c.98-.57,1.6-1.63,1.6-2.76v-4.33l3.74,2.16c.5.29,1.05.43,1.61.43s1.1-.14,1.59-.43l1.81-1.04c.27-.15.5-.34.71-.56.77.3,1.58.44,2.37.44.45,0,.89-.05,1.33-.14.47.71,1.09,1.31,1.85,1.74.87.5,1.83.74,2.77.74,1.92,0,3.79-1,4.82-2.77.74-1.28.94-2.78.55-4.21-.38-1.43-1.3-2.63-2.59-3.37-.76-.44-1.59-.68-2.44-.73-.38-1.14-1.07-2.18-2.04-2.98v-5.51h5.66c3.48,0,6.33-2.76,6.47-6.21.78.42,1.68.66,2.63.66,3.06,0,5.55-2.49,5.55-5.55s-2.49-5.55-5.55-5.55Z"/>
  <path class="st1" d="M51.79,24.18c.07-.04.54-.31,1.04-.6l.12-.07,1.8-1.04.12-.07,1.8-1.04.12-.07c.5-.29.9-.99.9-1.56v-.14c0-.57-.41-1.28-.9-1.56l-.12-.07c-.5-.29-1.31-.29-1.8,0l-.12.07c-.5.29-1.31.76-1.8,1.04l-.12.07-1.8,1.04-.12.07c-.5.29-1.31.29-1.8,0l-.12-.07-1.8-1.04-.12-.07c-.5-.29-1.31-.76-1.8-1.04l-.12-.07c-.5-.29-1.31-.29-1.8,0l-.12.07c-.5.29-.9.99-.9,1.56v.14c0,.57.41,1.28.9,1.56l.12.07,1.8,1.04.12.07,1.8,1.04.12.07c.5.29.96.56,1.04.6s.13.35.13.68,0,.6-.02.59-.4-.23-.87-.5-1.23-.71-1.7-.98-1.23-.27-1.7,0-.85.93-.85,1.47.38,1.2.85,1.47l1.7.98,1.7.98c.47.27.9.52.97.56s.12.33.12.65-.26.43-.58.24-.88-.51-1.24-.71-.95-.21-1.31,0-.66.72-.66,1.14.29.93.66,1.14l1.31.76,1.31.76,1.31.76c.36.21.95.21,1.31,0l1.31-.76,1.31-.76,1.31-.76c.36-.21.66-.72.66-1.14s-.29-.93-.66-1.14-.95-.21-1.31,0-.92.53-1.24.71-.58.07-.58-.24.05-.61.12-.65.5-.29.97-.56,1.23-.71,1.7-.98,1.23-.71,1.7-.98.85-.93.85-1.47-.38-1.2-.85-1.47-1.23-.27-1.7,0-1.23.71-1.7.98-.86.49-.87.5-.02-.26-.02-.59.06-.64.13-.68Z"/>
  <circle class="st1" cx="50" cy="15.49" r="3.55"/>
  <circle class="st1" cx="50" cy="8.62" r="2.47"/>
  <path class="st1" d="M73.57,34.37l-1.37-.79c-.15-.09-.4-.23-.56-.32l-1.37-.79c-.15-.09-.4-.23-.56-.32l-1.37-.79c-.15-.09-.28-.31-.28-.48v-6.04c0-.18-.13-.39-.28-.48l-1.37-.79c-.15-.09-.4-.09-.56,0l-1.37.79c-.15.09-.28.31-.28.48v6.67l-1.05.6v-1.67c0-.18,0-.48,0-.66v-1.3c0-.18-.13-.4-.28-.49l-1.13-.65c-.16-.09-.41-.09-.57,0l-1.13.65c-.16.09-.28.31-.28.49v5.82l-1,.58v-2.56c0-.16-.12-.36-.26-.44l-.8-.46c-.14-.08-.37-.08-.51,0l-.8.46c-.14.08-.26.28-.26.44v5.46c0,.16.12.36.26.44l.8.46c.14.08.37.21.51.3l.8.46c.14.08.37.21.51.3l.8.46c.14.08.37.21.51.3l.8.46c.14.08.37.08.51,0l.8-.46c.14-.08.26-.28.26-.44v-.92c0-.16-.12-.36-.26-.44l-.8-.46c-.14-.08-.37-.21-.51-.3l-.8-.46s-.07-.04-.11-.06l1-.58c.16.09.38.22.52.3l1.13.65c.16.09.41.24.57.33l1.13.65c.16.09.41.24.57.33l1.13.65c.16.09.41.09.57,0l1.13-.65c.16-.09.28-.31.28-.49v-1.3c0-.18-.13-.4-.28-.49l-1.13-.65c-.16-.09-.41-.24-.57-.33l-1.13-.65c-.09-.05-.21-.12-.32-.19l1.05-.6c.15.09.4.23.55.32l1.37.79c.15.09.4.23.56.32l1.37.79c.15.09.4.23.56.32l1.37.79c.15.09.4.09.56,0l1.37-.79c.15-.09.28-.31.28-.48v-1.58c0-.18-.13-.39-.28-.48Z"/>
  <circle class="st1" cx="72.64" cy="28.56" r="3.55"/>
  <circle class="st1" cx="78.59" cy="25.12" r="2.47"/>
  <path class="st1" d="M43.6,31.88l-.8-.46c-.14-.08-.37-.08-.51,0l-.8.46c-.14.08-.26.28-.26.44v2.56l-1-.58v-5.82c0-.18-.13-.4-.28-.49l-1.13-.65c-.16-.09-.41-.09-.57,0l-1.13.65c-.16.09-.28.31-.28.49v1.3c0,.18,0,.48,0,.66v1.3c0,.1,0,.24,0,.37l-1.05-.6v-6.67c0-.18-.13-.39-.28-.48l-1.37-.79c-.15-.09-.4-.09-.56,0l-1.37.79c-.15.09-.28.31-.28.48v6.04c0,.18-.13.39-.28.48l-1.37.79c-.15.09-.4.23-.56.32l-1.37.79c-.15.09-.4.23-.56.32l-1.37.79c-.15.09-.28.31-.28.48v1.58c0,.18.13.39.28.48l1.37.79c.15.09.4.09.56,0l1.37-.79c.15-.09.4-.23.56-.32l1.37-.79c.15-.09.4-.23.56-.32l1.37-.79c.15-.09.39-.23.55-.32l1.05.6c-.12.07-.24.14-.32.19l-1.13.65c-.16.09-.41.24-.57.33l-1.13.65c-.16.09-.28.31-.28.49v1.3c0,.18.13.4.28.49l1.13.65c.16.09.41.09.57,0l1.13-.65c.16-.09.41-.24.57-.33l1.13-.65c.16-.09.41-.24.57-.33l1.13-.65c.14-.08.36-.21.52-.3l1,.58s-.08.04-.11.06l-.8.46c-.14.08-.37.21-.51.3l-.8.46c-.14.08-.26.28-.26.44v.92c0,.16.12.36.26.44l.8.46c.14.08.37.08.51,0l.8-.46c.14-.08.37-.21.51-.3l.8-.46c.14-.08.37-.21.51-.3l.8-.46c.14-.08.37-.21.51-.3l.8-.46c.14-.08.26-.28.26-.44v-5.46c0-.16-.12-.36-.26-.44Z"/>
  <circle class="st1" cx="27.36" cy="28.56" r="3.55"/>
  <circle class="st1" cx="21.41" cy="25.12" r="2.47"/>
  <path class="st1" d="M57.43,79.6l-1.37-.79c-.15-.09-.4-.23-.56-.32l-1.37-.79c-.15-.09-.4-.23-.56-.32l-1.37-.79c-.15-.09-.39-.23-.55-.32v-1.21c.12.07.24.14.32.19l1.13.65c.16.09.41.24.57.33l1.13.65c.16.09.41.09.57,0l1.13-.65c.16-.09.28-.31.28-.49v-1.3c0-.18-.13-.4-.28-.49l-1.13-.65c-.16-.09-.41-.24-.57-.33l-1.13-.65c-.16-.09-.41-.24-.57-.33l-1.13-.65c-.14-.08-.36-.21-.52-.3v-1.16s.08.04.11.06l.8.46c.14.08.37.21.51.3l.8.46c.14.08.37.08.51,0l.8-.46c.14-.08.26-.28.26-.44v-.92c0-.16-.12-.36-.26-.44l-.8-.46c-.14-.08-.37-.21-.51-.3l-.8-.46c-.14-.08-.37-.21-.51-.3l-.8-.46c-.14-.08-.37-.21-.51-.3l-.8-.46c-.14-.08-.37-.08-.51,0l-.8.46c-.14.08-.37.21-.51.3l-.8.46c-.14.08-.37.21-.51.3l-.8.46c-.14.08-.37.21-.51.3l-.8.46c-.14.08-.26.28-.26.44v.92c0,.16.12.36.26.44l.8.46c.14.08.37.08.51,0l.8-.46c.14-.08.37-.21.51-.3l.8-.46s.07-.04.11-.06v1.16c-.16.09-.38.22-.52.3l-1.13.65c-.16.09-.41.24-.57.33l-1.13.65c-.16.09-.41.24-.57.33l-1.13.65c-.16.09-.28.31-.28.49v1.3c0,.18.13.4.28.49l1.13.65c.16.09.41.09.57,0l1.13-.65c.16-.09.41-.24.57-.33l1.13-.65c.09-.05.21-.12.32-.19v1.21c-.15.09-.4.23-.55.32l-1.37.79c-.15.09-.4.23-.56.32l-1.37.79c-.15.09-.4.23-.56.32l-1.37.79c-.15.09-.28.31-.28.48v1.58c0,.18.13.39.28.48l1.37.79c.15.09.4.09.56,0l1.37-.79c.15-.09.4-.23.56-.32l1.37-.79c.15-.09.4-.23.56-.32l1.37-.79c.15-.09.4-.09.56,0l1.37.79c.15.09.4.23.56.32l1.37.79c.15.09.4.23.56.32l1.37.79c.15.09.4.09.56,0l1.37-.79c.15-.09.28-.31.28-.48v-1.58c0-.18-.13-.39-.28-.48Z"/>
  <circle class="st1" cx="50" cy="85.04" r="3.55"/>
  <circle class="st1" cx="50" cy="91.9" r="2.47"/>
  <path class="st1" d="M73.57,63.6l-1.37-.79c-.15-.09-.4-.09-.56,0l-1.37.79c-.15.09-.4.23-.56.32l-1.37.79c-.15.09-.4.23-.56.32l-1.37.79c-.15.09-.39.23-.55.32l-1.05-.6c.12-.07.24-.14.32-.19l1.13-.65c.16-.09.41-.24.57-.33l1.13-.65c.16-.09.28-.31.28-.49v-1.3c0-.18-.13-.4-.28-.49l-1.13-.65c-.16-.09-.41-.09-.57,0l-1.13.65c-.16.09-.41.24-.57.33l-1.13.65c-.16.09-.41.24-.57.33l-1.13.65c-.14.08-.36.21-.52.3l-1-.58s.08-.04.11-.06l.8-.46c.14-.08.37-.21.51-.3l.8-.46c.14-.08.26-.28.26-.44v-.92c0-.16-.12-.36-.26-.44l-.8-.46c-.14-.08-.37-.08-.51,0l-.8.46c-.14.08-.37.21-.51.3l-.8.46c-.14.08-.37.21-.51.3l-.8.46c-.14.08-.37.21-.51.3l-.8.46c-.14.08-.26.28-.26.44v5.46c0,.16.12.36.26.44l.8.46c.14.08.37.08.51,0l.8-.46c.14-.08.26-.28.26-.44v-2.56l1,.58v5.82c0,.18.13.4.28.49l1.13.65c.16.09.41.09.57,0l1.13-.65c.16-.09.28-.31.28-.49v-1.3c0-.18,0-.48,0-.66v-1.3c0-.1,0-.24,0-.37l1.05.6v6.67c0,.18.13.39.28.48l1.37.79c.15.09.4.09.56,0l1.37-.79c.15-.09.28-.31.28-.48v-6.04c0-.18.13-.39.28-.48l1.37-.79c.15-.09.4-.23.56-.32l1.37-.79c.15-.09.4-.23.56-.32l1.37-.79c.15-.09.28-.31.28-.48v-1.58c0-.18-.13-.39-.28-.48Z"/>
  <circle class="st1" cx="72.64" cy="71.97" r="3.55"/>
  <circle class="st1" cx="78.59" cy="75.4" r="2.47"/>
  <path class="st1" d="M43.6,62.3l-.8-.46c-.14-.08-.37-.21-.51-.3l-.8-.46c-.14-.08-.37-.21-.51-.3l-.8-.46c-.14-.08-.37-.21-.51-.3l-.8-.46c-.14-.08-.37-.08-.51,0l-.8.46c-.14.08-.26.28-.26.44v.92c0,.16.12.36.26.44l.8.46c.14.08.37.21.51.3l.8.46s.07.04.11.06l-1,.58c-.16-.09-.38-.22-.52-.3l-1.13-.65c-.16-.09-.41-.24-.57-.33l-1.13-.65c-.16-.09-.41-.24-.57-.33l-1.13-.65c-.16-.09-.41-.09-.57,0l-1.13.65c-.16.09-.28.31-.28.49v1.3c0,.18.13.4.28.49l1.13.65c.16.09.41.24.57.33l1.13.65c.09.05.21.12.32.19l-1.05.6c-.15-.09-.4-.23-.55-.32l-1.37-.79c-.15-.09-.4-.23-.56-.32l-1.37-.79c-.15-.09-.4-.23-.56-.32l-1.37-.79c-.15-.09-.4-.09-.56,0l-1.37.79c-.15.09-.28.31-.28.48v1.58c0,.18.13.39.28.48l1.37.79c.15.09.4.23.56.32l1.37.79c.15.09.4.23.56.32l1.37.79c.15.09.28.31.28.48v6.04c0,.18.13.39.28.48l1.37.79c.15.09.4.09.56,0l1.37-.79c.15-.09.28-.31.28-.48v-6.67l1.05-.6v1.67c0,.18,0,.48,0,.66v1.3c0,.18.13.4.28.49l1.13.65c.16.09.41.09.57,0l1.13-.65c.16-.09.28-.31.28-.49v-5.82l1-.58v2.56c0,.16.12.36.26.44l.8.46c.14.08.37.08.51,0l.8-.46c.14-.08.26-.28.26-.44v-5.46c0-.16-.12-.36-.26-.44Z"/>
  <circle class="st1" cx="27.36" cy="71.97" r="3.55"/>
  <circle class="st1" cx="21.41" cy="75.4" r="2.47"/>
  <circle class="st1" cx="8.36" cy="50.26" r="2.47"/>
  <circle class="st1" cx="91.64" cy="50.26" r="2.47"/>
  <g id="FE">
    <g>
      <path class="st1" d="M17.78,49.68c-.4,0-1.6-.02-2.21-.12-.59-.1-.77-.24-.77-.85v-5.52c0-.6.18-.75.77-.84.55-.08,1.81-.12,2.21-.12,2.25,0,3.67.42,3.67,2.13v.16c0,.6-.35,1.09-.76,1.34.41.25.8.82.8,1.38v.11c0,2.06-2.1,2.32-3.71,2.32ZM18.97,44.56c0-.23-.16-.47-.74-.47h-.9v1.09h.9c.57,0,.74-.2.74-.47v-.16ZM19,47.21c0-.32-.2-.54-.77-.54h-.9v1.15h.9c.58,0,.77-.27.77-.56v-.06Z"/>
      <path class="st1" d="M29.12,49.58h-2.14c-.12,0-.22-.09-.22-.19v-1.95h-1.63v1.95c0,.11-.1.19-.22.19h-2.14s-.05,0-.09-.02c-.08-.03-.14-.1-.14-.18v-4.86c0-2,1.57-2.28,2.95-2.28h.9c1.38,0,2.95.28,2.95,2.28v4.86c0,.11-.11.19-.23.19ZM26.76,44.52c0-.24-.09-.31-.36-.31h-.9c-.27,0-.36.07-.36.31v1.06h1.63v-1.06Z"/>
      <path class="st1" d="M35.17,49.57c-.44.07-1.09.11-1.66.11-1.38,0-2.95-.28-2.95-2.28v-4.86c0-.11.11-.19.23-.19h2.14c.12,0,.22.09.22.19v4.86c0,.24.09.31.36.31h1.66c.12,0,.22.09.22.19v1.47c0,.11-.1.18-.22.2Z"/>
      <path class="st1" d="M41.01,49.68c-1.19,0-2.01-.08-2.69-.19-.26-.04-.38-.13-.38-.42v-6.23c0-.29.12-.38.38-.42.68-.11,1.51-.19,2.69-.19,2.18,0,3.64.96,3.64,3.28v.89c0,2.32-1.46,3.28-3.64,3.28ZM42.02,45.52c0-1.03-.24-1.31-1.01-1.31h-.48v3.5h.48c.77,0,1.01-.27,1.01-1.31v-.89Z"/>
      <path class="st1" d="M50.8,49.57c-.45.05-1.25.11-2.21.11-1.38,0-2.95-.28-2.95-2.28v-2.88c0-2,1.57-2.28,2.95-2.28.96,0,1.76.06,2.21.11.12,0,.22.09.22.2v1.47c0,.11-.1.19-.22.19h-2.21c-.27,0-.36.07-.36.31v.53h2.57c.12,0,.22.09.22.19v1.37c0,.11-.1.19-.22.19h-2.57v.58c0,.24.09.31.36.31h2.21c.12,0,.22.09.22.19v1.47c0,.11-.1.19-.22.2Z"/>
      <path class="st1" d="M60.59,49.58h-2.14c-.12,0-.22-.09-.22-.19v-4.26c0-.77-.36-.94-.93-.94-.24,0-.52,0-.81.04v5.16c0,.11-.11.19-.23.19h-2.13c-.12,0-.23-.09-.23-.19v-6.16c0-.6.18-.74.77-.83.55-.08,1.92-.16,2.32-.16,2.3,0,3.84.38,3.84,2.89v4.26c0,.11-.11.19-.23.19Z"/>
      <path class="st1" d="M67.14,49.57c-.45.05-1.25.11-2.21.11-1.38,0-2.96-.28-2.96-2.28v-2.88c0-2,1.57-2.28,2.96-2.28.96,0,1.76.06,2.21.11.12,0,.22.09.22.2v1.47c0,.11-.1.19-.22.19h-2.21c-.27,0-.36.07-.36.31v.53h2.57c.12,0,.22.09.22.19v1.37c0,.11-.1.19-.22.19h-2.57v.58c0,.24.09.31.36.31h2.21c.12,0,.22.09.22.19v1.47c0,.11-.1.19-.22.2Z"/>
      <path class="st1" d="M70.99,49.58h-2.14c-.12,0-.23-.09-.23-.19v-6.85c0-.11.11-.19.23-.19h2.14c.12,0,.22.09.22.19v6.85c0,.11-.1.19-.22.19Z"/>
      <path class="st1" d="M78.43,49.41c-.67.13-1.59.27-2.63.27-1.4,0-3.49-.5-3.49-3.3v-.83c0-2.86,2.14-3.3,3.6-3.3,1.19,0,2.03.18,2.52.3.22.06.23.09.23.21v1.43c0,.15-.03.19-.19.18-.33-.04-1.26-.1-1.94-.1-1.2,0-1.59.2-1.59,1.28v.85c0,1.28.54,1.32.87,1.32.1,0,.26,0,.36-.03v-1.75c0-.11.1-.19.22-.19h2.05c.12,0,.22.09.22.19v3.27c0,.17-.03.18-.23.21Z"/>
      <path class="st1" d="M84.98,49.57c-.45.05-1.25.11-2.21.11-1.38,0-2.96-.28-2.96-2.28v-2.88c0-2,1.57-2.28,2.96-2.28.96,0,1.76.06,2.21.11.12,0,.22.09.22.2v1.47c0,.11-.1.19-.22.19h-2.21c-.27,0-.36.07-.36.31v.53h2.57c.12,0,.22.09.22.19v1.37c0,.11-.1.19-.22.19h-2.57v.58c0,.24.09.31.36.31h2.21c.12,0,.22.09.22.19v1.47c0,.11-.1.19-.22.2Z"/>
      <path class="st1" d="M21.72,58.28c-.93,0-1.54-.15-2.01-.39-.47.24-1.08.39-2.01.39-1.71,0-2.86-.59-2.86-2.58v-4.56c0-.11.1-.19.22-.19h2.13c.12,0,.23.09.23.19v4.56c0,.46.12.55.56.55h.43v-5.11c0-.11.11-.19.23-.19h2.13c.12,0,.23.09.23.19v5.11h.43c.44,0,.56-.09.56-.55v-4.56c0-.11.11-.19.23-.19h2.13c.12,0,.22.09.22.19v4.56c0,1.99-1.14,2.58-2.86,2.58Z"/>
      <path class="st1" d="M28.21,58.19h-2.14c-.12,0-.23-.09-.23-.19v-6.85c0-.11.11-.19.23-.19h2.14c.12,0,.22.09.22.19v6.85c0,.11-.1.19-.22.19Z"/>
      <path class="st1" d="M36.39,58.19h-2.14c-.12,0-.22-.09-.22-.19v-4.26c0-.77-.36-.94-.93-.94-.24,0-.52,0-.81.04v5.16c0,.11-.11.19-.23.19h-2.13c-.12,0-.23-.09-.23-.19v-6.16c0-.6.18-.74.77-.83.55-.08,1.92-.16,2.32-.16,2.3,0,3.84.38,3.84,2.89v4.26c0,.11-.11.19-.23.19Z"/>
      <path class="st1" d="M43.11,52.82h-1.49v5.18c0,.11-.1.19-.22.19h-2.14c-.12,0-.22-.09-.22-.19v-5.18h-1.54c-.12,0-.22-.09-.22-.19v-1.48c0-.11.1-.19.22-.19h5.61c.12,0,.23.09.23.19v1.48c0,.11-.11.19-.23.19Z"/>
      <path class="st1" d="M49.33,58.18c-.45.05-1.25.11-2.21.11-1.38,0-2.95-.28-2.95-2.28v-2.88c0-2,1.57-2.28,2.95-2.28.96,0,1.76.06,2.21.11.12,0,.22.09.22.2v1.47c0,.11-.1.19-.22.19h-2.21c-.27,0-.36.07-.36.31v.53h2.57c.12,0,.22.09.22.19v1.37c0,.11-.1.19-.22.19h-2.57v.58c0,.24.09.31.36.31h2.21c.12,0,.22.09.22.19v1.47c0,.11-.1.19-.22.2Z"/>
      <path class="st1" d="M57.6,58.19h-2.3c-.2,0-.24-.1-.3-.19l-1.31-2.29h-.35v2.29c0,.11-.1.19-.22.19h-2.14c-.12,0-.23-.09-.23-.19v-6.2c0-.6.18-.74.77-.83.37-.05,1.65-.12,2.41-.12,2.21,0,3.58.58,3.58,2.43v.19c0,1.04-.67,1.66-1.26,1.89l1.52,2.54s.03.08.03.11c0,.11-.1.18-.2.18ZM54.93,53.28c0-.33-.2-.52-.76-.52h-.82v1.23h.82c.55,0,.76-.25.76-.52v-.19Z"/>
      <path class="st1" d="M63.17,58.18c-.44.07-1.09.11-1.66.11-1.38,0-2.95-.28-2.95-2.28v-4.86c0-.11.11-.19.23-.19h2.14c.12,0,.22.09.22.19v4.86c0,.24.09.31.36.31h1.66c.12,0,.22.09.22.19v1.47c0,.11-.1.18-.22.2Z"/>
      <path class="st1" d="M70.11,58.13c-.55.08-1.92.16-2.32.16-2.3,0-3.84-.38-3.84-2.89v-4.26c0-.11.11-.19.23-.19h2.14c.12,0,.22.09.22.19v4.26c0,.77.36.94.93.94.24,0,.52,0,.81-.04v-5.16c0-.11.11-.19.23-.19h2.13c.12,0,.23.09.23.19v6.16c0,.6-.18.74-.77.83Z"/>
      <path class="st1" d="M75.16,58.28c-1.19,0-2.01-.08-2.69-.19-.26-.04-.38-.13-.38-.42v-6.23c0-.29.12-.38.38-.42.68-.11,1.5-.19,2.69-.19,2.18,0,3.64.96,3.64,3.28v.89c0,2.32-1.46,3.28-3.64,3.28ZM76.17,54.12c0-1.03-.24-1.31-1.01-1.31h-.48v3.5h.48c.77,0,1.01-.27,1.01-1.31v-.89Z"/>
      <path class="st1" d="M84.94,58.18c-.45.05-1.25.11-2.21.11-1.38,0-2.96-.28-2.96-2.28v-2.88c0-2,1.57-2.28,2.96-2.28.96,0,1.76.06,2.21.11.12,0,.22.09.22.2v1.47c0,.11-.1.19-.22.19h-2.21c-.27,0-.36.07-.36.31v.53h2.57c.12,0,.22.09.22.19v1.37c0,.11-.1.19-.22.19h-2.57v.58c0,.24.09.31.36.31h2.21c.12,0,.22.09.22.19v1.47c0,.11-.1.19-.22.2Z"/>
    </g>
  </g>
</svg>