<svg width="200" height="200" viewBox="0 0 200 200" fill="none" xmlns="http://www.w3.org/2000/svg">
<g clip-path="url(#clip0_13440_2832)">
<path d="M183.281 83.8596C182.881 83.8596 182.461 83.8596 182.061 83.8996C179.201 77.3396 172.681 72.7596 165.081 72.7596H159.421V69.5196C160.301 68.5196 161.061 67.4196 161.701 66.2796C163.001 65.9196 164.261 65.3796 165.481 64.6796C173.441 60.0796 176.161 49.8796 171.581 41.9196C166.981 33.9596 156.781 31.2396 148.821 35.8196C147.601 36.5196 146.501 37.3596 145.521 38.2996C144.201 38.2796 142.881 38.3996 141.581 38.6596L138.181 36.6996C134.781 34.7596 130.621 34.6196 127.081 36.3196C126.781 32.4396 124.581 28.8796 121.141 26.8796L117.781 24.9396C117.341 23.6796 116.801 22.4596 116.121 21.3396C116.461 20.0396 116.621 18.6596 116.621 17.2596C116.621 8.07961 109.141 0.599609 99.9605 0.599609C90.7805 0.599609 83.3006 8.07961 83.3006 17.2596C83.3006 18.6596 83.4806 20.0396 83.8006 21.3396C83.1206 22.4596 82.5605 23.6796 82.1405 24.9396L78.7606 26.8996C75.3406 28.8796 73.1405 32.4396 72.8405 36.3196C69.3205 34.6196 65.1405 34.7596 61.7005 36.7396L58.3405 38.6796C57.0205 38.4196 55.7005 38.2996 54.3805 38.3196C53.4205 37.3796 52.3205 36.5396 51.1005 35.8396C43.1405 31.2396 32.9405 33.9796 28.3405 41.9396C26.1205 45.7996 25.5205 50.2796 26.6805 54.5796C27.8405 58.8796 30.5805 62.4596 34.4405 64.6996C35.6605 65.3996 36.9205 65.9196 38.2005 66.2796C38.8405 67.4596 39.6205 68.5396 40.5005 69.5396V72.7796H34.8405C27.2405 72.7796 20.7205 77.3796 17.8605 83.9196C17.4605 83.8996 17.0605 83.8796 16.6405 83.8796C7.54055 83.8596 0.0605469 91.3396 0.0605469 100.52C0.0605469 109.7 7.54055 117.18 16.7205 117.18C17.1205 117.18 17.5405 117.18 17.9405 117.14C20.8005 123.7 27.3205 128.28 34.9205 128.28H40.5805V131.52C39.7005 132.52 38.9205 133.6 38.2805 134.78C36.9805 135.16 35.7205 135.68 34.5005 136.38C30.6405 138.6 27.9005 142.2 26.7405 146.5C25.5805 150.8 26.1805 155.28 28.4005 159.14C30.6205 163 34.2205 165.74 38.5205 166.9C39.9605 167.28 41.4205 167.48 42.8605 167.48C45.7405 167.48 48.6005 166.72 51.1605 165.24C52.3805 164.54 53.4805 163.7 54.4405 162.76C54.5405 162.76 54.6405 162.76 54.7405 162.76C55.9605 162.76 57.1805 162.64 58.3805 162.4L61.7205 164.34C63.5605 165.4 65.6405 165.94 67.7005 165.94C69.4805 165.94 71.2405 165.54 72.8805 164.76C73.1805 168.68 75.4006 172.24 78.8006 174.2L82.1606 176.14C82.6006 177.4 83.1405 178.62 83.8205 179.74C83.4805 181.04 83.3205 182.42 83.3205 183.82C83.3205 193 90.8006 200.48 99.9806 200.48C109.161 200.48 116.641 193 116.641 183.82C116.641 182.42 116.461 181.04 116.141 179.74C116.821 178.62 117.381 177.4 117.801 176.14L121.161 174.2C124.581 172.22 126.801 168.66 127.101 164.76C128.741 165.54 130.521 165.94 132.281 165.94C134.341 165.94 136.401 165.4 138.241 164.34L141.601 162.4C142.801 162.64 144.041 162.76 145.241 162.76C145.341 162.76 145.441 162.76 145.541 162.76C146.501 163.7 147.601 164.54 148.821 165.24C151.441 166.76 154.301 167.46 157.121 167.46C162.881 167.46 168.501 164.48 171.581 159.14C176.181 151.18 173.441 140.98 165.481 136.38C164.261 135.68 163.001 135.14 161.681 134.78C161.041 133.64 160.281 132.54 159.401 131.54V128.3H165.061C172.661 128.3 179.181 123.7 182.041 117.16C182.441 117.18 182.841 117.2 183.261 117.2C192.441 117.2 199.921 109.72 199.921 100.54C199.921 91.3596 192.441 83.8796 183.261 83.8796L183.281 83.8596Z" fill="#1C4075"/>
<path d="M183.28 85.7209C182.46 85.7209 181.64 85.7809 180.86 85.9209C178.62 79.3609 172.4 74.6209 165.08 74.6209H157.58V68.8009C158.76 67.5609 159.72 66.1809 160.46 64.6809C161.88 64.3609 163.26 63.8409 164.58 63.0809C171.66 59.0009 174.08 49.9209 170 42.8609C165.92 35.8009 156.84 33.3609 149.78 37.4409C148.46 38.2009 147.3 39.1409 146.32 40.2009C144.66 40.1009 142.96 40.2409 141.3 40.6409C141.2 40.5809 141.08 40.5009 140.98 40.4409L137.3 38.3209C134.22 36.5609 130.38 36.5609 127.26 38.3409L125.32 39.4609V37.2209C125.32 33.6409 123.4 30.3009 120.28 28.4809L116.68 26.4009C116.56 26.3209 116.44 26.2609 116.32 26.2009C115.84 24.5609 115.12 23.0209 114.2 21.6409C114.62 20.2609 114.86 18.7809 114.86 17.2609C114.86 9.10094 108.22 2.46094 100.06 2.46094C91.8995 2.46094 85.2595 9.10094 85.2595 17.2609C85.2595 18.7809 85.4995 20.2609 85.9195 21.6409C84.9995 23.0409 84.2795 24.5609 83.7995 26.2009C83.6795 26.2609 83.5795 26.3209 83.4595 26.3809L79.7995 28.5009C76.6995 30.3009 74.7795 33.6409 74.7795 37.2209V39.4609L72.8195 38.3209C69.7195 36.5409 65.8795 36.5409 62.7595 38.3209L59.1395 40.4209C59.0195 40.4809 58.9195 40.5609 58.7995 40.6409C57.1395 40.2409 55.4595 40.1009 53.7795 40.2009C52.7795 39.1209 51.6195 38.2009 50.3195 37.4409C43.2595 33.3609 34.1795 35.7809 30.0995 42.8609C28.1195 46.2809 27.5995 50.2809 28.6195 54.1009C29.6395 57.9209 32.0995 61.1209 35.5195 63.1009C36.8395 63.8609 38.2195 64.3809 39.6395 64.7009C40.3795 66.2009 41.3395 67.5809 42.5195 68.8209V74.6409H35.0195C27.6995 74.6409 21.4795 79.3809 19.2395 85.9409C18.4595 85.8009 17.6395 85.7409 16.8195 85.7409C8.65953 85.7409 2.01953 92.3809 2.01953 100.541C2.01953 108.701 8.65953 115.341 16.8195 115.341C17.6395 115.341 18.4595 115.281 19.2395 115.141C21.4795 121.701 27.6995 126.441 35.0195 126.441H42.5195V132.241C41.3595 133.461 40.3795 134.841 39.6195 136.361C38.1995 136.681 36.8195 137.221 35.5195 137.981C32.0995 139.961 29.6395 143.161 28.6195 146.981C27.5995 150.801 28.1195 154.801 30.0995 158.221C32.0795 161.641 35.2595 164.101 39.0795 165.121C40.3595 165.461 41.6395 165.641 42.9395 165.641C45.4995 165.641 48.0395 164.961 50.3195 163.641C51.6395 162.881 52.7995 161.941 53.7795 160.881C54.1395 160.901 54.4795 160.921 54.8395 160.921C56.1595 160.921 57.4995 160.761 58.7995 160.441C58.8995 160.501 59.0195 160.581 59.1195 160.641L62.7195 162.721C64.2995 163.641 66.0595 164.101 67.8195 164.101C69.5795 164.101 71.2995 163.641 72.8395 162.741L74.7795 161.621V163.861C74.7795 167.461 76.7195 170.821 79.8195 172.601L83.4795 174.721C83.5795 174.781 83.6995 174.841 83.7995 174.881C84.2795 176.521 84.9995 178.061 85.9195 179.441C85.4995 180.821 85.2595 182.301 85.2595 183.821C85.2595 191.981 91.8995 198.621 100.06 198.621C108.22 198.621 114.86 191.981 114.86 183.821C114.86 182.301 114.62 180.821 114.2 179.441C115.12 178.041 115.84 176.521 116.32 174.881C116.44 174.821 116.54 174.761 116.66 174.701L120.3 172.601C123.4 170.801 125.34 167.461 125.34 163.861V161.621L127.26 162.721C128.82 163.641 130.58 164.081 132.34 164.081C134.1 164.081 135.82 163.621 137.38 162.721L140.98 160.641C141.1 160.561 141.22 160.501 141.34 160.421C142.66 160.741 143.98 160.901 145.3 160.901C145.66 160.901 146 160.901 146.36 160.861C147.34 161.921 148.5 162.861 149.82 163.621C152.1 164.941 154.64 165.621 157.2 165.621C158.48 165.621 159.78 165.461 161.06 165.101C164.88 164.081 168.08 161.621 170.06 158.201C174.14 151.121 171.72 142.061 164.64 137.981C163.34 137.221 161.94 136.681 160.52 136.361C159.78 134.881 158.82 133.481 157.64 132.261V126.441H165.14C172.46 126.441 178.68 121.701 180.92 115.141C181.7 115.281 182.52 115.341 183.34 115.341C191.5 115.341 198.14 108.701 198.14 100.541C198.14 92.3809 191.5 85.7409 183.34 85.7409L183.28 85.7209Z" fill="white"/>
<path d="M183.28 89.4202C181.38 89.4202 179.6 89.9002 178.02 90.7402C177.74 83.8402 172.04 78.3202 165.08 78.3202H153.76V67.3002C155.68 65.7002 157.08 63.6202 157.84 61.3402C159.5 61.2402 161.18 60.7602 162.72 59.8802C165.28 58.4002 167.12 56.0002 167.9 53.1402C168.68 50.2802 168.28 47.2802 166.8 44.7202C163.74 39.4202 156.94 37.6002 151.64 40.6602C150.12 41.5402 148.86 42.7402 147.94 44.1602C145.52 43.6602 142.96 43.8402 140.56 44.7802C140.14 44.3402 139.68 43.9602 139.14 43.6602L135.48 41.5402C133.52 40.4202 131.1 40.4202 129.12 41.5402L121.62 45.8802V37.2202C121.62 34.9602 120.4 32.8402 118.42 31.7002L114.8 29.6002C114.26 29.2802 113.7 29.0602 113.1 28.9202C112.7 26.3602 111.58 24.0602 109.94 22.2202C110.68 20.7202 111.12 19.0402 111.12 17.2602C111.12 11.1402 106.14 6.16016 100.02 6.16016C93.9002 6.16016 88.9202 11.1402 88.9202 17.2602C88.9202 19.0402 89.3602 20.7202 90.1002 22.2202C88.4602 24.0802 87.3402 26.3802 86.9402 28.9202C86.3602 29.0602 85.8002 29.2802 85.2602 29.5802L81.6002 31.6802C79.6402 32.8202 78.4202 34.9402 78.4202 37.2002V45.8602L70.9002 41.5202C68.9402 40.4002 66.5002 40.4002 64.5202 41.5202L60.9002 43.6202C60.3602 43.9202 59.9002 44.3002 59.4802 44.7402C57.0802 43.8202 54.5202 43.6402 52.1002 44.1202C51.1602 42.7002 49.9002 41.5002 48.4002 40.6202C43.1002 37.5602 36.3002 39.3802 33.2402 44.6802C31.7602 47.2402 31.3602 50.2402 32.1402 53.1002C32.9002 55.9602 34.7402 58.3602 37.3202 59.8402C38.8602 60.7402 40.5402 61.2002 42.2002 61.3002C42.9602 63.5802 44.3402 65.6602 46.2802 67.2602V78.2802H34.9602C28.0002 78.2802 22.3002 83.8001 22.0202 90.7001C20.4602 89.8601 18.6602 89.3802 16.7602 89.3802C10.6402 89.3802 5.66016 94.3602 5.66016 100.48C5.66016 106.6 10.6402 111.58 16.7602 111.58C18.6602 111.58 20.4402 111.1 22.0202 110.26C22.3002 117.16 28.0002 122.68 34.9602 122.68H46.2802V133.7C44.4002 135.26 42.9802 137.32 42.2002 139.68C40.5002 139.78 38.8402 140.26 37.3202 141.14C34.7602 142.62 32.9202 145.02 32.1402 147.88C31.3802 150.74 31.7602 153.74 33.2402 156.3C34.7202 158.86 37.1202 160.7 39.9802 161.48C40.9402 161.74 41.9002 161.86 42.8802 161.86C44.8002 161.86 46.7002 161.36 48.4202 160.36C49.9402 159.48 51.1802 158.28 52.1202 156.88C53.0002 157.06 53.8802 157.16 54.7802 157.16C56.3802 157.16 57.9802 156.86 59.5202 156.28C59.9402 156.7 60.4002 157.08 60.9202 157.38L64.5402 159.46C65.5402 160.04 66.6602 160.34 67.7602 160.34C68.8602 160.34 69.9602 160.06 70.9402 159.48L78.4402 155.14V163.8C78.4402 166.08 79.6602 168.2 81.6402 169.32L85.3002 171.44C85.8202 171.74 86.3802 171.96 86.9602 172.1C87.3602 174.66 88.4802 176.96 90.1202 178.82C89.3802 180.32 88.9402 182 88.9402 183.78C88.9402 189.9 93.9202 194.88 100.04 194.88C106.16 194.88 111.14 189.9 111.14 183.78C111.14 182 110.7 180.32 109.96 178.82C111.6 176.96 112.72 174.66 113.12 172.1C113.7 171.96 114.26 171.74 114.8 171.44L118.44 169.34C120.4 168.2 121.64 166.08 121.64 163.82V155.16L129.12 159.48C130.12 160.06 131.22 160.34 132.34 160.34C133.46 160.34 134.54 160.06 135.52 159.48L139.14 157.4C139.68 157.1 140.14 156.72 140.56 156.28C142.1 156.88 143.72 157.16 145.3 157.16C146.2 157.16 147.08 157.06 147.96 156.88C148.9 158.3 150.14 159.5 151.66 160.36C153.4 161.36 155.32 161.84 157.2 161.84C161.04 161.84 164.78 159.84 166.84 156.3C168.32 153.74 168.72 150.74 167.94 147.88C167.18 145.02 165.34 142.62 162.76 141.14C161.24 140.26 159.58 139.78 157.88 139.68C157.12 137.4 155.74 135.32 153.8 133.72V122.7H165.12C172.08 122.7 177.78 117.18 178.06 110.28C179.62 111.12 181.42 111.6 183.32 111.6C189.44 111.6 194.42 106.62 194.42 100.5C194.42 94.3802 189.44 89.4002 183.32 89.4002L183.28 89.4202Z" fill="#1C4075"/>
<path d="M103.58 48.3594C103.72 48.2794 104.66 47.7394 105.66 47.1594L105.9 47.0194L109.5 44.9394L109.74 44.7994L113.34 42.7194L113.58 42.5794C114.58 41.9994 115.38 40.5994 115.38 39.4594V39.1794C115.38 38.0394 114.56 36.6194 113.58 36.0594L113.34 35.9194C112.34 35.3394 110.72 35.3394 109.74 35.9194L109.5 36.0594C108.5 36.6394 106.88 37.5794 105.9 38.1394L105.66 38.2794L102.06 40.3594L101.82 40.4994C100.82 41.0794 99.2002 41.0794 98.2202 40.4994L97.9802 40.3594L94.3801 38.2794L94.1402 38.1394C93.1402 37.5594 91.5202 36.6194 90.5402 36.0594L90.3002 35.9194C89.3002 35.3394 87.6801 35.3394 86.7001 35.9194L86.4602 36.0594C85.4602 36.6394 84.6602 38.0394 84.6602 39.1794V39.4594C84.6602 40.5994 85.4802 42.0194 86.4602 42.5794L86.7001 42.7194L90.3002 44.7994L90.5402 44.9394L94.1402 47.0194L94.3801 47.1594C95.3801 47.7394 96.3002 48.2794 96.4602 48.3594C96.6202 48.4394 96.7202 49.0594 96.7202 49.7194C96.7202 50.3794 96.7202 50.9194 96.6802 50.8994C96.6402 50.8794 95.8802 50.4394 94.9402 49.8994C94.0002 49.3594 92.4802 48.4794 91.5402 47.9394C90.6002 47.3994 89.0802 47.3994 88.1402 47.9394C87.2002 48.4794 86.4402 49.7994 86.4402 50.8794C86.4402 51.9594 87.2002 53.2794 88.1402 53.8194L91.5402 55.7794L94.9402 57.7394C95.8802 58.2794 96.7401 58.7794 96.8801 58.8594C97.0201 58.9394 97.1202 59.5194 97.1202 60.1594C97.1202 60.7994 96.6002 61.0194 95.9602 60.6394C95.3202 60.2594 94.2002 59.6194 93.4802 59.2194C92.7602 58.8194 91.5802 58.7994 90.8602 59.2194C90.1402 59.6394 89.5402 60.6594 89.5402 61.4994C89.5402 62.3394 90.1202 63.3594 90.8602 63.7794L93.4802 65.2994L96.1002 66.8194L98.7202 68.3394C99.4402 68.7594 100.62 68.7594 101.34 68.3394L103.96 66.8194L106.58 65.2994L109.2 63.7794C109.92 63.3594 110.52 62.3394 110.52 61.4994C110.52 60.6594 109.94 59.6394 109.2 59.2194C108.46 58.7994 107.3 58.7994 106.58 59.2194C105.86 59.6394 104.74 60.2794 104.1 60.6394C103.46 60.9994 102.94 60.7794 102.94 60.1594C102.94 59.5394 103.04 58.9394 103.18 58.8594C103.32 58.7794 104.18 58.2794 105.12 57.7394C106.06 57.1994 107.58 56.3194 108.52 55.7794C109.46 55.2394 110.98 54.3594 111.92 53.8194C112.86 53.2794 113.62 51.9594 113.62 50.8794C113.62 49.7994 112.86 48.4794 111.92 47.9394C110.98 47.3994 109.46 47.3994 108.52 47.9394C107.58 48.4794 106.06 49.3594 105.12 49.8994C104.18 50.4394 103.4 50.8794 103.38 50.8994C103.36 50.9194 103.34 50.3794 103.34 49.7194C103.34 49.0594 103.46 48.4394 103.6 48.3594H103.58Z" fill="white"/>
<path d="M100 38.0809C103.922 38.0809 107.1 34.9021 107.1 30.9809C107.1 27.0596 103.922 23.8809 100 23.8809C96.0792 23.8809 92.9004 27.0596 92.9004 30.9809C92.9004 34.9021 96.0792 38.0809 100 38.0809Z" fill="white"/>
<path d="M100.001 22.1808C102.729 22.1808 104.941 19.9691 104.941 17.2408C104.941 14.5125 102.729 12.3008 100.001 12.3008C97.2723 12.3008 95.0605 14.5125 95.0605 17.2408C95.0605 19.9691 97.2723 22.1808 100.001 22.1808Z" fill="white"/>
<path d="M147.14 68.7409L144.4 67.1609C144.1 66.9809 143.6 66.7009 143.28 66.5209L140.54 64.9409C140.24 64.7609 139.74 64.4809 139.42 64.3009L136.68 62.7209C136.38 62.5409 136.12 62.1009 136.12 61.7609V49.6809C136.12 49.3209 135.86 48.9009 135.56 48.7209L132.82 47.1409C132.52 46.9609 132.02 46.9609 131.7 47.1409L128.96 48.7209C128.66 48.9009 128.4 49.3409 128.4 49.6809V63.0209L126.3 64.2209V60.8809C126.3 60.5209 126.3 59.9209 126.3 59.5609V56.9609C126.3 56.6009 126.04 56.1609 125.74 55.9809L123.48 54.6809C123.16 54.5009 122.66 54.5009 122.34 54.6809L120.08 55.9809C119.76 56.1609 119.52 56.6009 119.52 56.9609V68.6009L117.52 69.7609V64.6409C117.52 64.3209 117.28 63.9209 117 63.7609L115.4 62.8409C115.12 62.6809 114.66 62.6809 114.38 62.8409L112.78 63.7609C112.5 63.9209 112.26 64.3209 112.26 64.6409V75.5609C112.26 75.8809 112.5 76.2809 112.78 76.4409L114.38 77.3609C114.66 77.5209 115.12 77.7809 115.4 77.9609L117 78.8809C117.28 79.0409 117.74 79.3009 118.02 79.4809L119.62 80.4009C119.9 80.5609 120.36 80.8209 120.64 81.0009L122.24 81.9209C122.52 82.0809 122.98 82.0809 123.26 81.9209L124.86 81.0009C125.14 80.8409 125.38 80.4409 125.38 80.1209V78.2809C125.38 77.9609 125.14 77.5609 124.86 77.4009L123.26 76.4809C122.98 76.3209 122.52 76.0609 122.24 75.8809L120.64 74.9609C120.64 74.9609 120.5 74.8809 120.42 74.8409L122.42 73.6809C122.74 73.8609 123.18 74.1209 123.46 74.2809L125.72 75.5809C126.04 75.7609 126.54 76.0609 126.86 76.2409L129.12 77.5409C129.44 77.7209 129.94 78.0209 130.26 78.2009L132.52 79.5009C132.84 79.6809 133.34 79.6809 133.66 79.5009L135.92 78.2009C136.24 78.0209 136.48 77.5809 136.48 77.2209V74.6209C136.48 74.2609 136.22 73.8209 135.92 73.6409L133.66 72.3409C133.34 72.1609 132.84 71.8609 132.52 71.6809L130.26 70.3809C130.08 70.2809 129.84 70.1409 129.62 70.0009L131.72 68.8009C132.02 68.9809 132.52 69.2609 132.82 69.4409L135.56 71.0209C135.86 71.2009 136.36 71.4809 136.68 71.6609L139.42 73.2409C139.72 73.4209 140.22 73.7009 140.54 73.8809L143.28 75.4609C143.58 75.6409 144.08 75.6409 144.4 75.4609L147.14 73.8809C147.44 73.7009 147.7 73.2609 147.7 72.9209V69.7609C147.7 69.4009 147.44 68.9809 147.14 68.8009V68.7409Z" fill="white"/>
<path d="M145.28 64.2195C149.201 64.2195 152.38 61.0408 152.38 57.1195C152.38 53.1983 149.201 50.0195 145.28 50.0195C141.358 50.0195 138.18 53.1983 138.18 57.1195C138.18 61.0408 141.358 64.2195 145.28 64.2195Z" fill="white"/>
<path d="M157.18 55.1808C159.909 55.1808 162.12 52.9691 162.12 50.2408C162.12 47.5125 159.909 45.3008 157.18 45.3008C154.452 45.3008 152.24 47.5125 152.24 50.2408C152.24 52.9691 154.452 55.1808 157.18 55.1808Z" fill="white"/>
<path d="M87.1993 63.7609L85.5993 62.8409C85.3193 62.6809 84.8593 62.6809 84.5793 62.8409L82.9793 63.7609C82.6993 63.9209 82.4593 64.3209 82.4593 64.6409V69.7609L80.4593 68.6009V56.9609C80.4593 56.6009 80.1993 56.1609 79.8993 55.9809L77.6393 54.6809C77.3193 54.5009 76.8193 54.5009 76.4993 54.6809L74.2393 55.9809C73.9193 56.1609 73.6793 56.6009 73.6793 56.9609V59.5609C73.6793 59.9209 73.6793 60.5209 73.6793 60.8809V63.4809C73.6793 63.6809 73.6793 63.9609 73.6793 64.2209L71.5793 63.0209V49.6809C71.5793 49.3209 71.3193 48.9009 71.0193 48.7209L68.2793 47.1409C67.9793 46.9609 67.4793 46.9609 67.1593 47.1409L64.4193 48.7209C64.1193 48.9009 63.8593 49.3409 63.8593 49.6809V61.7609C63.8593 62.1209 63.5993 62.5409 63.2993 62.7209L60.5593 64.3009C60.2593 64.4809 59.7593 64.7609 59.4393 64.9409L56.6993 66.5209C56.3993 66.7009 55.8993 66.9809 55.5793 67.1609L52.8393 68.7409C52.5393 68.9209 52.2793 69.3609 52.2793 69.7009V72.8609C52.2793 73.2209 52.5393 73.6409 52.8393 73.8209L55.5793 75.4009C55.8793 75.5809 56.3793 75.5809 56.6993 75.4009L59.4393 73.8209C59.7393 73.6409 60.2393 73.3609 60.5593 73.1809L63.2993 71.6009C63.5993 71.4209 64.0993 71.1409 64.4193 70.9609L67.1593 69.3809C67.4593 69.2009 67.9393 68.9209 68.2593 68.7409L70.3593 69.9409C70.1193 70.0809 69.8793 70.2209 69.7193 70.3209L67.4593 71.6209C67.1393 71.8009 66.6393 72.1009 66.3193 72.2809L64.0593 73.5809C63.7393 73.7609 63.4993 74.2009 63.4993 74.5609V77.1609C63.4993 77.5209 63.7593 77.9609 64.0593 78.1409L66.3193 79.4409C66.6393 79.6209 67.1393 79.6209 67.4593 79.4409L69.7193 78.1409C70.0393 77.9609 70.5393 77.6609 70.8593 77.4809L73.1193 76.1809C73.4393 76.0009 73.9393 75.7009 74.2593 75.5209L76.5193 74.2209C76.7993 74.0609 77.2393 73.8009 77.5593 73.6209L79.5593 74.7809C79.5593 74.7809 79.3993 74.8609 79.3393 74.9009L77.7393 75.8209C77.4593 75.9809 76.9993 76.2409 76.7193 76.4209L75.1193 77.3409C74.8393 77.5009 74.5993 77.9009 74.5993 78.2209V80.0609C74.5993 80.3809 74.8393 80.7809 75.1193 80.9409L76.7193 81.8609C76.9993 82.0209 77.4593 82.0209 77.7393 81.8609L79.3393 80.9409C79.6193 80.7809 80.0793 80.5209 80.3593 80.3409L81.9593 79.4209C82.2393 79.2609 82.6993 79.0009 82.9793 78.8209L84.5793 77.9009C84.8593 77.7409 85.3193 77.4809 85.5993 77.3009L87.1993 76.3809C87.4793 76.2209 87.7193 75.8209 87.7193 75.5009V64.5809C87.7193 64.2609 87.4793 63.8609 87.1993 63.7009V63.7609Z" fill="white"/>
<path d="M54.7191 64.2195C58.6404 64.2195 61.8191 61.0408 61.8191 57.1195C61.8191 53.1983 58.6404 50.0195 54.7191 50.0195C50.7979 50.0195 47.6191 53.1983 47.6191 57.1195C47.6191 61.0408 50.7979 64.2195 54.7191 64.2195Z" fill="white"/>
<path d="M42.8209 55.1808C45.5491 55.1808 47.7609 52.9691 47.7609 50.2408C47.7609 47.5125 45.5491 45.3008 42.8209 45.3008C40.0926 45.3008 37.8809 47.5125 37.8809 50.2408C37.8809 52.9691 40.0926 55.1808 42.8209 55.1808Z" fill="white"/>
<path d="M114.861 159.199L112.121 157.619C111.821 157.439 111.321 157.159 111.001 156.979L108.261 155.399C107.961 155.219 107.461 154.939 107.141 154.759L104.401 153.179C104.101 152.999 103.621 152.719 103.301 152.539V150.119C103.541 150.259 103.781 150.399 103.941 150.499L106.201 151.799C106.521 151.979 107.021 152.279 107.341 152.459L109.601 153.759C109.921 153.939 110.421 153.939 110.741 153.759L113.001 152.459C113.321 152.279 113.561 151.839 113.561 151.479V148.879C113.561 148.519 113.301 148.079 113.001 147.899L110.741 146.599C110.421 146.419 109.921 146.119 109.601 145.939L107.341 144.639C107.021 144.459 106.521 144.159 106.201 143.979L103.941 142.679C103.661 142.519 103.221 142.259 102.901 142.079V139.759C102.901 139.759 103.061 139.839 103.121 139.879L104.721 140.799C105.001 140.959 105.461 141.219 105.741 141.399L107.341 142.319C107.621 142.479 108.081 142.479 108.361 142.319L109.961 141.399C110.241 141.239 110.481 140.839 110.481 140.519V138.679C110.481 138.359 110.241 137.959 109.961 137.799L108.361 136.879C108.081 136.719 107.621 136.459 107.341 136.279L105.741 135.359C105.461 135.199 105.001 134.939 104.721 134.759L103.121 133.839C102.841 133.679 102.381 133.419 102.101 133.239L100.501 132.319C100.221 132.159 99.7606 132.159 99.4806 132.319L97.8805 133.239C97.6005 133.399 97.1405 133.659 96.8605 133.839L95.2606 134.759C94.9806 134.919 94.5205 135.179 94.2405 135.359L92.6405 136.279C92.3605 136.439 91.9006 136.699 91.6206 136.879L90.0205 137.799C89.7405 137.959 89.5005 138.359 89.5005 138.679V140.519C89.5005 140.839 89.7405 141.239 90.0205 141.399L91.6206 142.319C91.9006 142.479 92.3605 142.479 92.6405 142.319L94.2405 141.399C94.5205 141.239 94.9806 140.979 95.2606 140.799L96.8605 139.879C96.8605 139.879 97.0006 139.799 97.0806 139.759V142.079C96.7606 142.259 96.3206 142.519 96.0406 142.679L93.7805 143.979C93.4605 144.159 92.9605 144.459 92.6405 144.639L90.3805 145.939C90.0605 146.119 89.5605 146.419 89.2405 146.599L86.9806 147.899C86.6606 148.079 86.4205 148.519 86.4205 148.879V151.479C86.4205 151.839 86.6806 152.279 86.9806 152.459L89.2405 153.759C89.5605 153.939 90.0605 153.939 90.3805 153.759L92.6405 152.459C92.9605 152.279 93.4605 151.979 93.7805 151.799L96.0406 150.499C96.2206 150.399 96.4605 150.259 96.6805 150.119V152.539C96.3805 152.719 95.8806 152.999 95.5806 153.179L92.8405 154.759C92.5405 154.939 92.0406 155.219 91.7206 155.399L88.9806 156.979C88.6806 157.159 88.1805 157.439 87.8605 157.619L85.1206 159.199C84.8206 159.379 84.5605 159.819 84.5605 160.159V163.319C84.5605 163.679 84.8206 164.099 85.1206 164.279L87.8605 165.859C88.1605 166.039 88.6606 166.039 88.9806 165.859L91.7206 164.279C92.0206 164.099 92.5205 163.819 92.8405 163.639L95.5806 162.059C95.8806 161.879 96.3805 161.599 96.7005 161.419L99.4406 159.839C99.7406 159.659 100.241 159.659 100.561 159.839L103.301 161.419C103.601 161.599 104.101 161.879 104.421 162.059L107.161 163.639C107.461 163.819 107.961 164.099 108.281 164.279L111.021 165.859C111.321 166.039 111.821 166.039 112.141 165.859L114.881 164.279C115.181 164.099 115.441 163.659 115.441 163.319V160.159C115.441 159.799 115.181 159.379 114.881 159.199H114.861Z" fill="white"/>
<path d="M100 177.18C103.922 177.18 107.1 174.002 107.1 170.08C107.1 166.159 103.922 162.98 100 162.98C96.0792 162.98 92.9004 166.159 92.9004 170.08C92.9004 174.002 96.0792 177.18 100 177.18Z" fill="white"/>
<path d="M100.001 188.739C102.729 188.739 104.941 186.528 104.941 183.799C104.941 181.071 102.729 178.859 100.001 178.859C97.2723 178.859 95.0605 181.071 95.0605 183.799C95.0605 186.528 97.2723 188.739 100.001 188.739Z" fill="white"/>
<path d="M147.14 127.199L144.4 125.619C144.1 125.439 143.6 125.439 143.28 125.619L140.54 127.199C140.24 127.379 139.74 127.659 139.42 127.839L136.68 129.419C136.38 129.599 135.88 129.879 135.56 130.059L132.82 131.639C132.52 131.819 132.04 132.099 131.72 132.279L129.62 131.079C129.86 130.939 130.1 130.799 130.26 130.699L132.52 129.399C132.84 129.219 133.34 128.919 133.66 128.739L135.92 127.439C136.24 127.259 136.48 126.819 136.48 126.459V123.859C136.48 123.499 136.22 123.059 135.92 122.879L133.66 121.579C133.34 121.399 132.84 121.399 132.52 121.579L130.26 122.879C129.94 123.059 129.44 123.359 129.12 123.539L126.86 124.839C126.54 125.019 126.04 125.319 125.72 125.499L123.46 126.799C123.18 126.959 122.74 127.219 122.42 127.399L120.42 126.239C120.42 126.239 120.58 126.159 120.64 126.119L122.24 125.199C122.52 125.039 122.98 124.779 123.26 124.599L124.86 123.679C125.14 123.519 125.38 123.119 125.38 122.799V120.959C125.38 120.639 125.14 120.239 124.86 120.079L123.26 119.159C122.98 118.999 122.52 118.999 122.24 119.159L120.64 120.079C120.36 120.239 119.9 120.499 119.62 120.679L118.02 121.599C117.74 121.759 117.28 122.019 117 122.199L115.4 123.119C115.12 123.279 114.66 123.539 114.38 123.719L112.78 124.639C112.5 124.799 112.26 125.199 112.26 125.519V136.439C112.26 136.759 112.5 137.159 112.78 137.319L114.38 138.239C114.66 138.399 115.12 138.399 115.4 138.239L117 137.319C117.28 137.159 117.52 136.759 117.52 136.439V131.319L119.52 132.479V144.119C119.52 144.479 119.78 144.919 120.08 145.099L122.34 146.399C122.66 146.579 123.16 146.579 123.48 146.399L125.74 145.099C126.06 144.919 126.3 144.479 126.3 144.119V141.519C126.3 141.159 126.3 140.559 126.3 140.199V137.599C126.3 137.399 126.3 137.119 126.3 136.859L128.4 138.059V151.399C128.4 151.759 128.66 152.179 128.96 152.359L131.7 153.939C132 154.119 132.5 154.119 132.82 153.939L135.56 152.359C135.86 152.179 136.12 151.739 136.12 151.399V139.319C136.12 138.959 136.38 138.539 136.68 138.359L139.42 136.779C139.72 136.599 140.22 136.319 140.54 136.139L143.28 134.559C143.58 134.379 144.08 134.099 144.4 133.919L147.14 132.339C147.44 132.159 147.7 131.719 147.7 131.379V128.219C147.7 127.859 147.44 127.439 147.14 127.259V127.199Z" fill="white"/>
<path d="M145.28 151.04C149.201 151.04 152.38 147.861 152.38 143.94C152.38 140.019 149.201 136.84 145.28 136.84C141.358 136.84 138.18 140.019 138.18 143.94C138.18 147.861 141.358 151.04 145.28 151.04Z" fill="white"/>
<path d="M157.18 155.739C159.909 155.739 162.12 153.528 162.12 150.799C162.12 148.071 159.909 145.859 157.18 145.859C154.452 145.859 152.24 148.071 152.24 150.799C152.24 153.528 154.452 155.739 157.18 155.739Z" fill="white"/>
<path d="M87.1993 124.6L85.5993 123.68C85.3193 123.52 84.8593 123.26 84.5793 123.08L82.9793 122.16C82.6993 122 82.2393 121.74 81.9593 121.56L80.3593 120.64C80.0793 120.48 79.6193 120.22 79.3393 120.04L77.7393 119.12C77.4593 118.96 76.9993 118.96 76.7193 119.12L75.1193 120.04C74.8393 120.2 74.5993 120.6 74.5993 120.92V122.76C74.5993 123.08 74.8393 123.48 75.1193 123.64L76.7193 124.56C76.9993 124.72 77.4593 124.98 77.7393 125.16L79.3393 126.08C79.3393 126.08 79.4793 126.16 79.5593 126.2L77.5593 127.36C77.2393 127.18 76.7993 126.92 76.5193 126.76L74.2593 125.46C73.9393 125.28 73.4393 124.98 73.1193 124.8L70.8593 123.5C70.5393 123.32 70.0393 123.02 69.7193 122.84L67.4593 121.54C67.1393 121.36 66.6393 121.36 66.3193 121.54L64.0593 122.84C63.7393 123.02 63.4993 123.46 63.4993 123.82V126.42C63.4993 126.78 63.7593 127.22 64.0593 127.4L66.3193 128.7C66.6393 128.88 67.1393 129.18 67.4593 129.36L69.7193 130.66C69.8993 130.76 70.1393 130.9 70.3593 131.04L68.2593 132.24C67.9593 132.06 67.4593 131.78 67.1593 131.6L64.4193 130.02C64.1193 129.84 63.6193 129.56 63.2993 129.38L60.5593 127.8C60.2593 127.62 59.7593 127.34 59.4393 127.16L56.6993 125.58C56.3993 125.4 55.8993 125.4 55.5793 125.58L52.8393 127.16C52.5393 127.34 52.2793 127.78 52.2793 128.12V131.28C52.2793 131.64 52.5393 132.06 52.8393 132.24L55.5793 133.82C55.8793 134 56.3793 134.28 56.6993 134.46L59.4393 136.04C59.7393 136.22 60.2393 136.5 60.5593 136.68L63.2993 138.26C63.5993 138.44 63.8593 138.88 63.8593 139.22V151.3C63.8593 151.66 64.1193 152.08 64.4193 152.26L67.1593 153.84C67.4593 154.02 67.9593 154.02 68.2793 153.84L71.0193 152.26C71.3193 152.08 71.5793 151.64 71.5793 151.3V137.96L73.6793 136.76V140.1C73.6793 140.46 73.6793 141.06 73.6793 141.42V144.02C73.6793 144.38 73.9393 144.82 74.2393 145L76.4993 146.3C76.8193 146.48 77.3193 146.48 77.6393 146.3L79.8993 145C80.2193 144.82 80.4593 144.38 80.4593 144.02V132.38L82.4593 131.22V136.34C82.4593 136.66 82.6993 137.06 82.9793 137.22L84.5793 138.14C84.8593 138.3 85.3193 138.3 85.5993 138.14L87.1993 137.22C87.4793 137.06 87.7193 136.66 87.7193 136.34V125.42C87.7193 125.1 87.4793 124.7 87.1993 124.54V124.6Z" fill="white"/>
<path d="M54.7191 151.04C58.6404 151.04 61.8191 147.861 61.8191 143.94C61.8191 140.019 58.6404 136.84 54.7191 136.84C50.7979 136.84 47.6191 140.019 47.6191 143.94C47.6191 147.861 50.7979 151.04 54.7191 151.04Z" fill="white"/>
<path d="M42.8209 155.739C45.5491 155.739 47.7609 153.528 47.7609 150.799C47.7609 148.071 45.5491 145.859 42.8209 145.859C40.0926 145.859 37.8809 148.071 37.8809 150.799C37.8809 153.528 40.0926 155.739 42.8209 155.739Z" fill="white"/>
<path d="M16.7193 105.46C19.4476 105.46 21.6593 103.248 21.6593 100.52C21.6593 97.7918 19.4476 95.5801 16.7193 95.5801C13.991 95.5801 11.7793 97.7918 11.7793 100.52C11.7793 103.248 13.991 105.46 16.7193 105.46Z" fill="white"/>
<path d="M183.28 105.46C186.008 105.46 188.22 103.248 188.22 100.52C188.22 97.7918 186.008 95.5801 183.28 95.5801C180.552 95.5801 178.34 97.7918 178.34 100.52C178.34 103.248 180.552 105.46 183.28 105.46Z" fill="white"/>
<path d="M35.5596 99.3609C34.7596 99.3609 32.3596 99.3209 31.1396 99.1209C29.9596 98.9209 29.5996 98.6409 29.5996 97.4209V86.3809C29.5996 85.1809 29.9596 84.8809 31.1396 84.7009C32.2396 84.5409 34.7596 84.4609 35.5596 84.4609C40.0596 84.4609 42.8996 85.3009 42.8996 88.7209V89.0409C42.8996 90.2409 42.1996 91.2209 41.3796 91.7209C42.1996 92.2209 42.9796 93.3609 42.9796 94.4809V94.7009C42.9796 98.8209 38.7796 99.3409 35.5596 99.3409V99.3609ZM37.9396 89.1209C37.9396 88.6609 37.6196 88.1809 36.4596 88.1809H34.6596V90.3609H36.4596C37.5996 90.3609 37.9396 89.9609 37.9396 89.4209V89.1009V89.1209ZM37.9996 94.4209C37.9996 93.7809 37.5996 93.3409 36.4596 93.3409H34.6596V95.6409H36.4596C37.6196 95.6409 37.9996 95.1009 37.9996 94.5209V94.4009V94.4209Z" fill="white"/>
<path d="M58.2401 99.1605H53.9601C53.7201 99.1605 53.5201 98.9805 53.5201 98.7805V94.8805H50.2601V98.7805C50.2601 99.0005 50.0601 99.1605 49.8201 99.1605H45.5401C45.5401 99.1605 45.4401 99.1605 45.3601 99.1205C45.2001 99.0605 45.0801 98.9205 45.0801 98.7605V89.0405C45.0801 85.0405 48.2201 84.4805 50.9801 84.4805H52.7801C55.5401 84.4805 58.6801 85.0405 58.6801 89.0405V98.7605C58.6801 98.9805 58.4601 99.1405 58.2201 99.1405L58.2401 99.1605ZM53.5201 89.0405C53.5201 88.5605 53.3401 88.4205 52.8001 88.4205H51.0001C50.4601 88.4205 50.2801 88.5605 50.2801 89.0405V91.1605H53.5401V89.0405H53.5201Z" fill="white"/>
<path d="M70.3391 99.1412C69.4591 99.2812 68.1591 99.3612 67.0191 99.3612C64.2591 99.3612 61.1191 98.8012 61.1191 94.8012V85.0812C61.1191 84.8612 61.3391 84.7012 61.5791 84.7012H65.8591C66.0991 84.7012 66.2991 84.8812 66.2991 85.0812V94.8012C66.2991 95.2812 66.4791 95.4212 67.0191 95.4212H70.3391C70.5791 95.4212 70.7791 95.6012 70.7791 95.8012V98.7412C70.7791 98.9612 70.5791 99.1012 70.3391 99.1412Z" fill="white"/>
<path d="M82.0189 99.3609C79.6389 99.3609 77.9989 99.2009 76.6389 98.9809C76.1189 98.9009 75.8789 98.7209 75.8789 98.1409V85.6809C75.8789 85.1009 76.1189 84.9209 76.6389 84.8409C77.9989 84.6209 79.6589 84.4609 82.0189 84.4609C86.3789 84.4609 89.2989 86.3809 89.2989 91.0209V92.8009C89.2989 97.4409 86.3789 99.3609 82.0189 99.3609ZM84.0389 91.0409C84.0389 88.9809 83.5589 88.4209 82.0189 88.4209H81.0589V95.4209H82.0189C83.5589 95.4209 84.0389 94.8809 84.0389 92.8009V91.0209V91.0409Z" fill="white"/>
<path d="M101.599 99.1405C100.699 99.2405 99.0993 99.3605 97.1793 99.3605C94.4193 99.3605 91.2793 98.8005 91.2793 94.8005V89.0405C91.2793 85.0405 94.4193 84.4805 97.1793 84.4805C99.0993 84.4805 100.699 84.6005 101.599 84.7005C101.839 84.7005 102.039 84.8805 102.039 85.1005V88.0405C102.039 88.2605 101.839 88.4205 101.599 88.4205H97.1793C96.6393 88.4205 96.4593 88.5605 96.4593 89.0405V90.1005H101.599C101.839 90.1005 102.039 90.2805 102.039 90.4805V93.2205C102.039 93.4405 101.839 93.6005 101.599 93.6005H96.4593V94.7605C96.4593 95.2405 96.6393 95.3805 97.1793 95.3805H101.599C101.839 95.3805 102.039 95.5605 102.039 95.7605V98.7005C102.039 98.9205 101.839 99.0805 101.599 99.1005V99.1405Z" fill="white"/>
<path d="M121.179 99.1605H116.899C116.659 99.1605 116.459 98.9805 116.459 98.7805V90.2605C116.459 88.7205 115.739 88.3805 114.599 88.3805C114.119 88.3805 113.559 88.3805 112.979 88.4605V98.7805C112.979 99.0005 112.759 99.1605 112.519 99.1605H108.259C108.019 99.1605 107.799 98.9805 107.799 98.7805V86.4605C107.799 85.2605 108.159 84.9805 109.339 84.8005C110.439 84.6405 113.179 84.4805 113.979 84.4805C118.579 84.4805 121.659 85.2405 121.659 90.2605V98.7805C121.659 99.0005 121.439 99.1605 121.199 99.1605H121.179Z" fill="white"/>
<path d="M134.279 99.1405C133.379 99.2405 131.779 99.3605 129.859 99.3605C127.099 99.3605 123.939 98.8005 123.939 94.8005V89.0405C123.939 85.0405 127.079 84.4805 129.859 84.4805C131.779 84.4805 133.379 84.6005 134.279 84.7005C134.519 84.7005 134.719 84.8805 134.719 85.1005V88.0405C134.719 88.2605 134.519 88.4205 134.279 88.4205H129.859C129.319 88.4205 129.139 88.5605 129.139 89.0405V90.1005H134.279C134.519 90.1005 134.719 90.2805 134.719 90.4805V93.2205C134.719 93.4405 134.519 93.6005 134.279 93.6005H129.139V94.7605C129.139 95.2405 129.319 95.3805 129.859 95.3805H134.279C134.519 95.3805 134.719 95.5605 134.719 95.7605V98.7005C134.719 98.9205 134.519 99.0805 134.279 99.1005V99.1405Z" fill="white"/>
<path d="M141.98 99.1612H137.7C137.46 99.1612 137.24 98.9812 137.24 98.7812V85.0812C137.24 84.8612 137.46 84.7012 137.7 84.7012H141.98C142.22 84.7012 142.42 84.8812 142.42 85.0812V98.7812C142.42 99.0012 142.22 99.1612 141.98 99.1612Z" fill="white"/>
<path d="M156.859 98.82C155.519 99.08 153.679 99.36 151.599 99.36C148.799 99.36 144.619 98.36 144.619 92.76V91.1C144.619 85.38 148.899 84.5 151.819 84.5C154.199 84.5 155.879 84.86 156.859 85.1C157.299 85.22 157.319 85.28 157.319 85.52V88.38C157.319 88.68 157.259 88.76 156.939 88.74C156.279 88.66 154.419 88.54 153.059 88.54C150.659 88.54 149.879 88.94 149.879 91.1V92.8C149.879 95.36 150.959 95.44 151.619 95.44C151.819 95.44 152.139 95.44 152.339 95.38V91.88C152.339 91.66 152.539 91.5 152.779 91.5H156.879C157.119 91.5 157.319 91.68 157.319 91.88V98.42C157.319 98.76 157.259 98.78 156.859 98.84V98.82Z" fill="white"/>
<path d="M169.959 99.1405C169.059 99.2405 167.459 99.3605 165.539 99.3605C162.779 99.3605 159.619 98.8005 159.619 94.8005V89.0405C159.619 85.0405 162.759 84.4805 165.539 84.4805C167.459 84.4805 169.059 84.6005 169.959 84.7005C170.199 84.7005 170.399 84.8805 170.399 85.1005V88.0405C170.399 88.2605 170.199 88.4205 169.959 88.4205H165.539C164.999 88.4205 164.819 88.5605 164.819 89.0405V90.1005H169.959C170.199 90.1005 170.399 90.2805 170.399 90.4805V93.2205C170.399 93.4405 170.199 93.6005 169.959 93.6005H164.819V94.7605C164.819 95.2405 164.999 95.3805 165.539 95.3805H169.959C170.199 95.3805 170.399 95.5605 170.399 95.7605V98.7005C170.399 98.9205 170.199 99.0805 169.959 99.1005V99.1405Z" fill="white"/>
<path d="M43.4397 116.56C41.5797 116.56 40.3597 116.26 39.4197 115.78C38.4797 116.26 37.2597 116.56 35.3997 116.56C31.9797 116.56 29.6797 115.38 29.6797 111.4V102.28C29.6797 102.06 29.8797 101.9 30.1197 101.9H34.3797C34.6197 101.9 34.8397 102.08 34.8397 102.28V111.4C34.8397 112.32 35.0797 112.5 35.9597 112.5H36.8197V102.28C36.8197 102.06 37.0397 101.9 37.2797 101.9H41.5397C41.7797 101.9 41.9997 102.08 41.9997 102.28V112.5H42.8597C43.7397 112.5 43.9797 112.32 43.9797 111.4V102.28C43.9797 102.06 44.1997 101.9 44.4397 101.9H48.6997C48.9397 101.9 49.1397 102.08 49.1397 102.28V111.4C49.1397 115.38 46.8597 116.56 43.4197 116.56H43.4397Z" fill="white"/>
<path d="M56.4197 116.382H52.1397C51.8997 116.382 51.6797 116.202 51.6797 116.002V102.302C51.6797 102.082 51.8997 101.922 52.1397 101.922H56.4197C56.6597 101.922 56.8597 102.102 56.8597 102.302V116.002C56.8597 116.222 56.6597 116.382 56.4197 116.382Z" fill="white"/>
<path d="M72.7804 116.381H68.5004C68.2604 116.381 68.0604 116.201 68.0604 116.001V107.481C68.0604 105.941 67.3404 105.601 66.2004 105.601C65.7204 105.601 65.1604 105.601 64.5804 105.681V116.001C64.5804 116.221 64.3604 116.381 64.1204 116.381H59.8604C59.6204 116.381 59.4004 116.201 59.4004 116.001V103.681C59.4004 102.481 59.7604 102.201 60.9404 102.021C62.0404 101.861 64.7804 101.701 65.5804 101.701C70.1804 101.701 73.2604 102.461 73.2604 107.481V116.001C73.2604 116.221 73.0404 116.381 72.8004 116.381H72.7804Z" fill="white"/>
<path d="M86.2206 105.642H83.2405V116.002C83.2405 116.222 83.0406 116.382 82.8006 116.382H78.5205C78.2805 116.382 78.0806 116.202 78.0806 116.002V105.642H75.0005C74.7605 105.642 74.5605 105.462 74.5605 105.262V102.302C74.5605 102.082 74.7605 101.922 75.0005 101.922H86.2206C86.4606 101.922 86.6805 102.102 86.6805 102.302V105.262C86.6805 105.482 86.4606 105.642 86.2206 105.642Z" fill="white"/>
<path d="M98.6599 116.361C97.7599 116.461 96.1598 116.581 94.2398 116.581C91.4798 116.581 88.3398 116.021 88.3398 112.021V106.261C88.3398 102.261 91.4798 101.701 94.2398 101.701C96.1598 101.701 97.7599 101.821 98.6599 101.921C98.8999 101.921 99.0998 102.101 99.0998 102.321V105.261C99.0998 105.481 98.8999 105.641 98.6599 105.641H94.2398C93.6998 105.641 93.5198 105.781 93.5198 106.261V107.321H98.6599C98.8999 107.321 99.0998 107.501 99.0998 107.701V110.441C99.0998 110.661 98.8999 110.821 98.6599 110.821H93.5198V111.981C93.5198 112.461 93.6998 112.601 94.2398 112.601H98.6599C98.8999 112.601 99.0998 112.781 99.0998 112.981V115.921C99.0998 116.141 98.8999 116.301 98.6599 116.321V116.361Z" fill="white"/>
<path d="M115.2 116.381H110.6C110.2 116.381 110.12 116.181 110 116.001L107.38 111.421H106.68V116.001C106.68 116.221 106.48 116.381 106.24 116.381H101.96C101.72 116.381 101.5 116.201 101.5 116.001V103.601C101.5 102.401 101.86 102.121 103.04 101.941C103.78 101.841 106.34 101.701 107.86 101.701C112.28 101.701 115.02 102.861 115.02 106.561V106.941C115.02 109.021 113.68 110.261 112.5 110.721L115.54 115.801C115.54 115.801 115.6 115.961 115.6 116.021C115.6 116.241 115.4 116.381 115.2 116.381ZM109.86 106.561C109.86 105.901 109.46 105.521 108.34 105.521H106.7V107.981H108.34C109.44 107.981 109.86 107.481 109.86 106.941V106.561Z" fill="white"/>
<path d="M126.339 116.362C125.459 116.502 124.159 116.582 123.019 116.582C120.259 116.582 117.119 116.022 117.119 112.022V102.302C117.119 102.082 117.339 101.922 117.579 101.922H121.859C122.099 101.922 122.299 102.102 122.299 102.302V112.022C122.299 112.502 122.479 112.642 123.019 112.642H126.339C126.579 112.642 126.779 112.822 126.779 113.022V115.962C126.779 116.182 126.579 116.322 126.339 116.362Z" fill="white"/>
<path d="M140.22 116.26C139.12 116.42 136.38 116.58 135.58 116.58C130.98 116.58 127.9 115.82 127.9 110.8V102.28C127.9 102.06 128.12 101.9 128.36 101.9H132.64C132.88 101.9 133.08 102.08 133.08 102.28V110.8C133.08 112.34 133.8 112.68 134.94 112.68C135.42 112.68 135.98 112.68 136.56 112.6V102.28C136.56 102.06 136.78 101.9 137.02 101.9H141.28C141.52 101.9 141.74 102.08 141.74 102.28V114.6C141.74 115.8 141.38 116.08 140.2 116.26H140.22Z" fill="white"/>
<path d="M150.32 116.56C147.94 116.56 146.3 116.4 144.94 116.18C144.42 116.1 144.18 115.92 144.18 115.34V102.88C144.18 102.3 144.42 102.12 144.94 102.04C146.3 101.82 147.94 101.66 150.32 101.66C154.68 101.66 157.6 103.58 157.6 108.22V110C157.6 114.64 154.68 116.56 150.32 116.56ZM152.34 108.24C152.34 106.18 151.86 105.62 150.32 105.62H149.36V112.62H150.32C151.86 112.62 152.34 112.08 152.34 110V108.22V108.24Z" fill="white"/>
<path d="M169.879 116.361C168.979 116.461 167.379 116.581 165.459 116.581C162.699 116.581 159.539 116.021 159.539 112.021V106.261C159.539 102.261 162.679 101.701 165.459 101.701C167.379 101.701 168.979 101.821 169.879 101.921C170.119 101.921 170.319 102.101 170.319 102.321V105.261C170.319 105.481 170.119 105.641 169.879 105.641H165.459C164.919 105.641 164.739 105.781 164.739 106.261V107.321H169.879C170.119 107.321 170.319 107.501 170.319 107.701V110.441C170.319 110.661 170.119 110.821 169.879 110.821H164.739V111.981C164.739 112.461 164.919 112.601 165.459 112.601H169.879C170.119 112.601 170.319 112.781 170.319 112.981V115.921C170.319 116.141 170.119 116.301 169.879 116.321V116.361Z" fill="white"/>
</g>
<defs>
<clipPath id="clip0_13440_2832">
<rect width="200" height="200" fill="white"/>
</clipPath>
</defs>
</svg>
