<svg width="200" height="200" viewBox="0 0 200 200" fill="none" xmlns="http://www.w3.org/2000/svg">
<g clip-path="url(#clip0_13440_2786)">
<path d="M183.281 83.8205C182.881 83.8205 182.461 83.8205 182.061 83.8605C179.201 77.3005 172.681 72.7206 165.081 72.7206H159.421V69.4806C160.301 68.4806 161.061 67.3805 161.701 66.2405C163.001 65.8805 164.261 65.3405 165.481 64.6405C173.441 60.0405 176.161 49.8405 171.581 41.8805C166.981 33.9205 156.781 31.2005 148.821 35.7805C147.601 36.4805 146.501 37.3205 145.521 38.2605C144.201 38.2405 142.881 38.3605 141.581 38.6205L138.181 36.6605C134.781 34.7205 130.621 34.5805 127.081 36.2805C126.781 32.4005 124.581 28.8405 121.141 26.8405L117.781 24.9005C117.341 23.6405 116.801 22.4205 116.121 21.3005C116.461 20.0005 116.621 18.6205 116.621 17.2205C116.621 8.04055 109.141 0.560547 99.9605 0.560547C90.7805 0.560547 83.3006 8.04055 83.3006 17.2205C83.3006 18.6205 83.4806 20.0005 83.8006 21.3005C83.1206 22.4205 82.5605 23.6405 82.1405 24.9005L78.7606 26.8605C75.3406 28.8405 73.1405 32.4005 72.8405 36.2805C69.3205 34.5805 65.1405 34.7205 61.7005 36.7005L58.3405 38.6405C57.0205 38.3805 55.7005 38.2605 54.3805 38.2805C53.4205 37.3405 52.3205 36.5005 51.1005 35.8005C43.1405 31.2005 32.9405 33.9405 28.3405 41.9005C26.1205 45.7605 25.5205 50.2405 26.6805 54.5405C27.8405 58.8405 30.5805 62.4206 34.4405 64.6606C35.6605 65.3606 36.9205 65.8805 38.2005 66.2405C38.8405 67.4205 39.6205 68.5005 40.5005 69.5005V72.7405H34.8405C27.2405 72.7405 20.7205 77.3405 17.8605 83.8805C17.4605 83.8605 17.0605 83.8405 16.6405 83.8405C7.54055 83.8205 0.0605469 91.3006 0.0605469 100.481C0.0605469 109.661 7.54055 117.141 16.7205 117.141C17.1205 117.141 17.5405 117.141 17.9405 117.101C20.8005 123.661 27.3205 128.241 34.9205 128.241H40.5805V131.481C39.7005 132.481 38.9205 133.561 38.2805 134.741C36.9805 135.121 35.7205 135.641 34.5005 136.341C30.6405 138.561 27.9005 142.161 26.7405 146.461C25.5805 150.761 26.1805 155.241 28.4005 159.101C30.6205 162.961 34.2205 165.701 38.5205 166.861C39.9605 167.241 41.4205 167.441 42.8605 167.441C45.7405 167.441 48.6005 166.681 51.1605 165.201C52.3805 164.501 53.4805 163.661 54.4405 162.721C54.5405 162.721 54.6405 162.721 54.7405 162.721C55.9605 162.721 57.1805 162.601 58.3805 162.361L61.7205 164.301C63.5605 165.361 65.6405 165.901 67.7005 165.901C69.4805 165.901 71.2405 165.501 72.8805 164.721C73.1805 168.641 75.4006 172.201 78.8006 174.161L82.1606 176.101C82.6006 177.361 83.1405 178.581 83.8205 179.701C83.4805 181.001 83.3205 182.381 83.3205 183.781C83.3205 192.961 90.8006 200.441 99.9806 200.441C109.161 200.441 116.641 192.961 116.641 183.781C116.641 182.381 116.461 181.001 116.141 179.701C116.821 178.581 117.381 177.361 117.801 176.101L121.161 174.161C124.581 172.181 126.801 168.621 127.101 164.721C128.741 165.501 130.521 165.901 132.281 165.901C134.341 165.901 136.401 165.361 138.241 164.301L141.601 162.361C142.801 162.601 144.041 162.721 145.241 162.721C145.341 162.721 145.441 162.721 145.541 162.721C146.501 163.661 147.601 164.501 148.821 165.201C151.441 166.721 154.301 167.421 157.121 167.421C162.881 167.421 168.501 164.441 171.581 159.101C176.181 151.141 173.441 140.941 165.481 136.341C164.261 135.641 163.001 135.101 161.681 134.741C161.041 133.601 160.281 132.501 159.401 131.501V128.261H165.061C172.661 128.261 179.181 123.661 182.041 117.121C182.441 117.141 182.841 117.161 183.261 117.161C192.441 117.161 199.921 109.681 199.921 100.501C199.921 91.3205 192.441 83.8405 183.261 83.8405L183.281 83.8205Z" fill="#1C4075"/>
<path d="M183.28 85.6799C182.46 85.6799 181.64 85.7399 180.86 85.8799C178.62 79.3199 172.4 74.5799 165.08 74.5799H157.58V68.7599C158.76 67.5199 159.72 66.1399 160.46 64.6399C161.88 64.3199 163.26 63.7999 164.58 63.0399C171.66 58.9599 174.08 49.8799 170 42.8199C165.92 35.7599 156.84 33.3199 149.78 37.3999C148.46 38.1599 147.3 39.0999 146.32 40.1599C144.66 40.0599 142.96 40.1999 141.3 40.5999C141.2 40.5399 141.08 40.4599 140.98 40.3999L137.3 38.2799C134.22 36.5199 130.38 36.5199 127.26 38.2999L125.32 39.4199V37.1799C125.32 33.5999 123.4 30.2599 120.28 28.4399L116.68 26.3599C116.56 26.2799 116.44 26.2199 116.32 26.1599C115.84 24.5199 115.12 22.9799 114.2 21.5999C114.62 20.2199 114.86 18.7399 114.86 17.2199C114.86 9.05992 108.22 2.41992 100.06 2.41992C91.8995 2.41992 85.2595 9.05992 85.2595 17.2199C85.2595 18.7399 85.4995 20.2199 85.9195 21.5999C84.9995 22.9999 84.2795 24.5199 83.7995 26.1599C83.6795 26.2199 83.5795 26.2799 83.4595 26.3399L79.7995 28.4599C76.6995 30.2599 74.7795 33.5999 74.7795 37.1799V39.4199L72.8195 38.2799C69.7195 36.4999 65.8795 36.4999 62.7595 38.2799L59.1395 40.3799C59.0195 40.4399 58.9195 40.5199 58.7995 40.5999C57.1395 40.1999 55.4595 40.0599 53.7795 40.1599C52.7795 39.0799 51.6195 38.1599 50.3195 37.3999C43.2595 33.3199 34.1795 35.7399 30.0995 42.8199C28.1195 46.2399 27.5995 50.2399 28.6195 54.0599C29.6395 57.8799 32.0995 61.0799 35.5195 63.0599C36.8395 63.8199 38.2195 64.3399 39.6395 64.6599C40.3795 66.1599 41.3395 67.5399 42.5195 68.7799V74.5999H35.0195C27.6995 74.5999 21.4795 79.3399 19.2395 85.8999C18.4595 85.7599 17.6395 85.6999 16.8195 85.6999C8.65953 85.6999 2.01953 92.3399 2.01953 100.5C2.01953 108.66 8.65953 115.3 16.8195 115.3C17.6395 115.3 18.4595 115.24 19.2395 115.1C21.4795 121.66 27.6995 126.4 35.0195 126.4H42.5195V132.2C41.3595 133.42 40.3795 134.8 39.6195 136.32C38.1995 136.64 36.8195 137.18 35.5195 137.94C32.0995 139.92 29.6395 143.12 28.6195 146.94C27.5995 150.76 28.1195 154.76 30.0995 158.18C32.0795 161.6 35.2595 164.06 39.0795 165.08C40.3595 165.42 41.6395 165.6 42.9395 165.6C45.4995 165.6 48.0395 164.92 50.3195 163.6C51.6395 162.84 52.7995 161.9 53.7795 160.84C54.1395 160.86 54.4795 160.88 54.8395 160.88C56.1595 160.88 57.4995 160.72 58.7995 160.4C58.8995 160.46 59.0195 160.54 59.1195 160.6L62.7195 162.68C64.2995 163.6 66.0595 164.06 67.8195 164.06C69.5795 164.06 71.2995 163.6 72.8395 162.7L74.7795 161.58V163.82C74.7795 167.42 76.7195 170.78 79.8195 172.56L83.4795 174.68C83.5795 174.74 83.6995 174.8 83.7995 174.84C84.2795 176.48 84.9995 178.02 85.9195 179.4C85.4995 180.78 85.2595 182.26 85.2595 183.78C85.2595 191.94 91.8995 198.58 100.06 198.58C108.22 198.58 114.86 191.94 114.86 183.78C114.86 182.26 114.62 180.78 114.2 179.4C115.12 178 115.84 176.48 116.32 174.84C116.44 174.78 116.54 174.72 116.66 174.66L120.3 172.56C123.4 170.76 125.34 167.42 125.34 163.82V161.58L127.26 162.68C128.82 163.6 130.58 164.04 132.34 164.04C134.1 164.04 135.82 163.58 137.38 162.68L140.98 160.6C141.1 160.52 141.22 160.46 141.34 160.38C142.66 160.7 143.98 160.86 145.3 160.86C145.66 160.86 146 160.86 146.36 160.82C147.34 161.88 148.5 162.82 149.82 163.58C152.1 164.9 154.64 165.58 157.2 165.58C158.48 165.58 159.78 165.42 161.06 165.06C164.88 164.04 168.08 161.58 170.06 158.16C174.14 151.08 171.72 142.02 164.64 137.94C163.34 137.18 161.94 136.64 160.52 136.32C159.78 134.84 158.82 133.44 157.64 132.22V126.4H165.14C172.46 126.4 178.68 121.66 180.92 115.1C181.7 115.24 182.52 115.3 183.34 115.3C191.5 115.3 198.14 108.66 198.14 100.5C198.14 92.3399 191.5 85.6999 183.34 85.6999L183.28 85.6799Z" fill="white"/>
<path d="M183.28 89.3791C181.38 89.3791 179.6 89.8591 178.02 90.6991C177.74 83.7991 172.04 78.2791 165.08 78.2791H153.76V67.2591C155.68 65.6591 157.08 63.5791 157.84 61.2991C159.5 61.1991 161.18 60.7191 162.72 59.8391C165.28 58.3591 167.12 55.9591 167.9 53.0991C168.68 50.2391 168.28 47.2391 166.8 44.6791C163.74 39.3791 156.94 37.5591 151.64 40.6191C150.12 41.4991 148.86 42.6991 147.94 44.1191C145.52 43.6191 142.96 43.7991 140.56 44.7391C140.14 44.2991 139.68 43.9191 139.14 43.6191L135.48 41.4991C133.52 40.3791 131.1 40.3791 129.12 41.4991L121.62 45.8391V37.1791C121.62 34.9191 120.4 32.7991 118.42 31.6591L114.8 29.5591C114.26 29.2391 113.7 29.0191 113.1 28.8791C112.7 26.3191 111.58 24.0191 109.94 22.1791C110.68 20.6791 111.12 18.9991 111.12 17.2191C111.12 11.0991 106.14 6.11914 100.02 6.11914C93.9002 6.11914 88.9202 11.0991 88.9202 17.2191C88.9202 18.9991 89.3602 20.6791 90.1002 22.1791C88.4602 24.0391 87.3402 26.3391 86.9402 28.8791C86.3602 29.0191 85.8002 29.2391 85.2602 29.5391L81.6002 31.6391C79.6402 32.7791 78.4202 34.8991 78.4202 37.1591V45.8191L70.9002 41.4791C68.9402 40.3591 66.5002 40.3591 64.5202 41.4791L60.9002 43.5791C60.3602 43.8791 59.9002 44.2591 59.4802 44.6991C57.0802 43.7791 54.5202 43.5991 52.1002 44.0791C51.1602 42.6591 49.9002 41.4591 48.4002 40.5791C43.1002 37.5191 36.3002 39.3391 33.2402 44.6391C31.7602 47.1991 31.3602 50.1991 32.1402 53.0591C32.9002 55.9191 34.7402 58.3191 37.3202 59.7991C38.8602 60.6991 40.5402 61.1591 42.2002 61.2591C42.9602 63.5391 44.3402 65.6191 46.2802 67.2191V78.2391H34.9602C28.0002 78.2391 22.3002 83.7591 22.0202 90.6591C20.4602 89.8191 18.6602 89.3391 16.7602 89.3391C10.6402 89.3391 5.66016 94.3191 5.66016 100.439C5.66016 106.559 10.6402 111.539 16.7602 111.539C18.6602 111.539 20.4402 111.059 22.0202 110.219C22.3002 117.119 28.0002 122.639 34.9602 122.639H46.2802V133.659C44.4002 135.219 42.9802 137.279 42.2002 139.639C40.5002 139.739 38.8402 140.219 37.3202 141.099C34.7602 142.579 32.9202 144.979 32.1402 147.839C31.3802 150.699 31.7602 153.699 33.2402 156.259C34.7202 158.819 37.1202 160.659 39.9802 161.439C40.9402 161.699 41.9002 161.819 42.8802 161.819C44.8002 161.819 46.7002 161.319 48.4202 160.319C49.9402 159.439 51.1802 158.239 52.1202 156.839C53.0002 157.019 53.8802 157.119 54.7802 157.119C56.3802 157.119 57.9802 156.819 59.5202 156.239C59.9402 156.659 60.4002 157.039 60.9202 157.339L64.5402 159.419C65.5402 159.999 66.6602 160.299 67.7602 160.299C68.8602 160.299 69.9602 160.019 70.9402 159.439L78.4402 155.099V163.759C78.4402 166.039 79.6602 168.159 81.6402 169.279L85.3002 171.399C85.8202 171.699 86.3802 171.919 86.9602 172.059C87.3602 174.619 88.4802 176.919 90.1202 178.779C89.3802 180.279 88.9402 181.959 88.9402 183.739C88.9402 189.859 93.9202 194.839 100.04 194.839C106.16 194.839 111.14 189.859 111.14 183.739C111.14 181.959 110.7 180.279 109.96 178.779C111.6 176.919 112.72 174.619 113.12 172.059C113.7 171.919 114.26 171.699 114.8 171.399L118.44 169.299C120.4 168.159 121.64 166.039 121.64 163.779V155.119L129.12 159.439C130.12 160.019 131.22 160.299 132.34 160.299C133.46 160.299 134.54 160.019 135.52 159.439L139.14 157.359C139.68 157.059 140.14 156.679 140.56 156.239C142.1 156.839 143.72 157.119 145.3 157.119C146.2 157.119 147.08 157.019 147.96 156.839C148.9 158.259 150.14 159.459 151.66 160.319C153.4 161.319 155.32 161.799 157.2 161.799C161.04 161.799 164.78 159.799 166.84 156.259C168.32 153.699 168.72 150.699 167.94 147.839C167.18 144.979 165.34 142.579 162.76 141.099C161.24 140.219 159.58 139.739 157.88 139.639C157.12 137.359 155.74 135.279 153.8 133.679V122.659H165.12C172.08 122.659 177.78 117.139 178.06 110.239C179.62 111.079 181.42 111.559 183.32 111.559C189.44 111.559 194.42 106.579 194.42 100.459C194.42 94.3391 189.44 89.3591 183.32 89.3591L183.28 89.3791Z" fill="#1C4075"/>
<path d="M103.58 48.3203C103.72 48.2403 104.66 47.7003 105.66 47.1203L105.9 46.9803L109.5 44.9003L109.74 44.7603L113.34 42.6803L113.58 42.5403C114.58 41.9603 115.38 40.5603 115.38 39.4203V39.1403C115.38 38.0003 114.56 36.5803 113.58 36.0203L113.34 35.8803C112.34 35.3003 110.72 35.3003 109.74 35.8803L109.5 36.0203C108.5 36.6003 106.88 37.5403 105.9 38.1003L105.66 38.2403L102.06 40.3203L101.82 40.4603C100.82 41.0403 99.2002 41.0403 98.2202 40.4603L97.9802 40.3203L94.3801 38.2403L94.1402 38.1003C93.1402 37.5203 91.5202 36.5803 90.5402 36.0203L90.3002 35.8803C89.3002 35.3003 87.6801 35.3003 86.7001 35.8803L86.4602 36.0203C85.4602 36.6003 84.6602 38.0003 84.6602 39.1403V39.4203C84.6602 40.5603 85.4802 41.9803 86.4602 42.5403L86.7001 42.6803L90.3002 44.7603L90.5402 44.9003L94.1402 46.9803L94.3801 47.1203C95.3801 47.7003 96.3002 48.2403 96.4602 48.3203C96.6202 48.4003 96.7202 49.0203 96.7202 49.6803C96.7202 50.3403 96.7202 50.8803 96.6802 50.8603C96.6402 50.8403 95.8802 50.4003 94.9402 49.8603C94.0002 49.3203 92.4802 48.4403 91.5402 47.9003C90.6002 47.3603 89.0802 47.3603 88.1402 47.9003C87.2002 48.4403 86.4402 49.7603 86.4402 50.8403C86.4402 51.9203 87.2002 53.2403 88.1402 53.7803L91.5402 55.7403L94.9402 57.7003C95.8802 58.2403 96.7401 58.7403 96.8801 58.8203C97.0201 58.9003 97.1202 59.4803 97.1202 60.1203C97.1202 60.7603 96.6002 60.9803 95.9602 60.6003C95.3202 60.2203 94.2002 59.5803 93.4802 59.1803C92.7602 58.7803 91.5802 58.7603 90.8602 59.1803C90.1402 59.6003 89.5402 60.6203 89.5402 61.4603C89.5402 62.3003 90.1202 63.3203 90.8602 63.7403L93.4802 65.2603L96.1002 66.7803L98.7202 68.3003C99.4402 68.7203 100.62 68.7203 101.34 68.3003L103.96 66.7803L106.58 65.2603L109.2 63.7403C109.92 63.3203 110.52 62.3003 110.52 61.4603C110.52 60.6203 109.94 59.6003 109.2 59.1803C108.46 58.7603 107.3 58.7603 106.58 59.1803C105.86 59.6003 104.74 60.2403 104.1 60.6003C103.46 60.9603 102.94 60.7403 102.94 60.1203C102.94 59.5003 103.04 58.9003 103.18 58.8203C103.32 58.7403 104.18 58.2403 105.12 57.7003C106.06 57.1603 107.58 56.2803 108.52 55.7403C109.46 55.2003 110.98 54.3203 111.92 53.7803C112.86 53.2403 113.62 51.9203 113.62 50.8403C113.62 49.7603 112.86 48.4403 111.92 47.9003C110.98 47.3603 109.46 47.3603 108.52 47.9003C107.58 48.4403 106.06 49.3203 105.12 49.8603C104.18 50.4003 103.4 50.8403 103.38 50.8603C103.36 50.8803 103.34 50.3403 103.34 49.6803C103.34 49.0203 103.46 48.4003 103.6 48.3203H103.58Z" fill="white"/>
<path d="M100 38.0203C103.922 38.0203 107.1 34.8415 107.1 30.9203C107.1 26.9991 103.922 23.8203 100 23.8203C96.0792 23.8203 92.9004 26.9991 92.9004 30.9203C92.9004 34.8415 96.0792 38.0203 100 38.0203Z" fill="white"/>
<path d="M100.001 22.1398C102.729 22.1398 104.941 19.9281 104.941 17.1998C104.941 14.4715 102.729 12.2598 100.001 12.2598C97.2723 12.2598 95.0605 14.4715 95.0605 17.1998C95.0605 19.9281 97.2723 22.1398 100.001 22.1398Z" fill="white"/>
<path d="M147.14 68.6998L144.4 67.1198C144.1 66.9398 143.6 66.6598 143.28 66.4798L140.54 64.8998C140.24 64.7198 139.74 64.4398 139.42 64.2598L136.68 62.6798C136.38 62.4998 136.12 62.0598 136.12 61.7198V49.6398C136.12 49.2798 135.86 48.8598 135.56 48.6798L132.82 47.0998C132.52 46.9198 132.02 46.9198 131.7 47.0998L128.96 48.6798C128.66 48.8598 128.4 49.2998 128.4 49.6398V62.9798L126.3 64.1798V60.8398C126.3 60.4798 126.3 59.8798 126.3 59.5198V56.9198C126.3 56.5598 126.04 56.1198 125.74 55.9398L123.48 54.6398C123.16 54.4598 122.66 54.4598 122.34 54.6398L120.08 55.9398C119.76 56.1198 119.52 56.5598 119.52 56.9198V68.5598L117.52 69.7198V64.5998C117.52 64.2798 117.28 63.8798 117 63.7198L115.4 62.7998C115.12 62.6398 114.66 62.6398 114.38 62.7998L112.78 63.7198C112.5 63.8798 112.26 64.2798 112.26 64.5998V75.5198C112.26 75.8398 112.5 76.2398 112.78 76.3998L114.38 77.3198C114.66 77.4798 115.12 77.7398 115.4 77.9198L117 78.8398C117.28 78.9998 117.74 79.2598 118.02 79.4398L119.62 80.3598C119.9 80.5198 120.36 80.7798 120.64 80.9598L122.24 81.8798C122.52 82.0398 122.98 82.0398 123.26 81.8798L124.86 80.9598C125.14 80.7998 125.38 80.3998 125.38 80.0798V78.2398C125.38 77.9198 125.14 77.5198 124.86 77.3598L123.26 76.4398C122.98 76.2798 122.52 76.0198 122.24 75.8398L120.64 74.9198C120.64 74.9198 120.5 74.8398 120.42 74.7998L122.42 73.6398C122.74 73.8198 123.18 74.0798 123.46 74.2398L125.72 75.5398C126.04 75.7198 126.54 76.0198 126.86 76.1998L129.12 77.4998C129.44 77.6798 129.94 77.9798 130.26 78.1598L132.52 79.4598C132.84 79.6398 133.34 79.6398 133.66 79.4598L135.92 78.1598C136.24 77.9798 136.48 77.5398 136.48 77.1798V74.5798C136.48 74.2198 136.22 73.7798 135.92 73.5998L133.66 72.2998C133.34 72.1198 132.84 71.8198 132.52 71.6398L130.26 70.3398C130.08 70.2398 129.84 70.0998 129.62 69.9598L131.72 68.7598C132.02 68.9398 132.52 69.2198 132.82 69.3998L135.56 70.9798C135.86 71.1598 136.36 71.4398 136.68 71.6198L139.42 73.1998C139.72 73.3798 140.22 73.6598 140.54 73.8398L143.28 75.4198C143.58 75.5998 144.08 75.5998 144.4 75.4198L147.14 73.8398C147.44 73.6598 147.7 73.2198 147.7 72.8798V69.7198C147.7 69.3598 147.44 68.9398 147.14 68.7598V68.6998Z" fill="white"/>
<path d="M145.28 64.1609C149.201 64.1609 152.38 60.9822 152.38 57.0609C152.38 53.1397 149.201 49.9609 145.28 49.9609C141.358 49.9609 138.18 53.1397 138.18 57.0609C138.18 60.9822 141.358 64.1609 145.28 64.1609Z" fill="white"/>
<path d="M157.18 55.1398C159.909 55.1398 162.12 52.9281 162.12 50.1998C162.12 47.4715 159.909 45.2598 157.18 45.2598C154.452 45.2598 152.24 47.4715 152.24 50.1998C152.24 52.9281 154.452 55.1398 157.18 55.1398Z" fill="white"/>
<path d="M87.1993 63.7003L85.5993 62.7803C85.3193 62.6203 84.8593 62.6203 84.5793 62.7803L82.9793 63.7003C82.6993 63.8603 82.4593 64.2603 82.4593 64.5803V69.7003L80.4593 68.5403V56.9003C80.4593 56.5403 80.1993 56.1003 79.8993 55.9203L77.6393 54.6203C77.3193 54.4403 76.8193 54.4403 76.4993 54.6203L74.2393 55.9203C73.9193 56.1003 73.6793 56.5403 73.6793 56.9003V59.5003C73.6793 59.8603 73.6793 60.4603 73.6793 60.8203V63.4203C73.6793 63.6203 73.6793 63.9003 73.6793 64.1603L71.5793 62.9603V49.6203C71.5793 49.2603 71.3193 48.8403 71.0193 48.6603L68.2793 47.0803C67.9793 46.9003 67.4793 46.9003 67.1593 47.0803L64.4193 48.6603C64.1193 48.8403 63.8593 49.2803 63.8593 49.6203V61.7003C63.8593 62.0603 63.5993 62.4803 63.2993 62.6603L60.5593 64.2403C60.2593 64.4203 59.7593 64.7003 59.4393 64.8803L56.6993 66.4603C56.3993 66.6403 55.8993 66.9203 55.5793 67.1003L52.8393 68.6803C52.5393 68.8603 52.2793 69.3003 52.2793 69.6403V72.8003C52.2793 73.1603 52.5393 73.5803 52.8393 73.7603L55.5793 75.3403C55.8793 75.5203 56.3793 75.5203 56.6993 75.3403L59.4393 73.7603C59.7393 73.5803 60.2393 73.3003 60.5593 73.1203L63.2993 71.5403C63.5993 71.3603 64.0993 71.0803 64.4193 70.9003L67.1593 69.3203C67.4593 69.1403 67.9393 68.8603 68.2593 68.6803L70.3593 69.8803C70.1193 70.0203 69.8793 70.1603 69.7193 70.2603L67.4593 71.5603C67.1393 71.7403 66.6393 72.0403 66.3193 72.2203L64.0593 73.5203C63.7393 73.7003 63.4993 74.1403 63.4993 74.5003V77.1003C63.4993 77.4603 63.7593 77.9003 64.0593 78.0803L66.3193 79.3803C66.6393 79.5603 67.1393 79.5603 67.4593 79.3803L69.7193 78.0803C70.0393 77.9003 70.5393 77.6003 70.8593 77.4203L73.1193 76.1203C73.4393 75.9403 73.9393 75.6403 74.2593 75.4603L76.5193 74.1603C76.7993 74.0003 77.2393 73.7403 77.5593 73.5603L79.5593 74.7203C79.5593 74.7203 79.3993 74.8003 79.3393 74.8403L77.7393 75.7603C77.4593 75.9203 76.9993 76.1803 76.7193 76.3603L75.1193 77.2803C74.8393 77.4403 74.5993 77.8403 74.5993 78.1603V80.0003C74.5993 80.3203 74.8393 80.7203 75.1193 80.8803L76.7193 81.8003C76.9993 81.9603 77.4593 81.9603 77.7393 81.8003L79.3393 80.8803C79.6193 80.7203 80.0793 80.4603 80.3593 80.2803L81.9593 79.3603C82.2393 79.2003 82.6993 78.9403 82.9793 78.7603L84.5793 77.8403C84.8593 77.6803 85.3193 77.4203 85.5993 77.2403L87.1993 76.3203C87.4793 76.1603 87.7193 75.7603 87.7193 75.4403V64.5203C87.7193 64.2003 87.4793 63.8003 87.1993 63.6403V63.7003Z" fill="white"/>
<path d="M54.7191 64.1609C58.6404 64.1609 61.8191 60.9822 61.8191 57.0609C61.8191 53.1397 58.6404 49.9609 54.7191 49.9609C50.7979 49.9609 47.6191 53.1397 47.6191 57.0609C47.6191 60.9822 50.7979 64.1609 54.7191 64.1609Z" fill="white"/>
<path d="M42.8209 55.1398C45.5491 55.1398 47.7609 52.9281 47.7609 50.1998C47.7609 47.4715 45.5491 45.2598 42.8209 45.2598C40.0926 45.2598 37.8809 47.4715 37.8809 50.1998C37.8809 52.9281 40.0926 55.1398 42.8209 55.1398Z" fill="white"/>
<path d="M114.861 159.16L112.121 157.58C111.821 157.4 111.321 157.12 111.001 156.94L108.261 155.36C107.961 155.18 107.461 154.9 107.141 154.72L104.401 153.14C104.101 152.96 103.621 152.68 103.301 152.5V150.08C103.541 150.22 103.781 150.36 103.941 150.46L106.201 151.76C106.521 151.94 107.021 152.24 107.341 152.42L109.601 153.72C109.921 153.9 110.421 153.9 110.741 153.72L113.001 152.42C113.321 152.24 113.561 151.8 113.561 151.44V148.84C113.561 148.48 113.301 148.04 113.001 147.86L110.741 146.56C110.421 146.38 109.921 146.08 109.601 145.9L107.341 144.6C107.021 144.42 106.521 144.12 106.201 143.94L103.941 142.64C103.661 142.48 103.221 142.22 102.901 142.04V139.72C102.901 139.72 103.061 139.8 103.121 139.84L104.721 140.76C105.001 140.92 105.461 141.18 105.741 141.36L107.341 142.28C107.621 142.44 108.081 142.44 108.361 142.28L109.961 141.36C110.241 141.2 110.481 140.8 110.481 140.48V138.64C110.481 138.32 110.241 137.92 109.961 137.76L108.361 136.84C108.081 136.68 107.621 136.42 107.341 136.24L105.741 135.32C105.461 135.16 105.001 134.9 104.721 134.72L103.121 133.8C102.841 133.64 102.381 133.38 102.101 133.2L100.501 132.28C100.221 132.12 99.7606 132.12 99.4806 132.28L97.8805 133.2C97.6005 133.36 97.1405 133.62 96.8605 133.8L95.2606 134.72C94.9806 134.88 94.5205 135.14 94.2405 135.32L92.6405 136.24C92.3605 136.4 91.9006 136.66 91.6206 136.84L90.0205 137.76C89.7405 137.92 89.5005 138.32 89.5005 138.64V140.48C89.5005 140.8 89.7405 141.2 90.0205 141.36L91.6206 142.28C91.9006 142.44 92.3605 142.44 92.6405 142.28L94.2405 141.36C94.5205 141.2 94.9806 140.94 95.2606 140.76L96.8605 139.84C96.8605 139.84 97.0006 139.76 97.0806 139.72V142.04C96.7606 142.22 96.3206 142.48 96.0406 142.64L93.7805 143.94C93.4605 144.12 92.9605 144.42 92.6405 144.6L90.3805 145.9C90.0605 146.08 89.5605 146.38 89.2405 146.56L86.9806 147.86C86.6606 148.04 86.4205 148.48 86.4205 148.84V151.44C86.4205 151.8 86.6806 152.24 86.9806 152.42L89.2405 153.72C89.5605 153.9 90.0605 153.9 90.3805 153.72L92.6405 152.42C92.9605 152.24 93.4605 151.94 93.7805 151.76L96.0406 150.46C96.2206 150.36 96.4605 150.22 96.6805 150.08V152.5C96.3805 152.68 95.8806 152.96 95.5806 153.14L92.8405 154.72C92.5405 154.9 92.0406 155.18 91.7206 155.36L88.9806 156.94C88.6806 157.12 88.1805 157.4 87.8605 157.58L85.1206 159.16C84.8206 159.34 84.5605 159.78 84.5605 160.12V163.28C84.5605 163.64 84.8206 164.06 85.1206 164.24L87.8605 165.82C88.1605 166 88.6606 166 88.9806 165.82L91.7206 164.24C92.0206 164.06 92.5205 163.78 92.8405 163.6L95.5806 162.02C95.8806 161.84 96.3805 161.56 96.7005 161.38L99.4406 159.8C99.7406 159.62 100.241 159.62 100.561 159.8L103.301 161.38C103.601 161.56 104.101 161.84 104.421 162.02L107.161 163.6C107.461 163.78 107.961 164.06 108.281 164.24L111.021 165.82C111.321 166 111.821 166 112.141 165.82L114.881 164.24C115.181 164.06 115.441 163.62 115.441 163.28V160.12C115.441 159.76 115.181 159.34 114.881 159.16H114.861Z" fill="white"/>
<path d="M100 177.139C103.922 177.139 107.1 173.961 107.1 170.039C107.1 166.118 103.922 162.939 100 162.939C96.0792 162.939 92.9004 166.118 92.9004 170.039C92.9004 173.961 96.0792 177.139 100 177.139Z" fill="white"/>
<path d="M100.001 188.7C102.729 188.7 104.941 186.489 104.941 183.76C104.941 181.032 102.729 178.82 100.001 178.82C97.2723 178.82 95.0605 181.032 95.0605 183.76C95.0605 186.489 97.2723 188.7 100.001 188.7Z" fill="white"/>
<path d="M147.14 127.16L144.4 125.58C144.1 125.4 143.6 125.4 143.28 125.58L140.54 127.16C140.24 127.34 139.74 127.62 139.42 127.8L136.68 129.38C136.38 129.56 135.88 129.84 135.56 130.02L132.82 131.6C132.52 131.78 132.04 132.06 131.72 132.24L129.62 131.04C129.86 130.9 130.1 130.76 130.26 130.66L132.52 129.36C132.84 129.18 133.34 128.88 133.66 128.7L135.92 127.4C136.24 127.22 136.48 126.78 136.48 126.42V123.82C136.48 123.46 136.22 123.02 135.92 122.84L133.66 121.54C133.34 121.36 132.84 121.36 132.52 121.54L130.26 122.84C129.94 123.02 129.44 123.32 129.12 123.5L126.86 124.8C126.54 124.98 126.04 125.28 125.72 125.46L123.46 126.76C123.18 126.92 122.74 127.18 122.42 127.36L120.42 126.2C120.42 126.2 120.58 126.12 120.64 126.08L122.24 125.16C122.52 125 122.98 124.74 123.26 124.56L124.86 123.64C125.14 123.48 125.38 123.08 125.38 122.76V120.92C125.38 120.6 125.14 120.2 124.86 120.04L123.26 119.12C122.98 118.96 122.52 118.96 122.24 119.12L120.64 120.04C120.36 120.2 119.9 120.46 119.62 120.64L118.02 121.56C117.74 121.72 117.28 121.98 117 122.16L115.4 123.08C115.12 123.24 114.66 123.5 114.38 123.68L112.78 124.6C112.5 124.76 112.26 125.16 112.26 125.48V136.4C112.26 136.72 112.5 137.12 112.78 137.28L114.38 138.2C114.66 138.36 115.12 138.36 115.4 138.2L117 137.28C117.28 137.12 117.52 136.72 117.52 136.4V131.28L119.52 132.44V144.08C119.52 144.44 119.78 144.88 120.08 145.06L122.34 146.36C122.66 146.54 123.16 146.54 123.48 146.36L125.74 145.06C126.06 144.88 126.3 144.44 126.3 144.08V141.48C126.3 141.12 126.3 140.52 126.3 140.16V137.56C126.3 137.36 126.3 137.08 126.3 136.82L128.4 138.02V151.36C128.4 151.72 128.66 152.14 128.96 152.32L131.7 153.9C132 154.08 132.5 154.08 132.82 153.9L135.56 152.32C135.86 152.14 136.12 151.7 136.12 151.36V139.28C136.12 138.92 136.38 138.5 136.68 138.32L139.42 136.74C139.72 136.56 140.22 136.28 140.54 136.1L143.28 134.52C143.58 134.34 144.08 134.06 144.4 133.88L147.14 132.3C147.44 132.12 147.7 131.68 147.7 131.34V128.18C147.7 127.82 147.44 127.4 147.14 127.22V127.16Z" fill="white"/>
<path d="M145.28 151.001C149.201 151.001 152.38 147.822 152.38 143.901C152.38 139.98 149.201 136.801 145.28 136.801C141.358 136.801 138.18 139.98 138.18 143.901C138.18 147.822 141.358 151.001 145.28 151.001Z" fill="white"/>
<path d="M157.18 155.7C159.909 155.7 162.12 153.489 162.12 150.76C162.12 148.032 159.909 145.82 157.18 145.82C154.452 145.82 152.24 148.032 152.24 150.76C152.24 153.489 154.452 155.7 157.18 155.7Z" fill="white"/>
<path d="M87.1993 124.561L85.5993 123.641C85.3193 123.481 84.8593 123.221 84.5793 123.041L82.9793 122.121C82.6993 121.961 82.2393 121.701 81.9593 121.521L80.3593 120.601C80.0793 120.441 79.6193 120.181 79.3393 120.001L77.7393 119.081C77.4593 118.921 76.9993 118.921 76.7193 119.081L75.1193 120.001C74.8393 120.161 74.5993 120.561 74.5993 120.881V122.721C74.5993 123.041 74.8393 123.441 75.1193 123.601L76.7193 124.521C76.9993 124.681 77.4593 124.941 77.7393 125.121L79.3393 126.041C79.3393 126.041 79.4793 126.121 79.5593 126.161L77.5593 127.321C77.2393 127.141 76.7993 126.881 76.5193 126.721L74.2593 125.421C73.9393 125.241 73.4393 124.941 73.1193 124.761L70.8593 123.461C70.5393 123.281 70.0393 122.981 69.7193 122.801L67.4593 121.501C67.1393 121.321 66.6393 121.321 66.3193 121.501L64.0593 122.801C63.7393 122.981 63.4993 123.421 63.4993 123.781V126.381C63.4993 126.741 63.7593 127.181 64.0593 127.361L66.3193 128.661C66.6393 128.841 67.1393 129.141 67.4593 129.321L69.7193 130.621C69.8993 130.721 70.1393 130.861 70.3593 131.001L68.2593 132.201C67.9593 132.021 67.4593 131.741 67.1593 131.561L64.4193 129.981C64.1193 129.801 63.6193 129.521 63.2993 129.341L60.5593 127.761C60.2593 127.581 59.7593 127.301 59.4393 127.121L56.6993 125.541C56.3993 125.361 55.8993 125.361 55.5793 125.541L52.8393 127.121C52.5393 127.301 52.2793 127.741 52.2793 128.081V131.241C52.2793 131.601 52.5393 132.021 52.8393 132.201L55.5793 133.781C55.8793 133.961 56.3793 134.241 56.6993 134.421L59.4393 136.001C59.7393 136.181 60.2393 136.461 60.5593 136.641L63.2993 138.221C63.5993 138.401 63.8593 138.841 63.8593 139.181V151.261C63.8593 151.621 64.1193 152.041 64.4193 152.221L67.1593 153.801C67.4593 153.981 67.9593 153.981 68.2793 153.801L71.0193 152.221C71.3193 152.041 71.5793 151.601 71.5793 151.261V137.921L73.6793 136.721V140.061C73.6793 140.421 73.6793 141.021 73.6793 141.381V143.981C73.6793 144.341 73.9393 144.781 74.2393 144.961L76.4993 146.261C76.8193 146.441 77.3193 146.441 77.6393 146.261L79.8993 144.961C80.2193 144.781 80.4593 144.341 80.4593 143.981V132.341L82.4593 131.181V136.301C82.4593 136.621 82.6993 137.021 82.9793 137.181L84.5793 138.101C84.8593 138.261 85.3193 138.261 85.5993 138.101L87.1993 137.181C87.4793 137.021 87.7193 136.621 87.7193 136.301V125.381C87.7193 125.061 87.4793 124.661 87.1993 124.501V124.561Z" fill="white"/>
<path d="M54.7191 151.001C58.6404 151.001 61.8191 147.822 61.8191 143.901C61.8191 139.98 58.6404 136.801 54.7191 136.801C50.7979 136.801 47.6191 139.98 47.6191 143.901C47.6191 147.822 50.7979 151.001 54.7191 151.001Z" fill="white"/>
<path d="M42.8209 155.7C45.5491 155.7 47.7609 153.489 47.7609 150.76C47.7609 148.032 45.5491 145.82 42.8209 145.82C40.0926 145.82 37.8809 148.032 37.8809 150.76C37.8809 153.489 40.0926 155.7 42.8209 155.7Z" fill="white"/>
<path d="M16.7193 105.419C19.4476 105.419 21.6593 103.207 21.6593 100.479C21.6593 97.7508 19.4476 95.5391 16.7193 95.5391C13.991 95.5391 11.7793 97.7508 11.7793 100.479C11.7793 103.207 13.991 105.419 16.7193 105.419Z" fill="white"/>
<path d="M183.28 105.419C186.008 105.419 188.22 103.207 188.22 100.479C188.22 97.7508 186.008 95.5391 183.28 95.5391C180.552 95.5391 178.34 97.7508 178.34 100.479C178.34 103.207 180.552 105.419 183.28 105.419Z" fill="white"/>
<path d="M43.4397 99.3202C41.5797 99.3202 40.3597 99.0202 39.4197 98.5402C38.4797 99.0202 37.2597 99.3202 35.3997 99.3202C31.9797 99.3202 29.6797 98.1402 29.6797 94.1602V85.0402C29.6797 84.8202 29.8797 84.6602 30.1197 84.6602H34.3797C34.6197 84.6602 34.8397 84.8402 34.8397 85.0402V94.1602C34.8397 95.0802 35.0797 95.2602 35.9597 95.2602H36.8197V85.0402C36.8197 84.8202 37.0397 84.6602 37.2797 84.6602H41.5397C41.7797 84.6602 41.9997 84.8402 41.9997 85.0402V95.2602H42.8597C43.7397 95.2602 43.9797 95.0802 43.9797 94.1602V85.0402C43.9797 84.8202 44.1997 84.6602 44.4397 84.6602H48.6997C48.9397 84.6602 49.1397 84.8402 49.1397 85.0402V94.1602C49.1397 98.1402 46.8597 99.3202 43.4197 99.3202H43.4397Z" fill="white"/>
<path d="M56.4197 99.1202H52.1397C51.8997 99.1202 51.6797 98.9402 51.6797 98.7402V85.0402C51.6797 84.8202 51.8997 84.6602 52.1397 84.6602H56.4197C56.6597 84.6602 56.8597 84.8402 56.8597 85.0402V98.7402C56.8597 98.9602 56.6597 99.1202 56.4197 99.1202Z" fill="white"/>
<path d="M72.7804 99.1195H68.5004C68.2604 99.1195 68.0604 98.9394 68.0604 98.7394V90.2195C68.0604 88.6795 67.3404 88.3394 66.2004 88.3394C65.7204 88.3394 65.1604 88.3394 64.5804 88.4194V98.7394C64.5804 98.9594 64.3604 99.1195 64.1204 99.1195H59.8604C59.6204 99.1195 59.4004 98.9394 59.4004 98.7394V86.4194C59.4004 85.2194 59.7604 84.9395 60.9404 84.7595C62.0404 84.5995 64.7804 84.4395 65.5804 84.4395C70.1804 84.4395 73.2604 85.1995 73.2604 90.2195V98.7394C73.2604 98.9594 73.0404 99.1195 72.8004 99.1195H72.7804Z" fill="white"/>
<path d="M86.2206 88.3801H83.2405V98.7402C83.2405 98.9602 83.0406 99.1202 82.8006 99.1202H78.5205C78.2805 99.1202 78.0806 98.9402 78.0806 98.7402V88.3801H75.0005C74.7605 88.3801 74.5605 88.2002 74.5605 88.0002V85.0402C74.5605 84.8202 74.7605 84.6602 75.0005 84.6602H86.2206C86.4606 84.6602 86.6805 84.8402 86.6805 85.0402V88.0002C86.6805 88.2202 86.4606 88.3801 86.2206 88.3801Z" fill="white"/>
<path d="M98.6599 99.0994C97.7599 99.1994 96.1598 99.3195 94.2398 99.3195C91.4798 99.3195 88.3398 98.7595 88.3398 94.7595V88.9995C88.3398 84.9995 91.4798 84.4395 94.2398 84.4395C96.1598 84.4395 97.7599 84.5595 98.6599 84.6595C98.8999 84.6595 99.0998 84.8394 99.0998 85.0594V87.9995C99.0998 88.2195 98.8999 88.3794 98.6599 88.3794H94.2398C93.6998 88.3794 93.5198 88.5195 93.5198 88.9995V90.0594H98.6599C98.8999 90.0594 99.0998 90.2395 99.0998 90.4395V93.1795C99.0998 93.3995 98.8999 93.5594 98.6599 93.5594H93.5198V94.7195C93.5198 95.1995 93.6998 95.3394 94.2398 95.3394H98.6599C98.8999 95.3394 99.0998 95.5195 99.0998 95.7195V98.6595C99.0998 98.8795 98.8999 99.0394 98.6599 99.0594V99.0994Z" fill="white"/>
<path d="M115.2 99.1195H110.6C110.2 99.1195 110.12 98.9194 110 98.7394L107.38 94.1595H106.68V98.7394C106.68 98.9594 106.48 99.1195 106.24 99.1195H101.96C101.72 99.1195 101.5 98.9394 101.5 98.7394V86.3394C101.5 85.1394 101.86 84.8595 103.04 84.6795C103.78 84.5795 106.34 84.4395 107.86 84.4395C112.28 84.4395 115.02 85.5995 115.02 89.2995V89.6795C115.02 91.7595 113.68 92.9994 112.5 93.4594L115.54 98.5395C115.54 98.5395 115.6 98.6995 115.6 98.7595C115.6 98.9795 115.4 99.1195 115.2 99.1195ZM109.86 89.2995C109.86 88.6395 109.46 88.2595 108.34 88.2595H106.7V90.7195H108.34C109.44 90.7195 109.86 90.2195 109.86 89.6795V89.2995Z" fill="white"/>
<path d="M126.339 99.1002C125.459 99.2402 124.159 99.3202 123.019 99.3202C120.259 99.3202 117.119 98.7602 117.119 94.7602V85.0402C117.119 84.8202 117.339 84.6602 117.579 84.6602H121.859C122.099 84.6602 122.299 84.8402 122.299 85.0402V94.7602C122.299 95.2402 122.479 95.3801 123.019 95.3801H126.339C126.579 95.3801 126.779 95.5602 126.779 95.7602V98.7001C126.779 98.9201 126.579 99.0602 126.339 99.1002Z" fill="white"/>
<path d="M140.22 99.0006C139.12 99.1606 136.38 99.3206 135.58 99.3206C130.98 99.3206 127.9 98.5606 127.9 93.5406V85.0206C127.9 84.8006 128.12 84.6406 128.36 84.6406H132.64C132.88 84.6406 133.08 84.8206 133.08 85.0206V93.5406C133.08 95.0806 133.8 95.4206 134.94 95.4206C135.42 95.4206 135.98 95.4206 136.56 95.3406V85.0206C136.56 84.8006 136.78 84.6406 137.02 84.6406H141.28C141.52 84.6406 141.74 84.8206 141.74 85.0206V97.3406C141.74 98.5406 141.38 98.8206 140.2 99.0006H140.22Z" fill="white"/>
<path d="M150.32 99.3199C147.94 99.3199 146.3 99.1599 144.94 98.9399C144.42 98.8599 144.18 98.6799 144.18 98.0999V85.6399C144.18 85.0599 144.42 84.8799 144.94 84.7999C146.3 84.5799 147.94 84.4199 150.32 84.4199C154.68 84.4199 157.6 86.3399 157.6 90.9799V92.7599C157.6 97.3999 154.68 99.3199 150.32 99.3199ZM152.34 90.9799C152.34 88.9199 151.86 88.3599 150.32 88.3599H149.36V95.3599H150.32C151.86 95.3599 152.34 94.8199 152.34 92.7399V90.9599V90.9799Z" fill="white"/>
<path d="M169.879 99.0994C168.979 99.1994 167.379 99.3195 165.459 99.3195C162.699 99.3195 159.539 98.7595 159.539 94.7595V88.9995C159.539 84.9995 162.679 84.4395 165.459 84.4395C167.379 84.4395 168.979 84.5595 169.879 84.6595C170.119 84.6595 170.319 84.8394 170.319 85.0594V87.9995C170.319 88.2195 170.119 88.3794 169.879 88.3794H165.459C164.919 88.3794 164.739 88.5195 164.739 88.9995V90.0594H169.879C170.119 90.0594 170.319 90.2395 170.319 90.4395V93.1795C170.319 93.3995 170.119 93.5594 169.879 93.5594H164.739V94.7195C164.739 95.1995 164.919 95.3394 165.459 95.3394H169.879C170.119 95.3394 170.319 95.5195 170.319 95.7195V98.6595C170.319 98.8795 170.119 99.0394 169.879 99.0594V99.0994Z" fill="white"/>
<path d="M35.5596 116.519C34.7596 116.519 32.3596 116.479 31.1396 116.279C29.9596 116.079 29.5996 115.799 29.5996 114.579V103.539C29.5996 102.339 29.9596 102.039 31.1396 101.859C32.2396 101.699 34.7596 101.619 35.5596 101.619C40.0596 101.619 42.8996 102.459 42.8996 105.879V106.199C42.8996 107.399 42.1996 108.379 41.3796 108.879C42.1996 109.379 42.9796 110.519 42.9796 111.639V111.859C42.9796 115.979 38.7796 116.499 35.5596 116.499V116.519ZM37.9396 106.279C37.9396 105.819 37.6196 105.339 36.4596 105.339H34.6596V107.519H36.4596C37.5996 107.519 37.9396 107.119 37.9396 106.579V106.259V106.279ZM37.9996 111.579C37.9996 110.939 37.5996 110.499 36.4596 110.499H34.6596V112.799H36.4596C37.6196 112.799 37.9996 112.259 37.9996 111.679V111.559V111.579Z" fill="white"/>
<path d="M58.2401 116.321H53.9601C53.7201 116.321 53.5201 116.141 53.5201 115.941V112.041H50.2601V115.941C50.2601 116.161 50.0601 116.321 49.8201 116.321H45.5401C45.5401 116.321 45.4401 116.321 45.3601 116.281C45.2001 116.221 45.0801 116.081 45.0801 115.921V106.201C45.0801 102.201 48.2201 101.641 50.9801 101.641H52.7801C55.5401 101.641 58.6801 102.201 58.6801 106.201V115.921C58.6801 116.141 58.4601 116.301 58.2201 116.301L58.2401 116.321ZM53.5201 106.201C53.5201 105.721 53.3401 105.581 52.8001 105.581H51.0001C50.4601 105.581 50.2801 105.721 50.2801 106.201V108.321H53.5401V106.201H53.5201Z" fill="white"/>
<path d="M70.3391 116.299C69.4591 116.439 68.1591 116.519 67.0191 116.519C64.2591 116.519 61.1191 115.959 61.1191 111.959V102.239C61.1191 102.019 61.3391 101.859 61.5791 101.859H65.8591C66.0991 101.859 66.2991 102.039 66.2991 102.239V111.959C66.2991 112.439 66.4791 112.579 67.0191 112.579H70.3391C70.5791 112.579 70.7791 112.759 70.7791 112.959V115.899C70.7791 116.119 70.5791 116.259 70.3391 116.299Z" fill="white"/>
<path d="M82.0189 116.519C79.6389 116.519 77.9989 116.359 76.6389 116.139C76.1189 116.059 75.8789 115.879 75.8789 115.299V102.839C75.8789 102.259 76.1189 102.079 76.6389 101.999C77.9989 101.779 79.6589 101.619 82.0189 101.619C86.3789 101.619 89.2989 103.539 89.2989 108.179V109.959C89.2989 114.599 86.3789 116.519 82.0189 116.519ZM84.0389 108.199C84.0389 106.139 83.5589 105.579 82.0189 105.579H81.0589V112.579H82.0189C83.5589 112.579 84.0389 112.039 84.0389 109.959V108.179V108.199Z" fill="white"/>
<path d="M101.599 116.301C100.699 116.401 99.0993 116.521 97.1793 116.521C94.4193 116.521 91.2793 115.961 91.2793 111.961V106.201C91.2793 102.201 94.4193 101.641 97.1793 101.641C99.0993 101.641 100.699 101.761 101.599 101.861C101.839 101.861 102.039 102.041 102.039 102.261V105.201C102.039 105.421 101.839 105.581 101.599 105.581H97.1793C96.6393 105.581 96.4593 105.721 96.4593 106.201V107.261H101.599C101.839 107.261 102.039 107.441 102.039 107.641V110.381C102.039 110.601 101.839 110.761 101.599 110.761H96.4593V111.921C96.4593 112.401 96.6393 112.541 97.1793 112.541H101.599C101.839 112.541 102.039 112.721 102.039 112.921V115.861C102.039 116.081 101.839 116.241 101.599 116.261V116.301Z" fill="white"/>
<path d="M121.179 116.321H116.899C116.659 116.321 116.459 116.141 116.459 115.941V107.421C116.459 105.881 115.739 105.541 114.599 105.541C114.119 105.541 113.559 105.541 112.979 105.621V115.941C112.979 116.161 112.759 116.321 112.519 116.321H108.259C108.019 116.321 107.799 116.141 107.799 115.941V103.621C107.799 102.421 108.159 102.141 109.339 101.961C110.439 101.801 113.179 101.641 113.979 101.641C118.579 101.641 121.659 102.401 121.659 107.421V115.941C121.659 116.161 121.439 116.321 121.199 116.321H121.179Z" fill="white"/>
<path d="M134.279 116.301C133.379 116.401 131.779 116.521 129.859 116.521C127.099 116.521 123.939 115.961 123.939 111.961V106.201C123.939 102.201 127.079 101.641 129.859 101.641C131.779 101.641 133.379 101.761 134.279 101.861C134.519 101.861 134.719 102.041 134.719 102.261V105.201C134.719 105.421 134.519 105.581 134.279 105.581H129.859C129.319 105.581 129.139 105.721 129.139 106.201V107.261H134.279C134.519 107.261 134.719 107.441 134.719 107.641V110.381C134.719 110.601 134.519 110.761 134.279 110.761H129.139V111.921C129.139 112.401 129.319 112.541 129.859 112.541H134.279C134.519 112.541 134.719 112.721 134.719 112.921V115.861C134.719 116.081 134.519 116.241 134.279 116.261V116.301Z" fill="white"/>
<path d="M141.98 116.319H137.7C137.46 116.319 137.24 116.139 137.24 115.939V102.239C137.24 102.019 137.46 101.859 137.7 101.859H141.98C142.22 101.859 142.42 102.039 142.42 102.239V115.939C142.42 116.159 142.22 116.319 141.98 116.319Z" fill="white"/>
<path d="M156.859 115.98C155.519 116.24 153.679 116.52 151.599 116.52C148.799 116.52 144.619 115.52 144.619 109.92V108.26C144.619 102.54 148.899 101.66 151.819 101.66C154.199 101.66 155.879 102.02 156.859 102.26C157.299 102.38 157.319 102.44 157.319 102.68V105.54C157.319 105.84 157.259 105.92 156.939 105.9C156.279 105.82 154.419 105.7 153.059 105.7C150.659 105.7 149.879 106.1 149.879 108.26V109.96C149.879 112.52 150.959 112.6 151.619 112.6C151.819 112.6 152.139 112.6 152.339 112.54V109.04C152.339 108.82 152.539 108.66 152.779 108.66H156.879C157.119 108.66 157.319 108.84 157.319 109.04V115.58C157.319 115.92 157.259 115.94 156.859 116V115.98Z" fill="white"/>
<path d="M169.959 116.301C169.059 116.401 167.459 116.521 165.539 116.521C162.779 116.521 159.619 115.961 159.619 111.961V106.201C159.619 102.201 162.759 101.641 165.539 101.641C167.459 101.641 169.059 101.761 169.959 101.861C170.199 101.861 170.399 102.041 170.399 102.261V105.201C170.399 105.421 170.199 105.581 169.959 105.581H165.539C164.999 105.581 164.819 105.721 164.819 106.201V107.261H169.959C170.199 107.261 170.399 107.441 170.399 107.641V110.381C170.399 110.601 170.199 110.761 169.959 110.761H164.819V111.921C164.819 112.401 164.999 112.541 165.539 112.541H169.959C170.199 112.541 170.399 112.721 170.399 112.921V115.861C170.399 116.081 170.199 116.241 169.959 116.261V116.301Z" fill="white"/>
</g>
<defs>
<clipPath id="clip0_13440_2786">
<rect width="200" height="200" fill="white"/>
</clipPath>
</defs>
</svg>
